<svg width="61" height="60" viewBox="0 0 61 60" fill="none"
    xmlns="http://www.w3.org/2000/svg">
    <g clip-path="url(#clip0_1019_6248)">
        <rect width="60" height="60" transform="translate(0.425781)" />
        <path d="M49.7608 23.22V42.15C49.7608 43.25 48.8608 44.15 47.7608 44.15H2.56079C1.46079 44.15 0.560791 43.25 0.560791 42.15V23.55C0.560791 10.63 11.0408 0.150024 23.9608 0.150024V23.22H49.7608Z" fill="#9F7FF7"/>
        <path d="M5.9209 54.27C5.8609 54.22 5.81089 54.12 5.74089 54.11C5.79089 54.2 5.8409 54.24 5.9209 54.27ZM9.5109 56.08C9.4809 56.14 9.3809 56.08 9.3209 56.08C9.3509 56.02 9.4509 56.08 9.5109 56.08ZM6.7609 55.01C6.7609 55.01 6.86089 55.07 6.88089 55.1C6.83089 55.12 6.7909 55.04 6.7609 55.01ZM4.7309 52.86C4.7309 52.86 4.8109 52.94 4.7909 52.96C4.7709 52.9 4.7309 52.9 4.7309 52.86ZM5.24089 53.64C5.24089 53.64 5.19089 53.58 5.16089 53.56C5.14089 53.57 5.16089 53.59 5.16089 53.6C5.13089 53.62 5.1209 53.55 5.0909 53.53C5.1109 53.53 5.1309 53.53 5.1409 53.54C5.1409 53.48 5.0709 53.42 5.0409 53.37C5.1209 53.42 5.19089 53.55 5.22089 53.63L5.24089 53.64ZM6.52089 55.05C6.52089 55.05 6.6009 55.1 6.6409 55.12C6.6009 55.14 6.56089 55.07 6.52089 55.05ZM3.9809 51.5C3.9809 51.5 3.93089 51.57 3.94089 51.63C3.88089 51.63 3.8909 51.52 3.9809 51.5ZM4.97089 57.85C5.02089 57.85 5.1109 57.93 5.1809 57.96C5.1209 57.97 5.03089 57.88 4.97089 57.85ZM1.4609 54.15C1.4609 54.15 1.4409 54.06 1.3909 54C1.4609 54 1.4609 54.09 1.4609 54.15ZM2.9009 56.63C2.8309 56.63 2.7709 56.5 2.7109 56.44C2.7709 56.42 2.8809 56.58 2.9009 56.63ZM3.44089 57.15C3.37089 57.17 3.2909 57.05 3.2109 57C3.2809 56.98 3.36089 57.13 3.44089 57.15ZM3.4809 51.36C3.4809 51.36 3.48089 51.44 3.55089 51.46C3.52089 51.53 3.53089 51.62 3.55089 51.72C3.55089 51.73 3.5709 51.72 3.5709 51.74C3.6009 51.72 3.69089 51.73 3.66089 51.68C3.77089 51.69 3.7109 51.82 3.6509 51.83C3.6509 51.88 3.68089 51.88 3.69089 51.91C3.73089 51.83 3.79089 51.79 3.74089 51.71C3.82089 51.69 3.8309 51.69 3.9209 51.64C3.9509 51.71 3.9809 51.7 4.0709 51.71C4.0709 51.75 4.0709 51.78 4.0709 51.82C4.0809 51.83 4.1109 51.82 4.1209 51.85C4.1709 51.85 4.14089 51.8 4.19089 51.8C4.32089 52.46 4.7109 53.05 5.0909 53.63C5.3009 53.69 5.2709 53.83 5.4209 53.98C5.4509 53.92 5.35089 53.87 5.35089 53.81C5.68089 54.18 6.0409 54.58 6.3909 54.77C6.5109 54.94 6.7109 55.13 6.9209 55.23C6.9609 55.25 6.94089 55.19 6.97089 55.2C7.10089 55.29 7.09089 55.31 7.22089 55.38C7.15089 55.47 7.0509 55.4 6.9609 55.34C7.0509 55.41 7.2209 55.57 7.2509 55.52C7.4809 55.62 7.6409 55.71 7.9009 55.81C7.9409 55.79 7.99089 55.81 8.02089 55.76C8.11089 55.8 8.2009 55.84 8.2809 55.83C8.2809 55.79 8.20089 55.79 8.16089 55.76C8.25089 55.73 8.44089 55.81 8.44089 55.92C8.67089 56 8.9209 56.08 9.1209 56.05C9.2709 56.28 9.5509 56.17 9.8109 56.23C9.6409 56.17 9.9109 56.19 9.9309 56.19L10.3609 56.12C10.6109 56.09 10.8109 56.12 10.9809 56.09C11.3909 56 11.8009 55.99 12.1709 55.99C12.2109 55.98 12.2209 55.95 12.2509 55.93C12.2509 55.95 12.2409 55.95 12.2309 55.95C12.3609 56.02 12.5609 56.17 12.4809 56.37C12.5209 56.45 12.5909 56.49 12.6709 56.55C12.6509 56.81 12.7909 57.09 12.7109 57.33C12.8409 57.48 12.8209 57.71 12.8709 57.9C12.9309 58.12 13.1009 58.34 12.9509 58.52C13.0809 59.24 11.8609 59.23 11.2809 59.2C10.9409 59.33 10.5709 59.19 10.1809 59.2C10.1209 59.2 10.1109 59.24 10.0609 59.25C9.5109 59.18 9.0109 59.2 8.5309 59.09C8.8209 59.2 8.9709 59.2 9.3209 59.26C9.4609 59.29 9.2509 59.28 9.2009 59.26C8.1009 59.17 6.7009 58.79 5.4609 58.06C5.33089 57.98 5.20089 57.84 5.10089 57.86C4.93089 57.72 4.8209 57.64 4.6509 57.54C4.6309 57.56 4.7209 57.63 4.7309 57.6C4.5209 57.6 4.2509 57.26 4.0009 57.11C4.1609 57.43 4.86089 57.82 5.16089 58.04C4.57089 57.72 4.1509 57.33 3.6409 56.97C3.6709 56.95 3.5709 56.91 3.6409 56.89C3.3909 56.66 3.1909 56.45 3.0109 56.23C2.8809 56.08 2.68089 55.98 2.63089 55.78C1.91089 54.81 1.45089 53.87 1.24089 52.9C1.31089 52.93 1.2209 53 1.3009 53.05C1.3009 52.98 1.2809 52.9 1.3009 52.84C1.1909 52.78 1.13089 52.32 1.27089 52.21C1.28089 52.36 1.26089 52.48 1.31089 52.65C1.34089 52.6 1.29089 52.5 1.35089 52.47C1.40089 52.55 1.4109 52.73 1.4309 52.83C1.4509 52.85 1.4609 52.83 1.4609 52.8C1.5509 53.03 1.5109 53.35 1.7109 53.56C1.6809 53.45 1.5709 53.31 1.6109 53.2C1.6409 53.22 1.6509 53.35 1.6909 53.42C1.6909 53.31 1.67089 53.25 1.63089 53.13C1.60089 53.24 1.60089 53.06 1.56089 52.99C1.68089 53.15 1.7809 53.35 1.8609 53.18C1.7909 52.92 1.76089 52.89 1.70089 52.72C1.68089 52.76 1.7209 52.79 1.6509 52.78L1.6809 52.87C1.6509 52.77 1.5309 52.75 1.4709 52.62C1.4909 52.62 1.5009 52.66 1.5109 52.69C1.5609 52.66 1.5609 52.6 1.5509 52.53C1.6009 52.52 1.6009 52.61 1.6509 52.58C1.7009 52.55 1.62089 52.55 1.63089 52.51C1.68089 52.48 1.6709 52.59 1.7109 52.58C1.6909 52.5 1.7109 52.4 1.6509 52.26C1.6709 52.26 1.69089 52.27 1.70089 52.3C1.73089 52.24 1.6609 52.16 1.6409 52.1C1.7309 52.09 1.6809 52 1.7509 51.97C1.7109 52.1 1.8309 52.1 1.7509 52.16C1.8909 52.2 1.8609 52.4 1.9609 52.54C1.9609 52.45 1.9209 52.33 1.9009 52.23C1.9309 52.23 1.94089 52.26 1.95089 52.29C1.97089 52.28 1.9909 52.2 1.9309 52.24C1.9509 52.18 2.01089 52.27 2.03089 52.28C2.03089 52.25 2.03089 52.23 2.10089 52.22C2.14089 52.29 2.0809 52.48 2.2109 52.54C2.2109 52.57 2.2109 52.6 2.1909 52.62C2.2309 52.67 2.29089 52.68 2.31089 52.78C2.24089 52.69 2.2909 52.83 2.2309 52.87C2.2909 52.85 2.3309 53.08 2.4009 53.15C2.4009 53.06 2.31089 52.87 2.28089 52.81C2.30089 52.81 2.3209 52.83 2.3309 52.85C2.3009 52.69 2.25089 52.5 2.13089 52.37C2.18089 52.35 2.1509 52.28 2.1609 52.23C2.1409 52.17 2.0609 52.21 2.0409 52.14C2.1509 52.1 2.1809 52.12 2.2309 52.23C2.2209 52.1 2.1009 51.92 2.2909 51.81C2.2009 51.95 2.2209 52.12 2.3009 52.29C2.3209 52.21 2.22089 52.06 2.27089 51.99C2.27089 52.04 2.3209 52.03 2.3409 52.06C2.3809 52 2.36089 52.04 2.38089 51.96C2.43089 51.98 2.3709 52.05 2.4109 52.11C2.4709 52.11 2.4109 51.99 2.4609 52.08C2.4909 52.08 2.5009 52 2.4609 52.01C2.4809 52.01 2.5709 52.05 2.6209 52.01C2.6609 52.09 2.6209 52.06 2.6809 52.15C2.7609 52.08 2.6109 52.01 2.6409 51.95C2.6009 51.98 2.51089 51.91 2.53089 52C2.44089 51.98 2.5109 51.91 2.5409 51.86C2.5909 51.86 2.54089 51.91 2.56089 51.94C2.70089 51.94 2.80089 51.67 2.91089 51.77C2.96089 51.77 2.9309 51.73 2.9509 51.71C3.0409 51.76 3.0209 51.87 3.0909 51.95C3.1109 51.91 3.0709 51.78 3.0309 51.75C3.0309 51.7 3.08089 51.75 3.08089 51.79C3.18089 51.73 3.0209 51.55 3.0309 51.5C3.0709 51.47 3.1409 51.59 3.2009 51.6C3.1909 51.62 3.16089 51.64 3.19089 51.68C3.14089 51.64 3.1709 51.7 3.1209 51.68C3.2209 51.72 3.2209 51.77 3.3109 51.82C3.3609 51.73 3.3109 51.65 3.3709 51.54C3.3109 51.47 3.2909 51.44 3.3209 51.35C3.3709 51.34 3.43089 51.42 3.47089 51.35L3.4809 51.36ZM6.6409 55.14C6.6409 55.14 6.7409 55.24 6.7909 55.21C6.3809 54.91 6.0009 54.47 5.6209 54.22C5.6509 54.27 5.7409 54.31 5.7309 54.36C5.7109 54.36 5.7009 54.36 5.6809 54.36C5.8209 54.47 6.1009 54.78 6.3209 54.9C6.3109 54.9 6.2909 54.87 6.2809 54.89C6.3709 54.97 6.5909 55.21 6.6409 55.16V55.14ZM2.88089 51.8L2.7809 51.83C2.8109 52.09 2.9009 52.41 3.0609 52.64C2.9809 52.4 2.9109 52.23 2.9009 52.06C2.9309 52.06 2.9109 52.03 2.9609 52.07C2.9509 51.93 2.88089 51.92 2.88089 51.79V51.8ZM2.0909 52.5C2.1209 52.6 2.1209 52.81 2.2309 52.91C2.2109 52.85 2.1309 52.69 2.2109 52.76C2.2109 52.68 2.1409 52.56 2.0909 52.5ZM10.4709 59.15C10.4109 59.13 10.4509 59.12 10.4509 59.08C10.3309 59.06 10.2209 59.03 10.0709 59.03C10.1209 59.13 10.3209 59.24 10.4709 59.15ZM9.2109 59.02C9.2109 59.1 9.4709 59.14 9.4809 59.05C9.3809 59 9.3409 59.04 9.2109 59.02ZM5.49089 57.77C5.49089 57.77 5.52089 57.77 5.49089 57.8C5.58089 57.78 5.63089 57.89 5.72089 57.9C5.70089 57.86 5.74089 57.92 5.77089 57.89C5.77089 57.92 5.80089 57.91 5.85089 57.94C6.00089 57.99 5.5509 57.73 5.5009 57.73C5.5009 57.73 5.5009 57.71 5.4809 57.72C5.5309 57.75 5.41089 57.74 5.47089 57.77H5.49089ZM4.60089 57.18C4.42089 57.07 4.8409 57.39 4.6409 57.23C4.8509 57.41 5.24089 57.66 5.47089 57.74C5.14089 57.59 4.91089 57.36 4.61089 57.19L4.60089 57.18ZM4.86089 57.52C4.92089 57.6 4.9609 57.57 5.0009 57.66C5.8309 58.05 6.3609 58.46 7.1409 58.75C6.4909 58.32 5.59089 57.99 4.86089 57.52ZM5.85089 58.16C5.79089 58.14 5.7109 58.06 5.6709 58.08C5.7309 58.1 5.81089 58.19 5.85089 58.16ZM3.6509 56.86C3.6709 56.79 3.59089 56.72 3.52089 56.68C3.56089 56.74 3.5709 56.8 3.6509 56.86ZM7.5109 55.54C7.6109 55.53 7.6709 55.59 7.7309 55.63C7.7709 55.68 7.62089 55.59 7.69089 55.65C7.65089 55.65 7.5609 55.57 7.5109 55.54ZM4.08089 51.67C4.08089 51.67 4.1109 51.64 4.1709 51.6C4.1609 51.63 4.1709 51.67 4.1709 51.7C4.1409 51.69 4.1209 51.67 4.0709 51.68C4.0709 51.66 4.0809 51.67 4.0909 51.68L4.08089 51.67Z" fill="#124936"/>
        <path d="M9.27082 43.12C9.38082 43.09 9.55083 43.1 9.62083 43.05C9.47083 43.05 9.37082 43.07 9.27082 43.12ZM4.59083 46.76C4.54083 46.71 4.65082 46.58 4.68082 46.49C4.73082 46.55 4.62083 46.67 4.59083 46.76ZM7.68082 43.61C7.66082 43.66 7.53083 43.7 7.48083 43.7C7.50083 43.64 7.62082 43.63 7.68082 43.61ZM12.0508 43.07C12.0508 43.07 11.8808 43.06 11.8708 43.03C11.9608 43.06 11.9908 43.03 12.0508 43.07ZM10.6508 42.9C10.6508 42.9 10.7608 42.9 10.8108 42.89C10.8108 42.87 10.7708 42.87 10.7508 42.87C10.7508 42.83 10.8508 42.87 10.8908 42.86C10.8708 42.88 10.8508 42.88 10.8308 42.89C10.8908 42.94 11.0408 42.91 11.1308 42.93C11.0008 42.96 10.7808 42.93 10.6408 42.91L10.6508 42.9ZM7.83082 43.34C7.83082 43.34 7.70082 43.41 7.65082 43.45C7.65082 43.4 7.78082 43.38 7.83082 43.34ZM14.2408 43.83C14.2408 43.83 14.2108 43.72 14.1408 43.68C14.2008 43.65 14.3008 43.76 14.2408 43.83ZM6.02082 40.69C5.98082 40.75 5.79082 40.8 5.71082 40.87C5.74082 40.8 5.93082 40.75 6.02082 40.69ZM13.5508 39.86C13.5508 39.86 13.6808 39.92 13.7808 39.93C13.7108 39.97 13.6108 39.9 13.5508 39.86ZM9.30082 39.26C9.37082 39.2 9.58083 39.22 9.70083 39.2C9.67083 39.26 9.37082 39.26 9.30082 39.26ZM8.19082 39.47C8.23082 39.4 8.44082 39.36 8.58082 39.33C8.54082 39.39 8.28082 39.41 8.19082 39.47ZM14.8308 43.69C14.8308 43.69 14.7508 43.6 14.6708 43.62C14.6208 43.53 14.5108 43.44 14.4008 43.36C14.3808 43.36 14.3708 43.36 14.3508 43.36C14.3508 43.4 14.2608 43.45 14.3308 43.47C14.2208 43.52 14.1408 43.36 14.1708 43.31C14.1208 43.27 14.0908 43.29 14.0508 43.26C14.1008 43.36 14.1008 43.44 14.2208 43.48C14.1808 43.55 14.1608 43.55 14.1408 43.66C14.0408 43.61 14.0208 43.64 13.9408 43.68C13.9108 43.64 13.8708 43.6 13.8108 43.57C13.7808 43.57 13.7708 43.58 13.7408 43.57C13.7008 43.61 13.7708 43.63 13.7408 43.67C12.8908 43.11 11.8608 42.89 10.8108 42.8C10.5408 42.92 10.4108 42.82 10.0908 42.86C10.1308 42.92 10.2908 42.86 10.3608 42.9C9.61082 42.94 8.81083 43.06 8.28083 43.35C7.97083 43.37 7.59082 43.55 7.30082 43.72C7.24082 43.76 7.32082 43.76 7.30082 43.79C7.09082 43.91 7.08083 43.89 6.89083 44.02C6.85083 43.91 7.01082 43.83 7.15082 43.74C7.00082 43.81 6.68082 43.95 6.72082 44.01C6.42082 44.23 6.21082 44.42 5.91082 44.7C5.90082 44.75 5.83082 44.81 5.86082 44.86C5.76082 44.97 5.65082 45.08 5.61082 45.18C5.66082 45.18 5.71082 45.08 5.76083 45.04C5.73082 45.18 5.51082 45.39 5.40082 45.36C5.18082 45.65 4.93082 45.96 4.85082 46.25C4.54082 46.41 4.49082 46.82 4.33082 47.18C4.45082 46.95 4.33082 47.34 4.32082 47.37C4.25082 47.58 4.25082 47.81 4.22082 48C4.16082 48.37 4.10082 48.66 4.07082 48.92C4.08082 49.55 4.02082 50.18 4.05082 50.71C4.06082 50.77 4.10082 50.79 4.11082 50.84C4.09082 50.84 4.09083 50.82 4.09083 50.8C4.02083 50.98 3.88082 51.24 3.66082 51.08C3.58082 51.12 3.54083 51.22 3.48083 51.32C3.21083 51.24 2.93082 51.38 2.68082 51.21C2.53082 51.37 2.30082 51.29 2.10082 51.33C1.88082 51.37 1.66082 51.58 1.47082 51.32C1.11082 51.34 0.910824 50.91 0.860824 50.35C0.790824 49.79 0.920824 49.13 0.970824 48.69C0.920824 48.16 1.15082 47.63 1.28082 47.06C1.30082 46.98 1.26082 46.95 1.28082 46.88C1.56082 46.09 1.78082 45.37 2.15082 44.74C1.88082 45.11 1.82082 45.33 1.58082 45.8C1.49082 46 1.58082 45.7 1.64082 45.63C2.25082 44.09 3.57083 42.29 5.42083 41.16C5.61083 41.04 5.88083 40.94 5.95083 40.83C6.26083 40.71 6.45082 40.61 6.71082 40.47C6.71082 40.44 6.55082 40.51 6.57082 40.53C6.75082 40.32 7.39082 40.18 7.79082 40.01C7.53082 40.01 7.14082 40.17 6.74082 40.32C6.36082 40.51 5.98082 40.69 5.71082 40.83C6.57082 40.32 7.40082 40.02 8.29082 39.75C8.29082 39.79 8.42083 39.71 8.39083 39.78C8.89083 39.66 9.33082 39.61 9.74082 39.57C10.0308 39.55 10.3408 39.45 10.6208 39.53C12.4308 39.58 13.9708 40.05 15.2208 40.86C15.1208 40.86 15.1208 40.75 15.0108 40.75C15.0808 40.82 15.1908 40.88 15.2408 40.95C15.4008 40.95 15.9608 41.35 15.9408 41.56C15.7808 41.42 15.6608 41.28 15.4408 41.14C15.4608 41.21 15.6208 41.27 15.6008 41.34C15.4708 41.29 15.2708 41.13 15.1308 41.03C15.0908 41.02 15.1108 41.06 15.1308 41.07C14.8008 40.9 14.4808 40.59 14.0608 40.52C14.2008 40.61 14.4608 40.65 14.5508 40.78C14.5008 40.78 14.3508 40.67 14.2308 40.64C14.3508 40.74 14.4508 40.78 14.6108 40.86C14.5208 40.74 14.7208 40.9 14.8308 40.94C14.5408 40.86 14.2308 40.75 14.3508 40.94C14.7408 41.14 14.7708 41.15 15.0108 41.28C14.9808 41.22 14.9208 41.22 14.9908 41.19L14.8608 41.13C15.0008 41.2 15.1208 41.16 15.3208 41.26C15.3008 41.28 15.2508 41.24 15.2108 41.22C15.2008 41.28 15.2608 41.34 15.3408 41.4C15.3108 41.44 15.2108 41.35 15.2008 41.42C15.2008 41.47 15.2608 41.43 15.3008 41.48C15.2808 41.53 15.1808 41.43 15.1508 41.46C15.2508 41.52 15.3508 41.63 15.5408 41.73C15.5208 41.74 15.4908 41.74 15.4508 41.72C15.4808 41.79 15.6408 41.84 15.7108 41.89C15.6508 41.95 15.7808 42.02 15.7508 42.08C15.6508 41.92 15.5508 41.99 15.5508 41.88C15.3908 41.92 15.2008 41.71 14.9608 41.63C15.0608 41.72 15.2208 41.8 15.3408 41.9C15.3108 41.91 15.2708 41.9 15.2308 41.87C15.2308 41.89 15.2908 41.98 15.3008 41.91C15.3508 41.98 15.2008 41.92 15.1608 41.93C15.1908 41.96 15.2208 41.97 15.1608 42.03C15.0508 41.98 14.9008 41.77 14.7208 41.78C14.7008 41.75 14.6608 41.72 14.6508 41.68C14.5608 41.66 14.4908 41.68 14.3608 41.6C14.5208 41.64 14.3208 41.54 14.3308 41.47C14.3008 41.52 14.0108 41.35 13.8608 41.33C13.9708 41.41 14.2508 41.52 14.3508 41.56C14.3208 41.56 14.2908 41.56 14.2608 41.56C14.4708 41.69 14.7108 41.84 14.9608 41.9C14.9408 41.95 15.0408 42 15.0908 42.06C15.1808 42.11 15.2008 42.02 15.3008 42.08C15.2508 42.19 15.1908 42.18 15.0408 42.1C15.2008 42.22 15.4908 42.34 15.4308 42.56C15.3608 42.36 15.1708 42.2 14.9008 42.08C14.9708 42.17 15.2308 42.26 15.2508 42.36C15.1908 42.31 15.1708 42.35 15.1108 42.33C15.1308 42.41 15.1108 42.37 15.1808 42.46C15.1108 42.46 15.0908 42.36 14.9908 42.32C14.9308 42.34 15.1108 42.44 14.9908 42.38C14.9708 42.4 15.0408 42.48 15.0708 42.45C15.0508 42.47 14.9408 42.48 14.9208 42.54C14.8008 42.48 14.8608 42.49 14.7208 42.44C14.7208 42.55 14.9408 42.53 14.9708 42.61C14.9708 42.56 15.1208 42.57 15.0108 42.49C15.1108 42.46 15.1208 42.57 15.1508 42.64C15.1008 42.67 15.0908 42.59 15.0508 42.57C14.9308 42.65 15.1208 42.99 14.9208 42.95C14.8808 42.98 14.9408 43.01 14.9508 43.03C14.8108 43.03 14.7208 42.91 14.5708 42.87C14.6008 42.92 14.7808 43.03 14.8308 43.03C14.8808 43.09 14.7808 43.06 14.7508 43.03C14.7308 43.15 15.0508 43.24 15.1008 43.31C15.1008 43.36 14.9108 43.27 14.8508 43.31C14.8408 43.28 14.8508 43.25 14.7708 43.22C14.8608 43.24 14.7708 43.19 14.8308 43.17C14.7108 43.19 14.6508 43.13 14.5208 43.14C14.5708 43.26 14.7008 43.32 14.7708 43.47C14.8908 43.51 14.9408 43.54 15.0108 43.64C14.9808 43.68 14.8508 43.64 14.8708 43.71L14.8308 43.69ZM7.63082 43.43C7.63082 43.49 7.43083 43.51 7.42083 43.57C8.10083 43.21 8.97082 43.06 9.61082 42.88C9.53082 42.88 9.40083 42.94 9.34083 42.9C9.36083 42.89 9.38083 42.87 9.39083 42.86C9.13083 42.92 8.50082 43.02 8.19082 43.22C8.21082 43.21 8.25082 43.2 8.24082 43.18C8.06082 43.22 7.60083 43.35 7.62083 43.44L7.63082 43.43ZM14.8808 42.88L14.9408 42.79C14.6408 42.55 14.2108 42.28 13.8008 42.17C14.1408 42.33 14.3808 42.47 14.5808 42.63C14.5508 42.64 14.6008 42.67 14.5108 42.65C14.6708 42.78 14.7508 42.74 14.8808 42.88ZM14.8308 41.72C14.7008 41.64 14.4608 41.44 14.2608 41.41C14.3408 41.45 14.5908 41.55 14.4408 41.53C14.5308 41.62 14.7208 41.67 14.8308 41.71V41.72ZM1.20082 47.48C1.24082 47.4 1.23082 47.45 1.28082 47.47C1.34082 47.3 1.41082 47.14 1.46082 46.92C1.35082 46.97 1.17082 47.24 1.21082 47.48H1.20082ZM1.83082 45.68C1.75082 45.65 1.59082 46.02 1.67082 46.05C1.75082 45.92 1.74082 45.84 1.83082 45.68ZM5.67083 41.26C5.67083 41.26 5.65083 41.29 5.64083 41.26C5.59083 41.36 5.42082 41.38 5.33082 41.49C5.40082 41.48 5.29082 41.5 5.30082 41.55C5.26082 41.55 5.25082 41.58 5.18082 41.63C5.00082 41.78 5.66083 41.35 5.70083 41.31C5.70083 41.31 5.73082 41.31 5.72082 41.29C5.64082 41.34 5.76083 41.21 5.67083 41.26ZM7.11082 40.55C7.40082 40.42 6.65082 40.69 7.02082 40.56C6.63082 40.69 6.00083 41.01 5.73083 41.24C6.18083 40.95 6.62082 40.75 7.11082 40.54V40.55ZM6.49082 40.67C6.35082 40.7 6.35082 40.76 6.21082 40.77C5.06082 41.5 4.19082 42.03 3.35082 42.94C4.25082 42.22 5.32083 41.24 6.50083 40.67H6.49082ZM4.94082 41.53C5.00082 41.46 5.16083 41.4 5.17083 41.35C5.10083 41.4 4.95082 41.47 4.94082 41.53ZM8.33082 39.76C8.39082 39.81 8.55082 39.76 8.66082 39.72C8.55082 39.72 8.47082 39.7 8.33082 39.76ZM6.46082 44.24C6.40082 44.36 6.27082 44.41 6.19082 44.48C6.11082 44.52 6.31082 44.35 6.19082 44.43C6.22082 44.37 6.38082 44.29 6.46082 44.24ZM13.9608 43.68C13.9808 43.74 13.9608 43.73 13.9608 43.8C13.9408 43.76 13.8908 43.73 13.8608 43.7C13.9008 43.7 13.9408 43.7 13.9708 43.66C13.9908 43.68 13.9708 43.68 13.9708 43.68H13.9608Z" fill="#124936"/>
        <path d="M16.2307 52.86C16.1907 52.95 16.0907 53.07 16.0807 53.15C16.1707 53.06 16.2107 52.96 16.2307 52.86ZM16.7907 47.52C16.8707 47.52 16.8607 47.67 16.9007 47.75C16.8307 47.75 16.8407 47.59 16.7907 47.52ZM16.8607 51.49C16.8607 51.49 16.8907 51.34 16.9207 51.3C16.9507 51.35 16.8807 51.44 16.8607 51.49ZM14.6707 54.79C14.6707 54.79 14.7707 54.68 14.8007 54.69C14.7307 54.73 14.7307 54.77 14.6707 54.79ZM15.5907 53.91C15.5907 53.91 15.5307 53.99 15.5107 54.03C15.5307 54.04 15.5407 54.02 15.5607 54C15.5807 54.03 15.5007 54.07 15.4807 54.1C15.4807 54.08 15.4807 54.06 15.4907 54.04C15.4207 54.05 15.3607 54.17 15.2907 54.23C15.3407 54.12 15.5007 53.99 15.5907 53.91ZM16.9707 51.75C16.9707 51.75 17.0007 51.62 17.0007 51.57C17.0307 51.61 16.9707 51.7 16.9707 51.75ZM12.9407 55.95C13.0007 55.95 13.0407 55.99 13.1107 55.97C13.1107 56.04 12.9607 56.04 12.9407 55.95ZM20.1307 52.25C20.1107 52.19 20.1907 52.03 20.2007 51.93C20.2307 51.99 20.1507 52.15 20.1307 52.25ZM16.3107 57.92C16.3107 57.92 16.1907 57.97 16.1307 58.04C16.1307 57.97 16.2407 57.94 16.3107 57.92ZM19.1707 55.33C19.1707 55.41 19.0307 55.54 18.9807 55.64C18.9507 55.58 19.1207 55.37 19.1707 55.33ZM19.6807 54.45C19.7107 54.52 19.5907 54.68 19.5407 54.79C19.5107 54.72 19.6707 54.54 19.6807 54.45ZM12.7407 56.48C12.7407 56.48 12.8507 56.47 12.8807 56.39C12.9807 56.4 13.1007 56.38 13.2207 56.34C13.2307 56.34 13.2307 56.32 13.2507 56.31C13.2307 56.28 13.2307 56.19 13.1707 56.23C13.1907 56.12 13.3507 56.14 13.3707 56.2C13.4307 56.19 13.4307 56.15 13.4707 56.14C13.3707 56.11 13.3107 56.06 13.2207 56.14C13.1907 56.06 13.1907 56.05 13.1307 55.97C13.2207 55.92 13.2107 55.89 13.2207 55.8C13.2707 55.8 13.3207 55.8 13.3707 55.77C13.3907 55.75 13.3807 55.73 13.4107 55.72C13.4007 55.67 13.3507 55.71 13.3407 55.66C14.2107 55.38 14.9307 54.75 15.5907 54.09C15.6407 53.82 15.8207 53.81 15.9707 53.57C15.9107 53.57 15.8507 53.7 15.7807 53.72C16.1807 53.18 16.5707 52.57 16.7007 52.04C16.8707 51.83 17.0007 51.47 17.0607 51.17C17.0607 51.11 17.0107 51.17 17.0207 51.12C17.0707 50.91 17.0907 50.91 17.1207 50.72C17.2307 50.76 17.1807 50.92 17.1607 51.06C17.2007 50.92 17.3107 50.63 17.2507 50.61C17.3007 50.28 17.3007 50.02 17.3107 49.65C17.2807 49.61 17.2907 49.53 17.2307 49.52C17.2307 49.39 17.2307 49.24 17.1807 49.16C17.1407 49.19 17.1807 49.29 17.1707 49.34C17.1007 49.24 17.1007 48.96 17.1907 48.9C17.1607 48.57 17.1107 48.22 16.9807 47.98C17.0907 47.68 16.8607 47.39 16.7507 47.05C16.8007 47.28 16.6507 46.95 16.6407 46.92C16.5407 46.75 16.4207 46.59 16.3107 46.44C16.1107 46.17 16.0007 45.91 15.8507 45.74C15.4707 45.32 15.1407 44.87 14.8207 44.5C14.7807 44.47 14.7407 44.48 14.7007 44.45C14.7107 44.44 14.7307 44.45 14.7407 44.45C14.6907 44.29 14.6507 44 14.9107 43.98C14.9507 43.9 14.9207 43.8 14.9107 43.69C15.1507 43.57 15.2907 43.29 15.5707 43.25C15.5907 43.04 15.8107 42.94 15.9407 42.78C16.0807 42.6 16.1407 42.32 16.4207 42.38C16.9507 41.86 17.9507 43.15 18.3407 43.85C18.7107 44.17 18.8307 44.68 19.1107 45.13C19.1507 45.2 19.1907 45.19 19.2307 45.25C19.5207 45.94 19.8307 46.55 19.9807 47.19C19.9207 46.78 19.8407 46.6 19.6907 46.14C19.6307 45.95 19.7407 46.21 19.7607 46.28C20.3307 47.67 20.6007 49.63 20.2207 51.54C20.1807 51.74 20.0807 51.98 20.1107 52.09C20.0007 52.37 19.9607 52.55 19.8907 52.81C19.9107 52.83 19.9707 52.68 19.9307 52.68C19.9607 52.93 19.6807 53.44 19.5507 53.81C19.8807 53.47 20.1207 52.41 20.2807 51.94C20.1007 52.83 19.7807 53.54 19.4607 54.32C19.4307 54.29 19.4107 54.43 19.3707 54.37C19.1607 54.78 18.9407 55.1 18.7107 55.41C18.5707 55.63 18.4507 55.89 18.2207 56.03C17.1307 57.24 15.9707 58.07 14.7007 58.51C14.7407 58.43 14.8307 58.51 14.9007 58.42C14.8107 58.43 14.7007 58.47 14.6307 58.47C14.5407 58.59 13.9507 58.78 13.8107 58.63C14.0007 58.59 14.1707 58.6 14.3807 58.5C14.3207 58.48 14.1907 58.56 14.1507 58.5C14.2507 58.43 14.4807 58.37 14.6207 58.33C14.6507 58.31 14.6107 58.3 14.5807 58.31C14.8807 58.18 15.2807 58.11 15.5607 57.85C15.4207 57.91 15.2407 58.06 15.1007 58.05C15.1207 58.01 15.2807 57.97 15.3807 57.9C15.2307 57.92 15.1607 57.97 15.0107 58.04C15.1507 58.04 14.9207 58.09 14.8307 58.16C15.0407 57.99 15.2907 57.83 15.0707 57.79C14.7307 57.94 14.7007 57.98 14.4707 58.07C14.5307 58.08 14.5607 58.04 14.5507 58.11L14.6707 58.06C14.5407 58.11 14.5107 58.24 14.3407 58.32C14.3407 58.29 14.3907 58.28 14.4307 58.26C14.3907 58.21 14.3207 58.22 14.2307 58.26C14.2107 58.21 14.3307 58.19 14.2907 58.14C14.2507 58.1 14.2507 58.18 14.2007 58.18C14.1707 58.13 14.3007 58.12 14.3007 58.08C14.2007 58.11 14.0707 58.14 13.8907 58.21C13.8907 58.19 13.9107 58.17 13.9507 58.15C13.8807 58.13 13.7607 58.22 13.6907 58.24C13.6707 58.16 13.5507 58.22 13.5307 58.15C13.7007 58.17 13.7007 58.05 13.7807 58.12C13.8407 57.98 14.0907 57.95 14.2707 57.82C14.1507 57.84 14.0007 57.92 13.8707 57.96C13.8707 57.93 13.9107 57.91 13.9507 57.89C13.9307 57.88 13.8407 57.87 13.8807 57.92C13.8007 57.92 13.9207 57.83 13.9407 57.8C13.9107 57.8 13.8807 57.82 13.8607 57.74C13.9507 57.68 14.1907 57.7 14.2807 57.55C14.3207 57.55 14.3607 57.55 14.3907 57.55C14.4607 57.5 14.4707 57.43 14.6007 57.38C14.4907 57.48 14.6707 57.39 14.7107 57.44C14.6807 57.38 14.9707 57.27 15.0707 57.19C14.9507 57.22 14.7207 57.36 14.6407 57.41C14.6407 57.39 14.6707 57.37 14.6907 57.34C14.4807 57.43 14.2407 57.5 14.0707 57.66C14.0407 57.61 13.9507 57.66 13.8907 57.66C13.8107 57.7 13.8607 57.77 13.7707 57.8C13.7107 57.69 13.7607 57.67 13.8907 57.58C13.7207 57.63 13.4707 57.78 13.3507 57.6C13.5307 57.66 13.7607 57.63 13.9807 57.49C13.8807 57.49 13.6807 57.64 13.5907 57.59C13.6607 57.57 13.6407 57.54 13.6807 57.5C13.6107 57.46 13.6507 57.48 13.5507 57.47C13.5807 57.41 13.6707 57.47 13.7507 57.41C13.7607 57.35 13.6007 57.43 13.7107 57.37C13.7107 57.34 13.6107 57.34 13.6207 57.39C13.6207 57.37 13.6707 57.28 13.6207 57.22C13.7307 57.16 13.6807 57.2 13.8007 57.12C13.7207 57.05 13.6207 57.24 13.5507 57.21C13.5907 57.24 13.5007 57.35 13.6207 57.32C13.5907 57.42 13.5007 57.36 13.4307 57.33C13.4307 57.28 13.5007 57.32 13.5407 57.29C13.5407 57.14 13.1807 57.09 13.3207 56.96C13.3207 56.91 13.2707 56.94 13.2407 56.93C13.3107 56.82 13.4607 56.84 13.5507 56.74C13.5007 56.74 13.3207 56.8 13.2907 56.84C13.2207 56.84 13.2907 56.79 13.3407 56.79C13.2607 56.69 13.0207 56.89 12.9507 56.89C12.9207 56.85 13.0707 56.76 13.0807 56.69C13.1107 56.7 13.1307 56.72 13.1907 56.69C13.1307 56.75 13.2207 56.7 13.1907 56.76C13.2407 56.65 13.3107 56.64 13.3707 56.55C13.2507 56.51 13.1407 56.58 13.0007 56.53C12.9107 56.6 12.8607 56.63 12.7507 56.62C12.7307 56.57 12.8407 56.49 12.7607 56.47L12.7407 56.48ZM17.0307 51.55C17.0307 51.55 17.1007 51.37 17.0607 51.33C16.8807 51.99 16.4507 52.66 16.2207 53.22C16.2807 53.17 16.3007 53.04 16.3607 53.02C16.3607 53.04 16.3607 53.07 16.3607 53.09C16.4607 52.87 16.7807 52.4 16.8307 52.07C16.8307 52.09 16.8107 52.12 16.8307 52.13C16.9007 51.98 17.1107 51.6 17.0307 51.56V51.55ZM13.3207 57.02L13.3607 57.12C13.6907 57.03 14.1307 56.88 14.4207 56.64C14.1207 56.8 13.8907 56.89 13.6707 56.95C13.6707 56.92 13.6307 56.95 13.6907 56.88C13.5207 56.93 13.5007 57.01 13.3307 57.03L13.3207 57.02ZM14.2207 57.69C14.3507 57.64 14.6307 57.59 14.7507 57.45C14.6707 57.48 14.4707 57.62 14.5607 57.51C14.4607 57.53 14.3007 57.63 14.2207 57.69ZM18.8707 44.81C18.8907 44.88 18.8707 44.85 18.8207 44.87C18.8807 45.02 18.9407 45.16 19.0307 45.34C19.0907 45.23 19.0507 44.94 18.8707 44.81ZM19.5507 46.38C19.6307 46.35 19.5007 46.01 19.4207 46.04C19.4407 46.18 19.5007 46.22 19.5507 46.38ZM19.9507 51.64C19.9507 51.64 19.9507 51.6 19.9707 51.62C19.9307 51.52 20.0207 51.4 20.0007 51.28C19.9707 51.33 20.0207 51.24 19.9807 51.22C20.0107 51.19 20.0007 51.17 20.0007 51.09C20.0107 50.88 19.8907 51.57 19.8907 51.63C19.8907 51.63 19.8707 51.65 19.8907 51.66C19.9007 51.58 19.9307 51.74 19.9507 51.65V51.64ZM19.5507 53.02C19.4707 53.29 19.7307 52.63 19.5907 52.95C19.7507 52.61 19.9007 52 19.9207 51.68C19.8407 52.16 19.6907 52.57 19.5507 53.02ZM19.8507 52.54C19.9207 52.43 19.8807 52.39 19.9607 52.29C20.1707 51.08 20.3707 50.19 20.3307 49.08C20.1907 50.11 20.1807 51.41 19.8507 52.54ZM20.2307 50.99C20.2307 51.07 20.1807 51.21 20.2107 51.26C20.2107 51.18 20.2707 51.04 20.2307 50.99ZM19.3707 54.33C19.2907 54.33 19.2207 54.47 19.1907 54.57C19.2507 54.49 19.3107 54.45 19.3707 54.33ZM17.2107 50.27C17.1707 50.16 17.2107 50.05 17.2107 49.94C17.2407 49.86 17.2207 50.1 17.2407 49.98C17.2607 50.03 17.2207 50.19 17.2007 50.27H17.2107ZM13.1907 55.8C13.1407 55.78 13.1507 55.77 13.1007 55.73C13.1407 55.73 13.1907 55.72 13.2307 55.71C13.2107 55.74 13.1907 55.78 13.2007 55.82C13.1807 55.82 13.1807 55.81 13.2007 55.8H13.1907Z" fill="#124936"/>
        <path d="M17.1009 49.24C17.1309 49.53 17.0909 49.95 17.1009 50.16C17.1609 49.79 17.1509 49.51 17.1009 49.24ZM5.47089 45.38C5.45089 45.27 5.7909 45.01 5.9309 44.83C5.9309 44.94 5.60089 45.19 5.47089 45.38ZM15.5709 45.31C15.4709 45.26 15.2809 44.98 15.1909 44.89C15.3209 44.93 15.4709 45.19 15.5709 45.31ZM13.9809 55.28C13.9809 55.28 14.3309 55.04 14.3709 55.03C14.1709 55.17 14.1209 55.22 13.9809 55.28ZM16.4309 52.68C16.4609 52.74 16.3009 52.94 16.2409 53.05C16.2609 53.05 16.3009 52.98 16.3409 52.93C16.3609 52.97 16.2109 53.15 16.1609 53.25C16.1609 53.21 16.1909 53.16 16.2109 53.1C16.1009 53.22 15.9209 53.55 15.7509 53.72C15.9309 53.45 16.2609 52.98 16.4309 52.69V52.68ZM16.0909 45.7C16.0109 45.66 15.8809 45.4 15.7609 45.29C15.8509 45.31 16.0009 45.57 16.0909 45.7ZM8.25091 56.02C8.41091 56.08 8.4309 56.15 8.6309 56.22C8.5309 56.24 8.19091 56.09 8.25091 56.02ZM17.7209 42.68C17.5809 42.6 17.2509 42.24 17.0409 42.06C17.1809 42.14 17.5109 42.49 17.7209 42.68ZM14.0909 59.1C14.0309 59.17 13.7409 59.19 13.4909 59.3C13.6009 59.2 13.8909 59.15 14.0909 59.1ZM20.8209 50.98C20.8209 51.17 20.7209 51.7 20.6409 52.01C20.6209 51.93 20.7609 51.17 20.8209 50.98ZM20.7909 48.09C20.8609 48.22 20.9309 48.76 20.9409 49.13C20.8909 48.99 20.8609 48.35 20.7909 48.09ZM7.1309 56C7.2609 56.06 7.3809 56.16 7.5509 56.17C7.7609 56.31 8.07091 56.46 8.42091 56.57C8.46091 56.58 8.48091 56.57 8.53091 56.59C8.51091 56.54 8.6509 56.5 8.4509 56.45C8.6409 56.42 9.0009 56.58 8.9809 56.64C9.1409 56.7 9.1809 56.67 9.3109 56.69C9.0909 56.59 9.0109 56.49 8.6809 56.45C8.7009 56.37 8.7309 56.37 8.6809 56.25C8.9709 56.31 8.9709 56.28 9.1209 56.23C9.2409 56.28 9.37091 56.3 9.53091 56.34C9.60091 56.34 9.62089 56.32 9.69089 56.34C9.74089 56.29 9.5509 56.28 9.6009 56.24C10.8709 56.46 12.2209 56.27 13.4109 55.71C14.6009 55.15 15.6309 54.21 16.3309 53.07C16.5509 52.41 16.8209 52.16 17.0109 51.38C16.9409 51.45 16.8609 51.87 16.7509 52.01C17.0809 51.11 17.2409 50.11 17.1809 49.17C17.1209 48.23 16.8509 47.36 16.4809 46.69C16.2309 45.98 15.5909 45.08 14.9009 44.53C14.7609 44.42 14.8709 44.57 14.7909 44.5C14.3209 44.12 14.3109 44.09 13.8309 43.81C13.9409 43.76 14.3509 43.98 14.6609 44.25C14.3609 43.95 13.6009 43.5 13.5509 43.55C12.6909 43.14 11.9809 42.95 10.9309 42.86C10.8109 42.88 10.5909 42.86 10.5609 42.93C10.1809 42.93 9.78091 42.96 9.53091 43.04C9.61091 43.07 9.8909 43.01 10.0409 43C9.8909 43.06 9.6209 43.1 9.3709 43.12C9.1209 43.17 8.89091 43.19 8.8109 43.15C7.8909 43.38 6.9909 43.86 6.4509 44.37C5.7409 44.7 5.13091 45.52 4.64091 46.4C4.83091 46.12 4.7909 46.21 4.7009 46.37C4.6209 46.54 4.5009 46.8 4.4809 46.84C4.2709 47.36 4.13089 47.91 4.08089 48.42C3.96089 49.37 3.9609 50.15 4.1009 50.79C4.4209 52.37 5.3209 53.77 6.3109 54.71C6.42091 54.8 6.50089 54.82 6.61089 54.9C6.60089 54.91 6.5509 54.87 6.5209 54.85C6.7809 55.18 7.17091 55.64 6.64091 55.51C6.64091 55.61 6.8009 55.79 6.9509 55.96C6.5309 55.99 6.5209 56.36 5.9509 56.22C6.1309 56.55 5.73089 56.55 5.61089 56.71C5.48089 56.89 5.65089 57.33 4.97089 57C4.67089 57.22 3.63091 56.59 2.75091 55.45C1.85091 54.31 1.2709 52.68 1.0909 51.57C0.720904 50.27 0.830903 48.82 1.1609 47.35C1.2209 47.14 1.1809 47.09 1.2309 46.9C1.8709 44.86 2.9809 43.2 4.4509 42.01C3.9809 42.37 3.66089 42.66 3.36089 43C3.04089 43.32 2.7509 43.71 2.3609 44.27C2.0609 44.74 2.4609 44.04 2.6009 43.88C3.8109 42.14 5.8609 40.56 8.4109 39.99C10.9309 39.4 13.8609 39.88 16.1409 41.46C16.6109 41.8 17.1309 42.3 17.3909 42.47C17.9809 43.08 18.3209 43.5 18.7609 44.11C18.8009 44.12 18.5409 43.75 18.5409 43.8C19.0509 44.23 19.7609 45.74 20.0909 46.8C19.9809 46.17 19.5809 45.15 18.9909 44.22C18.4009 43.28 17.6009 42.5 17.0809 42.01C19.0309 43.67 20.0909 45.8 20.5209 48.13C20.4709 48.11 20.5709 48.48 20.5009 48.37C20.6709 49.67 20.5509 50.8 20.3209 51.85C20.1409 52.58 19.9709 53.37 19.5609 53.98C18.5209 56.08 16.8609 57.61 15.0309 58.51C13.1909 59.41 11.1809 59.68 9.3109 59.39C9.5209 59.36 9.6509 59.48 9.92091 59.44C9.68091 59.39 9.35091 59.37 9.17091 59.29C8.98091 59.3 8.46089 59.22 7.97089 59.06C7.48089 58.89 7.0309 58.68 6.9509 58.54C7.4609 58.77 7.8509 58.95 8.5109 59.1C8.3909 59.03 7.9709 58.95 7.9509 58.88C8.3009 58.95 8.9209 59.12 9.3409 59.19C9.4409 59.19 9.3509 59.16 9.2709 59.14C10.2009 59.26 11.3009 59.39 12.3309 59.11C11.9009 59.17 11.2609 59.28 10.9109 59.22C11.0209 59.18 11.4809 59.2 11.8009 59.14C11.4009 59.14 11.1509 59.17 10.6809 59.17C11.0209 59.24 10.3809 59.17 10.0809 59.18C10.8309 59.16 11.6809 59.05 11.1809 58.95C10.1309 58.97 9.9809 58.95 9.2909 58.88C9.4109 58.94 9.5609 58.92 9.4309 58.97L9.80089 59C9.41089 58.97 9.1609 59.03 8.6209 58.95C8.6509 58.94 8.8009 58.97 8.9109 58.98C8.8709 58.91 8.68091 58.87 8.42091 58.79C8.44091 58.74 8.76089 58.85 8.72089 58.77C8.68089 58.71 8.57089 58.75 8.44089 58.7C8.42089 58.64 8.7709 58.77 8.8009 58.72C8.5009 58.64 8.1609 58.55 7.6209 58.38C7.6609 58.37 7.7209 58.38 7.8409 58.41C7.6909 58.31 7.2909 58.24 7.1009 58.15C7.1709 58.09 6.81089 57.96 6.83089 57.89C7.20089 58.12 7.36089 58.08 7.47089 58.2C7.79089 58.19 8.4409 58.47 9.0709 58.51C8.7509 58.44 8.29091 58.33 7.92091 58.21C7.97091 58.2 8.0709 58.23 8.2009 58.25C8.1809 58.23 7.96091 58.12 8.00091 58.19C7.81091 58.09 8.2109 58.19 8.2909 58.18C8.2009 58.15 8.1109 58.13 8.1809 58.06C8.4809 58.12 9.0509 58.36 9.4509 58.31C9.5409 58.34 9.65089 58.36 9.72089 58.39C9.96089 58.39 10.0809 58.36 10.4809 58.37C10.0709 58.4 10.6409 58.41 10.6909 58.47C10.7009 58.42 11.5709 58.42 11.9209 58.31C11.5809 58.35 10.8109 58.41 10.5509 58.4C10.6009 58.38 10.6709 58.37 10.7609 58.36C10.1209 58.36 9.41091 58.25 8.78091 58.21C8.78091 58.15 8.48089 58.09 8.33089 58.03C8.09089 57.98 8.1209 58.06 7.8509 57.98C7.8509 57.85 7.98091 57.9 8.42091 57.98C7.94091 57.85 7.1609 57.61 7.0909 57.34C7.4409 57.62 8.0209 57.89 8.7609 58.01C8.5109 57.92 7.8309 57.79 7.6809 57.65C7.8609 57.71 7.8709 57.67 8.0109 57.7C7.8709 57.59 7.96089 57.65 7.72089 57.53C7.86089 57.53 8.02091 57.67 8.28091 57.73C8.39091 57.71 7.8809 57.57 8.2309 57.66C8.2609 57.64 8.0209 57.53 7.9909 57.56C8.0209 57.54 8.26089 57.55 8.22089 57.47C8.56089 57.55 8.40091 57.53 8.78091 57.59C8.66091 57.46 8.1909 57.49 8.0509 57.37C8.1009 57.43 7.7409 57.39 8.0709 57.51C7.8809 57.53 7.7309 57.41 7.6009 57.29C7.6709 57.27 7.7909 57.37 7.9009 57.4C8.0809 57.33 7.3009 56.85 7.7909 56.96C7.8509 56.93 7.69091 56.88 7.64091 56.84C7.94091 56.89 8.27091 57.05 8.64091 57.09C8.52091 57.05 8.02091 56.87 7.89091 56.86C7.71091 56.78 7.9609 56.83 8.0709 56.88C7.9909 56.75 7.19091 56.53 7.03091 56.41C7.00091 56.35 7.4609 56.55 7.5709 56.51C7.6309 56.56 7.65089 56.6 7.83089 56.66C7.61089 56.61 7.88091 56.71 7.75091 56.7C8.00091 56.72 8.1909 56.77 8.4609 56.8C8.2209 56.65 7.87089 56.56 7.58089 56.33C7.29089 56.25 7.1609 56.17 6.9109 56C6.9409 55.95 7.2709 56.08 7.1309 55.95V56ZM15.7409 45.24C15.6409 45.21 15.4009 44.81 15.2909 44.8C15.9809 45.49 16.5509 46.4 16.8609 47.37C17.1809 48.34 17.2809 49.33 17.2609 50.18C17.2909 49.97 17.2809 49.62 17.3009 49.5C17.3109 49.56 17.3209 49.62 17.3409 49.66C17.3709 48.97 17.1109 47.35 16.6009 46.56C16.6309 46.61 16.6609 46.7 16.6809 46.7C16.5009 46.26 15.8809 45.21 15.7509 45.24H15.7409ZM7.8109 57.07L7.7709 57.17C8.6809 57.53 9.98091 57.8 11.0309 57.63C10.0709 57.68 9.3609 57.56 8.7409 57.39C8.7909 57.38 8.6409 57.34 8.8709 57.37C8.3809 57.23 8.2409 57.25 7.8009 57.07H7.8109ZM9.1609 58.4C9.56089 58.49 10.3209 58.6 10.8209 58.52C10.5809 58.52 9.9009 58.54 10.2709 58.49C9.9809 58.44 9.46091 58.44 9.17091 58.4H9.1609ZM1.0209 48.44C1.0709 48.23 1.0609 48.36 1.1009 48.37C1.1909 47.91 1.2809 47.5 1.4409 46.94C1.3709 47.03 1.2509 47.25 1.1509 47.53C1.0709 47.81 1.0109 48.14 1.0209 48.44ZM2.83089 43.95C2.74089 43.89 2.1909 44.78 2.2609 44.82C2.5009 44.51 2.54089 44.33 2.83089 43.95ZM16.3609 41.92C16.3609 41.92 16.2809 41.87 16.3109 41.86C16.0809 41.74 15.8009 41.49 15.4909 41.35C15.6109 41.45 15.4009 41.29 15.3509 41.3C15.2809 41.23 15.2209 41.21 15.0309 41.12C14.4909 40.85 16.2609 41.82 16.3409 41.96C16.3409 41.96 16.3809 42.01 16.4009 42.01C16.2109 41.87 16.5809 42.09 16.3709 41.92H16.3609ZM19.0209 45.01C19.4409 45.71 18.4509 43.93 18.9309 44.81C18.4509 43.85 17.2309 42.52 16.4709 42.03C17.5709 42.87 18.3509 43.84 19.0309 45.01H19.0209ZM18.2709 43.61C18.0609 43.31 17.9809 43.3 17.8009 43.01C16.5909 41.74 15.2509 40.95 13.8809 40.42C12.5009 39.9 11.0409 39.67 9.4609 39.85C10.9309 39.77 12.6109 39.97 14.2009 40.61C15.8009 41.23 17.2409 42.33 18.2709 43.61ZM14.7709 40.76C14.9809 40.85 15.3509 41.07 15.4509 41.1C15.2509 40.98 14.8809 40.78 14.7709 40.76ZM20.4709 48.28C20.4109 48.41 20.5009 48.84 20.5109 49.13C20.5209 48.84 20.5309 48.67 20.4709 48.28ZM12.7109 43.24C12.4009 43.2 12.0909 43.08 11.8009 43.02C11.5909 42.95 12.2609 43.09 11.9109 43C12.0609 43.02 12.4809 43.15 12.7109 43.24ZM9.0109 56.19C8.9109 56.13 8.9509 56.13 8.8809 56.05C8.9709 56.09 9.1109 56.13 9.2309 56.17C9.1509 56.17 9.0409 56.17 9.0109 56.21C8.9509 56.19 8.9909 56.19 9.0109 56.19Z" fill="#124936"/>
        <path d="M37.9109 55.77C37.6309 55.69 37.2609 55.48 37.0609 55.42C37.3709 55.62 37.6409 55.71 37.9109 55.77ZM45.9409 46.51C46.0509 46.53 46.1609 46.95 46.2709 47.15C46.1709 47.11 46.0609 46.71 45.9409 46.51ZM42.1309 55.87C42.2209 55.8 42.5509 55.73 42.6609 55.68C42.5709 55.79 42.2809 55.83 42.1309 55.87ZM33.5309 50.57C33.5309 50.57 33.6209 50.98 33.6109 51.03C33.5609 50.8 33.5309 50.73 33.5309 50.57ZM34.9909 53.83C34.9309 53.83 34.8009 53.61 34.7209 53.51C34.7109 53.53 34.7609 53.6 34.8009 53.65C34.7609 53.65 34.6509 53.45 34.5809 53.36C34.6209 53.38 34.6609 53.42 34.7009 53.47C34.6309 53.33 34.4009 53.03 34.3009 52.81C34.4809 53.08 34.7909 53.57 35.0009 53.83H34.9909ZM41.5709 56.2C41.6309 56.14 41.9309 56.13 42.0709 56.05C42.0109 56.12 41.7209 56.16 41.5709 56.2ZM35.0509 45C34.9309 45.12 34.8609 45.12 34.7209 45.28C34.7409 45.17 35.0009 44.93 35.0509 45ZM43.7309 58.86C43.8609 58.76 44.3109 58.6 44.5709 58.47C44.4409 58.57 43.9909 58.74 43.7309 58.86ZM29.9609 49.21C29.9209 49.13 30.0109 48.85 30.0109 48.58C30.0609 48.72 29.9909 49.01 29.9609 49.21ZM34.8809 58.54C34.7009 58.47 34.2609 58.17 33.9909 57.98C34.0709 57.99 34.7209 58.41 34.8809 58.54ZM37.5609 59.62C37.4109 59.63 36.8809 59.49 36.5409 59.36C36.6909 59.36 37.2909 59.59 37.5609 59.62ZM35.5009 43.97C35.4009 44.07 35.2509 44.14 35.1809 44.29C34.9709 44.43 34.7109 44.66 34.4809 44.94C34.4509 44.98 34.4609 44.99 34.4209 45.04C34.4709 45.04 34.4609 45.18 34.5809 45.02C34.5309 45.21 34.2509 45.48 34.2009 45.43C34.0909 45.56 34.1009 45.61 34.0309 45.72C34.2009 45.55 34.3309 45.52 34.5009 45.23C34.5609 45.28 34.5609 45.31 34.6809 45.3C34.5109 45.55 34.5409 45.56 34.5309 45.72C34.4409 45.81 34.3709 45.92 34.2709 46.06C34.2409 46.12 34.2509 46.15 34.2209 46.21C34.2509 46.27 34.3209 46.1 34.3509 46.16C33.6609 47.25 33.3109 48.57 33.3709 49.88C33.4309 51.19 33.9109 52.51 34.6909 53.59C35.2109 54.04 35.3509 54.39 35.9909 54.87C35.9509 54.77 35.6009 54.54 35.5109 54.39C36.2109 55.04 37.0709 55.57 37.9709 55.88C38.8609 56.19 39.7709 56.27 40.5309 56.18C41.2809 56.22 42.3609 55.97 43.1309 55.55C43.2909 55.46 43.1109 55.51 43.2009 55.45C43.7409 55.16 43.7609 55.17 44.2109 54.83C44.2109 54.95 43.8609 55.24 43.4909 55.43C43.8809 55.27 44.5909 54.74 44.5609 54.68C45.2709 54.05 45.7209 53.46 46.2009 52.52C46.2309 52.4 46.3309 52.2 46.2709 52.15C46.4209 51.8 46.5409 51.42 46.5609 51.16C46.5009 51.22 46.4609 51.5 46.4009 51.65C46.4009 51.49 46.4709 51.23 46.5409 50.98C46.5909 50.73 46.6609 50.51 46.7309 50.46C46.8709 49.52 46.7709 48.51 46.5109 47.81C46.4809 47.02 45.9509 46.15 45.3309 45.36C45.5209 45.64 45.4509 45.57 45.3309 45.42L44.9809 45.04C44.5809 44.65 44.1209 44.31 43.6709 44.06C42.8409 43.58 42.1109 43.29 41.4709 43.16C39.8809 42.85 38.2509 43.14 37.0109 43.7C36.8809 43.77 36.8409 43.83 36.7209 43.91C36.7209 43.89 36.7709 43.87 36.8009 43.84C36.3909 43.96 35.8209 44.14 36.1409 43.69C36.0509 43.64 35.8209 43.73 35.6009 43.8C35.7409 43.4 35.4009 43.25 35.7409 42.77C35.3709 42.81 35.5209 42.44 35.4209 42.27C35.3009 42.08 34.8309 42.07 35.3909 41.57C35.3109 41.21 36.2809 40.48 37.6809 40.11C39.0709 39.71 40.8009 39.81 41.9009 40.07C43.2409 40.22 44.5409 40.89 45.7709 41.76C45.9509 41.9 46.0009 41.88 46.1609 41.99C47.8009 43.37 48.9009 45.03 49.4409 46.84C49.2909 46.27 49.1409 45.86 48.9509 45.45C48.7709 45.03 48.5309 44.61 48.1609 44.04C47.8409 43.58 48.3409 44.22 48.4209 44.41C49.5709 46.19 50.2409 48.7 49.7909 51.27C49.3709 53.82 47.8109 56.35 45.4709 57.85C44.9809 58.16 44.3109 58.44 44.0609 58.61C43.2609 58.92 42.7509 59.08 42.0209 59.25C41.9909 59.29 42.4409 59.19 42.4009 59.17C41.8109 59.48 40.1409 59.55 39.0409 59.45C39.6609 59.59 40.7609 59.62 41.8409 59.42C42.9309 59.23 43.9609 58.79 44.6109 58.5C42.3309 59.67 39.9509 59.82 37.6309 59.33C37.6709 59.3 37.2809 59.24 37.4209 59.22C36.1509 58.88 35.1509 58.33 34.2709 57.72C33.6609 57.27 33.0009 56.82 32.6009 56.2C31.0609 54.44 30.2809 52.32 30.1509 50.28C30.0209 48.24 30.5509 46.28 31.5309 44.66C31.4809 44.87 31.3209 44.94 31.2509 45.2C31.3809 45 31.5309 44.7 31.6709 44.56C31.7309 44.38 32.0109 43.93 32.3409 43.54C32.6809 43.15 33.0509 42.82 33.2109 42.8C32.8009 43.18 32.4809 43.47 32.0909 44.02C32.2009 43.94 32.4409 43.58 32.5109 43.59C32.3109 43.88 31.9109 44.39 31.6909 44.75C31.6409 44.84 31.7109 44.77 31.7609 44.7C31.2909 45.51 30.7509 46.48 30.6209 47.54C30.7309 47.13 30.8709 46.48 31.0609 46.19C31.0609 46.31 30.8609 46.73 30.7909 47.05C30.9509 46.69 31.0109 46.43 31.1909 46.01C30.9909 46.3 31.3009 45.73 31.4109 45.46C31.1409 46.16 30.9209 46.98 31.2009 46.57C31.5809 45.6 31.6609 45.46 31.9909 44.85C31.8909 44.94 31.8509 45.08 31.8509 44.94L31.6809 45.27C31.8509 44.92 31.9009 44.66 32.1809 44.2C32.1809 44.23 32.0909 44.36 32.0409 44.46C32.1109 44.46 32.2309 44.29 32.4009 44.08C32.4309 44.12 32.2109 44.37 32.3009 44.37C32.3709 44.36 32.3809 44.23 32.4709 44.13C32.5409 44.13 32.2809 44.41 32.3109 44.46C32.4909 44.22 32.7109 43.93 33.0809 43.5C33.0809 43.54 33.0509 43.59 32.9709 43.69C33.1209 43.59 33.3309 43.25 33.5009 43.1C33.5309 43.19 33.7909 42.91 33.8509 42.95C33.4909 43.21 33.4709 43.37 33.3209 43.42C33.2109 43.72 32.7009 44.21 32.4209 44.77C32.6109 44.5 32.8809 44.11 33.1409 43.82C33.1409 43.87 33.0609 43.95 32.9909 44.06C33.0209 44.04 33.2109 43.89 33.1209 43.9C33.2909 43.76 33.0409 44.09 33.0209 44.17C33.0809 44.1 33.1309 44.03 33.1709 44.11C33.0009 44.36 32.5609 44.8 32.4509 45.19C32.3909 45.26 32.3309 45.36 32.2809 45.41C32.1909 45.64 32.1709 45.75 32.0009 46.11C32.1309 45.71 31.9009 46.24 31.8209 46.26C31.8709 46.29 31.5309 47.1 31.5009 47.46C31.6009 47.13 31.8309 46.39 31.9409 46.16C31.9409 46.21 31.9209 46.29 31.8909 46.36C32.1409 45.77 32.5109 45.15 32.7909 44.59C32.8509 44.61 33.0109 44.36 33.1309 44.24C33.2709 44.03 33.1809 44.03 33.3609 43.81C33.4809 43.86 33.3909 43.96 33.1409 44.33C33.4409 43.93 33.9609 43.31 34.2409 43.35C33.8409 43.57 33.3809 44 32.9809 44.64C33.1609 44.44 33.5409 43.87 33.7209 43.78C33.5909 43.92 33.6209 43.95 33.5409 44.07C33.6909 43.99 33.6009 44.04 33.8109 43.86C33.7609 43.99 33.5609 44.08 33.4109 44.3C33.3809 44.41 33.7109 44 33.4909 44.28C33.4909 44.32 33.6909 44.13 33.6709 44.09C33.6709 44.12 33.5809 44.34 33.6709 44.34C33.4709 44.62 33.5509 44.48 33.3409 44.81C33.5009 44.75 33.6609 44.31 33.8209 44.21C33.7509 44.23 33.9209 43.92 33.6809 44.18C33.7309 44 33.9109 43.91 34.0609 43.83C34.0609 43.9 33.9109 43.97 33.8509 44.07C33.8509 44.27 34.5909 43.73 34.3009 44.14C34.3009 44.2 34.4109 44.07 34.4709 44.05C34.3109 44.31 34.0309 44.56 33.8509 44.88C33.9309 44.79 34.2909 44.39 34.3509 44.27C34.5009 44.14 34.3509 44.34 34.2609 44.43C34.4109 44.41 34.9209 43.75 35.0909 43.66C35.1609 43.66 34.8009 44.01 34.7909 44.12C34.7309 44.16 34.6809 44.16 34.5609 44.3C34.6909 44.12 34.4909 44.33 34.5609 44.21C34.4509 44.43 34.3209 44.59 34.2009 44.83C34.4309 44.67 34.6409 44.38 34.9709 44.2C35.1609 43.96 35.2809 43.87 35.5309 43.71C35.5609 43.75 35.3209 44.01 35.4909 43.93L35.5009 43.97ZM42.1309 56.05C42.2009 55.97 42.6509 55.9 42.7109 55.8C41.8109 56.17 40.7509 56.35 39.7309 56.26C38.7109 56.19 37.7609 55.89 36.9809 55.55C37.1609 55.66 37.4909 55.78 37.5909 55.85C37.5309 55.84 37.4709 55.82 37.4309 55.83C38.0509 56.12 39.6509 56.5 40.5709 56.33C40.5109 56.33 40.4209 56.33 40.4109 56.35C40.8909 56.35 42.0909 56.18 42.1109 56.05H42.1309ZM34.2409 44.19L34.1609 44.12C33.4709 44.82 32.7309 45.92 32.4809 46.96C32.8009 46.06 33.1809 45.44 33.5809 44.94C33.5809 44.99 33.6609 44.87 33.5509 45.07C33.8609 44.67 33.9009 44.53 34.2409 44.2V44.19ZM32.4909 44.92C32.2509 45.25 31.8709 45.91 31.7409 46.4C31.8309 46.18 32.0809 45.54 31.9809 45.9C32.1409 45.65 32.3409 45.17 32.4809 44.92H32.4909ZM44.8109 41.22C44.9909 41.34 44.8709 41.29 44.8409 41.32C45.2309 41.58 45.5809 41.82 46.0309 42.18C45.9709 42.07 45.8109 41.88 45.6009 41.69C45.3709 41.51 45.0909 41.33 44.8109 41.22ZM48.2609 44.62C48.3509 44.56 47.7409 43.71 47.6809 43.76C47.8709 44.1 48.0309 44.2 48.2609 44.62ZM44.9409 57.89C44.9409 57.89 45.0209 57.83 45.0109 57.87C45.2009 57.7 45.5509 57.54 45.8009 57.31C45.6609 57.38 45.8909 57.26 45.9009 57.19C45.9909 57.15 46.0309 57.11 46.1909 56.96C46.6509 56.57 45.0709 57.82 44.9109 57.85C44.9109 57.85 44.8509 57.86 44.8509 57.89C45.0509 57.77 44.7109 58.03 44.9409 57.89ZM41.0709 59.16C40.2609 59.27 42.2909 59.05 41.3009 59.16C42.3809 59.08 44.0709 58.47 44.8109 57.95C43.6109 58.64 42.4209 58.99 41.0809 59.17L41.0709 59.16ZM42.6509 59C43.0109 58.92 43.0509 58.86 43.3809 58.8C45.0209 58.17 46.2609 57.23 47.2809 56.17C48.2909 55.1 49.0609 53.84 49.5009 52.31C49.0109 53.7 48.1809 55.17 46.9809 56.4C45.8009 57.64 44.2209 58.55 42.6509 59.01V59ZM46.6209 56.86C46.4509 57.02 46.1209 57.28 46.0509 57.36C46.2409 57.23 46.5709 56.96 46.6209 56.86ZM37.4809 59.24C37.3809 59.14 36.9509 59.05 36.6809 58.95C36.9409 59.07 37.1009 59.14 37.4809 59.24ZM45.1109 54.01C45.2709 53.74 45.5009 53.5 45.6609 53.26C45.8009 53.09 45.4209 53.65 45.6309 53.37C45.5609 53.5 45.2709 53.84 45.1009 54.01H45.1109ZM34.5709 45.63C34.6709 45.56 34.6509 45.59 34.7509 45.57C34.6809 45.64 34.5909 45.75 34.5109 45.84C34.5409 45.76 34.5809 45.67 34.5609 45.62C34.6009 45.57 34.5909 45.61 34.5709 45.63Z" fill="#124936"/>
        <path d="M37.9709 43.36C38.1009 43.29 38.3109 43.27 38.3909 43.21C38.2109 43.22 38.0809 43.27 37.9709 43.36ZM33.5609 49.12C33.4909 49.08 33.5409 48.88 33.5609 48.77C33.6209 48.81 33.5509 49.01 33.5609 49.12ZM36.1209 44.32C36.1009 44.38 35.9509 44.46 35.9009 44.48C35.9209 44.41 36.0609 44.36 36.1209 44.32ZM41.4009 43.04C41.4009 43.04 41.1909 43.04 41.1809 43C41.2909 43.03 41.3309 43 41.4009 43.04ZM39.6409 42.94C39.6409 42.94 39.7809 42.93 39.8409 42.91C39.8409 42.89 39.7909 42.9 39.7609 42.9C39.7609 42.86 39.8809 42.89 39.9409 42.87C39.9209 42.89 39.8909 42.9 39.8609 42.91C39.9409 42.95 40.1209 42.9 40.2409 42.91C40.0809 42.94 39.8009 42.95 39.6309 42.93L39.6409 42.94ZM36.2609 44C36.2609 44.05 36.1209 44.11 36.0709 44.17C36.0709 44.12 36.2109 44.06 36.2609 44ZM44.1109 44.05C44.0509 43.99 44.0609 43.93 43.9809 43.87C44.0509 43.85 44.1709 43.98 44.1109 44.05ZM33.8509 41.84C33.8109 41.91 33.6209 42.05 33.5209 42.15C33.5509 42.07 33.7409 41.93 33.8509 41.84ZM42.9709 39.83C42.9709 39.83 43.1309 39.9 43.2609 39.92C43.1809 39.96 43.0509 39.88 42.9709 39.83ZM37.6409 39.5C37.7209 39.44 37.9809 39.4 38.1309 39.37C38.1009 39.43 37.7409 39.5 37.6409 39.5ZM36.3009 39.94C36.3409 39.86 36.6009 39.79 36.7609 39.71C36.7209 39.79 36.4009 39.86 36.3009 39.94ZM44.7809 44C44.7209 43.96 44.6809 43.89 44.5909 43.89C44.5209 43.78 44.4009 43.66 44.2509 43.56C44.2309 43.56 44.2209 43.56 44.1909 43.54C44.1909 43.58 44.0909 43.62 44.1809 43.66C44.0609 43.69 43.9509 43.51 43.9809 43.47C43.9209 43.42 43.8909 43.43 43.8309 43.4C43.8909 43.52 43.9009 43.6 44.0509 43.66C44.0009 43.73 43.9909 43.73 43.9609 43.84C43.8409 43.76 43.8209 43.8 43.7209 43.84C43.6809 43.79 43.6309 43.75 43.5609 43.7C43.5309 43.69 43.5109 43.7 43.4809 43.7C43.4409 43.74 43.5209 43.76 43.4809 43.8C42.4309 43.09 41.1209 42.8 39.8109 42.84C39.4809 42.98 39.3109 42.88 38.9209 42.97C38.9709 43.03 39.1709 42.95 39.2509 42.97C38.3309 43.11 37.3609 43.42 36.7609 43.87C36.4109 43.99 35.9609 44.28 35.6609 44.58C35.6009 44.64 35.6909 44.61 35.6609 44.65C35.4309 44.84 35.4109 44.83 35.2309 45.04C35.1709 44.94 35.3209 44.77 35.4809 44.64C35.3109 44.75 35.0009 45.06 35.0309 45.1C34.7209 45.45 34.5309 45.75 34.2709 46.19C34.2709 46.25 34.2009 46.34 34.2509 46.38C34.1709 46.54 34.0809 46.72 34.0609 46.85C34.1109 46.84 34.1409 46.7 34.1809 46.63C34.1809 46.79 33.9909 47.13 33.8909 47.16C33.7209 47.59 33.5809 48.06 33.5909 48.43C33.3409 48.77 33.4409 49.26 33.4209 49.75C33.4509 49.42 33.4709 49.93 33.4809 49.98C33.5209 50.25 33.5909 50.52 33.6609 50.76C33.7909 51.21 33.8509 51.58 33.9809 51.87C34.3009 52.58 34.6709 53.27 35.0309 53.84C35.0809 53.89 35.1209 53.9 35.1709 53.95C35.1609 53.96 35.1409 53.94 35.1209 53.92C35.1709 54.14 35.2309 54.47 34.9209 54.41C34.8709 54.49 34.9209 54.61 34.9209 54.75C34.6309 54.79 34.4709 55.07 34.1309 55.02C34.1109 55.26 33.8409 55.29 33.6909 55.42C33.5209 55.57 33.4609 55.89 33.1209 55.7C32.8209 55.89 32.3409 55.53 31.9509 54.95C31.5509 54.37 31.2509 53.59 31.0809 53.07C30.7409 52.49 30.7109 51.78 30.5609 51.06C30.5409 50.95 30.5009 50.94 30.4809 50.85C30.4009 49.81 30.3409 48.87 30.5109 47.96C30.3709 48.52 30.3709 48.8 30.3409 49.46C30.3209 49.73 30.3209 49.34 30.3409 49.24C30.3009 47.17 31.2209 44.45 33.1609 42.56C33.3709 42.37 33.6709 42.17 33.7309 42.02C34.0709 41.78 34.2809 41.62 34.5609 41.39C34.5609 41.36 34.3809 41.49 34.4109 41.5C34.6009 41.22 35.3309 40.87 35.8009 40.61C35.1609 40.73 33.9709 41.65 33.4509 42.11C34.3609 41.25 35.3209 40.72 36.3709 40.21C36.3709 40.25 36.5309 40.14 36.5009 40.21C37.0909 39.95 37.6309 39.85 38.1409 39.73C38.5009 39.68 38.8709 39.51 39.2309 39.58C41.4909 39.42 43.4509 39.99 44.9909 41.01C44.8809 41.01 44.8709 40.88 44.7309 40.86C44.8209 40.94 44.9609 41.02 45.0209 41.1C45.2209 41.12 45.9009 41.64 45.8809 41.86C45.6809 41.67 45.5409 41.51 45.2709 41.33C45.3009 41.4 45.4909 41.49 45.4709 41.56C45.3109 41.48 45.0709 41.28 44.9009 41.16C44.8509 41.14 44.8809 41.19 44.9109 41.21C44.5109 40.98 44.0909 40.62 43.5809 40.52C43.7609 40.62 44.0809 40.7 44.2009 40.84C44.1409 40.84 43.9509 40.71 43.8009 40.66C43.9609 40.78 44.0809 40.83 44.2809 40.93C44.1609 40.79 44.4109 40.99 44.5509 41.05C44.2009 40.93 43.8109 40.78 43.9709 41C44.4209 41.24 44.4909 41.26 44.7809 41.44C44.7409 41.38 44.6709 41.37 44.7509 41.34L44.5909 41.25C44.7609 41.35 44.9109 41.32 45.1409 41.45C45.1209 41.46 45.0609 41.41 45.0109 41.39C45.0009 41.45 45.0709 41.52 45.1809 41.6C45.1509 41.64 45.0209 41.53 45.0109 41.6C45.0109 41.66 45.0809 41.63 45.1309 41.68C45.1109 41.74 44.9909 41.61 44.9509 41.63C45.0709 41.72 45.2009 41.84 45.4309 41.99C45.4009 41.99 45.3709 41.99 45.3209 41.96C45.3609 42.04 45.5509 42.12 45.6309 42.18C45.5609 42.24 45.7209 42.33 45.6809 42.4C45.5609 42.21 45.4409 42.27 45.4409 42.15C45.2509 42.16 45.0109 41.91 44.7309 41.79C44.8509 41.9 45.0509 42.01 45.2009 42.14C45.1709 42.14 45.1209 42.13 45.0709 42.09C45.0709 42.11 45.1409 42.22 45.1509 42.15C45.2109 42.24 45.0309 42.15 44.9909 42.15C45.0209 42.18 45.0609 42.21 44.9909 42.26C44.8609 42.19 44.6709 41.94 44.4509 41.93C44.4209 41.89 44.3809 41.86 44.3609 41.82C44.2509 41.78 44.1709 41.8 44.0109 41.7C44.2109 41.76 43.9609 41.63 43.9709 41.56C43.9409 41.61 43.5709 41.4 43.3909 41.36C43.5309 41.45 43.8809 41.59 44.0009 41.65C43.9709 41.65 43.9309 41.65 43.9009 41.64C44.1609 41.8 44.4609 41.99 44.7609 42.09C44.7409 42.15 44.8709 42.21 44.9209 42.27C45.0209 42.33 45.0509 42.25 45.1609 42.33C45.1109 42.44 45.0409 42.42 44.8509 42.31C45.0409 42.46 45.4009 42.65 45.3309 42.87C45.2409 42.64 45.0109 42.44 44.6809 42.27C44.7709 42.37 45.0809 42.51 45.1109 42.62C45.0409 42.56 45.0109 42.6 44.9509 42.57C44.9809 42.66 44.9609 42.61 45.0409 42.72C44.9609 42.72 44.9309 42.6 44.8109 42.54C44.7409 42.56 44.9609 42.69 44.8109 42.6C44.7809 42.62 44.8709 42.72 44.9109 42.69C44.8909 42.7 44.7609 42.69 44.7409 42.77C44.5909 42.69 44.6709 42.71 44.5009 42.63C44.5009 42.75 44.7609 42.76 44.8009 42.85C44.8009 42.8 44.9809 42.83 44.8409 42.73C44.9609 42.71 44.9809 42.83 45.0109 42.92C44.9609 42.95 44.9409 42.85 44.8809 42.83C44.7409 42.9 44.9909 43.3 44.7509 43.22C44.7109 43.25 44.7809 43.28 44.7909 43.32C44.6309 43.29 44.5109 43.15 44.3409 43.09C44.3709 43.15 44.5909 43.29 44.6509 43.31C44.7109 43.38 44.6009 43.33 44.5609 43.29C44.5409 43.42 44.9209 43.58 44.9809 43.66C44.9809 43.71 44.7609 43.58 44.6909 43.61C44.6709 43.57 44.6809 43.54 44.6009 43.5C44.7109 43.53 44.5909 43.46 44.6609 43.46C44.5209 43.46 44.4409 43.39 44.3009 43.37C44.3709 43.5 44.5209 43.59 44.6109 43.77C44.7509 43.83 44.8109 43.87 44.8909 44C44.8509 44.04 44.7009 43.96 44.7309 44.05L44.7809 44ZM36.0409 44.16C36.0409 44.23 35.8209 44.3 35.8209 44.37C36.5609 43.76 37.6009 43.37 38.3709 43.06C38.2709 43.08 38.1109 43.14 38.0509 43.13C38.0809 43.11 38.1009 43.09 38.1109 43.07C37.8109 43.2 37.0509 43.44 36.7009 43.74C36.7209 43.72 36.7609 43.7 36.7609 43.68C36.6609 43.73 36.4709 43.83 36.3109 43.92C36.1609 44.02 36.0409 44.12 36.0509 44.15L36.0409 44.16ZM44.8109 43.13L44.8709 43.04C44.5009 42.73 43.9709 42.37 43.4809 42.23C43.9009 42.44 44.2009 42.61 44.4409 42.81C44.4109 42.81 44.4709 42.86 44.3609 42.82C44.5609 42.97 44.6409 42.96 44.8109 43.12V43.13ZM44.6709 41.89C44.5009 41.78 44.2109 41.54 43.9609 41.49C44.0609 41.54 44.3709 41.68 44.1909 41.64C44.3009 41.73 44.5409 41.83 44.6709 41.88V41.89ZM30.7509 51.58C30.7509 51.47 30.7709 51.53 30.8109 51.53C30.7909 51.3 30.7709 51.1 30.7309 50.82C30.6409 50.94 30.6009 51.32 30.7509 51.58ZM30.5909 49.21C30.5109 49.21 30.4809 49.71 30.5809 49.71C30.6109 49.52 30.5809 49.44 30.5909 49.21ZM33.5109 42.58C33.5109 42.58 33.4909 42.62 33.4709 42.59C33.4209 42.71 33.2409 42.79 33.1609 42.95C33.2309 42.91 33.1209 42.98 33.1409 43.03C33.0909 43.05 33.0909 43.08 33.0209 43.16C32.8409 43.4 33.4909 42.66 33.5509 42.62C33.5509 42.62 33.5909 42.62 33.5809 42.6C33.5009 42.68 33.6109 42.5 33.5209 42.59L33.5109 42.58ZM35.0909 41.35C35.4209 41.13 34.5609 41.63 34.9909 41.39C34.5309 41.64 33.8609 42.2 33.5809 42.54C34.0509 42.06 34.5509 41.71 35.0909 41.35ZM34.3809 41.67C34.2209 41.75 34.2209 41.81 34.0609 41.86C32.8109 43.02 31.9609 43.97 31.2809 45.37C31.6609 44.75 32.1209 44.09 32.6209 43.42C33.1509 42.79 33.7309 42.14 34.3809 41.66V41.67ZM32.7309 43.15C32.8009 43.06 32.9609 42.93 32.9709 42.86C32.9009 42.95 32.7409 43.08 32.7309 43.15ZM36.4809 40.22C36.5609 40.26 36.7609 40.18 36.8809 40.11C36.7409 40.15 36.6509 40.14 36.4809 40.22ZM34.8209 45.47C34.7709 45.63 34.6509 45.73 34.5609 45.85C34.4809 45.92 34.6809 45.66 34.5609 45.79C34.5909 45.72 34.7409 45.57 34.8209 45.48V45.47ZM43.7609 43.85C43.7909 43.91 43.7609 43.9 43.7609 43.98C43.7309 43.94 43.6709 43.9 43.6309 43.86C43.6809 43.86 43.7309 43.86 43.7609 43.84C43.7809 43.86 43.7609 43.86 43.7609 43.85Z" fill="#124936"/>
        <path d="M42.101 55.85C41.961 55.9 41.741 55.92 41.651 55.99C41.841 55.96 41.981 55.93 42.101 55.85ZM46.681 49.81C46.751 49.85 46.681 50.06 46.701 50.18C46.631 50.14 46.691 49.93 46.681 49.81ZM44.061 54.87C44.081 54.8 44.231 54.73 44.291 54.7C44.271 54.77 44.121 54.83 44.061 54.87ZM38.491 56.04C38.491 56.04 38.711 56.06 38.721 56.09C38.601 56.05 38.561 56.08 38.491 56.04ZM40.331 56.23C40.331 56.23 40.181 56.25 40.121 56.26C40.121 56.28 40.171 56.27 40.201 56.27C40.191 56.31 40.071 56.28 40.011 56.29C40.031 56.27 40.061 56.26 40.091 56.26C40.011 56.21 39.821 56.26 39.691 56.23C39.861 56.2 40.151 56.23 40.331 56.23ZM43.911 55.21C43.911 55.15 44.061 55.09 44.111 55.03C44.111 55.08 43.961 55.15 43.911 55.21ZM35.731 54.81C35.781 54.88 35.771 54.93 35.861 55C35.791 55.02 35.671 54.87 35.731 54.81ZM46.331 57.37C46.371 57.3 46.581 57.16 46.681 57.05C46.651 57.13 46.441 57.28 46.331 57.37ZM36.731 59.16C36.681 59.19 36.561 59.08 36.431 59.05C36.511 59.02 36.641 59.11 36.731 59.16ZM42.301 59.74C42.211 59.81 41.941 59.81 41.771 59.85C41.801 59.78 42.191 59.75 42.301 59.74ZM43.721 59.3C43.671 59.38 43.401 59.46 43.231 59.53C43.281 59.45 43.611 59.38 43.721 59.3ZM35.041 54.78C35.101 54.82 35.131 54.9 35.231 54.91C35.301 55.03 35.411 55.16 35.561 55.28C35.581 55.29 35.591 55.28 35.621 55.3C35.621 55.26 35.731 55.23 35.641 55.18C35.771 55.16 35.871 55.36 35.831 55.4C35.891 55.46 35.931 55.45 35.981 55.49C35.921 55.36 35.921 55.29 35.771 55.2C35.821 55.14 35.841 55.13 35.871 55.03C35.991 55.12 36.011 55.09 36.121 55.06C36.161 55.11 36.211 55.16 36.281 55.21C36.311 55.23 36.331 55.21 36.371 55.23C36.421 55.2 36.331 55.16 36.371 55.13C37.421 55.95 38.791 56.32 40.161 56.35C40.511 56.18 40.691 56.35 41.091 56.24C41.031 56.18 40.831 56.27 40.741 56.24C41.721 56.14 42.741 55.82 43.381 55.36C43.751 55.23 44.221 54.93 44.541 54.62C44.601 54.55 44.511 54.59 44.541 54.54C44.781 54.33 44.811 54.35 44.991 54.13C45.051 54.24 44.891 54.41 44.721 54.54C44.901 54.42 45.221 54.1 45.191 54.06C45.511 53.69 45.711 53.38 45.991 52.92C45.991 52.85 46.061 52.76 46.011 52.72C46.091 52.54 46.191 52.36 46.211 52.23C46.161 52.25 46.121 52.39 46.081 52.46C46.101 52.3 46.261 51.93 46.371 51.9C46.551 51.45 46.671 50.95 46.661 50.56C46.791 50.38 46.821 50.16 46.811 49.92C46.821 49.68 46.791 49.43 46.791 49.16C46.771 49.51 46.731 48.97 46.721 48.93C46.671 48.65 46.581 48.37 46.501 48.12C46.341 47.66 46.261 47.27 46.101 46.97C45.721 46.24 45.291 45.54 44.861 44.98C44.801 44.93 44.761 44.93 44.711 44.87C44.721 44.86 44.741 44.88 44.761 44.9C44.681 44.68 44.591 44.34 44.911 44.39C44.951 44.31 44.901 44.18 44.871 44.05C45.161 43.99 45.301 43.7 45.651 43.73C45.651 43.49 45.921 43.44 46.061 43.3C46.221 43.14 46.251 42.81 46.611 42.98C46.901 42.77 47.421 43.11 47.881 43.69C48.341 44.27 48.701 45.07 48.921 45.61C49.301 46.2 49.391 46.94 49.571 47.69C49.591 47.8 49.641 47.81 49.671 47.91C49.811 49 49.881 49.98 49.751 50.94C49.881 50.35 49.861 50.06 49.881 49.36C49.881 49.07 49.911 49.49 49.901 49.59C49.921 50.68 49.751 51.94 49.281 53.18C48.811 54.42 48.051 55.65 47.051 56.64C46.831 56.84 46.521 57.05 46.451 57.21C46.081 57.46 45.881 57.63 45.561 57.86C45.561 57.9 45.761 57.77 45.721 57.75C45.511 58.03 44.741 58.39 44.241 58.66C44.911 58.54 46.171 57.59 46.721 57.11C45.761 58.01 44.741 58.55 43.621 59.06C43.621 59.02 43.451 59.13 43.491 59.06C43.181 59.19 42.881 59.27 42.591 59.34C42.301 59.42 42.031 59.47 41.751 59.51C41.371 59.58 40.981 59.71 40.601 59.63C38.221 59.72 36.181 59 34.641 57.82C34.761 57.83 34.761 57.96 34.901 57.99C34.811 57.9 34.671 57.81 34.611 57.72C34.411 57.68 33.731 57.09 33.761 56.86C33.961 57.07 34.091 57.25 34.371 57.46C34.341 57.39 34.151 57.27 34.181 57.2C34.331 57.3 34.581 57.52 34.751 57.66C34.801 57.68 34.771 57.64 34.741 57.61C35.141 57.88 35.561 58.27 36.091 58.42C35.901 58.31 35.581 58.2 35.461 58.05C35.521 58.05 35.711 58.2 35.871 58.26C35.711 58.12 35.591 58.08 35.391 57.94C35.511 58.09 35.251 57.87 35.121 57.8C35.481 57.95 35.871 58.13 35.721 57.9C35.261 57.62 35.191 57.59 34.901 57.39C34.941 57.46 35.011 57.47 34.921 57.49L35.081 57.59C34.911 57.48 34.751 57.49 34.521 57.34C34.541 57.33 34.611 57.38 34.651 57.41C34.661 57.35 34.591 57.27 34.491 57.19C34.521 57.15 34.651 57.28 34.661 57.21C34.671 57.15 34.591 57.18 34.541 57.12C34.561 57.07 34.691 57.21 34.721 57.19C34.601 57.09 34.471 56.95 34.241 56.78C34.271 56.78 34.301 56.78 34.351 56.82C34.311 56.73 34.121 56.63 34.041 56.56C34.111 56.51 33.951 56.39 34.001 56.34C34.121 56.54 34.241 56.5 34.241 56.62C34.431 56.62 34.671 56.91 34.951 57.06C34.831 56.94 34.631 56.8 34.481 56.67C34.511 56.67 34.561 56.69 34.611 56.73C34.611 56.71 34.541 56.6 34.531 56.66C34.471 56.56 34.651 56.67 34.701 56.68C34.671 56.64 34.631 56.62 34.701 56.57C34.831 56.66 35.021 56.93 35.241 56.96C35.271 57 35.311 57.04 35.331 57.08C35.451 57.13 35.521 57.12 35.691 57.24C35.491 57.16 35.741 57.32 35.731 57.38C35.761 57.33 36.141 57.58 36.321 57.63C36.181 57.52 35.821 57.36 35.711 57.29C35.741 57.29 35.781 57.29 35.821 57.31C35.551 57.13 35.251 56.91 34.951 56.78C34.981 56.73 34.851 56.65 34.801 56.58C34.701 56.51 34.671 56.58 34.551 56.5C34.611 56.39 34.681 56.42 34.871 56.55C34.681 56.38 34.331 56.15 34.401 55.93C34.481 56.17 34.711 56.4 35.041 56.61C34.961 56.49 34.641 56.33 34.611 56.21C34.681 56.28 34.711 56.25 34.781 56.28C34.751 56.18 34.771 56.24 34.691 56.12C34.771 56.13 34.801 56.26 34.921 56.32C34.991 56.32 34.771 56.16 34.921 56.26C34.951 56.25 34.861 56.14 34.831 56.16C34.851 56.15 34.991 56.16 35.011 56.1C35.161 56.2 35.081 56.17 35.251 56.27C35.251 56.15 34.991 56.11 34.951 56.02C34.951 56.07 34.761 56.02 34.901 56.14C34.781 56.15 34.761 56.02 34.731 55.93C34.781 55.91 34.801 56.01 34.851 56.04C35.001 55.98 34.761 55.55 35.001 55.66C35.051 55.64 34.971 55.59 34.961 55.56C35.121 55.61 35.241 55.76 35.411 55.84C35.381 55.78 35.161 55.61 35.101 55.59C35.041 55.51 35.151 55.57 35.191 55.62C35.221 55.49 34.831 55.29 34.781 55.2C34.791 55.15 35.001 55.31 35.081 55.28C35.091 55.32 35.081 55.35 35.171 55.41C35.061 55.36 35.181 55.45 35.101 55.44C35.251 55.46 35.321 55.54 35.471 55.56C35.411 55.42 35.251 55.32 35.171 55.13C35.031 55.05 34.971 55 34.891 54.87C34.931 54.83 35.081 54.93 35.051 54.83L35.041 54.78ZM44.151 55.04C44.151 54.97 44.381 54.89 44.391 54.82C43.601 55.45 42.511 55.85 41.701 56.15C41.811 56.13 41.971 56.06 42.041 56.08C42.011 56.1 41.991 56.11 41.971 56.13C42.301 56.03 43.091 55.76 43.471 55.47C43.441 55.49 43.401 55.51 43.411 55.53C43.631 55.42 44.191 55.13 44.151 55.04ZM34.971 55.67L34.901 55.75C35.261 56.1 35.791 56.52 36.301 56.71C35.871 56.47 35.571 56.25 35.331 56.03C35.371 56.03 35.301 55.98 35.411 56.03C35.221 55.85 35.121 55.86 34.961 55.68L34.971 55.67ZM35.051 56.95C35.221 57.08 35.511 57.34 35.761 57.41C35.661 57.34 35.341 57.19 35.531 57.24C35.421 57.13 35.181 57.02 35.041 56.95H35.051ZM49.371 47.14C49.381 47.25 49.361 47.19 49.311 47.19C49.361 47.43 49.371 47.64 49.441 47.93C49.511 47.8 49.551 47.4 49.371 47.13V47.14ZM49.651 49.62C49.731 49.62 49.721 49.09 49.641 49.09C49.611 49.29 49.651 49.38 49.651 49.62ZM46.681 56.61C46.681 56.61 46.711 56.57 46.721 56.6C46.771 56.47 46.971 56.39 47.051 56.23C46.981 56.27 47.091 56.2 47.081 56.15C47.131 56.13 47.141 56.1 47.211 56.01C47.401 55.76 46.711 56.53 46.651 56.58C46.651 56.58 46.611 56.58 46.621 56.61C46.701 56.53 46.581 56.71 46.681 56.62V56.61ZM45.011 57.88C44.661 58.11 45.561 57.58 45.121 57.84C45.611 57.59 46.321 57 46.611 56.65C46.361 56.9 46.111 57.12 45.841 57.31C45.581 57.52 45.301 57.7 45.011 57.88ZM45.761 57.54C45.931 57.45 45.921 57.4 46.091 57.34C47.421 56.14 48.301 55.12 49.001 53.65C48.611 54.3 48.141 55.01 47.611 55.71C47.051 56.38 46.441 57.05 45.751 57.55L45.761 57.54ZM47.491 55.99C47.421 56.08 47.251 56.22 47.241 56.29C47.311 56.2 47.481 56.06 47.491 55.99ZM43.511 59.01C43.431 58.97 43.221 59.06 43.091 59.13C43.231 59.09 43.331 59.1 43.511 59.01ZM45.411 53.66C45.461 53.5 45.591 53.39 45.681 53.26C45.761 53.18 45.561 53.47 45.681 53.33C45.651 53.4 45.491 53.56 45.411 53.66ZM36.051 55.04C36.031 54.97 36.051 54.98 36.051 54.91C36.081 54.96 36.141 55 36.181 55.05C36.131 55.05 36.081 55.03 36.041 55.05C36.021 55.03 36.041 55.03 36.051 55.04Z" fill="#124936"/>
        <path d="M48.2509 21.03C48.1609 21.13 48.0009 21.25 47.9609 21.34C48.1009 21.24 48.1909 21.14 48.2509 21.03ZM54.4009 15.65C54.3609 15.73 54.0409 15.79 53.8809 15.88C53.9009 15.79 54.2309 15.72 54.4009 15.65ZM49.6709 19.65C49.6709 19.59 49.8109 19.5 49.8509 19.47C49.8509 19.54 49.7209 19.6 49.6709 19.65ZM45.9809 23.42C45.9809 23.42 46.1009 23.26 46.1309 23.27C46.0509 23.34 46.0509 23.39 45.9809 23.42ZM47.1509 22.25C47.1509 22.25 47.0609 22.35 47.0309 22.4C47.0509 22.41 47.0709 22.38 47.0909 22.36C47.1109 22.39 47.0109 22.45 46.9909 22.49C46.9909 22.47 47.0009 22.44 47.0209 22.41C46.9409 22.43 46.8409 22.58 46.7609 22.65C46.8409 22.52 47.0409 22.35 47.1609 22.25H47.1509ZM49.5909 19.98C49.5909 19.93 49.7009 19.86 49.7409 19.8C49.7409 19.85 49.6309 19.92 49.5909 19.98ZM44.1809 25.44C44.2409 25.4 44.3009 25.42 44.3609 25.36C44.3709 25.43 44.2309 25.51 44.1809 25.44ZM52.1709 21.89C52.1709 21.83 52.3009 21.75 52.3609 21.68C52.3609 21.74 52.2309 21.82 52.1709 21.89ZM48.0409 26.29C48.0409 26.29 47.9509 26.35 47.9109 26.42C47.9009 26.35 47.9909 26.31 48.0409 26.29ZM50.5309 24.13C50.5209 24.2 50.3809 24.28 50.3309 24.36C50.3009 24.3 50.4809 24.16 50.5309 24.13ZM51.1209 23.52C51.1309 23.59 51.0109 23.69 50.9409 23.77C50.9209 23.7 51.0909 23.6 51.1209 23.52ZM44.1809 26.07C44.1809 26.07 44.2909 26 44.2909 25.91C44.4009 25.87 44.5109 25.78 44.6209 25.68C44.6309 25.66 44.6209 25.65 44.6409 25.63C44.6009 25.61 44.5809 25.52 44.5309 25.59C44.5109 25.47 44.7009 25.41 44.7309 25.46C44.7909 25.42 44.7809 25.39 44.8209 25.35C44.7009 25.37 44.6309 25.35 44.5509 25.48C44.4909 25.42 44.4909 25.41 44.4009 25.36C44.4909 25.26 44.4609 25.24 44.4509 25.14C44.5009 25.11 44.5509 25.08 44.6109 25.03C44.6309 25 44.6109 24.98 44.6409 24.96C44.6109 24.91 44.5709 24.98 44.5409 24.93C45.4309 24.17 46.2309 23.28 47.1109 22.45C47.2309 22.13 47.4309 22.11 47.6709 21.84C47.6009 21.82 47.5009 21.99 47.4209 22.02C48.0209 21.38 48.7209 20.76 49.1609 20.21C49.4609 20.02 49.8109 19.68 50.0809 19.39C50.1309 19.33 50.0509 19.36 50.0809 19.32C50.2809 19.13 50.3009 19.14 50.4809 18.95C50.5409 19.06 50.3809 19.19 50.2509 19.33C50.3909 19.21 50.7009 18.96 50.6709 18.91C50.9709 18.6 51.2009 18.37 51.5309 18.03C51.5509 17.97 51.6209 17.9 51.5909 17.85C51.7109 17.73 51.8509 17.6 51.9009 17.49C51.8509 17.49 51.7809 17.6 51.7209 17.64C51.7709 17.49 52.0509 17.24 52.1609 17.28C52.3209 17.12 52.4909 16.95 52.6509 16.79C52.9009 16.54 53.1709 16.33 53.4009 16.15C53.9909 16.01 54.6309 15.61 55.4309 15.6C54.8909 15.6 55.7609 15.53 55.7509 15.54C55.9909 15.51 56.2709 15.48 56.5109 15.45C56.9609 15.4 57.3209 15.45 57.6209 15.43C58.3709 15.37 59.1309 15.43 59.7509 15.52C59.8209 15.52 59.8509 15.49 59.9209 15.48C59.9209 15.5 59.8909 15.49 59.8709 15.5C60.0609 15.6 60.3109 15.8 60.0809 15.97C60.1009 16.06 60.2009 16.12 60.2909 16.2C60.1409 16.44 60.2209 16.75 60.0109 16.95C60.1309 17.12 60.0109 17.34 60.0109 17.55C60.0109 17.78 60.1409 18.03 59.8909 18.16C59.8109 18.87 58.4109 18.6 57.6909 18.55C57.2709 18.66 56.8209 18.5 56.3409 18.53C56.2709 18.53 56.2609 18.58 56.2009 18.58C56.0309 18.57 55.8709 18.56 55.7109 18.56C55.6109 18.56 55.5409 18.58 55.4509 18.6C55.2909 18.64 55.1509 18.72 55.0209 18.79C55.2109 18.74 55.2809 18.69 55.5009 18.66C55.5909 18.66 55.4709 18.69 55.4309 18.69C55.2709 18.74 55.1109 18.81 54.9709 18.93C54.8809 19 54.8809 19.01 54.7309 19.16L54.3209 19.59C53.7609 20.17 53.1709 20.78 52.5809 21.39C52.4609 21.52 52.2609 21.64 52.2409 21.75C52.0309 21.92 51.9209 22.04 51.7709 22.22C51.7809 22.25 51.8809 22.15 51.8509 22.14C51.7909 22.36 51.3709 22.65 51.1609 22.93C51.5209 22.74 52.1009 22.01 52.4309 21.73C51.9109 22.31 51.4109 22.76 50.9509 23.33C50.9309 23.29 50.8809 23.41 50.8609 23.34C50.5909 23.64 50.3409 23.86 50.1109 24.09C49.9509 24.25 49.8409 24.48 49.6309 24.57C48.6109 25.55 47.7509 26.39 46.8309 27.12C46.8309 27.04 46.9409 27.08 46.9609 26.99C46.8909 27.02 46.8109 27.09 46.7409 27.11C46.7109 27.24 46.2909 27.58 46.1109 27.52C46.2509 27.42 46.3909 27.36 46.5409 27.21C46.4809 27.21 46.4009 27.32 46.3409 27.28C46.4009 27.18 46.5809 27.07 46.6809 26.99C46.7009 26.96 46.6609 26.97 46.6409 26.99C46.8509 26.78 47.1909 26.64 47.3609 26.34C47.2409 26.41 47.1409 26.6 47.0109 26.62C47.0109 26.58 47.1509 26.5 47.2109 26.42C47.0909 26.47 47.0309 26.54 46.9209 26.63C47.0509 26.6 46.8509 26.7 46.8009 26.78C46.9309 26.57 47.1109 26.37 46.9009 26.38C46.6409 26.6 46.6209 26.65 46.4509 26.8C46.5109 26.8 46.5209 26.74 46.5309 26.82L46.6109 26.74C46.5209 26.83 46.5309 26.95 46.4209 27.08C46.4109 27.06 46.4509 27.03 46.4709 27C46.4209 26.97 46.3609 27 46.2909 27.06C46.2609 27.02 46.3509 26.97 46.2909 26.93C46.2409 26.9 46.2709 26.98 46.2209 27C46.1709 26.97 46.2909 26.91 46.2709 26.88C46.1909 26.94 46.0809 27 45.9609 27.14C45.9609 27.12 45.9609 27.09 45.9909 27.07C45.9209 27.07 45.8609 27.2 45.8109 27.25C45.7609 27.18 45.6809 27.28 45.6309 27.23C45.7809 27.18 45.7409 27.07 45.8309 27.1C45.8209 26.95 46.0309 26.83 46.1509 26.65C46.0509 26.71 45.9409 26.83 45.8409 26.91C45.8409 26.88 45.8509 26.85 45.8809 26.82C45.8609 26.82 45.7709 26.84 45.8309 26.87C45.7509 26.89 45.8309 26.78 45.8309 26.74C45.8009 26.76 45.7809 26.78 45.7309 26.71C45.7909 26.62 46.0209 26.56 46.0509 26.39C46.0809 26.39 46.1209 26.36 46.1509 26.36C46.1909 26.29 46.1909 26.22 46.3009 26.14C46.2209 26.27 46.3709 26.14 46.4209 26.16C46.3809 26.11 46.6209 25.93 46.6809 25.82C46.5709 25.88 46.4009 26.08 46.3309 26.14C46.3309 26.12 46.3409 26.09 46.3609 26.07C46.1809 26.2 45.9909 26.36 45.8909 26.57C45.8409 26.53 45.7809 26.61 45.7209 26.64C45.6609 26.71 45.7409 26.75 45.6609 26.82C45.5709 26.75 45.5909 26.7 45.6809 26.57C45.5409 26.68 45.3909 26.92 45.1909 26.81C45.3909 26.79 45.5609 26.65 45.7309 26.45C45.6309 26.48 45.5009 26.7 45.4109 26.7C45.4609 26.66 45.4309 26.63 45.4609 26.58C45.3809 26.58 45.4209 26.58 45.3309 26.61C45.3309 26.55 45.4409 26.55 45.4909 26.47C45.4809 26.41 45.3609 26.55 45.4409 26.45C45.4309 26.42 45.3409 26.47 45.3609 26.5C45.3509 26.48 45.3609 26.37 45.3009 26.34C45.3809 26.24 45.3609 26.3 45.4409 26.18C45.3309 26.15 45.3109 26.36 45.2309 26.37C45.2809 26.38 45.2309 26.52 45.3309 26.44C45.3409 26.54 45.2409 26.53 45.1609 26.54C45.1409 26.49 45.2209 26.49 45.2409 26.46C45.1809 26.32 44.8209 26.44 44.9009 26.25C44.8809 26.21 44.8409 26.26 44.8109 26.26C44.8409 26.12 44.9809 26.06 45.0409 25.93C44.9909 25.94 44.8409 26.09 44.8209 26.15C44.7509 26.19 44.8009 26.1 44.8509 26.08C44.7409 26.03 44.5809 26.34 44.5109 26.37C44.4609 26.35 44.5809 26.19 44.5609 26.12C44.5909 26.12 44.6309 26.12 44.6709 26.06C44.6309 26.15 44.7109 26.06 44.7009 26.13C44.7009 26 44.7709 25.96 44.8009 25.83C44.6709 25.85 44.5809 25.98 44.4209 26.01C44.3609 26.12 44.3209 26.17 44.2009 26.23C44.1609 26.19 44.2409 26.06 44.1509 26.08L44.1809 26.07ZM49.7809 19.8C49.7809 19.73 49.9609 19.64 49.9609 19.57C49.3309 20.18 48.5309 20.83 48.0709 21.46C48.1509 21.4 48.2309 21.27 48.3009 21.26C48.2909 21.29 48.2809 21.31 48.2709 21.33C48.4709 21.09 49.0109 20.62 49.2709 20.29C49.2509 20.31 49.2209 20.34 49.2309 20.35C49.3909 20.2 49.8209 19.87 49.7809 19.8ZM44.9809 26.27L45.0509 26.34C45.3309 26.1 45.7009 25.78 45.9409 25.45C45.6809 25.7 45.4809 25.89 45.2809 26.03C45.2809 26 45.2309 26.04 45.2809 25.96C45.1209 26.08 45.1309 26.16 44.9809 26.26V26.27ZM46.0809 26.53C46.1809 26.44 46.4209 26.31 46.4909 26.14C46.4309 26.19 46.2809 26.38 46.3309 26.25C46.2309 26.29 46.1309 26.45 46.0809 26.53ZM56.6709 18.48C56.6009 18.46 56.6409 18.45 56.6509 18.41C56.5009 18.39 56.3609 18.36 56.1809 18.37C56.2509 18.47 56.4909 18.57 56.6809 18.48H56.6709ZM55.3409 18.48C55.3609 18.55 55.5409 18.53 55.5309 18.45C55.4509 18.42 55.4309 18.46 55.3409 18.48ZM52.2709 21.33C52.2709 21.33 52.2809 21.3 52.3009 21.33C52.3109 21.23 52.4509 21.19 52.4909 21.09C52.4409 21.11 52.5209 21.07 52.4909 21.03C52.5309 21.03 52.5309 21 52.5709 20.95C52.6809 20.79 52.2409 21.25 52.2209 21.3C52.2209 21.3 52.1909 21.3 52.2009 21.32C52.2509 21.26 52.2009 21.4 52.2509 21.34L52.2709 21.33ZM51.3609 22.26C51.1909 22.46 51.6509 22.01 51.4209 22.22C51.6709 21.99 52.0509 21.58 52.2209 21.35C51.9309 21.68 51.6409 21.94 51.3609 22.26ZM51.8009 22C51.9009 21.94 51.8809 21.9 51.9909 21.86C52.6709 21 53.3309 20.52 54.0209 19.81C53.2409 20.32 52.5009 21.25 51.8009 22ZM52.8209 21.01C52.7809 21.07 52.6609 21.14 52.6709 21.19C52.7109 21.13 52.8309 21.06 52.8209 21.01ZM50.8509 23.32C50.7809 23.3 50.6909 23.4 50.6409 23.48C50.7109 23.43 50.7709 23.41 50.8509 23.32ZM50.8909 18.57C50.9509 18.43 51.0809 18.35 51.1809 18.26C51.2709 18.21 51.0409 18.42 51.1809 18.32C51.1509 18.38 50.9809 18.5 50.9009 18.58L50.8909 18.57ZM44.4109 25.17C44.3509 25.17 44.3609 25.17 44.2909 25.15C44.3409 25.13 44.3809 25.09 44.4309 25.06C44.4309 25.1 44.4009 25.15 44.4309 25.19C44.4109 25.21 44.4109 25.19 44.4209 25.18L44.4109 25.17Z" fill="#124936"/>
    </g>
    <defs>
        <clipPath id="clip0_1019_6248">
            <rect width="60" height="60" fill="white" transform="translate(0.425781)"/>
        </clipPath>
    </defs>
</svg>
