<svg width="61" height="60" viewBox="0 0 61 60" fill="none"
    xmlns="http://www.w3.org/2000/svg">
    <g clip-path="url(#clip0_1019_6250)">
        <rect width="60" height="60" transform="translate(0.94751)" />
        <path d="M29.3287 30.0036C29.3287 18.5736 35.7287 8.6336 45.1387 3.5636C40.4887 1.0636 35.1087 -0.246403 29.3987 0.0335967C14.3187 0.793597 1.95875 12.9636 1.00875 28.0436C-0.101253 45.4936 13.7288 60.0036 30.9487 60.0036C36.0788 60.0036 40.9087 58.7136 45.1387 56.4436C35.7287 51.3836 29.3287 41.4436 29.3287 30.0036Z" fill="#9F7FF7"/>
        <path d="M50.0187 25.3336C51.7032 25.3336 53.0688 23.9681 53.0688 22.2836C53.0688 20.5991 51.7032 19.2336 50.0187 19.2336C48.3343 19.2336 46.9688 20.5991 46.9688 22.2836C46.9688 23.9681 48.3343 25.3336 50.0187 25.3336Z" fill="#124936"/>
        <path d="M50.6288 27.1736C50.8388 27.1436 51.1588 27.1036 51.2988 27.0236C51.0288 27.0736 50.8288 27.1136 50.6288 27.1736ZM46.2488 19.0936C46.2588 19.1736 46.0388 19.3936 45.9488 19.5436C45.9288 19.4636 46.1388 19.2336 46.2488 19.0936ZM47.5488 26.5136C47.4588 26.5136 47.2588 26.3536 47.1988 26.2836C47.2988 26.3036 47.4488 26.4536 47.5488 26.5136ZM54.5388 24.0236C54.5388 24.0236 54.4488 24.3236 54.4088 24.3336C54.4888 24.1736 54.4888 24.1236 54.5388 24.0236ZM52.9888 26.1136C52.9888 26.1136 53.1488 25.9836 53.2088 25.9136C53.1888 25.9036 53.1488 25.9436 53.1188 25.9736C53.1088 25.9336 53.2488 25.8436 53.2988 25.7836C53.2988 25.8136 53.2688 25.8536 53.2388 25.8836C53.3488 25.8436 53.5288 25.6236 53.6488 25.4936C53.5288 25.7036 53.1988 25.9736 52.9888 26.1036V26.1136ZM48.0288 26.5736C47.9688 26.5836 47.7888 26.4736 47.6888 26.4236C47.7488 26.4236 47.9188 26.5436 48.0288 26.5736ZM54.0888 19.9736C54.1388 20.0836 54.0988 20.1336 54.1588 20.2636C54.0888 20.2336 54.0088 20.0036 54.0888 19.9736ZM49.1488 23.5836C49.1488 23.5836 49.0688 23.5236 49.0188 23.5136C49.0688 23.4936 49.1088 23.5636 49.1488 23.5836ZM51.3488 22.5436C51.3488 22.5436 51.3788 22.5036 51.3588 22.4636C51.4088 22.4836 51.3688 22.5236 51.3488 22.5436ZM50.3588 23.3736C50.3588 23.3736 50.4288 23.3536 50.4588 23.3136C50.4788 23.3736 50.3888 23.3836 50.3588 23.3736ZM50.0488 23.4436C50.0588 23.3736 50.1188 23.4036 50.1588 23.3836C50.1588 23.4536 50.0788 23.4036 50.0488 23.4436ZM53.3588 19.6836C53.4188 19.7436 53.4388 19.8336 53.5488 19.8736C53.5988 20.0236 53.6788 20.2036 53.7788 20.3936C53.7888 20.4136 53.8088 20.4136 53.8188 20.4436C53.8388 20.4136 53.9488 20.4436 53.8888 20.3336C54.0188 20.3836 54.0388 20.6436 53.9788 20.6636C54.0088 20.7636 54.0388 20.7736 54.0688 20.8436C54.0888 20.6836 54.1288 20.6036 54.0088 20.4236C54.0788 20.3936 54.0988 20.4036 54.1688 20.3136C54.2588 20.4936 54.2888 20.4736 54.3988 20.5236C54.4088 20.6136 54.4288 20.7036 54.4688 20.8136C54.4888 20.8536 54.5188 20.8536 54.5388 20.9036C54.5988 20.9136 54.5388 20.7936 54.5988 20.8036C55.1088 22.5636 54.6188 24.6636 53.1288 25.8736C52.8488 26.2836 52.5588 26.3336 52.0688 26.6036C52.1588 26.6336 52.3988 26.4536 52.5188 26.4236C51.3288 27.2136 49.7488 27.2436 48.6788 26.9836C48.1688 26.7736 47.4788 26.4136 46.9888 26.0236C46.8888 25.9436 46.9588 26.0636 46.8988 26.0236C46.5688 25.7236 46.5788 25.6936 46.2988 25.4036C46.4288 25.3636 46.6088 25.6236 46.8388 25.8136C46.6188 25.6136 46.2688 25.1236 46.2288 25.1336C45.8388 24.5936 45.5788 24.1336 45.3988 23.4136C45.3488 23.3436 45.3188 23.1836 45.2588 23.1736C45.2088 22.9036 45.1888 22.6136 45.1488 22.4236C45.1088 22.4736 45.1488 22.6836 45.1488 22.8036C45.0388 22.5936 45.0688 21.9736 45.1888 21.8936C45.2388 21.2036 45.4888 20.5136 45.6788 20.0036C46.0888 19.6036 46.3888 18.9536 46.9988 18.5136C46.5988 18.7936 47.1788 18.3036 47.2388 18.2736C47.5588 18.0236 47.9288 17.7936 48.2788 17.6336C48.9588 17.3336 49.5688 17.3236 50.0588 17.3036C51.2988 17.2336 52.5088 17.8436 53.1988 18.5636C53.2788 18.6336 53.3388 18.6436 53.4188 18.7136C53.4088 18.7236 53.3788 18.6936 53.3488 18.6736C53.5188 18.9636 53.5988 19.3736 53.2488 19.2436C53.2088 19.3236 53.2588 19.4736 53.2788 19.6136C52.9688 19.6136 52.7888 19.8936 52.4788 19.8536C52.4488 20.0736 52.1988 20.1236 52.0588 20.2736C51.8988 20.4436 51.7788 20.6736 51.5588 20.6436C51.2888 20.8736 51.0588 20.8036 50.8288 20.7036C50.5988 20.5936 50.3088 20.4536 50.0788 20.4236C49.8288 20.5236 49.5388 20.4036 49.2688 20.5636C49.2288 20.5836 49.2388 20.6236 49.2088 20.6436C48.8088 20.7836 48.5988 21.1336 48.4388 21.4236C48.5788 21.2536 48.6288 21.1736 48.8088 21.0036C48.8888 20.9436 48.7888 21.0536 48.7588 21.0736C48.2288 21.6236 48.1288 22.7936 48.8488 23.4436C48.9188 23.5036 48.9788 23.6336 49.0588 23.6036C49.1588 23.7136 49.2388 23.7436 49.3588 23.7736C49.3788 23.7536 49.3088 23.7236 49.2988 23.7436C49.4288 23.6936 49.6488 23.8636 49.8388 23.8236C49.6588 23.7036 49.2088 23.6336 49.0588 23.4436C49.3788 23.6336 49.7088 23.7736 50.0488 23.6836C50.0488 23.7236 50.0988 23.6736 50.0888 23.7336C50.2788 23.7036 50.4388 23.6836 50.5788 23.6236C50.6788 23.5736 50.7288 23.4536 50.8588 23.4636C51.4388 23.0736 51.6188 22.4236 51.5688 21.7936C51.6388 21.8136 51.5288 21.8636 51.5888 21.8936C51.6088 21.8436 51.5988 21.7936 51.6188 21.7536C51.5388 21.7136 51.4688 21.4336 51.5788 21.3036C51.6188 21.4136 51.5888 21.5036 51.6488 21.6136C51.6788 21.5736 51.6188 21.5136 51.6788 21.4736C51.7388 21.5236 51.7388 21.6636 51.7488 21.7336C51.7588 21.7536 51.7788 21.7336 51.7788 21.7136C51.8388 21.8936 51.7288 22.1036 51.8088 22.2936C51.8388 22.2136 51.7788 22.0936 51.8388 22.0236C51.8688 22.0436 51.8388 22.1336 51.8588 22.1936C51.9088 22.1136 51.8888 22.0636 51.8888 21.9736C51.8288 22.0536 51.8888 21.9136 51.8488 21.8636C51.9388 21.9936 51.9688 22.1736 52.0988 22.0636C52.0988 21.8236 52.0588 21.7936 52.0288 21.6436C52.0088 21.6836 52.0488 21.7036 51.9688 21.6936L51.9888 21.7736C51.9788 21.6836 51.8588 21.6736 51.8188 21.5736C51.8388 21.5736 51.8488 21.6036 51.8588 21.6236C51.9088 21.5936 51.9188 21.5436 51.8988 21.4936C51.9488 21.4736 51.9488 21.5536 52.0088 21.5236C52.0588 21.4936 51.9788 21.4936 51.9888 21.4636C52.0388 21.4336 52.0288 21.5336 52.0688 21.5236C52.0588 21.4536 52.0488 21.3636 51.9788 21.2436C51.9988 21.2436 52.0188 21.2436 52.0288 21.2736C52.0588 21.2136 51.9588 21.1536 51.9288 21.1036C52.0088 21.0636 51.9488 20.9936 51.9988 20.9536C51.9988 21.0836 52.1088 21.0636 52.0488 21.1436C52.1988 21.1436 52.2188 21.3536 52.3088 21.4936C52.3088 21.3936 52.2488 21.2836 52.2188 21.1836C52.2488 21.1836 52.2688 21.2036 52.2788 21.2336C52.2888 21.2236 52.2988 21.1336 52.2588 21.1836C52.2588 21.1136 52.3388 21.2036 52.3688 21.2136C52.3688 21.1836 52.3588 21.1636 52.4288 21.1436C52.4888 21.2236 52.4488 21.4336 52.5788 21.5136C52.5788 21.5436 52.5688 21.5836 52.5488 21.6036C52.5888 21.6636 52.6488 21.6936 52.6488 21.8136C52.5888 21.6936 52.6188 21.8736 52.5488 21.8936C52.6188 21.8936 52.6088 22.1436 52.6388 22.2536C52.6788 22.1536 52.6388 21.9236 52.6188 21.8436C52.6388 21.8536 52.6488 21.8736 52.6588 21.9036C52.6588 21.7136 52.6188 21.4736 52.4888 21.3236C52.5488 21.2936 52.4888 21.2136 52.4888 21.1636C52.4488 21.0936 52.3788 21.1436 52.3488 21.0736C52.4488 21.0036 52.4888 21.0336 52.5588 21.1536C52.5188 20.9936 52.3288 20.8036 52.4688 20.6336C52.4488 20.8336 52.5288 21.0136 52.6488 21.2336C52.6488 21.1336 52.5088 20.9536 52.5288 20.8736C52.5588 20.9336 52.5988 20.9136 52.6288 20.9436C52.6588 20.8636 52.6388 20.9136 52.6288 20.8136C52.6888 20.8336 52.6588 20.9336 52.7088 21.0136C52.7688 21.0236 52.6788 20.8536 52.7488 20.9736C52.7788 20.9736 52.7588 20.8636 52.7288 20.8836C52.7488 20.8836 52.8488 20.9236 52.8988 20.8836C52.9688 21.0036 52.9188 20.9536 53.0088 21.0836C53.0688 20.9936 52.8788 20.8836 52.8988 20.8036C52.8688 20.8436 52.7488 20.7636 52.7988 20.8836C52.6988 20.8636 52.7388 20.7736 52.7488 20.6836C52.7988 20.6836 52.7788 20.7536 52.8088 20.7936C52.9688 20.7936 52.9188 20.3636 53.0888 20.5136C53.1388 20.5136 53.0888 20.4436 53.0888 20.4136C53.2288 20.4936 53.2688 20.6736 53.3788 20.8136C53.3788 20.7436 53.2688 20.5136 53.2088 20.4836C53.1788 20.3936 53.2688 20.4836 53.2788 20.5436C53.3588 20.4336 53.0488 20.1336 53.0088 20.0636C53.0288 20.0136 53.2088 20.1936 53.2788 20.2036C53.2788 20.2436 53.2688 20.2736 53.3288 20.3536C53.2388 20.2736 53.3288 20.3936 53.2488 20.3636C53.3788 20.4236 53.4288 20.5136 53.5488 20.6136C53.5588 20.4436 53.4288 20.3036 53.4088 20.0836C53.2788 19.9636 53.2288 19.9136 53.1588 19.7536C53.1988 19.7136 53.3488 19.8636 53.3288 19.7436L53.3588 19.6836ZM47.6688 26.4036C47.5888 26.4136 47.3488 26.1936 47.2788 26.1936C48.3588 27.0436 50.1188 27.3636 51.2588 26.8936C51.1088 26.9236 50.8788 27.0136 50.7888 26.9736C50.8288 26.9636 50.8688 26.9436 50.8888 26.9236C50.4188 27.0736 49.2988 27.0036 48.6788 26.8436C48.7188 26.8436 48.7788 26.8736 48.7888 26.8536C48.4588 26.7736 47.7288 26.3736 47.6688 26.3936V26.4036ZM53.0888 20.5236L52.9988 20.5736C53.1888 20.9536 53.3288 21.4736 53.4388 21.9136C53.4088 21.5036 53.3088 21.2136 53.2388 20.9436C53.2688 20.9436 53.2388 20.8936 53.3088 20.9736C53.2288 20.7536 53.1688 20.7236 53.0888 20.5336V20.5236ZM52.4588 21.4636C52.4988 21.5836 52.4788 21.8036 52.5488 21.9336C52.5488 21.8636 52.4788 21.6736 52.5488 21.7736C52.5688 21.6836 52.4988 21.5436 52.4488 21.4736L52.4588 21.4636ZM49.4488 20.4436C49.4488 20.4436 49.4288 20.4236 49.4088 20.3836C49.3088 20.4036 49.2088 20.4036 49.1088 20.4636C49.1988 20.5236 49.3688 20.5736 49.4488 20.4436ZM48.5888 20.9336C48.6388 20.9836 48.7988 20.8536 48.7488 20.7836C48.6688 20.8136 48.6588 20.8636 48.5888 20.9336ZM48.7388 23.6836C48.7388 23.6836 48.7188 23.6836 48.7388 23.6636C48.6588 23.6736 48.6588 23.5736 48.5788 23.5536C48.5788 23.5936 48.5788 23.5336 48.5288 23.5536C48.5288 23.5236 48.5088 23.5236 48.4788 23.4936C48.3788 23.4136 48.6488 23.7336 48.6988 23.7236C48.6988 23.7236 48.6988 23.7436 48.7088 23.7336C48.6688 23.7036 48.7688 23.7236 48.7288 23.6836H48.7388ZM49.4288 24.0736C49.5788 24.1036 49.2188 23.9636 49.3988 24.0436C49.2088 23.9736 48.9088 23.8136 48.7488 23.7236C48.9688 23.8836 49.1688 24.0236 49.4288 24.0736ZM49.2088 23.8536C49.1688 23.7936 49.1388 23.8236 49.1088 23.7536C48.5088 23.5036 48.3388 22.9436 48.2888 22.4236C48.0988 22.9936 48.6688 23.6536 49.1988 23.8536H49.2088ZM48.6188 23.3136C48.6188 23.3136 48.6688 23.4236 48.7088 23.4136C48.6688 23.3936 48.6588 23.3036 48.6188 23.3136ZM50.0888 23.7836C50.1088 23.8536 50.1788 23.8336 50.2188 23.8036C50.1788 23.8036 50.1488 23.7636 50.0888 23.7836ZM45.8188 24.6536C45.6588 24.4836 45.5888 24.2536 45.5188 24.0536C45.4788 23.9036 45.6588 24.3536 45.5788 24.1136C45.6388 24.2036 45.7388 24.5036 45.8188 24.6536ZM54.3688 20.4736C54.3688 20.3836 54.3888 20.4136 54.4188 20.3336C54.4288 20.4036 54.4788 20.5036 54.4888 20.5836C54.4488 20.5336 54.3988 20.4836 54.3488 20.4836C54.3388 20.4436 54.3488 20.4536 54.3688 20.4836V20.4736Z" fill="#124936"/>
        <path d="M56.7487 6.97359C56.7487 6.97359 56.6587 6.88359 56.6087 6.90359C56.6487 6.95359 56.6887 6.98359 56.7487 6.97359ZM59.1087 8.07359C59.0787 8.14359 59.0287 8.07359 58.9887 8.07359C59.0187 8.01359 59.0687 8.07359 59.1087 8.07359ZM57.3487 7.38359C57.3487 7.38359 57.4187 7.41359 57.4287 7.43359C57.3887 7.46359 57.3687 7.40359 57.3487 7.38359ZM55.7387 6.30359C55.7387 6.30359 55.8087 6.33359 55.7987 6.35359C55.7787 6.32359 55.7487 6.33359 55.7387 6.30359ZM56.2087 6.69359C56.2087 6.69359 56.1687 6.67359 56.1387 6.66359C56.1287 6.68359 56.1387 6.68359 56.1387 6.69359C56.1087 6.72359 56.0987 6.67359 56.0787 6.66359C56.0987 6.66359 56.1087 6.65359 56.1187 6.65359C56.1187 6.60359 56.0487 6.59359 56.0287 6.55359C56.0987 6.55359 56.1587 6.64359 56.1887 6.68359L56.2087 6.69359ZM57.1687 7.48359C57.1687 7.48359 57.2287 7.50359 57.2487 7.51359C57.2187 7.54359 57.1887 7.48359 57.1687 7.48359ZM54.9287 5.73359C54.9287 5.73359 54.8987 5.80359 54.9287 5.83359C54.8787 5.86359 54.8687 5.79359 54.9287 5.73359ZM55.7987 10.3636C55.7987 10.3636 55.8887 10.4036 55.9287 10.4136C55.8887 10.4436 55.8387 10.3736 55.7987 10.3636ZM53.2087 8.73359C53.2087 8.73359 53.1787 8.68359 53.1387 8.66359C53.1887 8.63359 53.1987 8.69359 53.2087 8.73359ZM54.3787 9.97359C54.3787 9.97359 54.2887 9.91359 54.2387 9.89359C54.2887 9.85359 54.3687 9.93359 54.3787 9.97359ZM54.7587 10.2036C54.7087 10.2436 54.6487 10.1736 54.5987 10.1636C54.6487 10.1236 54.7087 10.2136 54.7587 10.2036ZM54.4987 5.91359C54.4987 5.91359 54.4987 5.96359 54.5587 5.93359C54.5487 5.99359 54.5587 6.03359 54.5987 6.08359H54.6187C54.6387 6.05359 54.7187 6.01359 54.6887 6.00359C54.7787 5.96359 54.7487 6.06359 54.7087 6.10359C54.7087 6.13359 54.7387 6.11359 54.7587 6.13359C54.7787 6.06359 54.8187 6.00359 54.7587 5.98359C54.8187 5.93359 54.8287 5.92359 54.8987 5.84359C54.9387 5.87359 54.9587 5.84359 55.0287 5.81359C55.0287 5.84359 55.0287 5.86359 55.0487 5.88359C55.0587 5.88359 55.0787 5.87359 55.0887 5.88359C55.1287 5.85359 55.0887 5.84359 55.1387 5.81359C55.3587 6.18359 55.7387 6.43359 56.0687 6.75359C56.2487 6.71359 56.2187 6.85359 56.3387 6.91359C56.3587 6.85359 56.2787 6.85359 56.2787 6.80359C56.5587 6.97359 56.8087 7.21359 57.0787 7.27359C57.1487 7.39359 57.2987 7.50359 57.4387 7.55359C57.4687 7.55359 57.4587 7.51359 57.4787 7.51359C57.5687 7.56359 57.5587 7.58359 57.6487 7.61359C57.5887 7.71359 57.5287 7.66359 57.4587 7.63359C57.5187 7.67359 57.6287 7.77359 57.6587 7.73359C57.7987 7.80359 57.9187 7.84359 58.0787 7.90359C58.1087 7.88359 58.1387 7.90359 58.1687 7.84359C58.2287 7.86359 58.2887 7.90359 58.3387 7.87359C58.3387 7.83359 58.2887 7.84359 58.2687 7.82359C58.3387 7.77359 58.4587 7.84359 58.4387 7.95359C58.5887 8.00359 58.7387 8.06359 58.8687 8.04359C58.9287 8.26359 59.1287 8.16359 59.2787 8.22359C59.1787 8.16359 59.3487 8.19359 59.3687 8.19359C59.4587 8.19359 59.5587 8.17359 59.6487 8.17359C59.8087 8.14359 59.9287 8.21359 60.0287 8.21359C60.2887 8.21359 60.5387 8.26359 60.7587 8.36359C60.7787 8.36359 60.7987 8.33359 60.8187 8.33359C60.8187 8.35359 60.8087 8.34359 60.7987 8.35359C60.8587 8.45359 60.9487 8.66359 60.8687 8.83359C60.8687 8.92359 60.9087 8.98359 60.9487 9.06359C60.8887 9.30359 60.9187 9.61359 60.8287 9.81359C60.8787 9.99359 60.8287 10.2036 60.8287 10.4136C60.8287 10.6436 60.8787 10.9036 60.7587 11.0236C60.7087 11.7236 59.9887 11.4436 59.6487 11.3236C59.4187 11.3936 59.2287 11.2136 58.9887 11.2036C58.9587 11.2036 58.9387 11.2436 58.9087 11.2436C58.5887 11.1136 58.2687 11.1436 57.9887 11.0436C58.1487 11.1436 58.2387 11.1536 58.4487 11.2036C58.5287 11.2336 58.4087 11.2136 58.3787 11.2036C57.7187 11.0836 56.8787 10.8336 56.1187 10.4436C56.0387 10.4036 55.9587 10.3036 55.8887 10.3436C55.7887 10.2536 55.7087 10.2236 55.5987 10.1736C55.5787 10.1936 55.6387 10.2336 55.6487 10.2036C55.5087 10.2536 55.3287 10.0436 55.1587 9.99359C55.2587 10.2036 55.7287 10.3436 55.8987 10.4836C55.5287 10.3336 55.2487 10.1336 54.8987 9.99359C54.9287 9.96359 54.8487 9.97359 54.8987 9.93359C54.7187 9.84359 54.5887 9.72359 54.4587 9.62359C54.3687 9.55359 54.2187 9.55359 54.1787 9.41359C53.6387 8.95359 53.1887 8.53359 52.8687 8.01359C52.9287 8.00359 52.8687 8.09359 52.9387 8.08359C52.9387 8.03359 52.8987 7.99359 52.9087 7.94359C52.8187 7.94359 52.6687 7.70359 52.7687 7.55359C52.8087 7.64359 52.8087 7.73359 52.8787 7.81359C52.8987 7.76359 52.8287 7.73359 52.8787 7.68359C52.9387 7.71359 52.9787 7.81359 53.0087 7.87359C53.0287 7.87359 53.0287 7.85359 53.0287 7.84359C53.1287 7.95359 53.1487 8.17359 53.3287 8.22359C53.2987 8.15359 53.1887 8.12359 53.2087 8.03359C53.2387 8.03359 53.2587 8.10359 53.3087 8.13359C53.3087 8.05359 53.2587 8.03359 53.2187 7.97359C53.2087 8.06359 53.1887 7.94359 53.1387 7.91359C53.2587 7.96359 53.3687 8.04359 53.4087 7.89359C53.3187 7.75359 53.2887 7.75359 53.2087 7.66359C53.1987 7.70359 53.2387 7.69359 53.1787 7.73359L53.2187 7.77359C53.2187 7.77359 53.0787 7.77359 53.0087 7.71359C53.0287 7.70359 53.0387 7.72359 53.0587 7.73359C53.0987 7.68359 53.0887 7.65359 53.0587 7.61359C53.0987 7.58359 53.1087 7.64359 53.1587 7.59359C53.1887 7.55359 53.1287 7.59359 53.1287 7.56359C53.1687 7.52359 53.1787 7.59359 53.2087 7.56359C53.1787 7.52359 53.1687 7.45359 53.0987 7.39359C53.1187 7.38359 53.1387 7.38359 53.1487 7.39359C53.1687 7.34359 53.0887 7.32359 53.0587 7.29359C53.1287 7.24359 53.0687 7.20359 53.1287 7.15359C53.1287 7.25359 53.2187 7.20359 53.1687 7.27359C53.2887 7.23359 53.3087 7.36359 53.4087 7.40359C53.3887 7.34359 53.3387 7.29359 53.3087 7.24359C53.3287 7.23359 53.3487 7.24359 53.3687 7.24359C53.3787 7.22359 53.3887 7.17359 53.3487 7.22359C53.3487 7.17359 53.4187 7.20359 53.4387 7.19359C53.4387 7.17359 53.4287 7.16359 53.4887 7.11359C53.5387 7.13359 53.5187 7.28359 53.6287 7.26359C53.6287 7.28359 53.6287 7.30359 53.6287 7.33359C53.6687 7.34359 53.7187 7.33359 53.7487 7.38359C53.6787 7.36359 53.7387 7.43359 53.6987 7.48359C53.7487 7.44359 53.8187 7.56359 53.8787 7.58359C53.8587 7.52359 53.7687 7.45359 53.7387 7.41359C53.7587 7.41359 53.7687 7.41359 53.7887 7.41359C53.7387 7.32359 53.6787 7.22359 53.5587 7.19359C53.5987 7.15359 53.5587 7.12359 53.5587 7.09359C53.5287 7.06359 53.4687 7.13359 53.4387 7.09359C53.5187 7.01359 53.5487 7.01359 53.6187 7.05359C53.5787 6.98359 53.4487 6.92359 53.5987 6.76359C53.5487 6.89359 53.5987 6.99359 53.6987 7.06359C53.6987 7.00359 53.5887 6.96359 53.6187 6.89359C53.6387 6.92359 53.6687 6.89359 53.6887 6.89359C53.7187 6.83359 53.6987 6.86359 53.7087 6.80359C53.7587 6.79359 53.7087 6.87359 53.7587 6.88359C53.8087 6.86359 53.7387 6.81359 53.7887 6.84359C53.8087 6.82359 53.8087 6.77359 53.7787 6.80359C53.7987 6.79359 53.8787 6.77359 53.9187 6.72359C53.9687 6.75359 53.9287 6.75359 53.9887 6.78359C54.0487 6.70359 53.8987 6.73359 53.9187 6.68359C53.8887 6.72359 53.7987 6.72359 53.8387 6.77359C53.7587 6.80359 53.7987 6.73359 53.8187 6.67359C53.8587 6.64359 53.8287 6.70359 53.8487 6.71359C53.9687 6.64359 53.9987 6.42359 54.1087 6.43359C54.1487 6.40359 54.1187 6.39359 54.1287 6.37359C54.2187 6.36359 54.2187 6.43359 54.2887 6.44359C54.2887 6.41359 54.2387 6.34359 54.2087 6.35359C54.2087 6.31359 54.2487 6.32359 54.2587 6.35359C54.3287 6.26359 54.1787 6.23359 54.1687 6.20359C54.1987 6.16359 54.2687 6.20359 54.3287 6.17359C54.3287 6.19359 54.2987 6.21359 54.3287 6.23359C54.2787 6.23359 54.3187 6.25359 54.2687 6.27359C54.3587 6.24359 54.3687 6.27359 54.4487 6.26359C54.4787 6.18359 54.4187 6.15359 54.4487 6.05359C54.3987 6.05359 54.3687 6.02359 54.3887 5.98359C54.4287 5.95359 54.4787 5.95359 54.5087 5.90359L54.4987 5.91359ZM57.2487 7.54359C57.2487 7.54359 57.3187 7.60359 57.3587 7.56359C57.0787 7.39359 56.8187 7.10359 56.5187 7.04359C56.5387 7.07359 56.6087 7.07359 56.6087 7.12359C56.5987 7.12359 56.5787 7.12359 56.5687 7.13359C56.6787 7.16359 56.8687 7.37359 57.0387 7.39359C57.0287 7.39359 57.0187 7.37359 57.0087 7.39359C57.0787 7.44359 57.2187 7.60359 57.2587 7.54359H57.2487ZM54.0587 6.48359L53.9787 6.55359C54.0587 6.69359 54.1787 6.86359 54.3387 6.94359C54.2387 6.82359 54.1587 6.74359 54.1187 6.64359C54.1387 6.63359 54.1187 6.61359 54.1687 6.62359C54.1387 6.54359 54.0687 6.57359 54.0487 6.49359L54.0587 6.48359ZM53.5187 7.32359C53.5587 7.37359 53.5887 7.51359 53.6887 7.52359C53.6687 7.49359 53.5687 7.43359 53.6487 7.43359C53.6487 7.37359 53.5587 7.34359 53.5187 7.32359ZM59.1587 11.1636C59.1587 11.1636 59.1587 11.1336 59.1587 11.0936C59.0887 11.0736 59.0287 11.0236 58.9387 11.0136C58.9487 11.1136 59.0487 11.2536 59.1587 11.1636ZM58.4087 10.9636C58.3887 11.0436 58.5487 11.0836 58.5687 11.0036C58.5187 10.9536 58.4787 10.9836 58.4087 10.9636ZM56.1487 10.1836C56.1487 10.1836 56.1687 10.1836 56.1487 10.2036C56.2087 10.1636 56.2387 10.2536 56.2987 10.2436C56.2887 10.2136 56.3087 10.2636 56.3387 10.2236C56.3387 10.2536 56.3587 10.2336 56.3887 10.2536C56.4887 10.2636 56.1987 10.1336 56.1687 10.1436C56.1687 10.1436 56.1687 10.1236 56.1587 10.1436C56.1987 10.1536 56.1087 10.1736 56.1487 10.1936V10.1836ZM55.5787 9.88359C55.4587 9.83359 55.7287 10.0036 55.5987 9.91359C55.7387 10.0036 55.9787 10.1336 56.1287 10.1536C55.9187 10.0836 55.7787 9.95359 55.5787 9.88359ZM55.7287 10.1136C55.7587 10.1736 55.7887 10.1336 55.8087 10.2036C56.3487 10.3436 56.6487 10.6336 57.1287 10.8036C56.7687 10.4636 56.1987 10.3336 55.7287 10.1136ZM56.3487 10.4536C56.3487 10.4536 56.2687 10.3836 56.2387 10.4136C56.2787 10.4136 56.3187 10.4836 56.3487 10.4536ZM54.8987 9.91359C54.9187 9.84359 54.8587 9.82359 54.8087 9.81359C54.8387 9.84359 54.8387 9.89359 54.8987 9.91359ZM57.8087 7.74359C57.8787 7.71359 57.9087 7.77359 57.9587 7.79359C57.9787 7.83359 57.8787 7.78359 57.9287 7.82359C57.8987 7.83359 57.8487 7.77359 57.8087 7.75359V7.74359ZM55.0087 5.80359C55.0087 5.80359 55.0287 5.76359 55.0687 5.71359C55.0687 5.73359 55.0687 5.75359 55.0787 5.78359C55.0487 5.78359 55.0287 5.78359 54.9887 5.82359L54.9987 5.81359L55.0087 5.80359Z" fill="#124936"/>
        <path d="M51.6688 17.3136C51.6788 17.4236 51.6489 17.5836 51.6889 17.6636C51.7089 17.5236 51.7088 17.4136 51.6688 17.3136ZM51.6688 11.2736C51.7388 11.3036 51.6889 11.4636 51.6989 11.5436C51.6289 11.5136 51.6788 11.3536 51.6688 11.2736ZM51.6989 15.6736C51.6989 15.6736 51.6889 15.5036 51.6989 15.4636C51.7489 15.5136 51.6989 15.6236 51.6989 15.6736ZM51.7489 20.0336C51.7489 20.0336 51.7189 19.8736 51.7489 19.8536C51.7389 19.9436 51.7689 19.9736 51.7489 20.0336ZM51.7489 18.6636C51.7489 18.6636 51.7488 18.7736 51.7688 18.8236C51.7888 18.8236 51.7789 18.7836 51.7889 18.7636C51.8289 18.7636 51.7889 18.8636 51.8089 18.9036C51.7889 18.8936 51.7788 18.8636 51.7688 18.8436C51.7288 18.9036 51.7689 19.0436 51.7489 19.1336C51.7089 19.0136 51.7389 18.7936 51.7489 18.6636ZM51.8688 15.9036C51.8688 15.9036 51.8689 15.7636 51.8489 15.7036C51.8889 15.7336 51.8488 15.8436 51.8688 15.9036ZM51.8988 22.2536C51.9088 22.1936 51.9689 22.1736 51.9689 22.0936C52.0289 22.1236 51.9788 22.2636 51.8988 22.2536ZM55.0389 15.5136C55.0389 15.5136 55.0388 15.3536 55.0188 15.2836C55.0588 15.3236 55.0189 15.4436 55.0389 15.5136ZM55.2289 20.4936C55.2289 20.4936 55.2089 20.5836 55.2289 20.6536C55.1689 20.6236 55.2089 20.5436 55.2289 20.4936ZM55.4588 17.7736C55.4588 17.7736 55.4589 17.9536 55.4789 18.0236C55.4189 18.0036 55.4388 17.8136 55.4588 17.7736ZM55.4389 17.0736C55.4989 17.1036 55.4788 17.2436 55.4888 17.3236C55.4288 17.2936 55.4689 17.1336 55.4389 17.0736ZM52.3388 22.6236C52.3388 22.6236 52.3589 22.5236 52.3089 22.4636C52.3589 22.3736 52.3689 22.2536 52.3789 22.1336C52.3789 22.1136 52.3588 22.1136 52.3588 22.0936C52.3188 22.1036 52.2389 22.0636 52.2489 22.1336C52.1489 22.0736 52.2488 21.9336 52.2988 21.9336C52.3088 21.8736 52.2789 21.8636 52.2789 21.8136C52.2089 21.8936 52.1488 21.9336 52.1688 22.0436C52.0888 22.0436 52.0789 22.0436 51.9789 22.0636C51.9789 21.9536 51.9388 21.9536 51.8588 21.9036C51.8788 21.8536 51.8888 21.8036 51.8888 21.7436C51.8888 21.7136 51.8588 21.7136 51.8588 21.6836C51.8088 21.6736 51.8288 21.7336 51.7688 21.7236C51.8588 20.7536 51.7888 19.7736 51.8388 18.7736C51.6988 18.5136 51.8388 18.3836 51.7988 18.0936C51.7388 18.1236 51.7789 18.2836 51.7489 18.3436C51.7189 17.6236 51.7789 16.8536 51.6989 16.2736C51.7689 15.9836 51.7888 15.5836 51.7688 15.2536C51.7688 15.1836 51.7189 15.2536 51.7189 15.2136C51.7189 14.9836 51.7488 14.9736 51.7388 14.7636C51.8588 14.7936 51.8389 14.9636 51.8489 15.1136C51.8589 14.9536 51.9089 14.6336 51.8489 14.6236C51.8489 14.2636 51.8288 14.0036 51.8288 13.6036C51.7988 13.5636 51.8088 13.4736 51.7388 13.4636C51.7388 13.3236 51.7389 13.1636 51.6989 13.0736C51.6589 13.1036 51.6988 13.2136 51.6788 13.2736C51.6088 13.1636 51.6289 12.8536 51.7289 12.8036C51.7289 12.4436 51.7488 12.0736 51.6788 11.7836C51.8588 11.4936 51.7189 11.1336 51.7489 10.7436C51.7089 10.9936 51.6989 10.6036 51.6989 10.5636C51.6789 10.3536 51.6388 10.1336 51.6088 9.93358C51.5588 9.56358 51.6088 9.26358 51.5888 9.01358C51.5288 8.39358 51.5888 7.77358 51.6788 7.25358C51.6788 7.19358 51.6488 7.17358 51.6488 7.11358C51.6688 7.11358 51.6588 7.13358 51.6688 7.15358C51.7688 6.99358 51.9688 6.79358 52.1388 6.97358C52.2288 6.95358 52.2888 6.87358 52.3688 6.79358C52.6088 6.91358 52.9188 6.85358 53.1188 7.02358C53.2988 6.92358 53.5089 7.02358 53.7189 7.02358C53.9489 7.02358 54.1988 6.91358 54.3288 7.12358C55.0388 7.19358 54.7689 8.34358 54.7189 8.94358C54.8289 9.29358 54.6689 9.66358 54.6989 10.0536C54.6989 10.1136 54.7489 10.1236 54.7489 10.1736C54.6989 10.7336 54.7889 11.2336 54.7889 11.7136C54.8289 11.4136 54.8088 11.2636 54.8288 10.9136C54.8388 10.7636 54.8489 10.9736 54.8489 11.0336C54.8989 12.1336 54.9289 13.5336 54.9489 14.9436C54.9489 15.0936 54.8889 15.2736 54.9689 15.3536C54.9389 15.5736 54.9489 15.7036 54.9689 15.9036C54.9989 15.9036 54.9989 15.7936 54.9689 15.8036C55.0789 15.9636 54.9889 16.3836 55.0389 16.6636C55.1589 16.3436 55.0488 15.5736 55.0888 15.2136C55.1388 15.8536 55.0888 16.4136 55.1788 17.0136C55.1388 17.0136 55.1789 17.1036 55.1289 17.0736C55.1489 17.4036 55.1289 17.6836 55.1289 17.9536C55.1289 18.1436 55.2189 18.3436 55.1289 18.5236C55.0989 19.6936 55.0889 20.6836 54.9489 21.6536C54.8989 21.6036 54.9989 21.5636 54.9489 21.4936C54.9189 21.5536 54.9189 21.6436 54.8789 21.6936C54.9489 21.7836 54.8889 22.2336 54.7189 22.3036C54.7489 22.1536 54.8089 22.0436 54.8089 21.8736C54.7589 21.9036 54.7889 22.0236 54.7189 22.0336C54.6989 21.9436 54.7389 21.7736 54.7489 21.6636C54.7489 21.6336 54.7189 21.6636 54.7189 21.6836C54.7189 21.4336 54.8588 21.1536 54.7688 20.8836C54.7388 20.9936 54.7989 21.1636 54.7189 21.2536C54.6889 21.2236 54.7389 21.1036 54.7189 21.0236C54.6689 21.1236 54.6788 21.1936 54.6688 21.3136C54.7388 21.2236 54.6689 21.3936 54.6889 21.4736C54.6389 21.2736 54.6189 21.0536 54.4789 21.1836C54.4489 21.4636 54.4688 21.5036 54.4588 21.6936C54.4988 21.6636 54.4589 21.6236 54.5289 21.6536V21.5536C54.5289 21.6636 54.6188 21.7236 54.6388 21.8636C54.6188 21.8636 54.6288 21.8136 54.6188 21.7836C54.5588 21.7936 54.5389 21.8536 54.5289 21.9236C54.4789 21.9236 54.5089 21.8336 54.4389 21.8436C54.3889 21.8536 54.4589 21.8836 54.4389 21.9236C54.3789 21.9236 54.4288 21.8336 54.3888 21.8236C54.3888 21.9036 54.3389 22.0036 54.3489 22.1536C54.3289 22.1536 54.3089 22.1336 54.3089 22.0936C54.2589 22.1436 54.3089 22.2536 54.3089 22.3136C54.2189 22.3036 54.2388 22.4036 54.1688 22.4136C54.2388 22.2936 54.1289 22.2536 54.2189 22.2136C54.0989 22.1336 54.1689 21.9336 54.1289 21.7636C54.0989 21.8536 54.1088 21.9836 54.0888 22.0936C54.0688 22.0836 54.0588 22.0536 54.0488 22.0136C54.0288 22.0136 53.9888 22.0936 54.0488 22.0736C54.0088 22.1336 53.9888 22.0136 53.9588 21.9936C53.9588 22.0236 53.9588 22.0436 53.8688 22.0336C53.8488 21.9436 53.9588 21.7736 53.8688 21.6636C53.8888 21.6336 53.8988 21.6036 53.9188 21.5836C53.8988 21.5136 53.8488 21.4836 53.8688 21.3736C53.8988 21.4936 53.9089 21.3236 53.9789 21.3136C53.9189 21.3136 53.9588 21.0636 53.9288 20.9636C53.8988 21.0636 53.9089 21.2836 53.9089 21.3536C53.8889 21.3436 53.8789 21.3136 53.8789 21.2936C53.8489 21.4736 53.8288 21.6836 53.8988 21.8636C53.8388 21.8636 53.8488 21.9536 53.8288 22.0036C53.8288 22.0736 53.9188 22.0636 53.9188 22.1436C53.7988 22.1536 53.7789 22.1136 53.7589 21.9836C53.7389 22.1336 53.7988 22.3636 53.5788 22.4136C53.6988 22.2836 53.7289 22.1036 53.6989 21.8836C53.6489 21.9636 53.7088 22.1636 53.6488 22.2136C53.6488 22.1536 53.6189 22.1536 53.5989 22.1136C53.5389 22.1636 53.5689 22.1336 53.5289 22.2136C53.4889 22.1736 53.5688 22.1136 53.5488 22.0336C53.4988 22.0036 53.5089 22.1636 53.4989 22.0536C53.4689 22.0536 53.4389 22.1236 53.4789 22.1336C53.4589 22.1336 53.3889 22.0536 53.3189 22.0736C53.2989 21.9636 53.3288 22.0136 53.2988 21.8936C53.1988 21.9336 53.3289 22.0736 53.2789 22.1236C53.3189 22.1036 53.3888 22.2136 53.3988 22.1036C53.4788 22.1536 53.3989 22.2136 53.3489 22.2636C53.2989 22.2436 53.3589 22.2036 53.3489 22.1636C53.2089 22.1136 53.0388 22.3936 52.9588 22.2436C52.9088 22.2336 52.9289 22.2836 52.9089 22.3036C52.8389 22.2036 52.8888 22.0936 52.8388 21.9736C52.8088 22.0136 52.8088 22.1836 52.8388 22.2236C52.8188 22.2836 52.7888 22.2036 52.7988 22.1636C52.6788 22.2036 52.7888 22.4736 52.7688 22.5336C52.7188 22.5536 52.6889 22.3836 52.6289 22.3536C52.6489 22.3336 52.6789 22.3136 52.6589 22.2536C52.6989 22.3236 52.6789 22.2336 52.7289 22.2736C52.6489 22.1936 52.6588 22.1236 52.5888 22.0436C52.5088 22.1336 52.5389 22.2536 52.4489 22.3736C52.4889 22.4736 52.4889 22.5236 52.4489 22.6236C52.3989 22.6236 52.3589 22.5036 52.3089 22.5636L52.3388 22.6236ZM51.8688 15.6836C51.8188 15.6536 51.8888 15.4836 51.8288 15.4536C51.8188 16.1736 51.7088 17.0336 51.8288 17.6636C51.8388 17.5836 51.8089 17.4536 51.8489 17.4136C51.8489 17.4336 51.8689 17.4536 51.8789 17.4736C51.8489 17.2236 51.9089 16.6236 51.8489 16.2836C51.8489 16.3036 51.8488 16.3436 51.8688 16.3436C51.8688 16.1636 51.9388 15.7236 51.8688 15.6936V15.6836ZM53.0389 22.2736H53.1488C53.1788 21.9636 53.2188 21.5636 53.1488 21.2336C53.1388 21.5336 53.1289 21.7536 53.0989 21.9536C53.0689 21.9336 53.0788 21.9836 53.0488 21.9136C53.0188 22.0736 53.0888 22.1136 53.0488 22.2636L53.0389 22.2736ZM53.9989 21.7836C53.9989 21.6636 54.0788 21.4536 54.0188 21.3136C54.0188 21.3836 54.0388 21.5736 53.9888 21.4736C53.9488 21.5536 53.9889 21.7036 54.0089 21.7836H53.9989ZM54.6488 9.82358C54.6388 9.88358 54.6188 9.84358 54.5788 9.84358C54.5588 9.96358 54.5289 10.0836 54.5389 10.2336C54.6389 10.1736 54.7388 9.97358 54.6488 9.82358ZM54.6188 11.1136C54.6988 11.1136 54.6988 10.8436 54.6188 10.8436C54.5888 10.9436 54.6188 10.9936 54.6188 11.1136ZM54.7088 15.1236C54.7088 15.1236 54.6989 15.1036 54.7289 15.1036C54.6689 15.0336 54.7289 14.9336 54.6889 14.8536C54.6689 14.8936 54.6888 14.8236 54.6488 14.8136C54.6688 14.7836 54.6488 14.7736 54.6488 14.7136C54.6188 14.5536 54.6288 15.0836 54.6488 15.1236C54.6488 15.1236 54.6288 15.1436 54.6488 15.1436C54.6488 15.0836 54.6989 15.1936 54.6989 15.1236H54.7088ZM54.7289 16.2036C54.7489 16.4136 54.7589 15.8836 54.7489 16.1436C54.7589 15.8636 54.7489 15.4036 54.6989 15.1636C54.7289 15.5236 54.6988 15.8436 54.7388 16.2036H54.7289ZM54.8489 15.7936C54.8789 15.7036 54.8289 15.6836 54.8789 15.5936C54.7489 14.6936 54.8788 14.0236 54.8588 13.2136C54.6688 13.9736 54.7988 14.9436 54.8388 15.7936H54.8489ZM54.8688 14.6236C54.8788 14.6836 54.8488 14.7936 54.8888 14.8236C54.8788 14.7636 54.9088 14.6536 54.8688 14.6236ZM55.1188 17.1236C55.0488 17.1536 55.0588 17.2636 55.0788 17.3436C55.0888 17.2736 55.1288 17.2236 55.1188 17.1236ZM51.7889 14.3236C51.7289 14.2036 51.7588 14.0836 51.7688 13.9736C51.7888 13.8936 51.7889 14.1436 51.8089 14.0136C51.8289 14.0736 51.7989 14.2336 51.7889 14.3236ZM51.8789 21.9636C51.8789 21.9636 51.8388 21.9936 51.7688 22.0236C51.7888 21.9836 51.7889 21.9336 51.8089 21.8836C51.8389 21.9136 51.8488 21.9536 51.8988 21.9636C51.8988 21.9836 51.8789 21.9736 51.8789 21.9636Z" fill="#124936"/>
        <path d="M23.209 43.0136C24.4737 43.0136 25.499 41.9883 25.499 40.7236C25.499 39.4589 24.4737 38.4336 23.209 38.4336C21.9442 38.4336 20.9189 39.4589 20.9189 40.7236C20.9189 41.9883 21.9442 43.0136 23.209 43.0136Z" fill="#124936"/>
        <path d="M23.729 44.8636C23.909 44.8336 24.179 44.8136 24.299 44.7336C24.069 44.7736 23.899 44.8036 23.729 44.8636ZM20.029 38.0336C20.049 38.1036 19.859 38.2836 19.779 38.4136C19.749 38.3336 19.939 38.1536 20.029 38.0336ZM21.129 44.3036C21.049 44.3036 20.879 44.1736 20.829 44.1136C20.919 44.1136 21.039 44.2536 21.129 44.3036ZM27.019 42.1936C27.019 42.1936 26.939 42.4436 26.909 42.4536C26.979 42.3236 26.969 42.2736 27.019 42.1936ZM25.709 43.9536C25.709 43.9536 25.849 43.8436 25.889 43.7836C25.869 43.7736 25.839 43.8136 25.809 43.8336C25.789 43.7936 25.919 43.7236 25.959 43.6736C25.959 43.7036 25.939 43.7336 25.909 43.7636C26.009 43.7336 26.149 43.5436 26.259 43.4436C26.159 43.6236 25.879 43.8536 25.709 43.9636V43.9536ZM21.539 44.3236C21.479 44.3436 21.339 44.2436 21.259 44.2036C21.309 44.1936 21.449 44.3036 21.539 44.3236ZM26.619 38.7936C26.659 38.8836 26.6189 38.9336 26.669 39.0436C26.5989 39.0236 26.539 38.8236 26.619 38.7936ZM22.769 41.3836C22.769 41.3836 22.729 41.3536 22.699 41.3536C22.739 41.3336 22.749 41.3736 22.769 41.3836ZM23.789 40.8336C23.789 40.8336 23.809 40.8136 23.789 40.7936C23.839 40.8036 23.809 40.8236 23.789 40.8336ZM23.319 41.0736C23.319 41.0736 23.339 41.0736 23.349 41.0436C23.369 41.1036 23.339 41.0936 23.319 41.0736ZM23.219 41.1036C23.219 41.0436 23.239 41.0636 23.249 41.0436C23.249 41.1136 23.229 41.0636 23.219 41.1036ZM25.949 38.5736C25.999 38.6236 26.019 38.7036 26.109 38.7236C26.139 38.8436 26.209 38.9936 26.289 39.1536C26.299 39.1736 26.319 39.1736 26.329 39.1936C26.359 39.1636 26.459 39.1836 26.399 39.0936C26.529 39.1336 26.529 39.3536 26.469 39.3636C26.489 39.4436 26.519 39.4536 26.539 39.5136C26.569 39.3836 26.609 39.3036 26.509 39.1636C26.579 39.1336 26.5989 39.1336 26.669 39.0536C26.749 39.2036 26.779 39.1836 26.879 39.2236C26.879 39.2936 26.899 39.3736 26.929 39.4636C26.949 39.5036 26.969 39.5036 26.989 39.5436C27.049 39.5436 26.989 39.4536 27.049 39.4536C27.459 40.9336 27.059 42.6936 25.799 43.7136C25.569 44.0736 25.3289 44.1036 24.919 44.3336C24.999 44.3736 25.199 44.2136 25.299 44.1836C24.299 44.8536 22.969 44.8736 22.059 44.6636C21.629 44.4736 21.049 44.1736 20.639 43.8436C20.549 43.7736 20.609 43.8836 20.559 43.8436C20.279 43.5836 20.299 43.5636 20.059 43.3136C20.179 43.2736 20.339 43.4836 20.519 43.6436C20.329 43.4736 20.049 43.0536 19.999 43.0736C19.669 42.6236 19.459 42.2336 19.299 41.6336C19.249 41.5736 19.2289 41.4436 19.1689 41.4336C19.1289 41.2036 19.109 40.9636 19.069 40.8036C19.029 40.8536 19.069 41.0236 19.069 41.1236C18.969 40.9436 18.999 40.4236 19.109 40.3636C19.149 39.7836 19.359 39.2036 19.519 38.7636C19.889 38.4436 20.129 37.8836 20.639 37.5136C20.299 37.7436 20.789 37.3236 20.839 37.3036C21.109 37.0836 21.409 36.8836 21.709 36.7436C22.279 36.4836 22.799 36.4836 23.209 36.4636C24.259 36.3936 25.289 36.9236 25.859 37.5436C25.929 37.6036 25.979 37.6036 26.049 37.6736C26.039 37.6836 26.009 37.6536 25.989 37.6436C26.129 37.8936 26.159 38.2636 25.849 38.1736C25.799 38.2536 25.849 38.3836 25.849 38.5036C25.559 38.5436 25.369 38.7936 25.099 38.7936C25.049 38.9936 24.819 39.0636 24.679 39.2136C24.519 39.3836 24.379 39.5936 24.199 39.6036C23.689 40.0636 23.539 39.6436 23.219 39.5936C23.079 39.6936 22.899 39.5536 22.739 39.6636C22.719 39.6736 22.739 39.7136 22.719 39.7336C22.479 39.8036 22.369 40.0336 22.279 40.1936C22.369 40.1036 22.399 40.0536 22.499 39.9636C22.549 39.9336 22.499 39.9936 22.479 40.0036C22.199 40.3336 22.169 40.9636 22.559 41.3036C22.599 41.3336 22.609 41.4236 22.679 41.3836C22.719 41.4536 22.769 41.4636 22.839 41.4736C22.849 41.4436 22.819 41.4336 22.809 41.4636C22.899 41.3836 22.989 41.5236 23.099 41.4736C23.019 41.3536 22.789 41.3736 22.719 41.2636C22.889 41.3336 23.039 41.4136 23.199 41.3336C23.199 41.3736 23.219 41.3236 23.219 41.3836C23.309 41.3636 23.389 41.3536 23.449 41.3336C23.499 41.3036 23.499 41.2136 23.589 41.2536C23.879 41.0736 23.989 40.7736 24.019 40.4336C24.079 40.4336 23.969 40.4736 24.029 40.4836C24.049 40.4536 24.049 40.4236 24.079 40.3936C24.009 40.3836 23.989 40.2236 24.119 40.1036C24.129 40.1736 24.099 40.2436 24.119 40.3036C24.159 40.2736 24.1189 40.2436 24.169 40.2136C24.209 40.2436 24.199 40.3236 24.199 40.3736C24.209 40.3736 24.229 40.3736 24.229 40.3536C24.259 40.4636 24.139 40.5936 24.229 40.6936C24.259 40.6436 24.199 40.5836 24.269 40.5336C24.299 40.5336 24.269 40.6036 24.269 40.6336C24.319 40.5836 24.309 40.5536 24.309 40.4936C24.239 40.5436 24.309 40.4536 24.279 40.4236C24.349 40.4936 24.379 40.6136 24.509 40.5336C24.509 40.3836 24.489 40.3636 24.469 40.2636C24.439 40.2936 24.469 40.3036 24.409 40.3036V40.3536C24.409 40.2936 24.299 40.3036 24.279 40.2436C24.299 40.2436 24.299 40.2636 24.309 40.2736C24.359 40.2536 24.379 40.2136 24.369 40.1736C24.419 40.1536 24.409 40.2136 24.469 40.1736C24.519 40.1436 24.449 40.1536 24.449 40.1336C24.499 40.1036 24.479 40.1736 24.519 40.1636C24.519 40.1136 24.519 40.0536 24.469 39.9736C24.489 39.9736 24.509 39.9736 24.519 39.9836C24.549 39.9336 24.469 39.9036 24.459 39.8736C24.539 39.8336 24.489 39.7836 24.549 39.7436C24.529 39.8436 24.629 39.8136 24.569 39.8836C24.699 39.8736 24.699 40.0236 24.769 40.1136C24.779 40.0436 24.729 39.9636 24.719 39.8936C24.739 39.8936 24.759 39.9036 24.769 39.9236C24.779 39.9136 24.799 39.8436 24.749 39.8836C24.769 39.8236 24.819 39.8836 24.849 39.8936C24.849 39.8736 24.8489 39.8536 24.919 39.8336C24.969 39.8836 24.909 40.0436 25.019 40.0936C25.019 40.1136 25.009 40.1436 24.989 40.1636C25.019 40.2036 25.079 40.2236 25.079 40.3136C25.029 40.2336 25.049 40.3536 24.979 40.3736C25.039 40.3736 25.029 40.5536 25.059 40.6236C25.089 40.5536 25.059 40.3836 25.049 40.3336C25.069 40.3336 25.079 40.3536 25.089 40.3736C25.099 40.2336 25.079 40.0636 24.959 39.9636C25.019 39.9336 24.979 39.8836 24.979 39.8436C24.949 39.7936 24.879 39.8436 24.859 39.7836C24.959 39.7236 24.989 39.7436 25.049 39.8236C25.029 39.7036 24.869 39.5836 25.029 39.4236C24.989 39.5936 25.029 39.7236 25.139 39.8836C25.149 39.8036 25.029 39.6836 25.059 39.6136C25.079 39.6536 25.119 39.6336 25.149 39.6636C25.179 39.6036 25.169 39.6336 25.169 39.5536C25.229 39.5536 25.179 39.6436 25.229 39.7036C25.289 39.7036 25.209 39.5836 25.269 39.6636C25.299 39.6636 25.289 39.5736 25.259 39.5936C25.279 39.5936 25.3689 39.6136 25.419 39.5736C25.479 39.6636 25.429 39.6236 25.509 39.7236C25.579 39.6436 25.399 39.5736 25.429 39.5036C25.399 39.5436 25.289 39.4836 25.329 39.5736C25.239 39.5736 25.279 39.4836 25.299 39.4136C25.349 39.4036 25.319 39.4736 25.349 39.4936C25.499 39.4736 25.489 39.1236 25.639 39.2336C25.689 39.2236 25.639 39.1736 25.649 39.1536C25.769 39.2136 25.799 39.3536 25.889 39.4636C25.889 39.4036 25.809 39.2236 25.749 39.1936C25.729 39.1236 25.799 39.1936 25.819 39.2336C25.899 39.1336 25.639 38.9036 25.609 38.8436C25.629 38.7936 25.779 38.9436 25.849 38.9336C25.849 38.9736 25.829 38.9936 25.879 39.0536C25.799 38.9936 25.879 39.0936 25.809 39.0736C25.929 39.1136 25.969 39.1936 26.069 39.2636C26.089 39.1236 25.979 39.0036 25.979 38.8136C25.869 38.7236 25.829 38.6736 25.779 38.5436C25.819 38.5036 25.949 38.6236 25.939 38.5236L25.949 38.5736ZM21.239 44.1636C21.169 44.1836 20.979 43.9836 20.909 43.9936C21.819 44.7036 23.299 44.9936 24.249 44.5836C24.129 44.6036 23.929 44.6836 23.849 44.6536C23.879 44.6436 23.919 44.6236 23.939 44.6036C23.549 44.7336 22.609 44.6636 22.089 44.5436C22.129 44.5436 22.169 44.5736 22.179 44.5436C21.899 44.4736 21.299 44.1236 21.239 44.1536V44.1636ZM25.619 39.3336L25.529 39.3836C25.669 39.6836 25.769 40.0836 25.869 40.4236C25.849 40.1036 25.769 39.8736 25.719 39.6636C25.749 39.6636 25.719 39.6236 25.789 39.6836C25.739 39.5136 25.669 39.4936 25.619 39.3336ZM24.929 40.1336C24.949 40.2136 24.929 40.3736 24.989 40.4636C24.989 40.4136 24.939 40.2836 25.009 40.3436C25.029 40.2736 24.969 40.1736 24.929 40.1336ZM22.869 39.6036C22.869 39.6036 22.849 39.5836 22.839 39.5436C22.779 39.5436 22.709 39.5436 22.649 39.5836C22.719 39.6536 22.839 39.7236 22.869 39.6036ZM22.339 39.8936C22.389 39.9436 22.489 39.8736 22.439 39.8036C22.379 39.8136 22.389 39.8536 22.339 39.8936ZM22.459 41.5536C22.459 41.5536 22.439 41.5536 22.459 41.5336C22.389 41.5636 22.419 41.4736 22.359 41.4736C22.359 41.5036 22.359 41.4636 22.319 41.4736C22.319 41.4536 22.309 41.4536 22.289 41.4336C22.219 41.3936 22.3889 41.5836 22.4189 41.5736C22.3989 41.5636 22.469 41.5536 22.449 41.5336L22.459 41.5536ZM22.869 41.7736C22.959 41.7836 22.749 41.7036 22.849 41.7436C22.739 41.6936 22.569 41.6136 22.459 41.5736C22.599 41.6636 22.709 41.7536 22.869 41.7736ZM22.759 41.5936C22.759 41.5936 22.719 41.5936 22.709 41.5236C22.339 41.4236 22.269 41.0736 22.249 40.7836C22.059 41.1136 22.449 41.5036 22.759 41.5836V41.5936ZM22.429 41.2836C22.429 41.2836 22.449 41.3536 22.489 41.3336C22.459 41.3336 22.469 41.2636 22.429 41.2836ZM23.239 41.4336C23.249 41.5036 23.289 41.4936 23.309 41.4636C23.289 41.4636 23.269 41.4236 23.239 41.4336ZM19.6689 42.6936C19.5289 42.5536 19.469 42.3536 19.409 42.1836C19.379 42.0536 19.529 42.4336 19.459 42.2336C19.519 42.3036 19.589 42.5636 19.659 42.6936H19.6689ZM26.849 39.1836C26.849 39.1036 26.869 39.1236 26.909 39.0536C26.909 39.1136 26.949 39.1936 26.959 39.2736C26.919 39.2336 26.879 39.1936 26.829 39.1936C26.819 39.1636 26.829 39.1736 26.849 39.1936V39.1836Z" fill="#124936"/>
        <path d="M35.8388 39.0236C37.1036 39.0236 38.1288 37.9983 38.1288 36.7336C38.1288 35.4689 37.1036 34.4436 35.8388 34.4436C34.5741 34.4436 33.5488 35.4689 33.5488 36.7336C33.5488 37.9983 34.5741 39.0236 35.8388 39.0236Z" fill="#124936"/>
        <path d="M37.5489 40.5336C37.7089 40.4536 37.9689 40.3536 38.0489 40.2436C37.8389 40.3436 37.6889 40.4336 37.5489 40.5336ZM32.009 35.0936C32.049 35.1636 31.9189 35.3836 31.8889 35.5336C31.8389 35.4736 31.959 35.2336 32.009 35.0936ZM34.909 40.7636C34.839 40.7936 34.639 40.7136 34.569 40.6736C34.659 40.6536 34.809 40.7436 34.909 40.7636ZM39.9189 37.0236C39.9189 37.0236 39.9189 37.2836 39.8889 37.3036C39.9189 37.1536 39.8889 37.1136 39.9189 37.0236ZM39.189 39.0836C39.189 39.0836 39.2889 38.9336 39.3089 38.8636C39.2889 38.8636 39.269 38.9036 39.249 38.9336C39.219 38.9036 39.319 38.8036 39.349 38.7336C39.349 38.7636 39.3489 38.7936 39.3289 38.8336C39.4189 38.7736 39.499 38.5536 39.569 38.4236C39.529 38.6236 39.329 38.9236 39.189 39.0836ZM35.319 40.6536C35.319 40.6536 35.109 40.6336 35.009 40.6136C35.059 40.5836 35.219 40.6536 35.319 40.6536ZM38.5489 33.8736C38.6089 33.9536 38.5889 34.0036 38.6689 34.0936C38.5989 34.0936 38.4789 33.9236 38.5489 33.8736ZM35.629 37.4836C35.629 37.4836 35.5789 37.4736 35.5589 37.4836C35.5889 37.4536 35.609 37.4836 35.629 37.4836ZM36.449 36.6636C36.449 36.6636 36.469 36.6436 36.449 36.6236C36.509 36.6236 36.469 36.6436 36.449 36.6636ZM36.069 37.0336C36.069 37.0336 36.0889 37.0236 36.0889 36.9936C36.1289 37.0436 36.089 37.0436 36.069 37.0336ZM35.9889 37.0936C35.9689 37.0336 35.999 37.0536 35.999 37.0336C36.019 37.0936 35.9789 37.0536 35.9889 37.0936ZM37.8589 33.8736C37.9189 33.9036 37.9589 33.9736 38.0589 33.9736C38.1289 34.0836 38.239 34.2036 38.349 34.3336C38.369 34.3436 38.3789 34.3336 38.3989 34.3636C38.4189 34.3236 38.519 34.3136 38.439 34.2536C38.569 34.2536 38.6389 34.4636 38.5889 34.4936C38.6289 34.5636 38.669 34.5636 38.699 34.6136C38.689 34.4736 38.699 34.3936 38.569 34.2836C38.629 34.2336 38.649 34.2336 38.689 34.1336C38.809 34.2536 38.829 34.2236 38.939 34.2336C38.969 34.3036 39.0089 34.3736 39.0589 34.4536C39.0889 34.4836 39.1089 34.4736 39.1389 34.5036C39.1989 34.4936 39.1189 34.4136 39.1789 34.4036C40.0089 35.7036 40.1389 37.4936 39.2389 38.8436C39.1289 39.2536 38.8989 39.3536 38.5789 39.6936C38.6689 39.7036 38.8089 39.4936 38.8989 39.4436C38.1389 40.3736 36.869 40.7836 35.949 40.8536C35.479 40.7936 34.839 40.6836 34.349 40.4936C34.249 40.4536 34.3289 40.5336 34.2689 40.5136C33.9289 40.3536 33.9389 40.3236 33.6389 40.1536C33.7389 40.0736 33.9589 40.2436 34.1789 40.3336C33.9489 40.2236 33.5589 39.9136 33.5189 39.9436C33.0789 39.6136 32.7489 39.3036 32.4289 38.7736C32.3689 38.7336 32.299 38.6136 32.249 38.6236C32.139 38.4136 32.059 38.1836 31.969 38.0536C31.949 38.1036 32.039 38.2636 32.069 38.3636C31.919 38.2236 31.7889 37.7136 31.8889 37.6236C31.7589 37.0536 31.7889 36.4436 31.8089 35.9836C32.0689 35.5636 32.129 34.9636 32.509 34.4636C32.249 34.7836 32.5989 34.2436 32.6389 34.2036C32.8389 33.9136 33.0689 33.6336 33.3089 33.4136C33.7789 32.9936 34.279 32.8436 34.659 32.7036C35.639 32.3336 36.779 32.5336 37.509 32.9536C37.589 32.9836 37.649 32.9836 37.729 33.0136C37.729 33.0236 37.689 33.0136 37.659 33.0036C37.859 33.2036 38.0089 33.5436 37.6789 33.5536C37.6589 33.6436 37.7289 33.7536 37.7689 33.8736C37.4989 33.9936 37.3989 34.2936 37.1389 34.3736C37.1389 34.5836 36.9489 34.7136 36.8589 34.8936C36.7589 35.1036 36.6889 35.3436 36.5189 35.4136C36.1689 36.0036 35.8989 35.6436 35.5789 35.6836C35.4689 35.8236 35.2589 35.7436 35.1389 35.8936C35.1189 35.9136 35.1389 35.9436 35.1389 35.9636C34.9289 36.0936 34.8989 36.3536 34.8589 36.5336C34.9289 36.4236 34.929 36.3636 35.009 36.2436C35.049 36.2036 35.009 36.2736 35.009 36.2936C34.839 36.6836 34.999 37.3036 35.469 37.5136C35.519 37.5336 35.5589 37.6136 35.6089 37.5536C35.6689 37.6036 35.719 37.6036 35.789 37.5936C35.789 37.5636 35.759 37.5636 35.759 37.5936C35.819 37.4936 35.949 37.5936 36.039 37.5236C35.929 37.4336 35.7089 37.5236 35.6189 37.4336C35.7989 37.4536 35.969 37.4836 36.099 37.3636C36.109 37.4036 36.119 37.3436 36.129 37.4036C36.209 37.3536 36.2789 37.3336 36.3389 37.2836C36.3789 37.2436 36.339 37.1536 36.449 37.1736C36.679 36.9236 36.6889 36.6036 36.6189 36.2636C36.6789 36.2436 36.5889 36.3236 36.6489 36.3136C36.6589 36.2836 36.6489 36.2536 36.6689 36.2136C36.5989 36.2136 36.5389 36.0836 36.6189 35.9236C36.6489 35.9836 36.6389 36.0636 36.6789 36.1136C36.7089 36.0736 36.659 36.0536 36.699 36.0136C36.749 36.0236 36.7589 36.1136 36.7689 36.1536C36.7789 36.1536 36.799 36.1336 36.789 36.1236C36.859 36.2236 36.7789 36.3736 36.8889 36.4536C36.8989 36.4036 36.8289 36.3536 36.8889 36.2836C36.9189 36.2836 36.8989 36.3536 36.9289 36.3836C36.9589 36.3236 36.9389 36.2936 36.9289 36.2436C36.8789 36.3136 36.919 36.2136 36.879 36.1936C36.969 36.2436 37.029 36.3436 37.129 36.2336C37.089 36.0836 37.059 36.0736 37.009 35.9836C36.989 36.0136 37.0289 36.0136 36.9589 36.0436L36.9889 36.0836C36.9689 36.0336 36.859 36.0636 36.819 36.0136C36.839 36.0036 36.839 36.0236 36.849 36.0336C36.889 35.9936 36.899 35.9536 36.879 35.9236C36.919 35.8936 36.929 35.9436 36.969 35.9036C37.009 35.8636 36.939 35.9036 36.939 35.8736C36.979 35.8336 36.979 35.9036 37.009 35.8736C36.989 35.8336 36.979 35.7636 36.909 35.7036C36.929 35.6936 36.9489 35.6836 36.9589 35.7036C36.9789 35.6436 36.8889 35.6436 36.8689 35.6136C36.9289 35.5536 36.869 35.5236 36.909 35.4636C36.919 35.5736 37.009 35.5036 36.969 35.5836C37.089 35.5336 37.129 35.6736 37.229 35.7436C37.229 35.6736 37.1489 35.6136 37.1089 35.5536C37.1289 35.5536 37.1489 35.5536 37.1689 35.5736C37.1789 35.5536 37.1689 35.4936 37.1389 35.5436C37.1389 35.4836 37.2089 35.5336 37.2389 35.5236C37.2389 35.5036 37.219 35.4936 37.289 35.4436C37.349 35.4836 37.339 35.6536 37.469 35.6636C37.469 35.6936 37.4689 35.7136 37.4589 35.7436C37.4989 35.7736 37.5589 35.7736 37.5889 35.8536C37.5189 35.7936 37.569 35.9036 37.509 35.9436C37.569 35.9136 37.609 36.1036 37.659 36.1636C37.669 36.0836 37.5889 35.9336 37.5589 35.8836C37.5789 35.8836 37.5889 35.8936 37.6089 35.9036C37.5789 35.7636 37.5089 35.6136 37.3689 35.5436C37.4189 35.5036 37.369 35.4636 37.349 35.4236C37.309 35.3836 37.259 35.4536 37.219 35.4036C37.299 35.3136 37.3289 35.3236 37.4189 35.3836C37.3589 35.2736 37.1789 35.2036 37.2789 35.0036C37.2889 35.1736 37.3789 35.2836 37.5189 35.4036C37.5189 35.3236 37.3589 35.2436 37.3689 35.1636C37.3989 35.2036 37.429 35.1636 37.469 35.1836C37.479 35.1136 37.4689 35.1536 37.4589 35.0736C37.5189 35.0736 37.4989 35.1636 37.5589 35.1936C37.6189 35.1836 37.5089 35.0836 37.5889 35.1436C37.6189 35.1336 37.5889 35.0536 37.5489 35.0736C37.5689 35.0636 37.659 35.0636 37.699 35.0036C37.779 35.0736 37.7289 35.0536 37.8289 35.1236C37.8689 35.0236 37.679 35.0136 37.689 34.9336C37.669 34.9736 37.5489 34.9536 37.6189 35.0336C37.5289 35.0536 37.5489 34.9636 37.5489 34.8936C37.5989 34.8636 37.5889 34.9436 37.6189 34.9536C37.7589 34.8936 37.649 34.5636 37.819 34.6136C37.859 34.5936 37.8089 34.5536 37.8089 34.5336C37.9389 34.5536 38.009 34.6836 38.129 34.7536C38.129 34.6936 37.9789 34.5436 37.9189 34.5436C37.8789 34.4836 37.969 34.5236 37.999 34.5636C38.049 34.4436 37.7289 34.3036 37.6789 34.2536C37.6789 34.2036 37.869 34.2936 37.939 34.2736C37.939 34.3136 37.939 34.3436 38.009 34.3836C37.919 34.3536 38.009 34.4236 37.949 34.4236C38.079 34.4236 38.129 34.4936 38.259 34.5236C38.239 34.3836 38.099 34.3036 38.039 34.1236C37.909 34.0636 37.8489 34.0436 37.7689 33.9236C37.7989 33.8736 37.949 33.9436 37.909 33.8536L37.8589 33.8736ZM34.999 40.5936C34.939 40.6336 34.699 40.5036 34.629 40.5336C35.709 40.9536 37.2089 40.7936 37.9889 40.1136C37.8789 40.1736 37.719 40.3036 37.629 40.2936C37.659 40.2736 37.679 40.2436 37.699 40.2236C37.369 40.4636 36.449 40.6736 35.909 40.7136C35.949 40.7136 35.999 40.7136 35.999 40.6936C35.709 40.7136 35.0389 40.5536 34.9889 40.6036L34.999 40.5936ZM37.759 34.6936L37.689 34.7736C37.919 35.0136 38.129 35.3736 38.319 35.6636C38.199 35.3636 38.0589 35.1736 37.9589 34.9736C37.9889 34.9736 37.9589 34.9336 38.0289 34.9736C37.9289 34.8236 37.859 34.8236 37.759 34.6936ZM37.3389 35.6636C37.3889 35.7336 37.399 35.8936 37.499 35.9636C37.489 35.9136 37.399 35.8136 37.479 35.8436C37.479 35.7736 37.3989 35.6936 37.3389 35.6636ZM35.2089 35.7636C35.2089 35.7636 35.189 35.7436 35.159 35.7136C35.099 35.7336 35.0389 35.7436 34.9889 35.8136C35.0789 35.8636 35.2089 35.8936 35.2089 35.7736V35.7636ZM34.789 36.1936C34.859 36.2236 34.9289 36.1236 34.8589 36.0836C34.8089 36.1136 34.819 36.1436 34.789 36.1936ZM35.3889 37.7436C35.3889 37.7436 35.3689 37.7436 35.3889 37.7236C35.3289 37.7736 35.3289 37.6836 35.2689 37.7036C35.2689 37.7336 35.2689 37.6936 35.2389 37.7236C35.2389 37.6936 35.229 37.7136 35.199 37.6936C35.119 37.6736 35.3389 37.8136 35.3689 37.7936C35.3389 37.7936 35.409 37.7536 35.379 37.7436H35.3889ZM35.849 37.8336C35.939 37.8236 35.7089 37.7936 35.8289 37.8136C35.7089 37.8036 35.5189 37.7736 35.3989 37.7636C35.5589 37.8036 35.689 37.8636 35.849 37.8336ZM35.689 37.6936C35.689 37.6936 35.649 37.6936 35.629 37.6436C35.249 37.6636 35.079 37.3336 34.969 37.0736C34.889 37.4436 35.369 37.7036 35.689 37.6936ZM35.289 37.4936C35.289 37.4936 35.3289 37.5536 35.3589 37.5236C35.3289 37.5236 35.319 37.4636 35.289 37.4936ZM36.1089 37.4036C36.1389 37.4636 36.1689 37.4436 36.1789 37.4036C36.1589 37.4036 36.1289 37.3736 36.1089 37.4036ZM33.069 39.6536C32.889 39.5636 32.7789 39.3936 32.6789 39.2436C32.6089 39.1236 32.869 39.4536 32.749 39.2736C32.819 39.3236 32.9689 39.5536 33.0789 39.6536H33.069ZM38.8989 34.1836C38.8889 34.1036 38.8989 34.1236 38.9189 34.0436C38.9389 34.1036 38.9989 34.1636 39.0289 34.2336C38.9789 34.2136 38.929 34.1736 38.879 34.1936C38.859 34.1636 38.8789 34.1736 38.8889 34.1836H38.8989Z" fill="#124936"/>
        <path d="M29.1291 20.7136C29.0391 20.7336 28.9091 20.7136 28.8491 20.7736C28.9691 20.7836 29.0491 20.7736 29.1291 20.7136ZM33.859 19.5036C33.859 19.5836 33.729 19.5836 33.669 19.6236C33.669 19.5436 33.799 19.5436 33.859 19.5036ZM30.4491 20.5336C30.4691 20.4836 30.579 20.4936 30.619 20.4936C30.589 20.5536 30.4991 20.5236 30.4491 20.5336ZM26.9491 21.0236C26.9491 21.0236 27.0791 20.9836 27.0891 21.0236C27.0191 21.0236 26.9991 21.0536 26.9491 21.0236ZM28.049 20.9436C28.049 20.9436 27.959 20.9636 27.929 20.9736C27.929 20.9936 27.9591 20.9836 27.9791 20.9836C27.9791 21.0236 27.899 21.0036 27.869 21.0136C27.879 20.9936 27.8991 20.9836 27.9091 20.9736C27.8591 20.9336 27.749 20.9836 27.669 20.9736C27.769 20.9236 27.939 20.9336 28.049 20.9436ZM30.2891 20.7536C30.2891 20.7536 30.3991 20.7236 30.4391 20.7036C30.4291 20.7536 30.3291 20.7336 30.2891 20.7536ZM25.179 21.1736C25.179 21.1736 25.2291 21.2536 25.2891 21.2536C25.2591 21.3136 25.159 21.2536 25.179 21.1736ZM31.3191 24.1136C31.3491 24.0636 31.4691 24.0736 31.5291 24.0436C31.4991 24.0936 31.3791 24.0836 31.3191 24.1136ZM26.639 24.8736C26.639 24.8736 26.549 24.8536 26.489 24.8736C26.519 24.8136 26.589 24.8536 26.639 24.8736ZM29.2591 24.9336C29.2191 24.9836 29.089 24.9636 29.019 24.9836C29.029 24.9136 29.2091 24.9136 29.2591 24.9336ZM29.929 24.8236C29.909 24.8936 29.7791 24.8836 29.6991 24.9136C29.7191 24.8436 29.879 24.8736 29.929 24.8236ZM24.859 21.6436C24.859 21.6436 24.9291 21.6736 24.9691 21.6136C25.0291 21.6736 25.1191 21.6936 25.2191 21.7136C25.2291 21.7136 25.2391 21.6936 25.2491 21.6936C25.2491 21.6536 25.2791 21.5636 25.2291 21.5736C25.2791 21.4736 25.3891 21.5736 25.3791 21.6436C25.4291 21.6636 25.4391 21.6236 25.4791 21.6236C25.4191 21.5436 25.389 21.4736 25.299 21.5036C25.299 21.4136 25.309 21.4036 25.299 21.2936C25.379 21.2936 25.379 21.2536 25.429 21.1636C25.469 21.1836 25.499 21.2036 25.549 21.2036C25.569 21.2036 25.5791 21.1736 25.5991 21.1636C25.6091 21.1036 25.5591 21.1236 25.5691 21.0636C26.3191 21.1936 27.1291 21.0936 27.9391 21.0736C28.1291 20.9036 28.249 21.0336 28.489 20.9836C28.449 20.9136 28.3291 20.9836 28.2791 20.9436C28.8591 20.8436 29.4891 20.8236 29.9391 20.6436C30.1791 20.6836 30.509 20.6436 30.769 20.5536C30.819 20.5336 30.7591 20.5036 30.7891 20.4936C30.9791 20.4636 30.989 20.4836 31.149 20.4336C31.149 20.5636 31.019 20.5836 30.899 20.6136C31.029 20.6036 31.2991 20.5836 31.2891 20.5236C31.5691 20.4636 31.7791 20.3636 32.0891 20.2936C32.1091 20.2536 32.179 20.2436 32.169 20.1736C32.279 20.1436 32.3991 20.1136 32.4691 20.0536C32.4391 20.0136 32.3591 20.0736 32.3091 20.0736C32.3791 19.9736 32.6191 19.9236 32.6891 20.0136C32.9691 19.9236 33.259 19.8436 33.459 19.6936C33.749 19.8136 33.969 19.5436 34.269 19.4636C34.059 19.4936 34.3591 19.3736 34.3791 19.3536C34.5291 19.2636 34.6791 19.1736 34.8091 19.0736C35.0591 18.8936 35.2991 18.8536 35.4791 18.7436C35.9091 18.4936 36.3791 18.2936 36.7891 18.1836C36.8291 18.1636 36.829 18.1236 36.869 18.0936C36.869 18.1136 36.8591 18.1136 36.8491 18.1236C37.0191 18.1536 37.2691 18.2736 37.2291 18.5136C37.2891 18.5936 37.3791 18.6136 37.4791 18.6636C37.5191 18.9436 37.729 19.2136 37.709 19.4836C37.879 19.6136 37.9191 19.8636 38.0291 20.0536C38.1491 20.2736 38.3791 20.4736 38.2791 20.6836C38.5991 21.3836 37.5091 21.6636 36.9791 21.8236C36.7291 22.0636 36.3491 22.0436 36.0291 22.2336C35.9791 22.2536 35.9891 22.3036 35.9491 22.3236C35.4391 22.4636 35.049 22.7236 34.619 22.8836C34.909 22.8336 35.019 22.7536 35.329 22.6536C35.459 22.6136 35.2791 22.7036 35.2291 22.7136C34.2891 23.1436 33.0391 23.5736 31.7591 23.8936C31.6191 23.9236 31.439 23.8936 31.389 23.9936C31.179 24.0136 31.059 24.0436 30.889 24.0936C30.889 24.1236 30.9891 24.1036 30.9791 24.0736C30.8491 24.2236 30.4491 24.1836 30.1991 24.2936C30.5191 24.3736 31.209 24.1336 31.549 24.0936C30.969 24.2836 30.439 24.3236 29.889 24.5036C29.889 24.4536 29.809 24.5236 29.829 24.4536C29.519 24.5136 29.2591 24.5336 28.9991 24.5636C28.8191 24.5836 28.639 24.6936 28.459 24.6136C27.349 24.6836 26.3991 24.6936 25.4691 24.5236C25.5191 24.4636 25.549 24.5836 25.619 24.5236C25.559 24.4936 25.479 24.4836 25.429 24.4436C25.339 24.5236 24.8991 24.4336 24.8491 24.2336C24.9891 24.2736 25.0891 24.3436 25.2591 24.3536C25.2291 24.3036 25.119 24.3236 25.109 24.2436C25.199 24.2236 25.3591 24.2736 25.4691 24.3036C25.4991 24.3036 25.4691 24.2736 25.4491 24.2636C25.6891 24.2636 25.949 24.4236 26.209 24.3336C26.099 24.3036 25.939 24.3636 25.859 24.2736C25.889 24.2436 25.999 24.2936 26.079 24.2736C25.979 24.2136 25.919 24.2236 25.799 24.2136C25.879 24.2936 25.729 24.2136 25.649 24.2336C25.839 24.1836 26.049 24.1536 25.929 24.0036C25.669 23.9736 25.6291 23.9836 25.4491 23.9736C25.4791 24.0136 25.5191 23.9736 25.4791 24.0536H25.5691C25.4691 24.0536 25.409 24.1536 25.269 24.1636C25.269 24.1336 25.3191 24.1536 25.3491 24.1436C25.3491 24.0736 25.2891 24.0536 25.2291 24.0436C25.2291 23.9936 25.3191 24.0236 25.3091 23.9536C25.3091 23.8936 25.269 23.9736 25.239 23.9536C25.239 23.8936 25.319 23.9436 25.329 23.9036C25.249 23.8936 25.159 23.8436 25.019 23.8436C25.019 23.8236 25.049 23.8036 25.079 23.8036C25.039 23.7536 24.9291 23.7936 24.8791 23.7936C24.8991 23.7036 24.799 23.7136 24.799 23.6336C24.909 23.7236 24.9491 23.6036 24.9791 23.7036C25.0691 23.5736 25.239 23.6736 25.399 23.6336C25.319 23.6036 25.1991 23.6036 25.0891 23.5836C25.0991 23.5536 25.1291 23.5536 25.1591 23.5536C25.1591 23.5336 25.089 23.4836 25.109 23.5536C25.059 23.5136 25.1691 23.4836 25.1891 23.4636C25.1691 23.4536 25.1391 23.4536 25.1591 23.3636C25.2391 23.3536 25.3891 23.4836 25.4991 23.3836C25.5191 23.4036 25.5491 23.4136 25.5691 23.4436C25.6291 23.4236 25.659 23.3636 25.769 23.3936C25.659 23.4236 25.8091 23.4436 25.8191 23.5136C25.8191 23.4436 26.049 23.4936 26.139 23.4536C26.049 23.4136 25.8491 23.4336 25.7891 23.4336C25.7991 23.4136 25.8191 23.4036 25.8391 23.3936C25.6791 23.3636 25.489 23.3236 25.329 23.3936C25.329 23.3336 25.249 23.3336 25.209 23.3136C25.139 23.3136 25.149 23.4136 25.079 23.4036C25.079 23.2736 25.1191 23.2536 25.2291 23.2436C25.0991 23.2036 24.889 23.2636 24.859 23.0236C24.959 23.1736 25.1291 23.2036 25.3191 23.1936C25.2491 23.1436 25.0691 23.1936 25.0291 23.1136C25.0791 23.1136 25.079 23.0736 25.119 23.0636C25.079 22.9936 25.1091 23.0336 25.0391 22.9836C25.0791 22.9336 25.1191 23.0336 25.1891 23.0136C25.2191 22.9536 25.079 22.9636 25.179 22.9536C25.179 22.9236 25.119 22.8836 25.109 22.9336C25.109 22.9036 25.179 22.8336 25.169 22.7636C25.259 22.7536 25.2191 22.7836 25.3191 22.7636C25.2891 22.6536 25.159 22.7936 25.119 22.7336C25.129 22.7836 25.039 22.8536 25.119 22.8736C25.069 22.9636 25.029 22.8736 24.989 22.8036C25.009 22.7436 25.0391 22.8236 25.0691 22.8036C25.1191 22.6536 24.8991 22.4536 25.0291 22.3736C25.0491 22.3236 24.999 22.3336 24.989 22.3136C25.079 22.2336 25.169 22.3036 25.269 22.2536C25.239 22.2236 25.0891 22.2136 25.0591 22.2436C25.0091 22.2236 25.079 22.1936 25.109 22.2036C25.089 22.0736 24.8591 22.1736 24.8091 22.1436C24.8091 22.0936 24.939 22.0736 24.959 22.0036C24.979 22.0236 24.9791 22.0636 25.0291 22.0436C24.9691 22.0836 25.0491 22.0736 25.0091 22.1236C25.0791 22.0336 25.139 22.0536 25.209 21.9836C25.139 21.8936 25.039 21.9236 24.959 21.8136C24.879 21.8436 24.8291 21.8536 24.7791 21.7936C24.7791 21.7336 24.859 21.7036 24.829 21.6436H24.859ZM30.4491 20.7336C30.4691 20.6736 30.6091 20.7136 30.6291 20.6536C30.0491 20.7636 29.3491 20.7636 28.8491 20.9536C28.9191 20.9536 29.0091 20.9036 29.0591 20.9536C29.0391 20.9636 29.029 20.9836 29.019 20.9936C29.219 20.9336 29.7091 20.9236 29.9791 20.8036C29.9591 20.8036 29.9291 20.8036 29.9391 20.8336C30.0891 20.8136 30.459 20.8336 30.459 20.7436L30.4491 20.7336ZM25.0591 22.4336V22.5536C25.3091 22.6036 25.6591 22.6636 25.9391 22.5936C25.6791 22.5836 25.4891 22.5636 25.3191 22.5136C25.3291 22.4836 25.289 22.4836 25.359 22.4536C25.219 22.4136 25.1891 22.4836 25.0591 22.4336ZM25.429 23.5136C25.529 23.5236 25.729 23.6136 25.859 23.5436C25.799 23.5436 25.6191 23.5636 25.7191 23.5036C25.6491 23.4636 25.509 23.5036 25.429 23.5036V23.5136ZM36.2491 22.0936C36.1991 22.0936 36.2191 22.0736 36.1991 22.0336C36.0891 22.0636 35.9791 22.0836 35.8491 22.1436C35.9391 22.2236 36.159 22.2536 36.239 22.0936H36.2491ZM35.1291 22.5136C35.1591 22.5936 35.399 22.5136 35.369 22.4236C35.269 22.4236 35.2391 22.4736 35.1291 22.5136ZM31.5991 23.6836C31.5991 23.6836 31.619 23.6636 31.619 23.6936C31.669 23.6136 31.7691 23.6636 31.8391 23.6036C31.7991 23.5836 31.869 23.6036 31.869 23.5536C31.899 23.5736 31.909 23.5536 31.959 23.5336C32.099 23.4736 31.6191 23.5936 31.5891 23.6136C31.5891 23.6036 31.5691 23.5936 31.5691 23.6136C31.6191 23.5936 31.5391 23.6736 31.5991 23.6636V23.6836ZM30.619 23.9036C30.429 23.9636 30.919 23.8836 30.679 23.9036C30.939 23.8836 31.3591 23.7636 31.5591 23.6636C31.2391 23.7736 30.939 23.8036 30.619 23.8936V23.9036ZM31.019 23.9636C31.109 23.9836 31.119 23.9236 31.209 23.9636C32.009 23.6536 32.639 23.6236 33.369 23.3936C32.629 23.3936 31.799 23.7536 31.019 23.9636ZM32.0991 23.7436C32.0491 23.7636 31.939 23.7536 31.929 23.8036C31.979 23.7836 32.0891 23.7936 32.0991 23.7436ZM29.8391 24.4636C29.7991 24.3936 29.6991 24.4236 29.6291 24.4536C29.6991 24.4536 29.7491 24.4936 29.8391 24.4636ZM31.5291 20.3836C31.6091 20.2936 31.709 20.3036 31.799 20.2836C31.869 20.2836 31.6691 20.3436 31.7791 20.3336C31.7391 20.3636 31.5991 20.3736 31.5291 20.3836ZM25.399 21.1536C25.399 21.1536 25.379 21.1036 25.359 21.0336C25.389 21.0536 25.429 21.0636 25.459 21.0736C25.429 21.1036 25.399 21.1236 25.389 21.1636C25.369 21.1636 25.389 21.1436 25.389 21.1436L25.399 21.1536Z" fill="#124936"/>
        <path d="M29.1291 25.7836C29.0391 25.8036 28.9091 25.7836 28.8491 25.8436C28.9691 25.8536 29.0491 25.8436 29.1291 25.7836ZM33.859 24.5736C33.859 24.6536 33.729 24.6536 33.669 24.6936C33.669 24.6136 33.799 24.6136 33.859 24.5736ZM30.4491 25.6036C30.4691 25.5536 30.579 25.5636 30.619 25.5636C30.589 25.6236 30.4991 25.5936 30.4491 25.6036ZM26.9491 26.0936C26.9491 26.0936 27.0791 26.0536 27.0891 26.0936C27.0191 26.0936 26.9991 26.1236 26.9491 26.0936ZM28.049 26.0136C28.049 26.0136 27.959 26.0336 27.929 26.0436C27.929 26.0636 27.9591 26.0536 27.9791 26.0536C27.9791 26.0936 27.899 26.0736 27.869 26.0836C27.879 26.0636 27.8991 26.0536 27.9091 26.0436C27.8591 26.0036 27.749 26.0536 27.669 26.0436C27.769 25.9936 27.939 26.0036 28.049 26.0136ZM30.2891 25.8236C30.2891 25.8236 30.3991 25.7936 30.4391 25.7736C30.4291 25.8236 30.3291 25.8036 30.2891 25.8236ZM25.179 26.2436C25.179 26.2436 25.2291 26.3236 25.2891 26.3236C25.2591 26.3836 25.159 26.3236 25.179 26.2436ZM31.3191 29.1836C31.3491 29.1336 31.4691 29.1436 31.5291 29.1136C31.4991 29.1636 31.3791 29.1536 31.3191 29.1836ZM26.639 29.9436C26.639 29.9436 26.549 29.9236 26.489 29.9436C26.519 29.8836 26.589 29.9236 26.639 29.9436ZM29.2591 30.0036C29.2191 30.0536 29.089 30.0336 29.019 30.0536C29.029 29.9836 29.2091 29.9836 29.2591 30.0036ZM29.929 29.8936C29.909 29.9636 29.7791 29.9536 29.6991 29.9836C29.7191 29.9136 29.879 29.9436 29.929 29.8936ZM24.859 26.7136C24.859 26.7136 24.9291 26.7436 24.9691 26.6836C25.0291 26.7436 25.1191 26.7636 25.2191 26.7836C25.2291 26.7836 25.2391 26.7636 25.2491 26.7636C25.2491 26.7236 25.2791 26.6336 25.2291 26.6436C25.2791 26.5436 25.3891 26.6436 25.3791 26.7136C25.4291 26.7336 25.4391 26.6936 25.4791 26.6936C25.4191 26.6136 25.389 26.5436 25.299 26.5736C25.299 26.4836 25.309 26.4736 25.299 26.3636C25.379 26.3636 25.379 26.3236 25.429 26.2336C25.469 26.2536 25.499 26.2736 25.549 26.2736C25.569 26.2736 25.5791 26.2436 25.5991 26.2336C25.6091 26.1736 25.5591 26.1936 25.5691 26.1336C26.3191 26.2636 27.1291 26.1636 27.9391 26.1436C28.1291 25.9736 28.249 26.1036 28.489 26.0536C28.449 25.9836 28.3291 26.0536 28.2791 26.0136C28.8591 25.9136 29.4891 25.8936 29.9391 25.7136C30.1791 25.7536 30.509 25.7136 30.769 25.6236C30.819 25.6036 30.7591 25.5736 30.7891 25.5636C30.9791 25.5336 30.989 25.5536 31.149 25.5036C31.149 25.6336 31.019 25.6536 30.899 25.6836C31.029 25.6736 31.2991 25.6536 31.2891 25.5936C31.5691 25.5336 31.7791 25.4336 32.0891 25.3636C32.1091 25.3236 32.179 25.3136 32.169 25.2436C32.279 25.2136 32.3991 25.1836 32.4691 25.1236C32.4391 25.0836 32.3591 25.1436 32.3091 25.1436C32.3791 25.0436 32.6191 24.9936 32.6891 25.0836C32.9691 24.9936 33.259 24.9136 33.459 24.7636C33.749 24.8836 33.969 24.6136 34.269 24.5336C34.059 24.5636 34.3591 24.4436 34.3791 24.4236C34.5291 24.3336 34.6791 24.2436 34.8091 24.1436C35.0591 23.9636 35.2991 23.9236 35.4791 23.8136C35.9091 23.5636 36.3791 23.3636 36.7891 23.2536C36.8291 23.2336 36.829 23.1936 36.869 23.1636C36.869 23.1836 36.8591 23.1836 36.8491 23.1936C37.0191 23.2236 37.2691 23.3436 37.2291 23.5836C37.2891 23.6636 37.3791 23.6836 37.4791 23.7336C37.5191 24.0136 37.729 24.2836 37.709 24.5536C37.879 24.6836 37.9191 24.9336 38.0291 25.1236C38.1491 25.3436 38.3791 25.5436 38.2791 25.7536C38.5991 26.4536 37.5091 26.7336 36.9791 26.8936C36.7291 27.1336 36.3491 27.1136 36.0291 27.3036C35.9791 27.3236 35.9891 27.3736 35.9491 27.3936C35.4391 27.5336 35.049 27.7936 34.619 27.9536C34.909 27.9036 35.019 27.8236 35.329 27.7236C35.459 27.6836 35.2791 27.7736 35.2291 27.7836C34.2891 28.2136 33.0391 28.6436 31.7591 28.9636C31.6191 28.9936 31.439 28.9636 31.389 29.0636C31.179 29.0836 31.059 29.1136 30.889 29.1636C30.889 29.1936 30.9891 29.1736 30.9791 29.1436C30.8491 29.2936 30.4491 29.2536 30.1991 29.3636C30.5191 29.4436 31.209 29.2036 31.549 29.1636C30.969 29.3536 30.439 29.3936 29.889 29.5736C29.889 29.5236 29.809 29.5936 29.829 29.5236C29.519 29.5836 29.2591 29.6036 28.9991 29.6336C28.8191 29.6536 28.639 29.7636 28.459 29.6836C27.349 29.7536 26.3991 29.7636 25.4691 29.5936C25.5191 29.5336 25.549 29.6536 25.619 29.5936C25.559 29.5636 25.479 29.5536 25.429 29.5136C25.339 29.5936 24.8991 29.5036 24.8491 29.3036C24.9891 29.3436 25.0891 29.4136 25.2591 29.4236C25.2291 29.3736 25.119 29.3936 25.109 29.3136C25.199 29.2936 25.3591 29.3436 25.4691 29.3736C25.4991 29.3736 25.4691 29.3436 25.4491 29.3336C25.6891 29.3336 25.949 29.4936 26.209 29.4036C26.099 29.3736 25.939 29.4336 25.859 29.3436C25.889 29.3136 25.999 29.3636 26.079 29.3436C25.979 29.2836 25.919 29.2936 25.799 29.2836C25.879 29.3636 25.729 29.2836 25.649 29.3036C25.839 29.2536 26.049 29.2236 25.929 29.0736C25.669 29.0436 25.6291 29.0536 25.4491 29.0436C25.4791 29.0836 25.5191 29.0436 25.4791 29.1236H25.5691C25.4691 29.1236 25.409 29.2236 25.269 29.2336C25.269 29.2036 25.3191 29.2236 25.3491 29.2136C25.3491 29.1436 25.2891 29.1236 25.2291 29.1136C25.2291 29.0636 25.3191 29.0936 25.3091 29.0236C25.3091 28.9636 25.269 29.0436 25.239 29.0236C25.239 28.9636 25.319 29.0136 25.329 28.9736C25.249 28.9636 25.159 28.9136 25.019 28.9136C25.019 28.8936 25.049 28.8736 25.079 28.8736C25.039 28.8236 24.9291 28.8636 24.8791 28.8636C24.8991 28.7736 24.799 28.7836 24.799 28.7036C24.909 28.7936 24.9491 28.6736 24.9791 28.7736C25.0691 28.6436 25.239 28.7436 25.399 28.7036C25.319 28.6736 25.1991 28.6736 25.0891 28.6536C25.0991 28.6236 25.1291 28.6236 25.1591 28.6236C25.1591 28.6036 25.089 28.5536 25.109 28.6236C25.059 28.5836 25.1691 28.5536 25.1891 28.5336C25.1691 28.5236 25.1391 28.5236 25.1591 28.4336C25.2391 28.4236 25.3891 28.5536 25.4991 28.4536C25.5191 28.4736 25.5491 28.4836 25.5691 28.5136C25.6291 28.4936 25.659 28.4336 25.769 28.4636C25.659 28.4936 25.8091 28.5136 25.8191 28.5836C25.8191 28.5136 26.049 28.5636 26.139 28.5236C26.049 28.4836 25.8491 28.5036 25.7891 28.5036C25.7991 28.4836 25.8191 28.4736 25.8391 28.4636C25.6791 28.4336 25.489 28.3936 25.329 28.4636C25.329 28.4036 25.249 28.4036 25.209 28.3836C25.139 28.3836 25.149 28.4836 25.079 28.4736C25.079 28.3436 25.1191 28.3236 25.2291 28.3136C25.0991 28.2736 24.889 28.3336 24.859 28.0936C24.959 28.2436 25.1291 28.2736 25.3191 28.2636C25.2491 28.2136 25.0691 28.2636 25.0291 28.1836C25.0791 28.1836 25.079 28.1436 25.119 28.1336C25.079 28.0636 25.1091 28.1036 25.0391 28.0536C25.0791 28.0036 25.1191 28.1036 25.1891 28.0836C25.2191 28.0236 25.079 28.0336 25.179 28.0236C25.179 27.9936 25.119 27.9536 25.109 28.0036C25.109 27.9736 25.179 27.9036 25.169 27.8336C25.259 27.8236 25.2191 27.8536 25.3191 27.8336C25.2891 27.7236 25.159 27.8636 25.119 27.8036C25.129 27.8536 25.039 27.9236 25.119 27.9436C25.069 28.0336 25.029 27.9436 24.989 27.8736C25.009 27.8136 25.0391 27.8936 25.0691 27.8736C25.1191 27.7236 24.8991 27.5236 25.0291 27.4436C25.0491 27.3936 24.999 27.4036 24.989 27.3836C25.079 27.3036 25.169 27.3736 25.269 27.3236C25.239 27.2936 25.0891 27.2836 25.0591 27.3136C25.0091 27.2836 25.079 27.2636 25.109 27.2736C25.089 27.1436 24.8591 27.2436 24.8091 27.2136C24.8091 27.1636 24.939 27.1436 24.959 27.0736C24.979 27.0936 24.9791 27.1336 25.0291 27.1136C24.9691 27.1536 25.0491 27.1436 25.0091 27.1936C25.0791 27.1036 25.139 27.1236 25.209 27.0536C25.139 26.9636 25.039 26.9936 24.959 26.8836C24.879 26.9136 24.8291 26.9236 24.7791 26.8636C24.7791 26.8036 24.859 26.7736 24.829 26.7136H24.859ZM30.4491 25.8036C30.4691 25.7436 30.6091 25.7836 30.6291 25.7236C30.0491 25.8336 29.3491 25.8336 28.8491 26.0236C28.9191 26.0236 29.0091 25.9736 29.0591 26.0236C29.0391 26.0336 29.029 26.0536 29.019 26.0636C29.219 26.0036 29.7091 25.9936 29.9791 25.8736C29.9591 25.8736 29.9291 25.8736 29.9391 25.9036C30.0891 25.8836 30.459 25.9036 30.459 25.8136L30.4491 25.8036ZM25.0591 27.5036V27.6236C25.3091 27.6736 25.6591 27.7336 25.9391 27.6636C25.6791 27.6536 25.4891 27.6336 25.3191 27.5836C25.3291 27.5536 25.289 27.5536 25.359 27.5236C25.219 27.4836 25.1891 27.5536 25.0591 27.5036ZM25.429 28.5836C25.529 28.5936 25.729 28.6836 25.859 28.6136C25.799 28.6136 25.6191 28.6336 25.7191 28.5736C25.6491 28.5336 25.509 28.5736 25.429 28.5736V28.5836ZM36.2491 27.1636C36.1991 27.1636 36.2191 27.1436 36.1991 27.1036C36.0891 27.1336 35.9791 27.1536 35.8491 27.2136C35.9391 27.2936 36.159 27.3236 36.239 27.1636H36.2491ZM35.1291 27.5836C35.1591 27.6636 35.399 27.5836 35.369 27.4936C35.269 27.4936 35.2391 27.5436 35.1291 27.5836ZM31.5991 28.7536C31.5991 28.7536 31.619 28.7336 31.619 28.7636C31.669 28.6836 31.7691 28.7336 31.8391 28.6736C31.7991 28.6536 31.869 28.6736 31.869 28.6236C31.899 28.6436 31.909 28.6236 31.959 28.6036C32.099 28.5436 31.6191 28.6636 31.5891 28.6836C31.5891 28.6736 31.5691 28.6636 31.5691 28.6836C31.6191 28.6636 31.5391 28.7436 31.5991 28.7336V28.7536ZM30.619 28.9736C30.429 29.0336 30.919 28.9536 30.679 28.9736C30.939 28.9536 31.3591 28.8336 31.5591 28.7336C31.2391 28.8436 30.939 28.8736 30.619 28.9636V28.9736ZM31.019 29.0336C31.109 29.0536 31.119 28.9936 31.209 29.0336C32.009 28.7236 32.639 28.6936 33.369 28.4736C32.629 28.4736 31.799 28.8336 31.019 29.0436V29.0336ZM32.0991 28.8136C32.0491 28.8336 31.939 28.8236 31.929 28.8736C31.979 28.8536 32.0891 28.8636 32.0991 28.8136ZM29.8391 29.5336C29.7991 29.4636 29.6991 29.4936 29.6291 29.5236C29.6991 29.5236 29.7491 29.5636 29.8391 29.5336ZM31.5291 25.4536C31.6091 25.3636 31.709 25.3736 31.799 25.3536C31.869 25.3536 31.6691 25.4136 31.7791 25.4036C31.7391 25.4336 31.5991 25.4436 31.5291 25.4536ZM25.399 26.2236C25.399 26.2236 25.379 26.1736 25.359 26.1036C25.389 26.1236 25.429 26.1336 25.459 26.1436C25.429 26.1736 25.399 26.1936 25.389 26.2336C25.369 26.2336 25.389 26.2136 25.389 26.2136L25.399 26.2236Z" fill="#124936"/>
        <path d="M24.2389 33.8836C24.2489 34.0136 24.2189 34.2136 24.2589 34.3036C24.2789 34.1336 24.2789 34.0136 24.2389 33.8836ZM24.2389 26.6736C24.3089 26.7036 24.2589 26.8936 24.2689 27.0036C24.1989 26.9736 24.2489 26.7836 24.2389 26.6736ZM24.2689 31.9236C24.2689 31.9236 24.2589 31.7236 24.2689 31.6636C24.3189 31.7236 24.2689 31.8536 24.2689 31.9236ZM24.3189 37.1236C24.3189 37.1236 24.2889 36.9336 24.3189 36.9136C24.3089 37.0236 24.3389 37.0536 24.3189 37.1236ZM24.3189 35.4936C24.3189 35.4936 24.3189 35.6236 24.3389 35.6836C24.3589 35.6836 24.3489 35.6436 24.3589 35.6136C24.3989 35.6136 24.3589 35.7236 24.3789 35.7736C24.3589 35.7536 24.3489 35.7336 24.3389 35.7036C24.2989 35.7736 24.3389 35.9436 24.3189 36.0536C24.2789 35.9036 24.3089 35.6436 24.3189 35.4936ZM24.4389 32.2036C24.4389 32.2036 24.4389 32.0436 24.4189 31.9736C24.4589 32.0036 24.4189 32.1336 24.4389 32.2036ZM24.4689 39.7836C24.4789 39.7136 24.5389 39.6936 24.5389 39.5936C24.5989 39.6336 24.5489 39.7936 24.4689 39.7836ZM27.6089 31.7336C27.6089 31.7336 27.6089 31.5436 27.5889 31.4536C27.6289 31.5036 27.5889 31.6436 27.6089 31.7336ZM27.7989 37.6836C27.7989 37.6836 27.7789 37.7936 27.7989 37.8736C27.7389 37.8336 27.7789 37.7436 27.7989 37.6836ZM28.0289 34.4436C28.0689 34.5036 28.0289 34.6536 28.0489 34.7436C27.9889 34.7236 28.0089 34.4936 28.0289 34.4436ZM28.0089 33.6036C28.0689 33.6436 28.0489 33.8036 28.0589 33.9036C27.9989 33.8636 28.0389 33.6736 28.0089 33.6036ZM24.9089 40.2336C24.9089 40.1736 24.9289 40.1136 24.8689 40.0436C24.9189 39.9436 24.9289 39.8036 24.9389 39.6436C24.9389 39.6236 24.9189 39.6236 24.9189 39.5936C24.8789 39.6036 24.7989 39.5536 24.8089 39.6436C24.7089 39.5736 24.8089 39.4036 24.8589 39.4136C24.8689 39.3436 24.8389 39.3236 24.8389 39.2736C24.7689 39.3736 24.7089 39.4136 24.7389 39.5536C24.6589 39.5536 24.6489 39.5436 24.5489 39.5736C24.5489 39.4436 24.5089 39.4436 24.4289 39.3836C24.4489 39.3336 24.4589 39.2736 24.4589 39.1936C24.4589 39.1636 24.4289 39.1536 24.4289 39.1236C24.3789 39.1036 24.3989 39.1836 24.3389 39.1736C24.4289 38.0236 24.3589 36.8436 24.4089 35.6536C24.2689 35.3436 24.4089 35.1936 24.3689 34.8336C24.3089 34.8736 24.3489 35.0636 24.3189 35.1336C24.2889 34.2736 24.3489 33.3536 24.2689 32.6636C24.3389 32.3236 24.3589 31.8436 24.3389 31.4536C24.3389 31.3736 24.2889 31.4536 24.2889 31.4036C24.2889 31.1236 24.3189 31.1236 24.3089 30.8636C24.4289 30.8936 24.4089 31.1036 24.4189 31.2836C24.4289 31.0936 24.4789 30.7136 24.4189 30.7036C24.4189 30.2836 24.3989 29.9536 24.3989 29.4936C24.3689 29.4436 24.3689 29.3436 24.3089 29.3336C24.3089 29.1636 24.3089 28.9836 24.2689 28.8636C24.2289 28.8936 24.2689 29.0236 24.2489 29.0936C24.1789 28.9536 24.1989 28.5936 24.2989 28.5336C24.2989 28.1036 24.3189 27.6536 24.2489 27.3236C24.4289 26.9836 24.2889 26.5436 24.3189 26.0836C24.2789 26.3836 24.2689 25.9136 24.2689 25.8736C24.2489 25.6236 24.2089 25.3636 24.1789 25.1236C24.1289 24.6836 24.1789 24.3236 24.1589 24.0236C24.0989 23.2836 24.1589 22.5336 24.2489 21.9236C24.2489 21.8536 24.2189 21.8236 24.2189 21.7636C24.2389 21.7636 24.2289 21.7936 24.2389 21.8136C24.3389 21.6236 24.5389 21.3736 24.7089 21.6036C24.7989 21.5836 24.8589 21.4836 24.9389 21.3936C25.1789 21.5336 25.4889 21.4636 25.6889 21.6736C25.8689 21.5536 26.0789 21.6736 26.2889 21.6736C26.5189 21.6736 26.7689 21.5436 26.8989 21.7936C27.6089 21.8736 27.3389 23.2536 27.2889 23.9636C27.3989 24.3836 27.2389 24.8136 27.2689 25.2936C27.2689 25.3636 27.3189 25.3736 27.3189 25.4336C27.2689 26.1036 27.3589 26.6936 27.3589 27.2736C27.3989 26.9136 27.3789 26.7336 27.3989 26.3136C27.4089 26.1436 27.4189 26.3936 27.4189 26.4536C27.4689 27.7636 27.4989 29.4436 27.5289 31.1236C27.5289 31.3036 27.4689 31.5236 27.5489 31.6136C27.5189 31.8736 27.5289 32.0336 27.5489 32.2636C27.5789 32.2736 27.5789 32.1336 27.5489 32.1436C27.6589 32.3336 27.5689 32.8336 27.6189 33.1736C27.7389 32.7936 27.6289 31.8736 27.6689 31.4436C27.7189 32.2136 27.6689 32.8736 27.7589 33.5936C27.7189 33.5936 27.7589 33.7036 27.7089 33.6636C27.7289 34.0536 27.7089 34.3936 27.7089 34.7136C27.7089 34.9436 27.7989 35.1736 27.7089 35.3936C27.6789 36.7836 27.6689 37.9736 27.5289 39.1236C27.4789 39.0636 27.5789 39.0136 27.5289 38.9336C27.4989 39.0036 27.4989 39.1036 27.4589 39.1636C27.5289 39.2736 27.4689 39.8136 27.2989 39.8836C27.3289 39.7136 27.3889 39.5736 27.3889 39.3736C27.3389 39.4136 27.3689 39.5436 27.2989 39.5636C27.2789 39.4536 27.3189 39.2536 27.3289 39.1236C27.3289 39.0936 27.2989 39.1236 27.2989 39.1436C27.2989 38.8436 27.4389 38.5136 27.3489 38.1836C27.3189 38.3136 27.3789 38.5236 27.2989 38.6236C27.2689 38.5836 27.3189 38.4436 27.2989 38.3436C27.2489 38.4636 27.2589 38.5436 27.2489 38.6936C27.3189 38.5836 27.2489 38.7836 27.2689 38.8836C27.2189 38.6536 27.1989 38.3836 27.0589 38.5336C27.0289 38.8736 27.0489 38.9136 27.0389 39.1436C27.0789 39.1036 27.0389 39.0536 27.1089 39.0936V38.9736C27.1089 39.1036 27.1989 39.1736 27.2089 39.3436C27.1889 39.3436 27.1989 39.2836 27.1889 39.2536C27.1289 39.2636 27.1089 39.3336 27.0989 39.4136C27.0489 39.4136 27.0789 39.3036 27.0089 39.3236C26.9589 39.3436 27.0289 39.3736 27.0089 39.4136C26.9489 39.4236 26.9989 39.3036 26.9589 39.2936C26.9589 39.3936 26.9089 39.5036 26.9289 39.6936C26.9089 39.6836 26.8889 39.6636 26.8889 39.6236C26.8389 39.6836 26.8889 39.8136 26.8889 39.8836C26.7989 39.8736 26.8189 39.9936 26.7489 40.0036C26.8189 39.8636 26.7089 39.8136 26.7989 39.7736C26.6789 39.6736 26.7489 39.4436 26.7089 39.2336C26.6789 39.3436 26.6889 39.5036 26.6689 39.6336C26.6489 39.6136 26.6389 39.5836 26.6289 39.5436C26.6089 39.5436 26.5689 39.6336 26.6289 39.6136C26.5889 39.6836 26.5689 39.5436 26.5389 39.5236C26.5389 39.5536 26.5389 39.5836 26.4489 39.5736C26.4289 39.4636 26.5389 39.2636 26.4489 39.1336C26.4689 39.1036 26.4789 39.0636 26.4989 39.0436C26.4789 38.9636 26.4289 38.9236 26.4489 38.7836C26.4789 38.9236 26.4889 38.7336 26.5589 38.7136C26.4989 38.7136 26.5389 38.4136 26.5089 38.2936C26.4789 38.4136 26.4889 38.6736 26.4889 38.7636C26.4689 38.7436 26.4589 38.7236 26.4489 38.6936C26.4189 38.9136 26.3989 39.1536 26.4689 39.3736C26.4089 39.3736 26.4189 39.4836 26.3989 39.5336C26.3989 39.6236 26.4889 39.6036 26.4889 39.6936C26.3689 39.7036 26.3489 39.6636 26.3289 39.5036C26.3089 39.6736 26.3689 39.9536 26.1489 40.0136C26.2689 39.8636 26.2989 39.6436 26.2689 39.3836C26.2189 39.4736 26.2789 39.7136 26.2189 39.7836C26.2189 39.7136 26.1889 39.7136 26.1689 39.6636C26.1089 39.7236 26.1389 39.6836 26.0989 39.7836C26.0589 39.7336 26.1389 39.6636 26.1189 39.5736C26.0689 39.5336 26.0789 39.7236 26.0689 39.5936C26.0389 39.5836 26.0089 39.6836 26.0489 39.6836C26.0289 39.6836 25.9589 39.5936 25.8889 39.6136C25.8689 39.4836 25.8989 39.5436 25.8689 39.4036C25.7689 39.4536 25.8989 39.6236 25.8489 39.6836C25.8889 39.6636 25.9589 39.7836 25.9689 39.6636C26.0489 39.7236 25.9689 39.7936 25.9189 39.8536C25.8689 39.8336 25.9289 39.7836 25.9189 39.7336C25.7789 39.6736 25.6089 40.0136 25.5289 39.8236C25.4789 39.8036 25.4989 39.8736 25.4789 39.8936C25.4089 39.7736 25.4589 39.6336 25.4089 39.4936C25.3789 39.5436 25.3789 39.7536 25.4089 39.7936C25.3889 39.8736 25.3589 39.7736 25.3789 39.7236C25.2589 39.7736 25.3689 40.0936 25.3389 40.1636C25.2889 40.1836 25.2589 39.9836 25.1989 39.9536C25.2189 39.9236 25.2489 39.9136 25.2389 39.8336C25.2789 39.9236 25.2589 39.8036 25.3089 39.8536C25.2289 39.7636 25.2389 39.6836 25.1689 39.5736C25.0889 39.6836 25.1189 39.8236 25.0289 39.9736C25.0689 40.0936 25.0689 40.1536 25.0289 40.2736C24.9789 40.2736 24.9389 40.1236 24.8889 40.2036L24.9089 40.2336ZM24.4389 31.9536C24.3889 31.9136 24.4589 31.7136 24.3989 31.6736C24.3889 32.5336 24.2789 33.5536 24.3989 34.3136C24.4089 34.2236 24.3789 34.0636 24.4189 34.0136C24.4189 34.0436 24.4389 34.0636 24.4489 34.0836C24.4189 33.7836 24.4789 33.0736 24.4189 32.6636C24.4189 32.6936 24.4189 32.7336 24.4389 32.7336C24.4389 32.5236 24.5089 31.9936 24.4389 31.9636V31.9536ZM25.6089 39.8136H25.7189C25.7489 39.4436 25.7889 38.9736 25.7189 38.5736C25.7089 38.9336 25.6989 39.1936 25.6689 39.4336C25.6389 39.4136 25.6489 39.4736 25.6189 39.3836C25.5889 39.5736 25.6589 39.6236 25.6189 39.8036L25.6089 39.8136ZM26.5689 39.2336C26.5689 39.0936 26.6489 38.8436 26.5889 38.6736C26.5889 38.7536 26.6089 38.9836 26.5589 38.8636C26.5189 38.9636 26.5589 39.1436 26.5789 39.2336H26.5689ZM27.2189 24.9536C27.1989 25.0236 27.1889 24.9836 27.1489 24.9736C27.1289 25.1236 27.0989 25.2536 27.1089 25.4436C27.2089 25.3736 27.3089 25.1336 27.2189 24.9536ZM27.1789 26.4936C27.2589 26.4936 27.2589 26.1636 27.1789 26.1636C27.1489 26.2836 27.1789 26.3436 27.1789 26.4936ZM27.2689 31.2736C27.2689 31.2736 27.2589 31.2436 27.2889 31.2536C27.2289 31.1736 27.2889 31.0536 27.2489 30.9536C27.2289 31.0036 27.2489 30.9236 27.2089 30.9036C27.2289 30.8736 27.2089 30.8536 27.2089 30.7836C27.1789 30.5936 27.1889 31.2236 27.2089 31.2736C27.2089 31.2736 27.1889 31.2936 27.2089 31.2936C27.2089 31.2236 27.2589 31.3536 27.2589 31.2736H27.2689ZM27.2889 32.5536C27.3089 32.8036 27.3189 32.1736 27.3089 32.4836C27.3189 32.1536 27.3089 31.5936 27.2589 31.3136C27.2889 31.7436 27.2589 32.1236 27.2989 32.5536H27.2889ZM27.4089 32.0636C27.4389 31.9536 27.3889 31.9336 27.4389 31.8336C27.3089 30.7536 27.4389 29.9636 27.4189 28.9836C27.2289 29.8836 27.3589 31.0536 27.3989 32.0636H27.4089ZM27.4289 30.6636C27.4389 30.7336 27.4089 30.8636 27.4489 30.8936C27.4389 30.8236 27.4689 30.6936 27.4289 30.6636ZM27.6789 33.6536C27.6089 33.6936 27.6189 33.8236 27.6389 33.9136C27.6489 33.8236 27.6889 33.7736 27.6789 33.6536ZM24.3489 30.3136C24.2889 30.1736 24.3189 30.0236 24.3289 29.8936C24.3489 29.7936 24.3489 30.1036 24.3689 29.9436C24.3889 30.0136 24.3589 30.2036 24.3489 30.3136ZM24.4389 39.4336C24.3989 39.4836 24.3989 39.4636 24.3289 39.5036C24.3489 39.4636 24.3489 39.3936 24.3689 39.3436C24.3989 39.3836 24.4089 39.4236 24.4589 39.4336C24.4589 39.4636 24.4389 39.4436 24.4389 39.4336Z" fill="#124936"/>
        <path d="M39.829 23.8836C39.819 23.7636 39.849 23.5736 39.809 23.4936C39.789 23.6536 39.789 23.7736 39.829 23.8836ZM39.829 30.6636C39.759 30.6336 39.809 30.4536 39.789 30.3536C39.859 30.3836 39.809 30.5636 39.829 30.6636ZM39.789 25.7236C39.789 25.7236 39.799 25.9136 39.789 25.9636C39.739 25.9136 39.789 25.7936 39.789 25.7236ZM39.739 20.8336C39.739 20.8336 39.769 21.0136 39.739 21.0336C39.749 20.9336 39.719 20.9036 39.739 20.8336ZM39.739 22.3736C39.739 22.3736 39.739 22.2536 39.719 22.1936C39.699 22.1936 39.699 22.2336 39.699 22.2636C39.659 22.2636 39.699 22.1536 39.679 22.1136C39.699 22.1336 39.709 22.1536 39.719 22.1836C39.759 22.1136 39.719 21.9536 39.739 21.8536C39.779 21.9936 39.749 22.2336 39.739 22.3836V22.3736ZM39.619 25.4636C39.619 25.4636 39.619 25.6136 39.639 25.6836C39.599 25.6536 39.639 25.5336 39.619 25.4636ZM39.589 18.3336C39.579 18.4036 39.519 18.4236 39.519 18.5136C39.459 18.4736 39.509 18.3236 39.589 18.3336ZM36.449 25.9036C36.449 25.9036 36.449 26.0836 36.469 26.1636C36.429 26.1236 36.469 25.9836 36.449 25.9036ZM36.259 20.3036C36.259 20.3036 36.279 20.2036 36.259 20.1236C36.319 20.1636 36.279 20.2436 36.259 20.3036ZM36.029 23.3536C35.989 23.3036 36.029 23.1536 36.009 23.0636C36.069 23.0836 36.049 23.2936 36.029 23.3536ZM36.049 24.1436C35.989 24.1036 36.009 23.9536 35.999 23.8536C36.059 23.8936 36.019 24.0636 36.049 24.1436ZM39.149 17.9136C39.149 17.9736 39.129 18.0336 39.189 18.0936C39.139 18.1936 39.129 18.3236 39.119 18.4636C39.119 18.4836 39.139 18.4836 39.139 18.5036C39.179 18.4936 39.259 18.5436 39.249 18.4636C39.349 18.5336 39.249 18.6836 39.199 18.6836C39.189 18.7536 39.219 18.7636 39.219 18.8136C39.289 18.7236 39.349 18.6836 39.319 18.5536C39.399 18.5536 39.409 18.5636 39.509 18.5336C39.509 18.6536 39.549 18.6536 39.629 18.7136C39.609 18.7636 39.599 18.8236 39.599 18.8936C39.599 18.9236 39.629 18.9236 39.629 18.9636C39.679 18.9836 39.659 18.9036 39.719 18.9236C39.629 20.0036 39.699 21.1136 39.649 22.2336C39.789 22.5236 39.649 22.6636 39.679 23.0036C39.739 22.9636 39.699 22.7936 39.729 22.7136C39.759 23.5236 39.699 24.3936 39.779 25.0436C39.709 25.3636 39.689 25.8136 39.709 26.1836C39.709 26.2636 39.759 26.1836 39.759 26.2236C39.759 26.4836 39.729 26.4936 39.739 26.7236C39.619 26.6936 39.639 26.5036 39.639 26.3336C39.629 26.5136 39.579 26.8736 39.639 26.8836C39.639 27.2836 39.659 27.5836 39.659 28.0236C39.689 28.0736 39.689 28.1636 39.749 28.1736C39.749 28.3336 39.749 28.5036 39.789 28.6136C39.829 28.5836 39.789 28.4636 39.809 28.3936C39.879 28.5236 39.859 28.8636 39.759 28.9236C39.759 29.3236 39.739 29.7436 39.809 30.0636C39.629 30.3836 39.769 30.7936 39.739 31.2236C39.779 30.9436 39.789 31.3836 39.789 31.4236C39.809 31.6636 39.849 31.9036 39.879 32.1236C39.929 32.5336 39.879 32.8736 39.899 33.1536C39.959 33.8536 39.899 34.5536 39.809 35.1236C39.809 35.1836 39.839 35.2136 39.849 35.2736C39.829 35.2736 39.839 35.2436 39.829 35.2336C39.729 35.4136 39.529 35.6436 39.359 35.4336C39.269 35.4536 39.209 35.5436 39.129 35.6336C38.889 35.5036 38.579 35.5636 38.379 35.3736C38.199 35.4936 37.989 35.3736 37.779 35.3736C37.549 35.3736 37.299 35.4936 37.169 35.2636C36.459 35.1836 36.729 33.8936 36.779 33.2236C36.669 32.8336 36.829 32.4236 36.799 31.9736C36.799 31.9036 36.749 31.9036 36.749 31.8436C36.799 31.2136 36.709 30.6636 36.709 30.1136C36.669 30.4536 36.689 30.6236 36.669 31.0136C36.659 31.1736 36.649 30.9436 36.649 30.8836C36.599 29.6536 36.569 28.0736 36.539 26.4936C36.539 26.3236 36.599 26.1236 36.519 26.0336C36.549 25.7836 36.539 25.6336 36.519 25.4236C36.489 25.4236 36.489 25.5436 36.519 25.5336C36.409 25.3536 36.499 24.8836 36.449 24.5636C36.329 24.9236 36.439 25.7836 36.399 26.1836C36.349 25.4636 36.399 24.8336 36.309 24.1636C36.349 24.1636 36.309 24.0636 36.359 24.0936C36.339 23.7236 36.359 23.4136 36.359 23.1036C36.359 22.8936 36.269 22.6736 36.359 22.4636C36.389 21.1536 36.399 20.0436 36.539 18.9536C36.589 19.0136 36.489 19.0536 36.539 19.1336C36.569 19.0636 36.569 18.9736 36.609 18.9136C36.539 18.8036 36.599 18.3036 36.769 18.2336C36.739 18.3936 36.679 18.5236 36.679 18.7136C36.729 18.6736 36.699 18.5536 36.769 18.5336C36.789 18.6336 36.749 18.8236 36.729 18.9536C36.729 18.9836 36.759 18.9536 36.769 18.9336C36.769 19.2136 36.629 19.5236 36.719 19.8336C36.749 19.7036 36.689 19.5136 36.769 19.4136C36.799 19.4436 36.749 19.5836 36.769 19.6736C36.819 19.5536 36.809 19.4836 36.819 19.3436C36.749 19.4436 36.819 19.2536 36.799 19.1636C36.849 19.3836 36.869 19.6336 37.009 19.4936C37.039 19.1736 37.019 19.1336 37.029 18.9236C36.989 18.9636 37.029 19.0036 36.959 18.9636V19.0736C36.959 18.9536 36.869 18.8836 36.849 18.7236C36.869 18.7236 36.859 18.7736 36.869 18.8136C36.929 18.8036 36.949 18.7436 36.959 18.6636C37.009 18.6636 36.979 18.7636 37.049 18.7536C37.099 18.7436 37.029 18.7036 37.049 18.6636C37.109 18.6536 37.059 18.7636 37.099 18.7736C37.099 18.6836 37.149 18.5736 37.139 18.4036C37.159 18.4036 37.179 18.4336 37.179 18.4736C37.229 18.4236 37.179 18.2936 37.179 18.2336C37.269 18.2436 37.249 18.1236 37.319 18.1236C37.249 18.2536 37.359 18.2936 37.269 18.3436C37.389 18.4336 37.319 18.6536 37.359 18.8436C37.389 18.7436 37.379 18.5936 37.399 18.4736C37.419 18.4836 37.429 18.5236 37.429 18.5636C37.449 18.5636 37.489 18.4736 37.429 18.4936C37.469 18.4236 37.489 18.5536 37.519 18.5836C37.519 18.5536 37.519 18.5236 37.609 18.5436C37.629 18.6436 37.519 18.8336 37.609 18.9636C37.589 18.9936 37.579 19.0336 37.559 19.0536C37.579 19.1336 37.629 19.1636 37.609 19.2936C37.579 19.1636 37.569 19.3436 37.499 19.3636C37.559 19.3636 37.519 19.6436 37.549 19.7536C37.579 19.6436 37.569 19.3936 37.569 19.3136C37.589 19.3336 37.599 19.3536 37.599 19.3836C37.629 19.1836 37.649 18.9436 37.579 18.7436C37.639 18.7436 37.629 18.6436 37.649 18.5936C37.649 18.5136 37.559 18.5336 37.559 18.4436C37.679 18.4336 37.699 18.4736 37.719 18.6236C37.739 18.4636 37.679 18.2036 37.899 18.1436C37.779 18.2936 37.749 18.4936 37.779 18.7336C37.829 18.6436 37.759 18.4236 37.829 18.3636C37.829 18.4236 37.859 18.4236 37.879 18.4736C37.939 18.4236 37.909 18.4536 37.949 18.3636C37.989 18.4036 37.909 18.4736 37.929 18.5636C37.979 18.5936 37.969 18.4236 37.979 18.5436C38.009 18.5436 38.039 18.4636 37.999 18.4536C38.019 18.4536 38.089 18.5436 38.159 18.5236C38.179 18.6436 38.149 18.5836 38.179 18.7236C38.279 18.6736 38.149 18.5236 38.199 18.4636C38.159 18.4836 38.089 18.3636 38.079 18.4836C37.999 18.4236 38.079 18.3636 38.129 18.3036C38.179 18.3236 38.119 18.3736 38.129 18.4136C38.269 18.4736 38.439 18.1536 38.519 18.3236C38.569 18.3436 38.549 18.2736 38.569 18.2536C38.639 18.3636 38.589 18.4936 38.639 18.6236C38.669 18.5736 38.669 18.3836 38.639 18.3336C38.659 18.2636 38.689 18.3536 38.669 18.4036C38.789 18.3636 38.679 18.0536 38.709 17.9836C38.759 17.9636 38.789 18.1536 38.849 18.1836C38.829 18.2136 38.799 18.2236 38.809 18.2936C38.769 18.2136 38.789 18.3236 38.739 18.2736C38.819 18.3636 38.809 18.4336 38.879 18.5336C38.959 18.4336 38.929 18.2936 39.019 18.1636C38.979 18.0436 38.979 17.9936 39.019 17.8736C39.069 17.8736 39.109 18.0136 39.159 17.9436L39.149 17.9136ZM39.619 25.7036C39.669 25.7436 39.599 25.9336 39.659 25.9636C39.669 25.1536 39.779 24.1936 39.659 23.4836C39.649 23.5736 39.679 23.7136 39.639 23.7736C39.639 23.7436 39.619 23.7236 39.599 23.7036C39.629 23.9936 39.569 24.6536 39.639 25.0436C39.639 25.0136 39.639 24.9836 39.619 24.9736C39.619 25.1736 39.549 25.6736 39.619 25.6936V25.7036ZM38.449 18.3136H38.339C38.309 18.6636 38.269 19.1036 38.339 19.4736C38.349 19.1336 38.359 18.8836 38.389 18.6636C38.419 18.6836 38.409 18.6236 38.439 18.7036C38.469 18.5236 38.399 18.4736 38.439 18.3136H38.449ZM37.489 18.8636C37.489 18.9936 37.409 19.2336 37.469 19.3936C37.469 19.3236 37.449 19.1036 37.509 19.2136C37.549 19.1236 37.509 18.9536 37.489 18.8636ZM36.839 32.2936C36.859 32.2336 36.869 32.2736 36.909 32.2736C36.929 32.1336 36.959 32.0036 36.949 31.8336C36.849 31.9036 36.749 32.1236 36.839 32.2936ZM36.879 30.8436C36.799 30.8436 36.799 31.1536 36.879 31.1536C36.909 31.0436 36.879 30.9836 36.879 30.8436ZM36.789 26.3436C36.789 26.3436 36.799 26.3736 36.769 26.3636C36.829 26.4336 36.769 26.5536 36.799 26.6536C36.819 26.6036 36.799 26.6836 36.839 26.6936C36.819 26.7236 36.839 26.7436 36.839 26.8036C36.869 26.9836 36.859 26.3836 36.839 26.3436C36.839 26.3436 36.859 26.3236 36.839 26.3236C36.839 26.3936 36.789 26.2636 36.789 26.3436ZM36.769 25.1336C36.749 24.8936 36.739 25.4936 36.749 25.2036C36.739 25.5136 36.749 26.0336 36.799 26.3036C36.769 25.8936 36.799 25.5336 36.769 25.1436V25.1336ZM36.649 25.5936C36.619 25.7036 36.669 25.7136 36.619 25.8136C36.749 26.8236 36.619 27.5736 36.639 28.4936C36.829 27.6436 36.699 26.5536 36.659 25.5936H36.649ZM36.629 26.9136C36.619 26.8436 36.649 26.7236 36.609 26.6936C36.619 26.7636 36.589 26.8836 36.629 26.9136ZM36.379 24.1036C36.449 24.0636 36.439 23.9436 36.419 23.8636C36.409 23.9436 36.369 23.9936 36.379 24.1036ZM39.709 27.2436C39.769 27.3736 39.739 27.5136 39.729 27.6336C39.709 27.7236 39.709 27.4436 39.689 27.5936C39.669 27.5336 39.699 27.3436 39.709 27.2436ZM39.619 18.6636C39.619 18.6636 39.659 18.6336 39.729 18.5936C39.709 18.6336 39.709 18.6936 39.689 18.7436C39.659 18.7136 39.649 18.6636 39.599 18.6536C39.599 18.6336 39.619 18.6436 39.619 18.6536V18.6636Z" fill="#124936"/>
    </g>
    <defs>
        <clipPath id="clip0_1019_6250">
            <rect width="60" height="60" fill="white" transform="translate(0.94751)"/>
        </clipPath>
    </defs>
</svg>
