<svg width="61" height="60" viewBox="0 0 61 60" fill="none"
    xmlns="http://www.w3.org/2000/svg">
    <rect width="60" height="60" transform="translate(0.245117)" />
    <path d="M42.2562 59.9904H14.8862C14.2762 59.9904 13.7662 59.5304 13.6962 58.9204L9.33624 12.6504C9.25624 11.9404 9.81624 11.3204 10.5262 11.3204H46.6162C47.3262 11.3204 47.8862 11.9404 47.8062 12.6504L43.4462 58.9204C43.3762 59.5304 42.8662 59.9904 42.2562 59.9904Z" fill="#9F7FF7"/>
    <path d="M54.9662 12.9604C54.9662 13.2804 54.8962 13.7304 54.8862 13.9504C54.9862 13.5604 54.9862 13.2604 54.9662 12.9604ZM43.6262 3.52045C43.6862 3.42045 44.1362 3.40045 44.3762 3.35045C44.3162 3.44045 43.8562 3.42045 43.6262 3.52045ZM54.0462 8.47045C53.9662 8.38045 53.8262 8.05045 53.7562 7.93045C53.8762 8.02045 53.9762 8.31045 54.0462 8.47045ZM51.7362 19.7204C51.7462 19.6704 52.0562 19.3904 52.1062 19.3804C51.9062 19.5504 51.8762 19.6204 51.7362 19.7204ZM54.1162 16.6604C54.1362 16.7104 53.9862 16.9504 53.9362 17.0704C53.9662 17.0704 53.9962 16.9904 54.0262 16.9304C54.0562 16.9704 53.9062 17.1804 53.8462 17.2804C53.8462 17.2404 53.8762 17.1804 53.9062 17.1204C53.7762 17.2404 53.6062 17.6104 53.4562 17.8304C53.5962 17.5104 53.9662 17.0004 54.1162 16.6704V16.6604ZM54.4862 9.01045C54.4362 8.95045 54.3162 8.66045 54.2362 8.51045C54.2962 8.57045 54.4262 8.85045 54.4862 9.01045ZM45.9162 22.1004C46.0962 22.1004 46.1462 22.1604 46.3762 22.1504C46.2762 22.2104 45.8962 22.1904 45.9162 22.1004ZM56.7662 6.44045C56.6562 6.33045 56.4362 5.91045 56.2862 5.68045C56.3962 5.79045 56.6162 6.21045 56.7662 6.44045ZM52.5062 23.4604C52.4562 23.5304 52.1962 23.6204 51.9862 23.7804C52.0662 23.6704 52.3262 23.5504 52.5062 23.4604ZM58.5562 14.9804C58.5862 15.1704 58.4062 15.6604 58.3462 15.9704C58.2962 15.8804 58.5362 15.1704 58.5562 14.9804ZM58.7562 12.1904C58.8362 12.3204 58.8162 12.8504 58.7962 13.2004C58.7462 13.0604 58.8262 12.4404 58.7562 12.1904ZM44.8062 22.5004C44.9562 22.5004 45.1162 22.5404 45.2762 22.4904C45.5362 22.5604 45.8962 22.5704 46.2862 22.5504C46.3362 22.5504 46.3462 22.5304 46.4062 22.5304C46.3662 22.5004 46.4962 22.4004 46.2862 22.4304C46.4662 22.3304 46.8862 22.3904 46.8762 22.4304C47.0562 22.4104 47.0862 22.3804 47.2262 22.3604C46.9662 22.3204 46.8662 22.3004 46.5162 22.3504C46.5162 22.2704 46.5362 22.2604 46.4462 22.1604C46.7662 22.1404 46.7562 22.0904 46.8862 21.9904C47.0162 21.9904 47.1662 21.9804 47.3362 21.9604C47.4062 21.9404 47.4162 21.9204 47.4962 21.9004C47.5262 21.8404 47.3362 21.8904 47.3662 21.8304C50.1262 21.4604 52.6162 19.5504 54.0462 17.0604C54.1462 16.6904 54.2662 16.4504 54.3962 16.1904C54.4962 15.9204 54.6462 15.6504 54.7562 15.2304C54.6862 15.3104 54.5562 15.7404 54.4662 15.9004C55.2262 13.9804 55.2362 11.6704 54.6962 10.1204C54.5562 9.32045 54.1262 8.22045 53.5762 7.46045C53.4762 7.30045 53.5362 7.49045 53.4762 7.39045C53.0762 6.87045 53.1262 6.81045 52.6962 6.37045C52.8462 6.34045 53.1562 6.73045 53.4062 7.09045C53.1662 6.70045 52.5662 5.98045 52.5062 6.00045C51.7762 5.28045 51.1562 4.80045 50.1762 4.24045C50.0462 4.21045 49.8362 4.10045 49.7862 4.15045C49.4262 3.95045 49.0162 3.80045 48.7462 3.75045C48.8062 3.81045 49.1062 3.89045 49.2562 3.96045C48.9262 3.90045 48.1262 3.60045 48.0062 3.50045C47.0262 3.24045 45.9362 3.13045 45.1462 3.27045C44.3162 3.13045 43.2862 3.44045 42.2762 3.83045C42.9662 3.63045 41.9062 4.00045 41.8362 4.08045C41.2962 4.35045 40.7862 4.70045 40.3562 5.04045C39.5262 5.67045 38.9262 6.27045 38.4862 6.83045C37.9562 7.53045 37.5362 8.29045 37.1762 9.05045C36.8562 9.82045 36.5862 10.5804 36.4662 11.3004C36.4462 11.4604 36.4562 11.5304 36.4462 11.6904C36.4262 11.6904 36.4362 11.6204 36.4462 11.5804C36.3162 12.0104 36.0962 12.6104 35.9462 12.0504C35.8562 12.1004 35.7862 12.3504 35.6862 12.5704C35.4662 12.2004 35.1462 12.3804 34.9762 11.8004C34.7862 12.1304 34.5862 11.7704 34.3862 11.7604C34.1562 11.7404 33.8862 12.1104 33.7962 11.3604C33.4762 11.2104 33.4662 10.0304 33.8962 8.68045C34.3062 7.32045 35.2162 5.91045 35.9362 5.06045C36.6662 3.95045 37.7762 3.09045 38.9962 2.25045C39.1862 2.14045 39.1862 2.08045 39.3462 1.98045C41.1662 0.930447 42.9862 0.320446 44.8362 0.200446C43.6862 0.250446 43.1362 0.380446 41.8562 0.740446C41.3362 0.920446 42.0662 0.620446 42.2762 0.590446C44.2662 -0.0195535 46.7362 -0.169553 49.1862 0.540446C50.4062 0.900447 51.6062 1.44045 52.7062 2.16045C53.7962 2.91045 54.7962 3.83045 55.6262 4.88045C55.7962 5.11045 55.9762 5.37045 56.1362 5.60045C56.2862 5.85045 56.4162 6.06045 56.5262 6.16045C56.7462 6.52045 56.8862 6.83045 57.0262 7.12045C57.1662 7.41045 57.3262 7.69045 57.4462 8.04045C57.4862 8.06045 57.3262 7.65045 57.3162 7.69045C57.6562 8.23045 58.1062 9.77045 58.2562 10.8504C58.2362 10.2304 58.0462 9.18045 57.6462 8.19045C57.2862 7.18045 56.7162 6.24045 56.3662 5.65045C57.7562 7.72045 58.3662 9.89045 58.5162 12.2004C58.4762 12.1704 58.5462 12.5504 58.4762 12.4304C58.4762 13.7004 58.3362 14.8004 58.0462 15.8104C57.9662 16.1704 57.8762 16.5404 57.7462 16.8904C57.6262 17.2404 57.5062 17.5904 57.3062 17.8804C56.3362 19.9304 54.9362 21.5604 53.3262 22.7304C51.7262 23.9004 49.9362 24.6704 48.0962 24.9404C48.2862 24.8604 48.4362 24.9204 48.6762 24.8004C48.4462 24.8404 48.1262 24.9104 47.9362 24.8904C47.7662 24.9404 47.2562 25.0604 46.7562 25.0604C46.2562 25.0604 45.7662 25.0304 45.6462 24.9404C46.1862 24.9404 46.6162 25.0104 47.2662 24.9204C47.1362 24.9104 46.7162 24.9604 46.6662 24.8904C47.0162 24.8704 47.6462 24.7804 48.0562 24.7404C48.1562 24.7204 48.0562 24.7104 47.9762 24.7204C48.4362 24.6404 48.9162 24.5304 49.4262 24.4204C49.9062 24.2604 50.4262 24.1304 50.8662 23.8504C50.4862 24.0304 49.8862 24.2704 49.5462 24.3204C49.6462 24.2604 50.0762 24.1404 50.3762 24.0104C49.9962 24.1004 49.7562 24.2004 49.3262 24.3404C49.6662 24.3104 49.0362 24.4204 48.7662 24.5104C49.4762 24.3004 50.2362 23.9404 49.7462 23.9904C49.2562 24.1704 48.9662 24.2204 48.7262 24.2904C48.4762 24.3404 48.2862 24.4304 47.9462 24.4704C48.0762 24.4904 48.2062 24.4304 48.1062 24.5204C48.2262 24.5004 48.3362 24.4604 48.4562 24.4404C48.0862 24.5504 47.8562 24.6504 47.3362 24.7504C47.3562 24.7204 47.5162 24.7104 47.6262 24.6904C47.5762 24.6404 47.3662 24.6504 47.1162 24.6904C47.1162 24.6404 47.4562 24.6204 47.3862 24.5604C47.3362 24.5204 47.2362 24.6004 47.1062 24.6004C47.0662 24.5504 47.4262 24.5404 47.4562 24.4904C47.1562 24.5404 46.8062 24.5404 46.2462 24.5704C46.2762 24.5504 46.3362 24.5304 46.4562 24.5204C46.2862 24.4804 45.8862 24.5504 45.6762 24.5504C45.7162 24.4704 45.3362 24.4604 45.3262 24.3904C45.7562 24.4904 45.8862 24.3704 46.0262 24.4504C46.3162 24.3204 47.0162 24.3704 47.6262 24.2104C47.2962 24.2304 46.8362 24.3204 46.4462 24.3104C46.4862 24.2804 46.5962 24.2704 46.7262 24.2604C46.6962 24.2404 46.4562 24.2104 46.5162 24.2704C46.3062 24.2404 46.7162 24.2004 46.7862 24.1704C46.6962 24.1704 46.6062 24.1704 46.6362 24.0904C46.9462 24.0804 47.5562 24.0604 47.9262 23.9204H48.2062C48.4362 23.8404 48.5362 23.7604 48.9262 23.6704C48.5362 23.8104 49.0862 23.6704 49.1562 23.7204C49.1562 23.6604 49.9862 23.4004 50.3062 23.2404C49.9762 23.3304 49.2562 23.6304 49.0062 23.6904C49.0462 23.6604 49.1162 23.6404 49.1962 23.6004C48.5762 23.7404 47.9462 23.8804 47.2562 24.0404C47.2262 23.9804 46.9362 24.0504 46.7762 24.0304C46.5262 24.0504 46.5862 24.1304 46.3062 24.1404C46.2562 24.0204 46.3962 24.0004 46.8362 23.9504C46.3362 23.9504 45.5262 24.0604 45.3562 23.8104C45.7962 23.9704 46.4262 23.9604 47.1662 23.8504C46.8962 23.8704 46.2162 23.9304 46.0262 23.8804C46.2162 23.8804 46.2162 23.8404 46.3562 23.8104C46.1962 23.7604 46.2862 23.7904 46.0162 23.7604C46.1462 23.7104 46.3462 23.7804 46.6162 23.7504C46.7162 23.6904 46.1862 23.7404 46.5462 23.7004C46.5762 23.6704 46.2962 23.6504 46.2762 23.7004C46.2962 23.6804 46.5262 23.6004 46.4662 23.5304C46.8162 23.4904 46.6562 23.5504 47.0462 23.4604C46.8962 23.4004 46.4462 23.5404 46.2662 23.5004C46.3362 23.5404 45.9862 23.6304 46.3362 23.6204C46.1662 23.7104 45.9762 23.6404 45.8062 23.5904C45.8562 23.5404 46.0162 23.5904 46.1362 23.5704C46.2862 23.4304 45.3662 23.2904 45.8662 23.2004C45.9062 23.1504 45.7362 23.1804 45.6762 23.1504C45.9862 23.0704 46.3662 23.0904 46.7362 23.0304C46.6062 23.0104 46.0562 23.0304 45.9262 23.0704C45.7262 23.0704 45.9862 23.0204 46.1162 23.0304C45.9962 22.9504 45.1362 23.0104 44.9362 22.9704C44.8862 22.9204 45.4062 22.9204 45.4962 22.8604C45.5662 22.8804 45.6062 22.9204 45.8062 22.9104C45.5762 22.9504 45.8762 22.9304 45.7462 22.9804C45.9862 22.8804 46.2062 22.8904 46.4762 22.8004C46.1862 22.7304 45.8162 22.8104 45.4462 22.6804C45.1262 22.7004 44.9762 22.7004 44.6662 22.6404C44.6662 22.5904 45.0462 22.5704 44.8562 22.5104L44.8062 22.5004ZM54.2262 8.44045C54.1462 8.37045 53.9862 7.91045 53.8762 7.86045C54.9562 9.67045 55.2762 12.1704 55.0362 13.9704C55.0862 13.7504 55.1062 13.3804 55.1362 13.2504C55.1362 13.3204 55.1462 13.3804 55.1662 13.4204C55.2462 12.6904 55.1862 10.9504 54.8162 10.0204C54.8362 10.0804 54.8562 10.1804 54.8762 10.1804C54.8062 9.67045 54.3362 8.46045 54.2262 8.44045ZM45.8862 23.2404V23.3504C46.8962 23.3904 48.2162 23.1704 49.2162 22.7504C48.2862 23.0704 47.5562 23.1804 46.9062 23.2304C46.9562 23.2004 46.7962 23.2304 47.0262 23.1604C46.5062 23.2104 46.3762 23.2404 45.8862 23.2404ZM47.6262 24.0404C48.0362 24.0104 48.7862 23.8604 49.2462 23.6704C49.0262 23.7404 48.3562 23.9304 48.7062 23.7904C48.4162 23.8304 47.9162 24.0004 47.6262 24.0404ZM38.1262 2.92045C38.3062 2.80045 38.2062 2.89045 38.2262 2.93045C38.6062 2.66045 38.9462 2.43045 39.4362 2.14045C39.3162 2.16045 39.0862 2.24045 38.8262 2.36045C38.5862 2.51045 38.3162 2.70045 38.1162 2.92045H38.1262ZM42.3962 0.780446C42.3562 0.680446 41.3962 1.02045 41.4262 1.10045C41.7962 1.01045 41.9362 0.880446 42.3962 0.780446ZM55.6862 5.37045C55.6862 5.37045 55.6162 5.30045 55.6562 5.30045C55.4562 5.14045 55.3062 4.79045 55.0362 4.57045C55.1262 4.70045 54.9762 4.49045 54.9162 4.48045C54.8762 4.39045 54.8162 4.37045 54.6662 4.21045C54.4562 4.00045 54.6862 4.26045 54.9862 4.59045C55.2862 4.91045 55.5862 5.35045 55.6462 5.40045C55.6462 5.40045 55.6662 5.46045 55.6862 5.46045C55.5462 5.28045 55.8362 5.58045 55.6862 5.37045ZM57.5062 8.95045C57.6162 9.34045 57.5562 9.04045 57.4662 8.78045C57.3762 8.52045 57.2862 8.28045 57.4462 8.74045C57.1662 7.72045 56.3162 6.18045 55.7562 5.50045C56.5462 6.60045 57.0662 7.70045 57.5062 8.95045ZM57.0662 7.46045C56.9362 7.12045 56.8762 7.09045 56.7762 6.78045C55.9162 5.29045 54.9462 4.16045 53.8662 3.20045C52.7862 2.25045 51.5862 1.47045 50.1362 0.910446C51.4462 1.51045 52.8562 2.36045 54.0862 3.49045C55.3262 4.61045 56.3762 6.01045 57.0562 7.47045L57.0662 7.46045ZM54.5762 3.80045C54.7362 3.96045 54.9862 4.29045 55.0862 4.34045C54.9262 4.18045 54.6762 3.85045 54.5762 3.80045ZM58.4362 12.3404C58.3862 12.4604 58.3762 12.8904 58.3862 13.1704C58.4062 12.8904 58.4762 12.7204 58.4362 12.3404ZM51.7662 5.39045C51.4762 5.21045 51.2062 4.99045 50.9562 4.79045C50.7862 4.63045 51.3562 5.08045 51.0662 4.83045C51.2062 4.92045 51.5762 5.21045 51.7662 5.39045ZM46.7662 22.0004C46.6462 21.9804 46.6862 21.9804 46.5862 21.9104C46.6962 21.9304 46.8462 21.8904 46.9762 21.8904C46.8962 21.9304 46.7862 21.9604 46.7662 22.0104C46.7062 22.0104 46.7362 22.0004 46.7662 21.9904V22.0004Z" fill="#124936"/>
    <path d="M19.4561 16.1604C19.3461 15.8304 19.2261 15.3204 19.1161 15.0904C19.2161 15.5304 19.3261 15.8504 19.4561 16.1604ZM24.9661 34.5404C24.8761 34.4804 24.7761 33.9804 24.6861 33.7204C24.7761 33.7804 24.8761 34.2804 24.9661 34.5404ZM20.9261 21.1704C21.0061 21.2804 21.0961 21.6804 21.1261 21.8204C21.0361 21.6904 20.9861 21.3504 20.9261 21.1704ZM16.8961 7.92039C16.8961 7.92039 17.0661 8.40039 17.0561 8.46039C16.9861 8.18039 16.9261 8.11039 16.8961 7.92039ZM18.1461 12.0804C18.0961 12.0504 18.0361 11.7504 17.9861 11.6104C17.9661 11.6304 18.0061 11.7204 18.0261 11.7904C17.9761 11.7804 17.9361 11.5004 17.8861 11.3804C17.9161 11.4204 17.9461 11.4804 17.9761 11.5504C17.9561 11.3604 17.7961 10.9304 17.7261 10.6504C17.8761 11.0104 18.0561 11.6904 18.1561 12.0804H18.1461ZM20.5461 20.5004C20.6061 20.5704 20.6761 20.9104 20.7461 21.0904C20.6861 21.0204 20.6161 20.6804 20.5461 20.5004ZM14.7161 1.18039C14.7561 1.37039 14.7161 1.44039 14.7961 1.68039C14.7061 1.59039 14.6361 1.18039 14.7161 1.18039ZM17.8561 22.6004C17.9261 22.7104 18.0061 23.0904 18.0861 23.3104C18.0161 23.2004 17.9361 22.8204 17.8561 22.6004ZM13.1261 7.49039C13.0661 7.44039 13.0661 7.21039 12.9861 7.01039C13.0661 7.09039 13.1061 7.33039 13.1261 7.49039ZM15.3861 15.8204C15.3061 15.6904 15.2161 15.2904 15.1361 15.0504C15.2161 15.0904 15.3661 15.6704 15.3861 15.8204ZM16.0461 17.9604C15.9561 17.8704 15.8561 17.4704 15.7661 17.2004C15.8561 17.2904 15.9561 17.7804 16.0461 17.9604ZM13.9561 0.18039C14.0061 0.33039 14.0261 0.50039 14.1361 0.65039C14.1761 0.93039 14.2661 1.29039 14.3761 1.68039C14.3961 1.73039 14.4061 1.73039 14.4261 1.79039C14.4461 1.74039 14.5761 1.85039 14.4961 1.64039C14.6461 1.80039 14.6861 2.25039 14.6261 2.25039C14.6661 2.44039 14.7061 2.46039 14.7461 2.60039C14.7461 2.33039 14.7661 2.20039 14.6361 1.86039C14.7161 1.84039 14.7361 1.86039 14.8061 1.75039C14.9161 2.08039 14.9461 2.06039 15.0661 2.19039C15.0961 2.33039 15.1261 2.49039 15.1761 2.68039C15.2061 2.76039 15.2361 2.76039 15.2661 2.85039C15.3361 2.88039 15.2461 2.68039 15.3161 2.71039C16.1061 5.67039 17.0661 8.65039 17.9361 11.7104C18.2961 12.4504 18.2961 12.8804 18.5961 13.7804C18.6261 13.6604 18.4361 13.1904 18.4161 12.9904C19.1061 15.1804 19.7561 17.5504 20.3561 19.2804C20.5461 20.1704 20.8961 21.4004 21.2161 22.3904C21.2861 22.6004 21.2561 22.3704 21.3061 22.4904C21.5061 23.2004 21.4961 23.2204 21.6961 23.8604C21.5561 23.8104 21.4161 23.2904 21.2761 22.8204C21.4061 23.3004 21.6561 24.3004 21.7261 24.3104C22.0461 25.3904 22.3161 26.2104 22.6661 27.4004C22.7361 27.5204 22.8061 27.7804 22.8761 27.7904C23.0061 28.2304 23.1361 28.6904 23.2661 28.9704C23.2761 28.8804 23.1461 28.5504 23.1061 28.3704C23.2761 28.7004 23.5361 29.6404 23.4861 29.8104C23.8161 30.9004 24.1361 32.0504 24.4661 32.8904C24.5561 33.8204 25.0161 34.8804 25.3461 36.0604C25.1561 35.2804 25.5261 36.4804 25.5561 36.5804C25.7761 37.2204 26.0061 37.8704 26.2061 38.4604C26.5861 39.5704 26.8061 40.4904 27.0561 41.2504C27.6761 43.1204 28.1861 45.0404 28.5761 46.6304C28.6261 46.8004 28.6861 46.8704 28.7361 47.0404C28.7161 47.0404 28.7061 46.9704 28.6861 46.9304C28.7361 47.4404 28.7361 48.1304 28.3961 47.6004C28.3261 47.6804 28.3461 47.9504 28.3361 48.2004C27.9961 47.9004 27.7561 48.1704 27.3961 47.7004C27.3261 48.0604 27.0161 47.8104 26.8261 47.8704C26.6061 47.9404 26.4561 48.3304 26.1461 47.7504C25.4061 47.7504 24.6161 44.1504 24.1161 42.3304C23.6961 41.3004 23.5161 40.1404 23.1161 38.9304C23.0661 38.7504 23.0161 38.7404 22.9561 38.5904C22.4961 36.8804 21.9561 35.3904 21.5161 33.9004C21.7561 34.8404 21.9061 35.2804 22.2161 36.3504C22.3361 36.8004 22.1361 36.1604 22.0961 36.0004C21.0461 32.6704 19.7361 28.4104 18.4261 24.1304C18.2861 23.6804 18.1761 23.1004 18.0361 22.8904C17.8661 22.2204 17.7261 21.8104 17.5361 21.2204C17.4961 21.2004 17.6061 21.5504 17.6261 21.5204C17.3661 21.0604 17.0861 19.7704 16.7761 18.9204C16.9561 19.9304 17.7561 22.2304 18.0461 23.3404C17.4161 21.4004 16.9461 19.6804 16.3261 17.8904C16.3761 17.9004 16.2361 17.6204 16.3261 17.7004C16.0061 16.7104 15.7661 15.8404 15.5261 15.0204C15.3561 14.4404 15.0861 13.8704 15.0061 13.2904C13.9761 9.72039 13.0761 6.71039 12.3261 3.72039C12.4261 3.87039 12.3561 4.01039 12.4661 4.20039C12.4361 4.01039 12.3661 3.75039 12.3561 3.58039C12.2061 3.31039 11.8461 1.94039 11.9561 1.69039C12.0661 2.14039 12.1061 2.49039 12.2661 3.02039C12.2761 2.90039 12.1561 2.57039 12.2061 2.52039C12.3161 2.79039 12.4261 3.32039 12.5061 3.66039C12.5361 3.74039 12.5361 3.66039 12.5261 3.59039C12.7561 4.34039 12.8761 5.24039 13.2061 6.04039C13.1361 5.69039 12.9261 5.19039 12.9161 4.89039C12.9661 4.97039 13.0361 5.35039 13.1261 5.60039C13.0761 5.27039 13.0061 5.07039 12.9061 4.69039C12.9161 4.98039 12.8361 4.45039 12.7461 4.22039C12.9761 4.80039 13.1961 5.48039 13.2161 5.05039C12.9861 4.19039 12.9361 4.07039 12.7661 3.50039C12.7661 3.62039 12.8261 3.72039 12.7361 3.64039C12.7661 3.74039 12.7961 3.84039 12.8261 3.94039C12.7361 3.62039 12.5861 3.45039 12.4361 3.02039C12.4661 3.03039 12.4961 3.16039 12.5261 3.25039C12.5761 3.20039 12.5461 3.03039 12.4861 2.81039C12.5361 2.81039 12.5961 3.09039 12.6461 3.02039C12.6861 2.97039 12.5961 2.90039 12.5761 2.78039C12.6161 2.74039 12.6661 3.05039 12.7161 3.06039C12.6461 2.81039 12.5961 2.50039 12.4461 2.04039C12.4761 2.06039 12.5061 2.11039 12.5361 2.21039C12.5361 2.05039 12.3961 1.74039 12.3361 1.56039C12.4261 1.56039 12.3161 1.25039 12.3861 1.22039C12.4261 1.61039 12.5661 1.68039 12.5161 1.83039C12.7061 2.05039 12.8161 2.66039 13.0061 3.17039C12.9461 2.88039 12.8261 2.48039 12.7361 2.15039C12.7661 2.18039 12.8061 2.27039 12.8361 2.38039C12.8461 2.35039 12.8261 2.13039 12.7861 2.20039C12.7661 2.01039 12.8961 2.36039 12.9461 2.41039C12.9261 2.33039 12.9061 2.25039 12.9961 2.27039C13.0961 2.53039 13.1461 3.09039 13.3361 3.40039C13.3361 3.48039 13.3661 3.59039 13.3561 3.65039C13.4361 3.85039 13.5161 3.94039 13.6061 4.29039C13.4661 3.94039 13.6061 4.44039 13.5561 4.50039C13.6161 4.50039 13.8061 5.25039 13.9261 5.55039C13.8661 5.24039 13.6561 4.58039 13.5861 4.36039C13.6161 4.40039 13.6461 4.46039 13.6761 4.53039C13.5361 3.97039 13.3761 3.33039 13.1461 2.81039C13.1961 2.77039 13.1061 2.52039 13.0861 2.37039C13.0161 2.15039 12.9461 2.22039 12.8761 1.98039C12.9761 1.91039 13.0361 2.03039 13.1661 2.41039C13.0561 1.96039 12.7861 1.27039 12.9461 1.05039C12.9461 1.48039 13.0861 2.04039 13.3061 2.69039C13.2761 2.44039 13.0361 1.85039 13.0561 1.66039C13.1061 1.83039 13.1361 1.82039 13.1961 1.94039C13.2061 1.78039 13.1961 1.87039 13.1761 1.62039C13.2561 1.72039 13.2261 1.93039 13.3161 2.16039C13.3961 2.24039 13.2361 1.76039 13.3461 2.09039C13.3761 2.11039 13.3361 1.85039 13.2961 1.85039C13.3261 1.86039 13.4561 2.05039 13.4961 1.98039C13.6061 2.30039 13.5361 2.15039 13.6761 2.51039C13.7261 2.35039 13.4761 1.97039 13.4761 1.79039C13.4561 1.86039 13.2861 1.56039 13.3761 1.88039C13.2561 1.75039 13.2861 1.56039 13.2861 1.39039C13.3461 1.43039 13.3361 1.58039 13.3761 1.69039C13.5561 1.80039 13.4561 0.89039 13.6761 1.34039C13.7361 1.37039 13.6761 1.21039 13.6761 1.15039C13.8361 1.42039 13.8961 1.80039 14.0461 2.14039C14.0461 2.01039 13.8761 1.48039 13.8161 1.37039C13.7761 1.17039 13.8761 1.41039 13.9061 1.54039C13.9861 1.39039 13.6361 0.59039 13.6061 0.40039C13.6361 0.33039 13.8161 0.83039 13.8961 0.89039C13.8961 0.97039 13.8761 1.01039 13.9561 1.20039C13.8561 0.99039 13.9561 1.28039 13.8661 1.16039C14.0161 1.37039 14.0661 1.58039 14.2161 1.83039C14.2061 1.53039 14.0661 1.17039 14.0461 0.78039C13.9161 0.48039 13.8661 0.33039 13.8161 0.01039C13.8661 -0.00960998 14.0161 0.35039 14.0061 0.15039L13.9561 0.18039ZM20.7361 21.1604C20.8161 21.2504 20.9061 21.7804 20.9861 21.8604C20.3361 19.6604 19.6661 17.0304 18.9761 15.1404C19.0361 15.3804 19.1861 15.7704 19.1861 15.9204C19.1561 15.8504 19.1261 15.7904 19.0961 15.7504C19.3561 16.5104 19.8461 18.3404 20.2161 19.3704C20.1961 19.3004 20.1661 19.2004 20.1461 19.2004C20.3061 19.7504 20.6461 21.1204 20.7361 21.1604ZM13.6061 1.45039L13.5061 1.48039C13.7561 2.43039 14.0861 3.65039 14.4461 4.63039C14.1861 3.72039 13.9861 3.04039 13.8361 2.41039C13.8761 2.45039 13.8361 2.30039 13.9261 2.51039C13.8061 2.01039 13.7061 1.90039 13.6061 1.44039V1.45039ZM13.1261 3.21039C13.2261 3.56039 13.3461 4.23039 13.5361 4.64039C13.4761 4.44039 13.2761 3.85039 13.4261 4.15039C13.3861 3.89039 13.2161 3.45039 13.1261 3.20039V3.21039ZM23.4161 39.8004C23.3761 39.6204 23.4161 39.7304 23.4661 39.7204C23.3661 39.3404 23.2961 38.9904 23.1461 38.5204C23.1061 38.7304 23.1861 39.3604 23.4161 39.8004ZM22.2761 35.8604C22.2061 35.8904 22.4461 36.7104 22.5261 36.6904C22.4661 36.3704 22.3861 36.2404 22.2761 35.8604ZM18.5361 23.6904C18.5361 23.6904 18.5761 23.7604 18.5361 23.7504C18.6561 23.9304 18.6761 24.2604 18.8061 24.5104C18.7861 24.3804 18.8261 24.6004 18.8761 24.6204C18.8761 24.7004 18.9061 24.7404 18.9661 24.9204C19.1361 25.3904 18.6461 23.7804 18.5961 23.6704C18.5961 23.6704 18.5961 23.6204 18.5761 23.6104C18.6361 23.7904 18.4861 23.4704 18.5461 23.6804L18.5361 23.6904ZM17.5361 20.4204C17.3261 19.7804 17.7961 21.4004 17.5761 20.6004C17.8161 21.4504 18.2561 22.8604 18.5161 23.5604C18.1561 22.4704 17.8961 21.4804 17.5361 20.4204ZM17.7961 21.7004C17.8561 22.0004 17.9061 22.0304 17.9461 22.3104C18.8961 25.0204 19.3761 27.0804 20.1361 29.5604C19.6261 27.2004 18.6161 24.2804 17.7961 21.7004ZM18.8461 25.2704C18.7861 25.0904 18.7161 24.7504 18.6561 24.6804C18.7161 24.8604 18.7861 25.2004 18.8461 25.2704ZM16.3261 17.7304C16.3561 17.6104 16.2461 17.2804 16.1661 17.0704C16.2261 17.2904 16.2261 17.4404 16.3261 17.7304ZM22.0661 25.2804C22.2261 25.6204 22.3061 26.0104 22.4061 26.3504C22.4561 26.6104 22.2361 25.8304 22.3361 26.2404C22.2661 26.0804 22.1461 25.5604 22.0661 25.2804ZM15.0161 2.05039C15.0161 1.91039 15.0261 1.95039 15.0661 1.84039C15.0761 1.96039 15.1261 2.13039 15.1561 2.27039C15.1061 2.18039 15.0561 2.08039 14.9961 2.06039C14.9761 1.99039 14.9961 2.02039 15.0161 2.06039V2.05039Z" fill="#124936"/>
    <path d="M5.40627 4.11044C5.32627 4.16044 5.18627 4.20044 5.14627 4.27044C5.26627 4.24044 5.34627 4.19044 5.40627 4.11044ZM9.95627 1.70044C9.96627 1.77044 9.82627 1.79044 9.76627 1.84044C9.75627 1.77044 9.89627 1.75044 9.95627 1.70044ZM6.65627 3.49044C6.66627 3.44044 6.77627 3.41044 6.81627 3.40044C6.80627 3.46044 6.69627 3.46044 6.65627 3.49044ZM3.39627 5.28044C3.39627 5.28044 3.50628 5.19044 3.52628 5.21044C3.45628 5.24044 3.44627 5.28044 3.39627 5.28044ZM4.42627 4.73044C4.42627 4.73044 4.34627 4.78044 4.31627 4.81044C4.32627 4.83044 4.34627 4.81044 4.36627 4.81044C4.37627 4.85044 4.29628 4.85044 4.27628 4.88044C4.27628 4.86044 4.28627 4.84044 4.30627 4.83044C4.24627 4.82044 4.15628 4.91044 4.07628 4.93044C4.14628 4.85044 4.32627 4.78044 4.42627 4.74044V4.73044ZM6.55627 3.74044C6.55627 3.74044 6.65627 3.68044 6.69627 3.65044C6.69627 3.70044 6.59627 3.71044 6.55627 3.74044ZM1.78627 6.31044C1.83627 6.30044 1.87628 6.34044 1.93628 6.31044C1.93628 6.37044 1.81627 6.39044 1.78627 6.31044ZM8.33627 6.39044C8.34627 6.34044 8.45627 6.32044 8.50627 6.28044C8.49627 6.33044 8.38627 6.35044 8.33627 6.39044ZM4.67627 8.55044C4.67627 8.55044 4.59627 8.57044 4.55627 8.61044C4.55627 8.55044 4.62627 8.55044 4.67627 8.55044ZM6.82628 7.67044C6.80628 7.72044 6.69627 7.75044 6.64627 7.79044C6.63627 7.73044 6.78628 7.67044 6.82628 7.67044ZM7.34627 7.37044C7.34627 7.44044 7.23627 7.47044 7.17627 7.52044C7.17627 7.45044 7.31627 7.43044 7.34627 7.37044ZM1.70627 6.85044C1.70627 6.85044 1.79627 6.83044 1.80627 6.76044C1.89627 6.76044 1.98627 6.73044 2.08627 6.69044C2.09627 6.69044 2.08628 6.67044 2.10628 6.66044C2.07628 6.63044 2.07628 6.54044 2.02628 6.58044C2.02628 6.47044 2.17627 6.49044 2.19627 6.55044C2.24627 6.54044 2.24628 6.51044 2.27628 6.49044C2.18628 6.46044 2.12626 6.42044 2.04626 6.49044C2.00626 6.42044 2.00628 6.41044 1.93628 6.33044C2.01628 6.28044 1.99628 6.25044 1.99628 6.16044C2.03628 6.16044 2.08627 6.15044 2.12627 6.13044C2.14627 6.11044 2.12627 6.09044 2.15627 6.08044C2.14627 6.03044 2.09627 6.08044 2.08627 6.02044C2.85627 5.71044 3.56627 5.26044 4.34627 4.90044C4.47627 4.68044 4.63627 4.74044 4.84627 4.60044C4.78627 4.56044 4.69627 4.66044 4.62627 4.65044C5.15627 4.33044 5.76627 4.08044 6.16628 3.78044C6.41628 3.73044 6.72628 3.58044 6.96628 3.44044C7.01628 3.41044 6.94628 3.40044 6.96628 3.38044C7.14628 3.30044 7.15627 3.31044 7.31627 3.22044C7.34627 3.33044 7.21627 3.39044 7.09627 3.45044C7.21627 3.40044 7.48628 3.31044 7.46628 3.25044C7.73628 3.11044 7.92627 2.98044 8.22627 2.83044C8.24627 2.79044 8.30627 2.76044 8.28627 2.70044C8.39627 2.64044 8.51627 2.59044 8.56627 2.51044C8.52627 2.49044 8.45627 2.56044 8.40627 2.57044C8.45627 2.46044 8.69627 2.36044 8.78627 2.43044C9.05627 2.29044 9.34628 2.15044 9.52628 1.98044C9.82628 2.03044 10.0363 1.76044 10.3363 1.63044C10.1263 1.70044 10.4163 1.53044 10.4463 1.51044C10.5963 1.41044 10.7363 1.28044 10.8763 1.18044C11.1263 0.990444 11.3863 0.920444 11.5563 0.800444C11.9963 0.500444 12.4963 0.310444 12.9263 0.170444C12.9663 0.150444 12.9763 0.110444 13.0163 0.0804443C13.0163 0.100444 13.0063 0.100444 12.9963 0.110444C13.1663 0.130444 13.4063 0.230444 13.3463 0.460444C13.3963 0.530444 13.4963 0.550444 13.5863 0.590444C13.6063 0.850444 13.7963 1.10044 13.7663 1.35044C13.9263 1.46044 13.9463 1.70044 14.0463 1.88044C14.1563 2.08044 14.3563 2.27044 14.2563 2.46044C14.5363 3.12044 13.5363 3.33044 13.0663 3.53044C12.8563 3.77044 12.5063 3.77044 12.2163 3.96044C12.1763 3.98044 12.1863 4.03044 12.1563 4.05044C11.7163 4.23044 11.3763 4.51044 11.0063 4.70044C11.2563 4.62044 11.3563 4.54044 11.6263 4.41044C11.7363 4.36044 11.5863 4.46044 11.5463 4.47044C10.7463 4.95044 9.70627 5.54044 8.65627 6.13044C8.54627 6.19044 8.37628 6.21044 8.35628 6.31044C8.17628 6.37044 8.07627 6.44044 7.94627 6.53044C7.94627 6.56044 8.03627 6.51044 8.01627 6.49044C7.94627 6.66044 7.58627 6.73044 7.40627 6.90044C7.70627 6.88044 8.22627 6.48044 8.51627 6.37044C8.05627 6.67044 7.61627 6.86044 7.20627 7.17044C7.19627 7.13044 7.14628 7.21044 7.13628 7.15044C6.89628 7.30044 6.67627 7.39044 6.47627 7.50044C6.33627 7.58044 6.22626 7.73044 6.04626 7.73044C5.14626 8.17044 4.39628 8.55044 3.60628 8.83044C3.61628 8.76044 3.69627 8.84044 3.72627 8.77044C3.66627 8.77044 3.59626 8.80044 3.54626 8.79044C3.50626 8.89044 3.14627 9.02044 3.01627 8.89044C3.13627 8.86045 3.24627 8.86045 3.37627 8.80044C3.32627 8.77044 3.25628 8.84044 3.21628 8.79044C3.27628 8.73044 3.42627 8.70044 3.51627 8.67044C3.53627 8.65044 3.50627 8.64044 3.48627 8.65044C3.67627 8.55044 3.94627 8.56044 4.11627 8.38044C4.01627 8.40044 3.91627 8.52044 3.81627 8.48044C3.82627 8.45044 3.93628 8.43044 3.99628 8.39044C3.89628 8.39044 3.84628 8.42044 3.74628 8.46044C3.84628 8.49044 3.68628 8.49044 3.63628 8.54044C3.75628 8.41044 3.91627 8.31044 3.75627 8.24044C3.52627 8.33044 3.50627 8.36045 3.36627 8.43044C3.40627 8.45045 3.42627 8.41044 3.42627 8.48044L3.49628 8.44044C3.41628 8.48044 3.41627 8.59044 3.30627 8.66044C3.30627 8.64044 3.33628 8.63044 3.35628 8.61044C3.31628 8.56044 3.26628 8.57044 3.21628 8.59044C3.19628 8.54044 3.27627 8.53044 3.23627 8.48044C3.20627 8.44044 3.21627 8.51044 3.17627 8.51044C3.14627 8.46044 3.23627 8.46044 3.22627 8.42044C3.15627 8.45044 3.06627 8.45044 2.95627 8.52044C2.95627 8.50044 2.95627 8.48044 2.98627 8.47044C2.92627 8.45044 2.86628 8.53045 2.82628 8.56044C2.79628 8.48044 2.72628 8.54044 2.68628 8.48044C2.80628 8.50044 2.78628 8.38044 2.85628 8.45044C2.85628 8.31044 3.04627 8.30044 3.15627 8.19044C3.07627 8.20044 2.97628 8.26044 2.88628 8.29044C2.88628 8.26044 2.90627 8.24044 2.92627 8.23044C2.91627 8.22044 2.83628 8.21044 2.88628 8.25044C2.82628 8.25044 2.89627 8.17044 2.90627 8.14044C2.88627 8.14044 2.86627 8.15044 2.83627 8.08044C2.89627 8.03044 3.07627 8.06044 3.11627 7.93044C3.14627 7.93044 3.17627 7.93044 3.19627 7.95044C3.23627 7.90044 3.23627 7.85044 3.33627 7.82044C3.26627 7.90044 3.38627 7.84044 3.42627 7.89044C3.39627 7.83044 3.60628 7.77044 3.66628 7.70044C3.57627 7.70044 3.41627 7.81044 3.36627 7.84044C3.36627 7.82044 3.37627 7.80044 3.39627 7.79044C3.24627 7.84044 3.07627 7.90044 2.97627 8.03044C2.94627 7.98044 2.88627 8.03044 2.83627 8.03044C2.78627 8.06044 2.83628 8.13044 2.77628 8.16044C2.71628 8.06044 2.73627 8.03044 2.81627 7.96044C2.69627 8.00044 2.54627 8.15044 2.40627 7.98044C2.56627 8.04044 2.70628 7.98044 2.85628 7.88044C2.77628 7.88044 2.65627 8.00044 2.58627 7.97044C2.63627 7.95044 2.61628 7.92044 2.63628 7.88044C2.57628 7.85044 2.60628 7.86044 2.52628 7.86044C2.52628 7.81044 2.61628 7.86044 2.66628 7.81044C2.66628 7.75044 2.55627 7.83044 2.62627 7.77044C2.62627 7.74044 2.54627 7.75044 2.55627 7.79044C2.55627 7.77044 2.56628 7.68044 2.52628 7.63044C2.59628 7.57044 2.57627 7.62044 2.64627 7.54044C2.56627 7.47044 2.52628 7.64044 2.46628 7.62044C2.49628 7.65044 2.45627 7.76044 2.53627 7.72044C2.53627 7.81044 2.45627 7.76044 2.39627 7.74044C2.38627 7.69044 2.44628 7.72044 2.46628 7.70044C2.43628 7.56044 2.14627 7.52044 2.22627 7.39044C2.21627 7.34044 2.17627 7.38044 2.15627 7.37044C2.19627 7.27044 2.30627 7.26044 2.37627 7.18044C2.33627 7.18044 2.20628 7.24044 2.18628 7.28044C2.12628 7.28044 2.18628 7.23044 2.21628 7.23044C2.13628 7.14044 1.97628 7.34044 1.91628 7.35044C1.87628 7.32044 1.98627 7.22044 1.98627 7.16044C2.01627 7.16044 2.03628 7.19044 2.07628 7.16044C2.03628 7.22044 2.10627 7.17044 2.09627 7.23044C2.11627 7.12044 2.17627 7.11044 2.20627 7.01044C2.10627 6.98044 2.02628 7.05044 1.88628 7.01044C1.82628 7.08044 1.79627 7.11044 1.69627 7.11044C1.66627 7.06044 1.74627 6.98044 1.67627 6.96044L1.70627 6.85044ZM6.70627 3.66044C6.70627 3.60044 6.86627 3.59044 6.86627 3.54044C6.31627 3.82044 5.62627 4.07044 5.20627 4.42044C5.26627 4.40044 5.35627 4.32044 5.40627 4.33044C5.39627 4.35044 5.38627 4.36044 5.37627 4.38044C5.55627 4.25044 6.02627 4.06044 6.25627 3.87044C6.23627 3.88044 6.21628 3.89044 6.21628 3.91044C6.35628 3.85044 6.71627 3.73044 6.70627 3.65044V3.66044ZM2.29626 7.33044L2.34627 7.42044C2.59627 7.32044 2.91627 7.20044 3.12627 7.01044C2.89627 7.12044 2.72627 7.20044 2.55627 7.25044C2.55627 7.22044 2.51627 7.25044 2.55627 7.19044C2.42627 7.23044 2.41626 7.30044 2.29626 7.33044ZM3.11627 7.99044C3.20627 7.95044 3.39627 7.93044 3.47627 7.82044C3.42627 7.84044 3.28627 7.94044 3.34627 7.85044C3.26627 7.85044 3.17627 7.94044 3.11627 7.99044ZM12.4263 3.78044C12.4263 3.78044 12.3963 3.77044 12.3763 3.73044C12.2763 3.76044 12.1763 3.78044 12.0663 3.86044C12.1563 3.92044 12.3563 3.94044 12.4263 3.79044V3.78044ZM11.4363 4.26044C11.4763 4.33044 11.6763 4.22044 11.6463 4.15044C11.5563 4.16044 11.5363 4.21044 11.4363 4.26044ZM8.45627 5.94044C8.45627 5.94044 8.46627 5.92044 8.47627 5.94044C8.49627 5.86044 8.60627 5.88044 8.64627 5.81044C8.60627 5.81044 8.67627 5.81044 8.65627 5.76044C8.68627 5.77044 8.68627 5.75044 8.72627 5.72044C8.83627 5.63044 8.43628 5.85044 8.41628 5.88044C8.41628 5.88044 8.39627 5.87044 8.40627 5.88044C8.44627 5.85044 8.39627 5.94044 8.44627 5.92044L8.45627 5.94044ZM7.65627 6.39044C7.50627 6.49044 7.90627 6.29044 7.70627 6.39044C7.92627 6.29044 8.26627 6.09044 8.41628 5.95044C8.15627 6.12044 7.90627 6.23044 7.65627 6.40044V6.39044ZM8.02628 6.33044C8.11628 6.33044 8.10628 6.27044 8.18628 6.28044C8.80628 5.81044 9.36627 5.65044 9.97627 5.31044C9.31627 5.44044 8.64628 5.95044 8.02628 6.33044ZM8.91628 5.88044C8.91628 5.88044 8.77628 5.93044 8.77628 5.97044C8.81628 5.94044 8.91628 5.92044 8.91628 5.88044ZM7.14627 7.10044C7.09627 7.05044 7.01628 7.10044 6.96628 7.15044C7.02628 7.13044 7.07627 7.15044 7.14627 7.10044ZM7.68628 3.04044C7.74628 2.94044 7.85627 2.92044 7.94627 2.88044C8.01627 2.87044 7.82628 2.96044 7.93628 2.93044C7.90628 2.97044 7.76627 3.01044 7.69627 3.04044H7.68628ZM1.97627 6.17044C1.97627 6.17044 1.93628 6.14044 1.88628 6.10044C1.92628 6.10044 1.96627 6.08044 2.00627 6.08044C1.99627 6.11044 1.97627 6.15044 1.98627 6.19044C1.96627 6.19044 1.96627 6.18044 1.98627 6.17044H1.97627Z" fill="#124936"/>
</svg>
