<svg width="229" height="228" viewBox="0 0 229 228" fill="none" xmlns="http://www.w3.org/2000/svg">
<mask id="mask0_2972_18708" style="mask-type:luminance" maskUnits="userSpaceOnUse" x="0" y="0" width="229" height="228">
<path d="M0.5 228V114C0.5 51.04 51.54 0 114.5 0C177.46 0 228.5 51.04 228.5 114V228H0.5Z" fill="white"/>
</mask>
<g mask="url(#mask0_2972_18708)">
<path d="M182.098 111.41C180.698 111.45 178.198 111.33 177.758 111.5C179.158 111.46 181.658 111.58 182.098 111.41Z" fill="#F8F8F8"/>
<path d="M108.707 119.74C109.057 119.74 109.367 119.72 109.307 119.69C109.127 119.71 108.927 119.73 108.707 119.74Z" fill="#F8F8F8"/>
<path d="M12.6566 111.98C12.8166 111.87 13.4066 111.82 13.8966 111.76C13.1866 111.73 12.3166 111.72 11.7266 111.67C12.2066 111.83 11.9866 111.84 12.6566 111.93C12.4866 111.93 12.3066 111.97 12.6566 111.97V111.98Z" fill="#F8F8F8"/>
<path d="M90.0964 120.88C89.0964 120.97 86.6064 120.85 86.0664 121.01C87.4664 120.98 89.5564 121.04 90.0964 120.88Z" fill="#F8F8F8"/>
<path d="M74.918 120.96C76.168 120.93 78.208 121.02 78.948 120.92C78.188 120.87 75.218 120.81 74.918 120.96Z" fill="#F8F8F8"/>
<path d="M46.1064 111.63C45.8664 111.56 43.5564 111.56 43.3164 111.63C44.2364 111.69 44.6664 111.6 46.1064 111.63Z" fill="#F8F8F8"/>
<path d="M62.2181 111.67C61.8481 111.69 61.5181 111.72 61.2881 111.76C61.9281 111.73 63.3281 111.81 63.4581 111.72C63.0981 111.72 62.5781 111.72 62.5281 111.68C63.2681 111.65 64.7781 111.74 65.0081 111.64C62.9881 111.6 59.5081 111.54 57.5781 111.64C59.0281 111.67 61.2881 111.58 62.2281 111.68L62.2181 111.67Z" fill="#F8F8F8"/>
<path d="M33.4082 120.35C34.4582 120.29 35.5682 120.45 35.8882 120.35C35.0982 120.3 33.9282 120.21 33.4082 120.35Z" fill="#F8F8F8"/>
<path d="M86.3766 111.41C84.6166 111.44 82.0466 111.35 80.8066 111.45C83.0466 111.51 84.7166 111.5 86.3766 111.41Z" fill="#F8F8F8"/>
<path d="M138.728 111.76C136.608 111.71 140.658 111.73 139.348 111.67C137.588 111.65 135.628 111.57 133.768 111.71C135.218 111.72 137.838 111.81 138.728 111.75V111.76Z" fill="#F8F8F8"/>
<path d="M115.808 111.5C115.078 111.47 113.038 111.4 112.408 111.5C113.338 111.5 115.058 111.62 115.808 111.5Z" fill="#F8F8F8"/>
<path d="M10.4868 112.2C9.26678 112.2 8.99678 112.06 8.00678 112.02C7.86678 112.23 9.93678 112.34 10.4868 112.2Z" fill="#F8F8F8"/>
<path d="M236.241 115.09C239.001 114.58 238.061 113.81 239.961 113.2C238.791 113 237.441 112.85 237.171 112.63C240.161 112.19 236.911 111.69 234.381 111.45C234.621 111.45 234.991 111.45 235.001 111.41C234.121 111.41 233.711 111.49 232.831 111.5C224.681 111.29 214.781 111.13 204.951 111.28C200.971 111.34 196.241 111.2 190.391 111.32C187.281 111.39 183.851 111.48 180.481 111.54C179.951 111.54 173.681 111.57 177.691 111.67C171.601 111.6 165.831 111.95 161.271 111.5C156.811 111.67 150.821 111.63 145.161 111.63C144.421 111.37 139.541 111.32 137.731 111.5C138.671 111.53 140.401 111.44 140.831 111.54C139.311 111.65 136.911 111.63 134.631 111.63C134.491 111.79 133.151 111.77 132.461 111.85C126.881 111.85 122.851 111.88 118.011 111.89C117.951 92.3 117.881 73.23 117.771 57.88C117.791 57.03 117.761 53.72 117.731 56.02C117.701 61.59 117.751 63.89 117.641 68.72C117.641 60.98 117.421 53.09 117.551 44.25C117.531 43.45 117.421 43.32 117.421 42.39C117.331 36.08 117.731 30.28 117.461 24.73C117.581 15.32 118.271 -2.99998 116.501 -4.07998C116.181 -7.29998 115.531 -5.63998 114.971 -5.62998C114.461 -5.61998 113.921 -7.25998 113.481 -5.62998C112.971 -8.38998 112.201 -7.44998 111.591 -9.34998C111.391 -8.17998 111.241 -6.82998 111.021 -6.55998C110.581 -9.54998 110.081 -6.29998 109.841 -3.76998C109.841 -4.00997 109.841 -4.37998 109.801 -4.38998C109.801 -3.50998 109.881 -3.09998 109.891 -2.21998C109.681 5.93002 109.521 15.83 109.671 25.66C109.731 29.64 109.591 34.37 109.711 40.22C109.781 43.33 109.871 46.76 109.931 50.13C109.931 50.66 109.961 56.93 110.061 52.92C109.991 59.01 110.341 64.78 109.891 69.34C110.061 73.8 110.021 79.79 110.021 85.45C109.761 86.19 109.711 91.07 109.891 92.88C109.921 91.94 109.831 90.21 109.931 89.78C110.041 91.3 110.021 93.7 110.021 95.98C110.181 96.12 110.161 97.46 110.241 98.15C110.241 103.35 110.271 107.2 110.281 111.62C109.501 111.61 108.601 111.59 107.071 111.59C106.421 111.6 107.531 111.71 106.451 111.72C101.261 111.77 94.8708 111.72 90.3408 111.54C81.1908 111.74 68.9808 111.59 57.5108 111.67C58.5108 111.76 60.9908 111.64 61.5408 111.8C56.8108 111.86 54.7508 111.55 50.7008 111.89C34.8308 111.78 19.2308 111.94 3.93078 111.71C3.70078 111.85 4.78078 111.79 4.55078 111.93C4.11078 111.94 4.03078 112 3.62078 112.02C2.66078 112.01 1.87078 111.98 1.14078 111.93C0.350781 112.13 0.380781 112.22 -1.33922 112.24C-0.889219 112.49 -1.00922 112.52 -1.02922 112.72C0.830781 112.65 1.39078 112.81 2.69078 112.98C1.96078 112.98 1.78078 113.06 0.830781 113.02C0.900781 112.87 -1.28922 112.64 -2.26922 112.89C-1.14922 112.85 -1.83922 113.06 -1.64922 113.15C-1.95922 113.15 -2.01922 113.19 -2.26922 113.19C-4.27922 113.17 -6.15922 113.13 -7.53922 113.01C-8.36922 113.16 -9.23922 113.08 -10.0192 113.1C-9.01922 113.23 -10.9492 113.32 -10.9492 113.45C-9.34922 113.56 -8.55922 113.54 -6.91922 113.45C-4.99922 113.68 -3.08922 113.61 -1.64922 113.8C-3.05922 113.98 -4.12922 113.94 -5.36922 114.15C-4.69922 114.03 -6.21922 114.07 -5.05922 113.97C-6.04922 114.01 -6.23922 113.93 -6.60922 113.88C-7.05922 114.04 -9.68922 114.12 -9.39922 114.23C-8.41922 114.29 -4.11922 114.03 -3.51922 114.32C-4.14922 114.28 -5.44922 114.36 -4.44922 114.41C-3.81922 114.34 -1.05922 114.34 -0.419219 114.41C-2.28922 114.53 -4.14922 114.41 -5.68922 114.59C-5.39922 114.64 -4.54922 114.6 -4.75922 114.72C-7.21922 114.91 -2.73922 115.34 -3.51922 115.68C-4.06922 115.71 -4.80922 115.55 -5.06922 115.68C-4.27922 115.81 -3.39922 116.01 -2.58922 115.81C-4.25922 115.79 -2.59922 115.61 -2.89922 115.5C-2.05922 115.63 0.120782 115.3 0.820782 115.54C-1.06922 115.61 -0.289219 115.54 -1.96922 115.58C-1.73922 115.72 -2.51922 115.87 -2.79922 115.94C-2.48922 115.89 -1.53922 115.95 -1.65922 116.02C-3.35922 116.06 -0.859219 116.02 -1.34922 116.15C-2.57922 116.2 -3.52922 115.99 -4.13922 116.11C-2.88922 116.22 -3.33922 116.14 -2.58922 116.29C-3.25922 116.33 -3.23922 116.43 -4.13922 116.42C-3.26922 116.59 -0.119219 116.43 1.13078 116.55C-2.30922 116.62 -5.17922 116.55 -7.22922 116.24C-6.39922 116.78 -2.71922 116.62 -0.419219 116.68C-2.43922 116.73 -3.08922 116.78 -2.89922 117.07C-1.62922 117.07 -1.86922 116.87 -0.729218 116.85C0.0207815 116.91 1.34078 116.88 1.44078 117.03C4.26078 116.85 7.56078 116.91 10.4208 116.99C10.0508 117.01 9.72078 117.04 9.49078 117.08C10.6508 117.08 14.1408 117.04 15.6808 117.12C14.0708 117.19 10.1608 117.09 10.1108 117.25C9.89078 117.09 7.31078 117.07 9.18078 116.99C7.39078 116.94 6.86078 117.07 5.77078 117.12C5.46078 117.06 4.94078 117.03 4.53078 116.99C2.75078 117.23 0.040782 116.94 -1.34922 116.99C-1.54922 117.19 -1.13922 117.19 -0.729218 117.21C-1.05922 117.27 -2.90922 117.33 -1.96922 117.43C-2.23922 117.28 -1.16922 117.38 -1.03922 117.43C-1.61922 117.43 -2.07922 117.46 -2.27922 117.52C-0.549219 117.55 1.54078 117.53 2.99078 117.61C0.240781 117.71 -2.83922 117.53 -4.12922 117.83C-4.75922 117.6 -5.32922 117.88 -7.22922 117.7C-7.16922 117.88 -5.50922 117.84 -5.67922 118.05C-4.74922 118.05 -3.02922 117.93 -2.26922 118.05C-2.79922 118.05 -3.05922 118.08 -3.19922 118.14C-0.769218 118.11 0.750782 118.21 2.07078 118.23C1.94078 118.33 0.370782 118.23 0.520782 118.36C1.10078 118.4 1.56078 118.23 1.76078 118.36C1.99078 118.52 0.570782 118.46 0.520782 118.58C1.64078 118.6 2.49078 118.65 2.69078 118.8C2.23078 118.8 1.55078 118.78 1.45078 118.84C3.72078 118.81 4.74078 118.57 6.41078 118.58H4.86078C5.38078 118.42 4.79078 118.49 4.24078 118.4C7.20078 118.42 7.84078 118.37 12.2908 118.44C14.3408 118.79 10.7608 118.83 7.64078 118.97C8.86078 118.93 11.5408 119.1 10.1208 118.93C12.0508 118.96 13.1408 118.93 14.7708 119.06C13.4308 119.1 11.5208 119 11.0508 119.06C12.4608 119.26 15.1708 119.12 16.9408 119.19C12.6108 119.4 8.17078 119.05 4.24078 119.06C4.58078 119.07 4.98078 119.13 4.55078 119.15C2.82078 119.11 0.120781 119 -1.32922 119.06C-1.15922 119.23 0.610782 119.17 1.15078 119.28C-1.60922 119.28 -3.35922 119.13 -5.65922 119.06C-4.62922 119.49 2.45078 119.63 3.94078 119.45C4.73078 119.54 6.06078 119.56 7.04078 119.63C6.79078 119.66 6.57078 119.67 6.36078 119.67C21.1308 119.96 36.3208 119.99 54.1208 120.07C56.9908 120.29 60.0808 120.07 63.1008 120.07C67.3808 120.07 71.8308 120.12 77.0408 120.07C76.5608 120.23 78.0908 120.1 77.9708 120.2C87.4208 120 96.2708 120.1 106.471 119.98C100.751 119.88 88.6208 120.15 83.5508 119.85C87.7108 119.72 93.6908 119.93 96.5808 119.73C96.1108 119.73 95.5508 119.72 95.6308 119.68C98.6908 119.63 100.841 119.61 104.301 119.68C105.391 119.52 107.851 119.61 110.041 119.63C110.031 120.61 110.011 121.55 110.001 123.53C110.011 124.18 110.121 123.07 110.131 124.15C110.181 129.34 110.131 135.73 109.961 140.26C110.161 149.41 110.011 161.62 110.091 173.09C110.181 172.09 110.071 169.61 110.221 169.06C110.281 173.79 109.971 175.85 110.311 179.9C110.201 195.77 110.361 211.37 110.131 226.67C110.271 226.9 110.211 225.82 110.351 226.05C110.361 226.49 110.421 226.57 110.441 226.98C110.431 227.94 110.401 228.73 110.351 229.46C110.551 230.25 110.641 230.22 110.661 231.94C110.911 231.49 110.941 231.61 111.141 231.63C111.071 229.77 111.231 229.21 111.401 227.91C111.401 228.64 111.481 228.82 111.441 229.77C111.291 229.7 111.061 231.89 111.311 232.87C111.271 231.75 111.481 232.44 111.571 232.25C111.571 232.56 111.611 232.62 111.611 232.87C111.591 234.88 111.551 236.76 111.431 238.14C111.581 238.97 111.501 239.84 111.521 240.62C111.651 239.62 111.741 241.55 111.871 241.55C111.981 239.95 111.961 239.16 111.871 237.52C112.101 235.6 112.031 233.69 112.221 232.25C112.401 233.66 112.361 234.73 112.571 235.97C112.451 235.3 112.491 236.82 112.391 235.66C112.431 236.65 112.351 236.84 112.301 237.21C112.461 237.66 112.541 240.29 112.651 240C112.711 239.02 112.451 234.72 112.741 234.12C112.701 234.75 112.781 236.05 112.831 235.05C112.761 234.42 112.761 231.66 112.831 231.02C112.951 232.89 112.831 234.75 113.011 236.29C113.061 236 113.021 235.15 113.141 235.36C113.331 237.82 113.761 233.34 114.101 234.12C114.131 234.67 113.971 235.41 114.101 235.67C114.231 234.88 114.431 234 114.231 233.19C114.211 234.86 114.031 233.2 113.921 233.5C114.051 232.66 113.721 230.48 113.961 229.78C114.031 231.67 113.961 230.89 114.001 232.57C114.141 232.34 114.291 233.11 114.361 233.4C114.311 233.08 114.381 232.14 114.441 232.26C114.481 233.96 114.441 231.46 114.571 231.95C114.631 233.18 114.421 234.13 114.531 234.74C114.641 233.49 114.561 233.94 114.711 233.19C114.751 233.86 114.851 233.84 114.841 234.74C115.011 233.87 114.851 230.72 114.971 229.47C115.041 232.91 114.971 235.78 114.661 237.83C115.201 237 115.041 233.32 115.101 231.02C115.151 233.05 115.201 233.69 115.491 233.5C115.491 232.23 115.291 232.47 115.271 231.33C115.331 230.58 115.301 229.26 115.451 229.16C115.271 226.34 115.331 223.04 115.411 220.18C115.431 220.55 115.461 220.88 115.501 221.11C115.501 219.95 115.461 216.46 115.541 214.92C115.611 216.53 115.511 220.44 115.671 220.49C115.511 220.71 115.491 223.29 115.411 221.42C115.361 223.21 115.491 223.74 115.541 224.83C115.481 225.14 115.451 225.66 115.411 226.07C115.651 227.85 115.361 230.56 115.411 231.96C115.611 232.16 115.611 231.75 115.631 231.34C115.691 231.67 115.751 233.52 115.851 232.58C115.701 232.85 115.801 231.78 115.851 231.65C115.851 232.23 115.881 232.69 115.941 232.89C115.971 231.16 115.961 229.07 116.031 227.62C116.131 230.37 115.951 233.45 116.251 234.75C116.021 235.38 116.301 235.95 116.121 237.85C116.301 237.79 116.261 236.13 116.471 236.3C116.471 235.37 116.351 233.64 116.471 232.89C116.471 233.42 116.501 233.68 116.561 233.82C116.531 231.39 116.631 229.87 116.651 228.55C116.751 228.68 116.651 230.25 116.781 230.1C116.821 229.52 116.651 229.06 116.781 228.86C116.941 228.63 116.881 230.05 117.001 230.1C117.021 228.98 117.071 228.13 117.221 227.93C117.221 228.39 117.201 229.07 117.261 229.17C117.231 226.9 116.991 225.88 117.001 224.21V225.76C116.841 225.24 116.911 225.83 116.821 226.38C116.841 223.42 116.791 222.78 116.861 218.33C117.211 216.28 117.251 219.86 117.391 222.98C117.351 221.76 117.521 219.08 117.351 220.5C117.381 218.57 117.351 217.48 117.481 215.85C117.521 217.19 117.421 219.09 117.481 219.57C117.681 218.16 117.541 215.45 117.611 213.68C117.821 218.01 117.471 222.45 117.481 226.38C117.491 226.04 117.551 225.64 117.571 226.07C117.531 227.8 117.421 230.5 117.481 231.96C117.651 231.79 117.581 230.02 117.701 229.48C117.701 232.24 117.551 233.99 117.481 236.29C117.911 235.26 118.051 228.18 117.871 226.69C117.961 225.9 117.981 224.57 118.051 223.59C118.081 223.84 118.091 224.06 118.091 224.27C118.381 209.5 118.411 194.3 118.491 176.51C118.711 173.64 118.491 170.55 118.491 167.53C118.491 163.25 118.541 158.8 118.491 153.59C118.651 154.07 118.521 152.54 118.621 152.66C118.421 143.21 118.521 134.36 118.401 124.16C118.301 129.88 118.571 142.01 118.271 147.08C118.141 142.92 118.351 136.94 118.151 134.05C118.151 134.52 118.141 135.08 118.101 135C118.051 131.94 118.031 129.79 118.101 126.33C117.921 125.12 118.061 122.17 118.061 119.83C118.061 119.76 118.061 119.7 118.061 119.63C137.891 119.57 157.231 119.5 172.761 119.39C173.611 119.41 176.921 119.38 174.621 119.35C169.051 119.32 166.751 119.37 161.921 119.26C169.661 119.26 177.551 119.04 186.391 119.17C187.191 119.15 187.331 119.04 188.251 119.04C194.561 118.95 200.361 119.35 205.911 119.08C215.321 119.2 233.641 119.89 234.721 118.12C237.941 117.8 236.281 117.15 236.271 116.59C236.261 116.08 237.901 115.54 236.271 115.1L236.241 115.09ZM-4.43922 115.13V114.87C-2.07922 114.97 -1.42922 114.8 1.13078 114.87C-0.0292187 114.94 0.750781 114.94 0.510781 115C3.69078 115.09 7.23078 115.11 11.9708 115.13C6.77078 115.3 0.430781 115.2 -4.44922 115.13H-4.43922ZM3.30078 117.28C4.60078 117.23 6.94078 117.14 8.25078 117.24C6.61078 117.38 9.67078 117.31 10.7308 117.33C8.50078 117.49 5.12078 117.3 3.30078 117.29V117.28ZM118.431 153.28C118.461 154.85 118.371 155.54 118.341 156.69C118.291 155.52 118.261 153.78 118.431 153.28ZM117.201 53.85C117.401 53.86 117.401 58.15 117.201 58.19C117.201 56.2 117.121 55.47 117.201 53.85ZM110.321 118.87C110.321 118.87 110.321 118.96 110.321 119.01C110.301 119.01 110.281 119.01 110.261 119.01V118.87H110.321ZM110.321 119.26V119.34H110.271V119.26H110.321ZM117.251 119.2H117.411C117.411 119.2 117.411 119.28 117.411 119.32H117.261C117.261 119.32 117.261 119.24 117.261 119.2H117.251ZM117.641 119.2H117.721C117.721 119.2 117.721 119.29 117.721 119.33H117.641V119.2ZM117.811 91.33C117.831 98.58 117.741 105.07 117.711 111.88H117.571C117.531 104.61 117.561 97.52 117.801 91.33H117.811ZM117.111 38.05C117.221 38.09 117.251 38.64 117.291 37.74C117.541 40.18 117.271 43.31 117.031 44.25C117.001 41.8 117.071 40.03 117.121 38.06L117.111 38.05ZM110.271 111.88V111.91C109.661 111.91 109.081 111.89 108.611 111.88C109.161 111.88 109.721 111.88 110.271 111.88ZM108.611 118.9C108.671 118.85 108.921 118.88 108.921 118.9C109.041 118.9 109.451 118.88 110.021 118.87C110.021 118.92 110.021 118.97 110.021 119.01C109.741 119.01 109.471 119.03 109.231 119.07C109.311 118.99 108.941 118.98 108.921 119.03C107.821 119.03 109.581 118.89 108.611 118.9ZM73.9208 119.95C75.0908 119.9 76.8308 119.87 77.3308 120.04C75.7608 120.07 75.0708 119.98 73.9208 119.95ZM71.7508 111.97C71.9808 111.93 72.3108 111.9 72.6808 111.88C71.9508 111.78 69.9008 111.86 68.6508 111.84C78.6808 111.55 92.1908 111.81 103.651 111.84C103.121 111.97 100.471 111.8 99.9408 111.93C99.6108 112.12 92.5608 111.95 89.7208 111.93C89.7308 111.92 89.7708 111.91 89.8208 111.91C84.3108 112.03 75.5808 111.91 71.7508 111.98V111.97ZM92.8108 119.12C96.9408 119.15 88.5108 119.12 91.8808 119.08C97.4908 119 102.571 119.06 108.301 118.99C104.571 119.11 97.2208 119.16 92.8108 119.12ZM101.481 119.47C100.121 119.34 99.8808 119.47 98.3808 119.38C102.141 119.35 106.061 119.31 110.011 119.26V119.34C107.291 119.36 104.471 119.4 101.481 119.47ZM110.301 119.64C110.291 120.51 110.271 121.34 110.261 121.99C110.261 121.2 110.261 120.4 110.261 119.64H110.301ZM110.351 158.85C110.311 158.62 110.281 158.29 110.261 157.92C110.161 158.65 110.241 160.7 110.221 161.95C109.931 151.92 110.191 138.41 110.221 126.95C110.351 127.48 110.181 130.13 110.311 130.66C110.501 130.99 110.331 138.04 110.311 140.88C110.301 140.87 110.291 140.83 110.291 140.78C110.411 146.3 110.291 155.01 110.361 158.85H110.351ZM113.511 235.05H113.251C113.351 232.69 113.181 232.04 113.251 229.48C113.321 230.64 113.321 229.86 113.381 230.1C113.471 226.92 113.491 223.38 113.511 218.64C113.681 223.84 113.581 230.17 113.511 235.06V235.05ZM115.661 227.31C115.611 226.01 115.521 223.67 115.621 222.36C115.761 224 115.691 220.94 115.711 219.88C115.871 222.11 115.681 225.49 115.671 227.31H115.661ZM117.281 121.99C117.231 121.93 117.261 121.68 117.281 121.68C117.271 121.5 117.251 120.66 117.241 119.62H117.391C117.391 120.27 117.391 120.88 117.451 121.37C117.371 121.29 117.361 121.66 117.411 121.68C117.411 122.78 117.271 121.02 117.281 121.99ZM117.461 138.72C117.381 133.11 117.441 128.03 117.371 122.3C117.491 126.03 117.541 133.38 117.501 137.79C117.531 133.66 117.501 142.09 117.461 138.72ZM117.851 129.12C117.721 130.48 117.851 130.72 117.761 132.22C117.731 128.15 117.681 123.9 117.631 119.63H117.711C117.731 122.64 117.771 125.78 117.841 129.12H117.851ZM118.021 119.33V119.2C125.531 119.15 132.871 119.18 139.261 119.43C131.761 119.45 125.081 119.35 118.021 119.33ZM172.411 118.81C174.401 118.81 175.131 118.73 176.751 118.81C176.741 119.01 172.451 119.01 172.411 118.81ZM186.351 118.63C188.801 118.6 190.571 118.68 192.541 118.72C192.501 118.83 191.951 118.86 192.851 118.9C190.411 119.15 187.281 118.88 186.341 118.64L186.351 118.63Z" fill="#F8F8F8"/>
<path d="M101.967 111.91C102.247 111.91 102.527 111.9 102.797 111.89C102.507 111.89 102.147 111.89 101.967 111.91Z" fill="#F8F8F8"/>
<path d="M111.778 111.89C110.838 111.92 109.108 111.83 108.678 111.93C109.618 111.9 111.348 111.99 111.778 111.89Z" fill="#F8F8F8"/>
<path d="M16.6875 119.65C17.2475 119.66 17.8075 119.67 18.3675 119.68C17.7575 119.66 17.2975 119.55 16.6875 119.65Z" fill="#F8F8F8"/>
<path d="M114.877 119.87C116.027 119.84 117.957 119.93 118.597 119.83C117.447 119.86 115.507 119.77 114.877 119.87Z" fill="#F8F8F8"/>
<path d="M9.34805 115.98C9.34805 115.98 9.25805 116 9.24805 116.01C9.25805 116.01 9.29805 115.99 9.34805 115.98Z" fill="#F8F8F8"/>
<path d="M109.891 65C109.851 63.6 109.971 61.1 109.801 60.66C109.841 62.06 109.721 64.56 109.891 65Z" fill="#F8F8F8"/>
<path d="M122.297 104.03C122.247 106.15 122.267 102.1 122.207 103.41C122.187 105.17 122.107 107.13 122.247 108.99C122.257 107.54 122.347 104.92 122.287 104.03H122.297Z" fill="#F8F8F8"/>
<path d="M122.427 130.98C122.457 131.92 122.367 133.65 122.467 134.08C122.437 133.14 122.527 131.41 122.427 130.98Z" fill="#F8F8F8"/>
<path d="M121.988 161.96C122.048 159.72 122.038 158.05 121.948 156.39C121.978 158.15 121.888 160.72 121.988 161.96Z" fill="#F8F8F8"/>
<path d="M130.356 124.17C130.386 125.32 130.296 127.26 130.396 127.89C130.366 126.74 130.456 124.81 130.356 124.17Z" fill="#F8F8F8"/>
<path d="M122.448 140.79C122.448 140.51 122.438 140.22 122.428 139.96C122.428 140.25 122.428 140.62 122.448 140.79Z" fill="#F8F8F8"/>
<path d="M130.277 134.06C130.277 133.71 130.257 133.4 130.227 133.46C130.247 133.64 130.267 133.84 130.277 134.06Z" fill="#F8F8F8"/>
<path d="M131.458 163.82C131.408 164.58 131.348 167.55 131.498 167.85C131.468 166.6 131.558 164.56 131.458 163.82Z" fill="#F8F8F8"/>
<path d="M131.548 156.69C131.518 155.29 131.578 153.2 131.418 152.66C131.508 153.66 131.388 156.15 131.548 156.69Z" fill="#F8F8F8"/>
<path d="M130.188 226.08C130.198 225.52 130.208 224.96 130.218 224.4C130.198 225.01 130.088 225.48 130.188 226.08Z" fill="#F8F8F8"/>
<path d="M122.168 177.75C122.128 179.77 122.068 183.24 122.168 185.18C122.198 183.73 122.108 181.47 122.208 180.53C122.228 180.9 122.258 181.23 122.298 181.46C122.268 180.82 122.348 179.42 122.258 179.29C122.258 179.65 122.258 180.17 122.218 180.22C122.188 179.48 122.278 177.97 122.178 177.74L122.168 177.75Z" fill="#F8F8F8"/>
<path d="M122.168 196.65C122.098 196.89 122.098 199.2 122.168 199.44C122.228 198.52 122.138 198.09 122.168 196.65Z" fill="#F8F8F8"/>
<path d="M122.038 126.96C122.008 127.69 121.938 129.73 122.038 130.36C122.038 129.43 122.158 127.71 122.038 126.96Z" fill="#F8F8F8"/>
<path d="M130.887 206.87C130.837 207.66 130.747 208.83 130.887 209.35C130.827 208.3 130.987 207.19 130.887 206.87Z" fill="#F8F8F8"/>
<path d="M68.0763 183.29C67.4263 183.32 66.4763 183.23 66.0263 183.33C66.8463 183.39 67.4663 183.38 68.0763 183.29ZM94.5063 199.78C94.3763 199.59 94.6963 198.71 94.7663 198.2C94.8963 198.39 94.5863 199.27 94.5063 199.78ZM77.6663 183.38C77.8963 183.28 78.6463 183.35 78.9163 183.38C78.6363 183.5 78.0063 183.38 77.6663 183.38ZM52.2263 183.51C52.3163 183.44 53.1663 183.44 53.2563 183.51C52.7263 183.48 52.5663 183.57 52.2263 183.51ZM60.2163 183.51C60.1263 183.61 59.5763 183.53 59.3063 183.55C59.3263 183.6 59.5163 183.59 59.6463 183.59C59.5963 183.69 59.0863 183.61 58.8463 183.63C58.9263 183.59 59.0563 183.56 59.1863 183.54C58.8363 183.44 58.0063 183.52 57.4763 183.5C58.1863 183.4 59.4663 183.46 60.2163 183.5V183.51ZM76.3063 183.82C76.4663 183.72 77.0963 183.8 77.4463 183.78C77.2863 183.88 76.6563 183.8 76.3063 183.82ZM39.2263 183.91C39.5863 183.95 39.6863 184.08 40.1363 184.09C39.9363 184.23 39.1763 184.12 39.2263 183.91ZM78.5863 191.76C78.8163 191.66 79.5363 191.74 79.9563 191.72C79.7263 191.82 79.0063 191.74 78.5863 191.76ZM49.4963 192.24C49.3763 192.34 48.9763 192.18 48.5863 192.24C48.7763 192.1 49.2063 192.19 49.4963 192.24ZM65.3563 192.81C65.0863 192.91 64.3363 192.83 63.8763 192.85C63.9863 192.7 65.0763 192.75 65.3563 192.81ZM69.4663 192.77C69.2663 192.93 68.4963 192.87 67.9863 192.9C68.1863 192.74 69.1063 192.86 69.4663 192.77ZM37.0663 185.01C37.3563 184.99 37.6763 185.07 37.9763 184.92C38.4863 185.03 39.1763 185.07 39.9163 185.1C40.0063 185.1 40.0263 185.06 40.1463 185.06C40.0763 184.97 40.3363 184.76 39.9163 184.8C40.2763 184.56 41.0863 184.79 41.0563 184.93C41.4063 184.96 41.4763 184.89 41.7463 184.89C41.2663 184.72 41.0563 184.56 40.3763 184.63C40.3763 184.43 40.4263 184.4 40.2663 184.15C40.8963 184.13 40.8863 184.04 41.1763 183.84C41.4463 183.88 41.7363 183.92 42.0863 183.93C42.2363 183.91 42.2663 183.85 42.4263 183.84C42.5163 183.7 42.1163 183.76 42.1963 183.62C47.8363 183.85 53.5763 183.68 59.4263 183.8C60.9163 183.46 61.6763 183.78 63.4163 183.71C63.2163 183.55 62.2963 183.67 61.9363 183.58C66.1663 183.5 70.6563 183.65 74.0263 183.45C75.6963 183.63 78.0463 183.67 79.9563 183.63C80.3563 183.62 79.9463 183.51 80.1863 183.5C81.5363 183.52 81.5663 183.57 82.8063 183.54C82.6463 183.83 81.6463 183.8 80.7563 183.8C81.6663 183.84 83.5663 183.94 83.6063 183.8C86.6863 183.78 89.0363 183.77 92.4363 183.76C92.9663 183.68 93.8863 183.7 94.1163 183.54C95.4663 183.54 96.8663 183.55 97.9763 183.49C97.9463 183.69 97.9163 183.86 97.9063 184.01C97.9663 183.88 98.0363 183.66 98.0963 183.4C97.5963 183.4 96.8763 183.42 96.4463 183.4C96.8963 183.35 97.5263 183.31 98.2063 183.3C97.9163 184.75 97.4163 186.61 97.1263 187.07C96.6963 189.02 96.2463 191.03 95.8263 192.93C95.7263 193.41 95.6263 193.88 95.5263 194.34C95.4763 194.56 95.4363 194.78 95.3963 194.99L95.3363 195.34C95.2563 195.8 95.1863 196.25 95.1363 196.66C94.3263 198.2 94.2063 200.35 93.6463 202.52C94.0663 201.1 93.5863 203.36 93.5463 203.55C93.3463 204.78 93.1463 206.03 92.9663 207.16C92.6163 209.29 92.1063 210.96 91.8463 212.4C91.2063 215.96 90.2563 219.49 89.3963 222.37C89.3363 222.69 89.3763 222.85 89.3063 223.17C89.2663 223.16 89.3063 223.03 89.3063 222.94C88.8663 223.8 88.1163 224.86 87.9263 223.69C87.6863 223.74 87.4363 224.19 87.1463 224.57C86.7063 223.76 85.8763 223.93 85.6063 222.82C85.0463 223.31 84.6463 222.6 84.1563 222.5C83.5963 222.38 82.8463 222.84 82.7863 221.61C81.1363 220.84 83.2763 214.4 84.1563 211.04C84.3363 208.99 85.1963 206.99 85.6163 204.7C85.6863 204.37 85.5863 204.3 85.6363 204C86.4663 200.85 86.8863 197.97 87.5063 195.18C87.0163 196.89 86.8763 197.73 86.4063 199.73C86.1963 200.55 86.4263 199.35 86.5163 199.05C86.8563 197.39 87.2263 195.61 87.6263 193.66C87.7563 192.98 87.8963 192.25 88.0463 191.44C87.5963 191.46 87.0763 191.47 86.5263 191.49C84.9363 191.5 83.2463 191.52 81.5663 191.53C80.7063 191.53 79.6163 191.39 79.1663 191.57C77.8963 191.5 77.0963 191.52 75.9763 191.57C75.9263 191.64 76.5963 191.64 76.5463 191.57C75.5963 191.86 73.1763 191.61 71.5263 191.75C73.3963 192.05 77.8663 191.78 79.9663 191.88C76.2063 192 72.9463 191.9 69.4663 192.1C69.5063 191.99 68.9463 192.12 69.1263 191.97C67.2063 192.02 65.5663 191.97 63.9963 191.97C62.8863 191.97 61.7463 192.19 60.6863 191.97C53.8663 191.88 48.0863 191.86 42.4363 191.53C42.7463 191.39 42.9563 191.67 43.3463 191.53C42.9863 191.46 42.4963 191.45 42.2063 191.35C41.6563 191.53 39.0463 191.39 38.6663 190.96C39.5163 191.03 40.1563 191.18 41.1763 191.18C40.9763 191.07 40.3263 191.13 40.2663 190.96C40.8063 190.9 41.7963 191.01 42.4363 191.05C42.5963 191.03 42.4463 190.97 42.3263 190.96C43.7763 190.96 45.4063 191.3 47.0063 191.09C46.3563 191.02 45.3563 191.16 44.8363 190.96C45.0063 190.9 45.7163 191 46.2063 190.96C45.6063 190.83 45.2063 190.86 44.4963 190.83C45.0163 191.01 44.0363 190.83 43.5863 190.87C44.7363 190.73 46.0463 190.69 45.2963 190.34C43.6563 190.27 43.4263 190.31 42.3263 190.3C42.5263 190.39 42.7463 190.31 42.5563 190.48H43.1263C42.5163 190.48 42.1363 190.71 41.2963 190.74C41.3363 190.68 41.5863 190.7 41.7563 190.7C41.6863 190.55 41.3663 190.5 40.9563 190.48C40.9763 190.36 41.4963 190.43 41.4163 190.26C41.3363 190.13 41.1763 190.3 40.9563 190.26C40.8963 190.12 41.4763 190.23 41.5263 190.13C41.0463 190.11 40.4863 190.02 39.5863 190.04C39.6363 189.99 39.7363 189.95 39.9263 189.95C39.6463 189.83 39.0163 189.95 38.6763 189.95C38.7363 189.74 38.1263 189.78 38.1063 189.6C38.8063 189.78 39.0163 189.5 39.2463 189.73C39.7263 189.43 40.8563 189.61 41.8663 189.51C41.3363 189.44 40.5663 189.46 39.9263 189.42C40.0063 189.36 40.1663 189.34 40.3863 189.33C40.3363 189.28 39.9463 189.18 40.0463 189.33C39.6963 189.24 40.3763 189.17 40.5063 189.11C40.3563 189.09 40.2063 189.09 40.2763 188.89C40.7863 188.84 41.7863 189.13 42.4463 188.89C42.5963 188.93 42.7863 188.96 42.9063 189.02C43.3063 188.97 43.4963 188.84 44.1563 188.89C43.4663 188.98 44.4163 188.99 44.4963 189.15C44.5163 188.99 45.9563 189.09 46.5463 189.02C45.9763 188.94 44.6963 188.98 44.2663 188.98C44.3463 188.94 44.4763 188.91 44.6063 188.89C43.5463 188.82 42.3363 188.76 41.2963 188.93C41.2663 188.78 40.7763 188.81 40.4963 188.75C40.0763 188.76 40.1663 188.97 39.6963 188.97C39.6263 188.67 39.8663 188.62 40.6063 188.58C39.7563 188.52 38.4063 188.68 38.0963 188.14C38.8563 188.45 39.9063 188.51 41.1763 188.45C40.7163 188.33 39.5563 188.49 39.2363 188.32C39.5663 188.33 39.5563 188.23 39.8063 188.19C39.5263 188.04 39.6963 188.12 39.2363 188.01C39.4563 187.9 39.8063 188.11 40.2663 188.05C40.4463 187.92 39.5263 187.96 40.1563 187.92C40.2063 187.85 39.7363 187.77 39.6963 187.88C39.7263 187.82 40.1363 187.65 40.0363 187.49C40.6563 187.45 40.3663 187.52 41.0663 187.45C40.8063 187.21 40.0063 187.53 39.6963 187.41C39.8063 187.52 39.1963 187.7 39.8063 187.72C39.5063 187.92 39.1863 187.72 38.8963 187.59C38.9963 187.46 39.2663 187.62 39.4663 187.59C39.7563 187.24 38.1063 186.81 39.0063 186.63C39.0863 186.51 38.7663 186.55 38.6663 186.5C39.2363 186.31 39.9163 186.44 40.6063 186.32C40.3763 186.25 39.3563 186.25 39.1263 186.32C38.7563 186.27 39.2363 186.2 39.4663 186.23C39.2463 185.94 37.6563 186.2 37.2963 186.14C37.1863 186.02 38.1563 185.95 38.3263 185.79C38.4663 185.84 38.5363 185.92 38.8963 185.88C38.4663 185.98 39.0263 185.94 38.7863 186.06C39.2463 185.85 39.6363 185.89 40.1563 185.71C39.6263 185.52 38.9263 185.59 38.2163 185.36C37.6163 185.45 37.3263 185.47 36.7363 185.36C36.7363 185.22 37.4463 185.14 37.0763 185.01H37.0663ZM77.5663 183.83C77.7663 183.7 78.7363 183.87 78.9363 183.74C74.7163 183.71 69.7363 183.45 66.0463 183.74C66.5063 183.77 67.2563 183.68 67.5263 183.78C67.3863 183.8 67.2663 183.83 67.1863 183.87C68.6663 183.79 72.1463 183.93 74.1463 183.78C74.0163 183.78 73.8263 183.78 73.8063 183.82C74.8563 183.84 77.4463 184.01 77.5763 183.82L77.5663 183.83ZM39.1163 186.77V187.03C40.9163 187.1 43.2463 187.2 45.1663 187.03C43.4163 187 42.1163 186.99 40.9463 186.9C41.0363 186.84 40.7463 186.84 41.1763 186.77C40.2363 186.7 39.9863 186.87 39.1263 186.77H39.1163ZM41.9663 189.18C42.6363 189.2 43.8863 189.38 44.7063 189.22C44.3163 189.21 43.1863 189.27 43.7963 189.13C43.3163 189.04 42.4463 189.13 41.9763 189.17L41.9663 189.18ZM85.3663 206.4C85.4763 206.08 85.4563 206.29 85.5663 206.33C85.7663 205.63 85.9763 205.01 86.1463 204.12C85.8363 204.4 85.3263 205.47 85.3663 206.4ZM87.0863 199.07C86.8963 199.04 86.5463 200.58 86.7363 200.63C86.9463 200.07 86.9163 199.78 87.0863 199.07ZM80.8663 190.93C80.8663 190.93 81.0163 190.9 80.9763 190.97C81.3663 190.82 81.9363 190.99 82.4563 190.88C82.2163 190.82 82.6163 190.9 82.6863 190.79C82.8363 190.85 82.9263 190.8 83.2563 190.79C84.1863 190.71 81.0863 190.74 80.8563 190.79C80.8563 190.77 80.7663 190.74 80.7463 190.79C81.1063 190.78 80.4563 190.92 80.8563 190.92L80.8663 190.93ZM74.5963 190.97C73.3563 191.02 76.4563 191.05 74.9363 191.01C76.5663 191.05 79.2663 191 80.6363 190.88C78.5263 190.95 76.6563 190.88 74.5863 190.97H74.5963ZM76.9963 191.28C77.5463 191.36 77.6363 191.24 78.1363 191.37C80.7663 191.21 83.0563 191.21 85.2763 191.24H86.1063L86.4563 191.27L86.9963 191.3C87.3563 191.32 87.7063 191.33 88.0963 191.33C87.8863 191.21 87.5063 191.14 87.0663 191.11C86.8463 191.09 86.6163 191.08 86.3763 191.08C85.8263 191.08 85.2763 191.08 84.7163 191.09C82.1263 191.16 79.4663 191.22 76.9863 191.28H76.9963ZM83.8363 191.32C83.4863 191.35 82.8563 191.26 82.6963 191.36C83.0463 191.33 83.6763 191.42 83.8363 191.32ZM69.2363 191.93C69.0563 191.77 68.4063 191.79 67.9763 191.84C68.3963 191.87 68.6563 191.96 69.2363 191.93ZM85.5463 183.6C85.9363 183.46 87.7163 183.54 88.8563 183.56C89.7563 183.62 86.9363 183.6 88.3963 183.65C88.0863 183.68 87.4763 183.67 86.8163 183.65C86.3663 183.63 85.8863 183.62 85.5463 183.6ZM40.9363 183.82C40.6863 183.72 40.7763 183.72 40.5963 183.56C40.8163 183.61 41.1363 183.62 41.3963 183.65C41.2163 183.71 40.9963 183.76 40.9363 183.87C40.8063 183.87 40.8763 183.83 40.9363 183.83V183.82Z" fill="#124936"/>
<path d="M64.8873 228.62C65.4473 228.59 66.2773 228.68 66.6773 228.58C65.9573 228.52 65.4173 228.53 64.8873 228.62ZM40.9773 210.95C41.1773 211.05 41.2073 211.87 41.3273 212.3C41.1273 212.2 41.0973 211.38 40.9773 210.95ZM56.5373 228.54C56.3373 228.64 55.6773 228.57 55.4473 228.54C55.6873 228.42 56.2373 228.54 56.5373 228.54ZM78.7073 228.41C78.6273 228.48 77.8873 228.48 77.8073 228.41C78.2673 228.44 78.4073 228.35 78.7073 228.41ZM71.7473 228.41C71.8173 228.31 72.3073 228.39 72.5473 228.37C72.5273 228.32 72.3673 228.33 72.2473 228.33C72.2873 228.23 72.7373 228.31 72.9473 228.29C72.8773 228.33 72.7673 228.36 72.6473 228.38C72.9473 228.48 73.6773 228.4 74.1373 228.42C73.5173 228.52 72.3973 228.46 71.7473 228.42V228.41ZM57.7273 228.1C57.5873 228.2 57.0373 228.12 56.7373 228.14C56.8773 228.04 57.4273 228.12 57.7273 228.1ZM90.0373 228.01C89.7173 227.97 89.6373 227.84 89.2473 227.83C89.4173 227.69 90.0873 227.8 90.0373 228.01ZM55.7373 220.16C55.5373 220.26 54.9073 220.18 54.5473 220.2C54.7473 220.1 55.3773 220.18 55.7373 220.16ZM81.0873 219.68C81.1873 219.58 81.5473 219.74 81.8773 219.68C81.7073 219.82 81.3373 219.73 81.0873 219.68ZM67.2673 219.11C67.5073 219.01 68.1573 219.09 68.5573 219.07C68.4673 219.22 67.5073 219.17 67.2673 219.11ZM63.6873 219.15C63.8573 218.99 64.5273 219.05 64.9773 219.02C64.8073 219.18 64.0073 219.06 63.6873 219.15ZM91.9273 226.91C91.6773 226.93 91.3973 226.85 91.1273 227C90.6873 226.89 90.0873 226.85 89.4373 226.82C89.3573 226.82 89.3373 226.86 89.2373 226.86C89.2973 226.95 89.0773 227.16 89.4373 227.12C89.1273 227.36 88.4173 227.13 88.4473 226.99C88.1473 226.96 88.0873 227.03 87.8473 227.03C88.2673 227.2 88.4473 227.36 89.0373 227.29C89.0373 227.49 88.9873 227.52 89.1373 227.77C88.5873 227.79 88.5973 227.88 88.3373 228.08C88.1073 228.04 87.8473 228 87.5373 227.99C87.4073 228.01 87.3773 228.07 87.2373 228.08C87.1673 228.22 87.5073 228.16 87.4373 228.3C82.5273 228.07 77.5173 228.24 72.4273 228.12C71.1273 228.46 70.4673 228.14 68.9473 228.21C69.1173 228.37 69.9173 228.25 70.2373 228.34C66.5573 228.42 62.6373 228.27 59.6973 228.47C58.2473 228.29 56.1873 228.25 54.5273 228.29C54.1773 228.3 54.5273 228.41 54.3273 228.42L53.1473 228.38H51.7973C51.8673 228.3 52.0273 228.25 52.2373 228.21C52.4173 228.17 52.5173 228.15 52.6973 228.13C53.0273 228.1 53.4473 228.11 53.8373 228.1C53.4373 228.08 52.8273 228.06 52.3073 228.03C51.3573 228.02 50.5773 228.03 50.5173 228.1C48.5073 228.11 46.7873 228.12 44.7673 228.13C44.5573 227.06 44.2973 225.76 44.0073 224.28C43.8573 223.92 43.7173 223.11 43.5573 223.1C43.4173 222.41 43.2873 221.71 43.1573 221.06C43.0773 220.67 43.0573 220.63 43.0073 220.45C42.9673 220.3 42.9173 220.17 42.8673 220.06C42.8273 220.14 42.8673 220.31 42.9073 220.5C42.9273 220.59 42.9473 220.69 42.9773 220.79C43.0073 220.94 43.0473 221.14 43.0673 221.27C43.0173 221.14 42.9673 220.96 42.9173 220.8C42.8873 220.71 42.8473 220.6 42.8173 220.49C42.7573 220.26 42.7073 220.01 42.6673 219.77C42.5973 219.28 42.5873 218.82 42.6873 218.68C42.3373 216.9 42.0073 215 41.5673 213.63C41.7373 212.11 41.0373 210.36 40.7273 208.42C40.8773 209.7 40.4673 207.73 40.4273 207.57C40.1673 206.52 39.8573 205.45 39.6073 204.49C39.1273 202.67 38.9773 201.15 38.6673 199.91C37.9173 196.84 37.4673 193.69 37.1673 191.08C37.1073 190.81 37.0073 190.69 36.9473 190.41C36.9873 190.41 37.0073 190.52 37.0273 190.6C37.1173 189.76 37.4073 188.64 38.0173 189.49C38.2173 189.36 38.2773 188.91 38.4073 188.5C39.1173 188.98 39.8173 188.54 40.4873 189.31C40.8173 188.71 41.4473 189.13 41.9473 189.03C42.5073 188.92 43.0273 188.27 43.5473 189.22C45.3573 189.22 45.8073 195.12 46.2573 198.11C46.8573 199.8 46.8173 201.71 47.2973 203.68C47.3573 203.97 47.4773 203.99 47.5373 204.24C47.9573 207.05 48.6573 209.49 49.1273 211.93C48.9373 210.39 48.7473 209.67 48.4373 207.91C48.3273 207.18 48.5573 208.22 48.5973 208.49C49.0373 210.56 49.5273 212.84 50.0473 215.3C50.3073 216.53 50.5673 217.81 50.8473 219.13C50.9373 219.53 51.0373 219.95 51.1373 220.38L51.7973 220.36H52.1573L53.1173 220.34C53.8673 220.34 54.8173 220.48 55.2073 220.3C56.3173 220.37 57.0073 220.35 57.9873 220.3C58.0273 220.23 57.4473 220.23 57.4873 220.3C58.3173 220.01 60.4273 220.26 61.8573 220.12C60.2273 219.82 56.3373 220.09 54.4973 219.99C57.7673 219.87 60.6173 219.97 63.6473 219.77C63.6073 219.88 64.0973 219.75 63.9473 219.9C65.6173 219.85 67.0473 219.9 68.4173 219.9C69.3873 219.9 70.3773 219.68 71.2973 219.9C77.2373 219.99 82.2773 220.01 87.2073 220.34C86.9373 220.48 86.7573 220.2 86.4073 220.34C86.7173 220.41 87.1473 220.42 87.3973 220.52C87.8773 220.34 90.1473 220.48 90.4773 220.91C89.7373 220.84 89.1773 220.69 88.2873 220.69C88.4573 220.8 89.0273 220.74 89.0873 220.91C88.6173 220.97 87.7573 220.86 87.1973 220.82C87.0573 220.84 87.1973 220.9 87.2973 220.91C86.0373 220.91 84.6073 220.57 83.2173 220.78C83.7873 220.85 84.6573 220.71 85.1073 220.91C84.9573 220.97 84.3473 220.87 83.9173 220.91C84.4373 221.04 84.7873 221.01 85.4073 221.04C84.9473 220.86 85.8073 221.04 86.2073 221C85.2073 221.14 84.0573 221.18 84.7173 221.53C86.1473 221.6 86.3473 221.56 87.2973 221.57C87.1173 221.48 86.9273 221.56 87.0973 221.39H86.5973C87.1373 221.39 87.4573 221.16 88.1873 221.13C88.1573 221.19 87.9373 221.17 87.7873 221.17C87.8473 221.32 88.1273 221.37 88.4873 221.39C88.4673 221.51 88.0173 221.44 88.0873 221.61C88.1573 221.74 88.2973 221.57 88.4873 221.61C88.5373 221.75 88.0273 221.64 87.9873 221.74C88.4073 221.76 88.8973 221.85 89.6773 221.83C89.6373 221.88 89.5473 221.92 89.3773 221.92C89.6173 222.04 90.1673 221.92 90.4673 221.92C90.4173 222.13 90.9473 222.09 90.9673 222.27C90.3573 222.09 90.1773 222.37 89.9773 222.14C89.5573 222.44 88.5773 222.26 87.6873 222.36C88.1473 222.43 88.8273 222.41 89.3773 222.45C89.3073 222.51 89.1673 222.53 88.9773 222.54C89.0173 222.59 89.3673 222.69 89.2773 222.54C89.5773 222.63 88.9873 222.7 88.8773 222.76C89.0073 222.78 89.1373 222.78 89.0773 222.98C88.6273 223.03 87.7573 222.74 87.1873 222.98C87.0573 222.94 86.8873 222.91 86.7873 222.85C86.4373 222.9 86.2673 223.03 85.6973 222.98C86.2973 222.89 85.4673 222.88 85.3973 222.72C85.3773 222.88 84.1273 222.78 83.6073 222.85C84.1073 222.93 85.2173 222.89 85.5973 222.89C85.5273 222.93 85.4173 222.96 85.2973 222.98C86.2173 223.05 87.2773 223.11 88.1773 222.94C88.2073 223.09 88.6373 223.06 88.8773 223.12C89.2373 223.11 89.1673 222.9 89.5773 222.9C89.6373 223.2 89.4273 223.25 88.7773 223.29C89.5173 223.35 90.6973 223.19 90.9673 223.73C90.3073 223.42 89.3873 223.36 88.2873 223.42C88.6873 223.54 89.6973 223.38 89.9773 223.55C89.6873 223.54 89.6973 223.64 89.4773 223.68C89.7173 223.83 89.5773 223.75 89.9773 223.86C89.7873 223.97 89.4773 223.76 89.0873 223.82C88.9273 223.95 89.7273 223.91 89.1873 223.95C89.1473 224.02 89.5573 224.1 89.5873 223.99C89.5573 224.05 89.1973 224.22 89.2873 224.38C88.7473 224.42 88.9973 224.35 88.3973 224.42C88.6173 224.66 89.3173 224.34 89.5873 224.46C89.4873 224.35 90.0273 224.17 89.4873 224.15C89.7473 223.95 90.0273 224.15 90.2873 224.28C90.2073 224.41 89.9673 224.25 89.7873 224.28C89.5373 224.63 90.9773 225.06 90.1873 225.24C90.1173 225.36 90.3973 225.32 90.4873 225.37C89.9973 225.56 89.3973 225.43 88.7973 225.55C88.9973 225.62 89.8873 225.62 90.0873 225.55C90.4073 225.6 89.9873 225.67 89.7873 225.64C89.9773 225.93 91.3573 225.67 91.6773 225.73C91.7673 225.85 90.9273 225.92 90.7873 226.08C90.6673 226.03 90.6073 225.95 90.2873 225.99C90.6573 225.89 90.1773 225.93 90.3873 225.81C89.9873 226.02 89.6473 225.98 89.1973 226.16C89.6573 226.35 90.2673 226.28 90.8873 226.51C91.4073 226.42 91.6673 226.4 92.1773 226.51C92.1773 226.65 91.5573 226.73 91.8773 226.86L91.9273 226.91ZM56.6273 228.09C56.4573 228.22 55.6073 228.05 55.4373 228.18C59.1173 228.21 63.4473 228.47 66.6673 228.18C66.2673 228.15 65.6073 228.24 65.3773 228.14C65.4973 228.12 65.6073 228.09 65.6773 228.05C64.3873 228.13 61.3573 227.99 59.6073 228.14C59.7273 228.14 59.8873 228.14 59.9073 228.1C58.9973 228.08 56.7373 227.91 56.6273 228.1V228.09ZM90.1373 225.15V224.89C88.5673 224.82 86.5373 224.72 84.8673 224.89C86.3873 224.92 87.5273 224.93 88.5473 225.02C88.4673 225.08 88.7173 225.08 88.3473 225.15C89.1673 225.22 89.3773 225.05 90.1373 225.15ZM87.6473 222.74C87.0573 222.72 85.9773 222.54 85.2573 222.7C85.5973 222.71 86.5773 222.65 86.0573 222.79C86.4773 222.88 87.2273 222.79 87.6473 222.75V222.74ZM46.9173 202.28C46.9373 202.57 46.8773 202.4 46.7673 202.41C46.8473 203.04 46.8873 203.61 47.0573 204.38C47.2373 204.04 47.3073 203 46.9173 202.28ZM48.0873 208.74C48.2773 208.69 48.0173 207.34 47.8173 207.37C47.8373 207.9 47.9673 208.11 48.0873 208.74ZM53.7473 220.98C53.7473 220.98 53.6173 221.01 53.6473 220.94C53.3073 221.09 52.8073 220.92 52.3573 221.03C52.4673 221.06 52.4273 221.05 52.3573 221.05C52.2873 221.05 52.2773 221.05 52.2573 221.11C52.2073 221.05 52.1673 221.1 52.0473 221.11C51.8673 221.15 52.0673 221.16 52.3373 221.16C52.9373 221.16 53.6573 221.14 53.7573 221.11C53.7573 221.13 53.8373 221.16 53.8573 221.11C53.5473 221.12 54.1073 220.98 53.7573 220.98H53.7473ZM59.2173 220.94C60.2973 220.89 57.5973 220.86 58.9173 220.9C57.4973 220.86 55.1473 220.91 53.9473 221.03C55.7873 220.96 57.4173 221.03 59.2173 220.94ZM57.1273 220.63C56.6473 220.55 56.5673 220.67 56.1373 220.54C55.4073 220.59 54.6973 220.63 54.0173 220.65C53.3973 220.66 52.8073 220.67 52.2273 220.69C51.7873 220.69 51.3673 220.67 50.9773 220.64C50.9473 220.4 50.9173 220.17 50.8773 219.93L50.8173 219.58C50.7873 219.41 50.7473 219.24 50.7173 219.06L50.7373 219.31V219.4L50.7173 219.58C50.7173 219.71 50.7173 219.84 50.7173 219.98C50.7273 220.25 50.7673 220.54 50.8173 220.83C51.0773 220.83 51.3573 220.83 51.6373 220.82L52.0573 220.8C52.2073 220.8 52.2473 220.78 52.7273 220.77C54.2173 220.72 55.7073 220.68 57.1273 220.63ZM51.9473 220.59C52.0473 220.56 52.2173 220.65 52.2673 220.55C52.1673 220.58 52.0073 220.49 51.9473 220.59ZM63.8873 219.98C64.0473 220.14 64.6073 220.12 64.9773 220.07C64.6073 220.04 64.3873 219.95 63.8873 219.98ZM47.2873 228.31C46.3673 228.42 45.4573 228.4 44.6173 228.37C44.5673 228.1 44.5273 227.84 44.4873 227.58C44.3873 226.74 44.8373 229.18 44.6373 227.87C44.6673 227.95 44.6873 228.07 44.7273 228.25C45.3973 228.25 46.5673 228.3 47.2973 228.31H47.2873ZM88.5473 228.09C88.7573 228.19 88.6873 228.19 88.8473 228.35C88.6573 228.3 88.3773 228.29 88.1473 228.26C88.3073 228.2 88.4973 228.15 88.5473 228.04C88.6573 228.04 88.6073 228.08 88.5473 228.08V228.09Z" fill="#124936"/>
<path d="M43.2559 187.85H89.8259L84.8259 224.06H49.2559L43.2559 187.85Z" fill="#124936"/>
<path d="M69.1465 185.81C65.9516 177.443 61.8478 169.644 56.982 162.662C55.8711 161.076 54.6868 159.491 53.1352 158.603C51.5837 157.715 49.5731 157.646 48.1317 158.972C46.3874 160.588 46.0293 163.59 46.1762 166.173C46.5435 172.915 49.2977 179.238 53.5851 183.227C57.8725 187.217 63.6472 188.802 69.1465 187.516" fill="#124936"/>
<path d="M55.0983 163.001C55.4238 163.39 55.8702 164.05 56.1306 164.351C55.74 163.769 55.4331 163.361 55.0983 163.001ZM52.1316 178.262C52.0014 178.204 51.6387 177.553 51.4155 177.203C51.5364 177.281 51.8712 177.942 52.1316 178.262ZM50.16 160.495C50.067 160.563 49.7508 160.718 49.6485 160.806C49.7229 160.679 50.0019 160.553 50.16 160.495ZM62.4826 174.26C62.4268 174.211 62.0641 173.57 62.0548 173.493C62.2687 173.891 62.3617 173.998 62.4826 174.26ZM58.9764 168.402C59.0415 168.441 59.274 168.859 59.4135 169.053C59.4135 169.024 59.3298 168.898 59.274 168.801C59.3298 168.81 59.5437 169.199 59.6553 169.364C59.6088 169.315 59.5438 169.228 59.4693 169.141C59.5996 169.413 59.9995 169.995 60.232 170.394C59.8786 169.898 59.3205 168.956 58.9857 168.412L58.9764 168.402ZM50.7924 160.155C50.7087 160.203 50.3739 160.223 50.2158 160.31C50.2809 160.242 50.6064 160.184 50.7924 160.155ZM67.486 184.246C67.3744 183.955 67.393 183.848 67.2349 183.498C67.3465 183.634 67.5697 184.256 67.486 184.246ZM48.0489 157.959C47.835 158.134 47.184 158.649 46.9143 159.038C47.0352 158.795 47.649 158.241 48.0489 157.959ZM66.463 174.687C66.5467 174.765 66.6583 175.115 66.835 175.406C66.7141 175.28 66.5653 174.93 66.463 174.687ZM59.3112 162.603C59.4786 162.778 59.8414 163.331 60.0832 163.662C59.9902 163.613 59.4414 162.817 59.3112 162.603ZM56.9769 159.63C57.1536 159.727 57.6279 160.31 57.9255 160.679C57.7674 160.573 57.2466 159.873 56.9769 159.63ZM68.5741 185.81C68.4718 185.587 68.3974 185.315 68.2486 185.091C68.1277 184.664 67.9045 184.11 67.6627 183.518C67.6255 183.45 67.6069 183.43 67.5697 183.343C67.5697 183.411 67.4023 183.246 67.5604 183.566C67.3558 183.323 67.1512 182.643 67.2163 182.643C67.1047 182.362 67.0582 182.323 66.9652 182.109C67.0768 182.517 67.0954 182.702 67.3558 183.236C67.2814 183.265 67.2628 183.236 67.2256 183.401C67.0024 182.906 66.9745 182.925 66.8071 182.731C66.7327 182.517 66.6397 182.274 66.5188 181.993C66.463 181.876 66.4351 181.866 66.37 181.74C66.2956 181.691 66.4537 182.002 66.37 181.954C64.4542 177.495 62.0827 173.162 59.4321 168.917C58.6416 167.917 58.3812 167.305 57.5256 166.09C57.5721 166.265 58.0557 166.887 58.1952 167.169C57.1815 165.702 56.1027 164.099 55.0704 162.807C54.0567 161.524 52.9407 160.631 52.0479 160.427C51.6015 160.252 51.0249 160.174 50.5041 160.291C49.9833 160.407 49.5462 160.689 49.2207 161.117C49.0812 161.282 49.2579 161.146 49.1742 161.243C48.7464 161.884 48.7185 161.913 48.4674 162.7C48.393 162.564 48.6162 161.894 48.9045 161.447C48.5697 161.865 48.1698 163.166 48.2442 163.225C47.9559 164.73 48.0024 165.983 48.207 167.868C48.2628 168.072 48.3093 168.47 48.3744 168.509C48.4767 169.189 48.5976 169.908 48.7464 170.335C48.7557 170.199 48.6069 169.704 48.579 169.422C48.7185 169.947 49.0533 171.375 49.0347 171.618C49.4811 173.259 50.1507 174.94 50.8203 176.086C51.2853 177.378 52.3176 178.767 53.4522 180.127C52.7268 179.205 53.8986 180.603 54.0288 180.691C54.7077 181.4 55.4703 182.012 56.1864 182.527C57.5442 183.489 58.7067 184.159 59.7484 184.567C62.3152 185.606 65.1145 185.995 67.4023 185.839C67.6441 185.81 67.7557 185.762 68.0068 185.733C68.0068 185.752 67.9045 185.762 67.8394 185.771C68.5555 185.801 69.5041 185.771 68.6857 186.121C68.7787 186.189 69.1693 186.17 69.5227 186.189C69.0205 186.519 69.3553 186.772 68.5555 187.122C69.067 187.209 68.6113 187.51 68.6392 187.695C68.6671 187.909 69.2437 188.093 68.23 188.356C68.1091 188.734 66.5095 189.045 64.5565 188.929C62.6035 188.812 60.3715 188.161 58.9485 187.54C57.2094 186.937 55.5633 185.849 53.9172 184.538C53.6847 184.343 53.6196 184.343 53.4057 184.178C51.2109 182.167 49.5648 180.04 48.3465 177.718C49.0905 179.175 49.509 179.836 50.6436 181.342C51.1086 181.963 50.4204 181.089 50.253 180.856C48.486 178.505 46.9422 175.455 46.04 171.977C45.5843 170.248 45.2867 168.412 45.1751 166.537C45.0821 164.633 45.1751 162.583 46.0679 160.573C46.2446 160.155 46.5423 159.698 46.8306 159.319C47.1282 158.94 47.4351 158.639 47.6025 158.435C48.7371 157.522 49.6671 157.221 50.8854 157.114C50.9412 157.075 50.1972 157.153 50.2623 157.182C50.7738 157.036 51.7224 156.988 52.6896 157.25C53.6661 157.493 54.6147 158.066 55.275 158.542C54.6054 157.92 53.0337 156.968 51.2295 156.978C50.3367 156.968 49.4067 157.182 48.6348 157.59C47.8629 157.988 47.277 158.552 46.8957 158.999C47.556 158.163 48.4953 157.503 49.4718 157.211C50.4483 156.9 51.4434 156.891 52.3641 157.075C53.2755 157.24 54.159 157.658 54.8844 158.144C55.6191 158.639 56.2608 159.213 56.8374 159.815C56.7816 159.815 57.1815 160.184 57.0234 160.096C58.2324 161.476 58.9857 162.661 59.7949 163.798C60.3529 164.604 60.9853 165.391 61.4224 166.217C64.6774 171.287 67.0489 175.843 69.0112 180.458C68.8531 180.234 68.8624 180.021 68.6764 179.719C68.788 180.021 68.9647 180.419 69.0391 180.671C69.3088 181.089 70.1737 183.226 70.1458 183.605C69.8761 182.906 69.7087 182.352 69.346 181.526C69.3739 181.701 69.6343 182.226 69.5971 182.303C69.3925 181.876 69.067 181.06 68.8531 180.535C68.788 180.409 68.8252 180.535 68.8624 180.642C68.3323 179.477 67.8394 178.107 67.1326 176.883C67.3651 177.407 67.7929 178.175 67.9231 178.631C67.8394 178.505 67.6069 177.922 67.4023 177.543C67.5883 178.039 67.7464 178.359 68.0161 178.933C67.8766 178.486 68.1928 179.302 68.3695 179.651C67.9045 178.758 67.3744 177.718 67.5511 178.379C68.1556 179.7 68.2393 179.885 68.6392 180.759C68.5927 180.584 68.4904 180.419 68.6113 180.545L68.3974 180.089C68.6206 180.584 68.8438 180.846 69.1507 181.517C69.1135 181.497 69.0391 181.293 68.974 181.157C68.9461 181.235 69.0391 181.507 69.1879 181.837C69.1414 181.837 68.974 181.41 68.9461 181.507C68.9275 181.585 69.0484 181.701 69.1135 181.876C69.0856 181.944 68.9182 181.458 68.8624 181.439C69.0298 181.827 69.1972 182.294 69.5134 183.022C69.4762 182.993 69.4297 182.915 69.3646 182.76C69.4204 183.003 69.6808 183.498 69.7924 183.78C69.6994 183.761 69.9133 184.256 69.8575 184.295C69.6901 183.693 69.5134 183.576 69.5134 183.343C69.253 183.003 68.9182 182.051 68.5183 181.264C68.6764 181.711 68.9647 182.323 69.1693 182.838C69.1228 182.789 69.0577 182.653 68.9833 182.478C68.9833 182.527 69.0856 182.857 69.1042 182.76C69.1879 183.061 68.9368 182.517 68.8717 182.43C68.9182 182.556 68.9647 182.682 68.8717 182.653C68.6764 182.245 68.416 181.4 68.1091 180.914C68.0719 180.788 68.0068 180.633 67.9882 180.526C67.8208 180.215 67.7092 180.079 67.486 179.545C67.765 180.079 67.4209 179.321 67.4488 179.224C67.3837 179.234 66.8815 178.078 66.6211 177.631C66.8164 178.087 67.3093 179.098 67.4767 179.438C67.4302 179.379 67.3744 179.282 67.3186 179.185C67.6906 180.03 68.1091 181.011 68.5369 181.818C68.4997 181.866 68.6857 182.255 68.7601 182.488C68.9089 182.828 68.9461 182.721 69.1135 183.1C69.0391 183.207 68.9368 183.022 68.6671 182.43C68.9368 183.119 69.4576 184.188 69.3739 184.528C69.2344 183.867 68.8903 183.003 68.4253 181.993C68.5555 182.371 69.0019 183.285 69.0484 183.576C68.9368 183.304 68.9089 183.333 68.8066 183.139C68.8531 183.382 68.8252 183.236 68.9368 183.625C68.8252 183.459 68.7787 183.149 68.602 182.789C68.4997 182.663 68.8252 183.401 68.602 182.906C68.5648 182.877 68.695 183.275 68.7415 183.285C68.7136 183.265 68.509 182.964 68.4904 183.071C68.2672 182.585 68.3881 182.799 68.1184 182.255C68.1277 182.498 68.5183 183.09 68.5741 183.362C68.5741 183.255 68.8438 183.722 68.6392 183.217C68.8066 183.421 68.8531 183.722 68.9089 183.974C68.8345 183.916 68.7973 183.673 68.7136 183.518C68.4997 183.343 68.9089 184.732 68.5369 184.033C68.4718 183.984 68.5834 184.237 68.6113 184.324C68.3509 183.897 68.1649 183.333 67.8952 182.799C67.951 182.993 68.2951 183.809 68.3974 183.984C68.509 184.285 68.3137 183.916 68.2486 183.722C68.23 183.945 68.8438 185.179 68.9368 185.48C68.9368 185.587 68.5834 184.819 68.4811 184.713C68.4532 184.596 68.4625 184.528 68.323 184.237C68.4997 184.567 68.2951 184.12 68.4253 184.305C68.2021 183.974 68.0812 183.654 67.8394 183.265C67.951 183.722 68.2207 184.266 68.3695 184.868C68.5927 185.334 68.695 185.567 68.8531 186.063C68.8066 186.082 68.5462 185.529 68.6206 185.839L68.5741 185.81ZM50.1507 160.31C50.067 160.378 49.6113 160.573 49.5648 160.689C50.3646 159.999 51.8433 160.009 52.9965 160.806C54.2241 161.602 55.275 163.011 56.2329 164.254C56.0097 163.924 55.6098 163.448 55.5075 163.244C55.5819 163.331 55.647 163.399 55.7028 163.448C55.3215 162.972 54.717 162.166 54.0288 161.505C53.3313 160.835 52.5687 160.388 52.0014 160.281C52.0758 160.301 52.1874 160.339 52.1967 160.33C51.9084 160.213 51.3783 160.087 50.9319 160.116C50.4855 160.135 50.1507 160.271 50.1414 160.32L50.1507 160.31ZM68.4997 183.887L68.5927 183.848C68.0161 182.391 67.2163 180.516 66.4351 179.039C67.0861 180.419 67.5418 181.458 67.9231 182.401C67.8673 182.342 67.9696 182.566 67.8022 182.245C68.1184 183.003 68.2393 183.178 68.509 183.887H68.4997ZM68.3323 181.206C68.0998 180.662 67.7092 179.642 67.3372 179.02C67.486 179.331 67.9138 180.215 67.6441 179.758C67.7836 180.157 68.137 180.827 68.323 181.206H68.3323ZM55.1541 185.422C54.9123 185.237 55.0704 185.334 55.1076 185.305C54.5868 184.907 54.1311 184.528 53.508 184.003C53.601 184.139 53.8242 184.402 54.1218 184.674C54.4287 184.936 54.8007 185.218 55.1541 185.412V185.422ZM50.3274 180.623C50.2716 180.681 51.1458 181.827 51.2202 181.769C50.8761 181.322 50.7366 181.147 50.3274 180.623ZM46.5702 160.038C46.5702 160.038 46.5051 160.174 46.4958 160.135C46.3377 160.514 46.04 161.029 45.9098 161.544C46.0028 161.321 45.854 161.699 45.8726 161.777C45.8075 161.913 45.8075 162.001 45.7238 162.321C45.6401 162.768 45.7424 162.243 45.947 161.593C46.1423 160.932 46.5516 160.165 46.6074 160.067C46.6074 160.067 46.6725 159.99 46.6632 159.96C46.4772 160.281 46.7748 159.669 46.5609 160.038H46.5702ZM52.2618 157.454C52.8849 157.59 52.4292 157.454 51.9828 157.386C51.5457 157.318 51.1272 157.299 51.9177 157.386C51.0993 157.25 49.9089 157.308 48.8673 157.833C47.8164 158.338 47.0724 159.232 46.7097 159.854C47.3049 158.911 48.1512 158.134 49.1556 157.746C50.1507 157.347 51.2202 157.279 52.2618 157.474V157.454ZM49.7508 157.386C49.1556 157.532 49.0812 157.61 48.5604 157.823C47.2491 158.581 46.4678 159.786 46.0028 160.903C45.5471 162.039 45.3518 163.157 45.2588 164.225C45.1658 165.294 45.1844 166.353 45.2774 167.373C45.3518 168.402 45.5006 169.442 45.7145 170.53C45.5657 169.519 45.4169 168.431 45.3425 167.295C45.2495 166.168 45.2216 164.944 45.3611 163.691C45.5099 162.447 45.7982 161.136 46.5144 159.931C47.2026 158.736 48.4116 157.707 49.7415 157.386H49.7508ZM45.4169 162.817C45.4727 162.477 45.6587 161.865 45.6773 161.699C45.575 162.039 45.4076 162.661 45.4169 162.817ZM56.9025 160.009C56.9769 160.184 57.3768 160.631 57.6279 160.932C57.3954 160.621 57.2745 160.407 56.9025 160.009ZM48.1047 164.672C48.1047 165.245 48.1047 165.779 48.114 166.275C48.114 166.654 48.0675 165.478 48.0768 166.1C48.0396 165.838 48.0768 165.08 48.1047 164.672ZM66.8722 182.896C66.928 183.11 66.8908 183.042 66.9001 183.207C66.8443 183.032 66.7327 182.77 66.649 182.566C66.7327 182.692 66.8257 182.857 66.8815 182.886C66.928 182.993 66.8815 182.945 66.8629 182.886L66.8722 182.896Z" fill="#124936"/>
<path d="M68.2669 179.284C72.9527 165.45 78.7406 152.238 85.4638 140.083C86.9918 137.318 88.6124 134.544 90.659 132.727C92.7056 130.91 95.28 130.248 97.021 131.897C99.1324 133.902 99.3732 138.444 99.0028 142.483C98.0489 152.999 94.0854 163.554 88.3161 170.921C82.5467 178.287 75.0734 182.365 68.1465 181.921" fill="#124936"/>
<path d="M83.3028 138.416C82.9 139.207 82.241 140.325 81.9939 140.908C82.5522 139.929 82.9458 139.178 83.3028 138.416ZM95.559 162.831C95.5956 162.584 96.1814 161.417 96.4469 160.735C96.4285 160.982 95.8794 162.169 95.559 162.831ZM93.2524 128.103C93.4629 128.033 93.9297 127.944 94.4331 127.954C94.9274 127.954 95.4583 128.053 95.7329 128.122C95.1471 128.004 93.8748 127.934 93.2524 128.093V128.103ZM73.9115 158.055C73.9207 157.927 74.3967 156.849 74.479 156.76C74.177 157.422 74.1221 157.64 73.9115 158.055ZM78.4699 148.078C78.4699 148.206 78.0946 148.879 77.9481 149.215C77.9847 149.205 78.0854 148.968 78.1678 148.799C78.1861 148.888 77.8474 149.502 77.7101 149.798C77.7376 149.68 77.8017 149.521 77.8749 149.353C77.6186 149.759 77.1701 150.807 76.8497 151.469C77.2159 150.55 78.003 148.987 78.4607 148.078H78.4699ZM91.0739 129.161C91.2753 128.973 92.273 128.548 92.8862 128.399C92.6208 128.508 91.5682 128.844 91.0739 129.161ZM67.605 174.836C67.788 174.371 67.8979 174.273 68.1084 173.679C68.0809 173.966 67.6873 174.935 67.605 174.836ZM94.6528 132.493C94.8267 132.444 95.2112 132.602 95.4217 132.75C95.2844 132.701 94.9457 132.483 94.6528 132.493ZM76.4104 163.444C76.3921 163.613 76.1175 164.087 75.9436 164.582C75.971 164.315 76.2365 163.8 76.4104 163.444ZM85.6643 144.251C85.5453 144.597 85.0327 145.467 84.7673 146.031C84.7673 145.863 85.463 144.577 85.6643 144.251ZM88.2455 139.425C88.1815 139.692 87.6689 140.552 87.3577 141.175C87.4126 140.889 88.0533 139.86 88.2455 139.425ZM67.1473 177.872C67.2663 177.496 67.4493 177.091 67.5134 176.666C67.788 176.023 68.1175 175.133 68.4745 174.174C68.5111 174.055 68.502 174.015 68.5569 173.867C68.4837 173.936 68.502 173.57 68.3281 174.114C68.3738 173.6 68.8589 172.601 68.9139 172.661C69.0969 172.216 69.0878 172.117 69.2159 171.771C68.9139 172.354 68.7308 172.591 68.4562 173.491C68.3647 173.442 68.3738 173.383 68.1816 173.551C68.4562 172.72 68.4196 172.73 68.4654 172.305C68.6118 171.968 68.7674 171.593 68.9322 171.138C68.9962 170.94 68.9779 170.891 69.0512 170.673C69.0329 170.535 68.8681 171.059 68.8406 170.92C71.6232 163.672 74.598 156.335 78.122 149.126C78.8543 147.198 79.4584 146.337 80.511 144.191C80.3188 144.399 79.7971 145.546 79.5408 145.971C80.8131 143.361 82.2044 140.72 83.5682 138.229C84.9321 135.727 86.3691 133.264 88.1082 131.297C89.0053 130.407 90.2776 129.269 91.9526 128.607C92.7947 128.281 93.7466 128.053 94.7718 128.103C95.797 128.152 96.8679 128.528 97.6917 129.141C98.3507 129.665 97.71 129.072 98.1036 129.398C99.1471 130.377 99.4125 131 99.7237 131.544C99.9892 132.098 100.236 132.641 100.529 133.65C100.328 133.452 99.9251 131.771 98.8084 130.347C99.3942 131.059 99.9525 132.246 100.236 133.205C100.529 134.174 100.657 134.936 100.694 134.965C100.978 136.607 101.033 137.991 101.023 139.395C101.023 140.8 100.904 142.224 100.712 143.835C100.712 144.201 100.602 144.903 100.676 144.992C100.52 146.189 100.282 147.435 100.191 148.236C100.282 148.028 100.401 147.118 100.493 146.624C100.438 147.593 99.8976 150.125 99.6779 150.461C99.0189 153.378 98.0487 156.364 97.2981 158.589C96.2546 160.735 95.202 163.583 93.6093 166.342C94.6803 164.542 93.0968 167.41 92.932 167.637C92.0533 169.17 91.0647 170.683 90.1036 172.008C88.273 174.49 86.4515 176.191 84.9046 177.575C82.9824 179.286 80.8222 180.75 78.5889 181.818C76.3646 182.905 74.0397 183.528 71.8978 183.776C71.4402 183.835 71.2296 183.934 70.7628 183.953C70.7628 183.934 70.9642 183.924 71.0923 183.904C69.7285 183.904 68.0443 183.558 69.6004 183.35C69.4539 183.232 68.7674 183.133 68.1725 183.014C69.1427 182.698 68.6942 182.332 70.0306 182.005C69.2434 181.818 70.0306 181.481 70.0031 181.204C69.9756 180.898 69.2434 180.601 70.6621 180.344C70.8727 179.84 72.9505 179.533 75.3669 178.554C76.5751 178.06 77.8657 177.447 79.0465 176.745C80.2273 176.023 81.3257 175.271 82.1495 174.569C84.0259 172.829 86.0213 170.98 87.7604 168.517C88.0167 168.161 88.0167 168.082 88.2181 167.756C90.662 164.325 92.2455 160.784 93.6093 157.284C92.7123 159.449 92.2821 160.488 91.0464 162.881C90.5247 163.86 91.2387 162.436 91.44 162.07C93.2798 158.293 94.9457 153.714 96.0075 148.671C96.5384 146.159 96.9228 143.499 97.1059 140.849C97.1883 139.534 97.1883 138.219 97.0693 136.963C96.9503 135.707 96.6848 134.501 96.2363 133.62C96.0533 133.255 95.8153 132.928 95.5956 132.711C95.3759 132.513 95.1654 132.404 95.0098 132.424C94.2592 132.177 93.4537 132.394 92.5293 132.997C92.5018 133.047 93.0785 132.73 93.0144 132.721C92.6299 132.988 91.9526 133.423 91.202 134.194C90.4606 134.945 89.7101 135.934 89.17 136.824C89.8657 135.905 91.0373 134.253 92.3462 133.314C92.9961 132.849 93.71 132.533 94.2501 132.493C94.7993 132.444 95.1196 132.592 95.3576 132.77C94.9366 132.483 94.3782 132.424 93.6551 132.661C92.9412 132.899 92.2089 133.383 91.5499 134.036C90.186 135.361 89.0419 137.19 87.9618 139.178C87.9435 139.099 87.6414 139.781 87.6872 139.534C86.479 141.779 85.4172 143.727 84.4561 145.605C83.7696 146.94 83.1929 148.364 82.4698 149.581C78.4241 157.818 75.4127 165.037 72.6118 172.146C72.6942 171.721 72.9138 171.514 73.042 170.99C72.8406 171.435 72.6026 172.048 72.4196 172.404C72.2365 173.135 70.9917 176.438 70.6255 176.844C71.0374 175.776 71.3944 174.975 71.8612 173.669C71.7148 173.897 71.4493 174.737 71.3395 174.797C71.55 174.095 72.0717 172.849 72.383 172.048C72.447 171.84 72.3555 172.018 72.2914 172.176C72.9688 170.327 73.9115 168.329 74.6163 166.283C74.2594 167.084 73.8383 168.379 73.4905 168.992C73.5454 168.755 73.939 167.894 74.1587 167.262C73.8109 167.993 73.6186 168.498 73.2617 169.397C73.5912 168.765 73.042 169.991 72.8498 170.564C73.3257 169.081 73.9665 167.41 73.4356 168.29C72.6026 170.357 72.5203 170.663 71.9985 172.048C72.1358 171.81 72.1999 171.514 72.1816 171.79L72.4562 171.069C72.1541 171.85 72.0992 172.374 71.7239 173.452C71.7148 173.392 71.8429 173.076 71.9161 172.858C71.8155 172.918 71.6415 173.313 71.4402 173.837C71.3944 173.788 71.669 173.135 71.55 173.214C71.4585 173.284 71.4585 173.531 71.3395 173.798C71.2479 173.837 71.5683 173.125 71.5409 173.046C71.3029 173.659 71.0008 174.362 70.6164 175.519C70.6164 175.449 70.6438 175.311 70.7262 175.064C70.5431 175.4 70.3143 176.23 70.1587 176.675C70.0855 176.557 69.8383 177.348 69.7468 177.348C70.1404 176.478 70.1038 176.161 70.3143 175.904C70.3967 175.232 70.9825 173.808 71.4127 172.493C71.129 173.165 70.7811 174.154 70.4791 174.965C70.4791 174.856 70.5523 174.638 70.6438 174.362C70.5981 174.411 70.3692 174.905 70.4882 174.807C70.2869 175.232 70.5615 174.342 70.5889 174.174C70.5157 174.362 70.4425 174.559 70.3875 174.421C70.5889 173.748 71.2022 172.532 71.3944 171.642C71.4859 171.454 71.5866 171.217 71.669 171.088C71.8338 170.564 71.8704 170.297 72.209 169.467C71.9161 170.367 72.383 169.15 72.4928 169.081C72.4287 169.022 73.1884 167.212 73.4447 166.451C73.1335 167.153 72.5019 168.794 72.3097 169.338C72.328 169.219 72.383 169.061 72.4379 168.883C71.8978 170.208 71.2846 171.751 70.891 173.116C70.8086 173.135 70.5889 173.758 70.4425 174.104C70.2594 174.648 70.3967 174.569 70.1862 175.172C70.0123 175.212 70.1038 174.896 70.415 173.917C70.0031 174.994 69.4631 176.774 69.0786 177.071C69.5546 176.151 70.0672 174.797 70.6164 173.155C70.3418 173.719 69.8933 175.242 69.6736 175.627C69.8292 175.202 69.7834 175.192 69.875 174.866C69.6827 175.192 69.7926 174.994 69.5363 175.568C69.5821 175.261 69.8384 174.846 70.0214 174.253C70.0397 173.996 69.6461 175.192 69.9116 174.371C69.9024 174.292 69.6461 174.896 69.6827 174.955C69.6736 174.905 69.7743 174.342 69.6553 174.441C69.9299 173.64 69.8017 174.025 70.1038 173.106C69.8658 173.383 69.6553 174.49 69.4539 174.866C69.5546 174.747 69.3624 175.568 69.6461 174.777C69.6004 175.202 69.3624 175.578 69.1702 175.934C69.1519 175.785 69.3532 175.469 69.4265 175.202C69.399 174.767 68.4471 176.814 68.7674 175.607C68.7491 175.489 68.621 175.894 68.5477 176.023C68.7217 175.252 69.0878 174.391 69.3532 173.481C69.2159 173.768 68.7491 175.083 68.6759 175.4C68.4837 175.865 68.6759 175.232 68.7949 174.945C68.5569 175.172 67.9711 177.279 67.788 177.743C67.6873 177.862 68.0809 176.586 68.0809 176.339C68.1633 176.171 68.2274 176.092 68.3738 175.617C68.2274 176.191 68.4562 175.459 68.4013 175.795C68.5111 175.163 68.7033 174.668 68.8589 173.956C68.5294 174.609 68.2365 175.528 67.8155 176.408C67.5866 177.209 67.4768 177.595 67.1564 178.337C67.0924 178.317 67.367 177.368 67.1473 177.823V177.872ZM93.0968 128.389C93.2615 128.32 93.7833 128.211 94.3508 128.211C94.9091 128.192 95.5041 128.31 95.6963 128.33C94.6345 128.083 93.5727 128.172 92.6483 128.449C91.7146 128.726 90.8725 129.161 90.1128 129.685C88.5842 130.782 87.4858 132.098 86.5156 133.433C84.6025 136.132 83.3119 138.782 82.1678 141.037C82.4698 140.483 82.9275 139.554 83.1472 139.257C83.0648 139.425 83.0007 139.583 82.9641 139.692C83.4309 138.792 84.2181 137.299 85.1792 135.707C86.1311 134.125 87.2936 132.473 88.3371 131.326C88.1998 131.484 87.9984 131.692 87.9984 131.732C88.2638 131.435 88.6391 131.04 89.1059 130.634C89.5728 130.219 90.1311 129.794 90.6895 129.447C91.8062 128.755 92.9869 128.449 93.0968 128.389ZM68.8773 175.528L68.9962 175.578C69.8383 173.264 70.9825 170.287 71.8429 167.805C70.9825 170.03 70.3418 171.692 69.7651 173.195C69.7743 173.066 69.6461 173.442 69.8109 172.878C69.3349 174.085 69.3166 174.431 68.8681 175.528H68.8773ZM71.3029 172.324C71.6232 171.464 72.3097 169.922 72.6301 168.844C72.4379 169.338 71.9253 170.792 72.1541 169.991C71.8795 170.584 71.5042 171.701 71.312 172.324H71.3029ZM86.4698 170.367C86.7536 170.05 86.598 170.258 86.6254 170.317C87.2387 169.615 87.7696 168.952 88.4286 167.993C88.0808 168.29 87.1105 169.407 86.4607 170.376L86.4698 170.367ZM91.7695 162.139C91.6689 162.1 90.7261 163.949 90.7901 163.998C91.2112 163.336 91.3119 162.99 91.7695 162.139ZM96.1723 132.958C96.1723 132.958 96.2638 133.057 96.218 133.057C96.4835 133.304 96.694 133.878 96.9137 134.421C96.8496 134.154 96.9594 134.599 97.0327 134.659C97.051 134.837 97.1059 134.916 97.1974 135.311C97.3256 135.855 97.2249 135.183 96.996 134.431C96.7672 133.66 96.3096 132.968 96.2363 132.918C96.2455 132.918 96.2089 132.829 96.1723 132.829C96.3645 133.096 95.9709 132.651 96.1814 132.958H96.1723ZM91.2203 133.709C90.7169 134.234 91.1014 133.838 91.4675 133.512C91.8336 133.205 92.1631 132.938 91.5224 133.462C92.1814 132.879 93.2066 132.226 94.1219 132.117C95.0464 131.969 95.6505 132.335 96.0624 132.79C95.4583 132.107 94.7718 131.929 93.8656 132.117C92.9686 132.315 92.0441 132.879 91.2203 133.719V133.709ZM93.3714 132.454C93.8656 132.335 93.9297 132.256 94.3416 132.276C94.8542 132.236 95.2478 132.345 95.5956 132.602C95.9434 132.869 96.2729 133.324 96.5201 133.878C97.0144 134.995 97.2249 136.419 97.2889 137.813C97.4079 140.622 97.0144 143.529 96.4926 146.664C97.0967 143.796 97.6093 140.364 97.3164 137.111C97.17 135.509 96.7672 133.897 96.0533 133.007C95.6963 132.552 95.3393 132.335 94.9 132.256C94.4606 132.167 93.9206 132.246 93.3805 132.463L93.3714 132.454ZM97.0601 136.043C96.9869 135.628 96.8588 134.896 96.7581 134.748C96.8954 135.104 96.9869 135.865 97.0601 136.043ZM87.7513 139.455C87.559 139.623 87.1563 140.364 86.9092 140.889C87.1929 140.394 87.3943 140.127 87.7513 139.455ZM101.088 137.991C101.197 139.03 101.133 140.117 101.06 141.067C100.996 141.779 101.115 139.573 101.033 140.73C101.033 140.246 101.115 138.812 101.078 137.991H101.088ZM68.3555 172.601C68.1999 172.898 68.2274 172.789 68.0718 172.997C68.1908 172.71 68.3555 172.315 68.4837 171.978C68.4288 172.226 68.3464 172.512 68.3738 172.611C68.3098 172.779 68.3281 172.68 68.3555 172.611V172.601Z" fill="#124936"/>
<path d="M73.1465 108.749C76.1017 99.5777 80.1559 90.9955 85.1889 83.2715C86.3341 81.5152 87.5716 79.7588 89.2985 78.7409C91.0255 77.723 93.3711 77.5833 95.1812 78.9704C97.3699 80.657 98.0625 83.8903 98.1364 86.7044C98.3303 94.0093 95.7168 100.945 91.0716 105.416C86.4357 109.876 79.8419 111.802 73.2942 110.605" fill="#124936"/>
<path d="M85.2497 79.9309C84.8222 80.49 84.2368 81.2786 84.023 81.688C84.5156 80.9792 84.878 80.47 85.2497 79.9309ZM95.9181 102.752C95.946 102.563 96.5129 101.764 96.7545 101.275C96.7545 101.475 96.1876 102.283 95.9181 102.752ZM95.2583 76.5666C95.5557 76.6265 96.3828 77.1856 96.6244 77.4351C96.3363 77.2355 95.6672 76.7463 95.2583 76.5666ZM77.2855 93.6677C77.2948 93.5778 77.6666 92.8092 77.7409 92.7493C77.49 93.2185 77.4621 93.3782 77.2855 93.6677ZM81.0307 86.6396C81.0307 86.7394 80.724 87.1986 80.5939 87.4382C80.6218 87.4382 80.7054 87.2685 80.7797 87.1487C80.789 87.2086 80.5102 87.6379 80.3987 87.8475C80.4266 87.7677 80.4824 87.6579 80.5381 87.5281C80.3337 87.7976 79.9527 88.5464 79.6924 89.0056C79.9898 88.3567 80.6496 87.2685 81.0307 86.6296V86.6396ZM93.5856 76.2172C93.7807 76.1972 94.5335 76.4368 94.9331 76.6065C94.7379 76.5666 94.0038 76.2671 93.5856 76.2172ZM72.4439 105.747C72.574 105.408 72.6669 105.338 72.8156 104.909C72.8063 105.118 72.5089 105.827 72.4439 105.747ZM94.4034 80.1905C94.5614 80.2304 94.9052 80.5898 95.1096 80.8094C94.9795 80.7096 94.645 80.3302 94.4034 80.1905ZM79.2928 97.8007C79.2836 97.9205 79.0698 98.2499 78.9304 98.6093C78.949 98.4197 79.1535 98.0503 79.2928 97.8007ZM86.7923 84.613C86.6901 84.8526 86.2719 85.4416 86.0396 85.811C86.0396 85.6912 86.6251 84.8227 86.7923 84.613ZM88.9298 81.7079C88.8647 81.8676 88.4372 82.3169 88.177 82.6763C88.2328 82.4866 88.7532 81.9375 88.9298 81.7079ZM72.1651 107.964C72.2487 107.684 72.3788 107.394 72.416 107.085C72.6111 106.616 72.8621 105.977 73.113 105.278C73.1408 105.188 73.1315 105.168 73.1687 105.058C73.113 105.108 73.113 104.839 72.9921 105.228C73.0107 104.849 73.3825 104.13 73.4289 104.18C73.559 103.86 73.559 103.781 73.652 103.531C73.4196 103.95 73.2895 104.12 73.0758 104.769C73.0014 104.729 73.0014 104.679 72.8528 104.799C73.0572 104.2 73.0293 104.2 73.0479 103.89C73.1594 103.641 73.2709 103.371 73.401 103.042C73.4475 102.902 73.4382 102.862 73.494 102.712C73.4754 102.613 73.3453 102.992 73.3267 102.892C75.4176 97.651 77.7781 92.3998 80.7147 87.3783C81.3373 86.0106 81.8299 85.4416 82.722 83.9541C82.564 84.0839 82.1272 84.8825 81.9042 85.1721C82.4432 84.2736 83.0008 83.3651 83.5862 82.4766C84.1531 81.5881 84.7665 80.6797 85.4634 79.8011C86.1604 78.9326 86.9596 78.094 87.8796 77.4351C88.7718 76.7663 89.8591 76.2871 90.8348 76.0675C91.8292 75.8977 93.0745 75.8778 94.3104 76.2871C95.5557 76.6664 96.7173 77.495 97.498 78.4035C97.8232 78.7829 97.5258 78.3636 97.721 78.5832C98.2507 79.2521 98.4366 79.6414 98.6317 80.0008C98.8083 80.3602 98.9941 80.7096 99.2544 81.3984C99.0871 81.2687 98.6875 80.1506 98.0463 79.2321C98.3622 79.7013 98.7525 80.46 99.0034 81.1089C99.2544 81.7578 99.403 82.2969 99.4402 82.3169C100.054 84.613 100.128 86.38 100.044 88.786C100.063 89.0555 100.044 89.5846 100.091 89.6445C100.026 90.533 99.8956 91.4714 99.8491 92.0704C99.9142 91.9107 99.9792 91.2318 100.035 90.8624C100.035 91.2218 99.9513 91.8807 99.8398 92.4797C99.719 93.0787 99.5796 93.6078 99.5053 93.7376C99.0406 95.9139 98.2228 98.1202 97.5351 99.7374C96.6151 101.255 95.6115 103.291 94.0502 105.078C95.0818 103.92 93.5298 105.787 93.3718 105.927C92.489 106.895 91.5225 107.814 90.5839 108.563C88.8089 109.96 87.1641 110.709 85.798 111.308C82.3874 112.805 78.633 113.155 75.65 112.855L74.8508 112.815C74.8508 112.815 74.9902 112.815 75.0831 112.815C74.1538 112.646 73.02 112.196 74.1166 112.186C74.033 112.077 73.559 111.937 73.1594 111.787C73.8657 111.627 73.5869 111.248 74.5627 111.168C74.0237 110.899 74.6184 110.749 74.6277 110.529C74.6463 110.27 74.1352 109.95 75.2039 109.91C75.4176 109.541 76.9882 109.591 78.8747 109.421C80.7612 109.281 82.9543 108.792 84.3854 108.243C86.0117 107.484 87.7495 106.716 89.3572 105.368C89.5989 105.178 89.5989 105.118 89.794 104.929C92.0243 103.052 93.4927 100.756 94.645 98.3997C93.8737 99.8373 93.5019 100.536 92.3961 102.024C91.9128 102.613 92.5912 101.754 92.7492 101.514C94.422 99.1384 95.8252 95.9838 96.4943 92.4198C96.8289 90.6428 96.9961 88.766 96.9497 86.8692C96.9125 85.0223 96.6058 83.1555 95.8438 81.7179C95.5464 81.1089 95.0446 80.48 94.7565 80.3402C94.106 79.7412 93.5763 79.5615 92.8236 79.4617C92.7864 79.4817 93.2324 79.5615 93.2046 79.5316C92.8793 79.5216 92.3124 79.4418 91.6712 79.5516C91.0207 79.6514 90.3702 79.9209 89.8776 80.3003C90.4631 79.9509 91.5039 79.5016 92.6005 79.5815C93.6971 79.6214 94.6078 80.2404 95.0632 80.8294C94.1896 79.8511 93.0745 79.4917 91.8942 79.6214C91.3181 79.6913 90.7419 79.881 90.2494 80.1805C89.7197 80.5 89.2178 80.9292 88.7439 81.4683C88.7439 81.4084 88.4558 81.7878 88.5116 81.638C87.4707 82.846 86.6251 84.2137 85.8073 85.4716C85.2404 86.37 84.7479 87.3584 84.1531 88.177C80.8076 93.7975 78.4751 98.8889 76.3934 103.95C76.4492 103.651 76.6257 103.501 76.7094 103.122C76.5607 103.431 76.3841 103.88 76.2447 104.13C76.1146 104.659 75.2039 107.015 74.9251 107.305C75.2318 106.536 75.4827 105.967 75.8265 105.038C75.715 105.198 75.5199 105.807 75.4362 105.837C75.5942 105.338 75.9659 104.439 76.1983 103.87C76.2447 103.721 76.1704 103.85 76.1239 103.96C76.6257 102.643 77.3413 101.225 77.8803 99.7674C77.6015 100.336 77.2855 101.255 77.0253 101.684C77.0718 101.514 77.3599 100.905 77.5272 100.456C77.2484 100.965 77.1183 101.335 76.8488 101.974C77.109 101.534 76.6722 102.393 76.5328 102.802C76.8859 101.744 77.3692 100.546 76.9603 101.165C76.3284 102.633 76.2726 102.862 75.8823 103.85C75.9845 103.681 76.0403 103.471 76.031 103.671L76.2354 103.152C76.0124 103.711 75.9752 104.09 75.7057 104.859C75.6964 104.819 75.7894 104.589 75.8451 104.439C75.7615 104.479 75.6407 104.759 75.492 105.138C75.4548 105.098 75.65 104.629 75.5663 104.689C75.492 104.739 75.5013 104.919 75.4083 105.108C75.334 105.138 75.5756 104.619 75.5477 104.569C75.3805 105.009 75.1481 105.508 74.8694 106.336C74.8694 106.286 74.8786 106.187 74.9437 106.007C74.8043 106.246 74.6463 106.845 74.5348 107.165C74.4698 107.075 74.3025 107.644 74.2281 107.644C74.5069 107.025 74.479 106.786 74.637 106.606C74.6742 106.117 75.1203 105.098 75.4269 104.15C75.2225 104.629 74.953 105.338 74.7393 105.917C74.7393 105.837 74.7857 105.677 74.8508 105.478C74.8229 105.518 74.6463 105.867 74.7393 105.797C74.5906 106.107 74.7857 105.458 74.8043 105.338C74.7485 105.478 74.6928 105.617 74.6463 105.518C74.8043 105.038 75.2411 104.16 75.3805 103.521C75.4548 103.391 75.5292 103.222 75.5942 103.122C75.715 102.742 75.7336 102.543 75.9938 101.954C75.7801 102.593 76.1239 101.734 76.2168 101.684C76.1704 101.644 76.728 100.346 76.9324 99.8073C76.6815 100.296 76.2261 101.474 76.0682 101.864C76.0867 101.784 76.1239 101.664 76.1611 101.534C75.7429 102.483 75.2875 103.581 75.0087 104.569C74.9437 104.569 74.7857 105.028 74.6742 105.278C74.5441 105.667 74.6556 105.617 74.4976 106.057C74.3675 106.077 74.414 105.847 74.6463 105.148C74.3396 105.927 73.9586 107.205 73.6613 107.414C74.0144 106.756 74.3768 105.777 74.7857 104.599C74.5813 104.999 74.256 106.107 74.0887 106.376C74.2002 106.067 74.1631 106.067 74.2281 105.827C74.0794 106.067 74.1631 105.917 73.9772 106.326C74.0051 106.097 74.2003 105.807 74.3304 105.378C74.3304 105.188 74.0516 106.057 74.2467 105.468C74.2374 105.408 74.0516 105.837 74.0794 105.887C74.0701 105.847 74.1352 105.438 74.0423 105.508C74.2374 104.929 74.1445 105.208 74.3675 104.549C74.1817 104.749 74.0423 105.548 73.8936 105.817C73.9679 105.727 73.8378 106.326 74.0516 105.757C74.033 106.067 73.8471 106.336 73.7077 106.586C73.6891 106.476 73.8378 106.246 73.8936 106.057C73.8564 105.737 73.1501 107.215 73.3825 106.336C73.3639 106.246 73.2709 106.546 73.2245 106.636C73.3453 106.077 73.6148 105.458 73.8006 104.789C73.6891 104.999 73.3639 105.947 73.3081 106.177C73.1687 106.516 73.2988 106.057 73.3918 105.847C73.2059 106.007 72.797 107.544 72.6669 107.874C72.5925 107.954 72.862 107.035 72.8528 106.855C72.9178 106.736 72.9643 106.676 73.0665 106.326C72.9643 106.746 73.1315 106.216 73.0944 106.456C73.1687 105.997 73.3081 105.637 73.4103 105.118C73.1687 105.588 72.955 106.256 72.639 106.885C72.481 107.464 72.3974 107.744 72.1744 108.293C72.1186 108.273 72.3138 107.584 72.1465 107.914L72.1651 107.964ZM95.0632 76.6764C95.3234 76.6864 96.3456 77.4152 96.5408 77.5549C95.5092 76.6964 94.1618 76.1473 92.805 76.0575C91.4482 75.9576 90.0914 76.2472 88.8833 76.8761C87.6938 77.505 86.7459 78.3736 85.9839 79.2421C85.2218 80.1206 84.6364 80.9991 84.1438 81.7878C84.404 81.4084 84.8222 80.7495 85.0267 80.5499C84.9523 80.6697 84.878 80.7795 84.8408 80.8594C85.2776 80.2304 86.0675 79.1522 87.1827 78.1739C87.7495 77.6847 88.3629 77.2455 89.0506 76.8961C89.729 76.5566 90.3981 76.337 90.9835 76.2172C90.8255 76.2471 90.6025 76.2971 90.5932 76.327C91.1973 76.1673 92.2753 76.0575 93.2324 76.2072C94.1896 76.337 94.9703 76.6964 95.0446 76.6964L95.0632 76.6764ZM73.4847 106.286L73.5869 106.326C74.2188 104.659 75.018 102.533 75.6964 100.736C75.0273 102.323 74.572 103.531 74.1352 104.609C74.1352 104.519 74.0423 104.789 74.1631 104.38C73.8099 105.248 73.8007 105.498 73.4754 106.296L73.4847 106.286ZM75.3526 104.02C75.5942 103.411 76.096 102.303 76.3469 101.524C76.189 101.874 75.8172 102.912 75.9845 102.343C75.7801 102.772 75.5013 103.571 75.3619 104.02H75.3526ZM88.1677 106.346C88.4186 106.187 88.2792 106.306 88.2885 106.346C88.8368 105.997 89.3201 105.657 89.9241 105.118C89.636 105.248 88.7718 105.807 88.1584 106.336L88.1677 106.346ZM92.9908 101.604C92.9351 101.584 92.0522 102.712 92.108 102.772C92.4611 102.363 92.6005 102.153 92.9908 101.604ZM95.7695 81.1489C95.7695 81.1489 95.8438 81.2387 95.8066 81.2387C96.0204 81.4683 96.1876 81.9176 96.3828 82.3069C96.327 82.1072 96.4293 82.4367 96.485 82.4766C96.5036 82.6064 96.5594 82.6663 96.643 82.9458C96.7731 83.3352 96.6523 82.866 96.4386 82.3169C96.2341 81.7578 95.8624 81.1988 95.8066 81.1289C95.8066 81.1289 95.7787 81.059 95.7509 81.059C95.9181 81.2886 95.5743 80.9093 95.7509 81.1688L95.7695 81.1489ZM91.8385 79.2321C91.3831 79.312 91.727 79.2521 92.0429 79.2321C92.3589 79.2321 92.647 79.2221 92.0894 79.2321C92.6842 79.2022 93.4741 79.312 94.1432 79.6614C94.8123 80.0008 95.3606 80.5698 95.6765 80.9991C94.7008 79.6614 93.3718 79.0424 91.8385 79.2421V79.2321ZM93.5205 79.5216C93.8644 79.6913 93.948 79.6614 94.2175 79.881C95.8345 80.7695 96.5872 82.7761 96.866 84.7128C97.0147 85.7012 97.0426 86.6995 97.0147 87.7577C96.9868 88.8059 96.9218 89.8741 96.7638 90.9822C96.959 89.964 97.0612 88.8459 97.0891 87.6878C97.1262 86.5098 97.0612 85.3518 96.8382 84.2037C96.6151 83.0756 96.2248 81.9974 95.6486 81.1688C95.0818 80.3302 94.329 79.7712 93.5112 79.5116L93.5205 79.5216ZM96.578 83.4849C96.4943 83.1954 96.3549 82.6763 96.2713 82.5665C96.3828 82.826 96.5129 83.3551 96.578 83.4849ZM88.558 81.5981C88.4093 81.658 88.0562 82.0773 87.8425 82.3968C88.0841 82.1272 88.2328 81.9575 88.558 81.5981ZM99.9606 84.4832C100.119 85.232 100.146 86.0406 100.146 86.7494C100.146 87.2785 100.1 85.6513 100.109 86.4998C100.081 86.1404 100.044 85.0822 99.9606 84.4832ZM72.9829 104.12C72.8621 104.34 72.8899 104.26 72.7691 104.4C72.862 104.2 72.9736 103.9 73.0758 103.661C73.0386 103.84 72.9829 104.05 73.0014 104.13C72.955 104.25 72.9643 104.18 72.9829 104.13V104.12Z" fill="#124936"/>
<path d="M63.2863 182.373C60.9387 164.155 58.5822 145.681 59.2669 126.666C59.4714 120.99 60.0049 115.058 62.0057 110.139C64.0065 105.221 67.8481 101.709 71.076 103.371C74.304 105.034 75.7446 110.906 76.4026 116.366C79.097 138.785 74.2684 163.673 65.207 182.953" fill="#124936"/>
<path d="M57.2591 125.094C57.2055 126.317 57.125 128.074 57.1518 128.933C57.2144 127.393 57.2413 126.248 57.2591 125.094ZM78.896 138.101C78.8424 137.795 78.9855 136.068 79.0213 135.101C79.0749 135.407 78.9318 137.134 78.896 138.101ZM61.2842 107.053C61.4631 106.599 62.3307 105.335 62.6885 104.921C62.3754 105.405 61.6062 106.431 61.2842 107.053ZM58.1089 154.593C58.0642 154.435 57.9389 152.856 57.9568 152.698C58.0284 153.675 58.082 153.971 58.1089 154.593ZM57.2591 139.779C57.3039 139.937 57.2949 140.973 57.3307 141.476C57.3486 141.437 57.3307 141.092 57.3307 140.835C57.3665 140.924 57.3754 141.881 57.4023 142.315C57.3754 142.157 57.3575 141.93 57.3396 141.684C57.3218 142.325 57.4202 143.875 57.4559 144.862C57.3575 143.539 57.2681 141.161 57.2591 139.769V139.779ZM60.2645 109.638C60.3271 109.323 60.8906 108.168 61.2126 107.546C61.159 107.704 60.9801 108.059 60.7833 108.454C60.6044 108.859 60.3897 109.313 60.2735 109.638H60.2645ZM60.9264 178.456C60.8549 177.785 60.8906 177.598 60.7922 176.779C60.8996 177.134 61.0338 178.535 60.9264 178.456ZM65.1214 107.931C65.2914 107.605 66.0069 106.757 66.4542 106.332C66.2305 106.599 65.4792 107.368 65.1214 107.931ZM62.3128 159.202C62.3754 159.409 62.3844 160.159 62.4828 160.86C62.3844 160.524 62.3486 159.734 62.3128 159.202ZM61.2037 130.305C61.2395 130.798 61.1948 132.17 61.2037 132.999C61.1411 132.801 61.1769 130.808 61.2037 130.305ZM61.4899 122.883C61.5346 123.248 61.4094 124.61 61.3826 125.548C61.3289 125.182 61.472 123.544 61.4899 122.883ZM61.9014 182.335C61.8298 181.812 61.7851 181.22 61.6509 180.677C61.5794 179.749 61.4363 178.476 61.2753 177.124C61.2484 176.956 61.2305 176.917 61.2037 176.71C61.1858 176.838 61.0338 176.394 61.1411 177.144C60.9533 176.502 60.8638 175.012 60.9354 175.051C60.8728 174.41 60.8191 174.292 60.7654 173.798C60.8012 174.686 60.7744 175.071 60.9622 176.315C60.8727 176.315 60.8549 176.236 60.7833 176.552C60.6312 175.397 60.5955 175.426 60.4434 174.903C60.3987 174.41 60.345 173.867 60.2735 173.226C60.2377 172.949 60.2019 172.9 60.1572 172.604C60.0767 172.456 60.193 173.186 60.1125 173.038C58.9407 162.715 57.7511 152.125 57.4112 141.249C57.1786 138.476 57.286 137.065 57.2413 133.818C57.1697 134.193 57.2413 135.9 57.2055 136.581C57.125 132.644 57.2055 128.587 57.3844 124.699C57.5812 120.8 58.0105 117.05 58.7529 113.833C59.1733 112.254 59.7636 110.388 60.6402 108.484C61.5346 106.589 62.7332 104.783 64.1643 103.401C64.7726 102.839 64.1107 103.371 64.4864 103.036C65.5686 102.118 66.2484 101.753 66.9461 101.467C67.6259 101.2 68.3504 100.894 69.8799 100.963C69.7815 100.993 69.5579 101.003 69.2359 101.013C68.9318 101.042 68.5293 101.092 68.1 101.2C67.2323 101.398 66.2932 101.861 65.506 102.404C66.2842 101.852 67.7064 101.141 69.1375 101.092C69.4953 101.102 69.8352 101.102 70.1393 101.151C70.4434 101.22 70.7207 101.279 70.9622 101.329C71.4094 101.496 71.7046 101.615 71.7314 101.605C72.8585 102.158 73.6814 102.967 74.3254 103.796C74.9783 104.625 75.4524 105.493 75.8459 106.372C76.651 108.138 77.1697 109.974 77.617 112.145C77.7511 112.619 77.9121 113.556 77.9926 113.635C78.2699 115.234 78.4309 116.902 78.574 117.938C78.574 117.632 78.4488 116.458 78.3683 115.787C78.5919 117.04 78.905 120.406 78.8155 120.929C78.9229 122.893 79.0749 124.906 79.0839 126.811C79.1018 127.768 79.1197 128.696 79.1465 129.584C79.1465 130.462 79.1465 131.301 79.1465 132.081C78.905 135.229 78.7887 139.216 78.3057 143.391C78.6724 140.647 78.1715 144.941 78.1268 145.306C78.0016 146.47 77.8585 147.635 77.6885 148.77C77.5186 149.905 77.3844 151.03 77.1966 152.086C76.5078 156.063 75.7475 159.221 75.0767 161.866C73.4667 168.429 71.1858 174.824 68.9407 179.897C68.7261 180.45 68.6366 180.726 68.3951 181.269C68.3772 181.259 68.4846 181.022 68.5472 180.874C67.7422 182.394 66.6509 184.299 67.3128 182.355C67.1518 182.473 66.7225 183.273 66.32 183.953C66.6152 182.651 66.0606 183.065 66.6241 181.269C66.0069 182.167 66.2484 181.052 66.0517 180.953C65.828 180.845 65.1304 181.703 65.8817 179.7C65.7923 179.453 66.0159 178.575 66.4452 177.302C66.9103 176.009 67.5007 174.361 68.1536 172.535C69.4685 168.863 70.9085 164.491 71.6957 161.452C72.5454 157.859 73.5114 154.109 74.1912 149.934C74.2896 149.322 74.2538 149.234 74.3343 148.701C75.3093 142.868 75.676 137.578 75.8281 132.407C75.8012 134.025 75.676 135.21 75.6223 136.463C75.5687 137.716 75.4434 139.029 75.2645 140.884C75.1125 142.414 75.3003 140.213 75.354 139.641C75.8191 133.838 75.998 127.186 75.3629 120.198C75.0409 116.705 74.6563 113.112 73.6009 109.836C73.0731 108.227 72.3755 106.668 71.4184 105.71C70.4524 104.733 69.4416 104.497 68.2431 105.01C67.2323 105.375 65.998 106.549 65.6402 107.151C64.388 108.691 63.8066 109.885 63.1536 111.642C63.1536 111.731 63.5561 110.675 63.5024 110.754C63.252 111.504 62.7601 112.846 62.3575 114.405C61.9461 115.955 61.633 117.721 61.4631 119.172C61.7404 117.544 62.2055 114.78 63.091 112.204C63.5382 110.902 64.066 109.707 64.6921 108.691C65.3093 107.684 65.9801 106.875 66.5436 106.362C65.5686 107.329 64.7457 108.533 64.1107 109.816C63.4756 111.079 62.9837 112.481 62.5991 113.902C61.8298 116.754 61.4363 119.725 61.2395 122.834C61.2037 122.755 61.1858 123.771 61.1411 123.445C61.0338 125.163 60.9711 126.781 60.9354 128.321C60.8817 129.86 60.8549 131.331 60.8549 132.762C60.8459 134.795 60.9622 136.868 60.9175 138.792C61.2037 151.247 62.3933 161.787 63.4846 172.101C63.3593 171.548 63.4309 171.153 63.2878 170.433C63.3414 171.094 63.4398 171.982 63.4667 172.525C63.6635 173.522 64.2001 178.279 64.1107 178.999C63.9407 177.45 63.8513 176.265 63.6277 174.41C63.6277 174.775 63.7976 175.959 63.744 176.088C63.5919 175.111 63.413 173.295 63.2878 172.13C63.2431 171.844 63.252 172.12 63.2788 172.347C62.9568 169.712 62.7511 166.712 62.3486 163.81C62.4381 165.005 62.7153 166.811 62.7332 167.768C62.6706 167.452 62.5633 166.169 62.447 165.271C62.5185 166.367 62.6169 167.097 62.7511 168.4C62.7153 167.432 62.8495 169.248 62.9658 170.058C62.6527 167.975 62.3665 165.577 62.3754 166.969C62.6885 169.959 62.769 170.393 63.0016 172.377C63.0016 172.002 62.9121 171.607 63.0284 171.953L62.9032 170.916C63.0373 172.041 63.2252 172.703 63.4219 174.232C63.3862 174.173 63.3414 173.719 63.2967 173.403C63.252 173.541 63.2967 174.124 63.3862 174.874C63.3325 174.844 63.2431 173.887 63.1894 174.055C63.1536 174.203 63.2609 174.499 63.2967 174.884C63.252 174.992 63.1626 173.926 63.1089 173.847C63.2073 174.726 63.2967 175.752 63.5203 177.39C63.4846 177.302 63.4488 177.134 63.4041 176.769C63.4219 177.282 63.6187 178.427 63.6992 179.058C63.5919 178.96 63.7529 180.065 63.6813 180.124C63.5919 178.841 63.4309 178.476 63.4756 178.032C63.2341 177.183 63.0552 175.101 62.7779 173.255C62.8674 174.232 63.0463 175.634 63.1804 176.798C63.1357 176.67 63.091 176.354 63.0373 175.969C63.0373 176.058 63.0731 176.788 63.1178 176.591C63.1626 177.233 62.9747 175.989 62.9211 175.772C62.9479 176.048 62.9837 176.325 62.8763 176.206C62.7332 175.269 62.6348 173.433 62.3844 172.249C62.3665 171.972 62.3397 171.617 62.3397 171.41C62.2323 170.679 62.1339 170.334 62.0087 169.13C62.1965 170.383 61.9908 168.646 62.0445 168.488C61.9729 168.459 61.7046 165.824 61.5615 164.748C61.633 165.794 61.9282 168.133 62.0177 168.913C61.9819 168.765 61.9461 168.538 61.9103 168.291C62.1071 170.225 62.3486 172.446 62.6617 174.331C62.608 174.4 62.7332 175.298 62.769 175.802C62.8763 176.561 62.9389 176.384 63.0463 177.242C62.9389 177.39 62.8584 176.956 62.6706 175.604C62.8406 177.154 63.2252 179.621 63.0642 180.213C63.0194 178.812 62.7958 176.877 62.4828 174.578C62.5364 175.417 62.8674 177.529 62.8763 178.121C62.8048 177.519 62.769 177.539 62.6885 177.085C62.6885 177.598 62.6885 177.292 62.7422 178.141C62.6438 177.746 62.6527 177.085 62.5185 176.265C62.4202 175.95 62.6527 177.617 62.4917 176.483C62.447 176.394 62.5275 177.272 62.5812 177.321C62.5454 177.262 62.3844 176.532 62.3307 176.719C62.1787 175.594 62.2502 176.127 62.0803 174.844C62.0355 175.328 62.3575 176.779 62.3754 177.341C62.3933 177.134 62.6169 178.239 62.4828 177.114C62.6348 177.647 62.6259 178.249 62.6348 178.792C62.5543 178.624 62.5633 178.121 62.5007 177.756C62.286 177.252 62.4828 180.292 62.1965 178.654C62.125 178.516 62.2144 179.088 62.2234 179.285C62.0087 178.259 61.9103 177.006 61.6956 175.752C61.7225 176.186 61.955 178.042 62.0355 178.456C62.0982 179.127 61.955 178.269 61.9193 177.835C61.8477 178.259 62.3307 181.131 62.3844 181.792C62.3575 181.999 62.0982 180.233 61.9908 179.947C61.9819 179.69 61.9908 179.562 61.8924 178.9C62.0355 179.67 61.8924 178.654 61.9908 179.098C61.794 178.279 61.7225 177.558 61.5257 176.621C61.5704 177.598 61.7583 178.881 61.8298 180.183C62.0087 181.279 62.0892 181.802 62.1787 182.888C62.125 182.897 61.9193 181.605 61.9461 182.286L61.9014 182.335ZM61.3379 107.359C61.4541 106.964 62.5812 105.355 62.8137 105.029C61.5078 106.707 60.4792 108.75 59.7636 110.813C59.0302 112.885 58.5293 115.047 58.1804 117.159C57.4828 121.403 57.3486 125.498 57.3307 128.933C57.3665 128.074 57.3575 126.673 57.4291 126.169C57.4291 126.426 57.4291 126.653 57.438 126.811C57.4738 125.429 57.5722 123.1 57.8316 120.633C58.0731 118.165 58.5114 115.56 58.9586 113.665C58.9049 113.922 58.8066 114.277 58.8244 114.316C59.0481 113.329 59.5311 111.622 60.0946 110.161C60.6491 108.691 61.311 107.477 61.3379 107.349V107.359ZM62.1697 178.466L62.286 178.446C61.8924 175.16 61.4094 170.897 60.9354 167.403C61.2931 170.6 61.5704 172.979 61.8119 175.13C61.7672 174.973 61.8298 175.496 61.7046 174.726C61.8924 176.453 62.0177 176.887 62.1787 178.476L62.1697 178.466ZM62.5454 173.107C62.4023 171.874 62.2055 169.604 61.964 168.104C62.0355 168.814 62.3128 170.867 62.125 169.781C62.1965 170.67 62.4202 172.239 62.5454 173.107ZM73.6545 153.023C73.7887 152.431 73.7261 152.796 73.7708 152.836C73.905 152.194 74.0302 151.573 74.1733 150.921C74.2806 150.26 74.3969 149.569 74.5311 148.75C74.3343 149.352 73.896 151.395 73.6635 153.014L73.6545 153.023ZM75.5776 139.473C75.4882 139.483 75.2288 142.355 75.3093 142.365C75.4524 141.289 75.4524 140.795 75.5776 139.473ZM67.286 105.187C67.286 105.187 67.4559 105.069 67.4291 105.118C67.8585 104.743 68.6098 104.526 69.2091 104.447C68.9139 104.447 69.4059 104.437 69.4774 104.408C69.6474 104.427 69.7547 104.427 70.1393 104.506C70.6492 104.724 70.0767 104.349 69.2449 104.378C68.4041 104.398 67.3754 105.029 67.2502 105.138C67.2502 105.128 67.125 105.197 67.1161 105.237C67.5365 104.921 66.803 105.533 67.2771 105.187H67.286ZM62.1518 113.793C61.8835 114.849 62.0892 114.06 62.3039 113.339C62.5275 112.629 62.7243 111.968 62.3307 113.231C62.7422 111.879 63.3683 110.132 64.2449 108.661C65.1125 107.171 66.2037 105.957 67.0087 105.365C65.7744 106.303 64.7815 107.625 63.9855 109.036C63.1983 110.458 62.6169 112.056 62.1518 113.793ZM63.6635 110.013C64.1017 109.224 64.1286 109.066 64.5937 108.405C65.6849 106.599 67.125 105.178 68.5293 104.743C69.227 104.526 69.862 104.566 70.4434 104.842C71.0427 105.118 71.5883 105.641 72.0624 106.312C72.9926 107.674 73.6277 109.451 74.0928 111.326C74.5579 113.201 74.8799 115.205 75.1125 117.336C74.9604 115.353 74.6653 113.251 74.1465 111.178C73.6277 109.135 72.8585 106.993 71.6152 105.661C70.998 105.01 70.3003 104.585 69.5847 104.566C68.8602 104.526 68.0463 104.793 67.2949 105.335C65.7744 106.401 64.54 108.188 63.6724 110.013H63.6635ZM70.676 105.02C70.3271 104.803 69.6742 104.576 69.4864 104.674C69.871 104.654 70.4971 104.911 70.676 105.02ZM61.1143 123.248C61.0159 123.574 60.9533 124.728 60.9443 125.508C60.998 124.748 61.0516 124.284 61.1143 123.248ZM74.9694 104.576C75.8191 105.789 76.3468 107.201 76.7404 108.434C77.0356 109.362 76.0517 106.53 76.5615 108.02C76.3468 107.408 75.6313 105.562 74.9694 104.585V104.576ZM60.506 175.318C60.5239 175.772 60.506 175.624 60.4702 175.959C60.4345 175.555 60.3719 174.973 60.3271 174.489C60.3987 174.815 60.4613 175.209 60.5239 175.308C60.5507 175.545 60.5239 175.427 60.506 175.308V175.318Z" fill="#124936"/>
<path d="M60.0763 125.953C53.8579 122.898 47.5658 119.784 42.5745 114.712C41.0891 113.194 39.6775 111.422 39.2531 109.013C38.8287 106.604 39.6775 103.431 41.6796 101.904C43.6816 100.366 46.0158 100.944 47.8518 101.884C55.4079 105.762 60.067 114.761 61.1465 124.935" fill="#124936"/>
<path d="M40.1865 113.816C40.5099 114.252 40.9903 114.856 41.2582 115.114C40.824 114.608 40.5099 114.212 40.1865 113.816ZM54.885 106.159C54.7741 106.09 54.303 105.525 54.0166 105.228C54.1275 105.287 54.6079 105.862 54.885 106.159ZM38.3758 105.793C38.3943 105.585 38.579 104.941 38.6714 104.723C38.616 104.961 38.4405 105.495 38.3758 105.793ZM49.5174 121.8C49.4528 121.78 48.9077 121.423 48.8615 121.374C49.2033 121.592 49.2865 121.651 49.5174 121.8ZM44.5748 118.204C44.6395 118.224 44.9536 118.521 45.1199 118.65C45.1199 118.63 44.9998 118.541 44.9167 118.472C44.9536 118.472 45.2585 118.739 45.4063 118.848C45.3509 118.818 45.2677 118.759 45.1846 118.699C45.3786 118.878 45.8867 119.274 46.2193 119.522C45.7666 119.205 44.9998 118.59 44.5748 118.204ZM38.2926 107.001C38.2742 106.862 38.3665 106.308 38.422 106.001C38.422 106.139 38.3111 106.694 38.2926 107.001ZM58.1093 126.416C57.8691 126.287 57.8229 126.228 57.518 126.069C57.6658 126.099 58.1647 126.386 58.1093 126.416ZM40.436 105.654C40.4544 105.486 40.6392 105.03 40.7501 104.772C40.7039 104.931 40.5099 105.367 40.436 105.654ZM52.2705 120.968C52.3537 120.988 52.5939 121.176 52.8525 121.305C52.714 121.265 52.4553 121.087 52.2705 120.968ZM43.1798 113.826C43.3276 113.955 43.7064 114.351 43.9466 114.579C43.8635 114.549 43.2999 113.984 43.1798 113.826ZM41.406 111.568C41.4984 111.667 41.7756 112.112 41.9973 112.39C41.8864 112.301 41.5446 111.766 41.406 111.568ZM59.6521 126.891C59.4581 126.802 59.2548 126.673 59.0331 126.614C58.7098 126.426 58.2571 126.178 57.7582 125.93C57.6935 125.901 57.675 125.901 57.6011 125.861C57.6381 125.901 57.4441 125.861 57.7305 126C57.4718 125.94 56.9544 125.613 56.9822 125.584C56.7512 125.455 56.705 125.455 56.5202 125.366C56.8251 125.564 56.9452 125.673 57.3979 125.891C57.3702 125.93 57.3425 125.92 57.4256 126.039C57.0006 125.831 57.0006 125.851 56.7881 125.802L56.1876 125.475C56.086 125.425 56.0583 125.435 55.9567 125.376C55.8828 125.376 56.1599 125.504 56.086 125.504C52.3721 123.533 48.5474 121.433 45.0645 118.561C44.1314 117.897 43.7249 117.451 42.7364 116.53C42.8195 116.679 43.3646 117.124 43.5586 117.342C42.3483 116.243 41.1196 115.064 40.1034 113.648C39.0871 112.241 38.4127 110.587 38.2003 109.071C38.0155 107.546 38.3111 105.456 39.0225 103.901C39.1703 103.584 38.9948 103.901 39.0779 103.703C39.3458 103.168 39.5121 102.9 39.6877 102.653C39.8539 102.405 40.0202 102.167 40.399 101.751C40.3343 101.9 39.7431 102.573 39.3735 103.277C39.5768 102.93 39.9186 102.405 40.2697 102.009C40.6207 101.613 40.9533 101.325 40.9626 101.305C42.3853 100.117 43.9928 99.7503 45.859 100.117C46.0715 100.147 46.4687 100.246 46.5149 100.226C47.1893 100.414 47.8453 100.721 48.2518 100.899C48.1501 100.82 47.679 100.612 47.411 100.503C47.9654 100.642 49.1941 101.375 49.3419 101.533C50.7554 102.365 52.1227 103.445 53.0835 104.337C53.9981 105.307 55.1529 106.536 56.1969 108.002C55.5502 107.011 56.5941 108.527 56.6865 108.655C56.9822 109.052 57.2408 109.487 57.4995 109.903C57.7582 110.319 58.0169 110.726 58.2294 111.142C58.4326 111.528 58.6266 111.894 58.8114 112.231C58.9684 112.588 59.1255 112.934 59.2733 113.261C59.5782 113.905 59.7907 114.519 60.0124 115.064C61.0841 117.778 61.7308 120.671 62.0356 123.068C62.0818 123.325 62.1095 123.444 62.1465 123.702C62.1372 123.702 62.128 123.593 62.1095 123.523C62.1465 124.276 62.1557 125.247 61.9432 124.385C61.9063 124.474 61.9155 124.871 61.9155 125.217C61.703 124.682 61.5645 124.979 61.3427 124.197C61.3058 124.682 61.1118 124.227 61.0009 124.246C60.8716 124.266 60.7792 124.762 60.5944 123.86C60.3727 123.741 60.1233 122.394 59.7445 120.77C59.4026 119.145 58.8668 117.273 58.4234 116.025C57.8413 114.589 57.2501 113.083 56.4001 111.548C56.2708 111.33 56.2246 111.31 56.1137 111.122C54.9035 108.992 53.5177 107.328 52.0303 105.882C52.5015 106.328 52.8156 106.694 53.1482 107.07C53.4992 107.437 53.8318 107.853 54.2937 108.457C54.6725 108.952 54.1182 108.249 53.9704 108.071C53.2406 107.14 52.3629 106.248 51.4021 105.357C50.4043 104.535 49.3327 103.683 48.1132 103.039C46.9306 102.336 45.6373 101.85 44.3808 101.9C43.1336 101.93 41.988 102.653 41.2305 103.792C40.9071 104.257 40.5745 104.931 40.5191 105.248C40.2235 106.08 40.1126 106.635 40.0664 107.417C40.0664 107.457 40.1219 106.991 40.1034 107.021C40.0941 107.358 40.0572 107.942 40.1219 108.576C40.1773 109.19 40.3621 109.894 40.5838 110.409C40.3805 109.785 40.0849 108.744 40.1403 107.645C40.1588 106.526 40.4914 105.406 40.7963 104.772C40.2974 105.941 40.0941 107.199 40.1681 108.358C40.2512 109.507 40.6392 110.636 41.2859 111.647C41.249 111.637 41.4799 111.954 41.3875 111.865C42.1174 112.984 42.9304 113.856 43.7618 114.668C44.3439 115.252 44.9906 115.767 45.5449 116.312C49.3511 119.571 53.1112 121.612 56.7697 123.613C56.5572 123.533 56.4463 123.405 56.1692 123.305C56.4001 123.444 56.7142 123.613 56.899 123.731C57.2778 123.88 58.9777 124.781 59.1902 124.999C58.6358 124.702 58.2201 124.454 57.5549 124.118C57.675 124.207 58.1093 124.415 58.137 124.474C57.7767 124.306 57.13 123.949 56.7235 123.731C56.6126 123.682 56.705 123.741 56.7881 123.791C55.8366 123.305 54.8111 122.662 53.7579 122.137C54.1736 122.384 54.8296 122.711 55.1437 122.929C55.0236 122.88 54.5801 122.622 54.2568 122.454C54.6263 122.691 54.8943 122.83 55.3562 123.078C55.0328 122.86 55.661 123.236 55.9567 123.385C55.1899 123.018 54.3307 122.572 54.7834 122.909C55.8458 123.494 56.0029 123.563 56.7142 123.939C56.5941 123.85 56.4371 123.791 56.5849 123.821L56.2061 123.622C56.6126 123.83 56.8805 123.91 57.4348 124.177C57.4071 124.177 57.2408 124.088 57.13 124.038C57.1669 124.098 57.3609 124.217 57.6381 124.355C57.6104 124.375 57.2778 124.187 57.3147 124.256C57.3517 124.316 57.481 124.326 57.6196 124.405C57.6381 124.455 57.2685 124.237 57.2316 124.246C57.5457 124.415 57.906 124.623 58.5065 124.91C58.4696 124.91 58.4049 124.88 58.2755 124.821C58.4511 124.94 58.876 125.128 59.107 125.237C59.0423 125.267 59.4581 125.455 59.4488 125.504C59.0054 125.237 58.8391 125.227 58.7098 125.098C58.3679 125.009 57.6289 124.593 56.9544 124.276C57.2963 124.474 57.8044 124.732 58.2294 124.95C58.1739 124.94 58.0631 124.89 57.9152 124.821C57.943 124.851 58.1924 124.999 58.1462 124.94C58.3679 125.079 57.906 124.861 57.8229 124.841C57.9245 124.9 58.0169 124.95 57.9522 124.97C57.6104 124.811 56.9729 124.415 56.5202 124.237C56.4278 124.177 56.2985 124.108 56.2338 124.048C55.9659 123.92 55.8273 123.89 55.3931 123.652C55.8551 123.87 55.2361 123.533 55.1991 123.474C55.1714 123.504 54.2383 122.979 53.8503 122.78C54.2106 123.008 55.0513 123.444 55.3285 123.593C55.273 123.573 55.1899 123.533 55.0975 123.494C55.7811 123.88 56.5757 124.306 57.2778 124.613C57.2778 124.663 57.6104 124.811 57.7859 124.92C58.0631 125.059 58.0261 124.979 58.3402 125.138C58.3587 125.227 58.1924 125.158 57.6935 124.92C58.2478 125.217 59.1624 125.633 59.3103 125.851C58.8391 125.534 58.1462 125.168 57.3055 124.752C57.5919 124.93 58.3772 125.287 58.5804 125.425C58.3587 125.316 58.3587 125.336 58.1924 125.267C58.3587 125.396 58.2571 125.316 58.5527 125.495C58.3956 125.445 58.1832 125.287 57.8783 125.148C57.749 125.118 58.3587 125.415 57.943 125.217C57.906 125.217 58.2109 125.396 58.2386 125.376C58.2109 125.376 57.9245 125.277 57.9707 125.356C57.5549 125.158 57.7582 125.257 57.287 125.019C57.4348 125.158 57.9984 125.356 58.1924 125.485C58.1277 125.425 58.5527 125.584 58.1462 125.376C58.3679 125.425 58.5527 125.584 58.7375 125.712C58.6636 125.712 58.4973 125.584 58.3587 125.524C58.137 125.504 59.1809 126.148 58.5619 125.891C58.4973 125.891 58.7098 125.99 58.7744 126.039C58.3772 125.891 57.943 125.633 57.4718 125.435C57.6196 125.534 58.294 125.871 58.4511 125.93C58.6913 126.059 58.3679 125.93 58.2201 125.841C58.3402 125.98 59.4119 126.445 59.6521 126.584C59.7075 126.644 59.0608 126.346 58.9407 126.327C58.8576 126.267 58.8114 126.228 58.5712 126.119C58.8668 126.237 58.488 126.059 58.6636 126.119C58.3402 126.02 58.0815 125.881 57.7212 125.742C58.0538 125.96 58.525 126.178 58.9777 126.465C59.3842 126.644 59.5782 126.733 59.9662 126.951C59.957 126.98 59.4766 126.762 59.7075 126.921L59.6521 126.891ZM38.4497 105.921C38.4497 105.743 38.6991 104.921 38.7453 104.753C38.4405 105.634 38.2649 106.595 38.2187 107.586C38.1725 108.576 38.3111 109.636 38.6067 110.567C39.1795 112.479 40.3251 113.984 41.3229 115.044C41.0827 114.767 40.6762 114.311 40.5561 114.123C40.63 114.202 40.6947 114.282 40.7501 114.331C40.3621 113.875 39.7431 113.043 39.2442 112.033C38.7361 111.023 38.4127 109.854 38.2926 108.952C38.3111 109.071 38.3296 109.25 38.3481 109.26C38.2649 108.784 38.228 107.972 38.2834 107.269C38.3388 106.565 38.4589 105.981 38.4497 105.931V105.921ZM58.4603 125.821L58.488 125.762C57.2963 125.148 55.7904 124.375 54.497 123.702C55.6426 124.316 56.4833 124.762 57.2685 125.178C57.2039 125.158 57.3979 125.257 57.1023 125.128C57.7212 125.465 57.8968 125.504 58.4603 125.812V125.821ZM56.8159 124.326C56.3724 124.088 55.5779 123.632 55.0236 123.375C55.273 123.513 56.0213 123.89 55.6149 123.712C55.9197 123.9 56.5018 124.167 56.8159 124.326ZM57.0283 112.707C56.9175 112.479 57.0006 112.608 57.0283 112.608C56.7789 112.122 56.5941 111.657 56.2246 111.082C56.3262 111.33 56.6773 112.122 57.0283 112.707ZM54.0258 107.952C54.0258 107.952 54.7187 108.913 54.7557 108.893C54.5062 108.527 54.3584 108.388 54.0258 107.952ZM40.8794 104.138C40.8794 104.138 40.9256 104.049 40.9256 104.079C41.0272 103.821 41.2859 103.524 41.4892 103.247C41.3783 103.366 41.5538 103.158 41.5723 103.118C41.6462 103.059 41.6832 103.009 41.8402 102.851C42.062 102.653 41.7848 102.861 41.4799 103.207C41.1658 103.544 40.8887 104.059 40.8517 104.129C40.8517 104.129 40.8055 104.178 40.8148 104.198C40.9349 103.98 40.7408 104.386 40.8794 104.148V104.138ZM39.9371 108.418C39.974 108.853 39.9556 108.527 39.9371 108.229C39.9371 107.922 39.9371 107.645 39.9371 108.18C39.9186 107.605 39.9833 106.833 40.1496 106.1C40.3066 105.367 40.5838 104.693 40.7963 104.267C40.1403 105.575 39.8355 106.961 39.9371 108.418ZM40.0849 106.734C40.1588 106.347 40.1588 106.288 40.2697 105.951C40.6946 104.138 41.7016 102.791 42.9488 102.217C44.196 101.632 45.665 101.85 47.1524 102.524C45.8128 101.83 44.039 101.474 42.6255 102.346C41.1935 103.168 40.3251 105.01 40.0849 106.734ZM42.1913 102.712C42.025 102.851 41.7201 103.118 41.6647 103.217C41.8125 103.039 42.1266 102.791 42.1913 102.712ZM41.3229 111.835C41.3598 111.964 41.6093 112.34 41.8033 112.578C41.6462 112.33 41.5446 112.172 41.3229 111.835ZM42.4592 100.364C43.0228 100.097 43.6695 99.9782 44.2422 99.9583C44.6672 99.9286 43.3553 100.047 44.0482 99.9881C43.7618 100.018 42.9119 100.166 42.4684 100.364H42.4592ZM56.9637 125.881C57.1207 125.99 57.0653 125.96 57.1669 126.059C57.0099 125.97 56.8159 125.861 56.6496 125.772C56.7789 125.821 56.9267 125.881 56.9729 125.881C57.0099 125.911 57.0561 125.93 56.9729 125.881H56.9637Z" fill="#124936"/>
</g>
</svg>
