<svg width="60" height="59" viewBox="0 0 60 59" fill="none" xmlns="http://www.w3.org/2000/svg">
<path fill-rule="evenodd" clip-rule="evenodd" d="M42.525 29.175V58.35H2.175C0.975002 58.35 0 57.375 0 56.1V2.25C0 1.05 0.975002 0 2.175 0H41.475C42.225 0 42.975 0.375 43.35 1.05L60 29.1H42.525V29.175Z" fill="#9E80F7"/>
<path d="M23.625 33.9751C23.4 34.0501 23.175 34.0501 23.025 34.0501H22.875C23.1 33.9751 23.4 33.9751 23.625 33.9751Z" fill="#124A36"/>
<path d="M23.2516 34.05C23.2516 34.1 23.2266 34.1251 23.1766 34.1251H23.1016C23.1516 34.1251 23.2016 34.1 23.2516 34.05Z" fill="#124A36"/>
<path d="M23.6992 34.0501L23.7742 33.9751C23.7742 34.0251 23.7492 34.0501 23.6992 34.0501C23.7492 34.0501 23.7492 34.0501 23.6992 34.0501C23.7742 34.1251 23.6992 34.1251 23.6992 34.0501Z" fill="#124A36"/>
<path d="M21.8984 34.2C21.9484 34.25 21.9484 34.25 21.8984 34.2C21.8984 34.25 21.8984 34.25 21.8984 34.2C21.9734 34.275 21.8984 34.275 21.8984 34.2Z" fill="#124A36"/>
<path d="M21.225 34.275C21.175 34.275 21.175 34.275 21.225 34.275C21.15 34.2 21.225 34.2 21.225 34.275Z" fill="#124A36"/>
<path fill-rule="evenodd" clip-rule="evenodd" d="M24.5996 38.3251H24.2996C24.2996 38.4001 24.2246 38.3251 24.2246 38.3251H24.1496C24.0746 38.3251 23.9996 38.4001 23.9246 38.3251H24.0746C23.9996 38.2501 23.8496 38.3251 23.6996 38.4001V38.3251H22.9496C22.9496 38.3251 22.8746 38.4001 22.9496 38.4001H22.7246C22.9496 38.4001 22.8746 38.3251 22.6496 38.4001H22.2746C21.9746 38.4001 21.7496 38.4751 21.4496 38.4001H21.2996C21.2246 38.4001 21.1496 38.4001 21.0746 38.3251C21.1496 38.3251 21.2246 38.325 21.2246 38.25C21.1246 38.2 21.0246 38.1751 20.9246 38.1751H20.7746C20.8496 38.1001 20.6246 38.0251 20.6996 38.1001C20.6246 38.1001 20.5496 38.0251 20.4746 37.9501C20.3996 37.8751 20.3996 37.8 20.3246 37.8H20.1746C20.0996 37.8 20.0996 37.875 20.0246 37.8C20.0246 37.75 20.0496 37.7251 20.0996 37.7251C20.0996 37.7251 20.0246 37.7251 20.0246 37.6501C20.0996 37.6501 20.0996 37.5751 20.0246 37.5751C19.9496 37.5751 19.9496 37.5751 20.0246 37.5751H19.7996C19.7996 37.5001 19.7996 37.5751 19.8746 37.5751V37.3501C19.8746 37.3501 19.7996 37.2751 19.8746 37.2751H19.9496C19.9496 37.2001 20.0246 37.1251 20.0246 37.1251C20.0246 37.1251 20.0996 37.1251 20.0996 37.0501C20.0996 36.9001 20.0246 36.9001 19.8746 36.9001V36.7501H19.7996C19.8496 36.7501 19.8746 36.7251 19.8746 36.6751C19.8746 36.6751 19.7996 36.6001 19.7246 36.6751L19.7996 36.6C19.8746 36.6 19.9496 36.45 20.0246 36.375C20.0246 36.3 20.0996 36.2251 20.0996 36.2251V36.15H20.2496C20.2496 36.1 20.2246 36.0751 20.1746 36.0751H20.2496V36.0001C20.2496 36.0001 20.3246 35.925 20.2496 35.925C20.2996 35.925 20.3246 35.9001 20.3246 35.8501H20.2496C20.2496 35.8501 20.3246 35.7751 20.3246 35.7001C20.3246 35.7001 20.2496 35.7001 20.3246 35.6251C20.3246 35.6251 20.3996 35.5501 20.3996 35.4751C20.3996 35.4751 20.3996 35.4001 20.4746 35.4001C20.4746 35.4751 20.3996 35.3251 20.4746 35.3251V35.2501C20.5496 35.2501 20.5496 35.1751 20.5496 35.1001V34.9501L20.4746 35.0251C20.4746 35.0251 20.4746 35.1001 20.3996 35.1001V34.9501C20.4746 34.9501 20.4746 34.8751 20.4746 34.8751C20.4746 34.8751 20.3996 34.8751 20.3996 34.9501C20.4746 34.9501 20.5496 34.8001 20.5496 34.725C20.4746 34.725 20.4746 34.8001 20.3996 34.8751V34.9501C20.4746 34.8001 20.4746 34.7251 20.5496 34.6501L20.6246 34.5751V34.5H20.7746V34.5751H20.6996C20.6996 34.5751 20.8496 34.575 20.8496 34.5C20.9246 34.425 20.9246 34.35 20.9996 34.5C21.0746 34.575 21.1496 34.5751 21.2996 34.5751C21.2246 34.5751 21.1496 34.575 21.0746 34.5H20.9996C20.9996 34.5 20.9246 34.5001 20.9246 34.4251C20.9996 34.4251 21.0746 34.425 21.1496 34.5C21.2246 34.575 21.2996 34.5751 21.3746 34.5751V34.5H21.2246C21.1746 34.5 21.1246 34.4751 21.0746 34.4251C21.1496 34.4251 21.2246 34.4251 21.2246 34.3501C21.1496 34.3501 21.1496 34.2751 21.1496 34.2001V34.275L21.2246 34.3501L21.2996 34.4251H21.4496C21.4496 34.4751 21.4246 34.4751 21.3746 34.4251C21.4246 34.4751 21.4746 34.5 21.5246 34.5H22.0496C22.1996 34.5 22.4246 34.425 22.5746 34.5H22.8746C23.0246 34.5 23.0996 34.5001 23.2496 34.4251C23.4746 34.4251 23.6246 34.35 23.8496 34.275C23.8496 34.275 23.9246 34.2 23.9996 34.275H23.9246C23.9246 34.275 23.8496 34.2751 23.8496 34.3501C23.8996 34.3501 23.9496 34.325 23.9996 34.275C24.0746 34.275 24.2246 34.2001 24.2246 34.1251C24.1496 34.2001 24.0746 34.2001 23.9246 34.2001C23.9996 34.1251 24.1496 34.0501 24.2996 33.9751C24.2246 33.9751 24.1496 33.975 24.0746 34.05C23.9996 34.125 23.8496 34.1251 23.7746 34.1251H23.8496C23.9246 34.1251 23.9246 34.0501 23.9996 34.1251C24.1496 34.1251 24.2996 34.0501 24.5246 33.9751C24.5996 33.9751 24.5996 33.9001 24.6746 33.9001C24.8246 33.8251 24.8996 33.7501 25.0496 33.6751V33.7501C25.0496 33.7501 25.1246 33.7501 25.1246 33.6751C25.1996 33.6001 25.2746 33.5251 25.3496 33.5251C25.3496 33.5251 25.4246 33.5251 25.4246 33.4501C25.4246 33.4501 25.3496 33.5251 25.3496 33.4501C25.4996 33.3751 25.6496 33.1501 25.7996 33.0001C25.8746 32.8501 25.9496 32.7751 26.0996 32.7001C26.2496 32.7001 26.3996 32.4751 26.4746 32.3251C26.5496 32.3251 26.6246 32.3251 26.6246 32.2501C26.6246 32.1751 26.6996 32.175 26.7746 32.175V32.4H26.8496C26.9996 32.4 27.0746 32.4 27.2246 32.625H27.2996C27.3746 32.625 27.3746 32.7 27.4496 32.625C27.5996 32.7 27.6746 32.6251 27.6746 32.5501V32.625C27.6746 32.625 27.5996 32.7001 27.6746 32.7751C27.6746 32.7751 27.6746 32.7001 27.7496 32.7751C27.7496 32.8501 27.6746 32.8501 27.7496 32.9251L27.8246 32.85V32.9251C27.8996 33.0751 28.1996 33.2251 28.1996 33.0751V33.1501C28.2496 33.1501 28.2746 33.1751 28.2746 33.2251L28.1996 33.1501C28.1246 33.1501 28.0496 33.1501 28.1246 33.2251C28.1246 33.2251 28.1996 33.2251 28.1996 33.3001C28.2746 33.3001 28.2746 33.3751 28.2746 33.3001V33.2251C28.2746 33.1751 28.2996 33.1501 28.3496 33.1501V33.3001C28.3496 33.2251 28.4246 33.2251 28.4246 33.2251V33.3001H28.6496C28.6496 33.3001 28.6496 33.2251 28.7246 33.3001V33.3751C28.7246 33.3751 28.7246 33.4501 28.7996 33.4501C28.7246 33.5251 28.8746 33.5251 28.8746 33.5251C28.8746 33.5251 28.8746 33.4501 28.9496 33.5251V33.6751L29.0246 33.6001C28.9746 33.6501 28.9746 33.7001 29.0246 33.7501C29.0246 33.6751 29.1746 33.6751 29.1746 33.7501H29.0996C29.1746 33.7501 29.1746 33.8251 29.2496 33.9001V33.9751H29.3246L29.2496 34.05C29.2496 34.05 29.1746 34.0501 29.1746 34.1251C29.2246 34.1751 29.2496 34.225 29.2496 34.275C29.2496 34.275 29.2496 34.3501 29.3246 34.3501H29.4746C29.4746 34.4251 29.5496 34.4251 29.6246 34.4251C29.5496 34.5001 29.5496 34.5751 29.6246 34.5751V34.6501C29.6246 34.6501 29.6246 34.5751 29.6996 34.6501C29.6246 34.6501 29.4746 34.8001 29.5496 34.8751C29.5496 34.8751 29.6246 34.8751 29.6246 34.8001C29.6246 34.8001 29.6996 34.7251 29.6996 34.8001C29.6246 34.8751 29.5496 34.9501 29.6996 34.9501C29.5496 35.1001 29.3996 35.2501 29.3246 35.4751H29.3996C29.3996 35.4751 29.4746 35.4001 29.4746 35.4751C29.4246 35.4751 29.4246 35.5001 29.4746 35.5501V35.6251H29.3246C29.1746 35.7001 29.0996 35.9251 28.9496 36.0751C28.7996 36.3001 28.6496 36.5251 28.5746 36.6C28.2746 36.9001 27.8996 37.2001 27.4496 37.4251C27.8996 38.1001 28.4246 38.7751 28.9496 39.4501C29.0996 39.6751 29.3246 39.8251 29.5496 40.0501L30.0746 40.5751L30.1496 40.6501C30.3746 40.8751 30.5996 41.1001 30.8996 41.3251L31.0496 41.4751C31.1996 41.6251 31.3496 41.7 31.1246 41.55C31.2746 41.625 31.4246 41.7751 31.5746 41.8501C31.9496 42.1501 32.3246 42.3751 32.6996 42.4501C33.0746 42.7501 33.7496 43.0501 34.2746 43.2751C34.4246 43.2001 34.8746 43.3501 35.0996 43.5001C35.0496 43.5001 34.9996 43.475 34.9496 43.425C34.8746 43.425 34.7996 43.3501 34.7246 43.3501C34.8746 43.4251 35.0246 43.5001 35.2496 43.5751C35.2996 43.5751 35.3496 43.6 35.3996 43.65C35.3996 43.725 35.4746 43.7251 35.5496 43.7251C35.5496 43.7251 35.6246 43.7251 35.6246 43.8001C35.6996 43.8001 35.7746 43.875 35.9246 43.875C36.4496 44.025 36.8996 44.1751 37.4246 44.2501C37.4246 44.3251 38.0246 44.4001 38.3246 44.4001C38.0246 44.3251 37.7246 44.3251 37.7246 44.1751C38.0246 44.2501 38.0996 44.2501 38.3246 44.2501H38.4746L38.5496 44.3251C39.1496 44.4001 39.8996 44.4751 40.4246 44.4001C41.4746 44.5501 42.8996 44.4001 44.2496 44.2501C44.1746 44.2501 44.0996 44.2501 44.0246 44.3251C43.9496 44.3251 43.7996 44.3251 43.7996 44.4001C44.0246 44.4001 44.1746 44.3251 44.3246 44.3251C44.5496 44.2501 44.7746 44.2501 45.0746 44.2501C46.9496 43.9501 48.7496 43.5001 50.3996 42.7501V42.8251C50.3996 42.8251 50.3246 42.8251 50.3996 42.9001H50.5496C50.6246 42.8251 50.6996 42.8251 50.7746 42.7501H50.8496C50.8996 42.8001 50.9996 42.8001 51.1496 42.7501V42.9751C50.9996 43.0501 50.9246 43.0501 50.8496 43.2001L50.7746 43.2751H50.8496C50.8496 43.2751 50.9246 43.2751 50.9996 43.2001C50.9996 43.1251 51.1496 42.9751 51.2996 42.9751C51.2246 42.9751 51.2246 43.0501 51.2246 43.0501V43.1251H51.2996C51.5246 43.0501 51.7496 42.9001 51.8246 42.8251C51.8996 42.8251 51.9746 42.8251 52.0496 42.7501H52.1246C52.0496 42.8251 52.1246 42.8251 52.1996 42.8251H52.2746C52.1246 42.9751 52.0496 42.9751 51.8246 43.0501C51.7496 43.1251 51.5996 43.2001 51.5246 43.2751C51.4496 43.3501 51.3746 43.35 51.2996 43.425H51.7496C51.6746 43.425 51.7496 43.4251 51.7496 43.3501H51.6746C51.7496 43.3501 51.8246 43.2751 51.8246 43.2751H52.1996C52.1996 43.2751 52.0496 43.3501 51.9746 43.3501C51.7496 43.4251 51.5246 43.5001 51.5246 43.5751C51.5996 43.5001 51.7496 43.5001 51.6746 43.5751C51.5996 43.5751 51.2996 43.7251 51.2246 43.7251C51.2996 43.7251 51.4496 43.65 51.5246 43.65C51.5996 43.575 51.7496 43.5751 51.8246 43.5751H51.7496L51.6746 43.65C51.8246 43.65 51.8246 43.725 51.7496 43.875C51.6746 43.95 51.6746 44.1 51.6746 44.1C51.6746 44.1 51.7496 44.1001 51.7496 44.0251C51.8246 44.0251 51.8246 43.9501 51.8246 44.0251V44.1C51.7496 44.175 51.6746 44.2501 51.5996 44.2501C51.7496 44.1751 51.6746 44.1751 51.5996 44.1751C51.5996 44.1751 51.5246 44.175 51.5246 44.1C51.5246 44.1 51.4496 44.1751 51.2996 44.1751C51.2246 44.1751 51.0746 44.2501 51.0746 44.3251C51.2246 44.3251 51.2246 44.2501 51.2996 44.2501C51.2996 44.2501 51.3746 44.2501 51.4496 44.1751C51.4496 44.2501 51.5246 44.2501 51.5996 44.2501C51.5246 44.2501 51.4496 44.3251 51.4496 44.3251H51.5246C51.4496 44.3251 51.4496 44.4001 51.4496 44.4001C51.5246 44.4001 51.5996 44.3251 51.6746 44.3251C51.7496 44.3251 51.7496 44.2501 51.8246 44.2501L51.7496 44.3251L51.6746 44.4001H51.8996C51.8246 44.4751 51.7496 44.5501 51.5996 44.5501C51.5246 44.6251 51.3746 44.6251 51.2996 44.7001C51.7496 44.5501 52.0496 44.4001 52.1996 44.1751C52.1996 44.4001 51.8996 44.4751 51.6746 44.6251C51.5996 44.6251 51.5246 44.7001 51.5246 44.7001C51.7496 44.6251 51.8996 44.6251 51.8996 44.7751H51.5996C51.5996 44.7751 51.5246 44.7751 51.5246 44.8501C51.4496 44.8501 51.3746 44.9251 51.3746 45.0001C50.9996 45.0751 50.6246 45.2251 50.2496 45.3751H50.3996C50.3496 45.3751 50.2746 45.4001 50.1746 45.4501C50.0246 45.5251 49.7246 45.6001 49.6496 45.6751C49.7246 45.6751 49.8746 45.6001 50.0246 45.6001C50.1746 45.5251 50.3246 45.525 50.3996 45.525L50.4746 45.4501C50.5246 45.4001 50.5246 45.3751 50.4746 45.3751C50.6246 45.3001 50.6996 45.3 50.7746 45.3H50.8496L50.9246 45.2251C51.0746 45.2251 51.2246 45.1501 51.3746 45.0751C51.4496 45.0001 51.5246 45.0001 51.5996 45.0001C51.6746 45.0751 51.5996 45.0751 51.5996 45.0751H51.6746C51.7496 45.0751 51.8246 45.0751 51.7496 45.1501C51.7496 45.0751 51.6746 45.1501 51.6746 45.2251C51.7496 45.2251 51.8246 45.1501 51.8246 45.2251C51.7496 45.2251 51.6746 45.3 51.5996 45.3C51.4496 45.375 51.2996 45.4501 51.2246 45.4501C51.3746 45.4501 51.4496 45.375 51.5996 45.3C51.8246 45.225 51.9746 45.1501 52.1246 45.1501C52.1246 45.0751 52.1996 45.0751 52.1996 45.0751C52.2746 45.0751 52.3496 45.0751 52.4246 44.9251C52.4246 44.9751 52.3996 45.0001 52.3496 45.0001C52.2996 45.0001 52.2746 45.0501 52.2746 45.1501H52.1996C52.0496 45.1501 51.9746 45.225 51.8996 45.3H52.0496C51.8246 45.375 51.6746 45.45 51.5996 45.525C51.5246 45.525 51.5246 45.6001 51.4496 45.6001H51.5246C51.5996 45.6001 51.5996 45.5251 51.5996 45.6001H51.4496C51.4496 45.6751 51.5246 45.6001 51.5246 45.6001H51.5996C51.4496 45.6751 51.3746 45.7501 51.3746 45.8251C51.4496 45.8251 51.5246 45.7501 51.5246 45.8251C51.3746 45.9001 51.2246 45.9001 51.1496 45.9001C51.0746 45.9001 50.9996 45.9001 50.8496 45.975L51.0746 45.9001C51.0246 45.9001 51.0246 45.8751 51.0746 45.8251C51.0746 45.8251 51.1496 45.825 51.1496 45.75C50.9996 45.825 50.9246 45.8251 50.7746 45.9001C50.6246 45.9751 50.4746 45.9751 50.1746 46.1251C50.0246 46.3501 50.3246 46.2751 50.6246 46.2001C50.6996 46.2001 50.7746 46.2001 50.8496 46.1251C50.7746 46.1251 50.6996 46.2001 50.6246 46.2001C50.5496 46.2751 50.4746 46.2751 50.5496 46.2001C50.4746 46.2001 50.4746 46.2751 50.3996 46.2751C50.2496 46.3501 50.0996 46.3501 50.0246 46.5001C50.0996 46.5001 50.2496 46.4251 50.3246 46.4251C50.3996 46.4251 50.4746 46.3501 50.4746 46.3501C50.3996 46.4251 50.1746 46.5001 50.0246 46.5751C49.9496 46.5751 49.7996 46.6501 49.7246 46.6501C50.0996 46.5751 50.4746 46.4251 50.7746 46.2751C50.9246 46.2001 51.1496 46.1251 51.2996 46.0501C51.2246 46.0501 51.2246 46.1251 51.2996 46.1251C51.3746 46.1251 51.4496 46.0501 51.5246 46.0501C51.6746 45.9751 51.8996 45.8251 52.0496 45.8251C52.0496 45.9001 51.9746 45.9001 51.8996 45.975C51.8246 45.975 51.8246 46.0501 51.7496 46.0501C51.9746 45.9751 52.1996 45.825 52.3496 45.75C52.4246 45.675 52.4996 45.6751 52.5746 45.6001C52.4996 45.8251 51.6746 46.2001 51.4496 46.2001C51.3746 46.2751 51.2996 46.2751 51.2246 46.3501C51.1496 46.3501 51.1496 46.4251 51.0746 46.4251H51.2996C51.3746 46.4251 51.3746 46.3501 51.4496 46.3501C51.3746 46.3501 51.2996 46.4251 51.2996 46.4251H51.2246C49.4246 47.1751 47.4746 47.7001 45.0746 48.1501C44.8496 48.2251 44.5496 48.225 44.2496 48.3001H43.5746C43.1246 48.3751 42.5996 48.3751 41.9996 48.3751C41.9996 48.3751 41.9996 48.4501 41.9246 48.4501H41.0996C40.0496 48.4501 39.0746 48.3751 37.9496 48.2251H38.1746C38.9996 48.3001 40.4246 48.4501 41.0246 48.3001H40.3496C39.9746 48.3001 39.5246 48.3001 39.2996 48.2251H39.4496C39.1496 48.1501 38.9246 48.1501 38.6246 48.1501H38.2496C38.1746 48.0751 37.9496 48.0751 37.7246 48.0751C37.5746 48.0751 37.4996 48.0751 37.3496 48.0001C35.8496 47.7751 34.3496 47.4001 32.9996 46.8001C31.6496 46.2751 30.4496 45.6001 29.4746 44.9251C29.3996 44.8501 29.0246 44.6251 29.2496 44.7751C29.9246 45.2251 30.1496 45.3751 30.7496 45.6751C29.9246 45.2251 29.1746 44.6251 28.3496 44.0251C28.2746 43.9501 28.1246 43.8751 28.0496 43.8001L27.9746 43.7251C27.9746 43.7251 27.9746 43.6501 27.8996 43.5751C27.7496 43.4251 27.5246 43.2751 27.3746 43.1251C26.9246 42.7501 26.4746 42.3751 26.1746 41.9251C25.7246 41.4751 25.0496 40.7251 24.6746 40.0501C24.4496 39.6751 24.2996 39.3751 24.2246 39.0751C24.6746 38.3251 24.5996 38.3251 24.5996 38.3251ZM24.5996 38.25C24.5246 38.25 24.5246 38.325 24.5246 38.25H24.5996ZM51.2996 44.7751C51.3746 44.7751 51.4496 44.7001 51.5246 44.7001H51.5996C51.5246 44.7001 51.5246 44.7751 51.4496 44.7751C51.2246 44.8501 50.9246 45.0001 50.6996 45.0751H50.8496C50.9996 45.0001 51.1496 45.0001 50.9996 45.0001C51.0746 44.8501 51.1496 44.8501 51.2996 44.7751C51.2996 44.8251 51.2996 44.8251 51.2996 44.7751ZM20.9996 34.6501C20.9996 34.6501 21.0746 34.5751 21.1496 34.5751C21.0746 34.5751 20.9246 34.5751 20.9996 34.6501C20.9496 34.6501 20.9496 34.6501 20.9996 34.6501ZM23.0246 34.3501C23.0246 34.2751 22.9496 34.3501 22.9496 34.3501H23.0246ZM21.9746 34.4251H22.1246C22.1246 34.3501 22.0496 34.3501 22.0496 34.4251C21.9996 34.3751 21.9496 34.3501 21.8996 34.3501H21.8246C21.8746 34.4001 21.9246 34.4251 21.9746 34.4251C21.9746 34.3751 21.9746 34.3751 21.9746 34.4251C21.9246 34.4251 21.9246 34.4251 21.9746 34.4251ZM23.2496 34.275C23.1746 34.35 23.2496 34.35 23.2496 34.275V34.275ZM25.2746 33.5251C25.2746 33.6001 25.1996 33.6001 25.1246 33.6001C25.1996 33.5251 25.2746 33.5251 25.2746 33.5251ZM25.0496 33.6751C24.9746 33.6751 25.0496 33.6001 25.0496 33.6751V33.6751ZM26.3996 32.625C26.3996 32.7 26.3246 32.7001 26.2496 32.7751C26.1746 32.7751 26.1746 32.85 26.1746 32.85C26.1746 32.775 26.2496 32.7751 26.3246 32.7751C26.3746 32.7251 26.3996 32.675 26.3996 32.625ZM20.9996 34.8001C20.9996 34.7501 20.9996 34.7501 20.9996 34.8001C20.9246 34.8001 20.9996 34.7251 20.9996 34.8001ZM20.2496 36.9751L20.1746 36.9001C20.2246 36.9001 20.2496 36.9251 20.2496 36.9751ZM20.1746 36.9751C20.1746 37.0251 20.1746 37.0251 20.1746 36.9751V36.9751ZM39.3746 44.1H39.5996C39.5996 44.175 40.4246 44.1751 40.7996 44.1751C41.2496 44.2501 41.8496 44.1751 42.2996 44.1751H41.9246C41.0246 44.1751 40.1246 44.175 39.2996 44.1C39.1496 44.1 39.2246 44.1 39.3746 44.1ZM52.1246 43.5001L52.0496 43.425C51.8996 43.5 51.8246 43.5001 51.7496 43.5751C51.6746 43.5751 51.5996 43.6501 51.4496 43.7251H51.5246C51.1496 43.8751 50.7746 44.1001 50.1746 44.2501C50.8496 44.1001 51.5996 43.7251 52.1246 43.5001ZM27.8996 42.4501C27.9496 42.5001 27.9496 42.5001 27.8996 42.4501H27.9746C28.0496 42.5251 28.1246 42.5251 28.1996 42.6001C28.3496 42.6751 28.4996 42.8251 28.6496 42.9751C28.4996 42.9751 28.0496 42.7501 27.8996 42.4501ZM29.6246 43.8001C29.5496 43.8751 30.0746 44.175 30.1496 44.1C30.0746 44.0251 29.9996 44.0251 29.9246 43.9501C29.8496 43.9501 29.7746 43.8751 29.6246 43.8001ZM38.0246 47.175C38.1746 47.175 38.0996 47.1751 38.0996 47.1001C38.1746 47.1001 38.0996 47.1 38.0246 47.175C38.0246 47.1 36.8996 46.8751 37.1996 46.9501H37.3496C37.3496 46.9501 37.4246 46.9501 37.4246 47.0251C37.4996 47.0251 37.5746 47.1001 37.7246 47.1001C37.8746 47.1001 37.9496 47.1 38.0246 47.175ZM40.1996 47.4C40.3496 47.4 40.5746 47.4 40.3496 47.4C40.1996 47.4 39.9746 47.4001 39.8246 47.3251C39.2996 47.2501 38.7746 47.25 38.1746 47.175C38.6246 47.25 39.5996 47.4 40.1996 47.4ZM39.2996 47.4751H39.5246C38.2496 47.3251 36.8996 47.0251 35.6246 46.7251C35.0996 46.5751 34.5746 46.5001 34.1246 46.3501C35.4746 46.8001 36.6746 47.0251 38.0246 47.2501L39.1496 47.4751H39.2996ZM37.1246 47.175H36.9746C36.9746 47.175 37.1246 47.2501 37.1996 47.2501H37.3496C37.3496 47.2501 37.2746 47.175 37.1246 47.175ZM42.7496 47.7751C42.5996 47.7751 42.3746 47.7751 42.2996 47.85H42.5996C42.6496 47.8 42.6996 47.7751 42.7496 47.7751Z" fill="#124A36"/>
<path d="M21.3746 33.9C21.3746 33.95 21.3746 33.95 21.3746 33.9C21.3246 33.95 21.3246 33.95 21.3746 33.9C21.2996 33.975 21.2996 33.9 21.3746 33.9Z" fill="#124A36"/>
<path d="M25.2 33.3L25.125 33.225H25.2V33.3C25.2 33.225 25.125 33.225 25.2 33.3Z" fill="#124A36"/>
<path d="M23.9246 34.0499C23.9246 34.0499 23.8496 34.1249 23.8496 34.0499H23.9246C23.9246 33.9749 23.9996 33.9749 23.9996 34.0499H23.9246Z" fill="#124A36"/>
<path fill-rule="evenodd" clip-rule="evenodd" d="M25.5754 33.0001C25.6504 32.9251 25.7254 32.9251 25.8004 32.9251C25.9504 32.8501 26.1004 32.7001 26.2504 32.5501L26.3254 32.4751C26.4754 32.3251 26.6254 32.1751 26.7754 32.1001C26.7754 32.1001 26.7004 32.1751 26.7004 32.2501C26.7004 32.3251 26.6254 32.4001 26.5504 32.4001V32.2501C26.5504 32.3251 26.4754 32.3251 26.4004 32.3251C26.3254 32.3251 26.3254 32.4001 26.2504 32.4751C26.2504 32.4751 26.3254 32.4751 26.3254 32.4001C26.3254 32.4001 26.3254 32.3251 26.4004 32.4001L26.2504 32.5501C26.1754 32.6251 26.1004 32.7751 26.0254 32.7751C25.8004 33.0001 25.5754 33.1501 25.2754 33.3001C25.2754 33.3001 25.2754 33.2251 25.3504 33.2251C25.3504 33.2251 25.4254 33.2251 25.4254 33.1501H25.2754C25.3504 33.1501 25.4254 33.0751 25.5754 33.0001ZM25.4254 33.1501C25.4754 33.1501 25.5254 33.1251 25.5754 33.0751C25.5004 33.0001 25.4254 33.0751 25.4254 33.1501Z" fill="#124A36"/>
<path d="M32.3246 41.775C32.2496 41.7 32.0996 41.625 32.0996 41.625C32.1746 41.625 32.1746 41.7 32.2496 41.7C32.3996 41.775 32.4746 41.85 32.4746 41.85C32.4746 41.85 32.3996 41.775 32.3246 41.775Z" fill="#124A36"/>
<path d="M39.1504 43.9501C39.2254 43.9501 39.4504 43.9501 39.5254 44.0251H39.4504C39.3004 43.9501 39.2254 43.9501 39.1504 43.9501Z" fill="#124A36"/>
<path d="M47.25 43.4251L47.55 43.3501C47.5 43.3501 47.45 43.3751 47.4 43.4251H47.25Z" fill="#124A36"/>
<path d="M45.2242 43.8H45.0742C45.2992 43.725 45.6742 43.65 45.8992 43.65C45.8242 43.65 45.7492 43.65 45.6742 43.725C45.5242 43.725 45.4492 43.725 45.3742 43.8H45.4492C45.2992 43.875 45.2242 43.875 45.2242 43.8C45.2242 43.85 45.2242 43.85 45.2242 43.8Z" fill="#124A36"/>
<path d="M51.525 42.3001L51.6 42.2251C51.675 42.3001 51.45 42.4501 51.375 42.3751C51.425 42.3751 51.475 42.3501 51.525 42.3001Z" fill="#124A36"/>
<path d="M38.5492 47.55C38.6992 47.55 38.7742 47.55 38.8492 47.625H38.6242C38.4742 47.625 38.3992 47.625 38.3242 47.55H38.5492Z" fill="#124A36"/>
<path d="M49.5758 46.7999C49.5008 46.7999 49.5008 46.8749 49.4258 46.7999C49.5008 46.7249 49.6508 46.6499 49.7258 46.7249C49.7258 46.7999 49.6508 46.7999 49.5758 46.7999Z" fill="#124A36"/>
<path d="M44.1016 48.15H43.7266C43.8016 48.15 44.2516 48.075 44.2516 48.15C44.2516 48.075 44.1766 48.075 44.1016 48.15Z" fill="#124A36"/>
<path d="M36.6752 43.575C36.8252 43.575 36.9752 43.65 37.1252 43.725H36.9752C36.8252 43.725 36.6752 43.6499 36.6002 43.6499C36.6752 43.6499 36.7502 43.6499 36.6002 43.6499C36.5252 43.6499 36.4502 43.5749 36.5252 43.6499C36.5252 43.5749 36.6002 43.575 36.6752 43.575Z" fill="#124A36"/>
<path d="M51.1496 42.2999C51.1496 42.2999 51.1496 42.3749 51.0746 42.3749H50.8496C50.8496 42.3749 50.9246 42.3749 50.9246 42.2999H51.1496Z" fill="#124A36"/>
<path fill-rule="evenodd" clip-rule="evenodd" d="M29.2488 18.675C31.4238 18.675 33.2238 16.8 33.2238 14.55C33.2238 12.3 31.4238 10.5 29.2488 10.5H23.9238V18.675H29.2488Z" fill="#FFFAE8"/>
</svg>
