<svg width="507" height="100" viewBox="0 0 507 100" fill="none" xmlns="http://www.w3.org/2000/svg">
<path d="M40.0121 15.1929L1.48786 38.2112C0.564625 38.768 0 39.7595 0 40.8349V95.1392C0 96.8248 1.36578 98.19 3.05203 98.19H76.9721C78.6584 98.19 80.0242 96.8248 80.0242 95.1392V39.1035L40.0121 15.1929ZM25.3929 65.3557H14.6192V58.0872C14.6192 55.1127 17.0303 52.7025 20.006 52.7025C22.9818 52.7025 25.3929 55.1127 25.3929 58.0872V65.3557Z" fill="#11533E"/>
<path d="M106.069 98.7627V36.8896H144.253V45.5519H115.615V63.4067H141.955V72.0689H115.615V98.7627H106.069Z" fill="#124936"/>
<path d="M165.211 99.5582C161.911 99.5582 158.965 98.8216 156.372 97.3484C153.779 95.8753 151.746 93.7834 150.273 91.0727C148.8 88.3621 148.064 85.1211 148.064 81.3498V55.1864H157.168V80.7311C157.168 84.5024 158.111 87.3014 159.996 89.1282C161.882 90.896 164.504 91.7799 167.863 91.7799C171.575 91.7799 174.551 90.5424 176.79 88.0675C179.088 85.5336 180.238 81.9096 180.238 77.1955V55.1864H189.342V98.7627H180.414V92.2218H179C178.175 93.9896 176.702 95.669 174.581 97.26C172.459 98.7921 169.336 99.5582 165.211 99.5582Z" fill="#124936"/>
<path d="M217.472 100C213.053 100 209.193 99.0868 205.893 97.26C202.593 95.3744 200.001 92.7522 198.115 89.3933C196.288 85.9756 195.375 82.0275 195.375 77.5491V76.4884C195.375 71.951 196.288 68.0029 198.115 64.6441C199.942 61.2264 202.476 58.6041 205.717 56.7774C209.017 54.8918 212.817 53.9489 217.119 53.9489C221.303 53.9489 224.956 54.8918 228.079 56.7774C231.261 58.6041 233.736 61.1674 235.504 64.4673C237.272 67.7672 238.156 71.6269 238.156 76.0464V79.4936H204.656C204.774 83.3239 206.041 86.3881 208.457 88.6862C210.932 90.9254 213.996 92.045 217.649 92.045C221.067 92.045 223.63 91.279 225.339 89.7469C227.107 88.2148 228.462 86.447 229.405 84.4435L236.918 88.3326C236.093 89.9826 234.885 91.7209 233.294 93.5477C231.762 95.3744 229.729 96.9065 227.195 98.1439C224.662 99.3814 221.421 100 217.472 100ZM204.744 72.5108H228.875C228.639 69.2109 227.461 66.6476 225.339 64.8209C223.218 62.9352 220.448 61.9924 217.031 61.9924C213.613 61.9924 210.814 62.9352 208.633 64.8209C206.512 66.6476 205.216 69.2109 204.744 72.5108Z" fill="#124936"/>
<path d="M243.811 98.7627V55.1864H252.739V60.313H254.153C254.978 58.7809 256.304 57.4256 258.131 56.2471C259.957 55.0685 262.432 54.4793 265.555 54.4793C268.796 54.4793 271.389 55.1569 273.334 56.5122C275.337 57.8086 276.84 59.488 277.841 61.5505H279.256C280.257 59.547 281.701 57.8676 283.587 56.5122C285.531 55.1569 288.272 54.4793 291.807 54.4793C294.636 54.4793 297.14 55.0685 299.32 56.2471C301.501 57.3667 303.239 59.0756 304.535 61.3737C305.832 63.6129 306.48 66.4119 306.48 69.7707V98.7627H297.376V70.4779C297.376 67.8262 296.639 65.7932 295.166 64.379C293.752 62.9058 291.719 62.1692 289.067 62.1692C286.239 62.1692 283.97 63.0826 282.261 64.9093C280.552 66.736 279.698 69.3583 279.698 72.776V98.7627H270.594V70.4779C270.594 67.8262 269.857 65.7932 268.384 64.379C266.97 62.9058 264.937 62.1692 262.285 62.1692C259.456 62.1692 257.188 63.0826 255.479 64.9093C253.77 66.736 252.915 69.3583 252.915 72.776V98.7627H243.811Z" fill="#124936"/>
<path d="M314.295 98.7627V55.1864H323.4V98.7627H314.295ZM318.892 49.2643C317.124 49.2643 315.621 48.7045 314.384 47.5848C313.205 46.4063 312.616 44.9037 312.616 43.077C312.616 41.2502 313.205 39.7771 314.384 38.6575C315.621 37.4789 317.124 36.8896 318.892 36.8896C320.718 36.8896 322.221 37.4789 323.4 38.6575C324.578 39.7771 325.167 41.2502 325.167 43.077C325.167 44.9037 324.578 46.4063 323.4 47.5848C322.221 48.7045 320.718 49.2643 318.892 49.2643Z" fill="#124936"/>
<path d="M351.849 100C347.665 100 343.864 99.1162 340.446 97.3484C337.088 95.5806 334.406 93.0173 332.403 89.6585C330.458 86.2997 329.486 82.2632 329.486 77.5491V76.4C329.486 71.6859 330.458 67.6788 332.403 64.379C334.406 61.0201 337.088 58.4568 340.446 56.689C343.864 54.8623 347.665 53.9489 351.849 53.9489C356.033 53.9489 359.598 54.715 362.544 56.2471C365.49 57.7792 367.847 59.8121 369.615 62.346C371.442 64.8798 372.62 67.6788 373.151 70.743L364.312 72.5992C364.017 70.6546 363.398 68.8868 362.456 67.2958C361.513 65.7048 360.187 64.4379 358.478 63.4951C356.769 62.5522 354.618 62.0808 352.026 62.0808C349.492 62.0808 347.194 62.6701 345.131 63.8486C343.128 64.9682 341.537 66.6182 340.358 68.7985C339.18 70.9198 338.59 73.5126 338.59 76.5768V77.3723C338.59 80.4365 339.18 83.0587 340.358 85.239C341.537 87.4193 343.128 89.0692 345.131 90.1888C347.194 91.3084 349.492 91.8683 352.026 91.8683C355.856 91.8683 358.773 90.896 360.776 88.9514C362.78 86.9479 364.047 84.414 364.577 81.3498L373.416 83.3828C372.709 86.3881 371.442 89.1576 369.615 91.6915C367.847 94.2253 365.49 96.2583 362.544 97.7904C359.598 99.2635 356.033 100 351.849 100Z" fill="#124936"/>
<path d="M392.137 100C389.014 100 386.215 99.4698 383.74 98.4091C381.324 97.3484 379.379 95.7869 377.906 93.7244C376.492 91.662 375.785 89.1576 375.785 86.2113C375.785 83.206 376.492 80.7311 377.906 78.7865C379.379 76.783 381.353 75.2804 383.828 74.2786C386.362 73.2769 389.22 72.776 392.402 72.776H405.66V69.9475C405.66 67.4137 404.894 65.3807 403.362 63.8486C401.83 62.3165 399.473 61.5505 396.291 61.5505C393.168 61.5505 390.781 62.2871 389.131 63.7602C387.481 65.2334 386.391 67.1485 385.861 69.5056L377.376 66.7655C378.083 64.4084 379.202 62.2871 380.734 60.4014C382.325 58.4568 384.417 56.8953 387.01 55.7167C389.603 54.5382 392.726 53.9489 396.379 53.9489C402.036 53.9489 406.485 55.3926 409.726 58.28C412.967 61.1674 414.588 65.2629 414.588 70.5663V88.5094C414.588 90.2772 415.413 91.1611 417.063 91.1611H420.775V98.7627H413.969C411.907 98.7627 410.227 98.2323 408.931 97.1717C407.634 96.111 406.986 94.6673 406.986 92.8405V92.5754H405.66C405.189 93.4593 404.482 94.4905 403.539 95.669C402.596 96.8476 401.211 97.8788 399.385 98.7627C397.558 99.5876 395.142 100 392.137 100ZM393.463 92.487C397.116 92.487 400.062 91.4558 402.302 89.3933C404.541 87.272 405.66 84.3846 405.66 80.7311V79.8472H392.932C390.516 79.8472 388.572 80.3775 387.098 81.4382C385.625 82.44 384.889 83.9426 384.889 85.9461C384.889 87.9496 385.655 89.5406 387.187 90.7192C388.719 91.8977 390.811 92.487 393.463 92.487Z" fill="#124936"/>
<path d="M441.833 100C436.294 100 431.698 98.7627 428.044 96.2878C424.391 93.8128 422.152 90.071 421.327 85.0622L429.812 83.0293C430.284 85.4452 431.079 87.3604 432.199 88.7746C433.318 90.1888 434.703 91.1906 436.353 91.7799C438.062 92.3691 439.889 92.6638 441.833 92.6638C444.721 92.6638 446.93 92.104 448.463 90.9844C450.054 89.8647 450.849 88.421 450.849 86.6532C450.849 84.8854 450.113 83.5891 448.639 82.7641C447.166 81.9391 444.986 81.2614 442.098 80.7311L439.093 80.2008C436.147 79.6704 433.466 78.9044 431.05 77.9026C428.634 76.9009 426.719 75.5161 425.304 73.7483C423.89 71.9805 423.183 69.7118 423.183 66.9423C423.183 62.8174 424.715 59.6354 427.779 57.3961C430.843 55.098 434.909 53.9489 439.977 53.9489C444.868 53.9489 448.875 55.0685 451.998 57.3077C455.18 59.488 457.243 62.4638 458.185 66.2351L449.7 68.6217C449.17 65.97 448.05 64.1138 446.341 63.0531C444.632 61.9335 442.511 61.3737 439.977 61.3737C437.502 61.3737 435.558 61.8451 434.143 62.7879C432.729 63.6718 432.022 64.9388 432.022 66.5887C432.022 68.3565 432.7 69.6529 434.055 70.4779C435.469 71.3028 437.355 71.9216 439.712 72.3341L442.806 72.8644C445.929 73.3947 448.787 74.1313 451.379 75.0741C453.972 76.017 456.005 77.3723 457.478 79.1401C459.01 80.9079 459.776 83.265 459.776 86.2113C459.776 90.5719 458.156 93.9602 454.915 96.3761C451.674 98.7921 447.313 100 441.833 100Z" fill="#124936"/>
<path d="M478.293 100C475.17 100 472.371 99.4698 469.896 98.4091C467.48 97.3484 465.535 95.7869 464.062 93.7244C462.648 91.662 461.941 89.1576 461.941 86.2113C461.941 83.206 462.648 80.7311 464.062 78.7865C465.535 76.783 467.509 75.2804 469.984 74.2786C472.518 73.2769 475.376 72.776 478.558 72.776H491.816V69.9475C491.816 67.4137 491.05 65.3807 489.518 63.8486C487.986 62.3165 485.629 61.5505 482.447 61.5505C479.324 61.5505 476.938 62.2871 475.288 63.7602C473.638 65.2334 472.547 67.1485 472.017 69.5056L463.532 66.7655C464.239 64.4084 465.358 62.2871 466.891 60.4014C468.482 58.4568 470.573 56.8953 473.166 55.7167C475.759 54.5382 478.882 53.9489 482.536 53.9489C488.192 53.9489 492.641 55.3926 495.882 58.28C499.123 61.1674 500.744 65.2629 500.744 70.5663V88.5094C500.744 90.2772 501.569 91.1611 503.219 91.1611H506.931V98.7627H500.125C498.063 98.7627 496.383 98.2323 495.087 97.1717C493.791 96.111 493.142 94.6673 493.142 92.8405V92.5754H491.816C491.345 93.4593 490.638 94.4905 489.695 95.669C488.752 96.8476 487.368 97.8788 485.541 98.7627C483.714 99.5876 481.298 100 478.293 100ZM479.619 92.487C483.272 92.487 486.218 91.4558 488.458 89.3933C490.697 87.272 491.816 84.3846 491.816 80.7311V79.8472H479.088C476.672 79.8472 474.728 80.3775 473.255 81.4382C471.781 82.44 471.045 83.9426 471.045 85.9461C471.045 87.9496 471.811 89.5406 473.343 90.7192C474.875 91.8977 476.967 92.487 479.619 92.487Z" fill="#124936"/>
<path d="M40.0127 39.1037H85.0683V3.0508C85.0683 1.36524 83.7025 0 82.0162 0H43.0647C41.3785 0 40.0127 1.36524 40.0127 3.0508V39.1037Z" fill="#A889F7"/>
<path d="M40.0127 39.1035V50.8644C40.0127 51.5432 40.8367 51.8864 41.3174 51.4059L53.6171 39.1111H40.0127V39.1035Z" fill="#A889F7"/>
</svg>
