<svg width="21" height="21" viewBox="0 0 21 21" fill="none" xmlns="http://www.w3.org/2000/svg">
<path d="M6.62602 13.0002C7.07006 14.7255 8.63616 16.0002 10.5 16.0002C12.3638 16.0002 13.9299 14.7255 14.374 13.0002M9.5177 1.76424L2.73539 7.03937C2.28202 7.39199 2.05534 7.5683 1.89203 7.7891C1.74737 7.98469 1.6396 8.20503 1.57403 8.4393C1.5 8.70376 1.5 8.99094 1.5 9.5653V16.8002C1.5 17.9203 1.5 18.4804 1.71799 18.9082C1.90973 19.2845 2.21569 19.5905 2.59202 19.7822C3.01984 20.0002 3.57989 20.0002 4.7 20.0002H16.3C17.4201 20.0002 17.9802 20.0002 18.408 19.7822C18.7843 19.5905 19.0903 19.2845 19.282 18.9082C19.5 18.4804 19.5 17.9203 19.5 16.8002V9.5653C19.5 8.99094 19.5 8.70376 19.426 8.4393C19.3604 8.20503 19.2526 7.98469 19.108 7.7891C18.9447 7.5683 18.718 7.39199 18.2646 7.03937L11.4823 1.76424C11.131 1.49099 10.9553 1.35436 10.7613 1.30184C10.5902 1.2555 10.4098 1.2555 10.2387 1.30184C10.0447 1.35436 9.86902 1.49099 9.5177 1.76424Z" stroke="#D1F780" stroke-width="2" stroke-linecap="round" stroke-linejoin="round"/>
</svg>
