<svg width="16" height="19" viewBox="0 0 19 22" fill="none"
    xmlns="http://www.w3.org/2000/svg">
    <path d="M17.8576 6.54912C17.977 6.37332 17.9343 6.10082 18.0196 5.88985C17.9684 5.81953 17.9088 5.76679 17.9003 5.68767C18.0281 5.52945 17.8917 5.36243 17.7809 5.27453C17.7895 5.27453 17.8065 5.27453 17.8065 5.25695C17.7724 5.25695 17.7554 5.28332 17.7128 5.29211C17.44 5.20421 17.1332 5.14268 16.8179 5.1251C16.6815 5.13389 16.5537 5.03719 16.3576 5.0284C16.2554 5.0284 16.1361 5.0284 16.0338 5.00203C16.0167 5.00203 15.8207 4.93171 15.9315 5.01082C15.7525 4.92292 15.5309 4.94929 15.4628 4.73832C15.3008 4.73832 15.1389 4.61526 14.9855 4.50978C15.0111 4.42187 14.8832 4.32518 14.8065 4.33397C14.8236 4.36034 14.8832 4.36913 14.8747 4.41308C14.815 4.41308 14.7554 4.36034 14.6957 4.31639C14.6616 4.36034 14.6275 4.32518 14.5934 4.33397C14.423 4.21091 14.3122 4.123 14.1758 3.99115C14.1417 4.01752 14.0309 3.88567 13.9883 3.80655C14.0395 3.86808 14.1076 3.93841 14.1843 3.87687C14.0906 3.80655 14.1076 3.79776 14.0309 3.69228C14.0139 3.6747 14.0139 3.73623 13.9883 3.70986C13.8605 3.5868 13.7241 3.41978 13.69 3.25276C13.4514 3.05059 13.2639 2.67261 13.0934 2.32978C13.0764 2.37374 13.1531 2.43527 13.1105 2.47043C13.0253 2.32978 13.0934 2.2243 12.923 2.14519C12.7611 1.62656 12.5906 1.11672 12.6076 0.580517C12.565 0.580517 12.5821 0.615678 12.5309 0.606888C12.5309 0.589307 12.5054 0.589307 12.4968 0.580517C12.4968 0.545355 12.5054 0.518985 12.5224 0.492614C12.4542 0.466243 12.4201 0.475033 12.4116 0.413501C12.3264 0.431082 12.3179 0.431082 12.2497 0.431082C12.2753 0.492614 12.2241 0.518985 12.1645 0.571726C12.1645 0.545355 12.1389 0.536565 12.1474 0.501404C12.1986 0.501404 12.2753 0.413501 12.19 0.38713C12.2071 0.431082 12.1304 0.404711 12.1048 0.413501C12.1048 0.404711 12.0963 0.404711 12.0878 0.38713C12.0878 0.308018 12.1048 0.237695 12.1389 0.184954C12.0878 0.158583 12.1133 0.123422 12.1048 0.0970508C12.0622 0.132212 12.0281 0.0618896 11.9855 0.0618896C11.9514 0.123422 11.9599 0.149793 11.9855 0.211325C11.9088 0.290437 11.9343 0.360759 11.8747 0.422291C11.815 0.36955 11.8236 0.325598 11.7468 0.281647C11.7895 0.308018 11.7724 0.246486 11.8065 0.290437C11.7895 0.255276 11.815 0.246486 11.8321 0.228905C11.7809 0.211325 11.7468 0.105841 11.7042 0.123422C11.6872 0.167373 11.7809 0.334389 11.6872 0.360759C11.6957 0.334389 11.6701 0.281647 11.6531 0.325598C11.6787 0.351969 11.6872 0.457453 11.6531 0.483823C11.6105 0.413501 11.6531 0.334389 11.5849 0.272857C11.5679 0.281647 11.5849 0.316808 11.5423 0.308018C11.4741 0.211325 11.3378 0.404711 11.2184 0.37834C11.2099 0.351969 11.2611 0.325598 11.2184 0.308018C11.1758 0.343179 11.1076 0.38713 11.1758 0.413501C11.1758 0.343179 11.244 0.413501 11.2781 0.395921C11.2355 0.431082 11.3548 0.518985 11.2781 0.554146C11.2525 0.475033 11.2781 0.510194 11.2611 0.439872C11.2099 0.457453 11.1417 0.413501 11.1247 0.404711C11.1588 0.404711 11.1332 0.466243 11.1162 0.457453C11.0991 0.38713 11.1162 0.492614 11.0736 0.475033C11.048 0.422291 11.1247 0.37834 11.0821 0.351969C11.048 0.404711 11.0821 0.38713 11.0224 0.422291C11.0054 0.395921 10.9713 0.395921 10.9713 0.351969C10.9287 0.38713 10.9457 0.466243 10.9457 0.536565C10.9287 0.404711 10.9457 0.290437 11.0309 0.211325C10.852 0.255276 10.9116 0.422291 10.8946 0.527775C10.8775 0.439872 10.852 0.404711 10.7582 0.422291C10.7582 0.483824 10.8264 0.466243 10.8349 0.518985C10.8349 0.518985 10.8349 0.536565 10.8349 0.545355C10.8179 0.545355 10.8008 0.571726 10.7838 0.589307C10.7923 0.554146 10.8008 0.518985 10.7923 0.492614C10.7241 0.492614 10.7241 0.510194 10.7156 0.527775C10.6986 0.510194 10.6645 0.431082 10.6389 0.475033C10.673 0.466243 10.6645 0.475033 10.6559 0.501404C10.6133 0.439872 10.5707 0.395921 10.5196 0.360759C10.5366 0.334389 10.4855 0.308018 10.5366 0.228905C10.477 0.228905 10.4855 0.290437 10.4343 0.299227H10.4258C10.3662 0.264066 10.315 0.237695 10.2554 0.202534C10.2298 0.184954 10.1957 0.167373 10.1701 0.141002L10.1275 0.0970508L10.1105 0.0706799H10.102V0.0882605H10.0849V0.123422L10.0679 0.158583L10.0423 0.228905L9.99969 0.360759C9.9656 0.439872 9.94003 0.510194 9.89742 0.527775C9.74401 0.0530993 9.57355 0.571726 9.49685 0.967289C9.49685 0.932128 9.49685 0.870596 9.4798 0.870596C9.4798 1.01124 9.50537 1.07277 9.51389 1.21342C9.44571 2.4968 9.38605 4.06147 9.43719 5.60856C9.45424 6.23267 9.41162 6.97985 9.45423 7.90283C9.4798 8.39508 9.50537 8.94008 9.53094 9.4675C9.53094 9.5554 9.53946 10.5399 9.57355 9.90701C9.54799 10.8652 9.6673 11.7793 9.51389 12.4914C9.56503 13.1067 9.55651 13.8978 9.55651 14.6977C9.55651 14.6977 9.55651 14.6801 9.55651 14.6889V14.9087C9.47128 14.9878 9.36901 15.4801 9.36901 15.6822C9.39458 15.5855 9.42014 15.4009 9.46276 15.3658C9.46276 15.5328 9.39458 15.7789 9.30935 16.0075C9.36048 16.0426 9.28378 16.1745 9.28378 16.2536C8.98548 16.8689 8.66162 17.2293 8.17583 17.5985C8.20139 17.66 7.69855 17.9238 7.44287 17.9941C7.69003 17.8974 7.94571 17.7567 7.93719 17.6425C7.63889 17.8271 7.61333 17.8183 7.25537 17.9501C7.19571 17.9765 7.31503 17.9765 7.20423 18.0117C6.68435 18.1963 5.97696 18.205 5.53378 18.0204C5.06503 17.9501 4.53662 17.7216 4.07639 17.326C3.62469 16.9305 3.25821 16.3855 3.06219 15.8053C3.06219 15.9196 3.19855 16.1569 3.18151 16.2272C2.95139 15.7526 2.99401 15.5152 2.82355 15.0933C2.74685 14.2055 2.97696 13.3264 3.46276 12.632C3.94855 11.9376 4.69855 11.4365 5.49969 11.3047C5.51673 11.2519 5.40594 11.3047 5.42298 11.2431C5.4656 11.2256 5.47412 11.1992 5.51673 11.1904C5.61901 11.1816 5.70423 11.1816 5.78946 11.1816C5.86617 11.0937 5.85764 11.0673 6.05367 11.0498C6.00253 10.9618 6.01105 10.9531 6.01105 10.8827C5.79798 10.9091 5.7298 10.8827 5.56787 10.8388C5.6531 10.83 5.67014 10.7948 5.78094 10.786C5.78094 10.83 6.04514 10.9003 6.15594 10.8036C6.01958 10.83 6.1048 10.7421 6.07923 10.7157C6.11333 10.7157 6.12185 10.6981 6.15594 10.6981C6.4031 10.6981 6.63321 10.7333 6.78662 10.7948C6.88889 10.7597 6.99117 10.8036 7.08492 10.8212C6.97412 10.7509 7.21276 10.7773 7.22128 10.7245C7.03378 10.6366 6.93151 10.6278 6.72696 10.6278C6.49685 10.5223 6.24969 10.5311 6.07071 10.4784C6.24969 10.3993 6.38605 10.4169 6.55651 10.3553C6.46276 10.3905 6.6673 10.3905 6.51389 10.4168C6.64173 10.4168 6.6673 10.4432 6.70992 10.4696C6.76958 10.4169 7.11901 10.452 7.08492 10.4081C6.95708 10.3465 6.38605 10.3817 6.30935 10.285C6.39458 10.3026 6.56503 10.285 6.43719 10.2586C6.35196 10.2674 5.98548 10.2938 5.89173 10.2762C6.13889 10.2147 6.39458 10.2498 6.60764 10.2147C6.57355 10.1971 6.45423 10.1971 6.4798 10.1619C6.82923 10.118 6.20708 9.93338 6.31787 9.81911C6.4031 9.81911 6.50537 9.87185 6.54798 9.8279C6.43719 9.77516 6.30083 9.69605 6.18151 9.77516C6.42867 9.77516 6.18151 9.84548 6.22412 9.88064C6.09628 9.84548 5.78946 9.96854 5.67867 9.89822C5.95139 9.84548 5.8406 9.88064 6.08776 9.85427C6.04514 9.80153 6.20708 9.73121 6.22412 9.70484C6.2156 9.74 6.01958 9.72242 6.03662 9.70484C6.2923 9.67846 5.9173 9.70484 5.98548 9.66088C6.17298 9.62572 6.31787 9.69605 6.41162 9.66088C6.22412 9.61693 6.2923 9.6433 6.17298 9.59935C6.27526 9.58177 6.27526 9.54661 6.41162 9.5554C6.27526 9.48508 5.78094 9.5554 5.58492 9.5554C6.12185 9.4675 6.5906 9.50266 6.88889 9.66088C6.78662 9.44113 6.19003 9.45871 5.82355 9.48508C6.14742 9.44992 6.24969 9.43234 6.2156 9.32685C6.01105 9.32685 6.04514 9.40597 5.86617 9.42355C5.74685 9.40597 5.53378 9.44992 5.50821 9.39718C5.05651 9.51145 4.55367 9.66088 4.11048 9.81911L4.23833 9.73121C4.05935 9.80153 3.56503 10.0828 3.33492 10.2059C3.53946 10.0213 4.12753 9.76637 4.11901 9.71363C4.17014 9.74 4.57071 9.60814 4.29799 9.74C4.57924 9.65209 4.63889 9.57298 4.80935 9.51145C4.86048 9.51145 4.94571 9.51145 5.01389 9.51145C5.2781 9.35322 5.73833 9.38839 5.95992 9.37081C5.98548 9.30048 5.92583 9.30048 5.85764 9.30048C5.90878 9.27411 6.2156 9.23895 6.06219 9.21258C6.1048 9.26532 5.92583 9.23895 5.90878 9.21258C6.00253 9.21258 6.07923 9.195 6.11333 9.16863C5.82355 9.16863 5.47412 9.21258 5.22696 9.23016C5.67867 9.1071 6.20708 9.15105 6.42867 9.06314C6.53094 9.15105 6.63321 9.05435 6.94855 9.15984C6.94855 9.08952 6.65878 9.08072 6.70139 9.0104C6.53946 8.99282 6.24117 9.01919 6.11333 8.99282C6.20708 8.99282 6.24969 8.97524 6.27526 8.95766C5.84912 8.97524 5.58492 8.95766 5.3548 9.00161C5.37185 8.96645 5.6531 8.95766 5.61901 8.91371C5.51673 8.91371 5.44003 8.98403 5.40594 8.94887C5.3548 8.89613 5.61048 8.88734 5.61901 8.8346C5.42298 8.86097 5.26958 8.86097 5.21844 8.81702C4.96276 8.88734 4.80935 8.99282 4.57923 9.04556L4.85196 8.97524C4.77526 9.05435 4.86901 9.00161 4.97128 9.0104C4.45992 9.14226 4.34912 9.16863 3.62469 9.50266C3.24117 9.57298 3.79514 9.22137 4.32355 8.99282C4.11048 9.07194 3.64173 9.23016 3.90594 9.17742C3.59912 9.32685 3.46276 9.38839 3.13037 9.54661C3.32639 9.38839 3.65878 9.26532 3.73548 9.21258C3.46276 9.25653 3.04514 9.5554 2.77242 9.74C3.38605 9.18621 4.22128 8.94887 4.92014 8.79065C4.86049 8.79944 4.78378 8.79944 4.86048 8.77307C5.17583 8.70274 5.67014 8.67637 5.94287 8.65C5.90878 8.59726 5.58492 8.62363 5.48264 8.61484C5.99401 8.5621 6.32639 8.59726 6.74401 8.65879C6.65878 8.57089 6.28378 8.49178 5.88321 8.50057C5.49117 8.49178 5.08208 8.57968 4.95423 8.64121C4.80083 8.64121 4.55367 8.70274 4.37469 8.7379C4.40026 8.72032 4.42583 8.71153 4.45139 8.70274C3.15594 9.06314 1.95423 9.89822 1.12753 11.1201C0.198553 12.4562 -0.236106 14.267 0.15594 16.0954C0.198553 16.6843 0.496849 17.2557 0.778099 17.7831C1.18719 18.5303 1.73264 19.2599 2.56787 19.8664C2.45708 19.8488 2.7298 19.9983 2.68719 20.0158C4.25537 21.0267 6.12185 21.4047 8.02242 20.7894C7.48548 20.9476 6.62469 21.1146 5.77242 21.0443C4.92014 21.0004 4.11048 20.7103 3.68435 20.4466C4.42583 20.7894 5.57639 21.0355 6.13037 20.9652C6.03662 20.9652 5.92583 20.9564 5.94287 20.9388C6.52242 20.9476 6.93151 20.9037 7.58776 20.7894C7.80083 20.6751 8.3548 20.5696 8.75537 20.3587C9.89742 19.8225 10.8434 18.8907 11.423 17.8446C12.0281 16.8074 12.2497 15.6031 12.2412 14.6713C12.2241 13.0451 12.2071 11.7969 12.1986 10.6718C12.1986 10.5399 12.1986 10.0125 12.1815 10.3817C12.173 11.2607 12.1815 11.6211 12.1474 12.3859C12.1474 11.164 12.0707 9.92459 12.1218 8.52694C12.1218 8.40387 12.0792 8.3775 12.0792 8.23686C12.0537 7.34025 12.1559 6.50517 12.1048 5.71405C12.1218 5.74042 12.1474 5.76679 12.1645 5.79316C12.9741 6.60186 13.9628 7.18202 14.7895 7.4721C14.8236 7.48968 14.9855 7.54243 14.8832 7.48968C14.6275 7.3842 14.5253 7.33146 14.3207 7.1996C14.6616 7.3842 15.0537 7.44573 15.4542 7.63912C15.4968 7.63912 15.5139 7.60396 15.5565 7.62154C15.8633 7.66549 16.1105 7.89404 16.4003 7.8325C16.8349 7.98194 17.7724 8.24565 17.798 7.61275C17.9343 7.49847 17.8662 7.26993 17.8662 7.07654C17.8662 6.90073 17.9343 6.70735 17.8662 6.54912H17.8576ZM5.2781 10.0916C5.67867 10.0213 6.07923 10.0037 6.42867 10.0301V10.1268C6.09628 10.0828 6.00253 10.1531 5.64458 10.1619C5.79798 10.1092 5.69571 10.1268 5.72128 10.1004C5.2781 10.1268 4.77526 10.2323 4.16162 10.5311C4.47696 10.3202 4.86901 10.1883 5.26958 10.0916H5.2781ZM5.19287 9.37081C4.98833 9.43234 4.62185 9.5554 4.40878 9.61693C4.64742 9.48508 4.17014 9.66088 4.01673 9.74879C4.33208 9.52903 4.89458 9.42355 5.19287 9.37081ZM2.11617 19.4445C2.28662 19.5939 2.56787 19.7873 2.61048 19.8928C2.3548 19.717 2.26958 19.6027 2.11617 19.4445ZM12.2497 5.5734C12.2497 5.5734 12.3093 5.56461 12.2753 5.52945C12.2923 5.52066 12.2923 5.52945 12.2838 5.53824C12.3093 5.55582 12.6247 5.82832 12.5139 5.76679C12.4798 5.74042 12.4542 5.74042 12.4542 5.71405C12.4201 5.73163 12.4031 5.67888 12.4116 5.71405C12.3349 5.69647 12.3179 5.59977 12.2497 5.59098C12.2753 5.5734 12.2582 5.55582 12.2497 5.56461V5.5734ZM12.2412 5.53824C12.2412 5.53824 12.1474 5.45913 12.0878 5.41518V5.38001C12.1389 5.43276 12.1815 5.4855 12.2412 5.54703V5.53824ZM11.5167 0.351969C11.4912 0.448662 11.5423 0.475033 11.5253 0.580517C11.4997 0.536565 11.4997 0.562936 11.4826 0.554146C11.4826 0.571726 11.4826 0.589307 11.4826 0.606888C11.4656 0.606888 11.44 0.615678 11.423 0.624468C11.423 0.527775 11.423 0.431082 11.4315 0.351969H11.5253H11.5167ZM8.33776 20.262C8.38889 20.2444 8.76389 20.0598 9.06219 19.8928C9.35196 19.7082 9.58208 19.5675 9.39458 19.6994C9.25821 19.7961 9.22412 19.8312 9.15594 19.8488C9.14742 19.9016 8.95992 19.9807 9.07071 19.9367C8.85764 20.095 8.57639 20.1741 8.41446 20.2971C8.41446 20.262 8.3548 20.2883 8.3548 20.2971C8.1673 20.3675 8.44855 20.2092 8.28662 20.2708C8.28662 20.2532 8.33776 20.2444 8.33776 20.2532V20.262ZM3.75253 17.1766C3.75253 17.1766 3.81219 17.203 3.84628 17.2293C3.81219 17.1502 3.64173 17.0008 3.56503 16.8953C3.94003 17.2909 4.43435 17.704 5.03946 17.9413C5.62753 18.1963 6.32639 18.249 6.92298 18.1347C6.87185 18.1875 6.58208 18.1787 6.53094 18.2226C6.49685 18.3017 5.72128 18.249 5.43151 18.1435C5.44003 18.1259 5.49117 18.1435 5.53378 18.1523C5.24401 18.1084 4.86048 17.9853 4.5281 17.7831C4.18719 17.5985 3.92298 17.326 3.76105 17.1854L3.75253 17.1766ZM5.44003 20.7015C6.19855 20.8246 4.65594 20.5872 5.26958 20.6575C6.2923 20.7894 7.25537 20.7367 8.23548 20.3323C7.92867 20.4817 7.42583 20.6312 6.90594 20.7103C6.38605 20.7806 5.83208 20.7718 5.43151 20.7015H5.44003ZM9.24969 20.0334C9.30083 19.9631 9.59912 19.8137 9.72696 19.6906C9.68435 19.7785 9.39458 19.9367 9.24969 20.0334ZM10.2809 19.1896C9.44571 19.9631 8.38889 20.5784 7.05935 20.8246C6.80367 20.8246 6.76105 20.8597 6.4798 20.8509C7.74969 20.807 9.05367 20.2268 10.0423 19.3478C11.0309 18.4688 11.7042 17.2996 12.0366 16.1833C11.7468 17.4139 11.1162 18.416 10.2809 19.1896ZM12.0111 10.7245C12.0111 10.4081 11.9855 10.2938 12.0111 10.0389C12.0792 10.0389 12.0792 10.7157 12.0111 10.7245ZM11.9514 8.52694C11.9429 8.14017 11.9684 7.85888 11.9855 7.55122C12.0196 7.55122 12.0366 7.64791 12.0451 7.49847C12.1304 7.88525 12.0451 8.3775 11.9514 8.52694ZM12.3349 5.85469C12.3349 5.85469 12.4201 5.92501 12.4628 5.95138C12.4201 5.96017 12.3775 5.88106 12.3349 5.85469ZM12.1133 5.58219C12.1133 5.58219 12.1133 5.55582 12.1133 5.53824C12.5309 5.9338 13.0082 6.27662 13.3321 6.68098C12.8718 6.34695 12.548 5.98654 12.1133 5.59098V5.58219ZM13.8008 3.59559C13.7412 3.63075 13.6304 3.41099 13.5878 3.32309C13.6048 3.3143 13.6048 3.32309 13.6218 3.34067C13.4599 3.22639 13.3321 2.92752 13.2468 2.82204C13.2639 2.82204 13.2724 2.82204 13.2895 2.83083C13.3065 2.78688 13.2468 2.74293 13.2298 2.70777C13.4855 2.9451 13.6474 3.38462 13.9116 3.6747C13.869 3.69228 13.852 3.5868 13.8093 3.60438L13.8008 3.59559ZM14.8662 7.27872C14.9599 7.31388 15.0025 7.2963 15.0622 7.35783C15.0366 7.42815 14.8406 7.34904 14.8662 7.27872ZM15.8037 7.63033C15.6673 7.68307 15.5395 7.55122 15.5224 7.46331C15.6417 7.48968 15.7184 7.53363 15.8037 7.5688C15.7951 7.60396 15.7611 7.60396 15.8037 7.63033Z" fill="white"/>
</svg>
