<svg width="24" height="24" viewBox="0 0 24 24" fill="none"
    xmlns="http://www.w3.org/2000/svg">
    <rect width="24" height="24" rx="12" fill="#124A36" fill-opacity="0.1"/>
    <path d="M13.5863 9.50008L10.2933 12.7931C10.1977 12.8853 10.1216 12.9957 10.0692 13.1177C10.0167 13.2397 9.98916 13.3709 9.988 13.5037C9.98685 13.6365 10.0122 13.7681 10.0624 13.891C10.1127 14.0139 10.187 14.1256 10.2809 14.2195C10.3748 14.3134 10.4864 14.3876 10.6093 14.4379C10.7322 14.4882 10.8639 14.5135 10.9967 14.5123C11.1294 14.5112 11.2607 14.4836 11.3827 14.4312C11.5047 14.3788 11.615 14.3026 11.7073 14.2071L14.9143 10.9141C15.2786 10.5369 15.4802 10.0317 15.4756 9.50728C15.471 8.98289 15.2607 8.48126 14.8899 8.11044C14.5191 7.73963 14.0175 7.52929 13.4931 7.52473C12.9687 7.52018 12.4635 7.72177 12.0863 8.08608L8.87875 11.3786C8.3161 11.9412 8 12.7044 8 13.5001C8 14.2958 8.3161 15.0589 8.87875 15.6216C9.44141 16.1842 10.2045 16.5003 11.0003 16.5003C11.796 16.5003 12.5591 16.1842 13.1218 15.6216L16.2503 12.5001" stroke="#124A36" stroke-linecap="round" stroke-linejoin="round"/>
</svg>
