<svg width="48" height="48" viewBox="0 0 48 48" fill="none"
    xmlns="http://www.w3.org/2000/svg">
    <path d="M16.1419 26.9937C16.1419 26.9937 16.1047 26.9008 16.0583 26.8915C16.0676 26.9473 16.0955 26.9751 16.1419 26.9937ZM17.768 28.3782C17.768 28.3782 17.703 28.3597 17.6658 28.3504C17.6937 28.3132 17.7308 28.3689 17.768 28.3782ZM16.4764 27.4583C16.4764 27.4583 16.5229 27.4955 16.5229 27.5141C16.4857 27.5234 16.4857 27.4769 16.4764 27.4583ZM15.603 26.111C15.603 26.111 15.6494 26.1667 15.6309 26.176C15.6309 26.1389 15.5937 26.1389 15.603 26.111ZM15.826 26.5942C15.826 26.5942 15.7981 26.557 15.7888 26.5477C15.7795 26.5477 15.7888 26.5663 15.7888 26.5756C15.7609 26.5849 15.7702 26.5477 15.7516 26.5291C15.7609 26.5291 15.7702 26.5291 15.7795 26.5291C15.7981 26.492 15.7516 26.4548 15.7424 26.4176C15.7888 26.4455 15.8074 26.5291 15.826 26.5756V26.5942ZM16.3278 27.4769C16.3278 27.4769 16.3649 27.5141 16.3835 27.5234C16.3556 27.5327 16.3463 27.4862 16.3278 27.4769ZM15.1755 25.2561C15.1755 25.2561 15.1384 25.3026 15.1477 25.3397C15.1012 25.3397 15.1105 25.2747 15.1755 25.2561ZM14.7946 29.1216C14.7946 29.1216 14.8596 29.1866 14.8968 29.2145C14.8596 29.2145 14.8317 29.1495 14.7946 29.1216ZM13.2335 26.8358C13.2335 26.8358 13.2335 26.7893 13.2056 26.7614C13.2521 26.7614 13.2428 26.8079 13.2335 26.8358ZM13.7632 28.2667C13.7632 28.2667 13.7074 28.1831 13.6795 28.1459C13.7167 28.1366 13.7632 28.2389 13.7632 28.2667ZM14.0048 28.6012C13.9583 28.6012 13.9304 28.5362 13.8932 28.499C13.9397 28.499 13.9676 28.5827 14.0048 28.6012ZM14.8317 25.1911C14.8317 25.1911 14.8317 25.2375 14.8782 25.2561C14.8596 25.3026 14.8689 25.3583 14.8782 25.4141C14.8782 25.4141 14.8968 25.4141 14.8968 25.4234C14.9154 25.4141 14.9804 25.4141 14.9618 25.3862C15.0362 25.3862 14.9897 25.4698 14.9618 25.4791C14.9618 25.507 14.9804 25.507 14.9897 25.5256C15.0269 25.4791 15.064 25.4513 15.0269 25.4048C15.0826 25.3862 15.0919 25.3862 15.157 25.349C15.1755 25.3955 15.2034 25.3862 15.2592 25.3862C15.2592 25.4048 15.2592 25.4327 15.2592 25.4605C15.2592 25.4605 15.287 25.4605 15.287 25.4791C15.3242 25.4791 15.3056 25.4513 15.3428 25.442C15.4171 25.8694 15.603 26.2225 15.7516 26.5756C15.8817 26.6128 15.826 26.6964 15.9003 26.7893C15.9282 26.7521 15.8724 26.7243 15.8817 26.6871C16.0304 26.9194 16.1605 27.161 16.3278 27.2911C16.3463 27.4026 16.4485 27.5141 16.5322 27.5977C16.5508 27.6163 16.5601 27.5698 16.5693 27.5791C16.6251 27.6442 16.6158 27.6535 16.6808 27.6999C16.6158 27.7557 16.5786 27.6999 16.5322 27.672C16.5693 27.7185 16.6344 27.8207 16.6623 27.7928C16.7552 27.8858 16.8481 27.9322 16.9596 28.0158C16.9875 28.0158 17.0061 28.0344 17.0339 27.9973C17.0711 28.0251 17.1176 28.0716 17.164 28.0623C17.164 28.0344 17.1269 28.0344 17.1083 28.0158C17.164 28.0066 17.257 28.0716 17.2291 28.1366C17.3406 28.2017 17.4521 28.2946 17.5729 28.3039C17.6101 28.4619 17.7773 28.4526 17.9074 28.5269C17.8238 28.4619 17.9724 28.5176 17.991 28.5269L18.2419 28.5641C18.3813 28.592 18.4928 28.657 18.5857 28.6756C18.8273 28.722 19.0596 28.8243 19.2547 28.9358C19.2733 28.9358 19.2919 28.9265 19.3198 28.9265C19.3198 28.9358 19.3105 28.9265 19.3012 28.9265C19.3477 29.0101 19.4034 29.1681 19.3012 29.2703C19.3012 29.3353 19.3198 29.3818 19.3384 29.4468C19.2454 29.5955 19.2269 29.8185 19.1154 29.9393C19.1339 30.0694 19.0503 30.2088 19.0131 30.3481C18.976 30.5061 18.9853 30.6919 18.8645 30.757C18.7158 31.2309 18.1769 30.9057 17.9074 30.757C17.7123 30.7663 17.5729 30.6083 17.3685 30.5433C17.3406 30.534 17.322 30.5619 17.2941 30.5526C17.0339 30.4132 16.7738 30.3481 16.5415 30.2273C16.6716 30.3296 16.7459 30.3574 16.9131 30.4504C16.9782 30.4875 16.876 30.4504 16.8481 30.4318C16.2999 30.2088 15.6309 29.8185 15.0455 29.2796C14.9804 29.2238 14.9432 29.1216 14.8689 29.1216C14.7946 29.0194 14.7388 28.9636 14.6645 28.8893C14.6459 28.8986 14.6924 28.945 14.7017 28.9265C14.5716 28.9172 14.4786 28.6849 14.3578 28.5827C14.395 28.7871 14.7388 29.0658 14.8689 29.2331C14.5901 28.9915 14.4043 28.722 14.1627 28.4804C14.1906 28.4712 14.1255 28.4433 14.172 28.434C14.0605 28.2853 13.9769 28.1459 13.9025 28.0158C13.8468 27.9229 13.7446 27.8579 13.7446 27.7371C13.4565 27.1517 13.2893 26.6592 13.2149 26.1667C13.2614 26.176 13.1963 26.2225 13.2428 26.2411C13.2428 26.2039 13.2428 26.1667 13.2614 26.1296C13.1963 26.1017 13.1685 25.8787 13.2707 25.8136C13.2707 25.888 13.2521 25.953 13.2707 26.0274C13.2986 25.9995 13.2707 25.953 13.3079 25.9344C13.3357 25.9716 13.3357 26.0645 13.345 26.111C13.345 26.1203 13.3636 26.111 13.3636 26.0924C13.4101 26.2039 13.3636 26.3712 13.4658 26.4827C13.4658 26.4269 13.4008 26.3526 13.4379 26.2968C13.4565 26.2968 13.4472 26.3712 13.4751 26.4083C13.4937 26.3433 13.4751 26.3154 13.4565 26.2597C13.4194 26.3154 13.4379 26.2225 13.4194 26.1946C13.4844 26.2782 13.5402 26.3712 13.6052 26.2782C13.5773 26.1389 13.5587 26.1296 13.5309 26.0366C13.5123 26.0645 13.5309 26.0738 13.4937 26.0738L13.5123 26.1203C13.4937 26.0738 13.4194 26.0645 13.3915 25.9995C13.4101 25.9995 13.4101 26.0181 13.4194 26.0366C13.4565 26.0181 13.4658 25.9902 13.4565 25.953C13.4937 25.9437 13.4844 25.9902 13.5309 25.9716C13.568 25.953 13.5123 25.953 13.5216 25.9344C13.5587 25.9159 13.5402 25.9716 13.568 25.9716C13.568 25.9344 13.568 25.8787 13.5402 25.8136C13.5587 25.8136 13.568 25.8136 13.568 25.8322C13.5959 25.8043 13.5494 25.7579 13.5402 25.73C13.5959 25.7207 13.568 25.6743 13.6238 25.6557C13.5959 25.73 13.6702 25.7207 13.6238 25.7579C13.7167 25.7672 13.6981 25.8694 13.7539 25.9437C13.7539 25.8973 13.7353 25.8322 13.726 25.7858C13.7446 25.7858 13.7539 25.7951 13.7632 25.8136C13.7725 25.8136 13.791 25.7672 13.7632 25.7858C13.7817 25.7486 13.8189 25.7951 13.8375 25.8043C13.8375 25.7951 13.8375 25.7765 13.8932 25.7672C13.9211 25.8043 13.8654 25.9066 13.949 25.9344C13.949 25.953 13.9397 25.9716 13.9304 25.9809C13.9583 26.0088 13.9955 26.0088 13.9955 26.0645C13.9583 26.0181 13.9769 26.0924 13.9304 26.1203C13.9769 26.111 13.9862 26.2318 14.0233 26.2689C14.0233 26.2132 13.9862 26.1203 13.9676 26.0831C13.9769 26.0831 13.9862 26.0924 13.9955 26.1017C13.9955 26.0088 13.9676 25.9159 13.8932 25.8508C13.9304 25.8322 13.9118 25.7951 13.9211 25.7765C13.9025 25.7486 13.8561 25.7765 13.8468 25.73C13.9211 25.7021 13.9397 25.7114 13.9769 25.7672C13.9769 25.6928 13.8932 25.6092 14.0326 25.5349C13.9676 25.6185 13.9769 25.7114 14.0326 25.7951C14.0512 25.7486 13.9862 25.6743 14.0233 25.6371C14.0233 25.665 14.0512 25.6557 14.0698 25.665C14.0977 25.6278 14.0884 25.6464 14.107 25.6092C14.1441 25.6092 14.0977 25.665 14.1163 25.6928C14.1534 25.6928 14.1163 25.6278 14.1441 25.6743C14.1627 25.6743 14.172 25.6278 14.1441 25.6371C14.1627 25.6371 14.2185 25.6464 14.2556 25.6371C14.2835 25.6836 14.2556 25.665 14.2928 25.7114C14.3486 25.6743 14.2463 25.6371 14.2742 25.5999C14.2463 25.6185 14.1813 25.5906 14.1906 25.6371C14.1255 25.6371 14.1813 25.5906 14.1999 25.5535C14.2371 25.5535 14.1999 25.5813 14.2185 25.5999C14.3207 25.5999 14.395 25.4234 14.4694 25.4791C14.5065 25.4791 14.4879 25.4513 14.4972 25.442C14.5623 25.4698 14.5437 25.5349 14.5901 25.572C14.5994 25.5442 14.5809 25.4698 14.553 25.4605C14.553 25.4327 14.5901 25.4605 14.5809 25.4791C14.6552 25.4327 14.5437 25.3397 14.553 25.3119C14.5809 25.2933 14.6273 25.3583 14.6738 25.3583C14.6645 25.3769 14.6459 25.3862 14.6645 25.4048C14.6273 25.3769 14.6552 25.4234 14.618 25.4048C14.6831 25.4234 14.6831 25.4513 14.7481 25.4791C14.7853 25.4234 14.7481 25.3769 14.7946 25.3026C14.7574 25.2654 14.7388 25.2468 14.7574 25.1911C14.7946 25.1818 14.8317 25.2282 14.8596 25.1911H14.8317ZM16.3835 27.5327C16.3835 27.5327 16.4207 27.5977 16.4578 27.5791C16.2813 27.384 16.1605 27.0959 15.9654 26.9473C15.9747 26.9751 16.0211 27.003 16.0025 27.0309C15.9932 27.0309 15.9839 27.0309 15.9654 27.0309C16.0304 27.1052 16.1326 27.3004 16.2441 27.3747C16.2441 27.3747 16.2348 27.3561 16.2255 27.3747C16.2534 27.4305 16.337 27.5791 16.3835 27.5512V27.5327ZM14.4043 25.4977L14.33 25.5163C14.3578 25.665 14.3857 25.8415 14.4879 25.9716C14.4508 25.8415 14.4229 25.7393 14.4136 25.6464C14.4322 25.6464 14.4229 25.6278 14.4508 25.6464C14.4508 25.572 14.395 25.5628 14.4043 25.4884V25.4977ZM13.8282 25.9344C13.8375 25.9902 13.8282 26.1017 13.8932 26.1482C13.8932 26.1203 13.8375 26.0366 13.8932 26.0645C13.9025 26.0181 13.8561 25.9623 13.8282 25.9251V25.9344ZM17.5078 30.5804C17.5078 30.5804 17.5078 30.5619 17.5078 30.534C17.4521 30.4968 17.4056 30.4596 17.3313 30.4318C17.3313 30.5061 17.3963 30.6176 17.4985 30.5804H17.5078ZM16.9039 30.2924C16.876 30.3481 17.0061 30.4132 17.0339 30.3574C16.9968 30.3203 16.9596 30.3296 16.9039 30.2924ZM15.1105 29.1216C15.1105 29.1216 15.1291 29.1216 15.1105 29.1402C15.1663 29.1402 15.1755 29.2052 15.2313 29.2145C15.2313 29.1866 15.2313 29.2331 15.2685 29.2145C15.2685 29.2331 15.287 29.2331 15.3056 29.2517C15.38 29.2981 15.1663 29.103 15.1384 29.103C15.1663 29.1216 15.0919 29.103 15.1198 29.1402L15.1105 29.1216ZM14.7017 28.6942C14.618 28.6105 14.7946 28.8428 14.7109 28.7313C14.8039 28.8521 14.9897 29.0287 15.1012 29.103C14.9525 28.9729 14.841 28.8335 14.7017 28.7035V28.6942ZM14.7853 28.9172C14.8039 28.9729 14.8317 28.9543 14.841 29.0101C15.2499 29.3167 15.4729 29.6048 15.8446 29.8742C15.5937 29.5212 15.1198 29.261 14.7853 28.9172ZM15.2406 29.3911C15.2406 29.3911 15.1848 29.3167 15.1477 29.326C15.1755 29.3446 15.2034 29.4004 15.2406 29.3911ZM14.172 28.4526C14.172 28.4526 14.1627 28.3597 14.1255 28.3411C14.1441 28.3782 14.1255 28.4154 14.172 28.4526ZM16.7738 27.8393C16.8295 27.8393 16.8574 27.8765 16.8853 27.9136C16.8946 27.9415 16.8295 27.8858 16.8574 27.9229C16.8295 27.9229 16.7924 27.8672 16.7738 27.8393ZM15.2313 25.3769C15.2313 25.3769 15.2592 25.3583 15.2963 25.3305C15.2963 25.349 15.2963 25.3769 15.2963 25.3955C15.2778 25.3955 15.2592 25.3769 15.222 25.3862C15.222 25.3769 15.2313 25.3862 15.2313 25.3862V25.3769Z" fill="white"/>
    <path d="M15.7604 22.7937C15.7604 22.7937 15.7233 22.7101 15.6861 22.7101C15.6954 22.7566 15.7233 22.7845 15.7604 22.7937ZM17.3494 24.2154C17.3494 24.2154 17.2843 24.1968 17.2472 24.1875C17.2843 24.1504 17.3122 24.2061 17.3494 24.2154ZM16.1042 23.2491C16.1042 23.2491 16.1507 23.2862 16.16 23.3048C16.1228 23.3141 16.1228 23.2676 16.1042 23.2491ZM15.2865 22.0783C15.2865 22.0783 15.3144 22.1154 15.3051 22.1247C15.3051 22.0968 15.2773 22.0968 15.2865 22.0783ZM15.4724 22.4592C15.4724 22.4592 15.4538 22.4314 15.4352 22.4221C15.4259 22.4221 15.4352 22.4407 15.4352 22.4407C15.4073 22.4499 15.4166 22.4128 15.398 22.4128C15.4073 22.4128 15.4166 22.4128 15.4259 22.4128C15.4352 22.3849 15.398 22.357 15.398 22.3291C15.4352 22.3477 15.4538 22.4221 15.4724 22.4592ZM15.9556 23.2676C15.9556 23.2676 15.9927 23.2955 16.0113 23.3141C15.9834 23.3234 15.9741 23.2862 15.9556 23.2676ZM15.0357 21.5022C15.0357 21.5022 14.9892 21.53 14.9892 21.5486C14.952 21.5486 14.9799 21.5022 15.0357 21.5022ZM14.4317 24.9216C14.4317 24.9216 14.4967 24.9774 14.5246 24.996C14.4874 24.996 14.4596 24.9402 14.4317 24.9216ZM12.8892 22.7101C12.8892 22.7101 12.8892 22.6544 12.8613 22.6265C12.9078 22.6265 12.8985 22.6822 12.8892 22.7101ZM13.4374 24.169C13.4374 24.169 13.3724 24.0946 13.3445 24.0575C13.3817 24.0482 13.4281 24.1411 13.4374 24.169ZM13.679 24.4756C13.6326 24.4849 13.6047 24.4198 13.5675 24.3827C13.614 24.3734 13.6419 24.4663 13.679 24.4756ZM14.7197 21.3999C14.7197 21.3999 14.7011 21.4371 14.7476 21.4464C14.7197 21.4743 14.7104 21.5115 14.7104 21.5486C14.7104 21.5486 14.7197 21.5486 14.7197 21.5579C14.7476 21.5579 14.8034 21.5579 14.7941 21.5393C14.8684 21.5486 14.7941 21.5951 14.7569 21.6044C14.7569 21.623 14.7662 21.623 14.7755 21.6415C14.8219 21.6137 14.8684 21.5951 14.8498 21.5672C14.9056 21.5672 14.9149 21.5672 14.9892 21.5486C14.9892 21.5765 15.0171 21.5765 15.0821 21.5765C15.0728 21.5858 15.0635 21.6044 15.0635 21.623C15.0635 21.623 15.0914 21.623 15.0914 21.6322C15.1286 21.6322 15.11 21.6137 15.1472 21.6137C15.1286 21.8738 15.268 22.1433 15.398 22.4407C15.5281 22.4685 15.4724 22.5429 15.5374 22.6265C15.5653 22.5893 15.5188 22.5707 15.5281 22.5336C15.6675 22.7194 15.7976 22.961 15.9742 23.0818C15.9927 23.1933 16.0857 23.3048 16.1786 23.3791C16.1972 23.3977 16.2065 23.3513 16.2157 23.3606C16.2715 23.4256 16.2622 23.4349 16.318 23.4814C16.2529 23.5371 16.2157 23.4814 16.1786 23.4442C16.2064 23.4906 16.2715 23.5929 16.3087 23.565C16.4109 23.6486 16.4852 23.7137 16.5967 23.7973C16.6246 23.7973 16.6432 23.8159 16.6711 23.7787C16.7082 23.8066 16.7547 23.853 16.8011 23.8437C16.8104 23.8159 16.764 23.8066 16.7547 23.788C16.8197 23.7787 16.8941 23.853 16.8662 23.9274C16.9684 24.0017 17.0799 24.0853 17.1914 24.1039C17.21 24.2712 17.3772 24.2526 17.4887 24.3362C17.4237 24.2619 17.5445 24.3362 17.5631 24.3362C17.6374 24.3548 17.721 24.3641 17.7861 24.3827C17.9162 24.4106 17.9905 24.4849 18.0834 24.5035C18.2972 24.5499 18.4737 24.6521 18.6131 24.7451C18.6317 24.7451 18.641 24.7265 18.6595 24.7358C18.6595 24.7451 18.6502 24.7358 18.641 24.7358C18.6688 24.8194 18.7153 24.9681 18.6224 25.0796C18.6224 25.1446 18.6317 25.1911 18.6502 25.2561C18.5759 25.4141 18.548 25.6278 18.4551 25.7579C18.4737 25.888 18.3901 26.0274 18.3622 26.1667C18.325 26.3247 18.3343 26.5105 18.2228 26.5756C18.0741 27.0681 17.5166 26.7057 17.275 26.557C17.0799 26.557 16.9591 26.3805 16.7733 26.3154C16.7454 26.3061 16.7268 26.3247 16.7082 26.3154C16.4759 26.1667 16.2343 26.0831 16.0299 25.953C16.1414 26.0552 16.2157 26.0831 16.3551 26.176C16.4109 26.2225 16.318 26.176 16.2994 26.1575C15.8069 25.9159 15.2215 25.5256 14.6919 25.0331C14.6361 24.9774 14.5989 24.8844 14.5339 24.8937C14.4688 24.8008 14.4131 24.7544 14.3388 24.6893C14.3202 24.6986 14.3573 24.7451 14.3759 24.7265C14.2551 24.7265 14.1715 24.5035 14.0507 24.4198C14.0879 24.6057 14.4131 24.8566 14.5246 25.0052C14.2644 24.8008 14.0972 24.5499 13.8556 24.3362C13.8834 24.3176 13.8184 24.2991 13.8649 24.2898C13.7534 24.1504 13.6697 24.0296 13.5954 23.9088C13.5396 23.8159 13.4281 23.7601 13.4374 23.6393C13.1401 23.0725 12.945 22.5243 12.945 21.9389C12.9914 21.9668 12.9171 21.9946 12.9635 22.0318C12.9728 21.9946 12.9635 21.9482 12.9914 21.911C12.9357 21.8645 12.9542 21.5951 13.075 21.5486C13.0658 21.6322 13.0286 21.6973 13.0286 21.7995C13.0565 21.7716 13.0286 21.7159 13.0843 21.7066C13.1029 21.753 13.0843 21.8553 13.0843 21.9203C13.0843 21.9389 13.1029 21.9203 13.1029 21.9017C13.1308 22.0318 13.0658 22.2084 13.1587 22.3477C13.1587 22.2827 13.1029 22.1991 13.1587 22.134C13.1773 22.1433 13.1587 22.2176 13.1865 22.2641C13.2051 22.1991 13.1865 22.1619 13.1865 22.0968C13.1494 22.1526 13.1773 22.0504 13.1587 22.0132C13.2144 22.1154 13.2609 22.2269 13.3352 22.1433C13.3259 21.9946 13.3073 21.9761 13.2888 21.8738C13.2702 21.8924 13.2888 21.911 13.2423 21.9017V21.9575C13.2423 21.9017 13.168 21.8831 13.1494 21.7995C13.168 21.7995 13.1587 21.8274 13.168 21.846C13.2051 21.8367 13.2237 21.7995 13.2237 21.7623C13.2609 21.7623 13.2423 21.8088 13.2888 21.7995C13.3259 21.7902 13.2795 21.7809 13.2888 21.753C13.3259 21.7438 13.2981 21.7995 13.3259 21.7995C13.3259 21.753 13.3538 21.6973 13.3352 21.623C13.3538 21.623 13.3631 21.6322 13.3631 21.6508C13.391 21.623 13.3631 21.5672 13.3631 21.5393C13.4281 21.5393 13.4096 21.4836 13.456 21.4836C13.4096 21.5486 13.4839 21.5579 13.4281 21.5858C13.5118 21.623 13.4746 21.7252 13.5118 21.8088C13.5304 21.7623 13.5118 21.6973 13.5211 21.6415C13.5396 21.6415 13.5489 21.6601 13.5489 21.6787C13.5582 21.6787 13.5861 21.6415 13.5489 21.6508C13.5768 21.623 13.5954 21.6787 13.614 21.688C13.614 21.6787 13.614 21.6601 13.6697 21.6601C13.6883 21.6973 13.6047 21.7902 13.6883 21.8367C13.679 21.8553 13.6697 21.8645 13.6604 21.8831C13.679 21.911 13.7162 21.9203 13.7162 21.9761C13.679 21.9296 13.6883 22.0039 13.6511 22.0225C13.6976 22.0225 13.6883 22.134 13.7255 22.1805C13.7348 22.1247 13.7069 22.0318 13.6976 21.9946C13.7069 21.9946 13.7162 22.0039 13.7255 22.0132C13.7255 21.9203 13.7255 21.8274 13.6697 21.7438C13.7069 21.7438 13.6976 21.6973 13.7162 21.6694C13.7162 21.6322 13.6511 21.6508 13.6511 21.6137C13.7348 21.6044 13.7534 21.6137 13.7719 21.6787C13.7812 21.6137 13.7348 21.5022 13.8834 21.4743C13.7998 21.5393 13.7905 21.623 13.8184 21.7252C13.8463 21.688 13.7998 21.5951 13.8463 21.5672C13.8463 21.5951 13.8742 21.5951 13.8834 21.6044C13.9206 21.5765 13.902 21.5951 13.9299 21.5579C13.9578 21.5765 13.902 21.6044 13.9299 21.6415C13.9671 21.6508 13.9485 21.5858 13.9671 21.6322C13.9857 21.6322 14.0042 21.5951 13.9764 21.5951C13.995 21.5951 14.0414 21.623 14.0879 21.6137C14.1065 21.6601 14.0879 21.6415 14.1065 21.688C14.1715 21.6601 14.0786 21.6137 14.1065 21.5858C14.0786 21.5951 14.0228 21.5579 14.0228 21.6044C13.9671 21.5858 14.0228 21.5579 14.0507 21.5393C14.0879 21.5393 14.0507 21.5672 14.0507 21.5765C14.1529 21.5858 14.2644 21.465 14.3202 21.53C14.3573 21.53 14.3388 21.5115 14.3573 21.5022C14.4131 21.5393 14.3759 21.5858 14.4131 21.623C14.4317 21.6044 14.4317 21.5393 14.4131 21.53C14.4224 21.5022 14.4503 21.53 14.441 21.5486C14.5246 21.53 14.441 21.4371 14.4596 21.4092C14.4874 21.4092 14.5153 21.465 14.5618 21.465C14.5525 21.465 14.5246 21.4743 14.5432 21.5022C14.5153 21.4743 14.5246 21.5022 14.4967 21.5022C14.5618 21.53 14.5525 21.5486 14.5989 21.5765C14.6454 21.5393 14.6268 21.5022 14.6919 21.4557C14.664 21.4278 14.6547 21.4092 14.6919 21.3721C14.729 21.3721 14.7569 21.4092 14.7941 21.3907L14.7197 21.3999ZM16.0113 23.3141C16.0113 23.3141 16.0578 23.3699 16.0857 23.3606C15.8998 23.1654 15.779 22.8867 15.5932 22.7659C15.6025 22.7937 15.6489 22.8123 15.6303 22.8402C15.6211 22.8402 15.6118 22.8402 15.6025 22.8402C15.6675 22.896 15.7697 23.0911 15.8812 23.1561C15.8812 23.1561 15.8719 23.1376 15.8626 23.1561C15.8998 23.2119 15.9649 23.3606 16.0206 23.3327L16.0113 23.3141ZM14.2365 21.5393H14.1622C14.1436 21.6694 14.1436 21.8367 14.218 21.9575C14.1994 21.8367 14.1808 21.753 14.2087 21.6694C14.2273 21.6694 14.2273 21.6508 14.2458 21.6787C14.2644 21.6137 14.218 21.6044 14.2365 21.5393ZM13.5768 21.8274C13.5768 21.8831 13.5489 21.9946 13.614 22.0504C13.614 22.0132 13.5768 21.9296 13.614 21.9668C13.6326 21.9203 13.5954 21.8553 13.5675 21.8181L13.5768 21.8274ZM16.8941 26.3619C16.8941 26.3619 16.8941 26.3433 16.9034 26.3154C16.8569 26.2782 16.8104 26.2318 16.7454 26.2039C16.7454 26.2782 16.7918 26.3898 16.8941 26.3619ZM16.3458 26.0367C16.318 26.0831 16.4295 26.1575 16.4573 26.1017C16.4295 26.0552 16.3923 26.0645 16.3458 26.0367ZM14.7476 24.8937C14.7476 24.8937 14.7662 24.8937 14.7476 24.9123C14.8034 24.9123 14.8034 24.9774 14.8498 24.9867C14.8498 24.9588 14.8498 24.996 14.8777 24.9867C14.8777 25.0052 14.887 25.0052 14.9149 25.0145C14.9892 25.0517 14.7941 24.8844 14.7662 24.8752C14.7941 24.8937 14.7197 24.8752 14.7476 24.9123V24.8937ZM14.3666 24.5128C14.283 24.4384 14.4503 24.6521 14.3759 24.5406C14.4596 24.6614 14.6361 24.8101 14.7383 24.8659C14.5989 24.7451 14.4967 24.6336 14.3666 24.5035V24.5128ZM14.441 24.7265C14.4596 24.7729 14.4874 24.7544 14.4874 24.8101C14.8684 25.0703 15.0542 25.3583 15.3888 25.5999C15.1657 25.2747 14.7569 25.0145 14.441 24.7172V24.7265ZM14.8498 25.1539C14.8498 25.1539 14.7941 25.0889 14.7662 25.0982C14.7941 25.1167 14.8219 25.1632 14.8498 25.1539ZM13.8556 24.3176C13.8556 24.3176 13.8463 24.234 13.8091 24.2061C13.8277 24.2433 13.8091 24.2805 13.8556 24.3176ZM16.4109 23.6207C16.4666 23.6207 16.4852 23.6672 16.5131 23.6951C16.5224 23.7322 16.4573 23.6579 16.4852 23.7044C16.4573 23.7044 16.4295 23.6486 16.4109 23.6207ZM15.0728 21.5765C15.0728 21.5765 15.1007 21.5672 15.1472 21.5579C15.1379 21.5672 15.1286 21.5858 15.1193 21.5951C15.1007 21.5951 15.0914 21.5858 15.0542 21.5858H15.0635L15.0728 21.5765Z" fill="white"/>
    <path d="M25.6836 17.9806C25.7579 17.8319 25.9252 17.6554 25.981 17.5532C25.8323 17.7018 25.7394 17.8319 25.6836 17.9806ZM15.769 18.7425C15.769 18.6775 15.7876 18.7425 15.7876 18.7332C15.7783 18.789 15.769 18.7332 15.769 18.7425ZM25.2655 22.004C25.1354 22.0226 24.5964 21.9576 24.4106 21.939C24.5779 21.9204 25.0332 21.9854 25.2655 22.004ZM29.1681 16.5032C29.1681 16.5032 28.9265 16.466 28.9079 16.4474C29.038 16.4753 29.0845 16.466 29.1681 16.5032ZM27.1425 16.6425C27.1425 16.6425 27.3004 16.5868 27.3562 16.5496C27.3562 16.5403 27.3004 16.5496 27.2725 16.5682C27.2725 16.5403 27.4026 16.5032 27.4677 16.4939C27.4491 16.5124 27.4212 16.5217 27.3933 16.5403C27.4863 16.5496 27.6814 16.4567 27.8301 16.4567C27.6535 16.5032 27.3376 16.5868 27.1517 16.6518L27.1425 16.6425ZM25.1818 21.0841C25.219 21.2049 25.2097 21.5952 25.2283 21.8182C25.1911 21.6881 25.2004 21.3071 25.1818 21.0841ZM34.0557 17.3673C33.8977 17.3952 33.842 17.3673 33.6562 17.3952C33.7305 17.3487 34.065 17.3116 34.0557 17.3673ZM22.8031 19.3837C22.8031 19.3837 22.7288 19.3837 22.6916 19.3837C22.6916 19.3558 22.7659 19.3837 22.8031 19.3837ZM30.9708 14.5704C31.0358 14.5704 31.1752 14.7005 31.3331 14.7748C31.2402 14.7655 31.0823 14.6448 30.9708 14.5704ZM24.1597 15.5647C24.2155 15.4439 24.5035 15.2301 24.6615 15.0815C24.6522 15.1465 24.2526 15.4717 24.1597 15.5647ZM23.0911 17.1629C23.0911 17.0607 23.2584 16.7355 23.3885 16.531C23.3699 16.6332 23.1376 16.9956 23.0911 17.1629ZM34.9292 16.7169C34.8084 16.7912 34.6597 16.8284 34.5389 16.9213C34.3066 16.977 34 17.0421 33.7026 17.0885C33.6654 17.0885 33.6562 17.1071 33.6097 17.1164C33.6376 17.135 33.5446 17.2093 33.7119 17.1722C33.5725 17.2651 33.238 17.2465 33.2473 17.2001C33.1172 17.2001 33.0893 17.2279 32.9871 17.2465C33.173 17.2744 33.2566 17.3116 33.5261 17.2465C33.5261 17.3023 33.5168 17.3116 33.5911 17.3766C33.3309 17.4231 33.3402 17.4416 33.238 17.516C33.1265 17.516 33.015 17.516 32.8849 17.5253C32.8292 17.5346 32.8199 17.5532 32.7641 17.5624C32.7362 17.5996 32.8849 17.5717 32.857 17.6182C32.6433 17.6368 32.5318 17.6368 32.2624 17.6647C31.9 17.7111 31.5469 17.7762 31.1845 17.8319L30.7663 17.4045C30.6455 17.2744 30.4411 17.0885 30.3761 17.0421C30.2553 16.9492 30.1345 16.8562 30.0044 16.7819C29.7442 16.6239 29.4562 16.5032 29.1588 16.4288C28.5641 16.2709 27.9044 16.308 27.3097 16.4939C26.9752 16.7076 26.7615 16.7262 26.3991 17.0049C26.4641 17.0049 26.6407 16.8377 26.7429 16.8191C26.269 17.0978 25.8602 17.516 25.5907 17.9806C25.4513 18.2129 25.3584 18.4545 25.2933 18.6961C25.2655 18.8169 25.2283 18.9284 25.2283 19.0492L25.2097 19.2164C25.2097 19.2815 25.2283 19.4952 25.2376 19.6253C25.2376 20.22 25.2562 20.8518 25.2655 21.5023V21.7531C25.2655 21.8182 25.3305 21.9761 25.2004 21.9204L24.6801 21.8832L23.6858 21.8089C23.4257 21.7903 23.7044 21.8461 23.5465 21.8368C23.0911 21.7903 22.8588 21.7624 22.6358 21.7346C22.5243 21.716 22.4128 21.6974 22.2734 21.6695L21.8925 21.6045C21.9482 21.5766 21.9947 21.5673 22.2827 21.6045C22.5429 21.6509 22.8495 21.6788 23.1376 21.7067C22.8588 21.6788 22.3478 21.6045 22.0226 21.5301C21.7903 21.4837 21.6044 21.4465 21.5951 21.4558C20.796 21.2792 20.192 21.0934 19.3558 20.7589C19.2535 20.7403 19.077 20.6567 19.0398 20.6938C18.7332 20.5545 18.4173 20.3965 18.2128 20.3222C18.25 20.3779 18.4916 20.4708 18.6124 20.5359C18.3429 20.4801 17.7204 20.1085 17.6646 19.9969C17.3115 19.7832 16.9491 19.5509 16.6146 19.3186C16.4474 19.2071 16.2894 19.0863 16.1407 18.9748L15.9177 18.8169C15.8248 18.7518 15.8713 18.789 15.8434 18.7797C15.8155 18.6217 15.7505 18.631 15.7226 18.6031C15.7226 18.6031 15.7133 18.5846 15.704 18.5753C15.7505 18.6682 15.704 18.6124 15.704 18.6403C15.704 18.6961 15.7226 18.7611 15.7412 18.789C15.7783 18.8262 15.7412 18.8076 15.7598 18.8262C15.7598 18.8262 15.8341 19.0213 15.8898 19.1142C15.9363 19.2257 16.0106 19.3465 16.0664 19.4673C16.1965 19.6996 16.3266 19.9412 16.4752 20.1735C16.7633 20.6288 17.0792 21.0562 17.3673 21.3907C17.4323 21.4558 17.4788 21.4651 17.5531 21.5301C17.5531 21.5301 17.5159 21.5115 17.4974 21.493C17.6367 21.7253 17.804 22.0226 17.4974 21.939C17.4788 22.0133 17.5624 22.1248 17.6274 22.2363C17.3673 22.2549 17.3208 22.5058 16.9677 22.3943C17.042 22.6266 16.7912 22.608 16.689 22.7102C16.5867 22.831 16.6518 23.1284 16.2336 22.8868C16.0106 23.0168 15.4159 22.5708 14.8956 21.8925C14.3659 21.2142 13.9106 20.3036 13.6876 19.6067C13.4646 19.1049 13.3345 18.4452 13.3996 17.8784C13.446 17.293 13.604 16.754 13.7991 16.2337C13.8642 16.085 13.8456 16.0293 13.9013 15.8992C14.0686 15.5832 14.2266 15.2952 14.3845 14.9978C14.4775 14.8027 14.5425 14.7841 14.6168 14.747L14.8306 14.6169C15.1836 15.0071 15.5367 15.416 15.8805 15.7784C16.0571 15.9642 16.2336 16.1501 16.4009 16.3359C16.5774 16.5032 16.7447 16.6425 16.912 16.8005C16.7261 16.6147 16.5589 16.4753 16.4009 16.308C16.2429 16.1315 16.0943 15.9642 15.9456 15.797C15.639 15.4717 15.323 15.0908 14.8584 14.5704L14.8027 14.5054C14.7469 14.5332 14.7655 14.5147 14.8027 14.4868C14.9049 14.5983 15.0907 14.812 15.1651 14.8956C15.5274 15.3045 15.8898 15.704 16.2801 16.1129C16.4752 16.3359 16.6611 16.4846 16.8562 16.6611C17.0328 16.8191 17.2929 17.0607 17.3766 17.1071C17.8505 17.4788 18.3801 17.8226 18.9469 18.1385C19.5137 18.4545 20.127 18.7239 20.7589 18.947C21.0748 19.0677 21.4 19.1514 21.7345 19.235L22.2363 19.3465L22.5522 19.4023C22.6358 19.4116 22.7659 19.4766 22.7845 19.4208C22.8496 19.4301 22.9146 19.4487 22.9518 19.4394C22.9425 19.3837 22.9332 19.3372 22.9239 19.2815C22.9053 19.2629 22.9053 19.3279 22.9239 19.3372C22.8774 19.2536 22.8588 19.1978 22.8681 19.0956V19.0213L22.9146 18.7332C22.9425 18.5195 22.9889 18.3244 23.0261 18.1385C22.9425 18.3337 22.8774 18.6124 22.831 18.9284C22.8031 19.1049 22.8124 19.1142 22.8217 19.1885C22.8217 19.235 22.8774 19.3465 22.8217 19.3372C22.7659 19.3372 22.7102 19.3372 22.673 19.3186C22.7288 19.3093 22.8217 19.3372 22.831 19.2908L22.8031 19.1049V19.012C22.8031 19.012 22.8031 18.9841 22.8124 18.9284C22.8403 18.7332 22.8588 18.5474 22.9053 18.3523C22.9889 17.9713 23.1004 17.5996 23.2491 17.2279C23.2677 17.2558 23.342 17.0142 23.3513 17.1071C23.723 16.3173 24.2341 15.7505 24.773 15.2859C25.1633 14.97 25.5628 14.6262 26.0367 14.4868C27.2075 13.9664 28.4619 13.8828 29.5677 14.143C30.1252 14.2731 30.6455 14.4868 31.1101 14.7655C31.3424 14.9049 31.5655 15.0629 31.7699 15.2301C31.8907 15.3324 31.8442 15.2952 31.8814 15.3324L31.9371 15.3974H32.0672L32.5411 15.3695C32.4389 15.416 32.346 15.3509 32.2066 15.4067C32.346 15.4067 32.5225 15.4067 32.6247 15.4067C32.8477 15.3417 33.6469 15.2673 33.7491 15.3417C33.5168 15.3881 33.3216 15.3788 32.9778 15.416C33.0522 15.4439 33.2566 15.3974 33.2845 15.4346C33.1172 15.481 32.7827 15.4903 32.5504 15.4996C32.4947 15.5089 32.5504 15.5182 32.5969 15.5182C32.4482 15.5368 32.1973 15.5461 32.0858 15.5461C32.0115 15.5461 31.9464 15.5461 31.8814 15.5461C31.8349 15.4903 31.7978 15.4532 31.7141 15.4067C31.7699 15.4717 31.8256 15.5089 31.8721 15.5647C31.9 15.5647 31.9185 15.5647 31.9371 15.5832C31.9278 15.5925 31.8907 15.6018 31.8628 15.6018C31.8349 15.574 31.807 15.5368 31.7792 15.5182C31.807 15.5647 31.8256 15.6018 31.8535 15.6297C31.8907 15.6297 31.9278 15.6297 31.9836 15.6204C31.9185 15.5832 32.0301 15.6111 32.1416 15.5925C32.0022 15.6297 31.9 15.6669 31.8349 15.704C31.807 15.704 31.7978 15.7226 31.8163 15.7784C31.8163 15.7877 31.8163 15.7877 31.8256 15.797C32.2716 15.7505 32.3274 15.7412 32.6154 15.7133C32.5411 15.6947 32.4668 15.7226 32.5318 15.6762L32.3274 15.6947C32.5504 15.6762 32.6805 15.5925 32.9685 15.5554C32.9593 15.574 32.8756 15.574 32.8106 15.5832C32.8385 15.6204 32.95 15.6297 33.0893 15.6111C33.0893 15.6483 32.9035 15.6483 32.9407 15.6947C32.9685 15.7319 33.0243 15.6762 33.0986 15.6762C33.1265 15.7133 32.9221 15.704 32.9035 15.7319C33.0708 15.7226 33.2659 15.7319 33.5446 15.6576C33.5354 15.6762 33.5075 15.6947 33.4424 15.704C33.5354 15.7226 33.7305 15.6483 33.8327 15.6204C33.8327 15.6855 34.0092 15.6204 34.0278 15.6576C33.8141 15.6762 33.7584 15.7691 33.6747 15.7226C33.5446 15.8434 33.1544 15.8527 32.8013 15.9178C32.9964 15.9178 33.2566 15.8806 33.4703 15.8527C33.4517 15.8713 33.396 15.8899 33.3216 15.8992C33.3402 15.9085 33.4796 15.9178 33.4331 15.8806C33.5539 15.8806 33.3309 15.9456 33.2845 15.9642C33.3402 15.9642 33.3867 15.9549 33.3681 16.0107C33.1916 16.0571 32.8385 16.0107 32.6062 16.1036C32.5504 16.1036 32.4761 16.1036 32.4389 16.085C32.3088 16.1129 32.2066 16.1593 32.0208 16.1686C32.2159 16.1222 31.9464 16.1501 31.9278 16.1036C31.9278 16.1222 31.807 16.1501 31.677 16.1686C31.5933 16.085 31.5004 15.9921 31.4354 15.9456L31.6677 16.1872L31.9836 16.1408C31.9836 16.1408 31.9185 16.1686 31.8814 16.1779C32.1508 16.1593 32.6619 16.1315 33.0057 16.0386C33.0243 16.0757 33.1916 16.0478 33.2938 16.0478C33.4424 16.02 33.396 15.9735 33.5539 15.9363C33.5911 16.0107 33.5168 16.0478 33.2566 16.0943C33.5632 16.0757 34 15.9178 34.1486 16.02C33.8699 16.0293 33.5075 16.085 33.0615 16.1593C33.2287 16.1779 33.6283 16.0664 33.7491 16.085C33.6376 16.1036 33.6469 16.1315 33.5539 16.1593C33.6562 16.1779 33.6004 16.1686 33.7677 16.1593C33.6933 16.2058 33.5632 16.1779 33.4053 16.2151C33.3495 16.2616 33.6747 16.1965 33.4517 16.243C33.4331 16.2616 33.6097 16.2616 33.619 16.2244C33.619 16.243 33.4703 16.3173 33.5168 16.3545L33.1451 16.4195C33.2473 16.4753 33.5261 16.3452 33.6469 16.3545C33.6004 16.3359 33.8141 16.243 33.5911 16.2801C33.684 16.2058 33.8141 16.2337 33.9256 16.243C33.8977 16.2894 33.7955 16.2709 33.7212 16.2894C33.6283 16.4195 34.2787 16.3731 33.9535 16.5124C33.9349 16.5496 34.0464 16.5124 34.0929 16.5124C33.8885 16.6239 33.6097 16.6425 33.3588 16.7169C33.4517 16.7262 33.842 16.6611 33.9349 16.6147C34.0836 16.5961 33.8977 16.6611 33.8048 16.6704C33.907 16.7447 34.5296 16.4939 34.669 16.4102C34.7247 16.4288 34.3438 16.6147 34.288 16.6704C34.223 16.6704 34.1951 16.6704 34.0464 16.7169C34.2137 16.6425 33.9907 16.7169 34.0836 16.6611C33.9163 16.7633 33.7584 16.7912 33.5632 16.8748C33.7769 16.8934 34.0557 16.8191 34.3809 16.7819C34.6318 16.6704 34.7433 16.6054 35.0128 16.4939C35.0314 16.531 34.7433 16.7076 34.9106 16.6611L34.9292 16.7169ZM25.219 21.8646C25.1261 21.8925 24.4385 21.7903 24.3456 21.8275L24.8752 21.8739L25.1447 21.8925C25.1447 21.8925 25.2655 21.9297 25.2469 21.8739V21.7438C25.2283 21.4 25.219 21.0469 25.2097 20.6846C25.2004 20.3129 25.1818 19.9505 25.1726 19.5788V19.2908C25.154 19.1978 25.1726 19.1978 25.1726 19.1514L25.2097 18.9377C25.3398 18.3708 25.6 17.8598 25.888 17.4695C25.8044 17.5531 25.7022 17.7297 25.6372 17.7762C25.6464 17.739 25.665 17.7111 25.6743 17.6925C25.5721 17.8598 25.3863 18.1385 25.2748 18.4638C25.2097 18.6217 25.1726 18.7983 25.1354 18.9655L25.1075 19.2071C25.1075 19.2071 25.1075 19.3372 25.1075 19.4301C25.1075 19.5231 25.1168 19.6067 25.1261 19.6903C25.1261 19.5974 25.1261 19.4766 25.0982 19.458C25.1261 20.2014 25.1447 21.7253 25.2004 21.8739L25.219 21.8646ZM33.9256 16.5589L33.907 16.4846C33.5632 16.5589 33.1823 16.5868 32.8013 16.6239L32.2438 16.689C32.0208 16.7169 31.807 16.754 31.6026 16.8098C32.4017 16.6797 32.7734 16.6797 33.238 16.6425C33.2101 16.6611 33.3123 16.6425 33.1544 16.689C33.5075 16.6611 33.5911 16.6054 33.9256 16.5589ZM32.792 16.0478C32.5504 16.0664 32.0765 16.0571 31.9 16.1408C32.0022 16.1315 32.3088 16.0757 32.1508 16.1408C32.3088 16.1408 32.634 16.0943 32.8013 16.0571L32.792 16.0478ZM13.5947 17.0607C13.6412 16.9027 13.6226 17.0142 13.6505 17.0421C13.7434 16.7076 13.8549 16.4288 14.0129 16.0478C13.9013 16.1129 13.6226 16.5589 13.5947 17.0607ZM15.2766 15.2487C15.2766 15.193 15.0536 14.9235 14.877 14.7284C14.8027 14.7655 14.7376 14.8213 14.7469 14.8678C14.812 14.8678 14.8491 14.8585 14.8956 14.8306C14.9978 14.9421 15.1093 15.0629 15.2766 15.2487ZM22.673 19.6067C22.673 19.6067 22.6544 19.6067 22.6544 19.5881C22.5987 19.6253 22.5336 19.5602 22.4221 19.5695C22.4965 19.5974 22.3664 19.5509 22.3385 19.5788C22.292 19.5509 22.2642 19.5602 22.1527 19.5416C21.9947 19.5138 22.1712 19.5602 22.4035 19.6067C22.5522 19.6346 22.6544 19.6439 22.673 19.6439C22.673 19.6439 22.6916 19.6624 22.6916 19.6439C22.6358 19.6439 22.7288 19.616 22.6637 19.6067H22.673ZM23.0911 19.2164C23.0726 19.0306 23.0911 19.4766 23.0819 19.2629C23.0819 19.3186 23.0911 19.3837 23.1004 19.4487L23.119 19.5602C23.119 19.5602 23.1376 19.6439 23.0819 19.6253H22.7102L23.1469 19.6531C23.1469 19.5231 23.1097 19.3651 23.0911 19.2164ZM23.0354 19.4766C23.0354 19.4766 23.0354 19.5231 23.0354 19.5323C23.0168 19.5323 22.9982 19.5323 22.9518 19.5045C22.8217 19.5231 22.673 19.5045 22.5336 19.4952C22.5243 19.4952 22.227 19.4487 22.069 19.4023L21.5208 19.2629C20.8053 19.0585 20.1363 18.7797 19.4115 18.4266C20.0434 18.8262 20.8425 19.1514 21.6881 19.3558C21.9018 19.4023 22.1155 19.458 22.3292 19.4952L22.5336 19.5231H22.6544C22.738 19.5416 22.8124 19.5509 22.8867 19.5416C22.9425 19.5231 23.0819 19.5881 23.0261 19.4673L23.0354 19.4766ZM21.9947 19.3651C22.1062 19.393 22.3106 19.458 22.3664 19.4301C22.2456 19.4208 22.0504 19.3465 21.9947 19.3651ZM23.3513 17.1722C23.4257 17.1164 23.5464 16.8563 23.6487 16.689C23.5464 16.847 23.4535 16.9306 23.3513 17.1722ZM20.8425 21.3164C20.573 21.2792 20.3035 21.177 20.062 21.0841C19.8854 21.0005 20.4429 21.2049 20.1549 21.0841L20.8425 21.3164ZM33.3402 17.516C33.4424 17.5253 33.4146 17.5346 33.4889 17.5717L33.1637 17.5903C33.2287 17.5624 33.3123 17.5439 33.3402 17.5067C33.396 17.5067 33.3681 17.5067 33.3402 17.516Z" fill="white"/>
    <path d="M23.1012 31.073C22.9153 31.138 22.6366 31.1752 22.5065 31.2217C22.7574 31.2124 22.9339 31.1566 23.1012 31.073ZM30.6556 24.327C30.6835 24.392 30.5441 24.6336 30.4883 24.7823C30.4605 24.7173 30.5998 24.4757 30.6556 24.327ZM25.7587 30.0602C25.8052 30.0044 26.0189 29.9208 26.0839 29.8836C26.0282 29.9579 25.8423 30.0137 25.7587 30.0602ZM18.3623 31.361C18.3623 31.361 18.641 31.3796 18.6689 31.4075C18.5109 31.3796 18.4645 31.3982 18.3623 31.361ZM20.7689 31.4725C20.7689 31.4725 20.5738 31.4911 20.4901 31.5004C20.4901 31.519 20.5552 31.5004 20.5923 31.5004C20.5831 31.5283 20.4251 31.519 20.3508 31.5283C20.3786 31.519 20.4158 31.5097 20.453 31.5004C20.3508 31.4818 20.0906 31.519 19.9326 31.5004C20.1463 31.4911 20.5366 31.4725 20.7596 31.4725H20.7689ZM25.4614 30.3575C25.4892 30.311 25.6658 30.2367 25.7587 30.181C25.7308 30.2274 25.5543 30.2925 25.4614 30.3575ZM14.6269 30.1902C14.7198 30.2553 14.7291 30.3018 14.8499 30.3668C14.7755 30.3668 14.5804 30.2367 14.6269 30.1902ZM27.2175 31.965C27.2826 31.9093 27.5056 31.7699 27.6264 31.6863C27.5706 31.7513 27.3476 31.8907 27.2175 31.965ZM16.9963 33.6004C16.9499 33.619 16.8105 33.5447 16.6711 33.5168C16.7455 33.4982 16.8941 33.554 16.9963 33.6004ZM22.776 33.8978C22.683 33.9442 22.4043 33.9628 22.237 34C22.2742 33.9535 22.6738 33.9071 22.776 33.8978ZM24.2534 33.5447C24.1976 33.6097 23.9189 33.6655 23.733 33.7305C23.7981 33.6655 24.1326 33.6097 24.2534 33.5447ZM13.9021 30.1159C13.9764 30.1624 14.0508 30.2274 14.153 30.246C14.2738 30.3482 14.4503 30.4783 14.6548 30.5805C14.6826 30.5898 14.6919 30.5805 14.7198 30.5991C14.7198 30.5619 14.8127 30.5526 14.6919 30.4969C14.822 30.4969 15.0171 30.6548 14.9893 30.692C15.0822 30.7478 15.1101 30.7385 15.1844 30.7756C15.0729 30.6641 15.0357 30.5991 14.8406 30.5248C14.8685 30.4783 14.8871 30.4783 14.8685 30.3854C15.045 30.469 15.0543 30.4411 15.1565 30.4318C15.2216 30.4783 15.2959 30.5248 15.3981 30.5712C15.4446 30.5898 15.4539 30.5712 15.5003 30.5898C15.5375 30.5619 15.426 30.5341 15.4632 30.5062C16.9963 31.2681 18.7432 31.6026 20.518 31.5469C20.964 31.4168 21.2056 31.5283 21.7353 31.4354C21.6702 31.4075 21.4007 31.4725 21.28 31.4354C22.553 31.2867 23.891 31.0172 24.783 30.5248C25.0339 30.469 25.2941 30.3296 25.5729 30.1902C25.8516 30.0509 26.1397 29.9115 26.3627 29.7256C26.4556 29.6513 26.3441 29.6978 26.3998 29.6606C26.7344 29.4376 26.7622 29.4562 27.0503 29.2239C27.0689 29.3261 26.8087 29.4748 26.5857 29.6327C26.7065 29.5584 26.883 29.4469 27.0317 29.354C27.1711 29.2425 27.2826 29.1495 27.2733 29.1217C27.5056 28.9172 27.7286 28.75 27.933 28.5549C28.1282 28.3504 28.3326 28.1367 28.5742 27.8951C28.6113 27.8301 28.7136 27.7186 28.6857 27.6721C28.8436 27.477 29.0109 27.2726 29.0945 27.1239C29.0388 27.1425 28.9459 27.3097 28.8715 27.3841C28.9551 27.1982 29.3082 26.7894 29.4012 26.7522C29.5684 26.4827 29.7636 26.2226 29.9122 25.9531C30.0516 25.6836 30.1817 25.4142 30.2746 25.1911C30.5998 24.7823 30.7857 24.1597 30.9994 23.5093C30.8321 23.9274 31.0459 23.2584 31.0644 23.2027C31.1574 22.8403 31.1945 22.4593 31.2596 22.1248C31.3246 21.4836 31.4361 20.9726 31.4268 20.5359C31.4268 20.3221 31.4268 20.1177 31.4268 19.9133C31.4268 19.5416 31.4082 19.1792 31.3989 18.8075C31.7335 18.5567 32.068 18.3058 32.4025 18.0642L32.802 17.7297C33.0529 17.5067 33.2852 17.2837 33.4896 17.0699C33.5454 16.9956 33.5547 16.9491 33.6104 16.8748C33.6104 16.8748 33.5919 16.912 33.5826 16.9306C33.8056 16.7633 34.1215 16.5589 34.0286 16.8934C34.0936 16.9027 34.2144 16.8098 34.3352 16.7354C34.3538 17.0049 34.5954 17.0421 34.5211 17.3952C34.7348 17.3115 34.7441 17.5624 34.8556 17.646C34.9857 17.739 35.2644 17.6739 35.0786 18.0642C35.1994 18.2221 35.0321 18.5845 34.6883 19.0027C34.5211 19.2071 34.3073 19.4208 34.0658 19.6345L33.8799 19.7832L33.8056 19.839L33.6662 19.9226L33.6476 20.1084V20.127C33.6476 20.0898 33.6476 20.127 33.6476 20.1456V20.2757C33.629 20.3593 33.6197 20.4429 33.6197 20.5173C33.6755 21.2513 33.4711 22.004 33.3224 22.8124C33.2945 22.9332 33.3224 22.9518 33.3038 23.054C33.025 24.1783 32.6905 25.1633 32.2631 26.0925C32.5419 25.5257 32.672 25.2469 32.9228 24.5593C33.025 24.2712 32.895 24.6894 32.8578 24.7916C32.4582 25.8695 31.9007 27.0588 31.1016 28.2018C30.2839 29.3354 29.2432 30.4133 28.0352 31.2867C27.7751 31.4633 27.4313 31.6491 27.3198 31.7792C26.9016 32.0115 26.6693 32.1323 26.2976 32.3367C26.2976 32.3646 26.5114 32.2531 26.4835 32.2438C26.2233 32.504 25.3777 32.7641 24.8295 33.0243C25.1547 32.9314 25.7122 32.7548 26.2326 32.4761C26.7529 32.188 27.2826 31.9186 27.5985 31.6956C26.4556 32.4668 25.3499 32.9407 24.1419 33.3309C24.1419 33.2938 23.9561 33.3867 24.0118 33.3309C23.3428 33.554 22.7481 33.619 22.1813 33.7119C21.7817 33.7955 21.3729 33.8699 20.9919 33.8234C18.5295 33.9814 16.3924 33.461 14.5618 32.5597C14.6826 32.569 14.7198 32.6712 14.8685 32.6898C14.757 32.6248 14.599 32.5411 14.5154 32.4761C14.3109 32.4482 13.484 31.9836 13.4375 31.7978C13.6884 31.965 13.8742 32.1137 14.1994 32.2717C14.153 32.2159 13.93 32.123 13.9393 32.0672C14.1158 32.1416 14.4225 32.3274 14.6269 32.4296C14.6826 32.4482 14.6362 32.411 14.599 32.3925C15.0636 32.6062 15.584 32.9035 16.1508 33.015C15.937 32.9314 15.584 32.8478 15.426 32.727C15.491 32.727 15.714 32.8478 15.8906 32.8849C15.6955 32.7827 15.5654 32.7456 15.3331 32.6433C15.491 32.7641 15.1751 32.5876 15.0264 32.5318C15.4167 32.6526 15.8627 32.792 15.649 32.6062C15.1101 32.3832 15.0357 32.3646 14.6826 32.2066C14.7384 32.2624 14.8127 32.2717 14.7384 32.281L14.9242 32.3646C14.7291 32.2717 14.5711 32.2902 14.3017 32.1602C14.3202 32.1509 14.3946 32.1973 14.4503 32.2159C14.4503 32.1694 14.3481 32.1044 14.218 32.0394C14.2366 32.0115 14.3946 32.1044 14.3946 32.0579C14.3946 32.0115 14.3109 32.0301 14.2459 31.9836C14.2459 31.9371 14.4132 32.0579 14.441 32.0394C14.2924 31.965 14.1251 31.8535 13.8463 31.7141C13.8649 31.7141 13.9021 31.7141 13.9671 31.7513C13.8928 31.677 13.6884 31.6026 13.5862 31.5376C13.6326 31.5004 13.4468 31.3982 13.4654 31.3517C13.6512 31.519 13.7534 31.4818 13.7906 31.5841C13.9764 31.5841 14.3017 31.8163 14.6269 31.9371C14.4689 31.8349 14.2273 31.7327 14.0415 31.6119C14.0694 31.6119 14.1251 31.6305 14.1902 31.6677C14.1902 31.6491 14.0786 31.5562 14.0879 31.6119C13.995 31.5283 14.2087 31.6212 14.2552 31.6305C14.2087 31.6026 14.1623 31.5748 14.218 31.5376C14.376 31.6119 14.6548 31.8256 14.8871 31.8628C14.9335 31.8907 14.9893 31.9279 15.0171 31.9557C15.1472 32.0022 15.2216 31.9929 15.426 32.0858C15.203 32.0208 15.5003 32.1416 15.5096 32.1973C15.5282 32.1602 15.9835 32.3553 16.1879 32.3925C15.9556 32.3088 15.5932 32.1694 15.4539 32.123C15.4817 32.123 15.5282 32.123 15.5747 32.1416C15.2494 31.9929 14.8685 31.8163 14.534 31.7048C14.534 31.6584 14.3853 31.6026 14.3109 31.5376C14.1809 31.4725 14.1809 31.5376 14.0415 31.4633C14.0601 31.3796 14.1344 31.4075 14.3667 31.5097C14.1158 31.3703 13.6977 31.1752 13.6791 30.9987C13.8556 31.2031 14.1623 31.3982 14.5525 31.5655C14.4225 31.4725 14.0601 31.3239 13.9857 31.231C14.0786 31.2867 14.0972 31.2588 14.1716 31.2867C14.1065 31.2031 14.1437 31.2495 14.0229 31.1566C14.1065 31.1659 14.1809 31.2681 14.3202 31.3332C14.3946 31.3332 14.1158 31.1938 14.3017 31.2867C14.3295 31.2774 14.1994 31.1845 14.1716 31.2031C14.1902 31.2031 14.3295 31.2124 14.3202 31.1566C14.5061 31.2402 14.4132 31.2217 14.6269 31.296C14.5804 31.2031 14.3017 31.1566 14.2273 31.0823C14.2459 31.1287 14.0415 31.0823 14.2273 31.1752C14.1158 31.1752 14.0415 31.073 13.9764 30.9987C14.0229 30.9801 14.0786 31.0637 14.1437 31.0916C14.2738 31.0544 13.8649 30.6827 14.1437 30.7756C14.1809 30.7571 14.0879 30.7199 14.0694 30.692C14.2552 30.7385 14.4317 30.8686 14.6455 30.9429C14.5897 30.8871 14.3017 30.7385 14.2273 30.7199C14.1344 30.6456 14.2738 30.7106 14.3388 30.7478C14.3109 30.6456 13.8371 30.4504 13.7534 30.3761C13.7441 30.3296 14.0136 30.4783 14.0879 30.4597C14.1158 30.4969 14.1251 30.5248 14.2366 30.5712C14.1065 30.5248 14.2645 30.6084 14.1809 30.5991C14.3388 30.6177 14.441 30.692 14.6083 30.7199C14.4875 30.5991 14.2831 30.5062 14.1158 30.3389C13.9393 30.2646 13.8556 30.2181 13.7163 30.0973C13.7348 30.0695 13.9393 30.1624 13.8649 30.0695L13.9021 30.1159ZM25.8052 30.181C25.8423 30.1159 26.1304 30.0323 26.1583 29.9672C25.0618 30.627 23.6215 31.0451 22.5437 31.3332C22.683 31.3239 22.9061 31.2588 22.9897 31.2588C22.9525 31.2774 22.9153 31.296 22.8968 31.3146C23.1105 31.2402 23.4729 31.1473 23.8538 31.0451C24.2348 30.9336 24.6065 30.7571 24.8853 30.6363C24.8481 30.6548 24.7923 30.6734 24.7923 30.6827C25.099 30.5991 25.7959 30.2367 25.8145 30.1902L25.8052 30.181ZM14.218 30.8779L14.1809 30.9429C14.6826 31.2495 15.3702 31.5933 15.9835 31.7606C15.4539 31.5562 15.0636 31.3796 14.7291 31.1845C14.7663 31.1845 14.6826 31.138 14.8127 31.1845C14.5432 31.0358 14.4596 31.0358 14.218 30.8779ZM14.757 31.9186C14.9614 32.0208 15.3424 32.2345 15.6211 32.2902C15.5003 32.2345 15.1286 32.1137 15.3424 32.1509C15.1937 32.0672 14.9149 31.965 14.7663 31.9186H14.757ZM33.4525 22.2363C33.4246 22.3478 33.4246 22.2828 33.3967 22.2642C33.3596 22.5151 33.2666 22.7381 33.2109 23.0447C33.2945 22.9425 33.4896 22.5615 33.4525 22.227V22.2363ZM32.7463 24.8102C32.802 24.8288 32.9786 24.2898 32.9228 24.2712C32.8392 24.4664 32.8299 24.5593 32.7463 24.8102ZM27.7844 31.3239C27.7844 31.3239 27.8215 31.2867 27.8215 31.3146C27.9144 31.2031 28.1096 31.1287 28.249 30.9987C28.1653 31.0358 28.3047 30.9708 28.2954 30.9336C28.3419 30.915 28.3605 30.8779 28.4534 30.8035C28.5742 30.692 28.4255 30.8035 28.2304 30.9708C28.0259 31.1102 27.7844 31.2774 27.7565 31.3053C27.7565 31.3053 27.7193 31.3053 27.7193 31.3239C27.8215 31.2495 27.6543 31.4075 27.7751 31.3239H27.7844ZM25.8423 32.4389C25.4428 32.634 26.4556 32.1787 25.9631 32.4017C26.4835 32.1416 27.3476 31.6863 27.7193 31.3517C27.1153 31.8163 26.4928 32.0858 25.8516 32.4296L25.8423 32.4389ZM26.6507 32.123C26.8366 32.0486 26.8459 32.0022 27.0224 31.9464C28.6113 30.9057 29.6985 30.0044 30.7764 28.6571C29.7078 29.8279 28.2397 31.2588 26.6507 32.1137V32.123ZM28.7136 30.7664C28.6206 30.85 28.4348 30.9801 28.4069 31.0358C28.4998 30.9522 28.6857 30.8221 28.7136 30.7664ZM24.114 33.3309C24.0397 33.3031 23.8167 33.3681 23.668 33.4239C23.8167 33.3867 23.9189 33.396 24.114 33.3309ZM27.7286 28.7407C27.868 28.592 28.0259 28.4434 28.1653 28.304C28.2768 28.2111 27.9609 28.527 28.1375 28.369C28.0817 28.4526 27.868 28.6478 27.7286 28.7407ZM15.1194 30.404C15.0636 30.3482 15.0915 30.3575 15.0636 30.2925C15.1194 30.3389 15.203 30.3761 15.268 30.4225C15.2123 30.4225 15.1472 30.3947 15.1194 30.4225C15.0822 30.404 15.1101 30.404 15.1194 30.4133V30.404Z" fill="white"/>
    <path d="M18.3809 31.5841C18.4273 31.5562 18.5202 31.5562 18.5481 31.5191C18.4738 31.5191 18.4273 31.547 18.3809 31.5841ZM15.584 31.8536C15.6026 31.8071 15.6676 31.8536 15.7048 31.835C15.6862 31.8815 15.6211 31.8443 15.584 31.8536ZM17.5818 31.7607C17.5818 31.7607 17.5074 31.7793 17.4795 31.7793C17.4981 31.7421 17.5539 31.77 17.5818 31.7607ZM19.6074 30.9337C19.6074 30.9337 19.5517 30.9987 19.5331 30.9801C19.5795 30.9616 19.5702 30.9337 19.6074 30.9337ZM18.9941 31.2868C18.9941 31.2868 19.0406 31.2589 19.0592 31.2403C19.0592 31.231 19.0406 31.2403 19.0313 31.2403C19.0313 31.2124 19.0685 31.2124 19.0871 31.1939C19.0871 31.2032 19.0871 31.2217 19.0685 31.231C19.1056 31.2403 19.1614 31.1846 19.2079 31.166C19.1614 31.2217 19.0592 31.2589 18.9941 31.2775V31.2868ZM17.6654 31.6213C17.6654 31.6213 17.6003 31.6399 17.5725 31.6492C17.5725 31.6213 17.6375 31.6399 17.6654 31.6213ZM20.3787 30.1253C20.3787 30.1253 20.3136 30.1253 20.2857 30.1439C20.2671 30.1067 20.3322 30.0788 20.3787 30.1253ZM17.1265 29.4284C17.1265 29.4284 17.08 29.4377 17.0614 29.447C17.0614 29.4191 17.1079 29.4377 17.1265 29.4284ZM18.3251 28.8058C18.3251 28.8058 18.353 28.8058 18.3623 28.7872C18.3809 28.8244 18.3437 28.8151 18.3251 28.8058ZM17.6561 28.9917C17.6561 28.9917 17.6933 28.9731 17.7118 28.9545C17.7211 28.9917 17.6747 29.0009 17.6561 28.9917ZM17.4888 29.0567C17.4888 29.0567 17.5167 29.0195 17.5353 29.0009C17.5353 29.0474 17.4888 29.0288 17.4888 29.0567ZM20.2764 29.7815C20.2764 29.7815 20.23 29.8001 20.2486 29.8465C20.1928 29.8465 20.1556 29.8837 20.1092 29.9209V29.9394C20.1278 29.958 20.1556 30.0138 20.1742 29.9766C20.2021 30.0417 20.1092 30.0509 20.0813 30.0138C20.0534 30.0231 20.0627 30.0509 20.0534 30.0602C20.1185 30.0602 20.1556 30.0881 20.1835 30.0324C20.2207 30.0695 20.23 30.0788 20.2857 30.1253C20.2486 30.1624 20.2671 30.181 20.2857 30.2368C20.2579 30.2368 20.2393 30.2554 20.2114 30.274C20.2114 30.2832 20.2114 30.3018 20.2114 30.3111C20.23 30.3483 20.2486 30.3111 20.2671 30.339C19.8676 30.6178 19.4959 30.9616 19.022 31.1567C18.9477 31.3054 18.8455 31.2403 18.7154 31.3147C18.7526 31.3518 18.8083 31.2868 18.8455 31.2961C18.5202 31.4726 18.13 31.5377 17.8698 31.6585C17.7211 31.6399 17.526 31.6585 17.3773 31.6956C17.3495 31.6956 17.3773 31.7328 17.368 31.7328C17.2565 31.7328 17.2565 31.7328 17.1543 31.7514C17.1543 31.6678 17.238 31.6678 17.3123 31.6585C17.238 31.6585 17.0893 31.6492 17.0893 31.6863C16.9313 31.6956 16.8012 31.7328 16.6247 31.7328C16.6061 31.7514 16.5689 31.7514 16.5689 31.7978C16.5039 31.7978 16.4388 31.7978 16.3924 31.8257C16.4017 31.8536 16.4574 31.8257 16.4853 31.835C16.4295 31.8908 16.2902 31.8722 16.2716 31.7978C16.1136 31.7978 15.9464 31.7793 15.8256 31.8164C15.7141 31.677 15.5468 31.77 15.3888 31.7328C15.4911 31.77 15.3238 31.7607 15.3145 31.7607L15.045 31.7978C14.8871 31.8164 14.7756 31.7607 14.6641 31.7607C14.4039 31.7607 14.1623 31.6863 13.9765 31.5934C13.9579 31.5934 13.9393 31.612 13.9207 31.612C13.9207 31.6027 13.93 31.612 13.9393 31.6027C13.8835 31.5191 13.8278 31.3704 13.93 31.2589C13.93 31.1939 13.9114 31.1474 13.8928 31.0916C13.9672 30.9337 13.9858 30.7107 14.0694 30.5806C14.0508 30.4505 14.1158 30.3111 14.1437 30.1624C14.1716 30.0045 14.1623 29.8186 14.2552 29.7443C14.3667 29.2518 14.757 29.512 14.9614 29.5771C15.1008 29.5213 15.2123 29.6514 15.361 29.6421C15.3796 29.6421 15.3888 29.6142 15.4074 29.6049C15.6026 29.6607 15.7791 29.6142 15.9557 29.6235C15.8534 29.5863 15.7977 29.5956 15.6769 29.5771C15.6304 29.5678 15.7048 29.5585 15.7234 29.5678C16.1136 29.5678 16.5875 29.5585 17.0149 29.4841C17.0614 29.4841 17.1264 29.5027 17.1357 29.4563C17.2008 29.4563 17.2472 29.4563 17.303 29.4284C17.303 29.4098 17.2658 29.4191 17.2751 29.4284C17.303 29.3355 17.4424 29.3819 17.5074 29.3262C17.3959 29.2611 17.2008 29.3912 17.08 29.3726C17.2658 29.3169 17.4331 29.3076 17.5725 29.2054C17.5725 29.2332 17.591 29.1868 17.6003 29.2332C17.684 29.1868 17.7676 29.1868 17.8234 29.1496C17.8698 29.131 17.8884 29.0474 17.9627 29.0939C18.2601 28.9824 18.4645 28.8337 18.734 28.7129C18.7526 28.7501 18.6875 28.7036 18.6968 28.7408C18.7247 28.7408 18.7433 28.7315 18.7711 28.7408C18.7525 28.685 18.8733 28.62 18.9756 28.685C18.9291 28.7036 18.8733 28.6943 18.8455 28.7315C18.8733 28.7501 18.8826 28.7129 18.9198 28.7408C18.9198 28.7779 18.8548 28.7872 18.8269 28.8058C18.8269 28.8058 18.8455 28.8244 18.8455 28.8151C18.7897 28.8709 18.6596 28.843 18.641 28.9452C18.6782 28.9452 18.6875 28.8801 18.7526 28.8987C18.7526 28.9173 18.7061 28.9173 18.6968 28.9452C18.7433 28.9452 18.7525 28.9359 18.7897 28.9173C18.734 28.8987 18.8083 28.8987 18.8176 28.8802C18.799 28.9452 18.7525 29.0009 18.8455 29.0474C18.9291 29.0009 18.9291 28.9917 18.9756 28.9545C18.9477 28.9452 18.957 28.9731 18.9291 28.9266L18.9105 28.9452C18.9105 28.9452 18.9105 28.8616 18.9291 28.8244C18.9384 28.8337 18.9291 28.843 18.9291 28.8523C18.957 28.8801 18.9848 28.8802 19.0034 28.8616C19.0313 28.8894 18.9941 28.8894 19.0313 28.9266C19.0592 28.9545 19.0313 28.908 19.0499 28.908C19.0778 28.9359 19.0406 28.9359 19.0499 28.9545C19.0685 28.9359 19.1149 28.9359 19.1428 28.8894C19.1428 28.8987 19.1521 28.9173 19.1428 28.9173C19.18 28.9266 19.18 28.8802 19.1893 28.8709C19.2264 28.9173 19.245 28.8801 19.2822 28.9173C19.2172 28.9173 19.2636 28.9731 19.2079 28.9359C19.245 29.0102 19.1707 29.0288 19.1428 29.0846C19.18 29.0846 19.2079 29.0381 19.2357 29.0195C19.2357 29.0381 19.2357 29.0474 19.2357 29.0567C19.245 29.0567 19.2822 29.066 19.2543 29.0381C19.2915 29.0381 19.2729 29.0846 19.2822 29.1032C19.2915 29.1032 19.3008 29.1032 19.3379 29.1403C19.3287 29.1682 19.2264 29.1589 19.245 29.2332C19.2264 29.2332 19.2172 29.2332 19.1986 29.2332C19.1986 29.2611 19.1986 29.2983 19.1614 29.3076C19.18 29.2611 19.1335 29.2983 19.0964 29.2611C19.1242 29.2983 19.0406 29.3262 19.022 29.3726C19.0592 29.3726 19.1149 29.3076 19.1335 29.289C19.1335 29.2983 19.1335 29.3076 19.1335 29.3169C19.1986 29.289 19.2636 29.2518 19.2729 29.1682C19.3008 29.1961 19.3194 29.1682 19.3379 29.1682C19.3565 29.1496 19.3101 29.1125 19.3287 29.0939C19.3937 29.1496 19.3937 29.1682 19.3658 29.2147C19.4123 29.1868 19.4402 29.0939 19.5702 29.1868C19.468 29.1589 19.4123 29.1961 19.3751 29.2704C19.4216 29.2704 19.4402 29.1868 19.4866 29.2054C19.468 29.2147 19.4866 29.2332 19.4866 29.2611C19.5331 29.2797 19.5052 29.2611 19.5517 29.2611C19.561 29.289 19.5052 29.2611 19.4959 29.2983C19.5145 29.3355 19.5517 29.2797 19.5238 29.3169C19.5331 29.3355 19.5702 29.3169 19.5517 29.3076C19.561 29.3169 19.5795 29.3726 19.6167 29.4005C19.5981 29.4377 19.5981 29.4098 19.5795 29.4563C19.6446 29.4934 19.6167 29.3912 19.6539 29.4005C19.626 29.3819 19.6167 29.3169 19.5888 29.3448C19.561 29.289 19.6167 29.3169 19.6539 29.3262C19.6725 29.354 19.6353 29.3355 19.626 29.354C19.6818 29.4377 19.849 29.4377 19.849 29.5213C19.8676 29.5492 19.8769 29.5213 19.8955 29.5213C19.9048 29.5863 19.8397 29.5956 19.8304 29.6607C19.8583 29.6607 19.9048 29.6049 19.9048 29.5863C19.9326 29.5771 19.9233 29.6142 19.9048 29.6235C19.9791 29.67 20.007 29.5306 20.0348 29.5213C20.0627 29.5399 20.0348 29.6049 20.0534 29.6421C20.0348 29.6421 20.0163 29.6328 20.007 29.6514C20.007 29.6049 19.9884 29.6514 19.9791 29.6142C19.9977 29.6793 19.9791 29.6978 19.9791 29.7536C20.0441 29.7536 20.072 29.7071 20.1556 29.7164C20.1742 29.67 20.1835 29.6421 20.2393 29.6328C20.2671 29.6607 20.2393 29.7164 20.295 29.7164L20.2764 29.7815ZM17.5632 31.6306C17.5632 31.6306 17.4703 31.6306 17.461 31.6678C17.7955 31.6306 18.2322 31.5934 18.5017 31.4076C18.4645 31.4076 18.4087 31.454 18.3809 31.4355C18.3809 31.4355 18.3995 31.4169 18.3995 31.4076C18.288 31.4726 17.9999 31.5191 17.8419 31.5841C17.8512 31.5841 17.8698 31.5841 17.8698 31.5655C17.7862 31.5841 17.5632 31.5748 17.5632 31.6306ZM19.8025 29.5585L19.7468 29.5027C19.6446 29.5771 19.5145 29.6793 19.4402 29.7908C19.5424 29.7164 19.6074 29.6607 19.6818 29.6142C19.6818 29.6328 19.7003 29.6142 19.7003 29.6514C19.7561 29.6142 19.7375 29.5678 19.8025 29.5492V29.5585ZM19.1893 29.2147C19.1893 29.2147 19.0685 29.2518 19.0592 29.3169C19.0778 29.3076 19.1149 29.2518 19.1149 29.2983C19.1521 29.2983 19.18 29.2425 19.1893 29.2147ZM15.2216 29.6886C15.2216 29.6886 15.2216 29.7071 15.2216 29.735C15.268 29.7536 15.3052 29.7722 15.361 29.7722C15.3424 29.6978 15.2866 29.6235 15.2216 29.6793V29.6886ZM15.6769 29.7629C15.6769 29.7071 15.584 29.6978 15.584 29.7629C15.6211 29.7908 15.6397 29.7629 15.6769 29.7629ZM17.0335 29.6886C17.0335 29.6886 17.0335 29.6978 17.0335 29.6793C17.0149 29.7257 16.9778 29.6793 16.9592 29.7164C16.9778 29.735 16.9499 29.7164 16.9499 29.7443C16.9406 29.7257 16.9406 29.7443 16.922 29.7443C16.8756 29.7722 17.0428 29.7443 17.0521 29.7257C17.0335 29.7257 17.0614 29.6886 17.0428 29.6886H17.0335ZM17.368 29.6142C17.4331 29.5863 17.2658 29.6142 17.3495 29.6142C17.2658 29.6328 17.1172 29.6607 17.0521 29.7071C17.1636 29.67 17.2751 29.6793 17.368 29.6235V29.6142ZM17.2287 29.5585C17.2287 29.5585 17.2008 29.5771 17.1636 29.5399C16.9034 29.6793 16.6711 29.6049 16.4017 29.6142C16.6618 29.7443 16.9778 29.6235 17.2287 29.5585ZM16.857 29.5956C16.857 29.5956 16.9127 29.6049 16.922 29.5771C16.9034 29.5771 16.8663 29.5678 16.857 29.5956ZM17.5632 29.289C17.5632 29.289 17.6096 29.3169 17.6282 29.289C17.6096 29.289 17.591 29.2704 17.5632 29.289ZM16.9313 31.7793C16.8849 31.8257 16.8198 31.8071 16.7734 31.8071C16.7362 31.7885 16.857 31.7885 16.7919 31.7793C16.8198 31.7607 16.8941 31.7793 16.9406 31.7793H16.9313ZM20.295 30.2554C20.295 30.2554 20.3229 30.2647 20.3694 30.2832C20.3508 30.2832 20.3229 30.3018 20.3043 30.3111C20.3043 30.2832 20.3043 30.2647 20.2857 30.2368L20.295 30.2554Z" fill="white"/>
</svg>
