<svg width="229" height="228" viewBox="0 0 229 228" fill="none" xmlns="http://www.w3.org/2000/svg">
<path d="M0.5 228V114C0.5 51.04 51.54 0 114.5 0C177.46 0 228.5 51.04 228.5 114V228H0.5Z" fill="#9F7FF7"/>
<path d="M92.0027 165.567C124.037 169.768 153.412 147.205 157.613 115.17C161.814 83.1358 139.251 53.7612 107.216 49.5601C75.1818 45.359 45.8072 67.9223 41.6062 99.9567C37.4051 131.991 59.9684 161.366 92.0027 165.567Z" fill="#124936"/>
<path d="M110.116 133.516C110.67 133.25 111.538 132.997 111.865 132.702C111.113 132.942 110.592 133.184 110.116 133.516ZM79.4907 126.565C79.7564 126.515 80.2674 127.232 80.6593 127.537C80.39 127.614 79.879 126.898 79.4907 126.565ZM101.279 135.236C101.059 135.376 100.348 135.311 100.097 135.25C100.349 135.086 100.964 135.223 101.279 135.236ZM121.677 124.648C121.677 124.648 121.207 125.376 121.09 125.389C121.424 125.038 121.421 124.84 121.677 124.648ZM116.401 129.741C116.39 129.598 116.88 129.38 117.022 129.173C116.969 129.138 116.838 129.262 116.742 129.334C116.703 129.188 117.132 128.99 117.271 128.811C117.26 128.894 117.189 128.998 117.118 129.101C117.448 129.003 117.984 128.425 118.368 128.136C117.955 128.647 116.997 129.368 116.404 129.713L116.401 129.741ZM102.496 134.521C102.361 134.672 101.763 134.622 101.441 134.664C101.572 134.541 102.167 134.618 102.496 134.521ZM126.208 113.813C126.111 114.111 125.902 114.169 125.766 114.546C125.622 114.329 125.904 113.717 126.208 113.813ZM100.194 123.524C100.059 123.675 99.6984 123.572 99.4646 123.597C99.5997 123.446 99.9605 123.55 100.194 123.524ZM112.61 116.037C112.61 116.037 112.834 115.869 112.863 115.647C112.983 115.832 112.738 115.941 112.61 116.037ZM106.309 120.601C106.334 120.407 106.717 120.344 106.909 120.2C106.968 120.405 106.454 120.592 106.309 120.601ZM104.479 121.377C104.512 121.127 104.887 121.12 105.079 120.976C105.075 121.229 104.59 121.194 104.479 121.377ZM124.99 111.678C124.957 111.928 124.812 112.163 124.973 112.466C124.721 112.857 124.588 113.432 124.423 114.031C124.412 114.114 124.465 114.149 124.425 114.229C124.574 114.192 124.796 114.475 124.84 114.142C125.108 114.516 124.596 115.126 124.376 115.041C124.255 115.307 124.329 115.401 124.3 115.623C124.659 115.304 124.932 115.198 124.984 114.584C125.263 114.649 125.284 114.708 125.663 114.673C125.534 115.221 125.647 115.236 125.862 115.574C125.748 115.785 125.602 116.02 125.505 116.318C125.487 116.456 125.568 116.495 125.546 116.662C125.702 116.795 125.749 116.434 125.904 116.567C123.983 121.338 121.081 125.896 116.718 129.077C115.899 130.268 115.085 130.33 113.761 131.201C114.033 131.321 114.687 130.73 115.016 130.632C111.807 132.92 107.706 134.103 104.641 134.858C103.837 134.838 102.913 134.857 101.925 134.925C100.948 134.91 99.963 134.95 99.0671 134.974C98.6954 134.953 99.0453 135.14 98.8434 135.142C97.594 135.006 97.573 134.947 96.4012 134.878C96.5973 134.481 97.4996 134.627 98.328 134.679C97.4786 134.568 95.7907 134.262 95.7159 134.393C93.8261 134.089 92.3931 133.816 90.4127 133.105C90.1506 133.127 89.744 132.933 89.6053 133.112C88.8663 132.818 88.131 132.496 87.6003 132.37C87.6634 132.547 88.2434 132.736 88.5403 132.888C87.8498 132.882 86.3798 132.012 86.3211 131.581C84.6 130.65 83.0076 129.397 81.6472 128.569C80.8911 127.088 79.1844 126.045 77.9688 124.334C78.7083 125.503 77.3438 123.829 77.277 123.679C76.5295 122.791 75.7893 121.847 75.1869 120.95C74.0563 119.249 73.6335 117.642 73.1387 116.364C71.8575 113.176 71.7139 109.658 72.1307 106.919C72.1424 106.61 72.0437 106.485 72.0554 106.176C72.112 106.183 72.0939 106.322 72.115 106.381C72.5429 105.534 73.3323 104.565 73.8599 105.594C74.1822 105.552 74.4102 105.13 74.7407 104.806C75.5456 105.476 76.658 105.34 77.3243 106.189C77.9807 105.796 78.7189 106.316 79.4304 106.381C80.2305 106.429 81.1875 106.16 81.5779 106.916C82.7881 107.132 83.1741 108.142 83.2798 109.313C83.4421 110.491 83.4264 111.928 83.6461 112.888C84.3544 113.856 84.2682 115.171 85.0753 116.264C85.1703 116.418 85.3192 116.381 85.4179 116.507C86.2371 118.166 87.5967 119.219 88.7791 120.305C88.1659 119.491 87.7347 119.265 87.051 118.329C86.7832 117.955 87.2666 118.442 87.337 118.564C89.7604 121.168 93.8881 123.515 98.4656 123.749C98.9187 123.808 99.5232 124.028 99.7615 123.749C100.441 123.838 100.901 123.842 101.5 123.667C101.515 123.556 101.161 123.622 101.206 123.713C101.668 123.266 102.999 123.44 103.829 123.041C102.781 122.904 100.509 123.537 99.3522 123.357C101.325 123.249 103.075 123.083 104.71 122.254C104.748 122.4 104.955 122.145 104.954 122.37C105.869 121.982 106.684 121.694 107.401 121.28C107.926 121.01 108.232 120.43 108.873 120.373C111.873 118.367 113.616 115.831 115.032 113.166C115.176 113.383 114.748 113.355 114.856 113.623C115.02 113.475 115.138 113.237 115.297 113.116C115.143 112.757 115.742 111.482 116.334 111.362C116.159 111.818 115.86 112.118 115.706 112.634C115.887 112.573 115.906 112.209 116.161 112.242C116.149 112.551 115.853 113.048 115.696 113.366C115.686 113.449 115.81 113.381 115.842 113.357C115.538 114.136 114.817 114.803 114.616 115.68C114.882 115.404 114.955 114.849 115.324 114.672C115.366 114.79 115.092 115.121 115.003 115.363C115.347 115.155 115.379 114.905 115.568 114.563C115.228 114.744 115.658 114.321 115.691 114.071C115.603 114.737 115.392 115.471 116.023 115.271C116.482 114.401 116.501 114.262 116.722 113.67C116.57 113.735 116.633 113.912 116.457 113.72C116.442 113.831 116.371 113.934 116.328 114.042C116.485 113.724 116.185 113.374 116.304 112.91C116.385 112.949 116.282 113.076 116.267 113.187C116.494 113.217 116.6 113.062 116.69 112.819C116.856 112.869 116.646 113.152 116.905 113.158C117.103 113.184 116.895 113.015 116.998 112.888C117.196 112.914 116.958 113.193 117.092 113.267C117.185 112.997 117.423 112.718 117.524 112.167C117.606 112.206 117.651 112.296 117.609 112.404C117.825 112.291 117.71 111.852 117.763 111.662C118.067 111.758 118.062 111.362 118.317 111.396C117.979 111.775 118.354 111.993 117.999 112.06C118.38 112.448 117.868 113.058 117.866 113.735C118.047 113.449 118.169 112.957 118.334 112.583C118.411 112.65 118.397 112.761 118.379 112.9C118.435 112.907 118.666 112.683 118.436 112.681C118.631 112.51 118.605 112.929 118.647 113.048C118.715 112.972 118.729 112.861 119.001 112.981C118.954 113.342 118.4 113.834 118.59 114.366C118.494 114.439 118.422 114.542 118.33 114.586C118.294 114.864 118.414 115.049 118.193 115.415C118.255 114.943 118.005 115.531 117.754 115.47C117.969 115.583 117.488 116.395 117.352 116.772C117.647 116.5 117.926 115.69 118.016 115.448C118.065 115.511 118.05 115.622 118.04 115.705C118.406 115.104 118.791 114.365 118.716 113.621C118.914 113.647 118.983 113.346 119.118 113.194C119.154 112.917 118.867 112.907 118.964 112.61C119.389 112.665 119.423 112.839 119.33 113.335C119.601 112.806 119.522 111.864 120.309 111.798C119.79 112.238 119.586 112.917 119.388 113.766C119.623 113.514 119.672 112.702 119.895 112.534C119.838 112.752 119.98 112.771 120.011 112.973C120.259 112.836 120.131 112.932 120.341 112.649C120.461 112.834 120.149 113.019 120.109 113.324C120.26 113.485 120.372 112.851 120.314 113.295C120.392 113.361 120.605 113.051 120.467 113.004C120.549 113.043 120.707 113.374 120.937 113.376C120.879 113.82 120.823 113.587 120.782 114.118C121.169 114.027 120.884 113.341 121.108 113.173C120.931 113.206 120.791 112.736 120.651 113.141C120.429 112.858 120.738 112.701 120.961 112.533C121.12 112.638 120.872 112.775 120.907 112.949C121.352 113.29 122.188 112.186 122.323 112.909C122.482 113.014 122.487 112.761 122.554 112.685C122.751 113.163 122.455 113.66 122.467 114.226C122.631 114.078 122.846 113.316 122.758 113.107C122.879 112.841 122.913 113.24 122.835 113.399C123.278 113.316 123.134 111.999 123.283 111.737C123.464 111.676 123.447 112.464 123.627 112.629C123.528 112.728 123.407 112.769 123.427 113.054C123.361 112.678 123.328 113.154 123.187 112.909C123.419 113.335 123.323 113.633 123.434 114.099C123.825 113.755 123.816 113.161 124.257 112.655C124.21 112.141 124.239 111.919 124.474 111.441C124.672 111.467 124.681 112.061 124.919 111.782L124.99 111.678ZM101.335 134.594C101.168 134.77 100.244 134.564 100.077 134.74C103.954 134.825 108.691 134.063 111.615 132.189C111.222 132.335 110.625 132.708 110.342 132.671C110.438 132.599 110.534 132.527 110.573 132.448C109.385 133.166 106.245 133.827 104.48 134.329C104.597 134.316 104.774 134.283 104.785 134.2C103.818 134.327 101.449 134.383 101.338 134.566L101.335 134.594ZM122.242 112.87L121.874 112.822C121.505 114.1 120.837 115.677 120.478 117.097C121.038 115.901 121.388 114.987 121.727 114.157C121.801 114.251 121.859 114.033 121.872 114.374C122.161 113.706 122.017 113.49 122.27 112.874L122.242 112.87ZM118.386 113.945C118.271 114.381 117.67 115.008 117.711 115.577C117.828 115.339 118.008 114.629 118.063 115.088C118.326 114.84 118.399 114.285 118.414 113.948L118.386 113.945ZM84.5114 115.513C84.5426 115.715 84.4686 115.62 84.3161 115.685C84.467 116.071 84.5896 116.454 84.8748 116.915C85.0673 116.545 85.0769 115.813 84.5078 115.541L84.5114 115.513ZM86.8569 119.15C87.0558 118.951 86.481 118.283 86.2574 118.451C86.3872 118.778 86.6101 118.836 86.8569 119.15ZM98.8625 124.675C98.8625 124.675 98.7702 124.72 98.8131 124.612C98.5858 124.808 98.2751 124.542 97.9419 124.668C98.0725 124.769 97.857 124.656 97.7821 124.788C97.7081 124.693 97.6406 124.769 97.4424 124.743C96.8899 124.784 98.7092 124.966 98.837 124.87C98.8334 124.897 98.8863 124.932 98.8935 124.877C98.6953 124.851 99.0607 124.701 98.8305 124.699L98.8625 124.675ZM102.461 124.47C103.141 124.334 101.395 124.471 102.263 124.444C101.359 124.523 99.9283 124.674 98.9967 124.749C100.211 124.711 101.302 124.741 102.461 124.47ZM101.056 124.201C100.752 124.105 100.702 124.268 100.408 124.088C97.4642 124.577 95.2506 123.666 92.8819 122.621C94.8482 124.318 98.3637 124.525 101.056 124.201ZM97.261 123.929C97.4628 123.927 97.7845 124.111 97.8876 123.983C97.6822 124.013 97.3641 123.802 97.261 123.929ZM104.971 122.457C105.147 122.65 105.481 122.524 105.648 122.348C105.439 122.406 105.251 122.296 104.971 122.457ZM93.9423 134.302C93.2692 134.383 92.6508 134.048 92.0707 133.859C91.6642 133.664 92.9942 134.065 92.3082 133.805C92.6233 133.818 93.4362 134.207 93.9423 134.302ZM125.891 115.352C126.086 115.18 126.079 115.236 126.348 115.158C126.238 115.341 126.145 115.611 126.031 115.822C125.996 115.648 125.969 115.419 125.834 115.345C125.877 115.238 125.898 115.297 125.891 115.352Z" fill="#F8F8F8"/>
<path d="M167.792 181.671C178.956 179.854 186.533 169.332 184.717 158.168C182.901 147.004 172.378 139.426 161.214 141.242C150.05 143.058 142.472 153.581 144.289 164.745C146.105 175.909 156.628 183.487 167.792 181.671Z" fill="#124936"/>
<path d="M159.921 162.637C159.763 162.785 159.498 162.96 159.418 163.094C159.646 162.936 159.796 162.8 159.921 162.637ZM170.896 161.906C170.812 161.95 170.568 161.756 170.406 161.692C170.488 161.638 170.732 161.831 170.896 161.906ZM162.709 161.151C162.768 161.08 163.013 161.03 163.104 161.025C163.036 161.107 162.816 161.123 162.709 161.151ZM156.949 166.849C156.949 166.849 157.033 166.552 157.07 166.536C156.994 166.69 157.015 166.758 156.949 166.849ZM158.199 164.569C158.217 164.617 158.075 164.741 158.049 164.827C158.07 164.833 158.101 164.777 158.126 164.743C158.154 164.789 158.03 164.9 158.002 164.976C157.997 164.946 158.011 164.904 158.024 164.861C157.923 164.928 157.802 165.181 157.703 165.318C157.79 165.102 158.037 164.757 158.201 164.579L158.199 164.569ZM162.374 161.519C162.404 161.453 162.609 161.41 162.713 161.363C162.681 161.418 162.474 161.452 162.374 161.519ZM156.534 171.02C156.546 170.907 156.6 170.868 156.607 170.725C156.678 170.784 156.645 171.022 156.534 171.02ZM164.265 165.051C164.295 164.986 164.427 164.984 164.503 164.952C164.473 165.017 164.341 165.019 164.265 165.051ZM160.866 168.877C160.866 168.877 160.808 168.957 160.821 169.036C160.762 168.985 160.833 168.923 160.866 168.877ZM162.513 166.674C162.524 166.743 162.403 166.803 162.353 166.872C162.312 166.808 162.465 166.692 162.513 166.674ZM163.048 166.222C163.062 166.311 162.937 166.351 162.887 166.42C162.863 166.333 163.029 166.296 163.048 166.222ZM157.159 171.628C157.145 171.539 157.17 171.444 157.085 171.356C157.13 171.197 157.116 170.986 157.11 170.764C157.105 170.735 157.084 170.728 157.089 170.697C157.043 170.725 156.939 170.65 156.959 170.769C156.841 170.666 156.95 170.405 157.023 170.414C157.036 170.31 157.002 170.286 156.989 170.207C156.901 170.353 156.82 170.416 156.866 170.632C156.765 170.638 156.752 170.62 156.629 170.67C156.616 170.47 156.577 170.476 156.47 170.382C156.487 170.298 156.512 170.203 156.514 170.091C156.506 170.042 156.475 170.037 156.465 169.978C156.4 169.948 156.421 170.076 156.355 170.046C156.513 168.217 157.022 166.361 158.16 164.829C158.314 164.338 158.58 164.233 158.935 163.801C158.832 163.787 158.673 164.056 158.573 164.123C159.415 163.014 160.67 162.192 161.62 161.621C161.892 161.547 162.2 161.446 162.524 161.322C162.853 161.228 163.179 161.115 163.477 161.015C163.604 160.985 163.467 160.956 163.535 160.935C163.968 160.855 163.981 160.873 164.381 160.777C164.355 160.933 164.038 160.975 163.755 161.041C164.051 160.993 164.648 160.926 164.66 160.874C165.324 160.786 165.832 160.734 166.569 160.776C166.654 160.742 166.811 160.767 166.839 160.691C167.116 160.717 167.396 160.753 167.587 160.742C167.547 160.688 167.334 160.682 167.219 160.66C167.451 160.592 168.032 160.74 168.096 160.882C168.767 161.026 169.429 161.293 169.959 161.44C170.364 161.871 171.042 162.054 171.624 162.517C171.257 162.191 171.885 162.626 171.923 162.671C172.264 162.899 172.608 163.147 172.901 163.393C173.453 163.86 173.759 164.368 174.055 164.755C174.809 165.717 175.216 166.907 175.355 167.887C175.372 167.996 175.428 168.027 175.456 168.134C175.436 168.137 175.428 168.088 175.415 168.07C175.358 168.404 175.192 168.816 174.91 168.517C174.806 168.564 174.773 168.732 174.695 168.876C174.357 168.728 173.998 168.888 173.688 168.665C173.508 168.867 173.208 168.763 172.962 168.813C172.689 168.878 172.396 169.068 172.188 168.848C171.76 168.898 171.528 168.591 171.373 168.201C171.199 167.814 171.058 167.32 170.886 167.013C170.55 166.754 170.445 166.295 170.063 166.003C170.016 165.96 169.97 165.987 169.924 165.954C169.48 165.469 168.917 165.247 168.41 164.995C168.699 165.211 168.866 165.245 169.191 165.496C169.319 165.597 169.117 165.478 169.071 165.445C167.993 164.799 166.371 164.415 164.812 164.8C164.654 164.826 164.429 164.812 164.378 164.932C164.141 164.97 163.986 165.016 163.803 165.137C163.81 165.176 163.922 165.117 163.897 165.091C163.788 165.291 163.324 165.366 163.086 165.588C163.451 165.528 164.149 165.08 164.555 165.024C163.905 165.262 163.335 165.496 162.871 165.947C162.843 165.901 162.8 166.009 162.777 165.932C162.51 166.157 162.266 166.339 162.068 166.554C161.92 166.699 161.876 166.929 161.667 167.014C160.866 168.005 160.539 169.051 160.336 170.108C160.266 170.048 160.412 170.014 160.349 169.934C160.309 170.001 160.294 170.094 160.252 170.152C160.341 170.259 160.27 170.757 160.084 170.858C160.096 170.684 160.165 170.551 160.164 170.359C160.11 170.398 160.141 170.525 160.052 170.539C160.024 170.432 160.073 170.232 160.093 170.107C160.088 170.077 160.054 170.113 160.045 170.125C160.068 169.827 160.242 169.525 160.22 169.205C160.159 169.326 160.191 169.524 160.085 169.622C160.059 169.586 160.117 169.444 160.122 169.352C160.028 169.459 160.043 169.548 160.014 169.684C160.11 169.587 160.009 169.776 160.023 169.865C159.985 169.628 159.981 169.355 159.79 169.487C159.724 169.832 159.732 169.882 159.718 170.107C159.763 170.069 159.724 170.015 159.802 170.063C159.796 170.023 159.809 169.981 159.813 169.94C159.792 170.065 159.928 170.154 159.936 170.325C159.905 170.32 159.926 170.266 159.92 170.226C159.851 170.237 159.821 170.303 159.816 170.395C159.755 170.395 159.797 170.277 159.709 170.301C159.64 170.312 159.727 170.349 159.715 170.401C159.646 170.412 159.698 170.293 159.645 170.281C159.642 170.383 159.59 170.503 159.612 170.702C159.581 170.697 159.566 170.669 159.56 170.629C159.499 170.69 159.582 170.828 159.584 170.899C159.472 170.897 159.514 171.032 159.425 171.046C159.5 170.882 159.352 170.845 159.464 170.787C159.297 170.692 159.406 170.431 159.338 170.199C159.306 170.316 159.316 170.497 159.299 170.641C159.266 170.626 159.259 170.587 159.251 170.538C159.232 170.541 159.177 170.641 159.254 170.618C159.206 170.697 159.172 170.55 159.146 170.514C159.131 170.547 159.138 170.586 159.034 170.573C159.013 170.445 159.149 170.22 159.031 170.057C159.056 170.022 159.069 169.98 159.096 169.955C159.08 169.856 159.021 169.805 159.048 169.659C159.075 169.827 159.109 169.598 159.189 169.595C159.105 169.579 159.184 169.252 159.191 169.109C159.12 169.232 159.109 169.537 159.104 169.629C159.081 169.613 159.074 169.573 159.069 169.544C159.008 169.787 158.954 170.079 159.055 170.326C158.986 170.338 158.994 170.448 158.964 170.513C158.98 170.612 159.077 170.586 159.075 170.698C158.927 170.722 158.897 170.666 158.878 170.487C158.831 170.697 158.963 171.01 158.707 171.112C158.836 170.909 158.835 170.656 158.815 170.345C158.762 170.455 158.828 170.738 158.77 170.818C158.767 170.738 158.718 170.746 158.687 170.68C158.618 170.752 158.651 170.706 158.609 170.824C158.55 170.773 158.636 170.678 158.618 170.57C158.551 170.53 158.578 170.759 158.552 170.601C158.52 170.586 158.48 170.714 158.531 170.716C158.499 170.711 158.413 170.613 158.335 170.636C158.31 170.478 158.352 170.552 158.312 170.366C158.191 170.436 158.357 170.643 158.299 170.723C158.355 170.694 158.45 170.84 158.455 170.687C158.558 170.762 158.471 170.847 158.413 170.927C158.349 170.907 158.418 170.835 158.389 170.779C158.205 170.708 158.037 171.171 157.918 170.937C157.854 170.917 157.878 171.004 157.864 171.037C157.749 170.893 157.797 170.693 157.736 170.5C157.696 170.568 157.711 170.849 157.762 170.912C157.749 171.015 157.696 170.882 157.707 170.819C157.567 170.893 157.749 171.329 157.735 171.433C157.681 171.472 157.606 171.2 157.529 171.162C157.553 171.118 157.589 171.092 157.553 170.996C157.613 171.118 157.576 170.952 157.648 171.021C157.527 170.899 157.529 170.787 157.444 170.639C157.348 170.797 157.412 170.999 157.315 171.217C157.384 171.388 157.397 171.467 157.366 171.655C157.297 171.666 157.234 171.464 157.182 171.583L157.159 171.628ZM162.756 161.376C162.794 161.299 163.124 161.275 163.162 161.198C161.854 161.563 160.334 162.307 159.554 163.244C159.671 163.154 159.833 162.966 159.932 162.95C159.907 162.984 159.882 163.019 159.877 163.05C160.202 162.683 161.188 162.138 161.728 161.786C161.69 161.803 161.634 161.832 161.639 161.862C161.95 161.72 162.739 161.46 162.757 161.386L162.756 161.376ZM157.959 170.94L158.088 170.919C158.081 170.444 158.144 169.836 158.12 169.313C158.054 169.78 158.03 170.128 158.001 170.447C157.966 170.422 157.969 170.503 157.93 170.388C157.901 170.646 157.972 170.705 157.949 170.942L157.959 170.94ZM159.143 170.18C159.137 170.019 159.274 169.744 159.203 169.553C159.187 169.646 159.198 169.898 159.134 169.756C159.071 169.868 159.104 170.065 159.133 170.182L159.143 170.18ZM170.339 166.201C170.308 166.135 170.342 166.16 170.387 166.122C170.297 166.005 170.217 165.886 170.074 165.758C170.047 165.904 170.119 166.156 170.337 166.191L170.339 166.201ZM169.182 165.194C169.136 165.282 169.396 165.452 169.454 165.372C169.377 165.273 169.297 165.276 169.182 165.194ZM164.595 164.521C164.595 164.521 164.621 164.497 164.618 164.538C164.674 164.448 164.805 164.507 164.904 164.431C164.85 164.409 164.934 164.426 164.945 164.373C164.98 164.398 164.995 164.365 165.064 164.354C165.245 164.284 164.616 164.406 164.583 164.452C164.582 164.442 164.56 164.436 164.564 164.456C164.633 164.444 164.526 164.533 164.603 164.51L164.595 164.521ZM163.409 164.957C163.195 165.073 163.766 164.849 163.478 164.946C163.773 164.827 164.237 164.63 164.542 164.51C164.139 164.646 163.77 164.747 163.409 164.957ZM163.908 164.907C164.019 164.909 164.02 164.848 164.136 164.88C165.073 164.413 165.908 164.5 166.809 164.617C165.977 164.236 164.777 164.522 163.908 164.907ZM165.207 164.614C165.14 164.635 165.014 164.605 164.992 164.659C165.058 164.628 165.186 164.668 165.207 164.614ZM162.773 165.902C162.694 165.854 162.595 165.931 162.557 166.008C162.621 165.967 162.695 165.985 162.773 165.902ZM165.264 160.725C165.481 160.629 165.722 160.681 165.936 160.686C166.092 160.712 165.606 160.71 165.862 160.729C165.755 160.756 165.443 160.706 165.264 160.725ZM156.483 170.461C156.435 170.54 156.432 170.52 156.35 170.574C156.378 170.498 156.372 170.398 156.388 170.314C156.418 170.37 156.44 170.448 156.503 170.458C156.499 170.499 156.486 170.481 156.483 170.461Z" fill="#F8F8F8"/>
</svg>
