<svg width="229" height="228" viewBox="0 0 229 228" fill="none" xmlns="http://www.w3.org/2000/svg">
<mask id="mask0_2972_18774" style="mask-type:alpha" maskUnits="userSpaceOnUse" x="0" y="0" width="229" height="228">
<path d="M0.5 228V114C0.5 51.04 51.54 0 114.5 0C177.46 0 228.5 51.04 228.5 114V228H0.5Z" fill="#124936"/>
</mask>
<g mask="url(#mask0_2972_18774)">
<path d="M0.5 228V114C0.5 51.04 51.54 0 114.5 0C177.46 0 228.5 51.04 228.5 114V228H0.5Z" fill="#124936"/>
<path d="M151.886 116.788C152.676 122.887 151.335 129.874 148.024 135.618C148.024 135.618 149.666 134.65 151.841 134.65C154.292 134.65 154.966 135.094 155.179 135.112C157.727 129.323 158.819 122.692 157.958 116.007C156.049 101.19 145.449 91.4418 129.611 89.9326L129.025 96.0317C147.465 97.7984 151.149 111.133 151.877 116.788H151.886Z" fill="#9F7FF7"/>
<path d="M151.611 91.6164V73.3725C151.611 70.9755 150.351 68.7561 148.291 67.5309L123.051 52.5452V-2.54663H104.834V52.4919L77.5703 68.6495C76.7091 69.1467 76.2031 70.0788 76.2031 71.082V122.005C76.2031 123.576 77.4993 124.864 79.0795 124.864H148.806C150.386 124.864 151.682 123.576 151.682 122.005L151.611 91.6164ZM122.927 102.048H104.958V90.2936C104.958 85.4729 108.909 81.5135 113.881 81.5135C118.852 81.5135 122.927 85.4729 122.927 90.2936V102.048Z" fill="#F8F8F8"/>
<path d="M114.361 194.207C114.201 194.127 113.761 193.697 113.391 193.347C113.881 193.897 114.471 194.587 114.891 195.027C114.601 194.597 114.761 194.767 114.341 194.217C114.461 194.347 114.601 194.467 114.361 194.197V194.207Z" fill="#9F7FF7"/>
<path d="M116.041 195.717C116.991 196.587 117.121 196.847 117.931 197.527C118.101 197.537 116.501 196.057 116.041 195.717Z" fill="#9F7FF7"/>
<path d="M98.7209 167.497C98.4509 166.597 98.2809 166.197 97.8809 164.777C97.9009 165.027 98.5809 167.287 98.7209 167.497Z" fill="#9F7FF7"/>
<path d="M136.121 137.477C136.581 138.387 137.241 140.087 137.561 140.797C137.341 140.077 136.501 138.067 136.121 137.477Z" fill="#9F7FF7"/>
<path d="M147.151 137.837C147.691 137.517 148.341 137.147 147.711 137.487C146.041 138.407 144.311 139.567 142.861 140.837C144.021 139.887 146.331 138.357 147.151 137.867C146.181 138.447 146.611 138.167 147.151 137.847V137.837Z" fill="#9F7FF7"/>
<path d="M95.8508 150.437C95.9108 149.517 95.9508 148.657 96.0408 148.157C96.0008 148.557 96.0108 148.907 96.0108 149.157C96.0108 148.467 96.3008 146.977 96.2508 146.827C96.1908 147.217 96.1208 147.767 96.0808 147.817C96.1408 147.417 96.2208 146.817 96.3008 146.277C96.4108 145.747 96.5208 145.277 96.5208 145.147C96.3908 145.687 96.2308 146.327 96.1508 147.017C96.0508 147.707 95.9308 148.447 95.9008 149.177C95.7708 150.647 95.8108 152.077 95.8708 153.097C95.8408 152.337 95.8508 151.347 95.8508 150.427V150.437Z" fill="#9F7FF7"/>
<path d="M105.682 130.767C107.672 129.267 109.392 128.477 111.082 127.687C109.242 128.427 106.702 129.817 105.682 130.767Z" fill="#9F7FF7"/>
<path d="M99.9809 137.177C99.8709 137.337 99.7509 137.527 99.6309 137.727C99.7409 137.547 99.8609 137.357 99.9809 137.177Z" fill="#9F7FF7"/>
<path d="M134.642 135.337C134.262 134.777 133.942 134.277 133.762 134.107C134.422 134.937 135.352 136.597 135.592 136.977C135.362 136.527 134.982 135.897 134.642 135.327V135.337Z" fill="#9F7FF7"/>
<path d="M170.22 151.669C170.042 151.154 169.927 150.604 169.687 150.062C169.456 149.52 169.226 148.961 168.986 148.384C168.418 147.265 167.796 146.103 166.979 145.002C165.39 142.782 163.18 140.767 160.641 139.453C160.49 139.347 160.117 139.08 159.575 138.832C159.025 138.601 158.333 138.317 157.596 138.059C156.841 137.873 156.051 137.677 155.332 137.544C154.604 137.473 153.956 137.429 153.503 137.402C153.974 137.447 154.639 137.518 155.243 137.58C155.838 137.677 156.371 137.828 156.575 137.891C155.083 137.5 152.677 137.358 150.431 137.509C150.298 137.606 148.922 137.775 148.265 138.006C145.211 138.796 143.018 140.137 141.083 141.486C140.106 142.17 139.21 142.889 138.304 143.643C137.869 144.025 137.408 144.407 136.964 144.815C136.573 145.17 136.165 145.543 135.756 145.916C135.783 145.952 135.543 146.174 135.348 146.342C135.312 146.191 135.277 146.04 135.25 145.934C135.286 146.058 135.321 146.191 135.366 146.28C135.472 146.156 135.552 146.04 135.552 145.916C135.49 145.978 135.446 146.023 135.428 146.04C135.419 145.987 135.401 145.943 135.392 145.881C135.375 145.81 135.392 145.827 135.321 145.596C135.303 145.543 135.295 145.57 135.286 145.588C135.286 145.588 135.277 145.605 135.268 145.588C135.259 145.57 135.268 145.605 135.241 145.534C135.224 145.472 135.188 145.383 135.153 145.268C134.425 143.057 133.492 140.509 132.054 138.139C131.326 136.958 130.474 135.849 129.524 134.881C128.583 133.887 127.5 133.15 126.559 132.546C124.588 131.383 122.2 130.451 119.572 130.149C116.944 129.856 114.139 130.167 111.502 131.108C108.857 132.04 106.397 133.594 104.356 135.556C103.095 136.763 102.003 138.139 101.071 139.595C101.248 139.338 101.399 139.151 101.488 139.054C101.328 139.284 101.168 139.515 101.017 139.737C100.884 139.968 100.76 140.19 100.636 140.412C100.387 140.847 100.156 141.255 99.9343 141.637C99.5348 142.427 99.233 143.164 98.9045 143.874C98.3541 145.357 97.9102 146.83 97.7682 148.766C97.5107 150.648 97.4574 152.521 97.5817 154.35C97.6705 156.188 97.9457 157.981 98.2742 159.748C98.9755 163.272 100.023 166.664 101.319 169.931C103.938 176.438 107.347 182.51 111.68 187.97C111.866 188.086 111.227 187.34 111.422 187.455C111.671 187.766 111.742 187.802 111.99 188.077C112.55 188.743 113.002 189.311 113.446 189.817C114.023 190.278 114.015 190.234 115.151 191.344C114.947 190.953 115.044 191.024 115.124 190.962C114.503 190.385 114.139 189.968 113.828 189.586C113.517 189.213 113.26 188.876 112.923 188.387C113.34 188.894 113.491 188.982 114.059 189.63C113.944 189.639 115.24 191.175 116.003 191.681C115.231 190.998 115.781 191.344 115.684 191.193C115.879 191.397 115.941 191.406 116.119 191.557C117.45 192.826 118.862 193.883 119.98 194.602C120.7 194.948 121.463 195.348 122.218 195.614C121.268 195.232 123.176 195.8 123.176 195.721C122.404 195.454 121.827 195.259 121.312 194.993C120.762 194.771 120.273 194.469 119.581 194.105C118.116 193.031 116.802 191.894 115.923 190.935C116.429 191.353 116.855 191.699 117.273 192.045C117.708 192.374 118.134 192.684 118.613 192.986C118.089 192.675 119.217 193.483 118.329 192.889C119.066 193.412 119.208 193.528 119.474 193.75C119.696 193.865 120.318 194.176 120.868 194.46C121.463 194.717 121.987 194.913 121.871 194.824C121.667 194.717 121.259 194.558 120.806 194.318C120.362 194.06 119.812 193.794 119.341 193.448C118.347 192.818 117.53 192.072 117.361 191.85C117.788 192.232 118.738 192.924 118.045 192.338C117.53 192.054 115.737 190.349 115.373 189.914C116.571 191.069 117.805 192.205 118.995 192.951C118.782 192.791 118.178 192.32 118.365 192.391C120.158 193.661 117.14 191.024 117.832 191.299C118.214 191.601 118.667 192.063 118.888 192.152C118.382 191.663 117.859 191.113 117.273 190.705C118.356 191.69 117.211 190.793 117.37 191.006C116.855 190.483 115.364 189.258 115.062 188.698C116.225 189.879 115.737 189.4 116.793 190.421C116.696 190.234 117.255 190.625 117.459 190.767C117.237 190.598 116.651 190.03 116.758 190.065C117.601 190.829 116.847 190.145 116.625 189.888C119.039 192.223 121.41 193.821 123.532 194.344C124.366 194.549 125.369 194.602 126.479 194.54C126.159 194.744 125.76 194.957 126.79 195.072C125.556 195.286 125.121 195.401 124.774 195.561C124.428 195.729 124.18 195.871 123.159 195.854C124.357 196.235 125.715 196.324 125.973 196.422C124.473 196.52 124.49 196.608 125.289 196.768C126.079 196.928 127.527 196.919 128.752 196.795C128.53 196.839 128.157 196.875 128.157 196.901C129.018 196.795 129.373 196.653 130.208 196.502C133.972 195.712 137.834 194.282 141.669 192.436C145.513 190.589 149.33 188.325 152.908 185.733C155.793 183.629 159.238 181.081 162.869 177.13C164.787 175.026 166.74 172.505 168.302 169.691C168.409 169.451 169.199 168.04 169.581 166.992C169.785 166.477 169.936 166.095 169.936 166.06C169.918 166.104 169.803 166.362 169.421 167.249L169.847 166.228C169.971 165.882 170.078 165.518 170.193 165.163C170.442 164.471 170.566 163.725 170.717 162.997C170.859 162.269 170.877 161.612 170.966 160.928C170.992 160.591 171.046 160.254 171.054 159.925C171.054 159.588 171.054 159.259 171.063 158.922C171.125 157.599 170.975 156.321 170.895 155.105C170.69 153.897 170.575 152.725 170.282 151.651L170.22 151.669ZM113.349 130.584C116.11 129.901 119.226 129.883 122.164 130.735C123.629 131.152 125.059 131.765 126.355 132.564C127.651 133.318 128.929 134.313 129.959 135.467C132.054 137.757 133.297 140.43 134.229 142.889C134.034 142.454 133.12 140.137 132.782 139.719C132.667 139.604 131.886 138.015 130.545 136.319C129.861 135.485 129.054 134.624 128.184 133.949C127.766 133.585 127.34 133.31 126.949 133.07C126.559 132.821 126.204 132.599 125.911 132.413C125.92 132.413 125.955 132.431 126 132.448C125.937 132.404 125.875 132.369 125.804 132.333C125.485 132.155 125.13 132.013 124.774 131.845C124.419 131.685 124.046 131.516 123.674 131.348C123.283 131.223 122.875 131.099 122.466 130.966C120.833 130.424 119.013 130.238 117.246 130.22C113.686 130.273 110.517 131.543 108.812 132.502C108.99 132.369 109.274 132.191 109.602 132.049C109.247 132.147 108.661 132.502 108.022 132.883C107.365 133.239 106.726 133.736 106.238 134.1C108.155 132.59 110.579 131.277 113.349 130.602V130.584ZM118.24 192.072L118.152 192.178C116.562 190.802 116.092 190.456 114.565 188.778C115.284 189.506 114.814 189 114.991 189.133C113.118 187.038 111.165 184.614 108.945 181.09C111.449 184.898 114.858 189.337 118.249 192.072H118.24Z" fill="#9F7FF7"/>
<path d="M178.781 155.407C178.831 156.157 178.981 157.217 178.931 158.137C178.921 159.057 178.911 159.847 178.961 160.087C178.971 159.327 178.991 158.277 179.001 157.357C178.931 156.427 178.861 155.637 178.791 155.407H178.781Z" fill="#9F7FF7"/>
<path d="M99.3406 138.247C99.4306 138.067 99.5306 137.897 99.6306 137.727C99.3706 138.157 99.1206 138.597 98.8906 139.037C99.0406 138.777 99.1906 138.507 99.3406 138.237V138.247Z" fill="#9F7FF7"/>
<path d="M118.432 194.837C118.432 194.837 118.502 194.887 118.522 194.887C118.512 194.887 118.482 194.867 118.432 194.837Z" fill="#9F7FF7"/>
<path d="M98.8907 139.037C98.6107 139.537 98.3607 140.007 98.2207 140.337C98.4207 139.897 98.6607 139.467 98.8907 139.037Z" fill="#9F7FF7"/>
<path d="M128.08 129.107C128.35 129.277 128.62 129.437 128.88 129.587C128.6 129.417 128.25 129.197 128.08 129.107Z" fill="#9F7FF7"/>
<path d="M78.4402 197.247C78.3248 197.265 78.2005 197.283 78.0762 197.292C78.1916 197.292 78.3159 197.265 78.4402 197.247Z" fill="#124936"/>
<path d="M95.6641 195.614C94.865 195.649 93.6932 195.685 93.2227 196.013C94.2436 195.738 95.38 195.836 95.6641 195.614Z" fill="#124936"/>
<path d="M78.0749 197.301C77.5245 197.336 77.0629 197.248 76.5391 197.505C77.054 197.443 77.5689 197.372 78.0749 197.301Z" fill="#124936"/>
<path d="M129.514 158.886C129.833 159.845 130.029 162.331 130.393 162.819C130.1 161.443 129.878 159.375 129.514 158.886Z" fill="#124936"/>
<path d="M131.885 173.206C132.009 173.792 132.133 174.298 132.222 174.423C132.142 173.934 132.045 173.375 131.947 172.789C131.894 172.416 131.831 172.026 131.778 171.653C131.663 170.907 131.547 170.223 131.396 169.877C131.414 170.259 131.512 171.191 131.654 172.052C131.725 172.487 131.805 172.896 131.885 173.224V173.206Z" fill="#124936"/>
<path d="M121.648 136.621C121.905 136.807 122.171 137.047 122.429 137.313C122.047 136.852 121.603 136.506 121.648 136.621Z" fill="#124936"/>
<path d="M131.973 181.631C131.502 179.075 130.996 176.518 130.579 174.005C130.233 171.813 129.878 169.584 129.496 167.232C129.132 164.968 128.741 162.589 128.28 160.023C128.635 160.458 128.156 158.984 128.36 159.073C127.889 156.765 127.463 154.483 127.046 152.202L126.442 148.784C126.158 147.132 125.883 145.472 125.599 143.803C125.315 141.699 124.72 139.675 123.779 138.201C122.864 136.656 121.329 135.218 119.553 134.393C118.665 133.975 117.751 133.7 116.836 133.576C115.931 133.416 114.892 133.398 113.827 133.46C112.744 133.576 111.634 133.798 110.524 133.984C109.557 134.153 108.58 134.331 107.586 134.499C108.092 134.428 108.624 134.348 109.193 134.259C109.903 134.144 110.657 134.029 111.439 133.904C112.22 133.771 113.037 133.638 113.871 133.558C114.688 133.514 115.514 133.523 116.295 133.62C117.067 133.709 117.822 133.851 118.612 134.135C119.393 134.41 120.174 134.81 120.902 135.307C122.367 136.319 123.512 137.722 124.196 139.213C124.391 139.577 124.542 140.021 124.711 140.421C124.844 140.865 125.004 141.291 125.11 141.752C125.332 142.676 125.457 143.643 125.616 144.576C125.767 145.499 125.918 146.413 126.06 147.31C126.14 147.816 126.211 148.304 126.282 148.784C126.566 150.701 126.771 152.397 126.842 153.666C126.602 152.574 126.38 151.349 126.167 150.08C125.927 148.544 125.67 146.973 125.43 145.463C125.244 144.371 125.102 143.288 124.888 142.285C124.702 141.264 124.356 140.421 124.027 139.666C123.575 138.681 123.006 137.899 122.42 137.296C122.456 137.331 122.492 137.376 122.518 137.42C122.935 137.926 123.228 138.494 123.131 138.45C121.906 136.523 120.023 135.201 118.079 134.597C117.582 134.446 117.103 134.331 116.597 134.268C116.339 134.233 116.082 134.206 115.815 134.171C115.54 134.153 115.256 134.144 114.963 134.126C113.791 134.073 112.451 134.286 110.977 134.499C108.154 135.289 105.819 135.414 103.404 135.822C92.4224 137.686 81.4583 139.56 71.0979 141.317C68.5056 141.761 65.9577 142.205 63.4541 142.631C61.9715 142.889 60.5067 143.137 59.0507 143.386C58.0209 143.572 56.9733 143.723 55.9701 143.927C54.9492 144.114 54.0436 144.451 53.2091 144.815C51.6111 145.472 50.1196 146.688 49.152 148.278C48.6726 149.059 48.3174 149.911 48.1221 150.746C47.9357 151.58 47.8558 152.388 47.8381 153.302C47.8203 153.746 47.8647 154.217 47.8913 154.678C47.9535 155.149 48.0067 155.619 48.0955 156.09C48.2553 157.031 48.4151 157.972 48.5749 158.895C48.7969 160.147 49.0099 161.381 49.223 162.597C49.3295 163.441 49.9243 166.69 49.6047 164.417C49.0721 161.097 48.6992 158.753 48.3352 156.516C48.0511 154.989 47.9623 153.489 48.1399 152.104C48.2731 150.754 48.7702 149.201 49.9421 147.772C49.0366 148.926 48.4595 150.337 48.2997 151.678C48.1221 153.009 48.1577 154.572 48.4684 156.161C48.9034 158.576 49.3384 161.017 49.7823 163.494C50.5014 167.471 51.2205 171.582 51.8242 175.959C51.984 176.749 52.2059 176.846 52.3569 177.752C52.9517 180.85 53.2979 183.86 53.6796 186.763C53.7773 187.491 53.875 188.21 53.9726 188.92C54.1502 190.065 54.3366 191.211 54.5142 192.338C54.887 194.611 55.3043 196.848 55.7659 198.934C55.9968 200.488 56.2453 202.192 56.5117 204.039C57.577 206.258 58.8199 208.753 60.1249 211.212L60.6132 212.136C60.6931 212.269 60.773 212.482 60.8618 212.553C60.9594 212.642 61.1104 212.739 61.2968 212.819C61.6697 212.988 62.1668 213.068 62.5042 213.041C62.7883 213.121 63.0724 212.633 63.3831 212.349C64.5816 211.07 65.7623 209.792 66.8721 208.567C69.0915 206.116 71.0358 203.844 72.3319 202.033C73.637 200.213 74.285 198.845 74.0808 198.135C74.1963 197.967 74.285 197.816 74.3738 197.665C75.0396 197.54 75.5812 197.407 75.8742 197.292C76.682 197.327 77.9959 197.141 78.9814 197.097C78.7861 197.176 78.6085 197.221 78.4398 197.247C85.4267 196.351 92.4845 195.339 99.8709 194.22C103.892 193.599 108.021 192.96 112.282 192.311C118.63 191.299 125.181 190.261 132 189.178C132.372 189.142 132.745 189.098 133.127 189.062C132.887 186.754 132.452 184.188 131.982 181.64L131.973 181.631ZM50.1907 162.118C50.4925 164.08 50.7766 164.772 50.892 166.388C50.5369 166.433 49.8533 162.207 50.1907 162.118ZM101.167 137.376C102.525 136.958 104.114 137.003 105.109 136.568C105.047 136.719 105.419 136.674 105.428 136.594C106.511 136.426 104.825 136.958 105.775 136.772C105.73 136.87 105.473 136.861 105.473 136.825C104.887 137.012 96.6127 138.414 99.063 137.882C99.9507 137.713 100.182 137.589 100.59 137.633C100.732 137.411 101.842 137.376 101.176 137.376H101.167ZM73.3529 194.433C73.3529 194.433 73.3262 194.362 73.3173 194.318C73.7168 194.265 74.0897 194.229 74.436 194.202C74.0808 194.282 73.7168 194.362 73.3529 194.433ZM74.6402 193.545C75.9008 193.252 78.1913 192.711 79.5052 192.667C77.9338 193.173 80.9256 192.56 81.9732 192.418C79.8159 193.057 76.4423 193.279 74.6313 193.545H74.6402ZM81.3518 192.445C81.0943 192.196 78.5375 192.587 80.3575 192.134C78.5819 192.338 78.0936 192.649 77.0371 192.915C76.7175 192.862 76.1938 192.897 75.7765 192.889C75.1995 193.128 74.4981 193.279 73.7701 193.386L73.9299 193.164C76.3802 192.587 79.1323 192.223 81.5737 191.939C81.2186 192.036 80.899 192.134 80.6859 192.24C81.8312 192.054 85.258 191.424 86.8027 191.317C85.2402 191.708 81.3606 192.169 81.3518 192.453V192.445ZM121.595 138.006C122.252 138.778 122.642 139.595 122.989 140.421C123.193 140.971 123.388 141.522 123.53 142.081C123.344 141.308 123.255 141.166 123.326 141.326C123.397 141.548 123.654 142.374 123.805 143.306C124.098 145.179 124.391 147.186 123.912 144.531C123.726 143.43 123.512 142.338 123.175 141.371C122.829 140.403 122.474 139.577 121.95 138.769C120.893 137.163 119.074 135.92 117.227 135.52C116.321 135.316 115.398 135.28 114.377 135.28C113.365 135.289 112.282 135.493 111.208 135.671C110.187 135.849 109.157 136.017 108.118 136.204C107.435 136.328 106.742 136.452 106.032 136.585C106.485 136.488 107 136.381 107.55 136.266C107.834 136.213 108.136 136.15 108.438 136.088C108.917 136 109.406 135.911 109.912 135.813C110.924 135.636 111.989 135.414 113.081 135.263C114.164 135.121 115.256 135.103 116.233 135.209C118.186 135.343 120.316 136.443 121.577 138.006H121.595ZM100.412 136.639C100.022 136.878 98.2906 137.012 97.3762 137.216C97.7668 136.967 99.498 136.843 100.412 136.639ZM93.5499 137.997C96.5328 137.535 99.5512 137.056 102.694 136.506C104.265 136.221 105.872 135.929 107.524 135.627C108.74 135.405 109.974 135.174 111.217 134.952C112.646 134.668 114.129 134.419 115.496 134.481C116.481 134.668 117.014 134.748 117.609 134.899C118.195 135.058 118.843 135.236 119.793 135.884C118.683 135.227 117.44 134.837 116.242 134.748C115.025 134.615 113.631 134.668 112.211 134.934C110.844 135.174 109.468 135.414 108.092 135.662C107.231 135.822 106.369 135.982 105.499 136.142C102.037 136.763 98.5303 137.393 95.0768 138.024C88.1522 139.222 81.3873 140.27 75.4036 140.829C81.7868 139.755 87.5929 138.92 93.5499 138.006V137.997ZM53.3423 182.288C52.5166 179.954 52.4723 176.793 52.7475 175.799C53.1914 178.205 53.3512 179.971 53.5997 181.924C53.4044 181.924 53.2624 181.383 53.3423 182.28V182.288ZM76.0606 196.537C76.3979 196.502 76.8152 196.537 76.3891 196.644C75.9186 196.697 75.3681 196.759 74.7999 196.821C74.9065 196.564 74.9686 196.351 74.9953 196.182C76.1139 195.854 76.9217 195.525 78.0581 195.339L76.5311 195.587C77.0016 195.214 76.4423 195.445 75.8742 195.383C78.7949 194.939 79.4164 194.744 83.8198 194.158C85.9327 194.433 82.4171 195.09 79.3898 195.836C80.5794 195.57 83.2783 195.436 81.8223 195.357C83.731 195.099 84.7963 194.877 86.4387 194.833C85.1248 195.126 83.225 195.25 82.7722 195.436C84.2193 195.561 86.8471 194.877 88.6138 194.717C84.4057 195.792 79.9313 195.898 76.0606 196.546V196.537ZM128.147 159.721C128.457 161.257 128.404 161.967 128.546 163.103C128.271 161.967 127.942 160.263 128.147 159.721Z" fill="#124936"/>
<path d="M123.529 142.081C123.591 142.329 123.662 142.64 123.742 143.031C123.689 142.711 123.618 142.392 123.529 142.081Z" fill="#124936"/>
<path d="M110.792 134.313C112.017 134.117 113.127 133.931 113.686 133.789C112.701 133.904 111.352 134.135 110.126 134.322C109.514 134.419 108.919 134.517 108.422 134.606C108.129 134.659 108.04 134.686 107.925 134.712C107.809 134.748 107.721 134.774 107.641 134.81C107.783 134.783 107.934 134.757 108.093 134.721C108.36 134.677 108.644 134.632 108.928 134.588C109.54 134.49 110.18 134.393 110.792 134.295V134.313Z" fill="#124936"/>
<path d="M73.7897 197.157C73.5897 197.187 73.3797 197.217 73.1797 197.257C73.3697 197.237 73.5697 197.197 73.7897 197.157Z" fill="#9F7FF7"/>
<path d="M125.471 159.977C125.711 161.077 126.091 163.847 126.281 164.437C126.001 162.877 125.661 160.567 125.471 159.977Z" fill="#9F7FF7"/>
<path d="M127.529 172.357C127.639 173.207 128.149 176.507 128.289 176.817C128.049 175.437 127.719 173.157 127.529 172.357Z" fill="#9F7FF7"/>
<path d="M92.9609 194.417C92.0709 194.527 90.7709 194.687 90.2109 194.867C91.3709 194.637 92.6209 194.527 92.9609 194.417Z" fill="#9F7FF7"/>
<path d="M108.25 136.917C109.52 136.687 111.68 136.387 112.37 136.217C111.1 136.447 108.94 136.747 108.25 136.917Z" fill="#9F7FF7"/>
<path d="M73.1801 197.247C72.6301 197.317 72.1501 197.357 71.5801 197.497C72.1101 197.417 72.6501 197.327 73.1801 197.247Z" fill="#9F7FF7"/>
<path d="M126.816 181.259C126.674 180.424 126.532 179.581 126.39 178.737C126.15 177.352 125.901 175.95 125.662 174.565C124.969 170.348 124.25 165.962 123.407 160.831C123.567 161.292 123.247 159.792 123.327 159.907C122.537 155.255 121.773 150.754 120.992 146.156C120.894 145.579 120.797 145.002 120.708 144.425L120.566 143.555L120.495 143.12L120.459 142.898L120.388 142.569C119.998 140.687 118.533 139.08 116.669 138.503C116.207 138.352 115.719 138.272 115.23 138.246C114.991 138.246 114.742 138.246 114.502 138.263L114.138 138.308L113.899 138.343C113.295 138.441 112.691 138.547 112.088 138.645C110.871 138.849 109.637 139.062 108.377 139.275C109.788 139.045 111.59 138.752 113.579 138.432C113.943 138.361 114.902 138.192 115.727 138.317C116.562 138.432 117.379 138.743 118.098 139.231C118.817 139.71 119.412 140.385 119.829 141.149C120.042 141.53 120.202 141.948 120.317 142.374L120.388 142.693L120.442 142.96L120.513 143.368C121.232 147.683 121.924 151.926 122.253 154.439C121.853 152.246 121.418 149.52 121.019 147.026C120.814 145.783 120.61 144.593 120.442 143.563C120.388 143.288 120.344 143.031 120.3 142.782C120.229 142.409 120.113 142.063 119.989 141.752C119.891 141.522 119.785 141.317 119.66 141.122C119.678 141.158 119.705 141.202 119.722 141.237C120.042 141.823 120.184 142.471 120.149 142.365C119.483 140.048 117.53 138.654 115.452 138.476C115.195 138.45 114.928 138.459 114.662 138.468C114.405 138.494 114.094 138.53 113.97 138.556C113.623 138.61 113.277 138.672 112.913 138.725C112.185 138.84 111.413 138.956 110.561 139.089C109.38 139.382 106.459 139.781 104.16 140.163C93.169 141.992 82.2049 143.812 71.8356 145.534C66.651 146.395 61.6261 147.239 56.8143 148.038L56.3616 148.109C56.2994 148.118 56.2018 148.135 56.0775 148.162L55.7401 148.242C55.2962 148.375 54.8612 148.535 54.4706 148.775C53.6716 149.236 53.0235 149.911 52.5796 150.692C52.1357 151.474 51.896 152.37 51.9049 153.267C51.896 153.711 51.9848 154.199 52.0203 154.421L52.1624 155.282C52.5441 157.564 52.917 159.783 53.281 161.923C53.4142 162.766 53.9646 166.015 53.6006 163.752C53.1567 161.008 52.8371 159.064 52.5352 157.217C52.3843 156.294 52.2423 155.389 52.0825 154.421L52.0203 154.03C52.0026 153.844 51.9671 153.657 51.9671 153.471C51.9582 153.089 51.9759 152.699 52.0647 152.308C52.1535 151.846 52.3222 151.385 52.553 150.941C52.0647 151.9 51.8783 153.027 52.0647 154.092C52.2245 155.051 52.3843 156.01 52.553 156.978C52.8815 158.913 53.21 160.866 53.5562 162.864C54.2309 166.85 54.9234 170.96 55.607 175.328C55.749 176.118 55.8289 176.234 55.9798 177.148C57.0452 183.363 57.7731 189.115 58.8118 194.549C59.3179 197.789 59.966 201.979 60.6318 206.258C60.7916 207.12 61.1289 207.688 61.413 208.114C61.5728 208.336 61.6705 208.513 61.8836 208.691C62.1055 208.877 62.4429 209.037 62.7891 209.09C63.1353 209.153 63.4816 209.117 63.7124 209.028C63.9255 208.948 64.1385 208.815 64.3605 208.7C64.8221 208.425 65.3814 208.043 65.8697 207.315C66.722 206.108 67.5565 204.945 68.3555 203.817C68.897 203.036 69.4208 202.281 69.9091 201.58C71.8267 198.766 73.1051 196.697 73.0607 196.2C74.7919 193.492 73.549 194.637 73.3004 194.469C73.2294 194.424 73.2472 194.256 73.2738 194.078L73.7532 193.412C74.4013 193.297 74.9251 193.199 75.218 193.137C76.0082 193.057 77.3221 192.853 78.2897 192.729C78.1122 192.773 77.9613 192.791 77.8103 192.817C84.7439 191.725 91.7662 190.625 99.1171 189.471C107.666 188.086 116.633 186.639 126.345 185.067C126.7 185.014 127.056 184.961 127.411 184.916C127.224 183.7 127.029 182.475 126.834 181.232L126.816 181.259ZM52.7927 150.506C52.7039 150.648 52.6151 150.799 52.5352 150.95C52.6151 150.799 52.695 150.657 52.7927 150.506ZM123.833 163.885C123.62 162.739 123.327 161.026 123.327 160.52C123.593 162.065 123.664 162.757 123.833 163.885ZM101.736 140.9C103.112 140.616 104.675 140.456 105.696 140.199C105.616 140.252 105.988 140.199 106.006 140.172C107.089 139.995 105.367 140.359 106.326 140.19C106.273 140.225 106.024 140.252 106.024 140.243C105.429 140.367 97.1462 141.743 99.6142 141.3C100.511 141.149 100.742 141.078 101.141 141.051C101.31 140.962 102.402 140.829 101.745 140.9H101.736ZM74.7209 192.045C76.0348 191.805 78.0678 191.433 79.2663 191.282C77.6594 191.619 80.6779 191.086 81.7166 190.926C79.6481 191.344 76.5675 191.77 74.712 192.054L74.7209 192.045ZM81.104 190.989C80.8732 190.935 78.3253 191.353 80.163 190.998C78.3963 191.264 77.8902 191.415 76.816 191.619C76.5142 191.637 75.9904 191.708 75.582 191.752C75.3423 191.814 75.0671 191.868 74.7919 191.921L74.8452 191.85C77.0113 191.468 79.3107 191.113 81.3792 190.802C81.0241 190.873 80.6956 190.944 80.4737 190.998C81.6189 190.811 85.0546 190.225 86.5816 190.021C85.7915 190.172 84.4332 190.394 83.2613 190.58C82.0895 190.776 81.1218 190.944 81.0951 190.989H81.104ZM119.27 141.113C119.536 141.539 119.722 142.01 119.847 142.471C119.971 143.004 119.989 143.235 120.051 143.563C120.149 144.185 120.246 144.771 120.335 145.321C119.687 141.255 121.036 149.565 120.459 146.236C120.344 145.543 120.229 144.868 120.113 144.185L119.944 143.173L119.9 142.924L119.82 142.56C119.767 142.321 119.687 142.09 119.598 141.859C118.87 140.012 116.988 138.752 115.017 138.752C114.769 138.752 114.529 138.769 114.289 138.796C114.05 138.823 113.934 138.849 113.757 138.876L112.762 139.045C112.096 139.151 111.431 139.267 110.756 139.382C109.406 139.613 108.039 139.844 106.628 140.074C108.465 139.755 111.191 139.284 113.996 138.796C114.138 138.769 114.44 138.734 114.689 138.707C114.946 138.707 115.213 138.689 115.479 138.725C116.003 138.778 116.518 138.903 116.997 139.116C117.956 139.533 118.764 140.243 119.287 141.104L119.27 141.113ZM101.079 140.731C100.662 140.856 98.9573 141.087 98.034 141.255C98.4512 141.131 100.156 140.9 101.079 140.731ZM113.286 138.725L114.129 138.618C114.485 138.574 114.786 138.547 115.106 138.556C115.727 138.583 116.42 138.645 117.414 139.187C116.855 138.885 116.242 138.689 115.603 138.618C115.284 138.583 114.964 138.574 114.644 138.592L114.165 138.645L113.836 138.698C112.993 138.84 112.15 138.982 111.289 139.133C109.584 139.426 107.853 139.719 106.122 140.012C102.65 140.598 99.1437 141.193 95.6814 141.779C88.7478 142.933 81.9918 144.025 76.0526 144.877C88.8277 142.764 99.2236 141.22 113.286 138.734V138.725ZM53.4941 161.55C53.8137 163.512 53.9823 164.222 54.1954 165.82C54.0889 165.82 53.3964 161.594 53.4941 161.55ZM56.7611 181.702C56.2373 179.314 55.8733 176.216 55.8467 175.266C56.255 177.681 56.5036 179.43 56.8055 181.374C56.7433 181.347 56.6368 180.806 56.7611 181.694V181.702ZM75.4666 192.88C75.7951 192.826 76.2035 192.8 75.7773 192.88C75.2358 192.959 74.5877 193.057 73.913 193.155L74.0462 192.968C75.4045 192.702 76.2834 192.48 77.5618 192.276L76.0348 192.524C76.5408 192.356 75.9638 192.489 75.4133 192.524C78.3341 192.054 78.9645 191.956 83.3501 191.246C85.392 191.095 81.8764 191.699 78.8135 192.276C80.012 192.063 82.6754 191.717 81.2549 191.85C83.1637 191.548 84.229 191.362 85.8448 191.166C84.522 191.406 82.6399 191.654 82.1782 191.77C83.5898 191.646 86.2443 191.131 87.9932 190.882C83.7407 191.699 79.3373 192.232 75.4666 192.871V192.88Z" fill="#9F7FF7"/>
<path d="M120.211 137.917C120.461 138.177 120.71 138.507 120.94 138.887C120.6 138.287 120.151 137.817 120.211 137.917Z" fill="#9F7FF7"/>
<path d="M109.939 150.905C95.592 144.025 88.9958 131.223 92.3072 116.664C95.7696 101.42 108.935 89.9326 122.927 89.9326V96.0583C110.631 96.0583 100.741 107.227 98.2909 118.022C97.0302 123.579 95.8939 137.376 112.593 145.383L109.947 150.905H109.939Z" fill="#9F7FF7"/>
</g>
</svg>
