<svg width="24" height="24" viewBox="0 0 24 24" fill="none" xmlns="http://www.w3.org/2000/svg">
<rect width="24" height="24" rx="12" fill="#1D9BF0" fill-opacity="0.1"/>
<path d="M16.7715 9.55189C16.7788 9.65773 16.7788 9.76348 16.7788 9.87027C16.7788 13.1234 14.3022 16.8753 9.77381 16.8753V16.8734C8.43601 16.8753 7.12593 16.4921 6 15.7696C6.19453 15.793 6.39 15.8047 6.58594 15.8052C7.69473 15.8061 8.77163 15.4342 9.64359 14.7493C9.12984 14.7396 8.63196 14.5696 8.21957 14.263C7.80718 13.9565 7.50089 13.5287 7.34353 13.0396C7.71263 13.1108 8.09288 13.0961 8.45512 12.9971C7.3065 12.7651 6.48019 11.756 6.48019 10.584V10.5528C6.82259 10.7435 7.20582 10.8492 7.59759 10.8609C6.51562 10.1379 6.18234 8.69877 6.83559 7.57367C7.45368 8.33423 8.22484 8.95627 9.09898 9.39939C9.97313 9.8425 10.9307 10.0968 11.9095 10.1457C11.812 9.72559 11.8264 9.28722 11.9514 8.87444C12.0764 8.46165 12.3076 8.08892 12.6218 7.79352C13.6134 6.86136 15.173 6.90917 16.105 7.9003C16.6564 7.79143 17.1851 7.58928 17.6685 7.30255C17.4847 7.87261 17.1001 8.35652 16.5863 8.66427C17.0743 8.60672 17.5509 8.47604 18 8.27661C17.6696 8.77139 17.2536 9.20325 16.7715 9.55189Z" fill="#1D9BF0"/>
</svg>
