<svg width="24" height="24" viewBox="0 0 24 24" fill="none"
    xmlns="http://www.w3.org/2000/svg">
    <path d="M7.5 9.99759V17.9976C7.5 18.2628 7.39464 18.5172 7.20711 18.7047C7.01957 18.8922 6.76522 18.9976 6.5 18.9976H4.5C4.23478 18.9976 3.98043 18.8922 3.79289 18.7047C3.60536 18.5172 3.5 18.2628 3.5 17.9976V10.9976C3.5 10.7324 3.60536 10.478 3.79289 10.2905C3.98043 10.1029 4.23478 9.99759 4.5 9.99759H7.5C8.56087 9.99759 9.57828 9.57616 10.3284 8.82602C11.0786 8.07587 11.5 7.05845 11.5 5.99759V4.99759C11.5 4.46716 11.7107 3.95845 12.0858 3.58338C12.4609 3.2083 12.9696 2.99759 13.5 2.99759C14.0304 2.99759 14.5391 3.2083 14.9142 3.58338C15.2893 3.95845 15.5 4.46716 15.5 4.99759V9.99759H18.5C19.0304 9.99759 19.5391 10.2083 19.9142 10.5834C20.2893 10.9584 20.5 11.4672 20.5 11.9976L19.5 16.9976C19.3562 17.6111 19.0834 18.1378 18.7227 18.4986C18.3619 18.8593 17.9328 19.0344 17.5 18.9976H10.5C9.70435 18.9976 8.94129 18.6815 8.37868 18.1189C7.81607 17.5563 7.5 16.7932 7.5 15.9976" fill="#161925" fill-opacity="0.12"/>
    <path d="M7.5 9.99759V17.9976C7.5 18.2628 7.39464 18.5172 7.20711 18.7047C7.01957 18.8922 6.76522 18.9976 6.5 18.9976H4.5C4.23478 18.9976 3.98043 18.8922 3.79289 18.7047C3.60536 18.5172 3.5 18.2628 3.5 17.9976V10.9976C3.5 10.7324 3.60536 10.478 3.79289 10.2905C3.98043 10.1029 4.23478 9.99759 4.5 9.99759H7.5ZM7.5 9.99759C8.56087 9.99759 9.57828 9.57616 10.3284 8.82602C11.0786 8.07587 11.5 7.05846 11.5 5.99759V4.99759C11.5 4.46716 11.7107 3.95845 12.0858 3.58338C12.4609 3.2083 12.9696 2.99759 13.5 2.99759C14.0304 2.99759 14.5391 3.2083 14.9142 3.58338C15.2893 3.95845 15.5 4.46716 15.5 4.99759V9.99759H18.5C19.0304 9.99759 19.5391 10.2083 19.9142 10.5834C20.2893 10.9584 20.5 11.4672 20.5 11.9976L19.5 16.9976C19.3562 17.6111 19.0834 18.1378 18.7227 18.4986C18.3619 18.8593 17.9328 19.0344 17.5 18.9976H10.5C9.70435 18.9976 8.94129 18.6815 8.37868 18.1189C7.81607 17.5563 7.5 16.7932 7.5 15.9976" stroke="#124A36" stroke-width="2" stroke-linecap="round" stroke-linejoin="round"/>
</svg>
