<svg width="24" height="24" viewBox="0 0 24 24" fill="none"
    xmlns="http://www.w3.org/2000/svg">
    <path d="M16.5 14.0024L16.5 6.00241C16.5 5.73719 16.6054 5.48284 16.7929 5.2953C16.9804 5.10777 17.2348 5.00241 17.5 5.00241L19.5 5.00241C19.7652 5.00241 20.0196 5.10777 20.2071 5.2953C20.3946 5.48284 20.5 5.73719 20.5 6.00241L20.5 13.0024C20.5 13.2676 20.3946 13.522 20.2071 13.7095C20.0196 13.8971 19.7652 14.0024 19.5 14.0024L16.5 14.0024C15.4391 14.0024 14.4217 14.4238 13.6716 15.174C12.9214 15.9241 12.5 16.9415 12.5 18.0024L12.5 19.0024C12.5 19.5328 12.2893 20.0416 11.9142 20.4166C11.5391 20.7917 11.0304 21.0024 10.5 21.0024C9.96957 21.0024 9.46086 20.7917 9.08579 20.4166C8.71071 20.0416 8.5 19.5328 8.5 19.0024L8.5 14.0024L5.5 14.0024C4.96957 14.0024 4.46086 13.7917 4.08579 13.4166C3.71072 13.0415 3.5 12.5328 3.5 12.0024L4.5 7.00241C4.64382 6.38893 4.91663 5.86217 5.27735 5.50144C5.63807 5.14072 6.06716 4.96559 6.5 5.00241L13.5 5.00241C14.2957 5.00241 15.0587 5.31848 15.6213 5.88109C16.1839 6.4437 16.5 7.20676 16.5 8.00241" fill="#161925" fill-opacity="0.12"/>
    <path d="M16.5 14.0024L16.5 6.00241C16.5 5.73719 16.6054 5.48284 16.7929 5.2953C16.9804 5.10777 17.2348 5.00241 17.5 5.00241L19.5 5.00241C19.7652 5.00241 20.0196 5.10777 20.2071 5.2953C20.3946 5.48284 20.5 5.73719 20.5 6.00241L20.5 13.0024C20.5 13.2676 20.3946 13.522 20.2071 13.7095C20.0196 13.8971 19.7652 14.0024 19.5 14.0024L16.5 14.0024ZM16.5 14.0024C15.4391 14.0024 14.4217 14.4238 13.6716 15.174C12.9214 15.9241 12.5 16.9415 12.5 18.0024L12.5 19.0024C12.5 19.5328 12.2893 20.0416 11.9142 20.4166C11.5391 20.7917 11.0304 21.0024 10.5 21.0024C9.96957 21.0024 9.46086 20.7917 9.08579 20.4166C8.71071 20.0416 8.5 19.5328 8.5 19.0024L8.5 14.0024L5.5 14.0024C4.96957 14.0024 4.46086 13.7917 4.08579 13.4166C3.71071 13.0415 3.5 12.5328 3.5 12.0024L4.5 7.00241C4.64382 6.38893 4.91663 5.86216 5.27735 5.50144C5.63807 5.14072 6.06716 4.96559 6.5 5.00241L13.5 5.00241C14.2957 5.00241 15.0587 5.31848 15.6213 5.88109C16.1839 6.4437 16.5 7.20676 16.5 8.00241" stroke="#FFFFFF" stroke-width="2" stroke-linecap="round" stroke-linejoin="round"/>
</svg>
