<svg width="152" height="74" viewBox="0 0 152 74" fill="none" xmlns="http://www.w3.org/2000/svg">
<path d="M116.601 57.1047C115.395 57.6941 114.02 58.2957 112.607 58.937C111.894 59.2394 111.17 59.5478 110.445 59.8532C110.082 60.0059 109.719 60.1586 109.358 60.3082C108.996 60.4518 108.633 60.5953 108.272 60.7388C105.402 61.8993 102.673 62.8399 100.894 63.4598C101.694 63.188 102.471 62.9254 103.222 62.6689C103.971 62.394 104.7 62.1283 105.407 61.8688C105.763 61.7374 106.11 61.6092 106.455 61.484C106.798 61.3496 107.138 61.2152 107.47 61.0809C108.139 60.8152 108.791 60.5556 109.433 60.3021C111.978 59.2394 114.314 58.2072 116.596 57.1017L116.601 57.1047ZM82.8183 63.2919C82.4963 63.3499 81.7909 63.4659 80.8504 63.5973C79.9074 63.7194 78.7293 63.8782 77.4591 64.0248C74.9188 64.3088 72.0182 64.5867 69.9379 64.7333C70.5845 64.6661 72.7696 64.4859 75.3124 64.2264C76.5826 64.0889 77.9421 63.9515 79.243 63.7774C79.8921 63.695 80.5284 63.6156 81.1316 63.5392C81.7321 63.4507 82.302 63.3682 82.8208 63.2919H82.8183ZM108.858 5.8147C108.387 5.75362 107.662 5.65589 106.8 5.5429C105.939 5.43907 104.942 5.31997 103.933 5.21919C101.919 5.01458 99.8566 4.85578 98.773 4.78859C99.3327 4.81302 100.071 4.85578 100.91 4.92296C101.748 4.98099 102.681 5.06649 103.631 5.16116C104.582 5.24362 105.543 5.37799 106.442 5.47571C107.339 5.60092 108.17 5.71697 108.858 5.8147ZM2.41323 39.6914C2.39534 39.7861 2.36212 39.9846 2.32378 40.2595C2.27778 40.5343 2.242 40.8916 2.20623 41.2978C2.13978 42.1132 2.14489 43.1362 2.27778 44.1379C2.40301 45.1426 2.66368 46.1168 2.93458 46.8681C3.07769 47.2407 3.20036 47.5674 3.31537 47.8117C3.4227 48.0621 3.50448 48.2362 3.54537 48.3187C3.04702 47.3078 2.74546 46.4192 2.54612 45.6343C2.34934 44.8464 2.25223 44.1623 2.19345 43.5241C2.09378 42.2476 2.13978 41.1512 2.41323 39.6884V39.6914ZM54.4227 70.2792C54.0777 70.2883 52.7897 70.1845 51.3126 70.0807C50.574 70.0379 49.7894 69.928 49.0534 69.8577C48.3174 69.7722 47.6248 69.7203 47.0779 69.6378C47.2261 69.6928 48.7493 69.8363 49.8226 69.9555C49.6284 69.9463 48.4988 69.8425 47.1827 69.6837C46.5259 69.592 45.8231 69.4913 45.1637 69.3996C44.834 69.3538 44.5171 69.308 44.2232 69.2683C43.9293 69.2164 43.6585 69.1706 43.4233 69.1309C44.0929 69.25 45.0819 69.3691 46.1655 69.5157C44.7829 69.3202 42.4292 68.9599 39.9068 68.4346C39.2756 68.3002 38.6341 68.1659 37.9926 68.0285C37.3512 67.888 36.7174 67.7139 36.0912 67.5612C35.4677 67.3994 34.8518 67.2619 34.2691 67.0909C33.6864 66.9199 33.1267 66.755 32.6054 66.6023C33.3056 66.7977 34.0698 67.0359 34.8952 67.2497C35.7207 67.4543 36.5998 67.6742 37.5147 67.9032C38.4322 68.114 39.3906 68.3033 40.3643 68.5171C40.8498 68.627 41.3456 68.7125 41.844 68.798C42.3423 68.8866 42.8407 68.9721 43.3416 69.0607C47.3513 69.7386 51.4224 70.1112 54.4227 70.2853V70.2792ZM119.637 8.24253C119.021 8.06541 117.498 7.54625 115.758 7.09733C115.326 6.96906 114.873 6.8805 114.426 6.77056C113.976 6.66673 113.532 6.55679 113.092 6.46212C112.213 6.2911 111.385 6.11398 110.692 6.00098C111.009 6.03763 111.556 6.15368 112.249 6.28499C112.594 6.35523 112.977 6.42242 113.381 6.51098C113.782 6.60565 114.209 6.70338 114.646 6.80721C115.525 6.99655 116.43 7.27751 117.296 7.50655C118.157 7.76002 118.962 8.03487 119.635 8.24253H119.637ZM96.174 3.41434C95.4456 3.3044 94.8527 3.21279 94.3135 3.13338C93.7742 3.05704 93.2887 3.00207 92.7801 2.93794C92.2715 2.87686 91.7425 2.81273 91.1138 2.73333C90.4826 2.67836 89.7517 2.61728 88.8419 2.53788C89.2457 2.55925 89.9331 2.61117 90.7305 2.6753C91.5278 2.73943 92.4325 2.86159 93.2759 2.95626C94.1192 3.04482 94.8936 3.17614 95.4328 3.2647C95.9721 3.35326 96.2762 3.41129 96.1714 3.41434H96.174ZM101.676 2.4371C100.728 2.37907 98.7935 2.22333 96.6595 2.1256C94.5282 2.02177 92.2 1.96069 90.4724 1.95458C91.4256 1.95153 93.3653 1.9668 95.4967 2.05842C97.6281 2.14393 99.9512 2.29357 101.674 2.4371H101.676ZM14.7876 18.4059C15.1811 18.0669 16.0833 17.3431 17.2486 16.4911C18.414 15.639 19.8451 14.6587 21.2814 13.7731C20.5837 14.222 19.4516 14.9519 18.253 15.7948C17.0518 16.6346 15.7894 17.5935 14.7876 18.4059ZM96.1126 67.9429C95.5734 68.1017 94.799 68.3491 93.8714 68.5934C92.9437 68.8377 91.8729 69.134 90.7484 69.4088C89.6214 69.6714 88.4534 69.9677 87.3264 70.2089C86.1994 70.4441 85.1235 70.6853 84.1932 70.8686C84.413 70.8197 85.126 70.6639 86.1125 70.4441C86.6057 70.3372 87.1654 70.2181 87.766 70.0868C88.364 69.9432 89.0003 69.7936 89.6495 69.6378C90.9477 69.3416 92.2792 68.9843 93.4318 68.682C94.5869 68.3919 95.5504 68.0956 96.1126 67.9399V67.9429ZM127.708 53.8859C127.002 54.4173 125.26 55.6236 123.164 56.8421C121.071 58.0728 118.63 59.3066 116.65 60.238C117.406 59.8563 119.543 58.8424 121.794 57.5933C124.051 56.3565 126.402 54.8448 127.708 53.8829V53.8859ZM113.22 7.71116C112.124 7.27445 110.984 6.76445 109.785 6.37356C109.489 6.26972 109.19 6.16284 108.891 6.05901C108.592 5.95212 108.293 5.85134 107.989 5.76583C107.383 5.58871 106.777 5.41464 106.177 5.24057C102.226 4.03428 96.6877 2.95321 90.7024 2.38518C89.9587 2.33021 89.7824 2.31494 88.8598 2.24776C89.4118 2.32105 87.3622 2.21722 90.6973 2.47985C89.974 2.44015 89.0233 2.36991 88.0062 2.29051C86.9891 2.23249 85.908 2.17446 84.9241 2.11949C82.9537 2.05231 81.3692 1.97902 81.474 1.9668C80.0608 1.9668 79.2174 1.9668 78.4558 1.9668C77.6942 1.98818 77.0145 2.0065 75.9232 2.04009C76.8943 2.03093 77.7249 2.02482 78.5146 2.01566C79.3043 2.02482 80.048 2.03704 80.8453 2.0462C81.6427 2.0462 82.4911 2.0859 83.4853 2.11033C83.9836 2.12866 84.5178 2.13171 85.1004 2.16225C85.6831 2.19279 86.3144 2.22333 87.0044 2.25997C86.9558 2.318 86.5802 2.30884 87.9219 2.45542C86.6441 2.39129 85.6934 2.34243 84.9471 2.30578C84.2009 2.2844 83.6591 2.28135 83.2042 2.27524C82.2944 2.26913 81.727 2.26303 80.5463 2.30273C79.4627 2.29662 78.3281 2.2783 77.109 2.318C76.4982 2.33021 75.8695 2.34548 75.2127 2.36075C74.5559 2.39129 73.8762 2.42488 73.1631 2.45848C71.9518 2.51955 71.7166 2.5562 70.403 2.65698C69.7181 2.74554 72.9306 2.50123 72.2482 2.5959C69.4038 2.77608 66.5543 3.00207 63.715 3.35937C60.8706 3.68614 58.0338 4.13506 55.2022 4.63895C53.7889 4.90769 52.3731 5.17033 50.965 5.48793C49.5517 5.77805 48.1487 6.12925 46.7431 6.46823C46.0403 6.63925 45.3426 6.83775 44.6424 7.02098C43.9421 7.20727 43.2419 7.39355 42.5467 7.60427L40.4562 8.22116L38.3785 8.89607C32.8533 10.7315 27.4047 13.0249 22.2934 16.0819C19.7608 17.6332 17.31 19.435 14.9792 21.42C12.6511 23.4081 10.4302 25.5917 8.43172 28.0103C6.44345 30.429 4.65195 33.1012 3.44059 36.0634C2.84257 37.5446 2.40301 39.0959 2.20623 40.6717C2.00689 42.2476 2.07589 43.8386 2.42345 45.3564C2.59724 46.1138 2.83491 46.8528 3.13136 47.5674C3.43292 48.279 3.79327 48.96 4.1945 49.6135C5.00208 50.9206 5.98599 52.0933 7.06958 53.1805C9.23419 55.3457 11.708 57.1139 14.3148 58.6469L16.2698 59.8043L18.2632 60.8732L19.2599 61.4046L20.2745 61.8901L22.3062 62.8613L24.3686 63.7469C24.7136 63.8904 25.0535 64.0492 25.4011 64.1806L26.4463 64.5776C27.144 64.8371 27.8366 65.1181 28.5394 65.3624L30.6529 66.0709C31.3557 66.3213 32.0687 66.5168 32.7817 66.7244C33.4947 66.926 34.2026 67.155 34.9208 67.3352C36.357 67.6925 37.7907 68.0804 39.2398 68.3644C42.1302 69.0087 45.0538 69.4485 47.9851 69.8119C49.4878 69.9555 50.8934 70.1112 52.2402 70.1814C52.9124 70.2242 53.5692 70.27 54.2132 70.3097C54.8572 70.3341 55.4884 70.3586 56.1094 70.3799C57.3515 70.4441 58.5577 70.438 59.7538 70.4502C60.9472 70.4777 62.1305 70.4258 63.3291 70.4105C68.1234 70.2792 73.1759 69.9188 80.1579 68.7644C79.7566 68.8164 78.9976 68.9293 78.0367 69.079C77.0783 69.2317 75.913 69.363 74.7093 69.531C73.5056 69.6898 72.2533 69.7997 71.1212 69.9249C69.989 70.0287 68.9693 70.0929 68.2308 70.1478C85.2768 68.9416 102.698 64.0584 118.165 56.4084C122.006 54.4723 125.676 52.2551 128.983 49.5738C130.634 48.2362 132.193 46.7826 133.627 45.2159C135.055 43.6493 136.379 41.9635 137.478 40.177C138.582 38.3905 139.461 36.4696 139.982 34.4754C140.499 32.4812 140.634 30.4229 140.358 28.4562C140.085 26.4895 139.436 24.6236 138.536 22.9562C138.089 22.1194 137.593 21.3254 137.056 20.5711C136.514 19.8229 135.942 19.1144 135.347 18.4425C134.751 17.7829 134.13 17.1171 133.45 16.4911C133.121 16.1643 132.755 15.8772 132.402 15.5627C132.045 15.2604 131.695 14.9305 131.319 14.6374C130.941 14.3503 130.557 14.0602 130.171 13.7701C129.977 13.6265 129.786 13.4738 129.589 13.3334C129.387 13.199 129.185 13.0677 128.981 12.9333C128.574 12.6646 128.163 12.3928 127.749 12.121C127.322 11.8767 126.893 11.6293 126.461 11.3789C126.243 11.2537 126.026 11.1285 125.809 11.0032C125.587 10.8903 125.362 10.7803 125.137 10.6673C124.687 10.4413 124.235 10.2153 123.78 9.98936C123.315 9.7878 122.85 9.58624 122.379 9.38163C122.144 9.28086 121.912 9.17397 121.674 9.0793C121.434 8.99074 121.194 8.89912 120.953 8.81056C119.039 8.05319 117.036 7.48212 115.009 6.9599C112.977 6.45296 110.902 6.07122 108.824 5.73835C106.739 5.43601 104.651 5.18254 102.571 5.00236C98.4101 4.62979 94.3186 4.45572 90.4545 4.42823C87.2395 4.42823 90.5363 4.46182 88.6068 4.46793C85.8799 4.48015 83.8175 4.55649 82.1001 4.62979C80.3828 4.70614 79.0129 4.78859 77.6712 4.88326C74.9827 5.08176 72.4143 5.28637 67.3951 5.90631C68.0366 5.79026 70.3724 5.46655 73.4519 5.16422C76.534 4.85883 80.3649 4.58703 83.9939 4.46793C82.1436 4.5229 79.8001 4.63895 77.3211 4.81913C74.8422 4.99625 72.2278 5.24362 69.8357 5.52152C65.0362 6.07428 61.1236 6.6026 60.9345 6.65451C52.5776 7.79972 45.2608 9.12816 37.9057 11.2995C34.2333 12.3897 30.5558 13.709 26.7939 15.4283C23.0448 17.1751 19.1986 19.3129 15.3447 22.2354C14.9256 22.5714 14.4042 22.9897 13.8573 23.4295C13.3257 23.8906 12.7482 24.3701 12.2422 24.8282C11.2378 25.7444 10.4507 26.6086 10.3229 26.7857C7.8976 29.4151 5.76621 32.64 4.43473 35.9168C3.78305 37.5568 3.31025 39.1937 3.10069 40.7298C2.8758 42.2628 2.88346 43.6798 3.05724 44.8678C3.02658 44.7029 3.01891 44.4647 2.99335 44.1776C2.96013 43.8936 2.96014 43.5516 2.94991 43.1729C2.95247 42.4125 2.9908 41.4871 3.15692 40.516C3.31281 39.5449 3.56326 38.531 3.86227 37.5904C4.16128 36.6467 4.52162 35.7855 4.8283 35.0801C4.2405 36.436 3.47382 38.4424 3.14158 40.7817C2.97547 41.9452 2.9218 43.1851 3.04447 44.4097C3.16203 45.6343 3.45593 46.8375 3.90316 47.9369C4.3504 49.0424 4.9433 50.0136 5.6052 50.8931C5.9221 51.3451 6.27734 51.736 6.59934 52.1299C6.94691 52.4933 7.2587 52.8659 7.59093 53.1713C8.88152 54.4387 9.97532 55.2327 10.4226 55.5747C11.3017 56.1885 12.2089 56.7657 13.1494 57.2757C13.6145 57.5445 14.0975 57.7735 14.5729 58.0209C15.0585 58.2469 15.5364 58.4881 16.0296 58.6958C17.9872 59.5631 20.0138 60.2655 22.0583 60.8671C26.1524 62.0642 30.3206 62.846 34.4071 63.4812C35.4319 63.6339 36.449 63.7866 37.4585 63.9393C38.4629 64.0737 39.4621 64.208 40.4486 64.3394C41.4376 64.4432 42.419 64.5501 43.3876 64.6508C44.3587 64.7303 45.3196 64.8097 46.2677 64.886C50.0628 65.1578 53.6765 65.2372 57.0039 65.225C60.3978 65.2555 64.0217 65.1761 67.827 64.9471C71.6323 64.7119 75.6165 64.3424 79.7311 63.811C87.9576 62.7452 96.7132 61.0564 105.54 58.5064C104.091 58.937 103.097 59.1844 102.481 59.3493C101.865 59.5112 101.628 59.5722 101.674 59.557C101.763 59.5234 103 59.2058 104.638 58.7385C105.456 58.4973 106.379 58.2285 107.311 57.9537C108.239 57.6575 109.18 57.3582 110.043 57.0833C111.763 56.5092 113.166 56.0145 113.547 55.8831C118.354 54.1394 123.118 52.0811 127.629 49.6777C128.188 49.3662 128.745 49.0516 129.3 48.7401C129.579 48.5844 129.855 48.4286 130.133 48.2729C130.409 48.1141 130.677 47.943 130.948 47.7781C131.49 47.4483 132.032 47.1185 132.569 46.7917C133.1 46.4497 133.622 46.0954 134.145 45.7504C134.406 45.5763 134.667 45.4022 134.927 45.2312C135.191 45.051 135.454 44.8708 135.715 44.6907C136.236 44.3303 136.752 43.973 137.268 43.6187C138.291 42.9072 139.285 42.1987 140.22 41.4535C141.107 40.7542 141.94 40.0182 142.72 39.2395C143.514 38.4394 144.273 37.6117 144.997 36.7628C145.717 35.9138 146.402 35.0434 147.044 34.1486C147.695 33.2447 148.263 32.3743 148.738 31.4521C149.691 29.6197 150.182 27.6408 149.934 25.8176C149.829 24.9015 149.533 24.0311 149.139 23.2096C148.73 22.3942 148.214 21.6369 147.634 20.9436C146.458 19.5633 145.066 18.4303 143.634 17.4592C142.198 16.4911 140.713 15.6757 139.229 14.9733C136.256 13.5624 133.294 12.5516 130.442 11.7728C128.679 11.2995 126.895 10.8994 125.122 10.6246C124.672 10.5543 124.247 10.4994 123.785 10.4474L122.41 10.2886L119.663 9.97103C116.003 9.5496 112.351 9.14649 108.714 8.78307C101.444 8.04709 94.2394 7.49128 87.1884 7.20421C80.1374 6.93242 73.2398 6.92326 66.608 7.34775C64.9494 7.43631 63.3112 7.589 61.6858 7.72643C60.0656 7.90355 58.4606 8.05625 56.8813 8.28529C55.2968 8.47768 53.7404 8.75253 52.2019 8.9999C50.6685 9.29307 49.1505 9.56487 47.6682 9.91606C46.3879 10.1909 45.4576 10.4566 44.5248 10.704C43.5869 10.9391 42.6643 11.2323 41.4044 11.614C41.4146 11.6049 41.6881 11.5194 42.0459 11.4125L43.1857 11.0674C42.2759 11.3361 41.3303 11.5957 40.3975 11.8828C39.4723 12.1943 38.5472 12.4844 37.6757 12.7867C36.8094 13.1104 35.989 13.4158 35.2504 13.6907C34.5221 13.993 33.8755 14.2617 33.3491 14.4816C32.82 14.6954 32.4137 14.8634 32.1684 14.9764C31.9205 15.0832 31.8285 15.1107 31.9281 15.0435C32.0304 14.9825 32.3115 14.7931 32.8405 14.5488C33.3695 14.2984 34.1285 13.938 35.1636 13.4647C34.7777 13.599 33.643 14.0571 32.2093 14.6954C31.5013 15.0405 30.7142 15.4192 29.9041 15.8131C29.1093 16.2498 28.294 16.6987 27.5069 17.1293C29.9935 15.581 30.6324 15.181 31.555 14.6099C31.785 14.4664 32.0329 14.3137 32.337 14.1335C32.6463 13.9716 33.0092 13.7823 33.4615 13.5563C33.9164 13.3334 34.4582 13.0524 35.1354 12.7531C35.8178 12.4691 36.6279 12.1301 37.6016 11.724C32.9376 13.4097 37.5582 11.4247 37.4892 11.2903C37.4508 11.214 36.2369 11.5926 36.1756 11.5285C36.1449 11.4949 36.4056 11.3544 37.2489 10.988C37.6706 10.8109 38.2482 10.6062 39.0047 10.3253C39.3829 10.1879 39.8071 10.0291 40.285 9.8672C40.7655 9.71756 41.2971 9.5496 41.8823 9.36637C42.0714 9.27475 42.4599 9.12511 43.0272 8.9266C43.5971 8.74643 44.351 8.52655 45.2634 8.26391C45.4908 8.19978 45.7311 8.12954 45.979 8.0593C46.2294 7.99822 46.4875 7.93409 46.7584 7.86691C47.2977 7.73559 47.8727 7.59511 48.486 7.44852C49.0968 7.28972 49.7511 7.17673 50.436 7.03014C51.1209 6.89577 51.839 6.72781 52.5904 6.60871C55.5958 6.0529 59.12 5.57955 63.002 5.22224C66.8814 4.86799 71.1212 4.65422 75.5526 4.5962C84.4207 4.47099 94.0579 4.99931 103.217 5.82386C107.797 6.23308 112.259 6.71254 116.455 7.192C118.551 7.43631 120.583 7.67451 122.528 7.90355C123.013 7.96158 123.494 8.0196 123.969 8.07457C124.442 8.12954 124.932 8.19367 125.398 8.26697C126.338 8.41355 127.245 8.59068 128.124 8.78613C132.262 9.68702 136.382 11.0094 140.404 12.9577C142.408 13.9472 144.391 15.0924 146.257 16.5735C147.189 17.3126 148.089 18.1402 148.914 19.0991C149.326 19.5786 149.725 20.0855 150.082 20.6413C150.445 21.1941 150.78 21.7804 151.059 22.4187C151.337 23.0539 151.577 23.7257 151.736 24.4373C151.894 25.1458 151.984 25.8818 151.999 26.6178C152.009 27.3568 151.938 28.0897 151.812 28.8074C151.682 29.522 151.48 30.2061 151.25 30.8718C150.767 32.1911 150.121 33.3882 149.395 34.4937C148.674 35.5901 147.907 36.6131 147.097 37.6117C146.29 38.6073 145.441 39.5632 144.56 40.4824C143.686 41.4016 142.73 42.2873 141.751 43.0752C139.786 44.6693 137.721 46.0222 135.674 47.43C133.236 49.0577 132.888 49.2837 130.711 50.5816C127.698 52.3254 124.636 53.7943 121.585 55.1411C120.061 55.8282 118.525 56.4237 117.005 57.0375C115.471 57.6055 113.953 58.1919 112.425 58.6988C110.905 59.2394 109.376 59.7005 107.861 60.1891C107.099 60.4121 106.34 60.635 105.584 60.8579C104.827 61.087 104.068 61.2916 103.312 61.4931C100.289 62.3299 97.2729 63.0231 94.2777 63.6736C88.2797 64.9288 82.3455 65.8816 76.4497 66.5198C70.5564 67.1764 64.7066 67.5276 58.8772 67.604C66.1454 67.5185 71.5071 67.0909 77.132 66.4771C78.5376 66.3305 79.9585 66.1289 81.4306 65.9488C82.9001 65.7289 84.4232 65.5334 86.0256 65.2586C89.2329 64.7486 92.7699 64.0889 96.8895 63.1575C97.7406 62.9712 98.3335 62.8338 98.7091 62.7391C99.0874 62.6475 99.2509 62.6078 99.2535 62.6078C99.2535 62.6078 98.5941 62.7819 97.6383 63.0018C96.6825 63.2125 95.4379 63.5087 94.2675 63.75C93.097 63.9882 92.0109 64.208 91.3796 64.3363C88.1416 64.9532 84.8398 65.5029 81.474 65.9701C78.1083 66.4221 74.6812 66.8008 71.2004 67.0909C67.7171 67.3688 64.1801 67.5551 60.5946 67.6376C57.009 67.7231 53.3724 67.6925 49.6974 67.5185C46.0224 67.3444 42.304 67.039 38.5625 66.529C34.8339 66.0129 31.072 65.4479 27.282 64.6478C23.4971 63.8446 19.6867 62.8094 15.9504 61.2458C14.0873 60.4518 12.2422 59.5356 10.4686 58.3934C8.69751 57.2513 6.98524 55.9045 5.46209 54.2432L5.1733 53.9348L4.8973 53.608C4.71585 53.3881 4.52929 53.1744 4.3504 52.9484C4.00539 52.4842 3.65015 52.0353 3.33326 51.5191C2.68924 50.5144 2.127 49.412 1.72321 48.2148C1.31942 47.0208 1.05875 45.7534 0.953971 44.4708C0.846635 43.1881 0.892632 41.8964 1.05364 40.6382C1.3782 38.1126 2.17556 35.7428 3.18758 33.5623C4.19961 31.3727 5.45698 29.3724 6.85235 27.5248C8.25027 25.6833 9.81177 23.9975 11.5061 22.5347C13.1699 21.0658 14.9256 19.7435 16.7247 18.5097C20.323 16.0391 24.1463 14.0419 28.064 12.3622C35.9175 9.03349 44.1466 7.0332 52.4191 5.59176C56.5592 4.8741 60.7172 4.29386 64.8778 3.7747C66.9606 3.51512 69.0358 3.26165 71.1289 3.03261C73.2194 2.80662 75.315 2.62033 77.4106 2.46458C80.9271 2.20195 84.9113 2.05231 88.4739 2.03704C92.0364 2.02177 95.1747 2.13171 97.0045 2.1989C102.213 2.48596 106.437 2.90434 110.498 3.58841C110.751 3.63117 111.004 3.67087 111.257 3.71362L112.014 3.86021L113.522 4.15644C114.022 4.27248 114.526 4.38853 115.029 4.50763C115.282 4.56566 115.535 4.62673 115.788 4.68476C116.041 4.755 116.294 4.82218 116.547 4.89242C117.056 5.0329 117.57 5.17338 118.086 5.31691C118.6 5.48182 119.121 5.64673 119.647 5.81775C120.176 5.97655 120.705 6.18116 121.242 6.37966C121.779 6.58733 122.331 6.76445 122.878 7.01487C122.977 7.05457 122.727 6.93242 122.295 6.75529C121.858 6.59038 121.245 6.36134 120.631 6.12925C120.325 6.01014 120.015 5.90937 119.727 5.81775C119.438 5.72613 119.172 5.64368 118.952 5.57344C118.513 5.43601 118.252 5.35661 118.354 5.39326C120.263 5.95212 122.898 6.85607 125.863 8.34637C127.35 9.07625 128.896 10.0077 130.476 11.0735C130.874 11.33 131.252 11.6446 131.649 11.9347C132.037 12.237 132.446 12.5149 132.829 12.8447C133.213 13.1746 133.599 13.5074 133.99 13.8434C134.184 14.0113 134.381 14.1762 134.572 14.3534C134.761 14.5335 134.953 14.7137 135.142 14.897C135.896 15.636 136.642 16.4147 137.35 17.2607C138.056 18.1096 138.733 19.0136 139.354 19.9817C140.598 21.9117 141.616 24.135 142.152 26.5384C142.702 28.9357 142.722 31.4734 142.298 33.7761C142.088 34.9304 141.787 36.0298 141.419 37.059C141.043 38.0851 140.616 39.0471 140.156 39.9449C140.688 38.9341 141.204 37.7767 141.639 36.4665C142.068 35.1564 142.426 33.6875 142.559 32.0842C142.699 30.487 142.64 28.7677 142.3 27.0575C142.229 26.6269 142.111 26.2055 142.009 25.7779C141.884 25.3596 141.774 24.929 141.618 24.5167C141.34 23.6738 140.979 22.8676 140.593 22.0675C139.801 20.4825 138.822 18.9922 137.711 17.6271C136.604 16.2559 135.375 14.9825 134.053 13.8373C131.434 11.5041 128.467 9.55876 125.362 8.03792C122.254 6.51404 119.011 5.39937 115.801 4.58703C112.586 3.78081 109.404 3.25859 106.366 2.88907C100.286 2.17141 94.7709 1.95764 90.4596 1.91794C92.3814 1.93015 94.2879 1.97902 96.1791 2.05842C98.0703 2.14393 99.9461 2.26303 101.807 2.41267C105.528 2.70889 109.205 3.17308 112.816 3.89686C113.721 4.05871 114.615 4.29691 115.512 4.49847C116.404 4.7214 117.294 4.97488 118.178 5.22224C119.939 5.775 121.687 6.36134 123.386 7.1126C123.81 7.29888 124.24 7.47601 124.662 7.6684L125.914 8.2914C126.755 8.68229 127.557 9.18619 128.375 9.64427C128.786 9.86415 129.175 10.1451 129.571 10.3986L130.754 11.1773L131.899 12.0385C132.277 12.3286 132.668 12.5974 133.026 12.9241C133.752 13.5593 134.498 14.1579 135.193 14.8481C135.888 15.5322 136.576 16.2346 137.22 17.0011C138.518 18.5128 139.694 20.2046 140.642 22.1041C141.577 24.0067 142.28 26.1291 142.541 28.3676C142.806 30.6031 142.643 32.9088 142.104 35.0465C141.835 36.1153 141.485 37.1476 141.081 38.1401C140.662 39.1234 140.195 40.0671 139.681 40.971C138.641 42.7698 137.455 44.3975 136.177 45.9153C133.622 48.9478 130.708 51.5222 127.606 53.7302C127.759 53.6049 126.831 54.2707 126.006 54.8082C125.183 55.3487 124.47 55.7885 125.111 55.3579C121.602 57.5811 118.078 59.3401 114.641 60.8701C111.201 62.4154 107.833 63.7897 104.508 64.9746C101.183 66.1595 97.9169 67.207 94.6815 68.114C91.4435 68.9996 88.249 69.7936 85.0647 70.4349C76.0689 72.2825 66.7357 73.2536 58.0543 73.0093C54.5556 72.9269 51.0928 72.7192 47.6708 72.31C44.2514 71.8886 40.8754 71.3236 37.5556 70.5693C34.241 69.7905 30.98 68.853 27.788 67.7292C24.6063 66.5717 21.4961 65.2464 18.4728 63.7408C16.9803 62.9376 15.475 62.1803 14.0311 61.2885C13.3053 60.8518 12.5718 60.4426 11.8563 59.9723C11.1381 59.5112 10.4302 59.0287 9.73254 58.5187C8.33717 57.5017 6.99036 56.384 5.73043 55.1227C5.09919 54.4936 4.49862 53.8248 3.91594 53.1133C3.34092 52.3926 2.80424 51.626 2.31612 50.8076C1.34242 49.1738 0.601292 47.2895 0.248616 45.2892C-0.111727 43.2889 -0.0657222 41.2092 0.292065 39.2639C0.644741 37.3125 1.28876 35.4862 2.07334 33.8066C2.85791 32.1209 3.78816 30.5664 4.79252 29.1158C6.8089 26.2146 9.11152 23.6982 11.5266 21.4231C13.9468 19.1541 16.4922 17.1293 19.1321 15.3275C19.7915 14.8786 20.461 14.445 21.1383 14.0296C21.8155 13.6052 22.503 13.2387 23.1828 12.8478C23.5252 12.6585 23.8626 12.4538 24.2102 12.2767L25.2477 11.7423L26.2828 11.2109C26.6303 11.0368 26.9804 10.8811 27.328 10.7162L28.3733 10.2276C28.7208 10.0596 29.0709 9.90385 29.4236 9.75726C30.1264 9.45798 30.8292 9.1587 31.532 8.85942C32.9478 8.30972 34.356 7.7417 35.7795 7.25613C37.1953 6.73392 38.6264 6.30026 40.0499 5.83607C41.4811 5.41769 42.9071 4.97793 44.3434 4.61146C47.2082 3.83272 50.0833 3.19141 52.9609 2.61728C53.6816 2.47985 54.3997 2.34243 55.1204 2.20806C55.8411 2.07369 56.5618 1.96375 57.2825 1.84159C58.7213 1.58812 60.1652 1.40489 61.6066 1.19417C64.4919 0.830755 67.3772 0.510097 70.2651 0.32381C69.6338 0.381834 69.0537 0.424588 68.4889 0.467342C67.9241 0.519258 67.3746 0.568121 66.8047 0.620037C66.2323 0.671953 65.6394 0.717761 64.9877 0.791054C64.336 0.873509 63.6255 0.962072 62.818 1.06285C65.7416 0.681114 69.7437 0.372672 72.1358 0.250517C72.698 0.219978 73.526 0.174169 74.5457 0.116146C75.5654 0.0611757 76.7819 0.0459062 78.1236 0.00620567C80.807 -0.0121176 83.999 -0.00295604 87.1424 0.219978C90.2858 0.421534 93.3807 0.742192 95.8699 1.14836C96.4934 1.24608 97.0812 1.32548 97.6204 1.42626C98.1597 1.53009 98.6529 1.62476 99.0925 1.71027C99.5321 1.79884 99.918 1.87518 100.243 1.93932C100.567 2.00955 100.825 2.07979 101.017 2.1256C97.5872 1.42015 94.5486 0.974287 91.3285 0.629198C88.1084 0.317702 84.7043 0.100876 80.5412 0.076445C81.3565 0.076445 83.0917 0.137523 84.689 0.183331C86.2863 0.265786 87.7455 0.357403 88.0088 0.394049C85.8109 0.281055 82.6777 0.106984 79.4448 0.140577C76.212 0.146684 72.8769 0.274947 70.2778 0.47345C68.9719 0.574228 70.1961 0.503989 71.2081 0.430696C68.2512 0.623091 65.2049 0.925425 62.0998 1.31021C58.9973 1.72554 55.8309 2.21416 52.6466 2.84632C49.4623 3.48763 46.255 4.23278 43.0604 5.12452C39.871 6.03152 36.6944 7.06984 33.5791 8.27307C36.1245 7.31721 39.3676 6.19338 42.5212 5.30775C43.3058 5.0726 44.0929 4.88021 44.8519 4.67254C45.2327 4.57176 45.6084 4.47099 45.9764 4.37326C46.347 4.2847 46.7099 4.19614 47.0651 4.11368C47.7756 3.94572 48.4502 3.78692 49.0815 3.63728C49.7127 3.50596 50.298 3.38686 50.8244 3.27692C49.4188 3.55482 43.7862 4.86188 39.8761 6.1323C41.0671 5.78416 42.1609 5.4635 43.2189 5.16727C44.282 4.89242 45.3068 4.60536 46.3649 4.34272C48.4809 3.82662 50.712 3.29829 53.5896 2.75165C51.4659 3.13033 52.4038 2.95015 54.3256 2.58674C56.2475 2.21722 59.1634 1.76219 60.9856 1.50872C59.8228 1.68279 58.637 1.84464 57.469 2.05842C56.8838 2.15919 56.3037 2.25692 55.7312 2.3577C55.1588 2.45542 54.5965 2.57452 54.0445 2.68141C53.4925 2.7883 52.9558 2.89518 52.4319 2.99596C51.9106 3.10895 51.4071 3.21889 50.9241 3.32578C49.9581 3.54261 49.0764 3.72584 48.3199 3.92434C46.8019 4.29997 45.7617 4.5626 45.4832 4.66643C45.2046 4.76416 45.6723 4.6359 47.1903 4.30608C50.4718 3.49374 53.0759 3.01123 55.2508 2.5959C56.342 2.41267 57.3259 2.2447 58.2408 2.09201C59.1558 1.93932 60.0042 1.83243 60.8144 1.71027C64.0626 1.27051 66.7613 0.931533 71.2158 0.635306C69.5572 0.729977 67.7784 0.882671 69.3527 0.717761C68.5758 0.766623 67.804 0.849078 67.0296 0.922371C66.2553 1.00177 65.4784 1.0598 64.704 1.16057C65.9563 1.01399 67.0858 0.919318 68.1822 0.800216C69.2811 0.696384 70.3468 0.620037 71.4688 0.525366C72.5907 0.442911 73.7714 0.387941 75.0977 0.311594C75.7622 0.290217 76.4599 0.271894 77.2087 0.247463L78.3664 0.21387C78.7651 0.21387 79.1791 0.21387 79.6059 0.21387C79.4602 0.226085 78.8775 0.219978 78.1543 0.232193C77.4336 0.250516 76.5723 0.271894 75.8721 0.290217C76.166 0.305487 76.9582 0.302433 78.0955 0.284109C78.6654 0.274948 79.3222 0.290217 80.0454 0.290217C80.7687 0.296325 81.5635 0.284109 82.4043 0.317702C82.2382 0.317702 77.9677 0.320756 78.6679 0.36351C78.9746 0.384887 79.473 0.381833 80.1119 0.372672C80.7508 0.372672 81.5328 0.345187 82.4017 0.381833C82.8541 0.406265 78.121 0.354349 77.7377 0.41848C79.7106 0.390995 81.842 0.403211 84.3951 0.494827C86.9456 0.613929 89.9229 0.760515 93.5698 1.20944C93.166 1.18501 92.384 1.09034 90.7841 0.934587C91.3489 0.980395 92.0926 1.08728 92.9386 1.1789C93.3602 1.22776 93.8075 1.27662 94.27 1.32854C94.73 1.39267 95.2054 1.46291 95.6859 1.53009C96.1663 1.59728 96.6493 1.66752 97.1272 1.7347C97.6051 1.80494 98.0728 1.89656 98.5277 1.97291C99.435 2.13782 100.281 2.26608 100.973 2.43099C100.718 2.40961 101.819 2.66003 103.005 2.92877C104.186 3.22805 105.448 3.5762 105.533 3.62201C104.835 3.43572 104.199 3.26776 103.613 3.11201C103.031 2.9471 102.491 2.85548 102.006 2.73943C101.027 2.52872 100.232 2.34854 99.5474 2.2386C98.1827 1.99734 97.2908 1.84159 96.3478 1.67363C95.8622 1.61255 95.2923 1.53926 94.6534 1.4568C94.0145 1.36824 93.3015 1.31021 92.5322 1.22471C92.1463 1.18195 91.7476 1.1392 91.3336 1.09644C90.9196 1.06285 90.4928 1.0262 90.0558 0.989557C89.1792 0.928479 88.2567 0.824647 87.2983 0.788C83.4674 0.546744 79.082 0.494827 74.9495 0.675006C76.0382 0.650575 77.2496 0.626144 78.5325 0.598659C79.174 0.598659 79.8333 0.598659 80.508 0.601713C81.1801 0.601713 81.865 0.601713 82.5576 0.629198C83.2502 0.647522 83.9479 0.665845 84.6456 0.687222C85.3432 0.711653 86.0435 0.760515 86.7361 0.794108C88.1238 0.852132 89.4859 0.989557 90.7816 1.09339C90.4749 1.07201 89.9791 1.03842 89.3402 0.995664C88.7039 0.946802 87.9244 0.879617 87.0581 0.84297C87.4363 0.849078 90.664 1.16057 89.8488 1.04453C92.683 1.31021 87.1245 0.849078 86.1278 0.861294C87.3596 0.931533 88.594 1.00483 87.9858 1.0262C85.8876 0.916264 82.8081 0.726923 79.5777 0.751354C79.174 0.751354 78.7676 0.751354 78.3613 0.7483C77.9549 0.757462 77.5486 0.766623 77.1422 0.775785C76.3321 0.800216 75.5245 0.806324 74.7348 0.846024C73.1555 0.925425 71.6476 0.998719 70.3136 1.13004C69.6951 1.16974 68.9949 1.20944 68.333 1.26135C67.6737 1.31632 67.0526 1.36824 66.5952 1.40794C63.3393 1.7683 61.765 1.95764 56.434 2.828C61.9951 1.87824 54.3026 3.13033 53.6561 3.25859C53.6203 3.28608 52.8613 3.41434 51.6806 3.67698C51.0902 3.80524 50.3925 3.95793 49.6233 4.1259C48.854 4.29081 48.0184 4.50763 47.1443 4.7153C46.2703 4.91685 45.3656 5.16422 44.4609 5.40853C44.0086 5.53068 43.5562 5.65284 43.1064 5.77194C42.6618 5.90326 42.2196 6.03458 41.7852 6.16284C40.0499 6.65757 38.4731 7.20116 37.3077 7.57984C39.5439 6.8408 43.2061 5.71392 46.7661 4.8344C50.321 3.92434 53.7762 3.28913 55.4987 2.95931C54.824 3.09674 53.8273 3.29524 52.7437 3.51512C56.986 2.67225 61.5836 1.98207 66.1786 1.51482C70.7736 1.04453 75.3661 0.80327 79.6008 0.766623C79.7439 0.794108 80.8121 0.784946 82.1257 0.818539C83.4393 0.861294 84.9957 0.888779 86.1125 0.974287C86.9661 1.01399 87.559 1.04147 88.0318 1.06285C88.502 1.09339 88.8496 1.11477 89.2125 1.13614C89.5728 1.16057 89.9485 1.18501 90.4698 1.2186C90.9937 1.24914 91.6633 1.31938 92.6165 1.42932C93.1864 1.61255 91.2569 1.26746 85.1797 0.977341C88.6298 1.11782 93.1174 1.50566 97.0224 2.14698C100.933 2.76692 104.245 3.65865 105.443 4.06177C99.4656 2.31494 90.8634 0.910156 80.531 0.916263C82.394 0.925425 85.6882 1.01704 88.8419 1.25219C89.629 1.31632 90.4085 1.38045 91.1547 1.44153C91.8984 1.52704 92.6114 1.60644 93.2657 1.67973C93.5928 1.71638 93.9046 1.75303 94.201 1.78662C94.4949 1.82938 94.7709 1.87213 95.0291 1.90878C95.5402 1.98818 95.9721 2.05536 96.2966 2.10728C93.6235 1.70417 93.6848 1.78357 91.6684 1.56063C92.7903 1.70722 93.0152 1.7347 93.4267 1.78967C93.6311 1.81411 93.8841 1.84464 94.316 1.89961C94.7479 1.9668 95.3587 2.05842 96.2864 2.20195C95.3817 2.09201 94.2291 1.89656 92.8312 1.74692C91.4384 1.56063 89.8054 1.42321 87.9602 1.28578C86.4984 1.20333 93.9685 1.80494 88.8879 1.39878C88.686 1.39267 89.5472 1.47512 90.4928 1.55758C90.9656 1.59423 91.4588 1.64614 91.8473 1.69195C92.2383 1.7347 92.5245 1.76219 92.5884 1.76219C92.4504 1.76219 91.556 1.66141 90.7918 1.61866C90.0277 1.57896 89.399 1.55147 89.8028 1.6095C88.5531 1.50566 87.7583 1.44459 87.1858 1.42321C86.6108 1.39267 86.2556 1.37129 85.8799 1.35297C85.1286 1.30411 84.2954 1.27357 81.4612 1.22165C82.5039 1.28884 84.6609 1.30411 86.8689 1.43542C87.973 1.47512 89.0872 1.5759 90.0839 1.65225C91.0806 1.71944 91.9546 1.82938 92.5782 1.90878C91.6914 1.77746 96.6468 2.2783 91.6582 1.71027C92.8696 1.82327 94.1295 1.93626 95.3741 2.14698C95.9951 2.2447 96.6161 2.34548 97.2294 2.44321C97.8402 2.56231 98.4408 2.68141 99.0286 2.79746C98.6376 2.75165 97.9016 2.60506 97.0557 2.46153C96.2072 2.33632 95.2514 2.19279 94.431 2.07063C93.8458 2.01872 94.2394 2.09506 95.0444 2.24165C95.4456 2.31189 95.9516 2.40045 96.4883 2.49207C96.7566 2.53788 97.0327 2.58674 97.3087 2.63255C97.5821 2.68752 97.8556 2.74554 98.1188 2.79746C100.227 3.23111 101.715 3.54566 98.0779 2.91961C97.7636 2.87991 98.2338 2.97153 98.8932 3.09368C99.5525 3.21279 100.396 3.36548 100.818 3.47542C96.2813 2.56231 90.7535 1.8874 85.1592 1.67057C85.6346 1.69806 86.506 1.74997 87.5743 1.81105C88.6425 1.87824 89.9076 1.99734 91.1726 2.10117C92.4325 2.25081 93.6976 2.36686 94.7582 2.5165C95.8187 2.66309 96.6825 2.78524 97.1502 2.84937C98.6223 3.11811 98.4025 3.09063 97.5821 2.9471C96.7618 2.80967 95.3306 2.62339 94.3952 2.4768C94.8374 2.56842 95.9695 2.73027 97.4594 2.96847C98.2031 3.10285 99.0337 3.25249 99.9154 3.41129C100.795 3.58536 101.72 3.79608 102.655 3.99458C103.588 4.2053 104.521 4.46488 105.428 4.68781C106.333 4.92601 107.194 5.21003 107.991 5.44212C108.39 5.55512 108.766 5.68949 109.121 5.8147C109.473 5.93991 109.806 6.05595 110.11 6.16284C110.414 6.26972 110.69 6.36745 110.935 6.45296C111.181 6.53847 111.385 6.63619 111.559 6.70338C111.761 6.8011 111.454 6.66673 110.848 6.4499C110.24 6.24224 109.338 5.9338 108.367 5.60398C107.385 5.32302 106.345 4.99625 105.456 4.76416C104.567 4.54428 103.841 4.36715 103.511 4.29691C102.969 4.14117 102.555 4.0526 101.919 3.90602C101.28 3.77165 100.424 3.5426 98.9622 3.3044C100.677 3.59452 100.414 3.55787 99.9691 3.46015C99.5244 3.37464 98.8983 3.25554 99.8847 3.41434C98.9724 3.2647 98.0907 3.11811 97.2141 2.97153C96.3375 2.85243 95.4661 2.73333 94.5793 2.61117C92.8031 2.40045 90.9579 2.20195 88.8521 2.07369C89.9178 2.18057 91.0755 2.26303 92.2945 2.42488C92.9053 2.49512 93.5314 2.57147 94.1729 2.64476C94.8118 2.73943 95.4635 2.83716 96.128 2.93488C96.4602 2.98374 96.795 3.03261 97.1323 3.08452C97.4671 3.1456 97.807 3.20668 98.1469 3.26776C98.8267 3.39602 99.5167 3.52428 100.209 3.65255C101.589 3.9671 102.997 4.25416 104.388 4.65422C104.981 4.80997 105.54 4.92907 106.062 5.09092C106.583 5.24667 107.076 5.39326 107.552 5.53374C108.505 5.79637 109.358 6.12925 110.217 6.42242C111.932 7.0332 113.603 7.75086 115.796 8.83193C115.796 8.83193 115.776 8.82888 115.737 8.81361C115.699 8.79834 115.643 8.77391 115.574 8.74337C115.433 8.68229 115.236 8.59373 115.009 8.4899C114.554 8.28224 113.974 8.0196 113.478 7.79361C112.471 7.39661 111.812 7.14619 113.205 7.73559L113.22 7.71116ZM109.785 5.83302C109.003 5.70476 106.657 5.37188 104.301 5.11841C101.942 4.87715 99.5704 4.70614 98.7807 4.6817C100.912 4.81608 103.069 4.9932 105.231 5.24057C107.396 5.47571 109.568 5.79943 111.74 6.21475C113.915 6.61481 116.077 7.16451 118.221 7.82721C120.371 8.47463 122.476 9.32666 124.534 10.3222C125.042 10.5849 125.564 10.82 126.065 11.104L127.565 11.9652C128.063 12.2584 128.538 12.5974 129.029 12.9119C129.272 13.0738 129.52 13.2265 129.755 13.3975L130.458 13.9289C132.339 15.3245 134.135 16.9247 135.699 18.754C137.266 20.5772 138.615 22.6477 139.497 24.9381C140.371 27.2255 140.734 29.7297 140.448 32.1758C140.174 34.625 139.315 36.9765 138.145 39.099C136.977 41.2245 135.508 43.1546 133.941 44.9166C130.782 48.4378 127.151 51.2382 123.412 53.5317C119.67 55.8434 115.804 57.6513 112.021 59.3066C108.239 60.9526 104.526 62.3727 100.927 63.5789C101.819 63.2705 102.859 62.9346 103.935 62.5345C104.475 62.336 105.024 62.1314 105.576 61.9268C106.128 61.7252 106.68 61.5176 107.214 61.3007C109.366 60.4701 111.313 59.6272 112.349 59.2058C111.324 59.6516 110.383 60.0609 109.744 60.3357C110.452 60.0364 111.216 59.7097 112.037 59.3615C112.857 59.0164 113.716 58.6072 114.631 58.201C116.455 57.3796 118.436 56.4145 120.504 55.2876C124.631 53.0339 129.124 50.0594 133.029 45.9947C134.971 43.9699 136.785 41.6765 138.183 39.1601C138.876 37.8988 139.466 36.5734 139.88 35.2022C140.289 33.831 140.547 32.4263 140.591 31.0306C140.701 28.2363 139.972 25.555 138.84 23.3074C137.703 21.0505 136.228 19.1846 134.759 17.6454C134.953 17.8562 135.17 18.0883 135.385 18.3204C135.592 18.5586 135.799 18.7998 135.985 19.0136C136.346 19.4564 136.624 19.8015 136.676 19.8656C135.993 18.9708 135.122 17.9631 134.084 16.9369C133.821 16.6865 133.55 16.4269 133.277 16.1643C132.99 15.9169 132.696 15.6635 132.4 15.41C132.103 15.1535 131.799 14.8939 131.493 14.6313C131.173 14.39 130.849 14.1457 130.519 13.8983C127.894 11.9164 124.797 10.2215 121.792 9.01517C118.781 7.81194 115.893 7.02709 113.703 6.55679C112.612 6.30943 111.689 6.15368 111.017 6.01931C110.34 5.91242 109.91 5.84523 109.788 5.83302H109.785ZM97.1809 2.68141L97.1911 2.60201C89.951 1.42321 81.5303 1.0201 73.02 1.47512C64.5098 1.91794 55.9127 3.20668 48.279 5.04817C55.2508 3.40823 61.4149 2.50123 67.0117 1.9668C72.6086 1.42932 77.6431 1.26441 82.4043 1.3774C82.0414 1.3774 82.4452 1.39267 82.5065 1.39878C82.5372 1.40183 82.4809 1.40183 82.2024 1.39878C81.9213 1.38962 81.4178 1.38656 80.5514 1.39878C84.39 1.43848 86.7974 1.56369 89.1205 1.74081C89.7006 1.78662 90.2781 1.83243 90.8685 1.88129C91.4614 1.93015 92.0671 2.00955 92.7111 2.07674C94.0017 2.20195 95.4328 2.42183 97.1809 2.68446V2.68141ZM74.0295 0.797162C71.2822 0.894886 67.3823 1.18501 63.3419 1.67057C59.3014 2.15003 55.1306 2.86464 51.8288 3.5762C52.6108 3.40213 53.7685 3.19752 54.985 2.95931C56.2015 2.72722 57.4869 2.53177 58.5169 2.35464C60.5844 2.0462 61.6449 1.90878 59.2043 2.2783C61.1645 2.00345 63.8913 1.62171 66.6233 1.35908C67.3056 1.29189 67.988 1.22471 68.6576 1.16057C69.3271 1.10866 69.9865 1.0598 70.6203 1.01093C71.8879 0.900994 73.0583 0.855186 74.032 0.800216L74.0295 0.797162ZM147.09 37.5476C146.121 38.7203 145.912 38.9219 145.978 38.8455C146.039 38.7631 146.356 38.3813 146.387 38.3203C145.853 38.9494 145.306 39.551 144.754 40.1343C144.202 40.7145 143.64 41.2825 143.047 41.82C141.869 42.8919 140.624 43.8447 139.328 44.764C138.682 45.2251 138.02 45.6771 137.348 46.1382C136.673 46.5963 135.998 47.0696 135.275 47.5399C134.917 47.7781 134.554 48.0163 134.184 48.2606C133.816 48.508 133.443 48.7523 133.054 48.9814C132.28 49.4425 131.49 49.9494 130.654 50.4197C131.304 50.0838 132.303 49.473 133.56 48.7371C134.176 48.337 134.853 47.8972 135.579 47.43C136.305 46.9597 137.044 46.4436 137.836 45.9122C139.407 44.8403 141.12 43.6523 142.732 42.2201C143.136 41.8658 143.53 41.4902 143.918 41.1084C144.299 40.7267 144.669 40.3389 145.032 39.9449C145.758 39.1601 146.451 38.3538 147.092 37.5446L147.09 37.5476ZM90.434 64.3088C90.4468 64.3149 90.6589 64.2813 91.0167 64.2203C91.3771 64.1653 91.8831 64.0615 92.4888 63.9424C93.0945 63.8232 93.7972 63.6828 94.5486 63.5331C95.2999 63.3682 96.0973 63.1911 96.8972 63.014C97.2959 62.9254 97.6946 62.8338 98.0881 62.7452C98.4791 62.6475 98.865 62.5528 99.2382 62.4612C99.9818 62.2749 100.677 62.1009 101.275 61.9512C101.868 61.7863 102.364 61.6489 102.711 61.5512C102.885 61.4992 103.02 61.4595 103.115 61.4321C103.21 61.4046 103.258 61.3862 103.261 61.3832C102.072 61.6977 101.048 61.9695 100.084 62.1955C99.1206 62.4246 98.2236 62.6658 97.2857 62.8674C96.3477 63.075 95.3792 63.3071 94.2726 63.5392C93.718 63.6522 93.1302 63.7744 92.4964 63.9026C91.8626 64.034 91.1828 64.1714 90.4417 64.3027L90.434 64.3088ZM83.0125 2.318C82.9614 2.33021 81.8242 2.37907 82.0772 2.34548C78.9184 2.52566 74.2007 2.81883 69.9916 3.34105C71.962 3.13644 68.6652 3.48153 68.1362 3.58536C66.9504 3.71057 66.2246 3.80829 63.5131 4.15644C59.7614 4.66643 64.1622 4.05871 69.736 3.41434C72.5268 3.09063 75.6191 2.80662 78.1262 2.6356C80.6332 2.46458 82.5576 2.37907 83.0125 2.36075C83.0125 2.36075 83.0585 2.36075 83.1326 2.36075C83.2067 2.36075 83.3064 2.3577 83.4137 2.35464C83.6259 2.34854 83.861 2.33632 83.9479 2.32716C81.0344 2.4371 86.3144 2.20195 83.0125 2.32105V2.318ZM132.962 13.2173C133.486 13.6693 133.898 14.0205 134.207 14.2862C134.519 14.5488 134.713 14.7565 134.838 14.8664C135.081 15.0955 134.994 15.0099 134.692 14.7229C134.398 14.4236 133.854 13.9808 133.22 13.425C132.597 12.8508 131.81 12.295 131.053 11.7179C130.68 11.4216 130.289 11.1712 129.921 10.93C129.553 10.6887 129.205 10.4597 128.891 10.255C128.582 10.0413 128.29 9.89469 128.063 9.75726C127.833 9.62595 127.654 9.52211 127.547 9.46103C127.33 9.33582 127.391 9.37247 127.864 9.64427C127.981 9.71145 128.124 9.79391 128.296 9.89163C128.467 9.98936 128.666 10.0993 128.886 10.252C129.331 10.5452 129.89 10.9116 130.58 11.3667C127.667 9.32666 124.03 7.46074 120.033 6.08955C118.032 5.42074 115.949 4.83745 113.828 4.37326C111.707 3.92739 109.555 3.53344 107.411 3.26776C98.842 2.16836 90.4928 2.07979 84.8755 2.26608C89.1869 2.14087 93.3807 2.18668 97.5029 2.40656C99.5653 2.52261 101.605 2.66003 103.636 2.86159C104.654 2.9471 105.666 3.08147 106.678 3.19141L108.193 3.39907C108.697 3.46626 109.203 3.5365 109.703 3.62506L111.211 3.87548L112.717 4.16865L113.468 4.31829L114.217 4.48931L115.717 4.84051L117.209 5.24667L117.956 5.45128L118.697 5.68643C119.19 5.84523 119.686 6.00404 120.182 6.16284C120.672 6.34607 121.163 6.5293 121.654 6.71254L122.392 6.99044L123.12 7.30499C123.606 7.51571 124.097 7.72032 124.58 7.9402C125.536 8.42882 126.512 8.86553 127.45 9.4305C129.356 10.4749 131.186 11.7698 132.96 13.2143L132.962 13.2173ZM114.674 4.48931C113.56 4.20835 112.673 4.0465 111.914 3.8938C111.155 3.73195 110.516 3.64949 109.893 3.53955C109.269 3.42961 108.656 3.3441 107.943 3.24638C107.587 3.19446 107.207 3.14255 106.785 3.08147C106.366 3.02955 105.906 2.97458 105.392 2.91045C94.6483 1.7683 84.5587 1.90267 74.9521 2.73333C72.5498 2.94099 70.173 3.20362 67.8321 3.48763C65.4911 3.76859 63.1681 4.05871 60.8629 4.37326C56.2551 4.99625 51.7163 5.71392 47.2338 6.64535C42.7512 7.57373 38.3172 8.69756 33.9496 10.1818C29.5846 11.6629 25.2733 13.4677 21.1076 15.8253C19.0248 17.0011 16.9803 18.3112 14.9946 19.7771C14.7467 19.9603 14.4962 20.1374 14.2509 20.3298L13.5174 20.907L12.784 21.4872L12.0658 22.098C11.1024 22.889 10.1414 23.7838 9.24953 24.7335C7.45548 26.6391 5.82499 28.7982 4.43217 31.2169C3.04958 33.6356 1.89189 36.3383 1.29898 39.3372C1.85355 36.5612 2.9218 33.9654 4.25583 31.5803C5.59498 29.1952 7.20759 27.0026 9.02975 25.0267C9.93955 24.0464 10.9209 23.1027 11.9304 22.269L12.6843 21.6308C12.9373 21.417 13.198 21.2215 13.4561 21.0169L14.233 20.4062C14.4937 20.2015 14.762 20.0153 15.0252 19.8198C17.1464 18.2593 19.3724 16.8484 21.675 15.578C26.2828 13.0371 31.1921 11.0674 36.2369 9.50074C41.2843 7.93409 46.4722 6.76751 51.7087 5.83302C56.9477 4.89853 62.2404 4.19614 67.5305 3.55787C72.8258 2.89518 78.1568 2.42488 83.4623 2.22638C88.7703 2.02482 94.0579 2.08285 99.2739 2.41878C104.485 2.76386 109.652 3.31051 114.666 4.48931H114.674ZM58.8772 4.61757C61.6782 4.19614 66.8482 3.58841 68.1234 3.40823C65.3148 3.74111 60.1525 4.39159 58.8772 4.61757ZM125.957 54.7807C125.277 55.2021 123.767 56.1549 121.993 57.1383C120.222 58.1308 118.193 59.1539 116.55 59.9295C118.165 59.1722 119.456 58.537 120.879 57.7796C122.3 57.0192 123.862 56.1519 125.955 54.7776L125.957 54.7807ZM45.3988 9.41217C39.9809 10.6521 34.2998 12.3164 29.3827 14.3625C28.4678 14.7381 28.4908 14.7259 28.9432 14.5335C29.3981 14.3442 30.2798 13.9655 31.1052 13.6571C31.9256 13.3303 32.6795 13.0616 32.8533 13.0005C32.9402 12.9699 32.8788 12.9883 32.6105 13.086C32.3396 13.1776 31.8617 13.3517 31.1154 13.6418C32.36 13.141 34.8467 12.237 37.5761 11.4308C40.3029 10.6123 43.27 9.88552 45.3988 9.41217ZM82.3889 2.318C84.3798 2.40351 83.7153 2.37602 85.149 2.47985C84.2801 2.43099 83.1914 2.41267 82.0593 2.37297C80.9246 2.34548 79.7464 2.36075 78.6961 2.34854C80.1451 2.33021 81.9085 2.30884 82.3915 2.30273C83.4393 2.33327 82.9001 2.33021 82.3915 2.31494L82.3889 2.318Z" fill="#B8C9C3"/>
</svg>
