<svg width="60" height="59" viewBox="0 0 60 59" fill="none" xmlns="http://www.w3.org/2000/svg">
<path fill-rule="evenodd" clip-rule="evenodd" d="M42.5206 58.2439V29.122H59.9813L60 29.097L43.3892 1.05614C43.0018 0.387461 42.2831 0 41.5144 0H2.20602C0.993646 0 0 0.999898 0 2.21852V56.0254C0 57.244 0.993646 58.2439 2.20602 58.2439H42.5206Z" fill="#124A36"/>
<path d="M33.2045 14.5297C33.2045 16.7857 31.4109 18.6355 29.2174 18.6355H23.8867V10.4801H29.2174C31.4047 10.4801 33.2045 12.2737 33.2045 14.5297Z" fill="#FFFAE8"/>
<path d="M39.9544 42.6291C40.1231 42.6541 40.3481 42.754 40.4793 42.7291C40.2731 42.6541 40.1168 42.6228 39.9544 42.6291ZM30.9928 42.6478C31.0115 42.5603 31.249 42.5603 31.3677 42.5166C31.349 42.6041 31.1115 42.6041 30.9928 42.6478ZM37.4984 42.1854C37.4359 42.2291 37.2421 42.1666 37.1734 42.1479C37.2484 42.0979 37.4109 42.1666 37.4984 42.1854ZM43.8477 43.8289C43.8102 43.8539 43.6227 43.7602 43.6165 43.7165C43.7352 43.7789 43.7852 43.7602 43.8477 43.8289ZM41.9541 43.0728C41.9916 43.029 42.1104 43.1165 42.1791 43.129C42.1791 43.104 42.1354 43.0915 42.1041 43.0853C42.1354 43.0415 42.2416 43.129 42.3041 43.1353C42.2729 43.1478 42.2479 43.1478 42.2041 43.1478C42.2729 43.2227 42.4916 43.2602 42.6103 43.3165C42.4166 43.2977 42.1229 43.1603 41.9479 43.079L41.9541 43.0728ZM37.8796 42.0166C37.8358 42.0604 37.6671 41.9979 37.5796 42.0041C37.6233 41.9604 37.7921 42.0229 37.8796 42.0166ZM46.5662 45.3538C46.5162 45.2913 46.5412 45.2288 46.4662 45.1538C46.5412 45.1351 46.6474 45.285 46.5662 45.3538ZM37.6296 38.267C37.5546 38.3108 37.3359 38.2483 37.2046 38.2545C37.2796 38.2108 37.4984 38.2733 37.6296 38.267ZM46.3787 40.5418C46.4287 40.5168 46.5162 40.6418 46.6412 40.6793C46.5537 40.7043 46.4537 40.6043 46.3787 40.5418ZM41.7729 38.4982C41.8667 38.4732 42.0854 38.5732 42.2291 38.6045C42.1791 38.6607 41.8479 38.5482 41.7729 38.4982ZM40.5105 38.2233C40.5855 38.1608 40.8168 38.242 40.9792 38.267C40.9043 38.3233 40.6355 38.2045 40.5105 38.2233ZM47.2723 45.3413C47.2223 45.2975 47.1911 45.2163 47.0911 45.2163C47.0474 45.0913 46.9474 44.9663 46.8099 44.8351C46.7911 44.8226 46.7724 44.8351 46.7599 44.8101C46.7411 44.8538 46.6287 44.8851 46.7161 44.9413C46.5787 44.9726 46.5037 44.7601 46.5537 44.7164C46.5037 44.6476 46.4599 44.6726 46.4099 44.6289C46.4537 44.7601 46.4474 44.8476 46.5849 44.9288C46.5224 44.9976 46.5037 45.0038 46.4537 45.1163C46.3349 45.0288 46.3162 45.0601 46.2099 45.0851C46.1725 45.0351 46.1287 44.9788 46.0662 44.9226C46.0287 44.9038 46.01 44.9226 45.9787 44.9038C45.9287 44.9476 46.0162 44.9788 45.96 45.0163C44.9913 44.1227 43.604 43.5415 42.1979 43.004C41.7792 43.029 41.6417 42.829 41.198 42.7291C41.2292 42.8103 41.4729 42.829 41.5479 42.8978C40.4918 42.6041 39.3482 42.2978 38.4608 42.2604C38.0421 42.1104 37.4296 42.0166 36.9297 42.0041C36.8234 42.0041 36.9297 42.0541 36.8672 42.0604C36.5172 42.0166 36.511 41.9979 36.186 42.0041C36.2297 41.8729 36.4922 41.8854 36.7297 41.9104C36.4922 41.8666 35.9985 41.8104 35.986 41.8729C35.4423 41.8604 35.0299 41.8729 34.4362 41.9041C34.3737 41.9479 34.2424 41.9416 34.2299 42.0166C34.0175 42.0166 33.7862 42.0479 33.6488 42.1041C33.6925 42.1479 33.855 42.0916 33.9425 42.1041C33.78 42.2041 33.3175 42.2166 33.2363 42.1041C32.9738 42.1479 32.6989 42.1666 32.4489 42.2166C32.1989 42.2666 31.9614 42.3291 31.7677 42.4041C31.5427 42.3478 31.3053 42.3916 31.0615 42.4603C30.8178 42.5353 30.5741 42.6541 30.3054 42.7103C30.6678 42.6478 30.1304 42.829 30.0929 42.854C29.8117 42.979 29.5492 43.1353 29.3242 43.2727C29.0992 43.3977 28.9055 43.504 28.718 43.5915C28.5305 43.679 28.3681 43.7664 28.2431 43.8727C27.5869 44.3601 26.9557 44.8288 26.4495 45.26C26.4058 45.3163 26.412 45.3663 26.3745 45.4225C26.3558 45.41 26.3745 45.385 26.3933 45.3725C26.1808 45.4538 25.8246 45.535 25.8183 45.21C25.7183 45.1663 25.5996 45.21 25.4496 45.2475C25.3309 44.9476 24.9809 44.8038 24.9684 44.4414C24.7059 44.4414 24.606 44.1602 24.4185 44.0102C24.2122 43.8477 23.856 43.8102 23.9685 43.429C23.6748 43.1165 23.9685 42.5791 24.481 42.0604C24.9997 41.5604 25.7246 41.1105 26.2245 40.848C26.4683 40.6168 26.7745 40.4543 27.0932 40.3168C27.4057 40.1731 27.7494 40.0543 28.0806 39.8919C28.1806 39.8481 28.1743 39.7919 28.2556 39.7481C29.243 39.4169 30.0866 39.0669 30.9553 38.8732C30.3991 38.9607 30.1429 39.0294 29.5242 39.2107C29.2617 39.2732 29.6304 39.1482 29.7304 39.1294C31.6552 38.4857 34.2174 38.1483 36.7359 38.2795C36.9984 38.2983 37.3296 38.392 37.4671 38.317C37.8546 38.3733 38.0983 38.4045 38.4483 38.4233C38.467 38.392 38.2608 38.3733 38.2733 38.4045C38.5795 38.2983 39.3044 38.5295 39.8106 38.5482C39.2669 38.2983 37.8796 38.2358 37.2359 38.1608C38.3983 38.2045 39.3919 38.3795 40.4605 38.5107C40.4356 38.5545 40.623 38.5295 40.5543 38.592C41.1355 38.6982 41.6229 38.8357 42.0979 38.9732C42.4291 39.0544 42.8041 39.0732 43.0853 39.2732C45.0913 39.9793 46.7661 40.798 48.1785 42.0541C48.0535 42.0416 48.0785 41.8979 47.941 41.8729C48.016 41.9729 48.1472 42.0791 48.191 42.1666C48.391 42.2166 49.0159 42.854 48.9659 43.0915C48.7847 42.8728 48.6659 42.6853 48.4097 42.4541C48.4285 42.5416 48.6097 42.6603 48.5722 42.7353C48.4222 42.6353 48.1972 42.3916 48.0473 42.2604C48.0035 42.2354 48.0223 42.2916 48.0473 42.3103C47.6723 42.0229 47.3223 41.5917 46.8411 41.4167C47.0036 41.5479 47.3098 41.6667 47.3973 41.8354C47.3348 41.8354 47.1786 41.6604 47.0286 41.5979C47.1536 41.7479 47.2661 41.8104 47.4473 41.9541C47.3536 41.7917 47.5723 42.0354 47.6973 42.0979C47.3598 41.9416 46.9974 41.7292 47.1099 41.9979C47.5161 42.3041 47.5848 42.3353 47.8598 42.5541C47.8348 42.4853 47.7535 42.4666 47.8598 42.4416L47.716 42.3291C47.866 42.4541 48.0348 42.4353 48.2597 42.5853C48.2285 42.5978 48.1785 42.5416 48.1285 42.5103C48.1035 42.5791 48.1722 42.6541 48.2597 42.7478C48.216 42.7915 48.1098 42.6541 48.0848 42.7291C48.066 42.7853 48.1597 42.7666 48.1972 42.8228C48.166 42.879 48.0598 42.7228 48.016 42.7541C48.1348 42.854 48.2285 43.0103 48.4597 43.1853C48.4285 43.1853 48.3972 43.1853 48.3472 43.1415C48.3785 43.2415 48.5597 43.329 48.6472 43.4102C48.566 43.4665 48.7159 43.5915 48.6597 43.654C48.566 43.4352 48.4285 43.479 48.4472 43.354C48.2347 43.354 48.041 43.054 47.7598 42.904C47.8723 43.029 48.0535 43.179 48.191 43.3165C48.1535 43.3165 48.1098 43.2915 48.0598 43.254C48.0598 43.279 48.1098 43.3977 48.141 43.3227C48.191 43.429 48.0098 43.3102 47.9723 43.304C48.0035 43.3415 48.0348 43.3727 47.9535 43.429C47.8223 43.3415 47.6723 43.0478 47.4536 43.0228C47.4286 42.979 47.3911 42.9353 47.3848 42.8915C47.2723 42.8415 47.1973 42.8478 47.0474 42.7228C47.2411 42.804 47.0099 42.6416 47.0286 42.5666C46.9849 42.6228 46.6474 42.3416 46.4787 42.2791C46.6099 42.3978 46.9286 42.5978 47.0349 42.6666C47.0036 42.6666 46.9661 42.6541 46.9286 42.6416C47.1723 42.8353 47.4348 43.0915 47.741 43.204C47.7035 43.2603 47.8223 43.3477 47.866 43.4227C47.966 43.4977 48.0035 43.4102 48.116 43.504C48.041 43.6227 47.9723 43.5915 47.791 43.4602C47.9598 43.6415 48.316 43.8602 48.191 44.1039C48.1472 43.8352 47.9223 43.6165 47.6286 43.3915C47.691 43.5227 47.9973 43.6914 48.016 43.8102C47.9473 43.7414 47.916 43.7727 47.8473 43.7477C47.866 43.8539 47.8473 43.7914 47.916 43.9164C47.8348 43.9164 47.8223 43.7789 47.7035 43.7039C47.6223 43.7164 47.8348 43.8727 47.6848 43.7727C47.6473 43.7914 47.7285 43.9039 47.7723 43.8727C47.7473 43.8852 47.6098 43.8727 47.5786 43.9477C47.4411 43.8477 47.5161 43.8789 47.3536 43.7727C47.3348 43.9039 47.5973 43.9352 47.6286 44.0414C47.6411 43.9852 47.8285 44.0414 47.6973 43.9102C47.8285 43.8977 47.8285 44.0289 47.8473 44.1227C47.791 44.1477 47.7785 44.0477 47.7223 44.0164C47.5598 44.0789 47.7473 44.5289 47.5098 44.4289C47.4598 44.4539 47.5286 44.4976 47.5348 44.5414C47.3723 44.4976 47.2723 44.3414 47.0974 44.2601C47.1224 44.3226 47.3161 44.4976 47.3911 44.5164C47.4473 44.5976 47.3286 44.5414 47.2973 44.4851C47.2536 44.6164 47.6161 44.8163 47.666 44.9038C47.6411 44.9601 47.4536 44.8101 47.3661 44.8351C47.3661 44.7913 47.3661 44.7538 47.2973 44.7038C47.4036 44.7476 47.2973 44.6601 47.3723 44.6601C47.2223 44.6476 47.1536 44.5726 46.9974 44.5476C47.0411 44.6976 47.2036 44.7913 47.2348 44.9976C47.3661 45.0726 47.4223 45.1163 47.4848 45.2538C47.4411 45.2975 47.2911 45.2038 47.3036 45.3038L47.2911 45.3163L47.2723 45.3413ZM37.5484 41.9729C37.4921 42.0229 37.2484 41.9229 37.1859 41.9729C38.292 42.0791 39.5544 42.4291 40.523 42.5353C40.4043 42.4916 40.2106 42.4916 40.1481 42.4291C40.1856 42.4291 40.2168 42.4291 40.2481 42.4103C39.8606 42.3541 38.9732 42.1104 38.442 42.1104C38.4795 42.1104 38.5233 42.1291 38.5357 42.1104C38.267 42.0541 37.5921 41.8979 37.5484 41.9854L37.5484 41.9729ZM47.4911 44.3914L47.5723 44.3039C47.2348 43.9539 46.7599 43.504 46.2599 43.2915C46.6599 43.5602 46.9349 43.7914 47.1599 44.0227C47.1224 44.0227 47.1848 44.0789 47.0724 44.0227C47.2411 44.2164 47.3411 44.1977 47.4848 44.3851L47.4911 44.3914ZM47.5973 43.0103C47.4411 42.879 47.1911 42.5791 46.9411 42.5103C47.0349 42.5791 47.3286 42.7415 47.1474 42.6978C47.2411 42.8165 47.4661 42.9415 47.6036 43.0103L47.5973 43.0103ZM27.5869 40.1731C27.6931 40.1418 27.6369 40.1856 27.6556 40.2293C27.8681 40.1543 28.0743 40.0981 28.3243 39.9731C28.1868 39.9106 27.7931 39.9481 27.5869 40.1668L27.5869 40.1731ZM29.8117 39.3794C29.7804 39.2919 29.3055 39.4294 29.3367 39.5231C29.5304 39.5044 29.5929 39.4419 29.8117 39.3794ZM36.8984 38.5857C36.8984 38.5857 36.8547 38.5982 36.8609 38.5607C36.7359 38.617 36.5672 38.5295 36.4047 38.5795C36.4735 38.6107 36.361 38.567 36.336 38.6232C36.2922 38.592 36.2672 38.6232 36.161 38.6232C35.8798 38.6545 36.8172 38.667 36.8859 38.6607C36.8859 38.6732 36.9172 38.6857 36.9234 38.6607C36.8109 38.6607 37.0172 38.6107 36.8922 38.5982L36.8984 38.5857ZM38.7982 38.767C39.1794 38.8045 38.242 38.6482 38.6982 38.7295C38.2108 38.6482 37.3859 38.5857 36.9672 38.6107C37.6108 38.6232 38.1733 38.717 38.7982 38.7607L38.7982 38.767ZM38.092 38.5357C37.9296 38.4795 37.8921 38.5357 37.7483 38.4545C36.136 38.4545 34.9549 38.3045 33.48 38.4295C34.8549 38.5295 36.5797 38.3983 38.092 38.5357ZM36.0048 38.367C36.111 38.367 36.3047 38.4045 36.3547 38.367C36.2485 38.367 36.0548 38.3295 36.0048 38.367ZM40.4918 38.6107C40.5355 38.692 40.723 38.7357 40.8668 38.7357C40.7418 38.692 40.673 38.6295 40.4918 38.6107ZM35.4548 41.9541C35.2736 42.0166 35.0861 41.9854 34.9174 41.9791C34.7924 41.9479 35.1798 41.9604 34.9736 41.9354C35.0611 41.9104 35.3111 41.9479 35.4486 41.9541L35.4548 41.9541ZM46.2412 45.1288C46.2537 45.1975 46.2412 45.1913 46.2162 45.2725C46.1912 45.2288 46.1475 45.1725 46.1037 45.1288C46.1537 45.1288 46.2037 45.1476 46.2474 45.1163C46.2662 45.1413 46.2474 45.1413 46.2349 45.1351L46.2412 45.1288Z" fill="#9E80F7"/>
</svg>
