<svg width="24" height="24" viewBox="0 0 24 24" fill="none" xmlns="http://www.w3.org/2000/svg">
<path d="M16.558 3.30892C18.1263 4.02623 19.4067 5.27263 20.1852 6.8399C20.9637 8.40717 21.1932 10.2004 20.8354 11.92C20.4776 13.6397 19.5541 15.1816 18.2192 16.2882C16.8843 17.3948 15.2188 17.999 13.501 18C12.0317 17.9999 10.5947 17.5582 9.36849 16.7296C8.14227 15.901 7.18079 14.7221 6.60341 13.3392C6.02603 11.9563 5.85818 10.4302 6.12069 8.95052C6.3832 7.47081 7.06452 6.1026 8.08006 5.01571C8.77987 6.0159 9.70331 6.83023 10.7733 7.3907C10.792 6.16098 11.0756 4.95064 11.6039 3.84598C12.1321 2.74132 12.892 1.76956 13.8293 1C14.5446 1.982 15.4802 2.77358 16.557 3.30799L16.558 3.30892Z" stroke="#546E7A" stroke-width="2" stroke-linecap="round" stroke-linejoin="round"/>
<path d="M12.3496 12.2612L2.34961 22.2612" stroke="#546E7A" stroke-width="2" stroke-linecap="round"/>
<ellipse cx="13.7512" cy="10.7468" rx="2.26354" ry="3.0352" transform="rotate(45 13.7512 10.7468)" fill="#546E7A"/>
</svg>
