<svg width="48" height="48" viewBox="0 0 48 48" fill="none"
    xmlns="http://www.w3.org/2000/svg">
    <path d="M13.9449 24.538C13.9449 25.0067 13.9282 25.6846 13.9533 26.0111C13.97 25.4168 13.97 24.9732 13.9449 24.538ZM32.8522 14.963C32.7183 14.8542 31.9148 14.2432 31.3373 14.1511C31.4293 14.1511 31.7139 14.2265 32.0236 14.3855C32.3333 14.5445 32.6513 14.7705 32.8522 14.963ZM13.97 17.6413C13.9617 17.5911 13.9533 17.273 14.0035 17.022C14.0454 16.7541 14.1291 16.4863 14.1876 16.3524C14.1458 16.4947 14.0788 16.7374 14.037 16.9801C13.9868 17.2145 13.9784 17.5325 13.9784 17.6413H13.97ZM19.2681 33.9874C19.2095 34.0042 18.5901 34.0042 18.5315 33.9874C18.9082 33.9874 19.0254 33.9707 19.2681 33.9874ZM14.0035 30.1959C14.0035 30.1959 14.0202 30.3382 14.0119 30.4721C14.0119 30.6563 14.0286 30.8823 14.0537 31.0246C14.0621 30.9994 14.0286 30.8069 14.0286 30.6647C14.0454 30.7149 14.0956 31.2589 14.1876 31.4933C14.1542 31.4096 14.1123 31.284 14.0788 31.1417C14.0956 31.5184 14.4638 32.3553 14.8656 32.7738C14.6061 32.4976 14.3048 32.0373 14.1458 31.5184C13.9784 31.0162 13.9951 30.3801 14.0035 30.1959ZM14.0788 18.6289C14.0537 18.5118 14.0788 18.0598 14.0705 17.8087C14.0956 17.9259 14.0705 18.3779 14.0788 18.6289ZM28.6171 33.887C28.3576 33.8786 28.2823 33.8452 27.9643 33.8452C28.1065 33.8117 28.659 33.8368 28.6171 33.887ZM16.1629 17.2312C16.1545 17.1224 16.2968 16.8462 16.4056 16.7123C16.3554 16.796 16.188 17.0554 16.1629 17.2312ZM21.235 31.7444C21.3187 31.7192 21.6116 31.7611 21.8878 31.7444C21.7539 31.7778 21.4442 31.7611 21.235 31.7444ZM16.3973 26.5049C16.4224 26.6974 16.3973 27.2414 16.4056 27.5678C16.3638 27.4925 16.3805 26.7058 16.3973 26.5049ZM16.3889 23.5504C16.4307 23.6926 16.414 24.2451 16.4224 24.6133C16.3805 24.471 16.414 23.8098 16.3889 23.5504ZM30.1822 33.6024C29.973 33.6024 29.747 33.5857 29.5294 33.6275C29.1695 33.6024 28.6673 33.5857 28.1317 33.5857C28.0647 33.5857 28.048 33.5941 27.9643 33.5941C28.0145 33.6192 27.8303 33.6694 28.1317 33.661C27.8722 33.7196 27.2947 33.661 27.3114 33.6275C27.0603 33.6275 27.0101 33.6359 26.8176 33.6359C27.1608 33.6778 27.3114 33.7196 27.8052 33.7029C27.8052 33.7531 27.7718 33.7615 27.8889 33.8284C27.437 33.8284 27.4453 33.8535 27.2361 33.9037C27.0436 33.8954 26.8343 33.887 26.5833 33.8786C26.4744 33.8786 26.4577 33.8954 26.3405 33.9037C26.2819 33.9372 26.5665 33.9289 26.5079 33.9623C24.4741 33.954 22.4319 33.9372 20.3729 33.9289H18.0461C17.7783 33.9289 17.5774 33.9456 17.1422 33.9037C15.6021 33.7531 14.2797 32.4474 14.1207 30.899C14.0537 30.4638 14.0621 30.2629 14.0537 30.0453C14.0537 29.8193 14.0537 29.6184 14.0537 29.4008C14.0537 28.974 14.0788 28.522 14.0705 27.9026C14.0286 28.0449 14.0621 28.7061 14.037 28.9656C14.0119 25.9274 14.0537 22.6966 14.0035 20.2694C14.0286 19.6668 14.037 18.947 14.0454 18.2021V17.6413C14.0454 17.4404 14.0705 17.1056 14.1207 16.8546C14.2379 16.3189 14.4722 15.8167 14.7819 15.415C15.0497 15.0885 14.7484 15.3982 14.9158 15.2057C15.4096 14.6784 15.7612 14.511 16.0876 14.3687C16.414 14.2348 16.7404 14.1009 17.41 14.0591C17.251 14.1093 16.1545 14.2265 15.418 14.8542C15.7863 14.5529 16.4726 14.2348 17.1003 14.1679C17.251 14.1428 17.4016 14.1428 17.5355 14.1428H17.7866C17.9289 14.1428 18.021 14.1344 18.0294 14.126C19.5192 14.126 20.6491 14.126 22.2979 14.1176C22.4821 14.1009 22.8336 14.1009 22.8754 14.0591C23.4781 14.0591 24.1142 14.0591 24.5159 14.0339C24.3987 14.0088 23.9468 14.0339 23.6957 14.0256C24.1728 13.9837 25.4701 13.9921 25.6626 14.0591C27.1608 14.0591 28.7426 14.0674 29.9228 14.0256L30.3915 14.0591C30.5673 14.0674 30.8518 14.0842 31.0862 14.1344C31.58 14.2265 32.0738 14.4357 32.509 14.7621C32.9443 15.0802 33.3293 15.5154 33.5887 16.0343C33.7227 16.2938 33.8147 16.57 33.8817 16.8629C33.9068 17.0052 33.9319 17.1559 33.9403 17.3065C33.9486 17.4572 33.957 17.6162 33.9486 17.6915C33.9486 17.5827 33.9486 17.4153 33.9486 17.34C33.9486 17.2563 33.9486 17.2228 33.9486 17.2312C33.9486 17.2312 33.9737 17.4321 33.9737 17.6162C33.9737 17.9175 33.9737 18.3695 33.9821 18.4364C33.9989 19.3236 34.024 20.2359 34.0407 21.0645C34.0742 22.6129 34.0407 23.8684 34.0491 24.923C34.0658 26.2203 34.0658 27.526 34.0491 28.7815C34.0491 29.0911 34.0491 29.4008 34.0407 29.7105V30.3885L34.0156 30.6647C33.9654 31.5602 33.5636 32.3972 32.9861 32.958C32.7434 33.2007 32.6262 33.3262 32.3249 33.5187C32.3249 33.5104 32.4504 33.435 32.5258 33.3681C32.0989 33.6527 31.5381 33.8117 31.2452 33.8201C30.9439 33.8201 30.9355 33.7866 31.4461 33.5857C31.3373 33.5606 30.8518 33.661 30.4417 33.6024C30.7681 33.5187 30.8351 33.4099 30.9272 33.3095C31.0192 33.2091 31.1531 33.1086 31.4963 32.891C31.0192 32.958 31.4126 32.6567 31.3373 32.5395C31.3038 32.4725 31.1866 32.439 31.1531 32.3721C31.1197 32.3051 31.195 32.2298 31.4544 32.0206C31.4293 31.8866 31.6218 31.6858 31.7725 31.3593C31.8478 31.1919 31.9232 30.9994 31.9483 30.7735C31.965 30.6479 31.965 30.581 31.965 30.3801C31.965 30.1959 31.965 30.0034 31.965 29.8109C31.9566 28.2542 32.0069 26.4128 32.0236 25.1741C31.9566 23.7094 32.0571 22.1694 32.032 20.4954C32.032 20.2527 31.9985 20.2192 31.9985 20.0016C31.9985 19.4157 31.9985 18.8466 32.0069 18.2858C32.0069 18.0263 32.0069 17.6915 31.9985 17.499C31.9901 17.3149 31.9483 17.1391 31.8729 16.9801C31.7306 16.6537 31.4796 16.3859 31.1699 16.2268C31.0192 16.1515 30.8518 16.0929 30.6928 16.0678C30.6091 16.0511 30.5254 16.0511 30.4417 16.0427H30.0651C30.2157 16.0427 30.3999 16.0427 30.4836 16.0511C30.5756 16.0511 30.6593 16.0762 30.743 16.0845C30.9104 16.1264 31.0527 16.185 31.195 16.2687C31.4712 16.4277 31.739 16.6872 31.8813 17.1391C31.965 17.5241 31.8395 16.9717 31.7474 16.8546C31.5633 16.5281 31.2536 16.2687 30.8769 16.1599C30.7849 16.1348 30.6844 16.118 30.5924 16.1013H29.2532C27.9643 16.1013 26.6084 16.1096 25.219 16.118C23.8296 16.118 22.39 16.1264 20.942 16.1348C20.2139 16.1348 19.4857 16.1348 18.7492 16.1348H17.6444C17.3263 16.1348 17.1589 16.1682 16.9329 16.2687C16.573 16.4026 16.2382 16.796 16.2131 17.0052C16.1545 17.1308 16.1127 17.2479 16.0959 17.3735C16.0708 17.4907 16.0792 17.5827 16.0708 17.792C16.0708 18.1519 16.0708 18.495 16.0792 18.8968C16.0959 18.9303 16.0959 18.4532 16.0792 18.4867C16.1545 19.173 16.0876 20.9139 16.1211 22.094C16.1629 21.4244 16.1629 20.2862 16.1545 19.1228C16.1545 18.5704 16.1545 18.0012 16.1545 17.4907C16.1713 17.181 16.3052 16.9215 16.4391 16.7541C16.3219 16.9131 16.2382 17.0889 16.2048 17.2647C16.1796 17.3567 16.1713 17.4488 16.1713 17.5409C16.1713 17.6329 16.1713 17.8422 16.1713 17.9928C16.1713 18.6289 16.1713 19.2567 16.1713 19.876C16.1796 21.1064 16.1964 22.3116 16.2048 23.5755C16.1796 23.542 16.2048 23.9521 16.1713 23.8182V27.5093C16.1713 28.3128 16.2299 29.1246 16.1713 29.8863C16.1629 30.6144 16.1545 30.8237 16.3303 31.1501C16.4893 31.443 16.7655 31.6774 17.0752 31.7778C17.2426 31.828 17.3514 31.8532 17.5941 31.8532H18.4311C18.9835 31.8532 19.5359 31.8615 20.0716 31.8699C22.2226 31.895 24.2732 31.9201 26.3154 31.9536C26.0894 31.9871 25.9471 31.9201 25.6626 31.9536C25.922 31.9703 26.2736 31.9787 26.4828 31.9954C26.8762 31.9536 28.751 31.9871 29.0272 32.0959C28.4162 32.0791 27.9559 32.0373 27.2194 32.0373C27.3616 32.0708 27.8303 32.054 27.8722 32.0959C27.4872 32.1126 26.7758 32.0875 26.3154 32.0708C26.1982 32.0708 26.3154 32.0875 26.3991 32.0959C25.3613 32.0959 24.1811 32.0038 23.0345 32.0624C23.5032 32.0791 24.2146 32.0457 24.5912 32.0959C24.4657 32.1126 23.9635 32.0875 23.6036 32.0959C24.0305 32.1294 24.3234 32.121 24.834 32.1294C24.4573 32.0875 25.1688 32.1294 25.4868 32.121C24.6666 32.1545 23.7124 32.1712 24.2565 32.2549H26.3907C26.2485 32.2465 26.0894 32.2549 26.2234 32.2214H25.8132C26.2568 32.2214 26.5247 32.1628 27.1273 32.1545C27.1022 32.1712 26.918 32.1628 26.8009 32.1628C26.8511 32.2047 27.0771 32.2131 27.3784 32.2214C27.3616 32.2549 26.985 32.2382 27.052 32.28C27.1022 32.3135 27.2277 32.2716 27.3784 32.28C27.4202 32.3135 27.0017 32.2884 26.9683 32.3135C27.3114 32.3135 27.7215 32.347 28.366 32.3386C28.3325 32.3553 28.2656 32.3637 28.1233 32.3637C28.3242 32.3972 28.7761 32.3637 29.0272 32.3637C28.9854 32.4223 29.4206 32.4056 29.4373 32.4558C28.9352 32.4056 28.7845 32.4809 28.6171 32.4223C28.2739 32.4976 27.4621 32.4558 26.7339 32.4809C27.1189 32.4976 27.6713 32.4976 28.1317 32.506C28.0814 32.5227 27.9559 32.5227 27.8052 32.5311C27.8387 32.5395 28.1233 32.573 28.048 32.5311C28.2991 32.5562 27.8052 32.573 27.7215 32.5897C27.8303 32.5897 27.9392 32.5897 27.8889 32.6483C27.5207 32.6567 26.8009 32.5897 26.3322 32.6483C26.2234 32.6399 26.0811 32.6315 26.0057 32.6148C25.7212 32.6315 25.5789 32.665 25.1018 32.6483C25.5956 32.6232 24.9093 32.6232 24.8591 32.5813C24.8423 32.6232 23.8129 32.5981 23.386 32.6148C23.7961 32.6399 24.7168 32.6232 25.0265 32.6232C24.9679 32.6315 24.8758 32.6399 24.7838 32.6483C25.5454 32.665 26.4159 32.6818 27.1608 32.6399C27.1859 32.6818 27.5374 32.6734 27.7383 32.6818C28.0396 32.6818 27.9726 32.6232 28.3158 32.6232C28.366 32.6985 28.1986 32.7152 27.6629 32.7236C28.2739 32.7404 29.2448 32.6985 29.4708 32.8324C28.9268 32.7487 28.1651 32.7404 27.2612 32.7571C27.5876 32.7906 28.4246 32.7487 28.6589 32.7906C28.4246 32.7906 28.4246 32.8157 28.2488 32.8241C28.4497 32.8659 28.3325 32.8408 28.6589 32.8659C28.4999 32.891 28.2488 32.8408 27.9224 32.8575C27.7969 32.891 28.4497 32.8826 28.0061 32.891C27.9726 32.9077 28.3074 32.9329 28.3325 32.8994C28.3074 32.9161 28.0145 32.958 28.0898 32.9998C27.6462 33.0082 27.8555 32.9998 27.3533 33.0082C27.5374 33.0668 28.1149 32.9831 28.3409 33.0166C28.2656 32.9914 28.7008 32.9412 28.2572 32.9412C28.4748 32.891 28.7008 32.9412 28.91 32.9747C28.8431 33.0082 28.6506 32.9747 28.4999 32.9747C28.2907 33.0668 29.4792 33.1756 28.8263 33.2258C28.7678 33.2593 28.9937 33.2509 29.0691 33.2593C28.6589 33.3095 28.1735 33.276 27.6713 33.3011C27.8387 33.3179 28.5669 33.3179 28.7343 33.3011C29.0021 33.3179 28.6589 33.3346 28.4916 33.3262C28.6506 33.4016 29.7889 33.3262 30.0483 33.3513C30.1237 33.3848 29.429 33.4016 29.3118 33.4434C29.2114 33.4267 29.1611 33.4099 28.9017 33.4183C29.2114 33.3932 28.8096 33.4016 28.9854 33.3765C28.6589 33.4267 28.3744 33.4183 27.9977 33.4685C28.3744 33.5187 28.8849 33.502 29.3955 33.5606C29.8307 33.5355 30.04 33.5355 30.4584 33.5606C30.4584 33.5941 29.9479 33.6192 30.2157 33.6527L30.1822 33.6024ZM14.0788 17.725C14.0788 17.6832 14.0621 17.6329 14.0705 17.5158C14.0705 17.3902 14.0705 17.2312 14.1039 17.0805C14.1458 16.7709 14.2462 16.4779 14.2713 16.3775C14.1709 16.6369 14.1123 16.9131 14.0788 17.1977C14.0705 17.3316 14.0621 17.499 14.0621 17.5995V17.8924C14.0621 18.2858 14.0621 18.6875 14.0537 19.0893C14.0537 19.8928 14.0454 20.7046 14.037 21.5081C14.0286 23.1151 14.037 24.6719 14.0705 26.0027C14.0705 25.6763 14.0537 25.1322 14.0788 24.9397C14.0788 25.0402 14.0872 25.1239 14.1039 25.1825C14.0872 24.1195 14.1207 21.6169 14.0788 20.1773C14.0788 20.2778 14.0788 20.4117 14.0872 20.4201C14.0872 19.6668 14.1374 17.8003 14.0872 17.7166L14.0788 17.725ZM28.7008 33.1505V33.0835C27.4119 33.0668 25.7295 33.0417 24.3569 33.0835C25.6124 33.0835 26.5498 33.0919 27.3951 33.117C27.3282 33.1337 27.5374 33.1337 27.2277 33.1505C27.9057 33.1672 28.0814 33.1254 28.7008 33.1505ZM26.6502 32.5311C26.1648 32.5311 25.2692 32.4809 24.6833 32.5227C24.9595 32.5227 25.7714 32.506 25.3362 32.5478C25.6877 32.573 26.307 32.5478 26.6502 32.5395V32.5311ZM32.0571 21.709C32.0654 21.4663 32.0738 21.6169 32.0989 21.6253C32.1073 21.1064 32.1324 20.6377 32.124 19.9848C32.0654 20.2359 31.9901 21.0645 32.0571 21.709ZM31.8395 16.7206C31.8395 16.7206 31.9148 16.9131 31.965 17.0973C32.0236 17.2814 32.0403 17.4823 32.0654 17.4823C32.0654 17.181 32.0152 17.0387 31.8311 16.7206H31.8395ZM16.573 16.277C16.573 16.277 16.6232 16.2268 16.6232 16.2519C16.7572 16.1096 17.0417 16.0343 17.2845 15.9757C17.1673 15.9757 17.3598 15.9674 17.3933 15.9423C17.4602 15.9506 17.5021 15.9423 17.7532 15.9423C17.9206 15.9423 17.9038 15.9423 17.7866 15.9339H17.5439C17.4518 15.9339 17.3849 15.9339 17.2928 15.9506C16.9413 15.9841 16.5814 16.2185 16.5479 16.2603C16.5479 16.2603 16.5061 16.277 16.5061 16.2938C16.6484 16.185 16.414 16.4026 16.573 16.2938V16.277ZM15.9202 19.8677C15.9369 20.7632 15.9369 18.5285 15.9286 19.6249C15.9286 19.0474 15.9286 18.2774 15.9286 17.5325C15.9286 17.0136 16.2131 16.5616 16.4726 16.344C16.0792 16.7123 15.8867 17.1391 15.9034 17.7083C15.9034 18.4197 15.9034 19.1228 15.9118 19.8677H15.9202ZM15.9955 18.1435C16.0039 17.9426 15.9955 17.8338 15.9955 17.7166C15.9955 17.5911 15.9955 17.5158 16.0206 17.407C16.0541 16.8043 16.4893 16.2938 17.0082 16.1264C17.1338 16.0845 17.2677 16.0511 17.41 16.0511C17.5188 16.0427 17.795 16.0511 17.9791 16.0511H19.1928C20.7914 16.0594 22.3482 16.0678 24.064 16.0762C22.4737 16.0176 20.6575 16.0092 18.7994 16.0176C18.3474 16.0176 17.8871 16.026 17.4351 16.0343C17.1254 16.0511 16.8241 16.1599 16.5898 16.3524C16.347 16.5365 16.1713 16.796 16.0792 17.0805C16.0374 17.2228 16.0039 17.3651 16.0039 17.5158C16.0039 17.6664 16.0039 17.951 16.0039 18.1519L15.9955 18.1435ZM18.1633 16.0762C17.9289 16.0762 17.4184 16.0594 17.4016 16.0929C17.4602 16.0845 17.636 16.0929 17.8034 16.0929C17.9624 16.0929 18.1047 16.0929 18.1633 16.0762ZM16.1713 23.7094C16.1294 23.8433 16.1378 24.3036 16.1462 24.6133C16.1462 24.312 16.1796 24.1279 16.1713 23.7094ZM19.3936 14.0842C19.8874 14.0507 20.4064 14.0674 20.8667 14.0758C21.2099 14.0925 20.1385 14.0842 20.6993 14.1009C20.465 14.1176 19.7703 14.1009 19.3853 14.0925L19.3936 14.0842ZM27.3867 33.9037C27.5625 33.9289 27.5039 33.9289 27.6295 33.9707L27.052 33.9456C27.1775 33.9289 27.3365 33.9205 27.3784 33.887C27.4704 33.887 27.4202 33.8954 27.3784 33.8954L27.3867 33.9037Z" fill="white"/>
    <path d="M29.1611 22.8473C29.1109 22.6213 29.0188 22.2866 28.9351 22.1359C29.0272 22.4288 29.0774 22.5795 29.1611 22.8473ZM20.942 28.4132C21.0089 28.4132 21.2768 28.6141 21.4442 28.6978C21.3772 28.6978 21.0926 28.522 20.942 28.4132ZM28.7844 26.2287C28.7761 26.3208 28.6422 26.5551 28.5752 26.6305C28.6087 26.53 28.7259 26.3375 28.7844 26.2287ZM25.3696 18.947C25.3696 18.947 25.696 19.0307 25.7211 19.0558C25.5453 18.9889 25.4868 18.9889 25.3696 18.947ZM27.7884 20.4034C27.7884 20.4034 27.6294 20.236 27.5457 20.1857C27.5457 20.2025 27.5959 20.2443 27.6294 20.2778C27.5959 20.2778 27.4788 20.1439 27.4118 20.0937C27.4369 20.102 27.4788 20.1272 27.5206 20.1606C27.4537 20.0518 27.2109 19.8761 27.0519 19.7673C27.2779 19.8928 27.6127 20.2109 27.7884 20.4117V20.4034ZM28.8681 25.7349C28.8681 25.7935 28.7844 26.0027 28.7342 26.1115C28.7342 26.0529 28.843 25.8521 28.8681 25.7349ZM20.9838 19.8007C21.0926 19.7338 21.1345 19.7421 21.2768 19.6585C21.2349 19.717 21.0006 19.851 20.9838 19.8007ZM26.7422 25.5089C26.7422 25.5675 26.6418 25.6847 26.5999 25.7684C26.5999 25.7098 26.7004 25.5926 26.7422 25.5089ZM24.2146 21.006C24.2146 21.006 24.1058 20.9892 24.0304 20.9976C24.0723 20.9641 24.156 20.9976 24.2146 21.006ZM26.5999 22.8724C26.5497 22.839 26.5246 22.6883 26.4577 22.6213C26.5079 22.6213 26.5832 22.8222 26.5999 22.8724ZM26.8259 23.6425C26.7757 23.609 26.7841 23.4583 26.7422 23.3663C26.8008 23.3914 26.7924 23.5755 26.8259 23.6425ZM20.5905 20.4871C20.6574 20.4201 20.7495 20.3615 20.7997 20.2694C21.0089 20.1355 21.168 20.0351 21.3437 19.9263C21.3688 19.9095 21.3688 19.9012 21.4023 19.8761C21.3688 19.8761 21.4107 19.7756 21.3019 19.8593C21.3688 19.7421 21.6367 19.6585 21.645 19.6919C21.7539 19.6417 21.7622 19.625 21.8459 19.5831C21.6785 19.6082 21.5948 19.6082 21.4107 19.7421C21.3856 19.7003 21.394 19.6836 21.3103 19.6585C21.4944 19.5413 21.486 19.5245 21.5446 19.4241C21.6367 19.3906 21.7287 19.3571 21.8459 19.3069C21.8961 19.2818 21.8961 19.2651 21.9464 19.24C21.9631 19.1981 21.8375 19.2651 21.8543 19.2232C23.704 18.4448 26.0475 18.7713 27.5374 20.2527C27.9726 20.5624 28.0981 20.8218 28.4413 21.3408C28.4413 21.2571 28.2404 20.9976 28.1735 20.8804C29.136 22.0857 29.3787 23.7931 29.1695 24.9732C29.0272 25.5591 28.7259 26.3459 28.3408 26.9234C28.2572 27.0406 28.366 26.9401 28.3241 27.0071C28.0395 27.4005 28.0144 27.3921 27.7215 27.7269C27.7047 27.6265 27.9642 27.3921 28.14 27.1243C27.9558 27.3921 27.462 27.8357 27.462 27.8692C26.918 28.3546 26.4409 28.6727 25.6793 28.9489C25.6039 28.9991 25.4365 29.0577 25.4282 29.0912C25.1352 29.1749 24.8256 29.2251 24.633 29.2753C24.6916 29.292 24.9176 29.2418 25.0432 29.2251C24.8172 29.3339 24.1643 29.3757 24.0639 29.3004C23.3106 29.3255 22.5406 29.133 21.9715 28.9489C21.4609 28.6141 20.7578 28.3044 20.2054 27.7102C20.557 28.1035 19.9711 27.526 19.9376 27.4591C19.6363 27.1243 19.3601 26.756 19.1676 26.3877C18.791 25.693 18.6989 25.0486 18.6319 24.5213C18.4562 23.1989 18.9416 21.8513 19.6196 21.006C19.6865 20.9139 19.7033 20.8553 19.7702 20.7633C19.7702 20.7633 19.7451 20.8135 19.7284 20.8386C19.9795 20.5959 20.3645 20.4034 20.1887 20.7465C20.2557 20.7549 20.3979 20.6628 20.5235 20.5959C20.4816 20.8721 20.6993 20.9307 20.5905 21.2403C20.7913 21.1817 20.783 21.4077 20.8834 21.4831C21.0006 21.5751 21.2182 21.5668 21.101 21.843C21.2517 22.0271 21.0508 22.3786 20.8918 22.839C20.716 23.2909 20.5988 23.8601 20.6156 24.2618C20.716 24.7138 20.7327 25.216 21.0257 25.6763C21.0675 25.7433 21.0926 25.7349 21.1345 25.7935C21.5028 26.4463 22.0886 26.8313 22.6662 27.0824C22.3146 26.8983 22.1472 26.8062 21.7957 26.5049C21.6618 26.371 21.8627 26.5551 21.9212 26.597C22.482 27.0322 23.2855 27.3251 24.1476 27.2582C25.0013 27.208 25.8634 26.7811 26.4325 26.0781C26.5497 25.9274 26.7171 25.76 26.7171 25.6428C26.8761 25.4168 26.9347 25.2494 27.0017 25.0151C26.9849 24.9984 26.9431 25.1323 26.9598 25.1323C26.9766 24.923 27.1523 24.4292 27.1105 24.0609C27.0686 24.2618 27.0352 24.5966 26.9431 24.923C26.851 25.2494 26.692 25.5675 26.5581 25.7433C26.9598 25.0653 27.1272 24.3455 26.9849 23.6257C27.0101 23.6257 26.9598 23.5169 27.0101 23.5504C26.9347 23.157 26.8259 22.8222 26.6669 22.5376C26.5497 22.3368 26.374 22.1694 26.2651 21.9685C25.3026 20.8637 23.863 20.6628 22.7164 21.0646C22.7666 21.006 22.8335 21.0646 22.9005 20.9976L22.6494 21.0478C22.549 21.1232 22.0468 21.3826 21.9212 21.3659C22.0886 21.2571 22.2309 21.2152 22.4234 21.1064C22.3732 21.1064 22.256 21.1901 22.2226 21.165C22.3146 21.0813 22.5322 21.006 22.6662 20.9558C22.6996 20.939 22.6662 20.939 22.6327 20.9474C22.9424 20.8135 23.319 20.8051 23.6622 20.7214C23.5115 20.7214 23.2939 20.78 23.1683 20.7716C23.2018 20.7465 23.3608 20.7382 23.478 20.713C23.3357 20.6963 23.2437 20.7214 23.0846 20.7549C23.2102 20.7716 22.9758 20.7716 22.8838 20.8218C23.1181 20.7047 23.4278 20.6377 23.2353 20.5875C22.8503 20.6545 22.8001 20.7047 22.5573 20.7884C22.6076 20.7884 22.6494 20.7465 22.6243 20.8051L22.7499 20.7633C22.6076 20.8051 22.5573 20.9139 22.3816 20.9976C22.3816 20.9809 22.4402 20.9641 22.4736 20.9474C22.4402 20.9223 22.3648 20.9307 22.2811 20.9809C22.2644 20.9474 22.39 20.9055 22.3481 20.8804C22.3146 20.8553 22.2979 20.9139 22.2477 20.9307C22.2142 20.9055 22.3565 20.8637 22.3565 20.8386C22.2477 20.8804 22.1221 20.939 21.938 21.0562C21.938 21.0395 21.9547 21.0144 21.9966 20.9892C21.9212 20.9892 21.8124 21.1232 21.7455 21.165C21.7287 21.1148 21.6116 21.2069 21.5781 21.1817C21.7455 21.1064 21.7455 21.0227 21.8292 21.0395C21.8794 20.9055 22.1472 20.7884 22.3732 20.6628C22.2393 20.6963 22.0719 20.8051 21.9296 20.8804C21.938 20.8553 21.9715 20.8302 22.0217 20.8051C22.0049 20.8051 21.9045 20.8302 21.9464 20.847C21.8543 20.8721 21.9966 20.7716 22.0217 20.7382C21.9882 20.7549 21.9547 20.7716 21.938 20.7214C22.0468 20.6293 22.3146 20.5875 22.4485 20.4619C22.4904 20.4536 22.5406 20.4452 22.5741 20.4536C22.6662 20.4117 22.708 20.3531 22.8754 20.3113C22.708 20.3866 22.9507 20.3113 22.9842 20.3531C22.9842 20.3113 23.3525 20.2527 23.5031 20.2192C23.3525 20.2109 23.0261 20.2946 22.9172 20.3197C22.934 20.3029 22.9675 20.2946 23.0009 20.2778C22.7247 20.3197 22.4151 20.4368 22.1891 20.5959C22.164 20.5624 22.0552 20.6377 21.9798 20.6628C21.8878 20.7214 21.938 20.7549 21.8292 20.8218C21.7706 20.7716 21.8208 20.7214 21.9882 20.6126C21.779 20.7047 21.5111 20.9641 21.3605 20.9055C21.5781 20.8386 21.8124 20.6796 22.1054 20.5038C21.9882 20.5456 21.7287 20.7298 21.6367 20.7549C21.712 20.7047 21.6953 20.6796 21.7455 20.6377C21.6618 20.6461 21.712 20.6377 21.5948 20.6879C21.6283 20.6293 21.7371 20.6126 21.8375 20.5373C21.8627 20.4787 21.645 20.621 21.7957 20.5289C21.7957 20.5038 21.6702 20.554 21.6785 20.5875C21.6785 20.5708 21.7539 20.4703 21.7036 20.4536C21.8543 20.3531 21.7873 20.4117 21.9547 20.2946C21.8627 20.2778 21.7036 20.4703 21.6116 20.4871C21.6534 20.4871 21.5362 20.6293 21.6869 20.5373C21.645 20.6293 21.5446 20.6377 21.4525 20.6628C21.4525 20.621 21.5446 20.6042 21.5865 20.5624C21.6116 20.4368 21.1429 20.6377 21.3354 20.4368C21.3354 20.395 21.2684 20.4619 21.2349 20.4703C21.3437 20.328 21.5362 20.2276 21.7036 20.102C21.6283 20.1188 21.3605 20.2862 21.3186 20.3531C21.2182 20.4117 21.327 20.3029 21.394 20.2694C21.2935 20.2443 20.9336 20.6042 20.8583 20.6712C20.8164 20.6712 21.0257 20.4536 21.0424 20.3866C21.0843 20.3699 21.1177 20.3699 21.2014 20.2946C21.1094 20.395 21.2433 20.2778 21.2014 20.3531C21.2851 20.2276 21.3856 20.1523 21.5111 20.0351C21.3354 20.0769 21.168 20.236 20.9504 20.3197C20.8164 20.4703 20.7578 20.5373 20.5905 20.6461C20.5653 20.621 20.7244 20.4452 20.6072 20.5038L20.5905 20.4871ZM28.7007 26.1366C28.7007 26.212 28.5166 26.5049 28.4999 26.5802C28.8765 25.9358 29.1443 25.1406 29.1946 24.3455C29.2532 23.5504 29.1109 22.772 28.8347 22.1694C28.8849 22.3284 28.9937 22.5711 28.9853 22.6716C28.9686 22.6297 28.9518 22.5879 28.9351 22.5628C29.1443 23.0566 29.2029 24.2953 29.0774 24.99C29.0774 24.9398 29.0941 24.8812 29.0774 24.8644C29.0355 25.2327 28.7007 26.0864 28.6924 26.1366H28.7007ZM21.3772 20.4201L21.4191 20.4787C21.8627 20.1774 22.4988 19.9095 23.0512 19.7589C22.5406 19.8593 22.1807 20.0267 21.8627 20.1606C21.8794 20.1355 21.8041 20.1774 21.9045 20.0937C21.6534 20.2276 21.6032 20.2862 21.3772 20.4201ZM22.3816 20.554C22.5406 20.4787 22.8587 20.4117 23.0512 20.328C22.9507 20.3364 22.6829 20.4536 22.8168 20.3699C22.6913 20.3866 22.482 20.4787 22.3816 20.554ZM20.8248 25.3248C20.8499 25.4001 20.8248 25.3583 20.7913 25.3666C20.8499 25.5257 20.9001 25.6763 21.0173 25.8521C21.0173 25.7516 20.9587 25.4922 20.8164 25.3248H20.8248ZM21.8543 26.7142C21.8543 26.7142 21.6116 26.4296 21.5781 26.4714C21.6702 26.5802 21.7287 26.6137 21.8543 26.7142ZM26.6502 26.0446C26.6502 26.0446 26.6418 26.0781 26.625 26.0613C26.6083 26.1618 26.4828 26.2287 26.4242 26.3375C26.4744 26.304 26.3991 26.3626 26.4074 26.3961C26.374 26.4128 26.374 26.438 26.3154 26.4882C26.1731 26.6556 26.6836 26.145 26.6836 26.0781C26.6836 26.0781 26.7087 26.0697 26.7004 26.0529C26.6585 26.1199 26.7171 25.9776 26.6585 26.0529L26.6502 26.0446ZM27.236 24.7473C27.2946 24.4711 27.1189 25.1574 27.2026 24.8226C27.1189 25.1825 26.8594 25.7433 26.6836 26.0111C26.9515 25.6093 27.144 25.216 27.2277 24.7556L27.236 24.7473ZM27.0017 25.2411C26.9347 25.3415 26.9515 25.375 26.8761 25.4587C26.6585 26.0027 26.2819 26.3961 25.8801 26.6807C25.47 26.9652 25.0181 27.1494 24.4908 27.2331C24.9846 27.2247 25.5453 26.9987 25.9973 26.6388C26.4577 26.2706 26.7924 25.7516 26.9933 25.2411H27.0017ZM26.1229 26.4631C26.1731 26.4045 26.2986 26.3291 26.2986 26.2789C26.2568 26.3459 26.1312 26.4128 26.1229 26.4631ZM27.0352 23.5671C27.0686 23.5253 27.0519 23.383 27.0101 23.2993C27.0268 23.3914 27.0101 23.4416 27.0352 23.5671ZM26.9598 28.3295C26.7841 28.4969 26.5414 28.6141 26.3321 28.7145C26.1731 28.7815 26.6502 28.5388 26.3991 28.6559C26.4911 28.5806 26.8092 28.4383 26.9598 28.3211V28.3295ZM21.486 19.4659C21.4023 19.4911 21.4191 19.4659 21.3437 19.4659C21.4191 19.4408 21.5111 19.3739 21.6032 19.3488C21.553 19.3906 21.486 19.4408 21.486 19.4743C21.4442 19.4994 21.4609 19.4743 21.486 19.4659Z" fill="white"/>
    <path d="M29.5061 19.717C29.8805 19.717 30.184 19.4135 30.184 19.039C30.184 18.6646 29.8805 18.3611 29.5061 18.3611C29.1317 18.3611 28.8281 18.6646 28.8281 19.039C28.8281 19.4135 29.1317 19.717 29.5061 19.717Z" fill="white"/>
    <path d="M28.2246 19.332C28.2413 19.3906 28.2581 19.4743 28.2832 19.5077C28.2665 19.4324 28.2497 19.3822 28.2246 19.332ZM30.2585 17.9593C30.2585 17.9593 30.1748 17.9091 30.1329 17.8924C30.158 17.8756 30.225 17.9342 30.2585 17.9593ZM28.325 18.5034C28.325 18.5034 28.3585 18.4197 28.3753 18.4029C28.3753 18.428 28.3334 18.4783 28.325 18.5034ZM29.1704 20.2861C29.1704 20.2861 29.0867 20.2694 29.0867 20.261C29.1285 20.2778 29.1453 20.2694 29.1704 20.2861ZM28.5761 19.9262C28.5761 19.9262 28.618 19.9681 28.6347 19.9764C28.6347 19.9764 28.6264 19.9597 28.618 19.9513C28.6264 19.9513 28.6515 19.9848 28.6766 19.9932C28.6682 19.9932 28.6598 19.9932 28.6431 19.9848C28.6598 20.0183 28.7184 20.0518 28.7519 20.0852C28.6933 20.0601 28.6096 19.9764 28.5761 19.9262ZM28.3334 18.6289C28.3334 18.6289 28.3502 18.562 28.3669 18.5368C28.3669 18.5536 28.3418 18.6038 28.3334 18.6289ZM30.225 20.0434C30.225 20.0434 30.1831 20.0434 30.1497 20.0685C30.1497 20.0434 30.2166 20.0183 30.225 20.0434ZM29.3545 18.9553C29.3545 18.9553 29.3545 18.947 29.3545 18.9386C29.3629 18.947 29.3545 18.947 29.3545 18.9553ZM29.4801 19.0558C29.4633 19.0641 29.4717 19.0558 29.4801 19.0558V19.0558ZM29.4801 19.0558C29.4801 19.0558 29.4884 19.0558 29.4968 19.0558C29.4717 19.0558 29.4968 19.0558 29.4801 19.0558ZM30.2668 19.8342C30.2668 19.8342 30.225 19.8593 30.225 19.8844C30.1831 19.9011 30.1413 19.9262 30.0994 19.9513C30.0994 19.9513 30.0994 19.9597 30.0911 19.9681C30.0994 19.9681 30.0994 20.0099 30.1245 19.9932C30.1245 20.035 30.0492 20.0434 30.0408 20.0183C30.0157 20.0267 30.0157 20.035 29.999 20.0434C30.0408 20.0434 30.066 20.0601 30.1078 20.0267C30.1245 20.0518 30.1162 20.0518 30.1497 20.0769C30.1078 20.102 30.1162 20.1187 30.1078 20.1522C30.0827 20.1522 30.0576 20.1606 30.0325 20.1773C30.0241 20.1773 30.0241 20.1941 30.0074 20.2024C30.0074 20.2192 30.0325 20.2024 30.0408 20.2192C29.5889 20.3949 29.0281 20.3196 28.6682 19.9597C28.5427 19.9011 28.5343 19.8258 28.4422 19.7002C28.4339 19.7253 28.4924 19.7839 28.5008 19.8174C28.2581 19.5245 28.2162 19.106 28.2497 18.813C28.2999 18.6708 28.3753 18.4866 28.4673 18.3443C28.4841 18.3192 28.4506 18.3443 28.4673 18.3192C28.5427 18.2272 28.551 18.2272 28.618 18.1435C28.6347 18.1853 28.5761 18.2355 28.5343 18.3025C28.5845 18.2355 28.7017 18.1351 28.6933 18.1267C28.8272 18.0095 28.936 17.9259 29.1202 17.8673C29.1369 17.8505 29.1788 17.8422 29.1788 17.817C29.2457 17.8003 29.3294 17.7836 29.3713 17.7668C29.3545 17.7585 29.3043 17.7668 29.2708 17.7752C29.321 17.7333 29.4884 17.7333 29.5136 17.7668C29.6977 17.7668 29.8818 17.8087 30.0241 17.8422C30.1329 17.951 30.317 18.0095 30.451 18.1602C30.3673 18.0598 30.5179 18.2021 30.5263 18.2188C30.6016 18.2941 30.6769 18.3862 30.7272 18.4783C30.8276 18.6457 30.8443 18.813 30.8611 18.9386C30.9197 19.265 30.7774 19.6082 30.6016 19.8007C30.5849 19.8258 30.5849 19.8425 30.5681 19.8676V19.8509C30.4928 19.9011 30.3756 19.9179 30.3924 19.8174C30.3673 19.8007 30.3254 19.8174 30.2836 19.8174C30.2585 19.7253 30.1664 19.6668 30.158 19.5831C30.0911 19.5663 30.0576 19.4994 29.999 19.4575C29.9404 19.4073 29.8651 19.3654 29.8483 19.3152C29.6726 19.1562 29.7898 19.1311 29.7981 19.0474C29.7563 19.0139 29.7981 18.9637 29.7646 18.9302C29.7646 18.9302 29.7479 18.9302 29.7395 18.9302C29.7228 18.8716 29.6558 18.8549 29.614 18.8382C29.6391 18.8633 29.6475 18.8633 29.6726 18.8884C29.6726 18.9051 29.6642 18.8884 29.6642 18.8884C29.5721 18.8298 29.4215 18.8465 29.3545 18.947C29.3545 18.9553 29.321 18.9553 29.3378 18.9804C29.321 18.9888 29.321 19.0055 29.321 19.0223C29.3294 19.0223 29.3294 19.0223 29.321 19.0223C29.3545 19.0474 29.321 19.0641 29.3294 19.0892C29.3713 19.0725 29.3462 19.0223 29.3713 19.0055C29.3713 19.0474 29.3462 19.0809 29.3713 19.106C29.3545 19.106 29.3713 19.106 29.3545 19.106C29.3629 19.1227 29.3629 19.1395 29.3713 19.1562C29.3713 19.1646 29.4047 19.1562 29.388 19.1813C29.4299 19.2399 29.4884 19.265 29.5721 19.2734C29.5721 19.2901 29.5554 19.2566 29.5638 19.2734C29.5638 19.2734 29.5805 19.2734 29.5889 19.2901C29.5889 19.265 29.6224 19.265 29.6642 19.3069C29.6475 19.3069 29.6224 19.2985 29.614 19.3069C29.6224 19.3152 29.6307 19.3069 29.6391 19.3236C29.6391 19.3403 29.614 19.332 29.5973 19.3236C29.5973 19.3236 29.5303 19.3069 29.5136 19.3403C29.5303 19.3403 29.5387 19.332 29.5554 19.3487C29.5554 19.3571 29.5387 19.3487 29.5303 19.3487C29.547 19.3654 29.5554 19.3571 29.5638 19.3571C29.547 19.332 29.5721 19.3571 29.5805 19.3487C29.5638 19.3738 29.5387 19.3822 29.5638 19.424C29.6056 19.424 29.614 19.4157 29.6391 19.4073C29.6307 19.3989 29.6307 19.4073 29.6224 19.3906H29.6056C29.6056 19.3906 29.614 19.3571 29.6307 19.3487V19.3571C29.6391 19.3738 29.6475 19.3822 29.6642 19.3738C29.6642 19.3906 29.6642 19.3906 29.6642 19.4073C29.6726 19.424 29.6642 19.4073 29.6726 19.4073C29.6809 19.424 29.6642 19.4157 29.6726 19.4324C29.6893 19.4324 29.7061 19.4324 29.7228 19.4157V19.4324C29.7395 19.4408 29.7479 19.4157 29.7479 19.4157C29.7646 19.4408 29.773 19.424 29.7898 19.4408C29.7563 19.4408 29.773 19.4659 29.7479 19.4408C29.7563 19.4826 29.7144 19.4826 29.6893 19.5077C29.7061 19.5077 29.7312 19.491 29.7479 19.491V19.5077C29.7479 19.5077 29.773 19.5161 29.7563 19.5077C29.773 19.5077 29.7563 19.5328 29.7563 19.5412C29.7563 19.5412 29.7646 19.5412 29.7814 19.5663C29.7646 19.5831 29.7144 19.5663 29.7061 19.6082C29.7061 19.6082 29.6893 19.6082 29.6809 19.5998C29.6726 19.6082 29.6642 19.6333 29.6391 19.6333C29.6642 19.6165 29.6224 19.6249 29.614 19.5998C29.614 19.6249 29.5638 19.6165 29.547 19.6333C29.5721 19.6417 29.614 19.6333 29.6307 19.6249C29.6307 19.6249 29.6307 19.6333 29.6224 19.6417C29.6642 19.6417 29.7144 19.6333 29.7395 19.5914C29.7479 19.6082 29.7646 19.5914 29.7814 19.5914C29.7981 19.5831 29.7814 19.558 29.7898 19.5496C29.8149 19.5831 29.8065 19.5914 29.7898 19.6165C29.8232 19.6082 29.8567 19.558 29.9153 19.6082C29.8651 19.5998 29.8232 19.6082 29.7814 19.65C29.8065 19.65 29.84 19.6082 29.8567 19.6249C29.84 19.6249 29.8567 19.6417 29.8483 19.65C29.8735 19.6584 29.8567 19.65 29.8818 19.65C29.8818 19.6668 29.8567 19.65 29.84 19.6668C29.84 19.6835 29.8735 19.6668 29.8567 19.6751C29.8567 19.6835 29.8818 19.6751 29.8818 19.6751C29.8818 19.6751 29.8818 19.7086 29.8986 19.7253C29.8735 19.7421 29.8818 19.7253 29.8567 19.7588C29.8818 19.7839 29.8986 19.7253 29.9237 19.7253C29.9153 19.717 29.9237 19.6751 29.8986 19.6919C29.8986 19.6584 29.9237 19.6751 29.9488 19.6835C29.9488 19.7002 29.932 19.6835 29.9237 19.7002C29.932 19.7505 30.0408 19.7421 30.0157 19.7923C30.0157 19.809 30.0325 19.7923 30.0408 19.7923C30.0241 19.8342 29.9823 19.8425 29.9571 19.876C29.9739 19.876 30.0325 19.8425 30.0325 19.8258C30.0576 19.8258 30.0325 19.8425 30.0241 19.8509C30.0576 19.876 30.1162 19.7839 30.1413 19.7756C30.158 19.7756 30.1162 19.8342 30.1245 19.8593C30.1162 19.8593 30.0994 19.8593 30.0827 19.876C30.0994 19.8509 30.0743 19.876 30.0827 19.8509C30.0827 19.8927 30.0492 19.9011 30.0325 19.943C30.0743 19.943 30.1078 19.9095 30.1664 19.9011C30.1915 19.8676 30.1999 19.8509 30.2417 19.8342C30.2585 19.8509 30.225 19.8927 30.2585 19.8844L30.2668 19.8342ZM28.3836 18.5368C28.3836 18.5368 28.4339 18.4531 28.4255 18.428C28.233 18.7377 28.1828 19.2064 28.3418 19.491C28.3334 19.4491 28.2999 19.3989 28.3083 19.3654C28.3083 19.3738 28.3167 19.3822 28.325 19.3906C28.2665 19.2734 28.2665 18.9804 28.2832 18.8047C28.2832 18.813 28.2832 18.8298 28.2832 18.8382C28.2916 18.7461 28.3836 18.5536 28.3753 18.5368H28.3836ZM30.0157 19.7337L29.999 19.7086C29.9153 19.7588 29.7898 19.8007 29.6977 19.8425C29.7898 19.8258 29.8567 19.8007 29.9237 19.7756C29.9237 19.7839 29.9404 19.7756 29.9237 19.8007C29.9739 19.7839 29.9739 19.7588 30.0241 19.7337H30.0157ZM29.7395 19.5161C29.7395 19.5161 29.6726 19.5161 29.6475 19.5412C29.6642 19.5412 29.6977 19.5161 29.6809 19.5412C29.6977 19.5412 29.7312 19.5245 29.7395 19.5161ZM29.8065 18.9219C29.8065 18.9219 29.8065 18.9219 29.8232 18.9135C29.8232 18.8967 29.8232 18.88 29.8065 18.8633C29.7814 18.8884 29.7646 18.9219 29.8065 18.9219ZM29.7228 18.7879C29.7228 18.7879 29.7228 18.8298 29.7479 18.813C29.7479 18.7963 29.7312 18.8047 29.7228 18.7879ZM29.2959 18.8633C29.2876 18.8465 29.3127 18.8549 29.3043 18.8298C29.2959 18.8298 29.3043 18.8298 29.3043 18.8214C29.3043 18.8214 29.3043 18.8214 29.3127 18.8214C29.3127 18.7963 29.2708 18.8465 29.2792 18.8549C29.2792 18.8549 29.2876 18.8716 29.2959 18.8633ZM29.2541 18.9721C29.2625 18.947 29.2792 18.8967 29.2876 18.8633C29.2708 18.9051 29.2457 18.9302 29.2541 18.9721ZM29.3043 18.947C29.3043 18.947 29.3043 18.9386 29.321 18.9386C29.321 18.8382 29.4215 18.8214 29.4884 18.813C29.3964 18.7545 29.3127 18.88 29.3043 18.9553V18.947ZM29.3713 18.8633C29.3713 18.8633 29.3545 18.8633 29.3629 18.88C29.3629 18.88 29.3796 18.88 29.3713 18.8633ZM29.3713 19.0641C29.3713 19.0641 29.3545 19.0809 29.3629 19.0809C29.3629 19.0809 29.3796 19.0725 29.3713 19.0641ZM28.7938 17.9928C28.8356 17.9426 28.8942 17.9175 28.9444 17.8924C28.9863 17.884 28.8691 17.9342 28.936 17.9091C28.9109 17.9259 28.8356 17.9593 28.7938 17.9844V17.9928ZM30.1162 20.1355C30.1162 20.1355 30.1329 20.1355 30.158 20.1522L30.0911 20.1773C30.0911 20.1773 30.1162 20.1522 30.1162 20.1355Z" fill="white"/>
</svg>
