<svg width="25" height="25" viewBox="0 0 24 24" fill="none"
    xmlns="http://www.w3.org/2000/svg">
    <rect width="26" height="26" rx="12" fill="#60D669" fill-opacity="0.1"/>
    <path d="M6.28249 11.9478C6.28128 12.9552 6.54569 13.9451 7.04905 14.8177L6.23438 17.7923L9.27854 16.9941C10.1205 17.4525 11.0638 17.6926 12.0225 17.6927H12.025C15.1896 17.6927 17.7658 15.1175 17.7671 11.9523C17.7677 10.4185 17.1709 8.97632 16.0867 7.8912C15.0027 6.80618 13.561 6.20837 12.0248 6.20776C8.8597 6.20776 6.2838 8.78265 6.28249 11.9478Z" fill="url(#paint0_linear_3114_20069)"/>
    <path d="M10.5397 9.45993C10.4282 9.21248 10.3112 9.20751 10.2053 9.20316C10.1186 9.19941 10.0194 9.19971 9.92048 9.19971C9.82121 9.19971 9.66026 9.23699 9.52413 9.38568C9.3879 9.53437 9.00391 9.89385 9.00391 10.6252C9.00391 11.3565 9.53649 12.063 9.61073 12.1622C9.68508 12.2613 10.6389 13.8099 12.1496 14.4056C13.4051 14.9007 13.6606 14.8023 13.9331 14.7774C14.2055 14.7527 14.8125 14.4181 14.9362 14.0709C15.0601 13.7239 15.0601 13.4264 15.0229 13.3643C14.9859 13.3025 14.8867 13.2652 14.7381 13.1909C14.5894 13.1166 13.8587 12.757 13.7226 12.7074C13.5863 12.6578 13.4872 12.6331 13.388 12.7819C13.289 12.9305 13.0043 13.2652 12.9176 13.3643C12.8309 13.4636 12.7441 13.4761 12.5955 13.4018C12.4468 13.3272 11.9682 13.1704 11.4003 12.6641C10.9585 12.2701 10.6602 11.7837 10.5735 11.6349C10.4868 11.4862 10.5643 11.4058 10.6387 11.3317C10.7056 11.2651 10.7874 11.1582 10.8618 11.0713C10.9359 10.9845 10.9607 10.9227 11.0103 10.8235C11.0599 10.7242 11.035 10.6375 10.9979 10.5632C10.9607 10.4888 10.6718 9.75387 10.5397 9.45993Z" fill="white"/>
    <defs>
        <linearGradient id="paint0_linear_3114_20069" x1="582.872" y1="1164.66" x2="582.872" y2="6.20776" gradientUnits="userSpaceOnUse">
            <stop stop-color="#1FAF38"/>
            <stop offset="1" stop-color="#60D669"/>
        </linearGradient>
    </defs>
</svg>
