<svg width="61" height="60" viewBox="0 0 61 60" fill="none"
    xmlns="http://www.w3.org/2000/svg">
    <g clip-path="url(#clip0_1019_5732)">
        <rect width="60" height="60" transform="translate(0.425781)" />
        <path d="M52.3208 23.235C52.3208 22.395 51.8708 21.615 51.1408 21.225L26.4608 6.55496L1.55083 21.335C0.93083 21.675 0.60083 22.345 0.60083 23.015V57.935C0.60083 58.995 1.50083 59.895 2.56083 59.895H50.4108C51.4708 59.895 52.3708 58.995 52.3708 57.935L52.3108 37.115V23.235H52.3208Z" fill="#9F7FF7"/>
        <path d="M51.341 3.94498C51.481 3.93498 51.681 3.96498 51.781 3.92498C51.601 3.90498 51.471 3.90498 51.341 3.94498ZM43.781 3.94498C43.811 3.87498 44.011 3.92498 44.121 3.90498C44.091 3.97498 43.891 3.92498 43.781 3.94498ZM49.291 3.90498C49.241 3.94498 49.081 3.91498 49.021 3.90498C49.081 3.85498 49.221 3.90498 49.291 3.90498ZM54.751 3.85498C54.751 3.85498 54.551 3.88498 54.531 3.85498C54.641 3.86498 54.681 3.83498 54.751 3.85498ZM53.041 3.85498C53.041 3.85498 53.181 3.85498 53.241 3.83498C53.241 3.81498 53.201 3.82498 53.171 3.81498C53.181 3.77498 53.291 3.81498 53.341 3.79498C53.321 3.81498 53.301 3.82498 53.271 3.83498C53.341 3.87498 53.521 3.83498 53.641 3.85498C53.491 3.89498 53.211 3.86498 53.051 3.85498H53.041ZM49.591 3.73498C49.591 3.73498 49.421 3.73498 49.351 3.75498C49.381 3.71498 49.521 3.75498 49.591 3.73498ZM57.551 3.70498C57.471 3.69498 57.451 3.63498 57.351 3.63498C57.391 3.57498 57.561 3.62498 57.551 3.70498ZM49.091 0.55498C49.091 0.55498 48.891 0.55498 48.801 0.57498C48.851 0.53498 49.001 0.57498 49.091 0.55498ZM55.331 0.36498C55.331 0.36498 55.441 0.38498 55.531 0.36498C55.491 0.42498 55.401 0.38498 55.331 0.36498ZM51.931 0.13498C51.991 0.0949805 52.151 0.13498 52.251 0.11498C52.231 0.17498 51.991 0.15498 51.931 0.13498ZM51.051 0.15498C51.091 0.0949805 51.261 0.11498 51.371 0.10498C51.331 0.16498 51.131 0.12498 51.051 0.15498ZM58.001 3.25498C57.941 3.25498 57.871 3.23498 57.801 3.29498C57.691 3.24498 57.541 3.23498 57.381 3.22498C57.361 3.22498 57.361 3.24498 57.331 3.24498C57.341 3.28498 57.291 3.36498 57.381 3.35498C57.301 3.45498 57.131 3.35498 57.141 3.30498C57.071 3.29498 57.051 3.32498 56.991 3.32498C57.091 3.39498 57.141 3.45498 57.281 3.43498C57.281 3.51498 57.271 3.52498 57.301 3.62498C57.161 3.62498 57.171 3.66498 57.101 3.74498C57.041 3.72498 56.981 3.71498 56.901 3.71498C56.871 3.71498 56.861 3.74498 56.831 3.74498C56.811 3.79498 56.901 3.77498 56.881 3.83498C55.671 3.74498 54.441 3.81498 53.181 3.76498C52.861 3.90498 52.701 3.76498 52.321 3.80498C52.361 3.86498 52.561 3.82498 52.641 3.85498C51.731 3.88498 50.771 3.82498 50.051 3.90498C49.691 3.83498 49.191 3.81498 48.781 3.83498C48.691 3.83498 48.781 3.88498 48.731 3.88498C48.441 3.88498 48.431 3.85498 48.171 3.86498C48.201 3.74498 48.421 3.76498 48.611 3.75498C48.411 3.74498 48.011 3.69498 48.001 3.75498C47.561 3.75498 47.221 3.77498 46.731 3.77498C46.681 3.80498 46.571 3.80498 46.561 3.86498C46.381 3.86498 46.191 3.86498 46.071 3.90498C46.101 3.94498 46.241 3.90498 46.311 3.92498C46.171 3.99498 45.781 3.97498 45.721 3.87498C45.271 3.87498 44.801 3.85498 44.451 3.92498C44.091 3.74498 43.631 3.88498 43.151 3.85498C43.471 3.89498 42.971 3.90498 42.931 3.90498C42.661 3.92498 42.391 3.96498 42.151 3.99498C41.691 4.04498 41.311 3.99498 41.001 4.01498C40.221 4.07498 39.441 4.01498 38.801 3.92498C38.731 3.92498 38.701 3.95498 38.631 3.96498C38.631 3.94498 38.661 3.95498 38.681 3.94498C38.481 3.84498 38.221 3.64498 38.461 3.47498C38.441 3.38498 38.331 3.32498 38.241 3.24498C38.391 3.00498 38.321 2.69498 38.531 2.49498C38.401 2.32498 38.531 2.10498 38.531 1.89498C38.531 1.66498 38.401 1.41498 38.651 1.28498C38.741 0.574981 40.181 0.84498 40.931 0.89498C41.371 0.78498 41.831 0.944981 42.331 0.914981C42.401 0.914981 42.411 0.86498 42.481 0.86498C43.181 0.91498 43.801 0.82498 44.411 0.82498C44.031 0.78498 43.851 0.80498 43.411 0.78498C43.231 0.77498 43.491 0.76498 43.561 0.76498C44.941 0.71498 46.691 0.68498 48.461 0.65498C48.651 0.65498 48.881 0.71498 48.971 0.63498C49.241 0.66498 49.411 0.65498 49.661 0.63498C49.671 0.60498 49.531 0.60498 49.541 0.63498C49.741 0.52498 50.261 0.61498 50.621 0.56498C50.221 0.44498 49.261 0.55498 48.811 0.51498C49.621 0.46498 50.321 0.51498 51.061 0.42498C51.061 0.46498 51.171 0.42498 51.131 0.47498C51.541 0.45498 51.891 0.47498 52.231 0.47498C52.471 0.47498 52.711 0.38498 52.941 0.47498C54.401 0.50498 55.641 0.51498 56.861 0.65498C56.791 0.70498 56.751 0.60498 56.661 0.65498C56.741 0.68498 56.841 0.68498 56.901 0.72498C57.021 0.65498 57.581 0.71498 57.661 0.88498C57.481 0.85498 57.341 0.794981 57.121 0.794981C57.161 0.844981 57.301 0.81498 57.321 0.88498C57.201 0.90498 56.991 0.86498 56.851 0.84498C56.821 0.84498 56.851 0.87498 56.871 0.88498C56.561 0.88498 56.211 0.74498 55.871 0.83498C56.011 0.86498 56.221 0.80498 56.341 0.88498C56.301 0.91498 56.151 0.86498 56.051 0.88498C56.181 0.93498 56.261 0.924981 56.421 0.934981C56.311 0.864981 56.521 0.934981 56.621 0.914981C56.371 0.964981 56.091 0.98498 56.251 1.12498C56.601 1.15498 56.651 1.13498 56.891 1.14498C56.851 1.10498 56.801 1.14498 56.841 1.07498H56.721C56.851 1.07498 56.931 0.98498 57.111 0.96498C57.111 0.98498 57.051 0.97498 57.011 0.98498C57.031 1.04498 57.091 1.06498 57.181 1.07498C57.181 1.12498 57.061 1.09498 57.081 1.16498C57.101 1.21498 57.131 1.14498 57.181 1.16498C57.191 1.22498 57.071 1.17498 57.061 1.21498C57.161 1.21498 57.281 1.26498 57.481 1.25498C57.471 1.27498 57.451 1.29498 57.411 1.29498C57.471 1.34498 57.611 1.29498 57.681 1.29498C57.671 1.38498 57.801 1.36498 57.801 1.43498C57.651 1.36498 57.611 1.47498 57.561 1.38498C57.461 1.50498 57.211 1.43498 57.001 1.47498C57.111 1.50498 57.281 1.49498 57.421 1.51498C57.401 1.53498 57.371 1.54498 57.321 1.55498C57.331 1.57498 57.421 1.61498 57.391 1.55498C57.461 1.59498 57.321 1.61498 57.291 1.64498C57.321 1.64498 57.351 1.64498 57.341 1.73498C57.231 1.75498 57.021 1.64498 56.871 1.73498C56.841 1.71498 56.801 1.70498 56.771 1.68498C56.681 1.70498 56.641 1.75498 56.501 1.73498C56.651 1.70498 56.441 1.69498 56.431 1.62498C56.431 1.68498 56.121 1.64498 55.991 1.67498C56.111 1.70498 56.391 1.69498 56.481 1.69498C56.461 1.71498 56.441 1.72498 56.411 1.72498C56.641 1.75498 56.901 1.77498 57.121 1.70498C57.121 1.76498 57.231 1.75498 57.291 1.77498C57.381 1.77498 57.361 1.68498 57.461 1.68498C57.481 1.80498 57.421 1.82498 57.261 1.84498C57.441 1.86498 57.731 1.80498 57.801 2.02498C57.641 1.90498 57.411 1.87498 57.141 1.90498C57.241 1.95498 57.491 1.88498 57.561 1.95498C57.491 1.95498 57.491 1.98498 57.441 2.00498C57.501 2.06498 57.461 2.03498 57.561 2.07498C57.511 2.11498 57.441 2.03498 57.341 2.05498C57.301 2.10498 57.501 2.09498 57.361 2.10498C57.351 2.13498 57.451 2.16498 57.461 2.12498C57.461 2.14498 57.371 2.21498 57.391 2.28498C57.261 2.30498 57.321 2.27498 57.171 2.30498C57.231 2.40498 57.401 2.27498 57.461 2.32498C57.441 2.28498 57.571 2.21498 57.441 2.20498C57.501 2.12498 57.571 2.20498 57.641 2.25498C57.621 2.30498 57.561 2.24498 57.521 2.25498C57.461 2.39498 57.811 2.56498 57.621 2.64498C57.601 2.69498 57.671 2.67498 57.691 2.69498C57.571 2.76498 57.421 2.71498 57.271 2.76498C57.321 2.79498 57.541 2.79498 57.591 2.76498C57.671 2.78498 57.571 2.81498 57.521 2.79498C57.571 2.91498 57.911 2.80498 57.991 2.83498C58.011 2.88498 57.811 2.91498 57.771 2.97498C57.741 2.95498 57.731 2.92498 57.651 2.93498C57.741 2.89498 57.621 2.91498 57.671 2.86498C57.571 2.94498 57.491 2.93498 57.381 3.00498C57.491 3.08498 57.641 3.05498 57.801 3.14498C57.931 3.10498 57.991 3.10498 58.121 3.14498C58.121 3.19498 57.971 3.23498 58.051 3.28498L58.001 3.25498ZM49.311 3.72498C49.271 3.77498 49.061 3.70498 49.021 3.76498C49.931 3.77498 50.991 3.88498 51.791 3.76498C51.691 3.75498 51.531 3.78498 51.471 3.74498C51.501 3.74498 51.531 3.72498 51.541 3.71498C51.221 3.74498 50.481 3.68498 50.051 3.74498C50.081 3.74498 50.121 3.74498 50.121 3.72498C49.901 3.72498 49.341 3.65498 49.311 3.72498ZM57.561 2.55498V2.44498C57.171 2.41498 56.671 2.37498 56.261 2.44498C56.641 2.45498 56.911 2.46498 57.171 2.49498C57.151 2.52498 57.211 2.51498 57.121 2.54498C57.321 2.57498 57.371 2.50498 57.561 2.54498V2.55498ZM56.951 1.59498C56.811 1.59498 56.541 1.51498 56.361 1.57498C56.441 1.57498 56.691 1.55498 56.561 1.61498C56.661 1.65498 56.851 1.61498 56.951 1.59498ZM41.971 0.944981C42.041 0.96498 42.001 0.974981 41.991 1.01498C42.151 1.03498 42.291 1.06498 42.481 1.05498C42.411 0.95498 42.161 0.85498 41.971 0.944981ZM43.591 0.98498C43.591 0.90498 43.251 0.90498 43.251 0.98498C43.381 1.01498 43.441 0.98498 43.591 0.98498ZM48.611 0.89498C48.611 0.89498 48.581 0.90498 48.591 0.87498C48.511 0.93498 48.381 0.874981 48.271 0.914981C48.321 0.934981 48.241 0.91498 48.221 0.95498C48.191 0.934981 48.171 0.95498 48.101 0.95498C47.901 0.98498 48.571 0.97498 48.611 0.95498C48.611 0.95498 48.631 0.97498 48.631 0.95498C48.551 0.95498 48.691 0.90498 48.611 0.90498V0.89498ZM49.961 0.87498C50.231 0.85498 49.561 0.84498 49.891 0.85498C49.541 0.84498 48.961 0.85498 48.671 0.90498C49.121 0.87498 49.521 0.90498 49.971 0.86498L49.961 0.87498ZM49.451 0.75498C49.331 0.72498 49.311 0.77498 49.211 0.72498C48.081 0.85498 47.251 0.72498 46.221 0.74498C47.171 0.93498 48.391 0.80498 49.451 0.76498V0.75498ZM47.981 0.73498C48.051 0.72498 48.191 0.754981 48.221 0.71498C48.151 0.72498 48.011 0.69498 47.981 0.73498ZM51.111 0.48498C51.151 0.55498 51.291 0.54498 51.381 0.52498C51.291 0.51498 51.231 0.474981 51.111 0.48498ZM47.611 3.81498C47.461 3.87498 47.311 3.84498 47.171 3.83498C47.071 3.81498 47.391 3.81498 47.221 3.79498C47.291 3.77498 47.501 3.80498 47.611 3.81498ZM57.181 3.72498C57.231 3.76498 57.221 3.76498 57.251 3.83498C57.201 3.81498 57.131 3.81498 57.081 3.79498C57.121 3.76498 57.171 3.75498 57.181 3.70498C57.211 3.70498 57.191 3.72498 57.181 3.72498Z" fill="#124936"/>
        <path d="M43.3709 11.175C43.2409 11.295 43.0209 11.435 42.9509 11.545C43.1409 11.425 43.2709 11.315 43.3709 11.175ZM50.8509 5.06499C50.8509 5.14499 50.6309 5.26499 50.5309 5.36499C50.5309 5.28499 50.7509 5.16499 50.8509 5.06499ZM45.431 9.53499C45.451 9.46499 45.6309 9.35499 45.7009 9.31499C45.6709 9.39499 45.511 9.47499 45.431 9.53499ZM40.0709 13.985C40.0709 13.985 40.2509 13.795 40.2909 13.805C40.1709 13.885 40.1609 13.945 40.0709 13.985ZM41.7609 12.605C41.7609 12.605 41.6309 12.725 41.5809 12.775C41.6009 12.785 41.6309 12.755 41.6609 12.725C41.6709 12.765 41.551 12.825 41.5009 12.875C41.5009 12.845 41.5309 12.815 41.5509 12.785C41.4509 12.815 41.301 12.985 41.181 13.065C41.311 12.915 41.5909 12.705 41.7609 12.595V12.605ZM45.2509 9.91499C45.2509 9.85499 45.4109 9.77499 45.4809 9.70499C45.4809 9.76499 45.3209 9.84499 45.2509 9.91499ZM37.4009 16.365C37.4909 16.315 37.5409 16.335 37.6409 16.265C37.6409 16.345 37.4409 16.445 37.4009 16.365ZM47.7409 11.975C47.7609 11.905 47.9409 11.805 48.0209 11.725C48.0009 11.795 47.8209 11.895 47.7409 11.975ZM41.6909 17.165C41.6909 17.215 41.5609 17.235 41.5009 17.325C41.5009 17.245 41.6209 17.205 41.6909 17.165ZM45.2009 14.595C45.1709 14.675 44.9909 14.775 44.9009 14.865C44.8809 14.795 45.1309 14.625 45.2009 14.595ZM46.0609 13.865C46.0609 13.945 45.8809 14.065 45.7809 14.165C45.7809 14.085 46.0109 13.955 46.0609 13.865ZM37.2209 17.075C37.2809 17.015 37.3609 16.985 37.3909 16.885C37.5309 16.835 37.6809 16.725 37.8509 16.605C37.8709 16.585 37.8609 16.575 37.8909 16.555C37.8509 16.535 37.8509 16.425 37.7809 16.515C37.7909 16.375 38.0209 16.305 38.0609 16.355C38.1409 16.305 38.1409 16.265 38.1909 16.225C38.0409 16.255 37.9609 16.245 37.8309 16.385C37.7809 16.325 37.781 16.305 37.681 16.255C37.811 16.135 37.7809 16.115 37.8009 16.005C37.8709 15.975 37.9409 15.935 38.0209 15.875C38.0509 15.845 38.0409 15.825 38.0709 15.785C38.0509 15.725 37.9809 15.815 37.9709 15.755C39.2209 14.845 40.4009 13.805 41.6709 12.825C41.9009 12.465 42.1409 12.425 42.4909 12.105C42.4109 12.095 42.2409 12.285 42.1409 12.325C43.0209 11.565 44.0109 10.835 44.6709 10.185C45.0709 9.95499 45.5809 9.55499 45.9709 9.21499C46.0509 9.14499 45.9409 9.18499 45.9909 9.13499C46.2809 8.90499 46.3009 8.91499 46.5609 8.69499C46.6009 8.81499 46.3809 8.97499 46.1909 9.13499C46.3909 8.98499 46.8209 8.69499 46.8009 8.64499C47.2409 8.28499 47.5609 7.99499 48.0509 7.60499C48.0809 7.53499 48.1909 7.45499 48.1609 7.39499C48.341 7.25499 48.5309 7.10499 48.6209 6.97499C48.5609 6.97499 48.4509 7.10499 48.3709 7.15499C48.4709 6.98499 48.8609 6.68499 48.9809 6.72499C49.4209 6.36499 49.9009 5.99499 50.2109 5.65499C50.6809 5.50499 51.0409 5.02499 51.5409 4.66499C51.2009 4.89499 51.6909 4.48499 51.7209 4.44499C51.9709 4.21499 52.2109 3.96499 52.4409 3.74499C52.8709 3.33499 53.271 3.07499 53.5709 2.80499C54.3009 2.13499 55.1109 1.54499 55.8009 1.09499C55.8709 1.03499 55.8809 0.984993 55.9509 0.924993C55.9609 0.934993 55.931 0.954993 55.9109 0.974993C56.1709 0.884993 56.551 0.834993 56.431 1.16499C56.511 1.21499 56.6509 1.17499 56.7909 1.16499C56.7909 1.47499 57.0609 1.65499 56.9809 1.98499C57.2209 2.01499 57.2309 2.29499 57.3609 2.44499C57.5009 2.62499 57.8009 2.71499 57.6309 3.01499C58.0009 3.63499 56.3909 4.59499 55.6209 5.15499C55.2609 5.59499 54.7009 5.83499 54.2309 6.26499C54.1609 6.32499 54.1809 6.36499 54.1209 6.42499C53.4009 6.94499 52.8409 7.52499 52.2309 8.01499C52.6309 7.73499 52.8009 7.57499 53.2409 7.23499C53.4309 7.09499 53.1809 7.31499 53.1109 7.36499C51.7809 8.51499 50.061 9.95499 48.341 11.405C48.1609 11.555 47.891 11.695 47.841 11.835C47.551 12.035 47.3909 12.175 47.1609 12.385C47.1609 12.415 47.3109 12.295 47.2809 12.285C47.1509 12.535 46.5709 12.885 46.2609 13.205C46.7309 12.975 47.6109 12.115 48.0809 11.785C47.3109 12.475 46.6009 13.005 45.9109 13.675C45.8909 13.635 45.8109 13.775 45.8009 13.695C45.4109 14.045 45.0409 14.315 44.7109 14.585C44.4709 14.775 44.2909 15.045 44.0109 15.155C42.5409 16.315 41.3109 17.305 40.0309 18.185C40.0609 18.085 40.1709 18.135 40.2209 18.025C40.1309 18.065 40.021 18.145 39.931 18.165C39.861 18.315 39.2709 18.725 39.0809 18.655C39.2809 18.525 39.4509 18.465 39.6709 18.285C39.6009 18.285 39.4809 18.415 39.4209 18.375C39.5209 18.265 39.7609 18.125 39.9009 18.025C39.9309 17.995 39.8809 17.995 39.8509 18.025C40.1609 17.775 40.5909 17.595 40.8809 17.255C40.7209 17.345 40.5509 17.565 40.3909 17.585C40.4109 17.535 40.591 17.445 40.681 17.345C40.521 17.405 40.4409 17.485 40.2809 17.605C40.4409 17.565 40.1809 17.685 40.1009 17.775C40.3109 17.535 40.5809 17.295 40.3309 17.315C39.9609 17.575 39.9309 17.635 39.6909 17.815C39.7609 17.815 39.7809 17.745 39.7809 17.825C39.8209 17.795 39.8609 17.755 39.9009 17.725C39.7709 17.825 39.7509 17.965 39.5809 18.125C39.5809 18.105 39.6309 18.065 39.6709 18.035C39.6209 18.005 39.5409 18.035 39.4509 18.105C39.4209 18.065 39.5509 17.995 39.4909 17.955C39.4409 17.925 39.4509 18.015 39.3909 18.035C39.3409 18.005 39.4909 17.935 39.4809 17.895C39.3709 17.975 39.2309 18.045 39.0509 18.205C39.0509 18.175 39.0509 18.155 39.1009 18.115C39.0109 18.125 38.9109 18.275 38.8309 18.335C38.7909 18.255 38.6709 18.375 38.6209 18.335C38.8109 18.275 38.7909 18.145 38.9009 18.175C38.9309 18.005 39.2109 17.855 39.4009 17.655C39.2709 17.725 39.1109 17.865 38.9709 17.965C38.9709 17.935 39.0009 17.895 39.0409 17.855C39.0209 17.855 38.9109 17.885 38.9709 17.915C38.8709 17.945 39.0009 17.805 39.0109 17.765C38.9709 17.785 38.9409 17.815 38.9109 17.735C39.0109 17.635 39.2909 17.545 39.3709 17.355C39.4109 17.345 39.4609 17.315 39.5009 17.315C39.5709 17.225 39.5809 17.155 39.7309 17.055C39.6109 17.205 39.8109 17.045 39.8709 17.075C39.8309 17.025 40.1709 16.805 40.2709 16.675C40.1309 16.745 39.8709 16.985 39.7709 17.055C39.7709 17.025 39.8009 16.995 39.8209 16.965C39.5809 17.125 39.3009 17.315 39.1309 17.555C39.0909 17.515 38.9909 17.605 38.9209 17.635C38.8309 17.715 38.9109 17.765 38.8109 17.845C38.7209 17.765 38.7609 17.705 38.9009 17.565C38.7009 17.695 38.4609 17.975 38.2609 17.865C38.5009 17.825 38.7409 17.665 38.9909 17.425C38.8609 17.465 38.6609 17.715 38.5509 17.725C38.6209 17.675 38.6009 17.645 38.6409 17.585C38.5409 17.585 38.6009 17.585 38.4709 17.625C38.4909 17.555 38.6209 17.555 38.7009 17.465C38.7009 17.395 38.5209 17.565 38.6409 17.445C38.6409 17.415 38.5109 17.475 38.5309 17.515C38.5309 17.495 38.5709 17.365 38.5009 17.335C38.6209 17.215 38.5809 17.285 38.7109 17.145C38.5909 17.115 38.5109 17.355 38.4109 17.365C38.4609 17.375 38.3809 17.545 38.5109 17.445C38.5009 17.555 38.3809 17.555 38.2809 17.565C38.2709 17.505 38.3609 17.505 38.4009 17.465C38.3709 17.305 37.9109 17.465 38.0609 17.245C38.0509 17.195 37.9909 17.255 37.9509 17.265C38.0209 17.105 38.2009 17.035 38.3209 16.875C38.2509 16.895 38.0409 17.065 38.0109 17.135C37.9209 17.185 38.0109 17.075 38.0609 17.045C37.9409 16.995 37.6709 17.345 37.5809 17.395C37.5309 17.375 37.7109 17.185 37.7109 17.105C37.7509 17.105 37.7909 17.105 37.8509 17.035C37.7809 17.135 37.8909 17.035 37.8709 17.105C37.9109 16.965 38.0109 16.905 38.0709 16.755C37.9109 16.785 37.7809 16.935 37.5709 16.985C37.4609 17.115 37.4109 17.175 37.2609 17.245C37.2309 17.205 37.3509 17.055 37.2409 17.075H37.2209ZM45.5109 9.69499C45.5109 9.62499 45.7709 9.50499 45.7809 9.43499C44.8809 10.155 43.7509 10.935 43.0409 11.665C43.1409 11.595 43.2809 11.435 43.3709 11.425C43.3509 11.455 43.3309 11.485 43.3209 11.515C43.6209 11.235 44.3909 10.675 44.7709 10.285C44.7409 10.315 44.7009 10.335 44.7109 10.355C44.9409 10.175 45.5309 9.78499 45.5109 9.70499V9.69499ZM38.1009 17.265L38.1709 17.345C38.5709 17.055 39.0909 16.685 39.4509 16.295C39.0709 16.595 38.7909 16.815 38.5209 16.985C38.5209 16.955 38.4609 17.005 38.5409 16.905C38.3209 17.045 38.3109 17.135 38.1009 17.265ZM39.3209 17.515C39.4709 17.405 39.7809 17.245 39.9109 17.055C39.8209 17.115 39.6009 17.335 39.6909 17.185C39.5609 17.235 39.4009 17.415 39.3109 17.515H39.3209ZM54.5509 5.91499C54.4709 5.96499 54.511 5.91499 54.4809 5.88499C54.3209 5.99499 54.1609 6.08499 53.9709 6.25499C54.1009 6.27499 54.4209 6.15499 54.5409 5.92499L54.5509 5.91499ZM52.931 7.19499C52.981 7.25499 53.3209 6.98499 53.2709 6.91499C53.1209 6.99499 53.091 7.06499 52.931 7.19499ZM48.0209 11.315C48.0209 11.315 48.0409 11.275 48.0609 11.315C48.1009 11.205 48.2709 11.155 48.3509 11.035C48.2809 11.055 48.3909 11.015 48.3809 10.965C48.4309 10.965 48.431 10.925 48.5009 10.865C48.681 10.685 48.0309 11.225 47.9909 11.285C47.9909 11.285 47.9609 11.285 47.9709 11.305C48.0409 11.235 47.9409 11.395 48.0309 11.325L48.0209 11.315ZM46.7009 12.415C46.4509 12.645 47.1109 12.115 46.7809 12.365C47.1309 12.095 47.7009 11.615 47.9609 11.335C47.5309 11.725 47.1209 12.025 46.7009 12.405V12.415ZM47.2909 12.095C47.4309 12.025 47.4209 11.975 47.5509 11.925C48.5909 10.915 49.4909 10.335 50.4909 9.50499C49.4309 10.125 48.3109 11.215 47.2809 12.105L47.2909 12.095ZM48.7509 10.925C48.681 10.995 48.5309 11.075 48.5209 11.135C48.5909 11.065 48.7409 10.985 48.7509 10.925ZM45.8109 13.645C45.7309 13.625 45.6009 13.745 45.5209 13.835C45.6209 13.775 45.6909 13.755 45.8109 13.645ZM47.1609 8.23499C47.2709 8.07499 47.4409 7.97499 47.5809 7.86499C47.7009 7.80499 47.3809 8.05499 47.5509 7.93499C47.4909 8.00499 47.2709 8.14499 47.1509 8.23499H47.1609ZM37.7509 16.035C37.6709 16.045 37.6909 16.035 37.6109 16.015C37.6709 15.995 37.7409 15.935 37.8009 15.905C37.7809 15.955 37.7409 16.005 37.7609 16.055C37.7309 16.075 37.7409 16.055 37.7509 16.045V16.035Z" fill="#124936"/>
        <path d="M53.0609 17.875C53.2109 17.865 53.4209 17.895 53.5309 17.855C53.3409 17.835 53.2009 17.835 53.0609 17.875ZM45.0309 17.875C45.0709 17.805 45.2809 17.855 45.3909 17.835C45.3509 17.905 45.1409 17.855 45.0309 17.875ZM50.8809 17.835C50.8309 17.875 50.6609 17.845 50.5909 17.835C50.6509 17.785 50.8009 17.835 50.8809 17.835ZM56.6809 17.785C56.6809 17.785 56.4709 17.815 56.4509 17.785C56.5709 17.795 56.6109 17.765 56.6809 17.785ZM54.8609 17.785C54.8609 17.785 55.0109 17.785 55.0709 17.765C55.0709 17.745 55.0209 17.755 54.9909 17.745C55.0009 17.705 55.1209 17.745 55.1709 17.725C55.1509 17.745 55.1209 17.755 55.0909 17.765C55.1709 17.805 55.3609 17.765 55.4809 17.785C55.3209 17.825 55.0309 17.795 54.8609 17.785ZM51.1909 17.665C51.1909 17.665 51.0109 17.665 50.9309 17.685C50.9709 17.645 51.1109 17.685 51.1909 17.665ZM59.6409 17.635C59.5609 17.625 59.5409 17.565 59.4309 17.565C59.4809 17.505 59.6509 17.555 59.6409 17.635ZM50.6709 14.495C50.6209 14.535 50.4509 14.495 50.3609 14.515C50.4109 14.475 50.5809 14.515 50.6709 14.495ZM57.3009 14.305C57.3009 14.305 57.4209 14.325 57.5109 14.305C57.4709 14.365 57.3709 14.325 57.3009 14.305ZM53.6909 14.075C53.7509 14.035 53.9209 14.075 54.0309 14.055C54.0109 14.115 53.7609 14.095 53.6909 14.075ZM52.7509 14.095C52.8009 14.035 52.9709 14.055 53.0909 14.045C53.0409 14.105 52.8409 14.065 52.7509 14.095ZM60.1309 17.195C60.0609 17.195 59.9909 17.175 59.9209 17.235C59.8009 17.185 59.6509 17.175 59.4809 17.165C59.4609 17.165 59.4509 17.185 59.4309 17.185C59.4509 17.225 59.3909 17.305 59.4809 17.295C59.4009 17.395 59.2109 17.295 59.2209 17.245C59.1409 17.235 59.1309 17.265 59.0609 17.265C59.1709 17.335 59.2209 17.395 59.3709 17.375C59.3709 17.455 59.3609 17.465 59.4009 17.565C59.2609 17.565 59.2609 17.605 59.1909 17.685C59.1309 17.665 59.0609 17.655 58.9809 17.655C58.9509 17.655 58.9409 17.685 58.9009 17.685C58.8809 17.735 58.9709 17.715 58.9509 17.775C57.6709 17.685 56.3609 17.755 55.0309 17.705C54.6909 17.845 54.5209 17.705 54.1209 17.745C54.1709 17.805 54.3709 17.765 54.4609 17.795C53.5009 17.825 52.4709 17.765 51.7009 17.845C51.3209 17.775 50.7809 17.755 50.3509 17.775C50.2609 17.775 50.3509 17.825 50.3009 17.825C49.9909 17.825 49.9909 17.795 49.7009 17.805C49.7409 17.685 49.9609 17.705 50.1709 17.695C49.9609 17.685 49.5309 17.635 49.5209 17.695C49.0509 17.695 48.6909 17.715 48.1709 17.715C48.1109 17.745 48.0009 17.745 47.9909 17.805C47.8009 17.805 47.6009 17.805 47.4709 17.845C47.5109 17.885 47.6509 17.845 47.7309 17.865C47.5809 17.935 47.1709 17.915 47.1109 17.815C46.6309 17.815 46.1309 17.795 45.7609 17.865C45.3809 17.685 44.8909 17.825 44.3809 17.795C44.7209 17.835 44.1909 17.845 44.1509 17.845C43.8709 17.865 43.5809 17.905 43.3209 17.935C42.8309 17.985 42.4309 17.935 42.1009 17.955C41.2809 18.015 40.4409 17.955 39.7609 17.865C39.6909 17.865 39.6509 17.895 39.5809 17.905C39.5809 17.885 39.6109 17.895 39.6309 17.885C39.4209 17.785 39.1409 17.585 39.4009 17.415C39.3809 17.325 39.2609 17.265 39.1709 17.185C39.3309 16.945 39.2509 16.635 39.4809 16.435C39.3409 16.265 39.4809 16.045 39.4809 15.835C39.4809 15.605 39.3409 15.355 39.6109 15.225C39.7009 14.515 41.2409 14.785 42.0309 14.835C42.5009 14.725 42.9809 14.885 43.5109 14.855C43.5909 14.855 43.6009 14.805 43.6709 14.805C44.4109 14.855 45.0709 14.765 45.7209 14.765C45.3109 14.725 45.1209 14.745 44.6509 14.725C44.4609 14.715 44.7309 14.705 44.8109 14.705C46.2709 14.655 48.1409 14.625 50.0109 14.595C50.2109 14.595 50.4509 14.655 50.5609 14.575C50.8509 14.605 51.0309 14.595 51.2909 14.575C51.3009 14.545 51.1509 14.545 51.1609 14.575C51.3809 14.465 51.9309 14.555 52.3009 14.505C51.8709 14.385 50.8609 14.495 50.3809 14.455C51.2409 14.405 51.9809 14.455 52.7709 14.365C52.7609 14.405 52.8909 14.365 52.8509 14.415C53.2909 14.395 53.6609 14.415 54.0209 14.415C54.2709 14.415 54.5309 14.325 54.7709 14.415C56.3209 14.445 57.6409 14.455 58.9309 14.595C58.8609 14.645 58.8109 14.545 58.7209 14.595C58.8009 14.625 58.9109 14.625 58.9809 14.665C59.1109 14.595 59.7009 14.655 59.7909 14.825C59.6009 14.795 59.4509 14.735 59.2209 14.735C59.2709 14.785 59.4109 14.755 59.4309 14.825C59.3109 14.845 59.0809 14.805 58.9409 14.785C58.9009 14.785 58.9409 14.815 58.9709 14.825C58.6409 14.825 58.2709 14.685 57.9009 14.775C58.0509 14.805 58.2809 14.745 58.3909 14.825C58.3509 14.855 58.1909 14.805 58.0809 14.825C58.2209 14.875 58.3109 14.865 58.4709 14.875C58.3509 14.805 58.5809 14.875 58.6809 14.855C58.4209 14.905 58.1209 14.925 58.2909 15.065C58.6609 15.095 58.7209 15.075 58.9709 15.085C58.9209 15.045 58.8709 15.085 58.9209 15.015H58.7909C58.9309 15.015 59.0209 14.925 59.2109 14.905C59.2109 14.925 59.1509 14.915 59.1109 14.925C59.1309 14.985 59.2009 15.005 59.2909 15.015C59.2909 15.065 59.1709 15.035 59.1909 15.105C59.2109 15.155 59.2509 15.085 59.2909 15.105C59.3009 15.165 59.1709 15.115 59.1609 15.155C59.2709 15.155 59.4009 15.205 59.6009 15.195C59.5909 15.215 59.5709 15.235 59.5209 15.235C59.5809 15.285 59.7309 15.235 59.8109 15.235C59.8009 15.325 59.9309 15.305 59.9409 15.375C59.7809 15.305 59.7309 15.415 59.6809 15.325C59.5709 15.445 59.3109 15.375 59.0809 15.415C59.2009 15.445 59.3809 15.435 59.5209 15.455C59.5009 15.475 59.4609 15.485 59.4209 15.495C59.4309 15.515 59.5209 15.555 59.5009 15.495C59.5809 15.535 59.4209 15.555 59.4009 15.585C59.4309 15.585 59.4709 15.585 59.4509 15.675C59.3309 15.695 59.1109 15.585 58.9609 15.675C58.9309 15.655 58.8809 15.645 58.8609 15.625C58.7709 15.645 58.7209 15.695 58.5709 15.675C58.7309 15.645 58.5109 15.635 58.4909 15.565C58.4909 15.625 58.1609 15.585 58.0209 15.615C58.1509 15.645 58.4409 15.635 58.5409 15.635C58.5209 15.655 58.4909 15.665 58.4609 15.665C58.7009 15.695 58.9809 15.715 59.2109 15.645C59.2109 15.705 59.3309 15.695 59.3909 15.715C59.4909 15.715 59.4609 15.625 59.5709 15.625C59.5909 15.745 59.5309 15.765 59.3609 15.785C59.5509 15.805 59.8609 15.745 59.9309 15.965C59.7609 15.845 59.5209 15.815 59.2309 15.845C59.3309 15.895 59.6009 15.825 59.6709 15.895C59.5909 15.895 59.6009 15.925 59.5409 15.945C59.6009 16.005 59.5709 15.975 59.6709 16.015C59.6209 16.055 59.5409 15.975 59.4409 15.995C59.4009 16.045 59.6109 16.035 59.4709 16.045C59.4609 16.075 59.5709 16.105 59.5709 16.065C59.5709 16.085 59.4709 16.155 59.4909 16.225C59.3509 16.245 59.4209 16.215 59.2609 16.245C59.3209 16.345 59.5009 16.215 59.5709 16.265C59.5509 16.225 59.6809 16.155 59.5409 16.145C59.6109 16.065 59.6809 16.145 59.7509 16.195C59.7309 16.245 59.6709 16.185 59.6209 16.195C59.5509 16.335 59.9309 16.505 59.7209 16.585C59.7009 16.635 59.7709 16.615 59.8009 16.635C59.6709 16.705 59.5209 16.655 59.3609 16.705C59.4109 16.735 59.6409 16.735 59.7009 16.705C59.7809 16.725 59.6809 16.755 59.6209 16.735C59.6709 16.855 60.0309 16.745 60.1109 16.775C60.1309 16.825 59.9109 16.855 59.8809 16.915C59.8509 16.895 59.8309 16.865 59.7509 16.875C59.8509 16.835 59.7209 16.855 59.7809 16.805C59.6809 16.885 59.5909 16.875 59.4709 16.945C59.5909 17.025 59.7509 16.995 59.9109 17.085C60.0509 17.045 60.1109 17.045 60.2509 17.085C60.2509 17.135 60.0909 17.175 60.1709 17.225L60.1309 17.195ZM50.9009 17.665C50.8609 17.715 50.6309 17.645 50.5909 17.705C51.5509 17.715 52.6909 17.825 53.5309 17.705C53.4309 17.695 53.2509 17.725 53.1909 17.685C53.2209 17.685 53.2509 17.665 53.2709 17.655C52.9309 17.685 52.1409 17.625 51.6809 17.685C51.7109 17.685 51.7509 17.685 51.7609 17.665C51.5209 17.665 50.9309 17.595 50.9009 17.665ZM59.6609 16.495V16.385C59.2509 16.355 58.7209 16.315 58.2809 16.385C58.6809 16.395 58.9709 16.405 59.2409 16.435C59.2209 16.465 59.2909 16.455 59.1909 16.485C59.4109 16.515 59.4609 16.445 59.6609 16.485V16.495ZM59.0109 15.535C58.8609 15.535 58.5709 15.455 58.3909 15.515C58.4809 15.515 58.7409 15.495 58.6009 15.555C58.7109 15.595 58.9109 15.555 59.0209 15.535H59.0109ZM43.1009 14.885C43.1809 14.905 43.1309 14.915 43.1309 14.955C43.3009 14.975 43.4409 15.005 43.6509 14.995C43.5709 14.895 43.3109 14.795 43.1009 14.885ZM44.8209 14.925C44.8209 14.845 44.4609 14.845 44.4609 14.925C44.6009 14.955 44.6609 14.925 44.8209 14.925ZM50.1509 14.835C50.1509 14.835 50.1209 14.845 50.1209 14.815C50.0309 14.875 49.9009 14.815 49.7809 14.855C49.8409 14.875 49.7409 14.855 49.7309 14.895C49.7009 14.875 49.6809 14.895 49.6009 14.895C49.3909 14.925 50.0909 14.915 50.1509 14.895C50.1509 14.895 50.1709 14.915 50.1809 14.895C50.1009 14.895 50.2509 14.845 50.1509 14.845V14.835ZM51.5809 14.815C51.8609 14.795 51.1609 14.785 51.5009 14.795C51.1309 14.785 50.5109 14.795 50.2009 14.845C50.6809 14.815 51.1109 14.845 51.5809 14.805V14.815ZM51.0309 14.695C50.9009 14.665 50.8809 14.715 50.7709 14.665C49.5709 14.795 48.6909 14.665 47.6009 14.685C48.6109 14.875 49.9009 14.745 51.0309 14.705V14.695ZM49.4709 14.675C49.5509 14.665 49.6909 14.695 49.7309 14.655C49.6509 14.665 49.5109 14.635 49.4709 14.675ZM52.8009 14.425C52.8409 14.495 52.9909 14.485 53.0909 14.465C52.9909 14.455 52.9409 14.415 52.8009 14.425ZM49.0809 17.755C48.9209 17.815 48.7609 17.785 48.6109 17.775C48.5009 17.755 48.8409 17.755 48.6609 17.735C48.7309 17.715 48.9509 17.745 49.0809 17.755ZM59.2409 17.665C59.3009 17.705 59.2809 17.705 59.3209 17.775C59.2709 17.755 59.2009 17.755 59.1409 17.735C59.1809 17.705 59.2309 17.695 59.2409 17.645C59.2709 17.645 59.2509 17.665 59.2409 17.665Z" fill="#124936"/>
        <path d="M28.0508 11.945C28.1408 11.935 28.2708 11.965 28.3308 11.925C28.2208 11.905 28.1308 11.905 28.0508 11.945ZM23.1608 11.945C23.1808 11.875 23.3108 11.925 23.3808 11.905C23.3608 11.975 23.2308 11.925 23.1608 11.945ZM26.7208 11.905C26.7208 11.905 26.5808 11.915 26.5508 11.905C26.5908 11.855 26.6808 11.905 26.7208 11.905ZM30.2508 11.855C30.2508 11.855 30.1208 11.885 30.1108 11.855C30.1808 11.865 30.2108 11.835 30.2508 11.855ZM29.1408 11.855C29.1408 11.855 29.2308 11.855 29.2708 11.835C29.2708 11.815 29.2408 11.825 29.2208 11.815C29.2208 11.775 29.3008 11.815 29.3308 11.795C29.3208 11.815 29.3008 11.825 29.2808 11.835C29.3308 11.875 29.4408 11.835 29.5208 11.855C29.4208 11.895 29.2408 11.865 29.1408 11.855ZM26.9108 11.735C26.9108 11.735 26.8008 11.735 26.7508 11.755C26.7708 11.715 26.8608 11.755 26.9108 11.735ZM32.0608 11.705C32.0108 11.695 32.0008 11.635 31.9308 11.635C31.9608 11.575 32.0608 11.625 32.0608 11.705ZM26.6008 8.56499C26.6008 8.56499 26.4708 8.56499 26.4108 8.58499C26.4408 8.54499 26.5408 8.58499 26.6008 8.56499ZM30.6408 8.37499C30.6408 8.37499 30.7108 8.39499 30.7708 8.37499C30.7408 8.43499 30.6808 8.39499 30.6408 8.37499ZM28.4408 8.14499C28.4408 8.14499 28.5808 8.14499 28.6508 8.12499C28.6408 8.18499 28.4808 8.16499 28.4408 8.14499ZM27.8708 8.16499C27.9008 8.10499 28.0008 8.12499 28.0808 8.11499C28.0508 8.17499 27.9208 8.13499 27.8708 8.16499ZM32.3708 11.265C32.3708 11.265 32.2908 11.245 32.2408 11.305C32.1708 11.255 32.0708 11.245 31.9708 11.235C31.9608 11.235 31.9508 11.255 31.9408 11.255C31.9408 11.295 31.9108 11.375 31.9708 11.365C31.9208 11.465 31.8108 11.365 31.8108 11.315C31.7608 11.305 31.7508 11.335 31.7108 11.335C31.7808 11.405 31.8108 11.465 31.9008 11.445C31.9008 11.525 31.9008 11.535 31.9208 11.635C31.8308 11.635 31.8308 11.675 31.7908 11.755C31.7508 11.735 31.7108 11.725 31.6608 11.725C31.6408 11.725 31.6408 11.755 31.6108 11.755C31.6008 11.805 31.6508 11.785 31.6408 11.845C30.8608 11.755 30.0608 11.825 29.2508 11.775C29.0408 11.915 28.9408 11.775 28.7008 11.815C28.7308 11.875 28.8508 11.835 28.9108 11.865C28.3208 11.895 27.7008 11.835 27.2308 11.915C27.0008 11.845 26.6708 11.825 26.4108 11.845C26.3508 11.845 26.4108 11.895 26.3808 11.895C26.1908 11.895 26.1908 11.865 26.0208 11.875C26.0408 11.755 26.1808 11.775 26.3008 11.765C26.1708 11.755 25.9108 11.705 25.9008 11.765C25.6108 11.765 25.3908 11.785 25.0808 11.785C25.0408 11.815 24.9808 11.815 24.9708 11.875C24.8508 11.875 24.7308 11.875 24.6508 11.915C24.6708 11.955 24.7608 11.915 24.8108 11.935C24.7208 12.005 24.4708 11.985 24.4308 11.885C24.1408 11.885 23.8308 11.865 23.6108 11.935C23.3808 11.755 23.0808 11.895 22.7708 11.865C22.9808 11.905 22.6508 11.915 22.6308 11.915C22.4608 11.935 22.2808 11.975 22.1208 12.005C21.8208 12.055 21.5808 12.005 21.3808 12.025C20.8808 12.085 20.3708 12.025 19.9508 11.935C19.9108 11.935 19.8808 11.965 19.8408 11.975C19.8408 11.955 19.8608 11.965 19.8708 11.955C19.7408 11.855 19.5708 11.655 19.7308 11.485C19.7208 11.395 19.6508 11.335 19.5908 11.255C19.6908 11.015 19.6408 10.705 19.7808 10.505C19.7008 10.335 19.7808 10.115 19.7808 9.90499C19.7808 9.67499 19.6908 9.42499 19.8608 9.29499C19.9108 8.58499 20.8508 8.85499 21.3308 8.90499C21.6108 8.79499 21.9108 8.95499 22.2308 8.92499C22.2808 8.92499 22.2808 8.87499 22.3208 8.87499C22.7708 8.92499 23.1808 8.83499 23.5708 8.83499C23.3208 8.79499 23.2108 8.81499 22.9208 8.79499C22.8008 8.78499 22.9708 8.77499 23.0108 8.77499C23.9008 8.72499 25.0408 8.69499 26.1808 8.66499C26.3008 8.66499 26.4508 8.72499 26.5108 8.64499C26.6908 8.67499 26.8008 8.66499 26.9508 8.64499C26.9508 8.61499 26.8608 8.61499 26.8708 8.64499C27.0008 8.53499 27.3408 8.62499 27.5708 8.57499C27.3108 8.45499 26.6908 8.56499 26.4008 8.52499C26.9208 8.47499 27.3708 8.52499 27.8608 8.43499C27.8608 8.47499 27.9308 8.43499 27.9108 8.48499C28.1808 8.46499 28.4008 8.48499 28.6208 8.48499C28.7708 8.48499 28.9308 8.39499 29.0808 8.48499C30.0308 8.51499 30.8308 8.52499 31.6108 8.66499C31.5708 8.71499 31.5408 8.61499 31.4808 8.66499C31.5308 8.69499 31.6008 8.69499 31.6408 8.73499C31.7208 8.66499 32.0808 8.72499 32.1308 8.89499C32.0108 8.86499 31.9208 8.80499 31.7808 8.80499C31.8108 8.85499 31.9008 8.82499 31.9108 8.89499C31.8408 8.91499 31.7008 8.87499 31.6108 8.85499C31.5908 8.85499 31.6108 8.88499 31.6308 8.89499C31.4308 8.89499 31.2008 8.75499 30.9808 8.84499C31.0708 8.87499 31.2108 8.81499 31.2808 8.89499C31.2608 8.92499 31.1608 8.87499 31.0908 8.89499C31.1708 8.94499 31.2308 8.93499 31.3308 8.94499C31.2608 8.87499 31.3908 8.94499 31.4608 8.92499C31.3008 8.97499 31.1208 8.99499 31.2208 9.13499C31.4508 9.16499 31.4808 9.14499 31.6308 9.15499C31.6008 9.11499 31.5708 9.15499 31.6008 9.08499H31.5208C31.6108 9.08499 31.6608 8.99499 31.7708 8.97499C31.7708 8.99499 31.7308 8.98499 31.7108 8.99499C31.7208 9.05499 31.7608 9.07499 31.8208 9.08499C31.8208 9.13499 31.7408 9.10499 31.7608 9.17499C31.7708 9.22499 31.7908 9.15499 31.8208 9.17499C31.8208 9.23499 31.7508 9.18499 31.7408 9.22499C31.8108 9.22499 31.8808 9.27499 32.0108 9.26499C32.0108 9.28499 31.9908 9.30499 31.9608 9.30499C32.0008 9.35499 32.0908 9.30499 32.1308 9.30499C32.1308 9.39499 32.2108 9.37499 32.2108 9.44499C32.1108 9.37499 32.0808 9.48499 32.0508 9.39499C31.9808 9.51499 31.8308 9.44499 31.6908 9.48499C31.7608 9.51499 31.8708 9.50499 31.9608 9.52499C31.9508 9.54499 31.9308 9.55499 31.9008 9.56499C31.9008 9.58499 31.9608 9.62499 31.9508 9.56499C32.0008 9.60499 31.9008 9.62499 31.8908 9.65499C31.9108 9.65499 31.9308 9.65499 31.9208 9.74499C31.8508 9.76499 31.7108 9.65499 31.6208 9.74499C31.6008 9.72499 31.5708 9.71499 31.5608 9.69499C31.5008 9.71499 31.4808 9.76499 31.3908 9.74499C31.4908 9.71499 31.3508 9.70499 31.3408 9.63499C31.3408 9.69499 31.1408 9.65499 31.0608 9.68499C31.1408 9.71499 31.3208 9.70499 31.3808 9.70499C31.3708 9.72499 31.3508 9.73499 31.3308 9.73499C31.4808 9.76499 31.6508 9.78499 31.7908 9.71499C31.7908 9.77499 31.8608 9.76499 31.9008 9.78499C31.9608 9.78499 31.9508 9.69499 32.0108 9.69499C32.0108 9.81499 31.9908 9.83499 31.8808 9.85499C32.0008 9.87499 32.1908 9.81499 32.2308 10.035C32.1308 9.91499 31.9808 9.88499 31.8008 9.91499C31.8608 9.96499 32.0208 9.89499 32.0708 9.96499C32.0208 9.96499 32.0308 9.99499 31.9908 10.015C32.0308 10.075 32.0108 10.045 32.0708 10.085C32.0408 10.125 31.9908 10.045 31.9308 10.065C31.9008 10.115 32.0308 10.105 31.9508 10.115C31.9508 10.145 32.0108 10.175 32.0108 10.135C32.0108 10.155 31.9508 10.225 31.9608 10.295C31.8708 10.315 31.9108 10.285 31.8208 10.315C31.8608 10.415 31.9708 10.285 32.0108 10.335C31.9908 10.295 32.0808 10.225 31.9908 10.215C32.0308 10.135 32.0808 10.215 32.1208 10.265C32.1108 10.315 32.0708 10.255 32.0408 10.265C32.0008 10.405 32.2308 10.575 32.1008 10.655C32.0908 10.705 32.1308 10.685 32.1508 10.705C32.0708 10.775 31.9808 10.725 31.8808 10.775C31.9108 10.805 32.0508 10.805 32.0908 10.775C32.1408 10.795 32.0708 10.825 32.0408 10.805C32.0708 10.925 32.2908 10.815 32.3408 10.845C32.3508 10.895 32.2208 10.925 32.2008 10.985C32.1808 10.965 32.1708 10.935 32.1208 10.945C32.1808 10.905 32.1008 10.925 32.1408 10.875C32.0808 10.955 32.0208 10.945 31.9508 11.015C32.0208 11.095 32.1208 11.065 32.2208 11.155C32.3008 11.115 32.3408 11.115 32.4308 11.155C32.4308 11.205 32.3308 11.245 32.3808 11.295L32.3708 11.265ZM26.7508 11.735C26.7208 11.785 26.5908 11.715 26.5608 11.775C27.1508 11.785 27.8408 11.895 28.3508 11.775C28.2908 11.765 28.1808 11.795 28.1408 11.755C28.1608 11.755 28.1808 11.735 28.1908 11.725C27.9808 11.755 27.5008 11.695 27.2208 11.755C27.2408 11.755 27.2608 11.755 27.2708 11.735C27.1208 11.735 26.7608 11.665 26.7508 11.735ZM32.0908 10.565V10.455C31.8408 10.425 31.5208 10.385 31.2508 10.455C31.4908 10.465 31.6708 10.475 31.8408 10.505C31.8308 10.535 31.8708 10.525 31.8108 10.555C31.9408 10.585 31.9708 10.515 32.0908 10.555V10.565ZM31.6908 9.60499C31.6008 9.60499 31.4208 9.52499 31.3108 9.58499C31.3608 9.58499 31.5208 9.56499 31.4408 9.62499C31.5108 9.66499 31.6308 9.62499 31.6908 9.60499ZM22.0008 8.95499C22.0008 8.95499 22.0208 8.98499 22.0208 9.02499C22.1208 9.04499 22.2108 9.07499 22.3408 9.06499C22.2908 8.96499 22.1308 8.86499 22.0108 8.95499H22.0008ZM23.0508 8.99499C23.0508 8.91499 22.8308 8.91499 22.8308 8.99499C22.9108 9.02499 22.9508 8.99499 23.0508 8.99499ZM26.3008 8.90499C26.3008 8.90499 26.2808 8.91499 26.2808 8.88499C26.2308 8.94499 26.1508 8.88499 26.0708 8.92499C26.1008 8.94499 26.0508 8.92499 26.0408 8.96499C26.0208 8.94499 26.0108 8.96499 25.9608 8.96499C25.8308 8.99499 26.2608 8.98499 26.2908 8.96499C26.2908 8.96499 26.3008 8.98499 26.3108 8.96499C26.2608 8.96499 26.3508 8.91499 26.2908 8.91499L26.3008 8.90499ZM27.1708 8.88499C27.3408 8.86499 26.9108 8.85499 27.1208 8.86499C26.8908 8.85499 26.5208 8.86499 26.3308 8.91499C26.6208 8.88499 26.8808 8.91499 27.1708 8.87499V8.88499ZM26.8408 8.76499C26.7608 8.73499 26.7508 8.78499 26.6808 8.73499C25.9508 8.86499 25.4108 8.73499 24.7508 8.75499C25.3608 8.94499 26.1508 8.81499 26.8408 8.77499V8.76499ZM25.8908 8.74499C25.8908 8.74499 26.0308 8.76499 26.0508 8.72499C26.0008 8.73499 25.9108 8.70499 25.8908 8.74499ZM27.9208 8.49499C27.9508 8.56499 28.0308 8.55499 28.0908 8.53499C28.0308 8.52499 28.0008 8.48499 27.9208 8.49499ZM25.6608 11.825C25.5708 11.885 25.4608 11.855 25.3708 11.845C25.3008 11.825 25.5108 11.825 25.4008 11.805C25.4508 11.785 25.5808 11.815 25.6508 11.825H25.6608ZM31.8508 11.735C31.8508 11.735 31.8708 11.775 31.9008 11.845C31.8708 11.825 31.8308 11.825 31.7908 11.805C31.8108 11.775 31.8508 11.765 31.8508 11.715C31.8708 11.715 31.8508 11.735 31.8508 11.735Z" fill="#124936"/>
        <path d="M22.4709 15.455C22.3909 15.535 22.2409 15.615 22.2009 15.695C22.3309 15.625 22.4109 15.545 22.4709 15.455ZM27.3109 11.505C27.3309 11.575 27.1709 11.645 27.1109 11.715C27.0909 11.645 27.2509 11.575 27.3109 11.505ZM23.8109 14.405C23.8109 14.345 23.9409 14.285 23.9809 14.265C23.9809 14.335 23.8609 14.365 23.8109 14.405ZM20.3509 17.295C20.3509 17.295 20.4609 17.165 20.4909 17.175C20.4109 17.225 20.4109 17.275 20.3509 17.295ZM21.4509 16.395C21.4509 16.395 21.3709 16.475 21.3409 16.515C21.3609 16.525 21.3809 16.505 21.4009 16.495C21.4209 16.535 21.3309 16.565 21.3009 16.595C21.3009 16.575 21.3109 16.555 21.3209 16.525C21.2509 16.525 21.1509 16.655 21.0709 16.705C21.1409 16.595 21.3309 16.475 21.4509 16.395ZM23.7409 14.685C23.7409 14.685 23.8409 14.595 23.8909 14.545C23.8909 14.595 23.7909 14.635 23.7409 14.685ZM18.6709 18.865C18.7309 18.835 18.7809 18.865 18.8409 18.815C18.8409 18.885 18.7209 18.935 18.6709 18.865ZM26.0609 16.885C26.0609 16.825 26.1909 16.775 26.2409 16.715C26.2409 16.775 26.1109 16.825 26.0609 16.885ZM22.1909 20.295C22.1909 20.295 22.1009 20.335 22.0609 20.395C22.0609 20.325 22.1309 20.305 22.1909 20.295ZM24.5109 18.695C24.5009 18.755 24.3709 18.815 24.3209 18.875C24.3009 18.815 24.4609 18.715 24.5109 18.695ZM25.0609 18.225C25.0709 18.295 24.9509 18.365 24.8909 18.435C24.8809 18.365 25.0309 18.295 25.0609 18.225ZM18.6509 19.455C18.6509 19.455 18.7509 19.405 18.7509 19.325C18.8509 19.305 18.9509 19.235 19.0609 19.165C19.0709 19.155 19.0609 19.135 19.0809 19.125C19.0509 19.105 19.0309 19.005 18.9809 19.065C18.9709 18.945 19.1409 18.925 19.1709 18.975C19.2309 18.945 19.2209 18.915 19.2509 18.885C19.1409 18.885 19.0709 18.855 19.0009 18.955C18.9509 18.895 18.9509 18.875 18.8609 18.815C18.9409 18.735 18.9209 18.715 18.9109 18.615C18.9609 18.595 19.0109 18.575 19.0609 18.535C19.0809 18.515 19.0609 18.495 19.0809 18.465C19.0609 18.415 19.0209 18.465 18.9909 18.425C19.8209 17.865 20.5709 17.165 21.4009 16.545C21.5209 16.275 21.7009 16.285 21.9309 16.075C21.8609 16.045 21.7709 16.185 21.6909 16.205C22.2509 15.705 22.9109 15.245 23.3209 14.805C23.5909 14.675 23.9309 14.425 24.1809 14.195C24.2309 14.145 24.1509 14.155 24.1809 14.125C24.3709 13.985 24.3909 13.995 24.5509 13.845C24.6009 13.955 24.4609 14.055 24.3309 14.155C24.4609 14.065 24.7509 13.885 24.7209 13.835C25.0009 13.605 25.2109 13.405 25.5209 13.155C25.5409 13.105 25.6109 13.055 25.5709 12.995C25.6809 12.905 25.8109 12.805 25.8609 12.715C25.8109 12.705 25.7509 12.795 25.6909 12.825C25.7409 12.695 26.0009 12.505 26.1009 12.555C26.3909 12.325 26.7009 12.085 26.8809 11.845C27.2309 11.795 27.4309 11.455 27.7509 11.225C27.5209 11.365 27.8309 11.095 27.8609 11.065C28.0209 10.905 28.1709 10.735 28.3109 10.585C28.5709 10.305 28.8509 10.155 29.0409 9.97499C29.5009 9.52499 30.0409 9.16499 30.5109 8.89499C30.5509 8.85499 30.5509 8.81499 30.6009 8.77499C30.6109 8.78499 30.5909 8.80499 30.5809 8.81499C30.7709 8.78499 31.0609 8.81499 31.0209 9.06499C31.0909 9.12499 31.1909 9.11499 31.3109 9.12499C31.3709 9.38499 31.6109 9.59499 31.6009 9.86499C31.7909 9.93499 31.8509 10.165 31.9809 10.325C32.1209 10.505 32.3709 10.635 32.2909 10.865C32.6909 11.465 31.5809 12.005 31.0809 12.355C30.8709 12.665 30.4709 12.785 30.1809 13.075C30.1309 13.115 30.1609 13.155 30.1209 13.195C29.6409 13.525 29.3009 13.915 28.9009 14.235C29.1709 14.065 29.2809 13.955 29.5609 13.735C29.6809 13.645 29.5209 13.795 29.4809 13.825C28.6309 14.585 27.5309 15.525 26.4109 16.465C26.2909 16.565 26.1109 16.645 26.0909 16.745C25.9009 16.865 25.7909 16.965 25.6509 17.105C25.6609 17.135 25.7509 17.055 25.7309 17.045C25.6709 17.245 25.2809 17.435 25.0909 17.665C25.4209 17.545 25.9709 16.965 26.2809 16.755C25.8009 17.215 25.3209 17.545 24.8909 17.995C24.8709 17.955 24.8209 18.065 24.8109 17.995C24.5609 18.225 24.3209 18.395 24.1109 18.575C23.9609 18.705 23.8609 18.895 23.6609 18.945C22.7009 19.685 21.9009 20.325 21.0409 20.855C21.0409 20.775 21.1509 20.835 21.1709 20.755C21.1009 20.775 21.0309 20.825 20.9709 20.825C20.9409 20.945 20.5509 21.185 20.3809 21.095C20.5109 21.025 20.6409 20.995 20.7809 20.885C20.7209 20.875 20.6509 20.965 20.6009 20.915C20.6609 20.835 20.8209 20.755 20.9209 20.695C20.9409 20.675 20.9009 20.665 20.8809 20.685C21.0809 20.525 21.3909 20.445 21.5609 20.205C21.4509 20.255 21.3509 20.415 21.2309 20.405C21.2309 20.365 21.3609 20.315 21.4209 20.255C21.3109 20.285 21.2609 20.335 21.1509 20.405C21.2709 20.405 21.0909 20.455 21.0409 20.525C21.1609 20.355 21.3309 20.195 21.1409 20.175C20.9009 20.335 20.8809 20.375 20.7209 20.495C20.7709 20.495 20.7809 20.455 20.8009 20.525L20.8809 20.465C20.7909 20.535 20.8009 20.645 20.7009 20.755C20.6909 20.735 20.7309 20.715 20.7509 20.695C20.7009 20.655 20.6509 20.675 20.5809 20.715C20.5509 20.675 20.6409 20.635 20.5809 20.595C20.5409 20.565 20.5609 20.635 20.5209 20.645C20.4809 20.605 20.5809 20.575 20.5609 20.545C20.4909 20.595 20.3909 20.625 20.2709 20.735C20.2709 20.715 20.2709 20.695 20.2909 20.665C20.2209 20.665 20.1609 20.765 20.1209 20.805C20.0709 20.735 20.0009 20.805 19.9509 20.765C20.0909 20.745 20.0509 20.635 20.1409 20.675C20.1409 20.525 20.3309 20.455 20.4409 20.315C20.3509 20.355 20.2509 20.445 20.1509 20.505C20.1509 20.475 20.1609 20.455 20.1909 20.425C20.1709 20.425 20.0909 20.425 20.1409 20.465C20.0709 20.465 20.1409 20.375 20.1409 20.345C20.1109 20.355 20.0909 20.375 20.0509 20.305C20.1109 20.235 20.3209 20.205 20.3509 20.065C20.3809 20.065 20.4209 20.045 20.4509 20.055C20.4909 19.995 20.4909 19.935 20.5909 19.875C20.5209 19.975 20.6509 19.875 20.7009 19.915C20.6609 19.865 20.8909 19.735 20.9509 19.645C20.8509 19.685 20.6809 19.835 20.6309 19.885C20.6309 19.865 20.6409 19.845 20.6509 19.815C20.4909 19.915 20.3009 20.025 20.2109 20.195C20.1709 20.155 20.1109 20.215 20.0609 20.235C20.0109 20.285 20.0709 20.345 20.0109 20.395C19.9309 20.315 19.9509 20.265 20.0409 20.175C19.9109 20.255 19.7609 20.455 19.5809 20.325C19.7609 20.335 19.9209 20.235 20.0809 20.075C19.9909 20.095 19.8709 20.265 19.7809 20.255C19.8309 20.225 19.8009 20.195 19.8309 20.155C19.7509 20.145 19.8009 20.155 19.7109 20.155C19.7109 20.095 19.8109 20.125 19.8609 20.055C19.8609 19.995 19.7409 20.105 19.8109 20.025C19.8009 19.995 19.7109 20.025 19.7409 20.065C19.7309 20.045 19.7409 19.945 19.6909 19.905C19.7609 19.825 19.7409 19.875 19.8209 19.775C19.7209 19.725 19.7009 19.915 19.6209 19.915C19.6609 19.935 19.6209 20.065 19.7109 19.995C19.7209 20.095 19.6209 20.065 19.5509 20.055C19.5309 20.005 19.6109 20.025 19.6309 19.995C19.5809 19.855 19.2509 19.905 19.3209 19.745C19.3009 19.695 19.2709 19.745 19.2409 19.745C19.2709 19.625 19.4009 19.585 19.4609 19.475C19.4109 19.475 19.2709 19.595 19.2609 19.645C19.2009 19.675 19.2409 19.595 19.2809 19.575C19.1809 19.505 19.0209 19.765 18.9609 19.795C18.9209 19.775 19.0309 19.635 19.0109 19.575C19.0409 19.575 19.0709 19.595 19.1109 19.535C19.0809 19.615 19.1409 19.535 19.1409 19.605C19.1409 19.485 19.2109 19.455 19.2409 19.345C19.1209 19.345 19.0409 19.445 18.8909 19.455C18.8309 19.545 18.8009 19.585 18.6909 19.625C18.6609 19.585 18.7309 19.475 18.6509 19.475V19.455ZM23.9109 14.545C23.9109 14.485 24.0809 14.425 24.0809 14.365C23.4909 14.825 22.7409 15.305 22.3109 15.815C22.3809 15.775 22.4609 15.665 22.5209 15.665C22.5109 15.685 22.5009 15.705 22.5009 15.735C22.6809 15.545 23.2009 15.195 23.4309 14.925C23.4109 14.945 23.3809 14.955 23.3909 14.975C23.5409 14.865 23.9409 14.625 23.9109 14.555V14.545ZM19.3709 19.765L19.4409 19.845C19.7109 19.665 20.0509 19.435 20.2709 19.165C20.0209 19.355 19.8409 19.495 19.6609 19.595C19.6609 19.565 19.6209 19.595 19.6609 19.525C19.5109 19.615 19.5209 19.685 19.3809 19.755L19.3709 19.765ZM20.3709 20.195C20.4709 20.125 20.6809 20.045 20.7609 19.905C20.7009 19.945 20.5609 20.095 20.6109 19.985C20.5209 20.005 20.4209 20.135 20.3709 20.205V20.195ZM30.3709 12.865C30.3109 12.895 30.3409 12.865 30.3109 12.825C30.2009 12.895 30.0909 12.945 29.9709 13.055C30.0809 13.095 30.3009 13.045 30.3709 12.865ZM29.3109 13.685C29.3609 13.745 29.5809 13.565 29.5309 13.505C29.4309 13.545 29.4109 13.605 29.3109 13.685ZM26.1509 16.375C26.1509 16.375 26.1609 16.345 26.1809 16.375C26.1909 16.285 26.3209 16.275 26.3609 16.185C26.3109 16.185 26.3909 16.175 26.3609 16.135C26.4009 16.135 26.4009 16.115 26.4409 16.075C26.5509 15.945 26.1309 16.305 26.1109 16.345C26.1109 16.345 26.0809 16.345 26.0909 16.355C26.1409 16.315 26.0909 16.425 26.1409 16.385L26.1509 16.375ZM25.3009 17.095C25.1409 17.245 25.5809 16.915 25.3609 17.075C25.5909 16.905 25.9509 16.585 26.1109 16.395C25.8409 16.655 25.5709 16.845 25.3009 17.105V17.095ZM25.7109 16.925C25.8109 16.885 25.7909 16.845 25.8909 16.825C26.5309 16.135 27.1409 15.795 27.7909 15.255C27.0609 15.605 26.3709 16.345 25.7109 16.925ZM26.6609 16.175C26.6609 16.175 26.5109 16.265 26.5109 16.315C26.5509 16.265 26.6609 16.225 26.6609 16.175ZM24.8109 18.005C24.7409 17.975 24.6609 18.055 24.6209 18.115C24.6809 18.075 24.7409 18.075 24.8109 18.005ZM24.9409 13.595C25.0009 13.475 25.1209 13.415 25.2109 13.355C25.2909 13.315 25.0809 13.485 25.2109 13.405C25.1809 13.455 25.0309 13.545 24.9509 13.595H24.9409ZM18.8709 18.665C18.8109 18.665 18.8209 18.655 18.7609 18.625C18.8009 18.625 18.8509 18.585 18.8909 18.565C18.8909 18.605 18.8609 18.645 18.8909 18.685C18.8709 18.695 18.8709 18.685 18.8809 18.675L18.8709 18.665Z" fill="#124936"/>
        <path d="M29.1609 20.965C29.2609 20.955 29.4009 20.985 29.4609 20.945C29.3409 20.925 29.2509 20.925 29.1609 20.965ZM23.9609 20.965C23.9809 20.895 24.1209 20.945 24.2009 20.925C24.1809 20.995 24.0409 20.945 23.9609 20.965ZM27.7409 20.925C27.7409 20.925 27.5909 20.935 27.5609 20.925C27.6009 20.875 27.6909 20.925 27.7409 20.925ZM31.4909 20.875C31.4909 20.875 31.3509 20.905 31.3409 20.875C31.4209 20.885 31.4409 20.855 31.4909 20.875ZM30.3109 20.875C30.3109 20.875 30.4009 20.875 30.4409 20.855C30.4409 20.835 30.4109 20.845 30.3909 20.835C30.3909 20.795 30.4709 20.835 30.5109 20.815C30.5009 20.835 30.4809 20.845 30.4609 20.855C30.5109 20.895 30.6309 20.855 30.7109 20.875C30.6009 20.915 30.4209 20.885 30.3109 20.875ZM27.9409 20.755C27.9409 20.755 27.8209 20.755 27.7709 20.775C27.7909 20.735 27.8909 20.775 27.9409 20.755ZM33.4109 20.725C33.3609 20.715 33.3409 20.655 33.2809 20.655C33.3109 20.595 33.4209 20.645 33.4109 20.725ZM27.6109 17.585C27.6109 17.585 27.4709 17.585 27.4109 17.605C27.4409 17.565 27.5509 17.605 27.6109 17.585ZM31.9009 17.395C31.9009 17.395 31.9809 17.415 32.0309 17.395C32.0009 17.455 31.9409 17.415 31.9009 17.395ZM29.5609 17.165C29.5609 17.165 29.7109 17.165 29.7809 17.145C29.7609 17.205 29.6009 17.185 29.5609 17.165ZM28.9509 17.185C28.9809 17.125 29.0909 17.145 29.1709 17.135C29.1409 17.195 29.0109 17.155 28.9509 17.185ZM33.7309 20.285C33.7309 20.285 33.6409 20.265 33.6009 20.325C33.5309 20.275 33.4209 20.265 33.3109 20.255C33.3009 20.255 33.2909 20.275 33.2809 20.275C33.2909 20.315 33.2509 20.395 33.3109 20.385C33.2609 20.485 33.1409 20.385 33.1409 20.335C33.0909 20.325 33.0809 20.355 33.0409 20.355C33.1109 20.425 33.1409 20.485 33.2409 20.465C33.2409 20.545 33.2409 20.555 33.2609 20.655C33.1709 20.655 33.1709 20.695 33.1309 20.775C33.0909 20.755 33.0509 20.745 33.0009 20.745C32.9809 20.745 32.9709 20.775 32.9509 20.775C32.9409 20.825 33.0009 20.805 32.9809 20.865C32.1509 20.775 31.3009 20.845 30.4409 20.795C30.2209 20.935 30.1109 20.795 29.8509 20.835C29.8809 20.895 30.0109 20.855 30.0709 20.885C29.4509 20.915 28.7809 20.855 28.2909 20.935C28.0409 20.865 27.7009 20.845 27.4209 20.865C27.3609 20.865 27.4209 20.915 27.3909 20.915C27.1909 20.915 27.1909 20.885 27.0009 20.895C27.0209 20.775 27.1709 20.795 27.3009 20.785C27.1709 20.775 26.8909 20.725 26.8809 20.785C26.5709 20.785 26.3409 20.805 26.0109 20.805C25.9709 20.835 25.9009 20.835 25.8909 20.895C25.7709 20.895 25.6409 20.895 25.5509 20.935C25.5709 20.975 25.6709 20.935 25.7209 20.955C25.6209 21.025 25.3609 21.005 25.3209 20.905C25.0109 20.905 24.6909 20.885 24.4509 20.955C24.2009 20.775 23.8909 20.915 23.5609 20.885C23.7809 20.925 23.4409 20.935 23.4109 20.935C23.2309 20.955 23.0409 20.995 22.8709 21.025C22.5509 21.075 22.3009 21.025 22.0809 21.045C21.5509 21.105 21.0109 21.045 20.5709 20.955C20.5209 20.955 20.5009 20.985 20.4509 20.995C20.4509 20.975 20.4709 20.985 20.4809 20.975C20.3409 20.875 20.1709 20.675 20.3309 20.505C20.3209 20.415 20.2409 20.355 20.1809 20.275C20.2809 20.035 20.2309 19.725 20.3809 19.525C20.2909 19.345 20.3809 19.135 20.3809 18.925C20.3809 18.695 20.2909 18.445 20.4609 18.315C20.5209 17.605 21.5109 17.875 22.0209 17.925C22.3209 17.815 22.6409 17.975 22.9809 17.945C23.0309 17.945 23.0409 17.895 23.0809 17.895C23.5609 17.945 23.9909 17.855 24.4109 17.855C24.1509 17.815 24.0209 17.835 23.7209 17.815C23.6009 17.805 23.7709 17.795 23.8209 17.795C24.7709 17.745 25.9709 17.715 27.1809 17.685C27.3109 17.685 27.4709 17.745 27.5309 17.665C27.7209 17.695 27.8309 17.685 28.0009 17.665C28.0009 17.635 27.9109 17.635 27.9209 17.665C28.0609 17.555 28.4209 17.645 28.6609 17.595C28.3809 17.475 27.7309 17.585 27.4209 17.545C27.9709 17.495 28.4509 17.545 28.9709 17.455C28.9709 17.495 29.0509 17.455 29.0209 17.505C29.3009 17.485 29.5409 17.505 29.7809 17.505C29.9409 17.505 30.1109 17.415 30.2709 17.505C31.2809 17.535 32.1309 17.545 32.9609 17.685C32.9109 17.735 32.8809 17.635 32.8309 17.685C32.8809 17.715 32.9509 17.715 33.0009 17.755C33.0809 17.685 33.4709 17.745 33.5209 17.915C33.4009 17.885 33.3009 17.825 33.1509 17.825C33.1809 17.875 33.2709 17.845 33.2809 17.915C33.2009 17.935 33.0509 17.895 32.9609 17.875C32.9409 17.875 32.9609 17.905 32.9809 17.915C32.7709 17.915 32.5309 17.775 32.2909 17.865C32.3909 17.895 32.5309 17.835 32.6109 17.915C32.5809 17.945 32.4809 17.895 32.4109 17.915C32.5009 17.965 32.5609 17.955 32.6609 17.965C32.5809 17.895 32.7309 17.965 32.7909 17.945C32.6209 17.995 32.4309 18.015 32.5409 18.155C32.7809 18.185 32.8209 18.165 32.9809 18.175C32.9509 18.135 32.9209 18.175 32.9509 18.105H32.8709C32.9609 18.105 33.0209 18.015 33.1409 17.995C33.1409 18.015 33.1009 18.005 33.0709 18.015C33.0809 18.075 33.1309 18.095 33.1909 18.105C33.1909 18.155 33.1109 18.125 33.1209 18.195C33.1309 18.245 33.1609 18.175 33.1909 18.195C33.1909 18.255 33.1109 18.205 33.1109 18.245C33.1809 18.245 33.2609 18.295 33.4009 18.285C33.4009 18.305 33.3809 18.325 33.3509 18.325C33.3909 18.375 33.4809 18.325 33.5409 18.325C33.5409 18.415 33.6209 18.395 33.6209 18.465C33.5209 18.395 33.4909 18.505 33.4509 18.415C33.3809 18.535 33.2109 18.465 33.0609 18.505C33.1409 18.535 33.2509 18.525 33.3509 18.545C33.3409 18.565 33.3109 18.575 33.2809 18.585C33.2809 18.605 33.3509 18.645 33.3309 18.585C33.3809 18.625 33.2809 18.645 33.2609 18.675C33.2809 18.675 33.3009 18.675 33.2909 18.765C33.2109 18.785 33.0709 18.675 32.9709 18.765C32.9509 18.745 32.9209 18.735 32.9009 18.715C32.8409 18.735 32.8109 18.785 32.7209 18.765C32.8209 18.735 32.6809 18.725 32.6709 18.655C32.6709 18.715 32.4509 18.675 32.3709 18.705C32.4509 18.735 32.6409 18.725 32.7109 18.725C32.7009 18.745 32.6809 18.755 32.6609 18.755C32.8209 18.785 32.9909 18.805 33.1509 18.735C33.1509 18.795 33.2309 18.785 33.2709 18.805C33.3309 18.805 33.3209 18.715 33.3909 18.715C33.4009 18.835 33.3709 18.855 33.2609 18.875C33.3809 18.895 33.5809 18.835 33.6309 19.055C33.5209 18.935 33.3609 18.905 33.1809 18.935C33.2509 18.985 33.4209 18.915 33.4709 18.985C33.4209 18.985 33.4209 19.015 33.3909 19.035C33.4309 19.095 33.4109 19.065 33.4709 19.105C33.4409 19.145 33.3909 19.065 33.3209 19.085C33.2909 19.135 33.4309 19.125 33.3409 19.135C33.3409 19.165 33.4009 19.195 33.4109 19.155C33.4109 19.175 33.3409 19.245 33.3609 19.315C33.2709 19.335 33.3109 19.305 33.2109 19.335C33.2509 19.435 33.3709 19.305 33.4109 19.355C33.3909 19.315 33.4809 19.245 33.3909 19.235C33.4309 19.155 33.4809 19.235 33.5209 19.285C33.5109 19.335 33.4709 19.275 33.4409 19.285C33.4009 19.425 33.6409 19.595 33.5109 19.675C33.5009 19.725 33.5409 19.705 33.5609 19.725C33.4809 19.795 33.3809 19.745 33.2709 19.795C33.3009 19.825 33.4509 19.825 33.4909 19.795C33.5409 19.815 33.4709 19.845 33.4409 19.825C33.4709 19.945 33.7109 19.835 33.7609 19.865C33.7809 19.915 33.6309 19.945 33.6109 20.005C33.5909 19.985 33.5809 19.955 33.5309 19.965C33.5909 19.925 33.5109 19.945 33.5509 19.895C33.4809 19.975 33.4309 19.965 33.3509 20.035C33.4309 20.115 33.5309 20.085 33.6409 20.175C33.7309 20.135 33.7709 20.135 33.8609 20.175C33.8609 20.225 33.7609 20.265 33.8109 20.315L33.7309 20.285ZM27.7609 20.755C27.7309 20.805 27.5909 20.735 27.5609 20.795C28.1809 20.805 28.9209 20.915 29.4609 20.795C29.3909 20.785 29.2809 20.815 29.2409 20.775C29.2609 20.775 29.2809 20.755 29.2909 20.745C29.0709 20.775 28.5609 20.715 28.2609 20.775C28.2809 20.775 28.3109 20.775 28.3109 20.755C28.1609 20.755 27.7709 20.685 27.7609 20.755ZM33.4309 19.585V19.475C33.1609 19.445 32.8209 19.405 32.5409 19.475C32.8009 19.485 32.9909 19.495 33.1609 19.525C33.1509 19.555 33.1909 19.545 33.1309 19.575C33.2709 19.605 33.3009 19.535 33.4309 19.575V19.585ZM33.0109 18.625C32.9109 18.625 32.7309 18.545 32.6109 18.605C32.6709 18.605 32.8309 18.585 32.7409 18.645C32.8109 18.685 32.9409 18.645 33.0109 18.625ZM22.7209 17.975C22.7209 17.975 22.7409 18.005 22.7409 18.045C22.8509 18.065 22.9409 18.095 23.0809 18.085C23.0309 17.985 22.8609 17.885 22.7309 17.975H22.7209ZM23.8309 18.015C23.8309 17.935 23.6009 17.935 23.5909 18.015C23.6809 18.045 23.7209 18.015 23.8309 18.015ZM27.2809 17.925C27.2809 17.925 27.2609 17.935 27.2609 17.905C27.2009 17.965 27.1209 17.905 27.0409 17.945C27.0809 17.965 27.0209 17.945 27.0109 17.985C26.9909 17.965 26.9809 17.985 26.9309 17.985C26.7909 18.015 27.2509 18.005 27.2809 17.985C27.2809 17.985 27.2909 18.005 27.3009 17.985C27.2509 17.985 27.3409 17.935 27.2809 17.935V17.925ZM28.2109 17.905C28.3909 17.885 27.9409 17.875 28.1609 17.885C27.9209 17.875 27.5209 17.885 27.3209 17.935C27.6309 17.905 27.9109 17.935 28.2109 17.895V17.905ZM27.8609 17.785C27.7809 17.755 27.7709 17.805 27.6909 17.755C26.9109 17.885 26.3409 17.755 25.6409 17.775C26.2909 17.965 27.1309 17.835 27.8609 17.795V17.785ZM26.8509 17.765C26.9009 17.755 26.9909 17.785 27.0209 17.745C26.9709 17.755 26.8809 17.725 26.8509 17.765ZM29.0009 17.515C29.0309 17.585 29.1209 17.575 29.1909 17.555C29.1309 17.545 29.0909 17.505 29.0009 17.515ZM26.6009 20.845C26.5009 20.905 26.3909 20.875 26.3009 20.865C26.2309 20.845 26.4509 20.845 26.3309 20.825C26.3809 20.805 26.5209 20.835 26.6009 20.845ZM33.1809 20.755C33.1809 20.755 33.2009 20.795 33.2309 20.865C33.2009 20.845 33.1509 20.845 33.1109 20.825C33.1409 20.795 33.1709 20.785 33.1809 20.735C33.2009 20.735 33.1809 20.755 33.1809 20.755Z" fill="#124936"/>
        <path d="M36.1209 29.685C36.1809 29.675 36.2809 29.705 36.3209 29.665C36.2409 29.645 36.1809 29.645 36.1209 29.685ZM32.6609 29.685C32.6809 29.615 32.7709 29.665 32.8209 29.645C32.8009 29.715 32.7109 29.665 32.6609 29.685ZM35.1809 29.645C35.1809 29.645 35.0809 29.655 35.0609 29.645C35.0909 29.595 35.1509 29.645 35.1809 29.645ZM37.6809 29.595C37.6809 29.595 37.5909 29.625 37.5809 29.595C37.6309 29.605 37.6509 29.575 37.6809 29.595ZM36.9009 29.595C36.9009 29.595 36.9609 29.595 36.9909 29.575C36.9909 29.555 36.9709 29.565 36.9609 29.555C36.9609 29.515 37.0109 29.555 37.0409 29.535C37.0409 29.555 37.0209 29.565 37.0109 29.575C37.0409 29.615 37.1309 29.575 37.1809 29.595C37.1109 29.635 36.9809 29.605 36.9109 29.595H36.9009ZM35.3209 29.475C35.3209 29.475 35.2409 29.475 35.2109 29.495C35.2309 29.455 35.2909 29.495 35.3209 29.475ZM38.9609 29.445C38.9609 29.445 38.9109 29.375 38.8709 29.375C38.8909 29.315 38.9609 29.365 38.9609 29.445ZM35.1009 26.305C35.1009 26.305 35.0109 26.305 34.9709 26.325C34.9909 26.285 35.0609 26.325 35.1009 26.305ZM37.9509 26.115C37.9509 26.115 38.0009 26.135 38.0409 26.115C38.0209 26.175 37.9809 26.135 37.9509 26.115ZM36.3909 25.885C36.3909 25.885 36.4909 25.885 36.5409 25.865C36.5309 25.925 36.4209 25.905 36.3909 25.885ZM35.9909 25.905C36.0109 25.845 36.0809 25.865 36.1409 25.855C36.1209 25.915 36.0309 25.875 35.9909 25.905ZM39.1709 29.005C39.1709 29.005 39.1109 28.985 39.0809 29.045C39.0309 28.995 38.9609 28.985 38.8909 28.975C38.8909 28.975 38.8809 28.995 38.8709 28.995C38.8709 29.035 38.8509 29.115 38.8909 29.105C38.8509 29.205 38.7809 29.105 38.7809 29.055C38.7509 29.045 38.7409 29.075 38.7109 29.075C38.7609 29.145 38.7809 29.205 38.8409 29.185C38.8409 29.265 38.8409 29.275 38.8509 29.375C38.7909 29.375 38.7909 29.415 38.7609 29.495C38.7309 29.475 38.7109 29.465 38.6709 29.465C38.6609 29.465 38.6509 29.495 38.6409 29.495C38.6409 29.545 38.6709 29.525 38.6609 29.585C38.1109 29.495 37.5409 29.565 36.9709 29.515C36.8209 29.655 36.7509 29.515 36.5809 29.555C36.6009 29.615 36.6909 29.575 36.7309 29.605C36.3209 29.635 35.8709 29.575 35.5409 29.655C35.3809 29.585 35.1509 29.565 34.9609 29.585C34.9209 29.585 34.9609 29.635 34.9409 29.635C34.8109 29.635 34.8009 29.605 34.6809 29.615C34.7009 29.495 34.7909 29.515 34.8809 29.505C34.7909 29.495 34.6009 29.445 34.6009 29.505C34.4009 29.505 34.2409 29.525 34.0209 29.525C34.0009 29.555 33.9509 29.555 33.9409 29.615C33.8609 29.615 33.7709 29.615 33.7209 29.655C33.7409 29.695 33.8009 29.655 33.8309 29.675C33.7609 29.745 33.5909 29.725 33.5609 29.625C33.3609 29.625 33.1409 29.605 32.9809 29.675C32.8209 29.495 32.6109 29.635 32.3909 29.605C32.5409 29.645 32.3109 29.655 32.2909 29.655C32.1709 29.675 32.0409 29.715 31.9309 29.745C31.7209 29.795 31.5509 29.745 31.4009 29.765C31.0409 29.825 30.6909 29.765 30.3909 29.675C30.3609 29.675 30.3409 29.705 30.3109 29.715C30.3109 29.695 30.3209 29.705 30.3309 29.695C30.2409 29.595 30.1209 29.395 30.2309 29.225C30.2309 29.135 30.1709 29.075 30.1309 28.995C30.2009 28.755 30.1609 28.445 30.2609 28.245C30.2009 28.075 30.2609 27.855 30.2609 27.645C30.2609 27.415 30.2009 27.165 30.3209 27.035C30.3609 26.325 31.0209 26.595 31.3609 26.645C31.5609 26.535 31.7709 26.695 32.0009 26.665C32.0309 26.665 32.0409 26.615 32.0709 26.615C32.3909 26.665 32.6709 26.575 32.9509 26.575C32.7809 26.535 32.6909 26.555 32.4909 26.535C32.4109 26.525 32.5309 26.515 32.5609 26.515C33.1909 26.465 33.9909 26.435 34.8009 26.405C34.8809 26.405 34.9909 26.465 35.0409 26.385C35.1709 26.415 35.2409 26.405 35.3509 26.385C35.3509 26.355 35.2909 26.355 35.2909 26.385C35.3809 26.275 35.6209 26.365 35.7809 26.315C35.6009 26.195 35.1609 26.305 34.9509 26.265C35.3209 26.215 35.6409 26.265 35.9809 26.175C35.9809 26.215 36.0309 26.175 36.0109 26.225C36.2009 26.205 36.3609 26.225 36.5109 26.225C36.6209 26.225 36.7309 26.135 36.8309 26.225C37.5009 26.255 38.0709 26.265 38.6209 26.405C38.5909 26.455 38.5709 26.355 38.5309 26.405C38.5709 26.435 38.6109 26.435 38.6409 26.475C38.6909 26.405 38.9509 26.465 38.9909 26.635C38.9109 26.605 38.8409 26.545 38.7409 26.545C38.7609 26.595 38.8209 26.565 38.8309 26.635C38.7809 26.655 38.6809 26.615 38.6209 26.595C38.6009 26.595 38.6209 26.625 38.6309 26.635C38.4909 26.635 38.3309 26.495 38.1709 26.585C38.2309 26.615 38.3309 26.555 38.3809 26.635C38.3609 26.665 38.2909 26.615 38.2509 26.635C38.3109 26.685 38.3509 26.675 38.4209 26.685C38.3709 26.615 38.4709 26.685 38.5109 26.665C38.4009 26.715 38.2709 26.735 38.3409 26.875C38.5009 26.905 38.5209 26.885 38.6309 26.895C38.6109 26.855 38.5909 26.895 38.6109 26.825H38.5509C38.6109 26.825 38.6509 26.735 38.7309 26.715C38.7309 26.735 38.7009 26.725 38.6909 26.735C38.6909 26.795 38.7309 26.815 38.7709 26.825C38.7709 26.875 38.7209 26.845 38.7309 26.915C38.7309 26.965 38.7509 26.895 38.7709 26.915C38.7709 26.975 38.7209 26.925 38.7109 26.965C38.7609 26.965 38.8109 27.015 38.9009 27.005C38.9009 27.025 38.8909 27.045 38.8709 27.045C38.9009 27.095 38.9609 27.045 38.9909 27.045C38.9909 27.135 39.0409 27.115 39.0509 27.185C38.9809 27.115 38.9609 27.225 38.9409 27.135C38.8909 27.255 38.7809 27.185 38.6809 27.225C38.7309 27.255 38.8109 27.245 38.8709 27.265C38.8709 27.285 38.8509 27.295 38.8309 27.305C38.8309 27.325 38.8709 27.365 38.8609 27.305C38.8909 27.345 38.8309 27.365 38.8209 27.395C38.8309 27.395 38.8509 27.395 38.8409 27.485C38.7909 27.505 38.6909 27.395 38.6309 27.485C38.6209 27.465 38.6009 27.455 38.5909 27.435C38.5509 27.455 38.5309 27.505 38.4709 27.485C38.5409 27.455 38.4409 27.445 38.4409 27.375C38.4409 27.435 38.3009 27.395 38.2409 27.425C38.3009 27.455 38.4209 27.445 38.4609 27.445C38.4609 27.465 38.4409 27.475 38.4309 27.475C38.5309 27.505 38.6509 27.525 38.7509 27.455C38.7509 27.515 38.8009 27.505 38.8309 27.525C38.8709 27.525 38.8609 27.435 38.9109 27.435C38.9109 27.555 38.8909 27.575 38.8209 27.595C38.9009 27.615 39.0409 27.555 39.0709 27.775C39.0009 27.655 38.8909 27.625 38.7709 27.655C38.8109 27.705 38.9309 27.635 38.9609 27.705C38.9309 27.705 38.9309 27.735 38.9009 27.755C38.9309 27.815 38.9109 27.785 38.9609 27.825C38.9409 27.865 38.9009 27.785 38.8609 27.805C38.8409 27.855 38.9309 27.845 38.8709 27.855C38.8709 27.885 38.9109 27.915 38.9109 27.875C38.9109 27.895 38.8709 27.965 38.8809 28.035C38.8209 28.055 38.8509 28.025 38.7809 28.055C38.8109 28.155 38.8809 28.025 38.9109 28.075C38.9009 28.035 38.9609 27.965 38.9009 27.955C38.9309 27.875 38.9609 27.955 38.9909 28.005C38.9909 28.055 38.9509 27.995 38.9309 28.005C38.9009 28.145 39.0609 28.315 38.9709 28.395C38.9709 28.445 38.9909 28.425 39.0009 28.445C38.9409 28.515 38.8809 28.465 38.8109 28.515C38.8309 28.545 38.9309 28.545 38.9609 28.515C39.0009 28.535 38.9509 28.565 38.9309 28.545C38.9509 28.665 39.1109 28.555 39.1409 28.585C39.1509 28.635 39.0609 28.665 39.0409 28.725C39.0309 28.705 39.0209 28.675 38.9809 28.685C39.0209 28.645 38.9709 28.665 38.9909 28.615C38.9509 28.695 38.9109 28.685 38.8609 28.755C38.9109 28.835 38.9809 28.805 39.0509 28.895C39.1109 28.855 39.1409 28.855 39.2009 28.895C39.2009 28.945 39.1309 28.985 39.1709 29.035V29.005ZM35.2009 29.475C35.1809 29.525 35.0909 29.455 35.0709 29.515C35.4809 29.525 35.9709 29.635 36.3409 29.515C36.3009 29.505 36.2209 29.535 36.1909 29.495C36.2009 29.495 36.2209 29.475 36.2209 29.465C36.0709 29.495 35.7309 29.435 35.5409 29.495C35.5509 29.495 35.5709 29.495 35.5709 29.475C35.4709 29.475 35.2109 29.405 35.2009 29.475ZM38.9709 28.305V28.195C38.7909 28.165 38.5609 28.125 38.3809 28.195C38.5509 28.205 38.6809 28.215 38.7909 28.245C38.7909 28.275 38.8109 28.265 38.7709 28.295C38.8609 28.325 38.8909 28.255 38.9709 28.295V28.305ZM38.6909 27.345C38.6209 27.345 38.5009 27.265 38.4209 27.325C38.4609 27.325 38.5709 27.305 38.5109 27.365C38.5609 27.405 38.6409 27.365 38.6909 27.345ZM31.8409 26.695C31.8409 26.695 31.8509 26.725 31.8509 26.765C31.9209 26.785 31.9909 26.815 32.0709 26.805C32.0409 26.705 31.9209 26.605 31.8309 26.695H31.8409ZM32.5809 26.735C32.5809 26.655 32.4209 26.655 32.4209 26.735C32.4809 26.765 32.5009 26.735 32.5809 26.735ZM34.8809 26.645C34.8809 26.645 34.8709 26.655 34.8709 26.625C34.8309 26.685 34.7809 26.625 34.7209 26.665C34.7409 26.685 34.7009 26.665 34.7009 26.705C34.6909 26.685 34.6809 26.705 34.6409 26.705C34.5509 26.735 34.8509 26.725 34.8809 26.705C34.8809 26.705 34.8809 26.725 34.8909 26.705C34.8609 26.705 34.9209 26.655 34.8809 26.655V26.645ZM35.5009 26.625C35.6209 26.605 35.3209 26.595 35.4709 26.605C35.3109 26.595 35.0509 26.605 34.9109 26.655C35.1209 26.625 35.3009 26.655 35.5009 26.615V26.625ZM35.2609 26.505C35.2109 26.475 35.2009 26.525 35.1509 26.475C34.6309 26.605 34.2509 26.475 33.7809 26.495C34.2109 26.685 34.7709 26.555 35.2609 26.515V26.505ZM34.5909 26.485C34.5909 26.485 34.6909 26.505 34.7009 26.465C34.6709 26.475 34.6009 26.445 34.5909 26.485ZM36.0209 26.235C36.0409 26.305 36.1009 26.295 36.1409 26.275C36.1009 26.265 36.0709 26.225 36.0209 26.235ZM34.4209 29.565C34.3509 29.625 34.2809 29.595 34.2209 29.585C34.1709 29.565 34.3209 29.565 34.2409 29.545C34.2709 29.525 34.3709 29.555 34.4209 29.565ZM38.8009 29.475C38.8009 29.475 38.8209 29.515 38.8309 29.585C38.8109 29.565 38.7809 29.565 38.7509 29.545C38.7709 29.515 38.7909 29.505 38.7909 29.455C38.8009 29.455 38.7909 29.475 38.7909 29.475H38.8009Z" fill="#124936"/>
        <path d="M32.4308 30.715C32.3808 30.775 32.2808 30.815 32.2608 30.875C32.3508 30.835 32.4008 30.785 32.4308 30.715ZM35.5208 28.195C35.5508 28.255 35.4408 28.285 35.4008 28.335C35.3708 28.275 35.4808 28.245 35.5208 28.195ZM33.2908 30.055C33.2908 30.055 33.3708 29.975 33.4008 29.965C33.4008 30.025 33.3208 30.035 33.2908 30.055ZM31.0908 31.915C31.0908 31.915 31.1508 31.825 31.1808 31.845C31.1308 31.875 31.1308 31.915 31.0908 31.915ZM31.7908 31.345C31.7908 31.345 31.7408 31.395 31.7208 31.425C31.7308 31.435 31.7508 31.425 31.7608 31.415C31.7808 31.445 31.7208 31.465 31.7008 31.485C31.7008 31.465 31.7008 31.445 31.7008 31.435C31.6408 31.435 31.5908 31.515 31.5408 31.545C31.5808 31.465 31.7108 31.395 31.7808 31.345H31.7908ZM33.2808 30.285C33.2808 30.285 33.3508 30.225 33.3708 30.185C33.3808 30.225 33.3008 30.245 33.2808 30.285ZM30.0508 32.965C30.0508 32.965 30.1308 32.985 30.1708 32.955C30.1908 33.015 30.0908 33.035 30.0508 32.965ZM35.4808 32.575C35.4808 32.575 35.5608 32.505 35.5908 32.465C35.5908 32.515 35.5108 32.535 35.4808 32.575ZM33.0508 34.805C33.0508 34.805 32.9908 34.825 32.9708 34.875C32.9508 34.815 33.0108 34.815 33.0508 34.805ZM34.5808 33.845C34.5808 33.895 34.4908 33.925 34.4608 33.965C34.4308 33.915 34.5408 33.845 34.5808 33.845ZM34.9308 33.535C34.9508 33.595 34.8708 33.635 34.8308 33.685C34.8108 33.625 34.9208 33.595 34.9308 33.535ZM30.1308 33.445C30.1308 33.445 30.2008 33.425 30.1908 33.355C30.2608 33.355 30.3308 33.315 30.4008 33.275C30.4008 33.275 30.4008 33.255 30.4008 33.245C30.3708 33.225 30.3408 33.135 30.3108 33.175C30.2808 33.075 30.4108 33.085 30.4408 33.135C30.4808 33.115 30.4708 33.095 30.4908 33.075C30.4008 33.055 30.3508 33.025 30.3008 33.095C30.2508 33.035 30.2508 33.025 30.1708 32.955C30.2208 32.905 30.2008 32.875 30.1708 32.795C30.2008 32.795 30.2408 32.775 30.2708 32.755C30.2708 32.735 30.2708 32.715 30.2708 32.705C30.2408 32.655 30.2208 32.705 30.1908 32.655C30.7408 32.325 31.2008 31.855 31.7408 31.475C31.7808 31.265 31.9308 31.305 32.0708 31.165C32.0108 31.135 31.9608 31.235 31.9108 31.235C32.2608 30.905 32.6908 30.635 32.9408 30.325C33.1308 30.265 33.3508 30.105 33.5008 29.955C33.5308 29.925 33.4708 29.915 33.4908 29.895C33.6108 29.805 33.6308 29.815 33.7308 29.725C33.7908 29.825 33.6908 29.885 33.6208 29.955C33.7108 29.905 33.9008 29.795 33.8708 29.755C34.0508 29.605 34.1808 29.475 34.3808 29.315C34.3808 29.275 34.4308 29.245 34.3908 29.195C34.4608 29.135 34.5508 29.075 34.5708 29.005C34.5308 28.985 34.5008 29.055 34.4608 29.075C34.4708 28.975 34.6408 28.855 34.7308 28.915C34.9108 28.765 35.1208 28.625 35.2208 28.445C35.4808 28.465 35.5808 28.205 35.7908 28.065C35.6408 28.145 35.8308 27.965 35.8508 27.955C35.9408 27.845 36.0308 27.725 36.1108 27.625C36.2708 27.435 36.4608 27.355 36.5708 27.225C36.8508 26.915 37.2108 26.705 37.5308 26.555C37.5608 26.525 37.5508 26.495 37.5808 26.475C37.5908 26.485 37.5808 26.495 37.5808 26.505C37.7208 26.505 37.9608 26.585 37.9708 26.795C38.0408 26.855 38.1208 26.865 38.2008 26.895C38.2908 27.135 38.5208 27.345 38.5608 27.575C38.7208 27.665 38.8108 27.875 38.9408 28.035C39.0808 28.215 39.3008 28.365 39.2808 28.555C39.7008 29.135 38.9308 29.405 38.5908 29.615C38.4808 29.845 38.1908 29.875 38.0108 30.065C37.9808 30.085 38.0108 30.125 37.9808 30.155C37.6608 30.345 37.4608 30.625 37.2108 30.825C37.3908 30.735 37.4508 30.655 37.6408 30.515C37.7208 30.465 37.6208 30.565 37.5908 30.575C37.0608 31.075 36.3608 31.685 35.6608 32.285C35.5908 32.345 35.4508 32.385 35.4608 32.465C35.3308 32.535 35.2708 32.595 35.1808 32.695C35.1908 32.725 35.2508 32.675 35.2308 32.655C35.2208 32.815 34.9408 32.905 34.8308 33.065C35.0708 33.025 35.3908 32.625 35.6008 32.505C35.3008 32.815 34.9908 33.015 34.7408 33.325C34.7208 33.285 34.7008 33.365 34.6808 33.305C34.5208 33.455 34.3708 33.555 34.2308 33.675C34.1308 33.755 34.0908 33.905 33.9408 33.915C33.3208 34.375 32.8108 34.785 32.2308 35.085C32.2308 35.025 32.3108 35.085 32.3108 35.015C32.2608 35.015 32.2108 35.055 32.1708 35.045C32.1708 35.135 31.9008 35.285 31.7608 35.175C31.8508 35.135 31.9508 35.135 32.0408 35.065C31.9908 35.045 31.9508 35.105 31.9008 35.065C31.9308 35.005 32.0508 34.965 32.1108 34.935C32.1208 34.915 32.0908 34.915 32.0808 34.915C32.2108 34.805 32.4408 34.805 32.5208 34.625C32.4408 34.645 32.3908 34.765 32.3008 34.735C32.3008 34.705 32.3908 34.685 32.4208 34.635C32.3408 34.635 32.3108 34.675 32.2408 34.715C32.3308 34.735 32.2008 34.755 32.1708 34.795C32.2408 34.675 32.3408 34.565 32.1908 34.505C32.0308 34.595 32.0208 34.635 31.9208 34.705C31.9608 34.715 31.9608 34.675 31.9808 34.745L32.0308 34.705C31.9708 34.745 32.0008 34.845 31.9408 34.915C31.9308 34.895 31.9608 34.885 31.9708 34.865C31.9308 34.825 31.8908 34.835 31.8408 34.855C31.8108 34.815 31.8708 34.795 31.8208 34.755C31.7808 34.715 31.8108 34.785 31.7808 34.785C31.7408 34.745 31.8208 34.735 31.8008 34.705C31.7508 34.735 31.6808 34.745 31.6108 34.815C31.6108 34.795 31.6008 34.775 31.6108 34.765C31.5608 34.745 31.5308 34.825 31.5008 34.855C31.4508 34.785 31.4108 34.845 31.3608 34.785C31.4708 34.785 31.4208 34.695 31.4908 34.745C31.4608 34.615 31.6008 34.595 31.6608 34.485C31.5908 34.505 31.5308 34.565 31.4708 34.595C31.4708 34.575 31.4708 34.555 31.4908 34.535C31.4708 34.525 31.4108 34.515 31.4608 34.555C31.4108 34.555 31.4508 34.485 31.4408 34.455C31.4208 34.455 31.4108 34.475 31.3608 34.405C31.3908 34.355 31.5508 34.375 31.5508 34.245C31.5708 34.245 31.6008 34.245 31.6208 34.245C31.6408 34.205 31.6208 34.145 31.7008 34.115C31.6608 34.195 31.7508 34.125 31.8008 34.175C31.7608 34.125 31.9108 34.055 31.9508 33.985C31.8808 33.995 31.7808 34.105 31.7408 34.135C31.7408 34.115 31.7408 34.095 31.7408 34.085C31.6308 34.135 31.5108 34.205 31.4608 34.335C31.4208 34.295 31.3808 34.335 31.3508 34.335C31.3208 34.365 31.3808 34.425 31.3408 34.455C31.2608 34.365 31.2708 34.335 31.3208 34.265C31.2308 34.305 31.1508 34.455 30.9908 34.305C31.1308 34.345 31.2408 34.295 31.3408 34.175C31.2708 34.175 31.2108 34.305 31.1408 34.275C31.1708 34.255 31.1408 34.225 31.1608 34.195C31.1008 34.165 31.1308 34.185 31.0708 34.185C31.0708 34.135 31.1508 34.175 31.1708 34.125C31.1508 34.075 31.0808 34.145 31.1308 34.095C31.1208 34.065 31.0608 34.075 31.0808 34.115C31.0708 34.095 31.0608 34.015 31.0108 33.965C31.0508 33.905 31.0508 33.945 31.0908 33.875C31.0108 33.815 31.0208 33.975 30.9608 33.955C31.0008 33.985 30.9908 34.075 31.0508 34.045C31.0808 34.125 30.9908 34.085 30.9408 34.065C30.9208 34.015 30.9808 34.045 30.9908 34.025C30.9308 33.895 30.6708 33.885 30.7108 33.755C30.6908 33.715 30.6708 33.755 30.6508 33.735C30.6508 33.635 30.7508 33.625 30.7808 33.545C30.7408 33.545 30.6508 33.615 30.6508 33.655C30.6108 33.665 30.6308 33.605 30.6508 33.605C30.5608 33.535 30.4808 33.725 30.4408 33.735C30.4008 33.705 30.4708 33.615 30.4408 33.555C30.4608 33.555 30.4908 33.575 30.5108 33.545C30.5008 33.605 30.5408 33.545 30.5408 33.605C30.5308 33.505 30.5708 33.495 30.5708 33.395C30.4808 33.375 30.4308 33.445 30.3108 33.425C30.2808 33.495 30.2608 33.525 30.1808 33.535C30.1508 33.495 30.1808 33.415 30.1208 33.405L30.1308 33.445ZM33.3808 30.175C33.3608 30.125 33.4908 30.105 33.4808 30.045C33.1008 30.335 32.6008 30.615 32.3508 30.965C32.4008 30.945 32.4408 30.865 32.4908 30.875C32.4908 30.895 32.4808 30.905 32.4908 30.925C32.6008 30.795 32.9408 30.585 33.0808 30.395C33.0708 30.405 33.0508 30.415 33.0608 30.435C33.1608 30.365 33.4308 30.235 33.3908 30.165L33.3808 30.175ZM30.7508 33.835L30.8208 33.915C31.0008 33.805 31.2308 33.675 31.3508 33.485C31.1908 33.605 31.0708 33.695 30.9508 33.745C30.9508 33.715 30.9208 33.745 30.9408 33.685C30.8408 33.735 30.8608 33.795 30.7608 33.835H30.7508ZM31.6108 34.375C31.6708 34.335 31.8308 34.295 31.8608 34.195C31.8208 34.215 31.7408 34.315 31.7608 34.235C31.6908 34.235 31.6408 34.325 31.6108 34.375ZM38.1408 29.885C38.1408 29.885 38.1108 29.875 38.0908 29.835C38.0208 29.875 37.9408 29.895 37.8708 29.975C37.9608 30.025 38.1308 30.025 38.1508 29.885H38.1408ZM37.4608 30.395C37.5108 30.455 37.6508 30.345 37.6008 30.285C37.5308 30.305 37.5308 30.345 37.4608 30.395ZM35.4708 32.135C35.4708 32.135 35.4708 32.115 35.4908 32.135C35.4908 32.065 35.5808 32.075 35.6008 32.005C35.5608 32.005 35.6208 32.005 35.6008 31.965C35.6308 31.965 35.6208 31.955 35.6508 31.925C35.7108 31.835 35.4508 32.065 35.4408 32.095C35.4408 32.095 35.4208 32.095 35.4308 32.095C35.4608 32.065 35.4308 32.155 35.4708 32.125V32.135ZM34.9308 32.595C34.8308 32.695 35.1108 32.485 34.9708 32.585C35.1208 32.475 35.3508 32.275 35.4408 32.135C35.2708 32.305 35.0908 32.425 34.9308 32.595ZM35.2208 32.515C35.2908 32.505 35.2708 32.455 35.3408 32.465C35.7208 31.985 36.1408 31.805 36.5508 31.455C36.0408 31.625 35.6308 32.135 35.2208 32.515ZM35.8308 32.035C35.8308 32.035 35.7308 32.085 35.7408 32.125C35.7608 32.095 35.8408 32.075 35.8308 32.035ZM34.7108 33.275C34.6508 33.235 34.6008 33.295 34.5808 33.335C34.6208 33.315 34.6708 33.325 34.7108 33.275ZM34.0308 29.525C34.0508 29.435 34.1408 29.405 34.2008 29.365C34.2608 29.345 34.1208 29.455 34.2008 29.405C34.1808 29.445 34.0808 29.485 34.0308 29.525ZM30.1808 32.785C30.1808 32.785 30.1408 32.765 30.0808 32.725C30.1108 32.725 30.1408 32.705 30.1708 32.695C30.1708 32.725 30.1708 32.755 30.1908 32.795C30.1808 32.795 30.1708 32.795 30.1808 32.785Z" fill="#124936"/>
        <path d="M37.1308 35.435C37.1908 35.425 37.2809 35.455 37.3209 35.415C37.2409 35.395 37.1808 35.395 37.1308 35.435ZM33.8108 35.435C33.8308 35.365 33.9108 35.415 33.9608 35.395C33.9508 35.465 33.8608 35.415 33.8108 35.435ZM36.2309 35.395C36.2309 35.395 36.1408 35.405 36.1108 35.395C36.1408 35.345 36.2009 35.395 36.2309 35.395ZM38.6208 35.345C38.6208 35.345 38.5308 35.375 38.5208 35.345C38.5708 35.355 38.5808 35.325 38.6208 35.345ZM37.8708 35.345C37.8708 35.345 37.9308 35.345 37.9608 35.325C37.9608 35.305 37.9409 35.315 37.9309 35.305C37.9309 35.265 37.9809 35.305 38.0009 35.285C38.0009 35.305 37.9808 35.315 37.9708 35.325C38.0008 35.365 38.0808 35.325 38.1308 35.345C38.0608 35.385 37.9408 35.355 37.8708 35.345ZM36.3608 35.225C36.3608 35.225 36.2909 35.225 36.2509 35.245C36.2609 35.205 36.3208 35.245 36.3608 35.225ZM39.8508 35.195C39.8508 35.195 39.8108 35.125 39.7608 35.125C39.7808 35.065 39.8508 35.115 39.8508 35.195ZM36.1508 32.055C36.1508 32.055 36.0608 32.055 36.0208 32.075C36.0408 32.035 36.1108 32.075 36.1508 32.055ZM38.8909 31.865C38.8909 31.865 38.9409 31.885 38.9809 31.865C38.9609 31.925 38.9209 31.885 38.8909 31.865ZM37.4008 31.635C37.4008 31.635 37.5008 31.635 37.5408 31.615C37.5308 31.675 37.4308 31.655 37.4008 31.635ZM37.0108 31.655C37.0308 31.595 37.1008 31.615 37.1508 31.605C37.1308 31.665 37.0508 31.625 37.0108 31.655ZM40.0608 34.755C40.0608 34.755 40.0008 34.735 39.9708 34.795C39.9208 34.745 39.8608 34.735 39.7908 34.725C39.7908 34.725 39.7808 34.745 39.7708 34.745C39.7708 34.785 39.7508 34.865 39.7908 34.855C39.7608 34.955 39.6809 34.855 39.6809 34.805C39.6509 34.795 39.6409 34.825 39.6208 34.825C39.6708 34.895 39.6809 34.955 39.7509 34.935C39.7509 35.015 39.7508 35.025 39.7608 35.125C39.7008 35.125 39.7008 35.165 39.6708 35.245C39.6408 35.225 39.6208 35.215 39.5808 35.215C39.5708 35.215 39.5609 35.245 39.5508 35.245C39.5508 35.295 39.5809 35.275 39.5709 35.335C39.0409 35.245 38.5008 35.315 37.9508 35.265C37.8108 35.405 37.7409 35.265 37.5709 35.305C37.5909 35.365 37.6708 35.325 37.7108 35.355C37.3108 35.385 36.8909 35.325 36.5709 35.405C36.4109 35.335 36.1908 35.315 36.0108 35.335C35.9708 35.335 36.0108 35.385 35.9908 35.385C35.8608 35.385 35.8608 35.355 35.7408 35.365C35.7508 35.245 35.8509 35.265 35.9309 35.255C35.8409 35.245 35.6709 35.195 35.6609 35.255C35.4609 35.255 35.3208 35.275 35.1008 35.275C35.0808 35.305 35.0308 35.305 35.0308 35.365C34.9508 35.365 34.8709 35.365 34.8209 35.405C34.8309 35.445 34.8909 35.405 34.9309 35.425C34.8709 35.495 34.7008 35.475 34.6708 35.375C34.4708 35.375 34.2708 35.355 34.1108 35.425C33.9508 35.245 33.7508 35.385 33.5408 35.355C33.6808 35.395 33.4608 35.405 33.4408 35.405C33.3208 35.425 33.2008 35.465 33.1008 35.495C32.9008 35.545 32.7308 35.495 32.6008 35.515C32.2608 35.575 31.9208 35.515 31.6308 35.425C31.6008 35.425 31.5908 35.455 31.5508 35.465C31.5508 35.445 31.5608 35.455 31.5708 35.445C31.4808 35.345 31.3708 35.145 31.4708 34.975C31.4708 34.885 31.4108 34.825 31.3708 34.745C31.4408 34.505 31.4008 34.195 31.5008 33.995C31.4408 33.825 31.5008 33.605 31.5008 33.395C31.5008 33.165 31.4408 32.915 31.5508 32.785C31.5908 32.075 32.2208 32.345 32.5508 32.395C32.7408 32.285 32.9409 32.445 33.1609 32.415C33.1909 32.415 33.2008 32.365 33.2208 32.365C33.5308 32.415 33.8009 32.325 34.0709 32.325C33.9009 32.285 33.8208 32.305 33.6308 32.285C33.5508 32.275 33.6608 32.265 33.6908 32.265C34.2908 32.215 35.0609 32.185 35.8409 32.155C35.9209 32.155 36.0209 32.215 36.0709 32.135C36.1909 32.165 36.2608 32.155 36.3708 32.135C36.3708 32.105 36.3109 32.105 36.3209 32.135C36.4109 32.025 36.6408 32.115 36.7908 32.065C36.6108 31.945 36.1909 32.055 36.0009 32.015C36.3509 31.965 36.6608 32.015 36.9908 31.925C36.9908 31.965 37.0408 31.925 37.0208 31.975C37.2008 31.955 37.3509 31.975 37.5009 31.975C37.6009 31.975 37.7108 31.885 37.8108 31.975C38.4508 32.005 39.0008 32.015 39.5308 32.155C39.5008 32.205 39.4808 32.105 39.4408 32.155C39.4708 32.185 39.5209 32.185 39.5508 32.225C39.6009 32.155 39.8508 32.215 39.8808 32.385C39.8008 32.355 39.7409 32.295 39.6409 32.295C39.6609 32.345 39.7208 32.315 39.7309 32.385C39.6809 32.405 39.5908 32.365 39.5308 32.345C39.5208 32.345 39.5308 32.375 39.5408 32.385C39.4008 32.385 39.2508 32.245 39.1008 32.335C39.1608 32.365 39.2608 32.305 39.3008 32.385C39.2808 32.415 39.2208 32.365 39.1708 32.385C39.2308 32.435 39.2608 32.425 39.3308 32.435C39.2808 32.365 39.3708 32.435 39.4208 32.415C39.3108 32.465 39.1908 32.485 39.2608 32.625C39.4108 32.655 39.4408 32.635 39.5408 32.645C39.5208 32.605 39.5008 32.645 39.5208 32.575H39.4708C39.5308 32.575 39.5609 32.485 39.6409 32.465C39.6409 32.485 39.6108 32.475 39.6008 32.485C39.6008 32.545 39.6409 32.565 39.6809 32.575C39.6809 32.625 39.6308 32.595 39.6409 32.665C39.6409 32.715 39.6609 32.645 39.6809 32.665C39.6809 32.725 39.6308 32.675 39.6308 32.715C39.6808 32.715 39.7308 32.765 39.8108 32.755C39.8108 32.775 39.8008 32.795 39.7808 32.795C39.8108 32.845 39.8708 32.795 39.9008 32.795C39.9008 32.885 39.9508 32.865 39.9508 32.935C39.8808 32.865 39.8609 32.975 39.8409 32.885C39.8009 33.005 39.6909 32.935 39.5909 32.975C39.6409 33.005 39.7108 32.995 39.7708 33.015C39.7708 33.035 39.7509 33.045 39.7309 33.055C39.7309 33.075 39.7708 33.115 39.7608 33.055C39.7908 33.095 39.7308 33.115 39.7208 33.145C39.7308 33.145 39.7508 33.145 39.7408 33.235C39.6908 33.255 39.6008 33.145 39.5408 33.235C39.5308 33.215 39.5109 33.205 39.5009 33.185C39.4609 33.205 39.4408 33.255 39.3808 33.235C39.4408 33.205 39.3608 33.195 39.3508 33.125C39.3508 33.185 39.2109 33.145 39.1609 33.175C39.2109 33.205 39.3308 33.195 39.3708 33.195C39.3708 33.215 39.3509 33.225 39.3409 33.225C39.4409 33.255 39.5508 33.275 39.6508 33.205C39.6508 33.265 39.7009 33.255 39.7309 33.275C39.7709 33.275 39.7608 33.185 39.8108 33.185C39.8108 33.305 39.7908 33.325 39.7208 33.345C39.8008 33.365 39.9309 33.305 39.9608 33.525C39.8909 33.405 39.7908 33.375 39.6708 33.405C39.7108 33.455 39.8208 33.385 39.8508 33.455C39.8208 33.455 39.8209 33.485 39.8008 33.505C39.8308 33.565 39.8108 33.535 39.8508 33.575C39.8308 33.615 39.8009 33.535 39.7509 33.555C39.7309 33.605 39.8208 33.595 39.7608 33.605C39.7608 33.635 39.8008 33.665 39.8008 33.625C39.8008 33.645 39.7608 33.715 39.7708 33.785C39.7108 33.805 39.7408 33.775 39.6708 33.805C39.6908 33.905 39.7709 33.775 39.8008 33.825C39.7908 33.785 39.8508 33.715 39.7908 33.705C39.8208 33.625 39.8508 33.705 39.8808 33.755C39.8808 33.805 39.8508 33.745 39.8308 33.755C39.8008 33.895 39.9608 34.065 39.8708 34.145C39.8708 34.195 39.8908 34.175 39.9008 34.195C39.8508 34.265 39.7808 34.215 39.7208 34.265C39.7408 34.295 39.8408 34.295 39.8608 34.265C39.8908 34.285 39.8508 34.315 39.8308 34.295C39.8508 34.415 40.0008 34.305 40.0308 34.335C40.0408 34.385 39.9509 34.415 39.9309 34.475C39.9209 34.455 39.9108 34.425 39.8808 34.435C39.9208 34.395 39.8708 34.415 39.8909 34.365C39.8509 34.445 39.8108 34.435 39.7608 34.505C39.8108 34.585 39.8808 34.555 39.9408 34.645C40.0008 34.605 40.0208 34.605 40.0808 34.645C40.0808 34.695 40.0108 34.735 40.0508 34.785L40.0608 34.755ZM36.2509 35.225C36.2309 35.275 36.1408 35.205 36.1208 35.265C36.5208 35.275 36.9908 35.385 37.3308 35.265C37.2908 35.255 37.2208 35.285 37.1908 35.245C37.2008 35.245 37.2108 35.225 37.2208 35.215C37.0808 35.245 36.7509 35.185 36.5709 35.245C36.5809 35.245 36.6008 35.245 36.6008 35.225C36.5008 35.225 36.2609 35.155 36.2509 35.225ZM39.8708 34.055V33.945C39.7008 33.915 39.4809 33.875 39.3008 33.945C39.4608 33.955 39.5908 33.965 39.7008 33.995C39.7008 34.025 39.7209 34.015 39.6809 34.045C39.7709 34.075 39.7908 34.005 39.8708 34.045V34.055ZM39.6008 33.095C39.5408 33.095 39.4209 33.015 39.3409 33.075C39.3809 33.075 39.4809 33.055 39.4309 33.115C39.4809 33.155 39.5608 33.115 39.6008 33.095ZM33.0308 32.445C33.0308 32.445 33.0408 32.475 33.0408 32.515C33.1108 32.535 33.1709 32.565 33.2509 32.555C33.2209 32.455 33.1108 32.355 33.0208 32.445H33.0308ZM33.7408 32.485C33.7408 32.405 33.5909 32.405 33.5909 32.485C33.6509 32.515 33.6708 32.485 33.7408 32.485ZM35.9408 32.395C35.9408 32.395 35.9309 32.405 35.9309 32.375C35.8909 32.435 35.8408 32.375 35.7908 32.415C35.8108 32.435 35.7708 32.415 35.7708 32.455C35.7608 32.435 35.7508 32.455 35.7208 32.455C35.6308 32.485 35.9208 32.475 35.9508 32.455C35.9508 32.455 35.9508 32.475 35.9608 32.455C35.9308 32.455 35.9908 32.405 35.9508 32.405L35.9408 32.395ZM36.5308 32.375C36.6508 32.355 36.3509 32.345 36.5009 32.355C36.3509 32.345 36.0908 32.355 35.9608 32.405C36.1608 32.375 36.3308 32.405 36.5308 32.365V32.375ZM36.3008 32.255C36.2508 32.225 36.2408 32.275 36.1908 32.225C35.6908 32.355 35.3308 32.225 34.8808 32.245C35.3008 32.435 35.8309 32.305 36.3008 32.265V32.255ZM35.6609 32.235C35.6609 32.235 35.7508 32.255 35.7708 32.215C35.7408 32.225 35.6809 32.195 35.6609 32.235ZM37.0308 31.985C37.0508 32.055 37.1108 32.045 37.1508 32.025C37.1108 32.015 37.0908 31.975 37.0308 31.985ZM35.4908 35.315C35.4308 35.375 35.3608 35.345 35.3008 35.335C35.2508 35.315 35.3909 35.315 35.3209 35.295C35.3509 35.275 35.4408 35.305 35.4908 35.315ZM39.6908 35.225C39.6908 35.225 39.7108 35.265 39.7208 35.335C39.7008 35.315 39.6708 35.315 39.6409 35.295C39.6609 35.265 39.6809 35.255 39.6809 35.205C39.6909 35.205 39.6809 35.225 39.6809 35.225H39.6908Z" fill="#124936"/>
    </g>
    <defs>
        <clipPath id="clip0_1019_5732">
            <rect width="60" height="60" fill="white" transform="translate(0.425781)"/>
        </clipPath>
    </defs>
</svg>
