<svg width="165" height="62" viewBox="0 0 165 62" fill="none" xmlns="http://www.w3.org/2000/svg">
<path d="M19.7155 7.51482L0.733126 18.9C0.278212 19.1754 0 19.6658 0 20.1977V47.0575C0 47.8912 0.672972 48.5664 1.50385 48.5664H37.9271C38.7579 48.5664 39.4309 47.8912 39.4309 47.0575V19.3414L19.7155 7.51482ZM12.512 32.3261H7.20344V28.731C7.20344 27.2597 8.39148 26.0676 9.85773 26.0676C11.324 26.0676 12.512 27.2597 12.512 28.731V32.3261Z" fill="#124936"/>
<path d="M52.2133 49V18.1876H65.1545C67.0619 18.1876 68.7346 18.5251 70.1725 19.2C71.6398 19.8456 72.7696 20.7847 73.5619 22.0172C74.3835 23.2496 74.7944 24.7169 74.7944 26.4189V26.9031C74.7944 28.8399 74.3248 30.3952 73.3858 31.569C72.4761 32.7135 71.361 33.5204 70.0405 33.99V34.6942C71.1556 34.7529 72.0506 35.1344 72.7255 35.8387C73.4005 36.5136 73.7379 37.4967 73.7379 38.7879V49H68.94V39.4482C68.94 38.6558 68.7346 38.0249 68.3238 37.5554C67.9129 37.0859 67.2527 36.8511 66.343 36.8511H56.9672V49H52.2133ZM56.9672 32.5374H64.6263C66.3283 32.5374 67.6488 32.1119 68.5879 31.2609C69.5269 30.3805 69.9964 29.192 69.9964 27.6954V27.3433C69.9964 25.8467 69.5269 24.6729 68.5879 23.8219C67.6782 22.9415 66.3576 22.5013 64.6263 22.5013H56.9672V32.5374ZM90.1053 49.6162C87.9044 49.6162 85.9823 49.1614 84.339 48.2517C82.6957 47.3127 81.4045 46.0068 80.4654 44.3341C79.5557 42.6321 79.1009 40.666 79.1009 38.4358V37.9075C79.1009 35.648 79.5557 33.6818 80.4654 32.0092C81.3751 30.3072 82.637 29.0013 84.251 28.0916C85.8943 27.1526 87.787 26.683 89.9292 26.683C92.0127 26.683 93.8321 27.1526 95.3874 28.0916C96.9721 29.0013 98.2046 30.2778 99.0849 31.9211C99.9653 33.5645 100.405 35.4866 100.405 37.6875V39.4041H83.7227C83.7814 41.3116 84.4123 42.8375 85.6155 43.982C86.848 45.0971 88.3739 45.6547 90.1933 45.6547C91.8954 45.6547 93.1719 45.2732 94.0229 44.5102C94.9032 43.7472 95.5782 42.8669 96.0477 41.8691L99.7892 43.8059C99.3784 44.6276 98.7768 45.4933 97.9845 46.403C97.2215 47.3127 96.2091 48.0756 94.9473 48.6919C93.6854 49.3081 92.0714 49.6162 90.1053 49.6162ZM83.7668 35.9267H95.7836C95.6662 34.2834 95.0793 33.0069 94.0229 32.0972C92.9665 31.1582 91.5872 30.6886 89.8852 30.6886C88.1832 30.6886 86.7893 31.1582 85.7035 32.0972C84.6471 33.0069 84.0015 34.2834 83.7668 35.9267ZM110.15 49L102.843 27.2993H107.641L113.408 45.6547H114.112L119.878 27.2993H124.676L117.369 49H110.15ZM129.075 49V27.2993H133.609V49H129.075ZM131.364 24.3501C130.484 24.3501 129.736 24.0713 129.119 23.5138C128.533 22.9269 128.239 22.1786 128.239 21.2689C128.239 20.3592 128.533 19.6255 129.119 19.068C129.736 18.4811 130.484 18.1876 131.364 18.1876C132.274 18.1876 133.022 18.4811 133.609 19.068C134.196 19.6255 134.49 20.3592 134.49 21.2689C134.49 22.1786 134.196 22.9269 133.609 23.5138C133.022 24.0713 132.274 24.3501 131.364 24.3501ZM148.657 49.3962C147.014 49.3962 145.547 49.0293 144.255 48.2957C142.964 47.5621 141.952 46.5203 141.218 45.1705C140.484 43.8206 140.118 42.2066 140.118 40.3285V27.2993H144.651V40.0204C144.651 41.8985 145.121 43.2924 146.06 44.2021C146.999 45.0824 148.305 45.5226 149.978 45.5226C151.826 45.5226 153.308 44.9064 154.423 43.6739C155.568 42.412 156.14 40.6073 156.14 38.2597V27.2993H160.674V49H156.228V45.7427H155.524C155.113 46.623 154.379 47.4594 153.323 48.2517C152.267 49.0147 150.711 49.3962 148.657 49.3962Z" fill="#124936"/>
<path d="M19.7155 19.3413H41.916V1.50897C41.916 0.675266 41.243 0 40.4122 0H21.2193C20.3884 0 19.7155 0.675266 19.7155 1.50897V19.3413Z" fill="#9F7FF7"/>
<path d="M19.7155 19.3413V25.1584C19.7155 25.4942 20.1215 25.6639 20.3583 25.4263L26.4189 19.3451H19.7155V19.3413Z" fill="#9F7FF7"/>
</svg>
