<svg width="61" height="60" viewBox="0 0 61 60" fill="none"
    xmlns="http://www.w3.org/2000/svg">
    <rect width="60" height="60" transform="translate(0.425781)" />
    <path d="M26.6609 7.74502H34.2209C42.9409 7.74502 50.0209 14.825 50.0209 23.545V59.915H10.8708V23.535C10.8708 14.815 17.9509 7.73502 26.6709 7.73502L26.6609 7.74502Z" fill="#9F7FF7"/>
    <path d="M24.2708 39.135C24.4508 39.095 24.7308 39.085 24.8508 39.035C24.6108 39.045 24.4308 39.085 24.2708 39.135ZM18.3908 46.495C18.3208 46.415 18.3908 46.145 18.3808 46.005C18.4508 46.065 18.3808 46.295 18.3908 46.495ZM21.7108 40.165C21.6708 40.225 21.4808 40.335 21.4108 40.375C21.4508 40.295 21.6208 40.205 21.7108 40.165ZM29.5808 38.915C29.5808 38.915 29.2408 38.945 29.2108 38.915C29.4008 38.915 29.4608 38.895 29.5808 38.915ZM26.7208 38.915C26.7208 38.915 26.9508 38.915 27.0508 38.895C27.0508 38.875 26.9808 38.885 26.9308 38.875C26.9508 38.835 27.1308 38.875 27.2208 38.855C27.1908 38.875 27.1508 38.875 27.1008 38.885C27.2208 38.925 27.5208 38.885 27.7108 38.905C27.4508 38.945 27.0008 38.915 26.7308 38.905L26.7208 38.915ZM21.9608 39.825C21.9408 39.885 21.7608 39.955 21.6808 40.015C21.7008 39.955 21.8808 39.885 21.9608 39.825ZM34.2308 38.775C34.1008 38.765 34.0608 38.715 33.9008 38.705C33.9708 38.655 34.2408 38.695 34.2308 38.775ZM19.6708 37.765C19.6108 37.855 19.3608 38.005 19.2308 38.115C19.2808 38.025 19.5408 37.875 19.6708 37.765ZM30.5508 35.655C30.5508 35.655 30.7408 35.675 30.8808 35.655C30.8108 35.705 30.6608 35.675 30.5508 35.655ZM24.7108 35.495C24.8208 35.455 25.1508 35.465 25.3408 35.445C25.3008 35.505 24.8308 35.505 24.7108 35.495ZM22.9808 35.825C23.0508 35.745 23.3708 35.685 23.5908 35.625C23.5208 35.695 23.1308 35.755 22.9808 35.825ZM35.0008 38.365C34.9008 38.365 34.7808 38.345 34.6708 38.395C34.4908 38.355 34.2408 38.335 33.9808 38.325C33.9508 38.325 33.9408 38.345 33.9008 38.345C33.9208 38.375 33.8308 38.455 33.9808 38.445C33.8508 38.535 33.5608 38.445 33.5708 38.395C33.4508 38.385 33.4208 38.415 33.3208 38.415C33.4908 38.475 33.5708 38.535 33.8108 38.515C33.8108 38.595 33.7908 38.605 33.8508 38.695C33.6208 38.695 33.6308 38.735 33.5208 38.805C33.4208 38.785 33.3208 38.775 33.1908 38.775C33.1408 38.775 33.1308 38.805 33.0708 38.805C33.0408 38.855 33.1808 38.835 33.1508 38.885C31.1308 38.795 29.0808 38.865 26.9808 38.815C26.4608 38.945 26.1508 38.815 25.5808 38.855C25.6208 38.905 25.9508 38.855 26.0808 38.895C25.6708 38.895 25.4008 38.925 25.0808 38.935C24.7708 38.955 24.4608 39.015 24.1608 39.065C23.5708 39.205 23.0208 39.385 22.6008 39.635C22.1308 39.765 21.5208 40.125 21.0908 40.485C21.0008 40.555 21.1208 40.515 21.0708 40.565C20.7608 40.805 20.7508 40.815 20.4908 41.065C20.4508 40.955 20.6808 40.765 20.8708 40.585C20.6608 40.755 20.2208 41.105 20.2608 41.165C20.0508 41.395 19.8708 41.595 19.7208 41.825C19.5508 42.045 19.4008 42.285 19.2308 42.575C19.2208 42.655 19.1308 42.775 19.1808 42.815C19.0808 43.035 18.9608 43.265 18.9208 43.425C18.9708 43.395 19.0308 43.225 19.0808 43.135C19.0408 43.335 18.8408 43.805 18.7308 43.845C18.5108 44.415 18.3908 45.055 18.3908 45.535C18.2808 45.765 18.2708 46.045 18.2608 46.355C18.2608 46.725 18.2908 47.115 18.2808 47.515C18.3208 46.985 18.3308 47.815 18.3308 47.885C18.3608 48.325 18.3908 48.785 18.4108 49.195C18.4608 49.965 18.4108 50.595 18.4308 51.115C18.4908 52.415 18.4308 53.715 18.3508 54.795C18.3508 54.915 18.3808 54.965 18.3808 55.085C18.3608 55.085 18.3708 55.035 18.3608 55.005C18.2708 55.335 18.0808 55.765 17.9208 55.375C17.8408 55.415 17.7808 55.585 17.7108 55.745C17.4808 55.495 17.2008 55.615 17.0008 55.255C16.8408 55.465 16.6308 55.255 16.4408 55.255C16.2308 55.255 15.9908 55.475 15.8708 55.055C15.2008 54.915 15.4608 52.495 15.5108 51.255C15.4108 50.525 15.5608 49.755 15.5308 48.925C15.5308 48.805 15.4908 48.785 15.4808 48.685C15.5408 47.495 15.4108 46.555 15.5008 45.345C15.4208 46.065 15.4208 46.425 15.4208 47.135C15.4108 47.435 15.4008 47.005 15.4008 46.885C15.4008 46.355 15.3808 45.585 15.4808 44.875C15.5208 44.515 15.5808 44.145 15.6908 43.775C15.7708 43.395 15.8908 43.025 16.0308 42.655C16.5708 41.165 17.5208 39.725 18.7708 38.605C19.0208 38.355 19.4108 38.135 19.5208 37.975C19.9508 37.675 20.2308 37.515 20.6208 37.255C20.6208 37.225 20.3908 37.365 20.4208 37.375C20.6908 37.065 21.6408 36.705 22.2608 36.445C21.8708 36.505 21.2608 36.765 20.6708 37.085L19.8408 37.605C19.5908 37.785 19.3708 37.945 19.1908 38.085C20.4008 37.095 21.6608 36.525 23.0408 36.075C23.0408 36.115 23.2508 36.015 23.1908 36.085C23.9608 35.875 24.6508 35.805 25.3008 35.785C25.7908 35.755 26.1508 35.685 26.5408 35.765C28.9808 35.795 31.0508 35.805 33.0808 35.925C32.9708 35.975 32.9008 35.875 32.7508 35.925C32.8808 35.945 33.0508 35.955 33.1608 35.995C33.3608 35.925 34.2908 35.985 34.4308 36.145C34.1308 36.115 33.9008 36.065 33.5308 36.065C33.6008 36.105 33.8308 36.085 33.8608 36.145C33.6708 36.165 33.3108 36.125 33.0808 36.115C33.0208 36.115 33.0808 36.145 33.1208 36.145C32.6008 36.145 32.0208 36.015 31.4508 36.095C31.6808 36.125 32.0408 36.065 32.2308 36.145C32.1708 36.165 31.9208 36.125 31.7408 36.145C31.9508 36.195 32.1008 36.185 32.3508 36.195C32.1608 36.125 32.5208 36.195 32.6808 36.175C32.2708 36.225 31.8008 36.245 32.0708 36.375C32.6608 36.405 32.7408 36.375 33.1308 36.395C33.0608 36.365 32.9808 36.395 33.0508 36.325H32.8508C33.0708 36.325 33.2008 36.235 33.5008 36.225C33.4908 36.245 33.4008 36.235 33.3408 36.245C33.3708 36.305 33.4808 36.325 33.6308 36.325C33.6308 36.375 33.4408 36.345 33.4708 36.405C33.5008 36.455 33.5608 36.385 33.6308 36.405C33.6508 36.455 33.4408 36.415 33.4308 36.455C33.6008 36.455 33.8008 36.495 34.1208 36.485C34.1008 36.505 34.0708 36.515 34.0008 36.515C34.1008 36.555 34.3308 36.515 34.4508 36.515C34.4308 36.595 34.6508 36.575 34.6508 36.645C34.4008 36.575 34.3208 36.685 34.2408 36.595C34.0708 36.705 33.6608 36.635 33.3008 36.675C33.4908 36.705 33.7708 36.695 33.9908 36.705C33.9608 36.725 33.9008 36.735 33.8308 36.735C33.8508 36.755 33.9908 36.795 33.9508 36.735C34.0708 36.775 33.8308 36.795 33.7908 36.815C33.8408 36.815 33.9008 36.815 33.8708 36.895C33.6908 36.915 33.3308 36.805 33.0908 36.895C33.0408 36.875 32.9708 36.865 32.9308 36.845C32.7908 36.865 32.7208 36.915 32.4808 36.895C32.7308 36.865 32.3908 36.855 32.3608 36.795C32.3608 36.855 31.8408 36.815 31.6308 36.845C31.8308 36.875 32.2908 36.865 32.4508 36.865C32.4208 36.885 32.3808 36.885 32.3308 36.895C32.7108 36.925 33.1408 36.945 33.5108 36.875C33.5208 36.935 33.7008 36.915 33.8008 36.945C33.9508 36.945 33.9208 36.865 34.0908 36.865C34.1208 36.975 34.0308 36.995 33.7608 37.015C34.0608 37.035 34.5508 36.975 34.6608 37.175C34.3908 37.055 34.0108 37.035 33.5608 37.065C33.7208 37.105 34.1408 37.055 34.2508 37.115C34.1308 37.115 34.1308 37.145 34.0508 37.165C34.1508 37.215 34.0908 37.195 34.2508 37.235C34.1708 37.275 34.0408 37.195 33.8808 37.215C33.8208 37.265 34.1408 37.245 33.9208 37.265C33.9008 37.295 34.0708 37.315 34.0808 37.285C34.0708 37.305 33.9208 37.375 33.9608 37.435C33.7408 37.445 33.8408 37.435 33.5908 37.455C33.6808 37.545 33.9708 37.425 34.0808 37.475C34.0408 37.435 34.2608 37.365 34.0408 37.365C34.1508 37.285 34.2608 37.365 34.3708 37.415C34.3408 37.465 34.2408 37.415 34.1708 37.415C34.0708 37.545 34.6608 37.705 34.3308 37.775C34.3008 37.815 34.4108 37.805 34.4508 37.825C34.2508 37.895 34.0008 37.845 33.7608 37.895C33.8408 37.925 34.2108 37.925 34.2908 37.895C34.4208 37.915 34.2508 37.945 34.1708 37.925C34.2508 38.035 34.8208 37.935 34.9508 37.955C34.9908 37.995 34.6408 38.025 34.5808 38.085C34.5308 38.065 34.5108 38.035 34.3808 38.055C34.5308 38.015 34.3308 38.035 34.4208 37.985C34.2608 38.065 34.1208 38.055 33.9308 38.115C34.1208 38.185 34.3708 38.165 34.6208 38.245C34.8408 38.215 34.9408 38.205 35.1508 38.245C35.1508 38.295 34.9008 38.325 35.0308 38.375L35.0008 38.365ZM21.6308 40.025C21.6008 40.085 21.3308 40.205 21.3208 40.285C22.3308 39.515 23.7608 39.135 24.8208 38.905C24.6808 38.915 24.4708 38.985 24.3808 38.955C24.4208 38.945 24.4508 38.925 24.4708 38.905C24.0408 38.975 23.0208 39.215 22.5208 39.545C22.5508 39.525 22.6108 39.505 22.6008 39.485C22.3108 39.595 21.6108 39.935 21.6208 40.015L21.6308 40.025ZM34.2608 37.715V37.615C33.6208 37.585 32.7808 37.555 32.0908 37.615C32.7208 37.615 33.1808 37.625 33.6008 37.665C33.5708 37.685 33.6708 37.685 33.5208 37.715C33.8608 37.735 33.9408 37.675 34.2608 37.715ZM33.2408 36.815C33.0008 36.815 32.5508 36.745 32.2608 36.795C32.4008 36.795 32.8008 36.775 32.5908 36.825C32.7608 36.865 33.0708 36.825 33.2408 36.805V36.815ZM15.5708 49.535C15.5808 49.415 15.5908 49.485 15.6408 49.495C15.6608 49.235 15.6808 49.005 15.6708 48.675C15.5808 48.795 15.4808 49.215 15.5708 49.535ZM15.6008 46.835C15.5308 46.835 15.5208 47.405 15.6008 47.405C15.6308 47.195 15.6008 47.095 15.6008 46.835ZM19.1208 38.585C19.1208 38.585 19.0908 38.635 19.0808 38.605C19.0008 38.755 18.7908 38.855 18.6608 39.025C18.7508 38.975 18.6108 39.065 18.6208 39.115C18.5608 39.135 18.5508 39.175 18.4608 39.275C18.2108 39.545 19.0908 38.685 19.1608 38.625C19.1608 38.625 19.2008 38.615 19.1908 38.595C19.0908 38.695 19.2508 38.485 19.1208 38.595V38.585ZM21.2108 37.195C21.6508 36.965 20.5208 37.495 21.0808 37.245C20.7708 37.365 20.4208 37.625 20.0608 37.845C19.7208 38.095 19.4008 38.355 19.2008 38.545C19.8508 37.995 20.4808 37.585 21.2108 37.205V37.195ZM20.3108 37.565C20.1008 37.655 20.1008 37.705 19.9008 37.785C18.2408 39.125 17.1408 40.305 16.3108 42.075C17.1908 40.515 18.5708 38.635 20.3108 37.565ZM18.1608 39.305C18.2508 39.195 18.4408 39.025 18.4708 38.955C18.3708 39.055 18.1808 39.235 18.1608 39.305ZM23.1408 36.105C23.2308 36.145 23.4808 36.065 23.6508 36.015C23.4808 36.035 23.3708 36.035 23.1408 36.105ZM19.9308 41.645C19.8508 41.835 19.7008 41.985 19.5808 42.135C19.4808 42.235 19.7508 41.885 19.5908 42.065C19.6308 41.975 19.8308 41.765 19.9208 41.645H19.9308ZM33.6008 38.805C33.6908 38.845 33.6608 38.845 33.7208 38.905C33.6408 38.885 33.5308 38.885 33.4308 38.875C33.4908 38.855 33.5708 38.835 33.5908 38.795C33.6408 38.795 33.6108 38.815 33.5908 38.815L33.6008 38.805Z" fill="#124936"/>
    <path d="M34.0609 53.965C33.7009 53.975 33.1709 53.945 32.9209 53.985C33.3809 54.005 33.7209 54.005 34.0609 53.965ZM42.5009 46.345C42.5609 46.435 42.5209 46.945 42.5309 47.235C42.4709 47.145 42.5109 46.635 42.5009 46.345ZM39.3809 53.995C39.5109 53.955 39.9309 53.985 40.0809 53.995C39.9309 54.035 39.5709 53.995 39.3809 53.995ZM25.2509 54.045C25.2509 54.045 25.7709 54.015 25.8209 54.045C25.5309 54.045 25.4409 54.065 25.2509 54.045ZM29.6809 54.045C29.6809 54.045 29.3209 54.045 29.1709 54.065C29.1809 54.085 29.2909 54.075 29.3609 54.085C29.3309 54.125 29.0509 54.085 28.9209 54.105C28.9709 54.085 29.0309 54.085 29.1109 54.075C28.9209 54.035 28.4609 54.075 28.1609 54.055C28.5609 54.015 29.2709 54.045 29.6809 54.055V54.045ZM38.6109 54.155C38.7009 54.115 39.0509 54.155 39.2409 54.135C39.1509 54.175 38.8009 54.135 38.6109 54.155ZM18.0209 54.185C18.2209 54.195 18.2809 54.245 18.5309 54.255C18.4209 54.305 17.9909 54.265 18.0209 54.185ZM39.8809 57.115C40.0109 57.075 40.4109 57.115 40.6409 57.095C40.5109 57.135 40.1109 57.095 39.8809 57.115ZM23.7209 57.295C23.6609 57.335 23.4309 57.275 23.2109 57.295C23.3209 57.245 23.5509 57.275 23.7209 57.295ZM32.5309 57.505C32.3809 57.545 31.9609 57.505 31.7109 57.525C31.7709 57.465 32.3809 57.485 32.5309 57.505ZM34.8109 57.485C34.7009 57.545 34.2709 57.525 33.9909 57.535C34.1009 57.475 34.6109 57.525 34.8109 57.485ZM16.8209 54.585C16.9809 54.585 17.1609 54.605 17.3309 54.555C17.6109 54.595 18.0009 54.615 18.4109 54.625C18.4609 54.625 18.4709 54.605 18.5409 54.605C18.5009 54.575 18.6409 54.495 18.4109 54.505C18.6109 54.415 19.0609 54.505 19.0409 54.555C19.2309 54.565 19.2709 54.535 19.4209 54.535C19.1509 54.475 19.0409 54.415 18.6609 54.435C18.6609 54.355 18.6909 54.345 18.6009 54.255C18.9509 54.255 18.9409 54.215 19.1109 54.145C19.2609 54.165 19.4209 54.175 19.6209 54.175C19.7009 54.175 19.7209 54.145 19.8109 54.145C19.8609 54.095 19.6409 54.115 19.6809 54.065C22.8109 54.155 26.0009 54.085 29.2509 54.135C30.0809 54.005 30.5009 54.135 31.4709 54.105C31.3609 54.045 30.8509 54.095 30.6509 54.055C33.0009 54.025 35.4909 54.085 37.3709 54.005C38.3009 54.075 39.6009 54.085 40.6609 54.075C40.8809 54.075 40.6609 54.035 40.7909 54.025C41.5409 54.025 41.5609 54.055 42.2509 54.045C42.1609 54.155 41.6109 54.145 41.1109 54.145C41.5909 54.155 42.7709 54.195 42.4809 54.145H42.6909C42.6909 54.065 42.6909 53.995 42.6909 53.905C42.6909 53.905 42.6809 53.905 42.6709 53.885V53.745C42.6509 53.655 42.6309 53.575 42.6009 53.565C42.6009 53.105 42.6009 52.605 42.5709 52.295C42.5309 52.385 42.5709 52.735 42.5509 52.925C42.4809 52.555 42.5009 51.555 42.6009 51.405C42.6009 50.245 42.6209 49.025 42.5509 48.115C42.6409 47.645 42.6409 47.125 42.6409 46.555C42.6209 46.015 42.5809 45.575 42.5009 45.055C42.5609 45.725 42.4209 44.685 42.3609 44.615C42.2809 44.345 42.2009 44.075 42.0809 43.825C41.9809 43.565 41.8609 43.325 41.7309 43.105C41.2609 42.265 40.8009 41.635 40.3409 41.175C39.1509 40.085 37.6809 39.305 36.3509 39.055C36.2109 39.035 36.1309 39.055 35.9909 39.035C35.9909 39.015 36.0509 39.035 36.0909 39.035C35.6909 38.885 35.1309 38.695 35.6609 38.555C35.6209 38.465 35.3809 38.405 35.1709 38.315C35.5209 38.105 35.3509 37.815 35.9009 37.645C35.5909 37.465 35.9309 37.275 35.9509 37.085C35.9709 36.885 35.6209 36.595 36.3409 36.545C36.4809 36.235 37.6409 36.235 38.9209 36.735C40.2109 37.205 41.5209 38.185 42.2509 38.965C43.2409 39.785 43.9309 40.965 44.5409 42.275C44.6309 42.465 44.6709 42.485 44.7409 42.655C45.1009 43.605 45.2809 44.565 45.3909 45.485C45.4709 46.455 45.4609 47.185 45.4709 47.995C45.5009 46.985 45.5209 46.605 45.4509 45.275C45.3909 44.745 45.5109 45.505 45.4909 45.705C45.5009 45.905 45.5109 46.105 45.5309 46.305C45.5309 46.485 45.5309 46.665 45.5309 46.855C45.5309 47.225 45.5309 47.595 45.5409 47.985C45.5409 48.755 45.5509 49.565 45.5609 50.395C45.5709 52.475 45.5809 54.695 45.5909 57.035C44.4609 57.035 43.0109 57.035 41.5609 57.055C41.0809 57.055 40.4809 57.005 40.2309 57.075C39.5209 57.045 39.0809 57.055 38.4609 57.075C38.4309 57.105 38.8109 57.105 38.7809 57.075C38.2509 57.185 36.9109 57.085 35.9909 57.145C37.0309 57.255 39.5109 57.155 40.6809 57.195C38.5909 57.245 36.7809 57.195 34.8509 57.275C34.8709 57.235 34.5609 57.275 34.6609 57.225C33.5909 57.245 32.6809 57.225 31.8109 57.225C31.1909 57.225 30.5609 57.305 29.9709 57.225C26.1809 57.195 22.9709 57.185 19.8309 57.065C20.0009 57.015 20.1209 57.115 20.3409 57.065C20.1409 57.045 19.8709 57.035 19.7109 56.995C19.4009 57.065 17.9609 57.005 17.7509 56.845C18.2209 56.875 18.5809 56.925 19.1409 56.925C19.0309 56.885 18.6709 56.905 18.6309 56.845C18.9309 56.825 19.4809 56.865 19.8309 56.875C19.9209 56.875 19.8309 56.845 19.7709 56.845C20.5709 56.845 21.4809 56.975 22.3709 56.895C22.0109 56.865 21.4609 56.925 21.1709 56.845C21.2709 56.825 21.6609 56.865 21.9309 56.845C21.6009 56.795 21.3809 56.805 20.9809 56.795C21.2709 56.865 20.7209 56.795 20.4709 56.815C21.1109 56.765 21.8409 56.745 21.4209 56.615C20.5109 56.585 20.3809 56.615 19.7709 56.595C19.8809 56.625 20.0009 56.595 19.9009 56.665H20.2209C19.8809 56.665 19.6709 56.755 19.2109 56.765C19.2309 56.745 19.3709 56.755 19.4609 56.745C19.4209 56.685 19.2409 56.665 19.0209 56.665C19.0309 56.615 19.3209 56.645 19.2709 56.585C19.2309 56.535 19.1309 56.605 19.0209 56.585C18.9909 56.535 19.3109 56.575 19.3409 56.535C19.0709 56.535 18.7609 56.495 18.2609 56.505C18.2909 56.485 18.3409 56.475 18.4509 56.475C18.3009 56.435 17.9409 56.475 17.7509 56.475C17.7809 56.395 17.4509 56.415 17.4309 56.345C17.8209 56.415 17.9309 56.305 18.0609 56.395C18.3309 56.285 18.9509 56.355 19.5209 56.315C19.2209 56.285 18.8009 56.295 18.4409 56.285C18.4809 56.265 18.5809 56.255 18.6909 56.255C18.6609 56.235 18.4409 56.195 18.5009 56.255C18.3109 56.215 18.6909 56.195 18.7509 56.175C18.6709 56.175 18.5809 56.175 18.6209 56.095C18.9109 56.075 19.4609 56.185 19.8209 56.095C19.9009 56.115 20.0109 56.125 20.0709 56.145C20.2909 56.125 20.4009 56.075 20.7709 56.095C20.3909 56.125 20.9209 56.135 20.9609 56.195C20.9709 56.135 21.7709 56.175 22.1009 56.145C21.7809 56.115 21.0709 56.125 20.8309 56.125C20.8809 56.105 20.9509 56.105 21.0209 56.095C20.4309 56.065 19.7609 56.045 19.1809 56.115C19.1609 56.055 18.8909 56.075 18.7409 56.045C18.5109 56.045 18.5609 56.125 18.3009 56.125C18.2609 56.015 18.3909 55.995 18.8109 55.975C18.3409 55.955 17.5909 56.015 17.4209 55.815C17.8409 55.935 18.4309 55.955 19.1309 55.925C18.8809 55.885 18.2309 55.935 18.0509 55.875C18.2309 55.875 18.2309 55.845 18.3709 55.825C18.2209 55.775 18.3109 55.795 18.0509 55.755C18.1709 55.715 18.3709 55.795 18.6209 55.775C18.7209 55.725 18.2109 55.745 18.5609 55.725C18.5909 55.695 18.3209 55.675 18.3109 55.705C18.3309 55.685 18.5609 55.615 18.5009 55.555C18.8409 55.545 18.6809 55.555 19.0709 55.535C18.9309 55.445 18.4809 55.565 18.3109 55.515C18.3709 55.555 18.0309 55.625 18.3709 55.625C18.2009 55.705 18.0309 55.625 17.8609 55.575C17.9109 55.525 18.0609 55.575 18.1809 55.575C18.3409 55.445 17.4209 55.285 17.9309 55.215C17.9709 55.175 17.8009 55.185 17.7409 55.165C18.0509 55.095 18.4309 55.145 18.8209 55.095C18.6909 55.065 18.1309 55.065 18.0009 55.095C17.8009 55.075 18.0609 55.045 18.1909 55.065C18.0709 54.955 17.1909 55.055 16.9909 55.035C16.9309 54.995 17.4709 54.965 17.5609 54.905C17.6409 54.925 17.6709 54.955 17.8809 54.935C17.6409 54.975 17.9509 54.955 17.8209 55.005C18.0709 54.925 18.2909 54.935 18.5809 54.875C18.2909 54.805 17.9009 54.825 17.5009 54.745C17.1709 54.775 17.0009 54.785 16.6809 54.745C16.6809 54.695 17.0709 54.665 16.8709 54.615L16.8209 54.585ZM39.3109 54.145C39.4209 54.095 39.9609 54.165 40.0709 54.115C37.7309 54.105 34.9609 54.005 32.9109 54.115C33.1609 54.125 33.5809 54.095 33.7309 54.135C33.6609 54.135 33.5909 54.155 33.5409 54.165C34.3609 54.135 36.2909 54.185 37.4009 54.135C37.3309 54.135 37.2209 54.135 37.2109 54.155C37.7909 54.155 39.2309 54.225 39.3009 54.155L39.3109 54.145ZM17.9609 55.245V55.345C18.9609 55.375 20.2509 55.405 21.3209 55.345C20.3509 55.345 19.6309 55.335 18.9809 55.295C19.0309 55.275 18.8709 55.275 19.1109 55.245C18.5909 55.225 18.4509 55.285 17.9709 55.245H17.9609ZM19.5409 56.145C19.9109 56.145 20.6009 56.215 21.0609 56.165C20.8409 56.165 20.2209 56.185 20.5509 56.135C20.2809 56.095 19.8009 56.135 19.5409 56.155V56.145ZM43.9709 41.335C44.0609 41.515 43.9909 41.415 43.9509 41.425C44.1409 41.835 44.3109 42.195 44.5109 42.705C44.5409 42.475 44.3209 41.775 43.9709 41.325V41.335ZM45.2309 45.775C45.2309 45.775 45.2709 45.525 45.2609 45.275C45.2209 45.035 45.1709 44.795 45.1309 44.795C45.1609 45.165 45.2209 45.325 45.2309 45.775ZM41.1409 56.805C41.1409 56.805 41.2209 56.795 41.2009 56.825C41.4109 56.765 41.7409 56.825 42.0209 56.795C41.8909 56.775 42.1109 56.795 42.1509 56.765C42.2509 56.785 42.2509 56.765 42.5009 56.765C42.9109 56.755 42.3509 56.745 42.0409 56.745C41.6609 56.745 41.2009 56.745 41.1409 56.765C41.1409 56.765 41.0909 56.745 41.0809 56.765C41.2809 56.765 40.9209 56.815 41.1409 56.815V56.805ZM37.6609 56.825C36.9709 56.845 38.6909 56.855 37.8509 56.845C38.7509 56.855 40.2509 56.845 41.0209 56.795C39.8409 56.805 38.8209 56.815 37.6609 56.825ZM38.9909 56.935C39.3009 56.965 39.3409 56.925 39.6209 56.965C40.4809 56.925 41.2809 56.915 42.0409 56.915C43.2209 56.915 44.3409 56.915 45.4709 56.925C45.4709 55.515 45.4909 54.125 45.4909 52.605C45.4809 52.845 45.4609 53.095 45.4509 53.335C45.4509 53.635 45.4309 53.935 45.4209 54.245C45.4209 55.095 45.4109 55.965 45.4009 56.855C44.1609 56.855 42.8809 56.875 41.6109 56.885C40.7209 56.905 39.8409 56.915 39.0009 56.935H38.9909ZM43.0409 56.955H42.4409C42.2909 56.955 42.2009 56.955 42.1509 56.975H42.5709C42.7809 56.975 42.9609 56.975 43.0309 56.955H43.0409ZM34.6809 57.185C34.5809 57.125 34.2209 57.135 33.9809 57.155C34.2109 57.165 34.3609 57.195 34.6809 57.185ZM42.5509 54.065C42.5509 54.065 42.5509 54.035 42.5709 54.035C42.5709 54.015 42.5809 54.005 42.5809 53.995C42.6009 53.985 42.6009 54.065 42.6109 54.035C42.6209 54.055 42.6109 54.075 42.6109 54.095L42.5409 54.075L42.5509 54.065ZM18.9709 54.145C18.8309 54.105 18.8809 54.105 18.7809 54.045C18.9009 54.065 19.0809 54.065 19.2209 54.075C19.1209 54.095 19.0009 54.115 18.9709 54.155C18.9009 54.155 18.9409 54.135 18.9709 54.135V54.145Z" fill="#124936"/>
    <path d="M7.10075 36.205H10.8707V59.915H7.10075C4.98075 59.915 3.26074 58.195 3.26074 56.075V40.045C3.26074 37.925 4.98075 36.205 7.10075 36.205Z" fill="#9F7FF7"/>
    <path d="M53.7708 59.915H50.0008V36.205H53.7708C55.8908 36.205 57.6108 37.925 57.6108 40.045V56.075C57.6108 58.195 55.8908 59.915 53.7708 59.915Z" fill="#9F7FF7"/>
    <path d="M25.331 1.63502C25.151 1.78502 24.841 1.96502 24.751 2.11502C24.991 1.93502 25.181 1.80502 25.331 1.63502ZM37.071 3.01502C36.981 3.01502 36.791 2.73502 36.651 2.60502C36.741 2.60502 36.931 2.88502 37.071 3.01502ZM28.541 0.225022C28.611 0.155022 28.891 0.145022 28.991 0.135022C28.901 0.195022 28.661 0.185022 28.541 0.225022ZM22.111 6.32502C22.111 6.32502 22.181 5.98502 22.221 5.96502C22.141 6.14502 22.161 6.20502 22.111 6.32502ZM23.371 3.71502C23.371 3.71502 23.231 3.90502 23.191 3.99502C23.211 3.99502 23.241 3.93502 23.271 3.89502C23.291 3.93502 23.171 4.07502 23.131 4.15502C23.131 4.12502 23.151 4.07502 23.171 4.03502C23.071 4.12502 22.941 4.39502 22.831 4.55502C22.931 4.31502 23.181 3.91502 23.361 3.71502H23.371ZM28.101 0.515022C28.141 0.465022 28.381 0.435022 28.491 0.395022C28.441 0.445022 28.211 0.475022 28.101 0.515022ZM21.921 10.555C21.931 10.445 21.991 10.425 21.991 10.295C22.051 10.355 22.001 10.575 21.921 10.555ZM29.471 3.44502C29.471 3.44502 29.681 3.40502 29.771 3.38502C29.721 3.43502 29.561 3.42502 29.471 3.44502ZM25.331 7.87502C25.331 7.87502 25.291 7.98502 25.301 8.07502C25.251 8.02502 25.301 7.93502 25.331 7.87502ZM27.111 5.07502C27.101 5.14502 26.951 5.21502 26.901 5.29502C26.861 5.22502 27.061 5.09502 27.111 5.07502ZM27.781 4.54502C27.781 4.61502 27.631 4.68502 27.551 4.76502C27.551 4.68502 27.731 4.61502 27.781 4.54502ZM22.351 11.195C22.351 11.115 22.371 11.015 22.321 10.935C22.371 10.785 22.381 10.585 22.391 10.375C22.391 10.345 22.371 10.345 22.371 10.305C22.331 10.325 22.251 10.255 22.261 10.375C22.161 10.275 22.261 10.035 22.311 10.045C22.321 9.94502 22.291 9.92502 22.291 9.84502C22.221 9.98502 22.161 10.045 22.181 10.245C22.101 10.245 22.091 10.225 21.991 10.275C21.991 10.095 21.951 10.095 21.871 10.015C21.891 9.93502 21.901 9.85502 21.901 9.75502C21.901 9.71502 21.871 9.70502 21.871 9.65502C21.821 9.63502 21.841 9.74502 21.781 9.72502C21.801 9.28502 21.821 8.85502 21.841 8.42502C21.861 7.91502 21.941 7.40502 22.041 6.89502C22.261 5.88502 22.671 4.89502 23.281 4.03502C23.481 3.51502 23.741 3.36502 24.151 2.88502C24.061 2.89502 23.871 3.17502 23.751 3.24502C24.711 2.03502 26.131 1.14502 27.261 0.645022C27.851 0.485022 28.681 0.275022 29.371 0.185022C29.511 0.155022 29.371 0.135022 29.451 0.125022C29.941 0.085022 29.951 0.125022 30.401 0.085022C30.341 0.205022 29.991 0.205022 29.661 0.225022C29.991 0.215022 30.661 0.235022 30.681 0.195022C31.421 0.225022 32.001 0.275022 32.791 0.505022C32.891 0.505022 33.061 0.555022 33.091 0.505022C33.381 0.605022 33.681 0.725022 33.881 0.765022C33.851 0.695022 33.611 0.655022 33.501 0.595022C33.761 0.595022 34.351 0.915022 34.401 1.04502C35.081 1.39502 35.731 1.86502 36.211 2.22502C36.551 2.75502 37.161 3.22502 37.621 3.91502C37.341 3.45502 37.841 4.13502 37.861 4.20502C38.131 4.57502 38.351 4.98502 38.561 5.35502C38.901 6.08502 39.021 6.72502 39.131 7.25502C39.201 7.58502 39.261 7.91502 39.271 8.24502L39.291 8.74502V9.13502C39.261 9.63502 39.221 10.115 39.181 10.555C39.181 10.645 39.211 10.695 39.211 10.785C39.191 10.785 39.201 10.745 39.191 10.715C39.091 10.985 38.891 11.335 38.721 11.015C38.631 11.045 38.571 11.185 38.491 11.315C38.251 11.115 37.941 11.215 37.741 10.915C37.571 11.085 37.351 10.915 37.141 10.915C36.911 10.915 36.661 11.095 36.531 10.755C35.801 10.675 36.151 8.58502 36.061 7.87502C35.891 7.41502 35.891 6.88502 35.631 6.38502C35.591 6.31502 35.551 6.32502 35.511 6.26502C35.211 5.54502 34.691 5.04502 34.201 4.59502C34.481 4.90502 34.631 5.04502 34.921 5.43502C35.031 5.60502 34.851 5.38502 34.811 5.31502C33.871 4.15502 32.041 3.14502 30.121 3.32502C29.921 3.32502 29.671 3.31502 29.581 3.40502C29.281 3.40502 29.111 3.48502 28.871 3.56502C28.871 3.59502 29.021 3.56502 29.001 3.53502C28.821 3.68502 28.281 3.79502 27.971 4.01502C28.381 3.89502 29.301 3.49502 29.791 3.50502C28.971 3.66502 28.261 3.89502 27.651 4.36502C27.641 4.32502 27.561 4.43502 27.561 4.36502C27.221 4.61502 26.931 4.83502 26.681 5.08502C26.511 5.27502 26.411 5.50502 26.211 5.64502C25.741 6.24502 25.441 6.89502 25.271 7.54502C25.091 8.19502 25.051 8.79502 24.991 9.68502C24.941 9.59502 25.041 9.53502 24.991 9.42502C24.961 9.52502 24.961 9.67502 24.921 9.75502C24.991 9.91502 24.931 10.665 24.761 10.775C24.791 10.525 24.851 10.345 24.851 10.045C24.801 10.105 24.831 10.295 24.761 10.305C24.741 10.145 24.781 9.86502 24.791 9.67502C24.791 9.62502 24.761 9.67502 24.761 9.70502C24.761 9.29502 24.891 8.77502 24.831 8.43502C24.791 8.59502 24.831 8.81502 24.761 8.98502C24.731 8.92502 24.781 8.73502 24.761 8.62502C24.701 8.75502 24.711 8.87502 24.701 9.08502C24.771 8.93502 24.701 9.21502 24.721 9.34502C24.671 9.01502 24.651 8.63502 24.511 8.85502C24.481 9.32502 24.501 9.39502 24.491 9.71502C24.531 9.65502 24.491 9.59502 24.561 9.64502V9.48502C24.561 9.66502 24.651 9.77502 24.671 10.015C24.651 10.005 24.661 9.93502 24.651 9.88502C24.591 9.90502 24.571 9.99502 24.561 10.115C24.511 10.115 24.541 9.95502 24.471 9.98502C24.421 10.005 24.491 10.055 24.471 10.115C24.411 10.135 24.461 9.96502 24.421 9.94502C24.421 10.085 24.371 10.245 24.391 10.505C24.371 10.495 24.351 10.465 24.351 10.405C24.301 10.485 24.351 10.665 24.351 10.765C24.261 10.745 24.281 10.925 24.211 10.925C24.281 10.725 24.171 10.665 24.261 10.595C24.141 10.455 24.211 10.125 24.171 9.83502C24.141 9.98502 24.151 10.215 24.131 10.395C24.111 10.375 24.101 10.325 24.091 10.265C24.071 10.275 24.031 10.395 24.091 10.365C24.051 10.465 24.031 10.265 24.001 10.235C24.001 10.275 24.001 10.325 23.911 10.305C23.891 10.155 24.001 9.86502 23.911 9.67502C23.931 9.63502 23.941 9.57502 23.961 9.54502C23.941 9.42502 23.891 9.37502 23.911 9.18502C23.941 9.38502 23.951 9.10502 24.011 9.08502C23.941 9.08502 23.991 8.66502 23.971 8.50502C23.921 8.65502 23.931 9.01502 23.941 9.14502C23.921 9.12502 23.911 9.08502 23.911 9.04502C23.881 9.34502 23.861 9.70502 23.931 10.005C23.871 10.015 23.881 10.155 23.861 10.235C23.861 10.355 23.951 10.335 23.951 10.465C23.831 10.485 23.811 10.415 23.791 10.205C23.771 10.445 23.831 10.845 23.611 10.935C23.731 10.715 23.761 10.415 23.731 10.045C23.681 10.175 23.741 10.515 23.681 10.605C23.681 10.505 23.651 10.515 23.631 10.435C23.571 10.515 23.601 10.465 23.561 10.605C23.521 10.545 23.601 10.435 23.581 10.305C23.531 10.255 23.541 10.515 23.531 10.335C23.501 10.325 23.471 10.455 23.511 10.465C23.491 10.465 23.421 10.335 23.351 10.365C23.331 10.185 23.361 10.265 23.331 10.065C23.231 10.135 23.361 10.375 23.311 10.465C23.351 10.435 23.421 10.615 23.431 10.435C23.511 10.525 23.431 10.615 23.381 10.695C23.331 10.665 23.391 10.585 23.381 10.535C23.241 10.455 23.071 10.925 22.991 10.665C22.941 10.645 22.961 10.735 22.941 10.765C22.871 10.605 22.921 10.405 22.871 10.205C22.841 10.275 22.841 10.565 22.871 10.635C22.851 10.745 22.821 10.605 22.841 10.535C22.721 10.595 22.831 11.055 22.801 11.165C22.751 11.195 22.721 10.915 22.661 10.865C22.681 10.825 22.711 10.805 22.691 10.695C22.731 10.815 22.711 10.655 22.761 10.725C22.681 10.595 22.691 10.475 22.621 10.325C22.541 10.475 22.571 10.685 22.481 10.885C22.521 11.055 22.521 11.145 22.481 11.315C22.431 11.315 22.391 11.105 22.341 11.215L22.351 11.195ZM28.541 0.415022C28.601 0.335022 28.961 0.345022 29.021 0.285022C27.511 0.485022 25.781 1.24502 24.861 2.23502C24.981 2.12502 25.191 1.94502 25.291 1.91502C25.261 1.95502 25.231 1.98502 25.211 2.01502C25.591 1.63502 26.711 1.05502 27.361 0.755022C27.321 0.775022 27.251 0.795022 27.251 0.815022C27.601 0.665022 28.511 0.485022 28.541 0.415022ZM23.061 10.605H23.171C23.201 10.085 23.241 9.41502 23.171 8.85502C23.161 9.36502 23.151 9.73502 23.121 10.075C23.091 10.045 23.101 10.135 23.071 10.005C23.041 10.275 23.111 10.345 23.071 10.595L23.061 10.605ZM24.021 9.78502C24.021 9.59502 24.101 9.23502 24.041 8.99502C24.041 9.10502 24.061 9.43502 24.011 9.25502C23.971 9.39502 24.011 9.64502 24.031 9.78502H24.021ZM35.851 6.73502C35.841 6.65502 35.861 6.69502 35.911 6.68502C35.871 6.50502 35.821 6.35502 35.721 6.15502C35.671 6.27502 35.701 6.56502 35.861 6.73502H35.851ZM34.981 5.13502C34.921 5.18502 35.151 5.49502 35.211 5.44502C35.151 5.30502 35.081 5.27502 34.981 5.13502ZM29.951 3.06502C29.951 3.06502 29.981 3.04502 29.981 3.08502C30.071 3.02502 30.211 3.08502 30.331 3.03502C30.271 3.01502 30.371 3.03502 30.381 2.99502C30.421 3.01502 30.441 2.99502 30.521 2.99502C30.751 2.95502 29.991 2.99502 29.941 3.01502C29.941 3.01502 29.921 2.99502 29.911 3.01502C30.001 3.01502 29.841 3.06502 29.941 3.06502H29.951ZM28.491 3.40502C28.221 3.52502 28.921 3.28502 28.571 3.39502C28.931 3.26502 29.561 3.12502 29.891 3.04502C29.391 3.13502 28.941 3.19502 28.491 3.40502ZM29.071 3.35502C29.201 3.35502 29.211 3.30502 29.341 3.32502C30.541 2.98502 31.511 3.21502 32.531 3.60502C31.641 3.02502 30.171 3.00502 29.081 3.36502L29.071 3.35502ZM30.661 3.20502C30.581 3.20502 30.431 3.16502 30.391 3.20502C30.471 3.18502 30.621 3.23502 30.661 3.20502ZM27.561 4.29502C27.491 4.25502 27.371 4.34502 27.311 4.42502C27.391 4.37502 27.451 4.36502 27.561 4.29502ZM31.391 0.155022C31.641 0.135022 31.901 0.205022 32.131 0.255022C32.301 0.305022 31.771 0.215022 32.041 0.275022C31.921 0.275022 31.581 0.195022 31.391 0.155022ZM21.881 10.065C21.841 10.135 21.841 10.115 21.771 10.165C21.791 10.105 21.791 10.005 21.811 9.93502C21.841 9.98502 21.851 10.055 21.901 10.065C21.901 10.105 21.881 10.085 21.881 10.065Z" fill="#124936"/>
    <path d="M32.3208 24.885C32.4008 24.875 32.5208 24.905 32.5808 24.865C32.4808 24.845 32.4008 24.845 32.3208 24.885ZM27.8608 24.885C27.8808 24.815 28.0008 24.865 28.0608 24.845C28.0408 24.915 27.9208 24.865 27.8608 24.885ZM31.1108 24.845C31.1108 24.845 30.9908 24.855 30.9508 24.845C30.9908 24.795 31.0708 24.845 31.1108 24.845ZM34.3308 24.795C34.3308 24.795 34.2108 24.825 34.2008 24.795C34.2708 24.805 34.2908 24.775 34.3308 24.795ZM33.3208 24.795C33.3208 24.795 33.4008 24.795 33.4408 24.775C33.4408 24.755 33.4108 24.765 33.4008 24.755C33.4008 24.715 33.4708 24.755 33.5008 24.735C33.4908 24.755 33.4708 24.765 33.4608 24.775C33.5008 24.815 33.6108 24.775 33.6808 24.795C33.5908 24.835 33.4308 24.805 33.3308 24.795H33.3208ZM31.2808 24.675C31.2808 24.675 31.1808 24.675 31.1408 24.695C31.1608 24.655 31.2408 24.695 31.2808 24.675ZM35.9708 24.645C35.9708 24.645 35.9108 24.575 35.8508 24.575C35.8808 24.515 35.9708 24.565 35.9708 24.645ZM30.9908 21.505C30.9908 21.505 30.8708 21.505 30.8208 21.525C30.8508 21.485 30.9408 21.525 30.9908 21.505ZM34.6708 21.315C34.6708 21.315 34.7408 21.335 34.7908 21.315C34.7708 21.375 34.7108 21.335 34.6708 21.315ZM32.6608 21.085C32.6608 21.085 32.7908 21.085 32.8508 21.065C32.8408 21.125 32.7008 21.105 32.6608 21.085ZM32.1408 21.105C32.1708 21.045 32.2608 21.065 32.3308 21.055C32.3008 21.115 32.1908 21.075 32.1408 21.105ZM36.2408 24.205C36.2408 24.205 36.1608 24.185 36.1208 24.245C36.0608 24.195 35.9708 24.185 35.8708 24.175C35.8608 24.175 35.8608 24.195 35.8408 24.195C35.8408 24.235 35.8208 24.315 35.8708 24.305C35.8208 24.405 35.7208 24.305 35.7308 24.255C35.6908 24.245 35.6808 24.275 35.6408 24.275C35.7008 24.345 35.7308 24.405 35.8108 24.385C35.8108 24.465 35.8108 24.475 35.8208 24.575C35.7408 24.575 35.7408 24.615 35.7008 24.695C35.6708 24.675 35.6308 24.665 35.5808 24.665C35.5608 24.665 35.5608 24.695 35.5408 24.695C35.5308 24.745 35.5808 24.725 35.5708 24.785C34.8608 24.695 34.1308 24.765 33.3908 24.715C33.2008 24.855 33.1108 24.715 32.8808 24.755C32.9108 24.815 33.0208 24.775 33.0708 24.805C32.5308 24.835 31.9708 24.775 31.5408 24.855C31.3308 24.785 31.0308 24.765 30.7908 24.785C30.7408 24.785 30.7908 24.835 30.7608 24.835C30.5908 24.835 30.5808 24.805 30.4308 24.815C30.4508 24.695 30.5808 24.715 30.6908 24.705C30.5708 24.695 30.3308 24.645 30.3308 24.705C30.0708 24.705 29.8708 24.725 29.5808 24.725C29.5508 24.755 29.4908 24.755 29.4808 24.815C29.3708 24.815 29.2608 24.815 29.1908 24.855C29.2108 24.895 29.2908 24.855 29.3308 24.875C29.2508 24.945 29.0208 24.925 28.9808 24.825C28.7208 24.825 28.4408 24.805 28.2308 24.875C28.0208 24.695 27.7508 24.835 27.4608 24.805C27.6508 24.845 27.3508 24.855 27.3308 24.855C27.1708 24.875 27.0108 24.915 26.8708 24.945C26.6008 24.995 26.3808 24.945 26.1908 24.965C25.7308 25.025 25.2708 24.965 24.8908 24.875C24.8508 24.875 24.8308 24.905 24.7908 24.915C24.7908 24.895 24.8108 24.905 24.8208 24.895C24.7008 24.795 24.5508 24.595 24.6908 24.425C24.6808 24.335 24.6108 24.275 24.5608 24.195C24.6508 23.955 24.6008 23.645 24.7308 23.445C24.6508 23.275 24.7308 23.055 24.7308 22.845C24.7308 22.615 24.6508 22.365 24.8008 22.235C24.8508 21.525 25.7008 21.795 26.1408 21.845C26.4008 21.735 26.6708 21.895 26.9608 21.865C27.0008 21.865 27.0108 21.815 27.0508 21.815C27.4608 21.865 27.8308 21.775 28.1908 21.775C27.9608 21.735 27.8608 21.755 27.6008 21.735C27.4908 21.725 27.6508 21.715 27.6908 21.715C28.5008 21.665 29.5408 21.635 30.5808 21.605C30.6908 21.605 30.8308 21.665 30.8808 21.585C31.0408 21.615 31.1408 21.605 31.2808 21.585C31.2808 21.555 31.2008 21.555 31.2108 21.585C31.3308 21.475 31.6408 21.565 31.8508 21.515C31.6108 21.395 31.0508 21.505 30.7808 21.465C31.2608 21.415 31.6708 21.465 32.1108 21.375C32.1108 21.415 32.1808 21.375 32.1508 21.425C32.3908 21.405 32.6008 21.425 32.8008 21.425C32.9408 21.425 33.0908 21.335 33.2208 21.425C34.0808 21.455 34.8208 21.465 35.5308 21.605C35.4908 21.655 35.4608 21.555 35.4108 21.605C35.4608 21.635 35.5208 21.635 35.5508 21.675C35.6208 21.605 35.9508 21.665 36.0008 21.835C35.8908 21.805 35.8108 21.745 35.6808 21.745C35.7108 21.795 35.7908 21.765 35.8008 21.835C35.7308 21.855 35.6108 21.815 35.5308 21.795C35.5108 21.795 35.5308 21.825 35.5408 21.835C35.3608 21.835 35.1508 21.695 34.9508 21.785C35.0308 21.815 35.1608 21.755 35.2208 21.835C35.2008 21.865 35.1108 21.815 35.0508 21.835C35.1308 21.885 35.1808 21.875 35.2708 21.885C35.2008 21.815 35.3308 21.885 35.3908 21.865C35.2408 21.915 35.0808 21.935 35.1708 22.075C35.3808 22.105 35.4108 22.085 35.5508 22.095C35.5208 22.055 35.5008 22.095 35.5208 22.025H35.4508C35.5308 22.025 35.5808 21.935 35.6808 21.915C35.6808 21.935 35.6408 21.925 35.6208 21.935C35.6208 21.995 35.6708 22.015 35.7208 22.025C35.7208 22.075 35.6508 22.045 35.6608 22.115C35.6608 22.165 35.6908 22.095 35.7208 22.115C35.7208 22.175 35.6508 22.125 35.6508 22.165C35.7108 22.165 35.7808 22.215 35.9008 22.205C35.9008 22.225 35.8808 22.245 35.8608 22.245C35.9008 22.295 35.9808 22.245 36.0208 22.245C36.0208 22.335 36.0908 22.315 36.0908 22.385C36.0008 22.315 35.9808 22.425 35.9508 22.335C35.8908 22.455 35.7508 22.385 35.6208 22.425C35.6908 22.455 35.7908 22.445 35.8708 22.465C35.8708 22.485 35.8408 22.495 35.8108 22.505C35.8108 22.525 35.8708 22.565 35.8508 22.505C35.8908 22.545 35.8108 22.565 35.7908 22.595C35.8108 22.595 35.8308 22.595 35.8208 22.685C35.7508 22.705 35.6308 22.595 35.5508 22.685C35.5308 22.665 35.5108 22.655 35.4908 22.635C35.4408 22.655 35.4108 22.705 35.3308 22.685C35.4208 22.655 35.3008 22.645 35.2908 22.575C35.2908 22.635 35.1108 22.595 35.0308 22.625C35.1008 22.655 35.2608 22.645 35.3208 22.645C35.3108 22.665 35.2908 22.675 35.2808 22.675C35.4108 22.705 35.5708 22.725 35.7008 22.655C35.7008 22.715 35.7708 22.705 35.8008 22.725C35.8508 22.725 35.8408 22.635 35.9008 22.635C35.9008 22.755 35.8808 22.775 35.7808 22.795C35.8908 22.815 36.0608 22.755 36.1008 22.975C36.0008 22.855 35.8708 22.825 35.7108 22.855C35.7708 22.905 35.9108 22.835 35.9608 22.905C35.9208 22.905 35.9208 22.935 35.8908 22.955C35.9308 23.015 35.9008 22.985 35.9608 23.025C35.9308 23.065 35.8908 22.985 35.8308 23.005C35.8108 23.055 35.9208 23.045 35.8408 23.055C35.8408 23.085 35.8908 23.115 35.9008 23.075C35.9008 23.095 35.8408 23.165 35.8608 23.235C35.7808 23.255 35.8208 23.225 35.7308 23.255C35.7608 23.355 35.8608 23.225 35.9008 23.275C35.8908 23.235 35.9608 23.165 35.8908 23.155C35.9308 23.075 35.9708 23.155 36.0108 23.205C36.0008 23.255 35.9608 23.195 35.9408 23.205C35.9008 23.345 36.1108 23.515 36.0008 23.595C35.9908 23.645 36.0308 23.625 36.0408 23.645C35.9708 23.715 35.8808 23.665 35.7908 23.715C35.8208 23.745 35.9508 23.745 35.9808 23.715C36.0308 23.735 35.9708 23.765 35.9408 23.745C35.9708 23.865 36.1708 23.755 36.2108 23.785C36.2208 23.835 36.1008 23.865 36.0808 23.925C36.0608 23.905 36.0508 23.875 36.0108 23.885C36.0608 23.845 35.9908 23.865 36.0208 23.815C35.9608 23.895 35.9108 23.885 35.8508 23.955C35.9208 24.035 36.0108 24.005 36.1008 24.095C36.1808 24.055 36.2108 24.055 36.2908 24.095C36.2908 24.145 36.2008 24.185 36.2508 24.235L36.2408 24.205ZM31.1108 24.675C31.0908 24.725 30.9608 24.655 30.9408 24.715C31.4708 24.725 32.1008 24.835 32.5708 24.715C32.5108 24.705 32.4208 24.735 32.3808 24.695C32.4008 24.695 32.4108 24.675 32.4208 24.665C32.2308 24.695 31.7908 24.635 31.5408 24.695C31.5608 24.695 31.5808 24.695 31.5808 24.675C31.4508 24.675 31.1208 24.605 31.1008 24.675H31.1108ZM35.9808 23.505V23.395C35.7508 23.365 35.4608 23.325 35.2108 23.395C35.4308 23.405 35.6008 23.415 35.7408 23.445C35.7308 23.475 35.7708 23.465 35.7108 23.495C35.8308 23.525 35.8608 23.455 35.9708 23.495L35.9808 23.505ZM35.6208 22.545C35.5308 22.545 35.3808 22.465 35.2708 22.525C35.3208 22.525 35.4608 22.505 35.3908 22.565C35.4508 22.605 35.5608 22.565 35.6208 22.545ZM26.7808 21.895C26.7808 21.895 26.8008 21.925 26.7908 21.965C26.8808 21.985 26.9608 22.015 27.0808 22.005C27.0408 21.905 26.8908 21.805 26.7808 21.895ZM27.7308 21.935C27.7308 21.855 27.5308 21.855 27.5308 21.935C27.6108 21.965 27.6408 21.935 27.7308 21.935ZM30.6908 21.845C30.6908 21.845 30.6708 21.855 30.6808 21.825C30.6308 21.885 30.5608 21.825 30.4908 21.865C30.5208 21.885 30.4708 21.865 30.4608 21.905C30.4408 21.885 30.4308 21.905 30.3908 21.905C30.2708 21.935 30.6708 21.925 30.6908 21.905C30.6908 21.905 30.7008 21.925 30.7008 21.905C30.6508 21.905 30.7408 21.855 30.6908 21.855V21.845ZM31.4808 21.825C31.6408 21.805 31.2408 21.795 31.4408 21.805C31.2308 21.795 30.8908 21.805 30.7208 21.855C30.9908 21.825 31.2208 21.855 31.4908 21.815L31.4808 21.825ZM31.1808 21.705C31.1108 21.675 31.1008 21.725 31.0408 21.675C30.3708 21.805 29.8808 21.675 29.2808 21.695C29.8408 21.885 30.5608 21.755 31.1908 21.715L31.1808 21.705ZM30.3108 21.685C30.3108 21.685 30.4308 21.705 30.4508 21.665C30.4108 21.675 30.3308 21.645 30.3108 21.685ZM32.1608 21.435C32.1808 21.505 32.2608 21.495 32.3208 21.475C32.2708 21.465 32.2308 21.425 32.1608 21.435ZM30.0908 24.765C30.0008 24.825 29.9108 24.795 29.8308 24.785C29.7708 24.765 29.9608 24.765 29.8608 24.745C29.9008 24.725 30.0208 24.755 30.0908 24.765ZM35.7408 24.675C35.7408 24.675 35.7608 24.715 35.7808 24.785C35.7508 24.765 35.7108 24.765 35.6808 24.745C35.7008 24.715 35.7308 24.705 35.7408 24.655C35.7608 24.655 35.7408 24.675 35.7408 24.675Z" fill="#124936"/>
</svg>
