<svg width="368" height="137" viewBox="0 0 368 137" fill="none" xmlns="http://www.w3.org/2000/svg">
<path fill-rule="evenodd" clip-rule="evenodd" d="M250.593 99.526C249.816 102.787 248.708 107.437 247.666 110.726C248.918 106.866 249.975 102.844 251.1 97.4127C250.955 98.0057 250.784 98.7238 250.593 99.526ZM162.231 114.488C161.921 113.783 161.703 113.252 161.623 113.002C162.3 114.564 163.38 116.623 164.402 118.326C164.763 118.916 165.118 119.459 165.433 119.939C165.569 120.147 165.697 120.343 165.815 120.526C166.24 121.09 166.539 121.524 166.654 121.741C165.689 120.537 164.448 118.662 163.472 116.905C163.139 116.291 162.838 115.693 162.571 115.16C162.451 114.921 162.338 114.696 162.231 114.488ZM224.26 91.3073C224.541 93.5026 224.893 96.2582 224.981 97.3477C224.935 97.0096 224.883 96.6292 224.827 96.2204C224.502 93.8501 224.047 90.522 223.958 88.9132C224.025 89.4723 224.136 90.3348 224.26 91.3073ZM270.432 4.15609C270.661 3.82001 270.857 3.58151 270.96 3.48393C270.236 4.47049 269.972 4.93667 269.685 5.45705L269.676 5.47311C269.392 5.9877 269.12 6.48148 268.881 6.99651C268.341 8.05895 267.859 9.26233 267.204 11.1162C267.284 10.8018 267.824 9.16476 268.582 7.48436C268.95 6.64959 269.409 5.79313 269.811 5.11013C269.867 5.00497 269.935 4.90379 270.001 4.8066C270.044 4.74348 270.085 4.68203 270.122 4.62227C270.169 4.55005 270.215 4.48158 270.259 4.41609C270.32 4.3243 270.378 4.23835 270.432 4.15609ZM258.041 58.3741C258.031 58.4127 258.023 58.4451 258.015 58.4709H258.027L258.041 58.3741ZM258.041 58.3741L258.07 58.1701C258.811 53.1011 260.043 44.6725 260.921 39.9323C260.771 40.8841 260.594 41.973 260.411 43.1038C259.894 46.2878 259.324 49.8045 259.129 51.5325C259.29 50.6218 259.439 49.787 259.566 49.2233C259.458 49.8481 259.323 50.7574 259.19 51.6534C258.981 53.0582 258.777 54.4303 258.693 54.6222C258.731 54.3476 258.776 54.0395 258.82 53.7395C258.923 53.0445 259.019 52.393 259.003 52.3022C258.883 53.0159 258.733 54.0174 258.585 55.0095C258.369 56.4623 258.155 57.8949 258.041 58.3741ZM225.566 103.718C225.769 104.956 225.941 106.011 225.991 106.465C225.578 104.199 224.877 99.9821 224.831 98.9088C224.993 100.216 225.305 102.12 225.566 103.718ZM216.043 86.8462C216.286 88.9805 216.523 91.0622 216.584 92.0029C216.484 91.0741 216.353 89.9418 216.219 88.7804C215.937 86.336 215.639 83.7633 215.585 82.6903C215.703 83.8584 215.874 85.365 216.043 86.8462ZM282.222 18.1163C281.989 17.3841 281.808 16.8184 281.746 16.526C282.4 18.3256 283.262 21.0902 283.457 22.3477C283.079 20.8025 282.586 19.2573 282.222 18.1163ZM262.274 85.8286C261.725 88.8912 261.013 92.855 260.611 94.4097C260.711 93.8846 260.883 92.9471 261.083 91.8476C261.616 88.929 262.357 84.8687 262.541 84.349C262.458 84.8045 262.369 85.3033 262.274 85.8286ZM254.454 118.087C253.742 119.995 253.042 121.632 252.662 122.283V122.272C253.629 120.422 254.966 116.436 255.78 114.008C256.049 113.205 256.261 112.572 256.384 112.244C255.867 114 255.155 116.179 254.454 118.087ZM295.2 62.9044C294.249 57.9809 293.221 52.8931 292.267 48.2692C292.301 48.4774 292.336 48.6821 292.37 48.8809C292.481 49.5414 292.582 50.1368 292.635 50.5784C292.083 47.7055 290.395 39.0867 289.499 35.3031L289.645 36.0247C290.055 38.0477 290.657 41.0208 291.187 43.6183C291.332 44.3564 291.468 45.0642 291.592 45.711C291.715 46.3468 291.826 46.9237 291.922 47.4128C292.106 48.3993 292.209 49.0281 292.175 49.0715C292.287 49.3018 292.597 50.6809 292.836 51.7446C293.137 53.0844 293.325 53.9238 292.864 51.3373C293.488 54.3772 293.748 55.9526 294.006 57.5169C294.124 58.2288 294.241 58.9384 294.392 59.7827C294.526 60.2667 294.688 60.9776 294.852 61.6923C294.941 62.0822 295.03 62.4732 295.116 62.8291C295.118 62.8487 295.121 62.8684 295.124 62.8881C295.149 62.8926 295.174 62.8982 295.2 62.9044ZM296.752 62.4746C295.504 56.1976 294.307 49.8976 293.232 44.1495C293.895 47.4545 294.505 50.5227 295.077 53.4004C295.727 56.6741 296.328 59.7012 296.904 62.5494C296.852 62.5093 296.801 62.4855 296.752 62.4746ZM299.813 61.4919C299.218 58.5595 298.631 55.6179 298.043 52.6681C296.875 46.8085 295.7 40.9164 294.438 34.9995C293.404 30.2077 292.324 25.3941 291.038 20.5698C290.395 18.1522 289.683 15.7346 288.856 13.2953C288.006 10.856 287.098 8.40587 285.674 5.86902L285.088 4.90414C285.007 4.79108 284.939 4.6866 284.868 4.57792C284.728 4.36355 284.578 4.1328 284.295 3.78749C283.595 2.8443 282.756 2.0312 281.837 1.3482C279.977 0.058093 277.53 -0.375558 275.382 0.394173C274.302 0.708569 273.349 1.36989 272.488 2.10709C272.22 2.3331 271.987 2.60395 271.754 2.87464C271.607 3.04543 271.46 3.21615 271.305 3.37552C271.109 3.59235 270.914 3.80917 270.765 4.04768L270.363 4.66563C269.524 5.99911 268.915 7.28922 268.387 8.54681C266.343 13.5988 265.24 18.5099 264.149 23.4536C262.201 32.6975 260.787 41.9415 259.369 51.2122C259.274 51.8356 259.179 52.4591 259.083 53.0828C258.095 58.4194 257.509 62.3773 256.873 66.6659C256.312 70.4535 255.713 74.499 254.764 79.98C254.812 79.2739 255.141 77.2701 255.487 75.1597C255.805 73.2196 256.138 71.1895 256.281 69.9951C255.132 77.107 253.926 84.3056 252.536 91.4067C251.135 98.4968 249.561 105.522 247.482 112.07C246.437 115.333 245.265 118.499 243.83 121.296C243.117 122.684 242.348 124.017 241.498 125.09C240.659 126.175 239.74 127.02 238.994 127.421C238.666 127.618 238.39 127.685 238.128 127.749C238.087 127.759 238.046 127.769 238.006 127.779C237.845 127.779 237.73 127.779 237.535 127.79C237.433 127.772 237.328 127.765 237.225 127.758C237.085 127.749 236.948 127.741 236.823 127.703C235.916 127.53 235.112 127.15 234.296 126.511C232.665 125.221 231.31 122.911 230.299 120.57C228.139 115.908 226.635 109.349 225.544 102.508C224.561 96.3277 223.858 89.866 223.207 83.891C223.135 83.2315 223.064 82.578 222.994 81.9314C222.831 80.4004 222.889 80.6163 222.939 80.803C222.977 80.9467 223.011 81.0731 222.936 80.3702C222.408 75.7735 222.086 73.3993 221.776 71.1226C221.736 70.845 221.696 70.5689 221.656 70.2902C221.365 68.272 221.055 66.119 220.329 62.3087C220.329 62.754 220.522 64.072 220.785 65.869C220.862 66.3905 220.944 66.9524 221.029 67.545C221.42 70.1794 221.845 73.4318 222.212 76.4999C221.822 73.3776 221.19 68.5749 220.432 64.4552C219.917 61.4835 219.264 58.8691 218.942 57.5799C218.818 57.0865 218.744 56.7873 218.744 56.7363C218.204 54.9041 217.584 53.0936 216.699 51.2939C216.251 50.3941 215.746 49.4943 215.079 48.5836C214.425 47.6838 213.632 46.784 212.53 45.9817C211.461 45.1903 210.06 44.4965 208.544 44.258C207.062 44.0303 205.58 44.0628 204.11 44.5398C202.674 44.9952 201.411 45.7866 200.481 46.6539C199.573 47.5103 198.838 48.4318 198.31 49.3208C197.195 51.1205 196.529 52.8659 195.966 54.6114C195.415 56.3568 195.002 58.1023 194.657 59.8694C193.956 63.4145 193.497 67.0788 193.095 71.0251C192.992 71.7329 192.886 72.7119 192.785 73.648C192.636 75.02 192.497 76.3001 192.394 76.4999C192.255 78.1988 192.121 79.9213 191.99 81.6023C191.678 85.6067 191.384 89.375 191.085 92.0246C191.085 91.4076 191.225 89.7265 191.373 87.9576C191.482 86.6494 191.596 85.2933 191.659 84.2839C191.463 86.0421 191.212 88.9556 190.953 91.9508C190.879 92.8156 190.803 93.6872 190.729 94.5398C190.609 95.9665 190.483 97.3417 190.373 98.5521C190.189 100.579 190.047 102.144 190.04 102.714C189.592 106.162 189.029 109.631 188.259 112.959C187.49 116.277 186.49 119.496 185.089 122.153C183.699 124.819 181.896 126.771 180.081 127.356C179.151 127.682 178.232 127.801 177.037 127.682C175.797 127.595 174.682 127.345 173.66 126.988C171.535 126.381 169.433 125.036 167.538 122.987C165.631 120.949 163.966 118.293 162.473 115.333C160.55 111.531 158.923 107.268 157.211 102.783C156.288 100.367 155.341 97.8857 154.31 95.3772C156.104 99.7238 155.587 98.3593 154.547 95.7215C153.49 93.0003 151.63 88.8915 151.251 88.2518C150.274 86.2137 149.08 84.1755 147.782 82.1807C146.369 80.2076 144.864 78.2345 142.889 76.5107C142.578 76.1952 142.207 75.9161 141.837 75.6374C141.672 75.5139 141.508 75.3905 141.349 75.264C141.291 75.2194 141.232 75.1747 141.174 75.13C140.705 74.7724 140.237 74.4148 139.695 74.1257C139.11 73.7787 138.524 73.4427 137.927 73.1174C137.611 72.9873 137.295 72.8545 136.979 72.7217C136.663 72.5889 136.347 72.4561 136.031 72.326C135.503 72.0859 134.941 71.9401 134.381 71.795C134.284 71.7698 134.187 71.7446 134.09 71.7189C133.882 71.6706 133.673 71.6146 133.465 71.5587C133.019 71.4387 132.572 71.3188 132.126 71.2744C131.99 71.2573 131.852 71.2399 131.714 71.2223C130.539 71.0732 129.325 70.9189 128.359 70.9383C126.222 70.8408 123.994 70.96 121.765 71.3178C119.537 71.6647 117.274 72.4128 115.391 73.3559C113.734 74.1711 112.349 75.0443 111.09 75.8378C110.909 75.9519 110.731 76.0643 110.555 76.1747C109.154 77.0745 107.89 77.8442 106.615 78.5706C101.573 81.4002 96.4153 83.1022 91.5222 84.3381C85.4804 85.8668 79.1745 86.9184 72.8686 87.7423C66.5627 88.5771 60.2567 89.1625 54.0541 89.5962C41.649 90.496 29.7033 90.8754 18.9063 91.0706C17.7462 91.0651 16.8904 91.0597 16.0347 91.0543C15.179 91.0489 14.3232 91.0435 13.1631 91.038C13.1817 91.0642 13.8264 91.0623 14.4066 91.0606C14.5467 91.0602 14.683 91.0597 14.8058 91.0597C8.09781 91.3199 -0.52829 91.656 7.40869 92.0897C6.8631 92.2286 4.69809 92.3306 2.33167 92.4421C1.55948 92.4784 0.765839 92.5158 0 92.5558C2.17786 92.7899 2.948 93.0463 3.71149 93.3005C4.71573 93.6348 5.70847 93.9652 9.87811 94.2362C6.9996 94.4734 7.95303 94.7726 8.91257 95.0736C9.40036 95.2266 9.88971 95.3802 9.87811 95.5263C9.86942 95.6466 9.58261 95.7737 9.29593 95.9008C8.44547 96.2779 7.5961 96.6544 14.0133 96.849C15.449 97.5753 28.4169 97.9006 44.1875 97.1634C52.0671 96.8381 60.6588 96.1768 68.8255 95.2228C76.9922 94.2796 84.7569 92.957 90.9824 91.4717C94.658 90.6369 98.368 89.6287 102.044 88.2518C105.708 86.8858 109.372 85.097 112.737 82.9721C113.404 82.5612 114.056 82.1401 114.697 81.7269C115.678 81.0936 116.63 80.4788 117.562 79.9474C119.112 79.0584 120.617 78.4297 122.305 78.0502C123.206 77.8405 124.157 77.7153 125.142 77.6477C124.235 77.6972 123.355 77.7759 122.535 77.9143C123.596 77.6908 123.477 77.6957 123.241 77.7056C123.116 77.7108 122.959 77.7173 122.926 77.6924C124.051 77.4865 125.211 77.378 126.406 77.3347C126.861 77.301 127.329 77.3131 127.801 77.3252C127.937 77.3288 128.073 77.3323 128.209 77.3347H129.128C129.415 77.378 129.691 77.4106 129.978 77.4323C132.264 77.6274 134.596 78.3212 136.881 79.9366C136.663 79.7848 136.353 79.6222 135.985 79.4596C135.825 79.3841 135.657 79.2984 135.479 79.2077C135.247 79.09 134.999 78.9641 134.733 78.8416C134.24 78.679 133.711 78.4839 133.148 78.267C132.766 78.175 132.364 78.083 131.948 77.9879C131.728 77.9374 131.503 77.886 131.276 77.8334C130.685 77.7767 130.077 77.7117 129.459 77.6457L129.33 77.632L130.506 77.7683L131.161 77.8442C131.296 77.8711 131.423 77.9063 131.551 77.9421C131.63 77.964 131.71 77.9862 131.793 78.0068L133.056 78.3321C134.633 78.9581 135.027 79.2197 135.982 79.8539C136.168 79.9775 136.375 80.1153 136.617 80.2727C138.627 81.6603 140.35 83.5359 141.809 85.6391C143.256 87.7423 144.485 90.019 145.611 92.3498C147.42 96.1922 148.928 100.151 150.432 104.101C150.762 104.966 151.091 105.83 151.423 106.693L151.567 107.063C153.391 111.742 155.212 116.416 157.786 120.895C159.107 123.182 160.6 125.437 162.53 127.486C164.437 129.525 166.757 131.378 169.491 132.636C166.033 131.097 163.69 128.907 161.852 126.825C160.038 124.711 158.602 122.608 157.396 120.407C154.915 116.016 153.008 111.257 150.458 104.666C148.356 99.2449 151.297 107.051 152.135 109.1L152.151 109.139C154.225 114.299 156.429 119.781 160.244 125.004C162.162 127.595 164.609 130.132 167.837 131.964L169.054 132.625C169.312 132.76 169.587 132.866 169.861 132.971C170.027 133.034 170.192 133.098 170.352 133.167L171.685 133.677C172.029 133.774 172.374 133.854 172.718 133.933C172.833 133.959 172.948 133.986 173.063 134.013L174.453 134.327L175.866 134.468L177.278 134.598L178.817 134.577C180.896 134.457 183.044 133.818 184.848 132.744C186.663 131.682 188.121 130.283 189.281 128.798C191.602 125.817 192.934 122.564 194.002 119.334C196.07 112.84 197 106.238 197.758 99.581C198.313 94.5624 198.71 89.5006 199.108 84.4282C199.238 82.7728 199.369 81.1162 199.504 79.4596C199.537 79.0728 199.57 78.6855 199.603 78.298C200.142 71.9616 200.689 65.5381 202.031 59.4899C202.399 57.8963 202.835 56.346 203.398 54.9258C203.938 53.5056 204.685 52.2371 205.42 51.5216C205.787 51.1855 206.109 51.0121 206.396 50.9253C206.672 50.8278 207.097 50.8169 207.384 50.9037C207.682 50.9795 208.004 51.1422 208.383 51.4566C208.762 51.7818 209.153 52.2913 209.532 52.8334C211.013 55.2185 211.978 58.5142 212.713 61.7666C213.448 65.0515 213.977 68.4665 214.448 71.9032C215.229 77.6599 216.125 85.032 216.309 88.0892C216.418 88.9857 216.522 89.8477 216.623 90.6813C217.498 97.912 218.115 103.006 219.433 109.956C219.426 110.155 219.155 108.818 218.94 107.648C219.476 111.05 220.455 116.087 222.511 121.556C223.775 124.733 225.371 128.169 228.404 131.097C229.908 132.538 231.872 133.774 234.043 134.403C234.408 134.523 234.785 134.596 235.16 134.669C235.328 134.702 235.496 134.735 235.663 134.772C236.188 134.845 236.712 134.889 237.226 134.931L237.271 134.934C237.868 134.934 238.465 134.902 239.051 134.858L239.051 134.858C239.515 134.771 239.978 134.683 240.423 134.573C239.898 134.711 239.347 134.85 238.764 134.913C238.693 134.917 238.621 134.922 238.549 134.927C237.914 134.968 237.217 135.013 236.651 134.945C235.318 134.88 233.859 134.533 232.47 133.948C229.644 132.777 227.347 130.554 225.727 128.18C222.454 123.356 220.88 117.751 219.594 112.189C218.365 106.617 217.584 101.023 216.952 95.9275C216.668 93.472 216.394 91.1263 216.141 88.952C215.872 86.6431 215.626 84.5275 215.413 82.6794C215.46 83.1273 215.508 83.5744 215.555 84.0208C216.182 89.917 216.795 95.6841 217.606 101.348C218.502 107.441 219.559 113.436 221.5 119.399C222.511 122.369 223.706 125.362 225.681 128.245C226.669 129.676 227.887 131.097 229.472 132.322C231.045 133.536 233.044 134.512 235.18 134.913C236.26 135.119 237.236 135.216 238.523 135.119C239.74 135.032 240.935 134.707 241.98 134.251C244.094 133.319 245.61 131.953 246.839 130.598C249.286 127.844 250.733 124.95 252.088 122.044C252.012 122.156 252.249 121.582 252.51 120.95C252.882 120.048 253.303 119.027 252.938 119.702C255.454 113.263 256.981 107.235 258.302 101.511C259.612 95.7757 260.645 90.3334 261.599 84.9886C261.7 84.4174 261.802 83.8455 261.905 83.2731C263.152 76.2838 264.412 69.2234 265.24 62.5797C265.523 60.7203 265.802 58.8727 266.08 57.0371C267.522 47.4858 268.916 38.2609 270.592 29.3946C271.615 24.1257 272.717 18.9436 274.245 14.1626C274.624 12.9592 275.061 11.8209 275.509 10.7259C275.572 10.5893 275.634 10.4505 275.697 10.3116C275.873 9.92124 276.049 9.53026 276.244 9.18644C276.286 9.11062 276.328 9.03118 276.37 8.95094C276.455 8.79027 276.542 8.62637 276.634 8.48176L276.898 8.06979C277.059 7.84213 277.266 7.6253 277.565 7.58194C277.863 7.53857 278.127 7.73371 278.3 7.9397L278.438 8.10232L278.61 8.36251C278.633 8.39863 278.656 8.43355 278.679 8.46847C278.725 8.53835 278.771 8.60823 278.817 8.68775C279.092 9.13224 279.368 9.60925 279.621 10.1188C280.137 11.1379 280.597 12.222 281.033 13.3387C281.895 15.5828 282.63 17.9354 283.308 20.2987C284.652 25.0364 285.777 29.8391 286.834 34.6309C288.22 40.9526 289.497 47.2554 290.769 53.5362C291.426 56.7772 292.081 60.0122 292.749 63.241C292.609 62.2148 292.414 61.3692 292.205 60.46C291.985 59.5059 291.749 58.4816 291.543 57.1049C291.739 57.994 291.954 59.0071 292.171 60.0295C292.539 61.7619 292.913 63.5207 293.209 64.748C293.496 66.6127 294.541 71.9249 295.701 77.0745C296.238 79.4809 296.807 81.8519 297.312 83.82C297.532 84.7235 297.78 85.6375 298.032 86.5697C298.364 87.7938 298.704 89.0493 299.001 90.3536C299.076 90.6305 299.083 90.7864 299.091 90.9435C299.097 91.0768 299.103 91.2111 299.151 91.421C299.545 92.794 299.915 94.1287 300.276 95.4325C301.208 98.7937 302.083 101.949 303.156 105.026C302.175 102.421 301.78 101.135 300.858 98.1293L300.825 98.022C300.421 96.7476 300.94 98.5993 301.09 99.0677C302.51 103.915 304.333 109.405 306.895 115.091C308.188 117.934 309.677 120.82 311.5 123.663C312.412 125.079 313.416 126.485 314.57 127.846C315.724 129.208 316.994 130.526 318.529 131.724C319.507 132.528 320.93 133.267 321.912 133.776C322.193 133.922 322.438 134.049 322.626 134.153C323.092 134.344 323.585 134.478 324.028 134.598C324.167 134.636 324.3 134.672 324.426 134.709C324.65 134.754 324.866 134.799 325.077 134.843C325.324 134.895 325.563 134.945 325.8 134.992C326.019 135.041 326.238 135.087 326.458 135.133C326.677 135.18 326.896 135.226 327.116 135.275C327.43 135.336 327.756 135.381 328.102 135.428C328.25 135.449 328.402 135.47 328.558 135.493C328.6 135.532 328.299 135.511 328.009 135.474C328.892 135.661 330.193 135.861 331.628 135.852C332.055 135.852 332.505 135.863 332.944 135.874C333.163 135.863 333.385 135.85 333.607 135.836C333.83 135.822 334.052 135.809 334.271 135.798C334.506 135.786 334.741 135.771 334.972 135.757C335.173 135.744 335.371 135.732 335.564 135.722C335.891 135.679 336.211 135.643 336.518 135.608C336.601 135.598 336.683 135.589 336.764 135.58C335.079 136.016 332.067 136.179 329.101 135.841C328.881 135.812 328.66 135.786 328.44 135.76C327.919 135.698 327.399 135.636 326.896 135.536C326.468 135.445 326.048 135.354 325.639 135.265C325.364 135.205 325.095 135.147 324.83 135.09C324.75 135.073 324.666 135.054 324.582 135.035C324.499 135.016 324.415 134.997 324.334 134.981C324.206 134.948 324.058 134.904 323.915 134.861C323.865 134.846 323.816 134.831 323.769 134.817C323.665 134.784 323.56 134.752 323.456 134.72C323.191 134.639 322.931 134.56 322.707 134.458C322.566 134.401 322.428 134.344 322.291 134.288C322.114 134.216 321.941 134.144 321.772 134.077C321.655 134.017 321.54 133.961 321.428 133.907C321.283 133.836 321.143 133.768 321.01 133.697C321.43 133.922 321.85 134.145 322.314 134.327C322.764 134.534 323.238 134.709 323.734 134.85C324.118 134.979 324.426 135.048 324.724 135.115C324.829 135.139 324.933 135.162 325.038 135.188L326.238 135.449C327.023 135.645 327.831 135.743 328.639 135.841C328.718 135.851 328.796 135.861 328.875 135.871C329.593 135.96 330.311 136.049 331.04 136.059C334.236 136.223 337.445 135.918 340.596 135.112C340.552 135.093 340.712 135.046 340.884 134.994C341.12 134.924 341.379 134.847 341.173 134.828C344.6 133.826 347.266 132.421 349.609 130.918C350.171 130.569 350.722 130.211 351.273 129.853C351.549 129.674 351.825 129.495 352.102 129.317C352.875 128.739 353.649 128.162 354.272 127.498C358.738 123.674 362.051 119.6 364.925 115.646C367.775 111.681 370.141 107.749 372.334 103.915C372.154 104.085 372.076 104.265 371.99 104.46C371.9 104.666 371.803 104.889 371.572 105.135C371.674 104.92 371.802 104.68 371.929 104.442C372.105 104.113 372.28 103.787 372.38 103.534C372.98 102.858 375 99.4163 375 98.7954C374.709 99.2671 374.466 99.7068 374.212 100.165C373.892 100.745 373.554 101.354 373.084 102.096C373.115 101.955 373.249 101.715 373.381 101.479C373.545 101.184 373.706 100.895 373.661 100.811C373.284 101.315 372.774 102.223 372.333 103.007C372.193 103.255 372.061 103.49 371.942 103.697C371.792 103.904 371.872 103.675 371.965 103.512C371.543 104.186 371.135 104.915 370.716 105.665C369.942 107.049 369.128 108.505 368.11 109.819C368.298 109.484 368.549 109.101 368.804 108.71C369.24 108.044 369.69 107.357 369.864 106.856C369.768 106.957 369.597 107.245 369.393 107.587C369.181 107.943 368.934 108.358 368.698 108.686C369.004 108.052 369.279 107.602 369.633 107.021C369.76 106.813 369.897 106.589 370.049 106.333C369.868 106.806 370.052 106.483 370.313 106.025C370.485 105.723 370.689 105.364 370.845 105.135C370.691 105.349 370.535 105.568 370.381 105.783C369.477 107.051 368.671 108.181 368.987 107.194C369.874 105.709 370.266 105.085 370.697 104.399C370.911 104.059 371.135 103.702 371.434 103.218C371.4 103.328 371.348 103.432 371.307 103.512C371.236 103.653 371.203 103.717 371.388 103.599L370.914 104.362C371.163 103.962 371.408 103.662 371.678 103.331C371.96 102.986 372.268 102.609 372.634 102.052C372.578 102.068 372.47 102.237 372.359 102.413C372.312 102.488 372.264 102.564 372.219 102.63C372.161 102.466 372.38 102.031 372.703 101.475C372.651 101.46 372.543 101.602 372.435 101.743C372.307 101.91 372.181 102.077 372.149 101.976C372.123 101.89 372.199 101.805 372.297 101.694C372.374 101.608 372.464 101.506 372.53 101.377C372.492 101.305 372.356 101.518 372.222 101.726C372.112 101.897 372.005 102.064 371.953 102.074C372.058 101.896 372.165 101.708 372.28 101.504C372.58 100.97 372.94 100.331 373.5 99.5034C373.419 99.547 373.303 99.645 373.142 99.9064C373.251 99.5805 373.661 99.0384 373.976 98.6206C374.061 98.5078 374.14 98.4041 374.204 98.3161C374.087 98.3046 374.192 98.0907 374.297 97.8762C374.389 97.6863 374.483 97.4958 374.423 97.4447C374.195 97.9007 373.986 98.1676 373.829 98.3679C373.66 98.5837 373.552 98.7223 373.546 98.937C373.129 99.2393 372.649 99.9999 372.113 100.85C371.819 101.317 371.507 101.811 371.18 102.27C371.454 101.737 371.872 101.062 372.274 100.413C372.431 100.16 372.584 99.9123 372.726 99.6777C372.622 99.7539 372.461 99.9609 372.276 100.233C372.276 100.157 372.53 99.5797 372.565 99.7866C372.714 99.4467 372.475 99.7385 372.259 100.002C372.156 100.127 372.059 100.246 372.011 100.288L372.02 100.27C372.132 100.07 372.236 99.8846 372.034 99.8846C371.854 100.133 371.656 100.496 371.44 100.892C371.087 101.539 370.684 102.276 370.233 102.749C370.205 102.817 370.172 102.889 370.139 102.963C370.064 103.126 369.988 103.294 369.956 103.414C369.84 103.575 369.734 103.705 369.628 103.835C369.396 104.119 369.162 104.406 368.814 105.026C369.174 104.535 369.09 104.712 368.955 104.998C368.847 105.225 368.708 105.521 368.733 105.603C368.654 105.578 368.254 106.203 367.817 106.885C367.486 107.4 367.135 107.948 366.886 108.272C367.194 107.707 367.855 106.674 368.334 105.924C368.52 105.632 368.679 105.384 368.779 105.222C368.675 105.32 368.548 105.473 368.421 105.636L368.461 105.568C369.282 104.146 370.215 102.533 371.203 101.257C371.136 101.178 371.342 100.819 371.535 100.482C371.608 100.354 371.68 100.229 371.734 100.124C371.911 99.8637 372.021 99.7752 372.132 99.6869C372.252 99.5907 372.372 99.4948 372.576 99.1766C372.403 98.9479 372.161 99.2311 371.491 100.201C371.687 99.8515 371.943 99.4556 372.203 99.0554C372.801 98.1318 373.415 97.1851 373.327 96.7367C372.876 97.8477 372.022 99.2529 370.914 100.898C371.053 100.579 371.376 100.079 371.692 99.5897C372.036 99.0575 372.371 98.5388 372.449 98.2834C372.28 98.5497 372.188 98.6329 372.085 98.727C372.019 98.7868 371.948 98.8511 371.849 98.9697C371.902 98.7928 371.919 98.733 371.943 98.6763C371.977 98.5968 372.025 98.5233 372.207 98.1418C372.063 98.2661 371.957 98.4755 371.828 98.7288C371.709 98.9637 371.57 99.2365 371.364 99.5143C371.216 99.6162 371.43 99.2492 371.524 99.0897C371.59 98.9763 371.595 98.9679 371.364 99.3073C371.285 99.3354 371.52 98.8504 371.662 98.7188C371.632 98.7388 371.596 98.7663 371.556 98.7965C371.387 98.9244 371.154 99.1009 371.122 98.9588C370.864 99.329 370.789 99.4513 370.718 99.5664C370.637 99.6985 370.561 99.8213 370.222 100.299C370.235 100.048 370.536 99.6451 370.826 99.2576C371.052 98.9557 371.271 98.6628 371.341 98.4577C371.341 98.5334 371.44 98.4727 371.53 98.4166C371.674 98.3276 371.799 98.2503 371.48 98.7518C371.831 98.4943 371.968 98.0893 372.099 97.7007C372.123 97.629 372.147 97.5578 372.172 97.4883C372.061 97.5278 371.974 97.6992 371.88 97.8863C371.818 98.0082 371.754 98.1367 371.676 98.2399C371.429 98.344 371.531 97.9066 371.626 97.5028C371.739 97.0192 371.84 96.5838 371.318 97.1833C371.211 97.2123 371.308 97.0477 371.406 96.8831C371.454 96.8008 371.503 96.7185 371.526 96.6604C371.132 97.0512 370.803 97.5512 370.459 98.0719C370.219 98.4365 369.972 98.8113 369.691 99.1657C369.83 98.8172 370.707 97.4556 370.984 97.1833C371.272 96.6713 370.787 97.2704 370.614 97.5972C370.568 97.2474 371.645 95.8867 372.268 95.0988C372.422 94.9052 372.547 94.7462 372.623 94.6453C372.635 94.5293 372.304 94.8752 371.965 95.2285C371.7 95.5056 371.43 95.7873 371.318 95.8544C371.301 95.8931 371.287 95.9292 371.272 95.9654C371.209 96.1225 371.145 96.2818 370.845 96.6713C371.091 96.394 371.06 96.4607 371.018 96.5491C370.979 96.6308 370.932 96.7311 371.088 96.5951C370.753 96.8916 370.504 97.1991 370.239 97.526C370.047 97.7635 369.846 98.0113 369.599 98.2725C369.764 97.8357 370.04 97.3626 370.342 96.8462C370.589 96.4226 370.854 95.9699 371.088 95.484C371.757 94.6997 372.08 94.3185 372.749 93.4144C372.71 93.3776 372.52 93.5309 372.339 93.6754C372.099 93.8681 371.879 94.0451 372.064 93.735C371.901 93.9023 371.765 94.08 371.63 94.2554C371.433 94.513 371.239 94.7655 370.972 94.9721C370.611 95.6175 370.117 96.4034 369.589 97.2439C369.493 97.3963 369.396 97.5506 369.299 97.7061C369.26 97.7628 369.23 97.7951 369.197 97.8296C369.161 97.8679 369.123 97.909 369.068 97.9893C369.064 97.947 369.02 97.9435 368.977 97.94C368.886 97.9327 368.795 97.9254 369.068 97.5645C368.56 97.9349 368.052 99.1331 368.191 99.1657C368.036 99.4441 367.933 99.5792 367.828 99.7161C367.752 99.8149 367.676 99.9146 367.579 100.07C367.631 99.928 367.675 99.8007 367.716 99.6807C367.882 99.1922 368.007 98.8262 368.525 98.1091C368.492 98.0912 368.463 98.0793 368.437 98.0687C368.336 98.0278 368.285 98.007 368.248 97.7388C367.781 98.4403 367.661 98.5255 367.405 98.7055C367.352 98.7435 367.292 98.7858 367.221 98.839C367.025 99.2202 366.806 99.6341 366.529 100.103C366.459 100.201 366.407 100.253 366.354 100.306C366.301 100.359 366.246 100.413 366.171 100.516C366.086 100.543 366.132 100.433 366.178 100.321C366.227 100.205 366.277 100.086 366.183 100.113C363.944 103.926 361.647 107.618 359.085 111.148C356.523 114.666 353.73 117.999 350.602 120.951C349.951 121.368 349.463 121.775 349 122.159C348.798 122.327 348.601 122.491 348.398 122.65C348.274 122.754 348.147 122.86 348.017 122.969C347.806 123.144 347.587 123.327 347.359 123.522C346.966 123.816 346.528 124.121 346.008 124.469C346.08 124.324 346.424 124.085 346.789 123.832C347.133 123.593 347.497 123.341 347.67 123.141C345.235 124.97 342.558 126.528 339.857 127.454C337.168 128.413 334.479 128.761 332.182 128.641C331.04 128.718 329.655 128.641 328.212 128.423C327.99 128.377 327.752 128.331 327.512 128.285C327.016 128.188 326.512 128.091 326.123 127.988C325.661 127.857 325.177 127.661 324.727 127.389C324.511 127.271 324.562 127.259 324.604 127.249C324.637 127.241 324.665 127.234 324.565 127.182C324.507 127.146 324.452 127.112 324.399 127.08C323.24 126.371 323.117 126.296 322.003 125.265C321.957 125.602 322.961 126.463 323.849 127.051C322.903 126.55 320.987 124.84 321.068 124.665C319.129 122.607 317.883 120.668 316.174 117.814C316.133 117.695 316.066 117.547 315.998 117.397C315.86 117.093 315.72 116.783 315.782 116.703C315.182 115.635 314.582 114.459 314.316 113.675C314.415 113.78 314.573 114.105 314.74 114.447C314.867 114.706 314.998 114.975 315.113 115.167C314.79 114.241 313.612 111.845 313.243 111.551C311.973 108.708 310.75 105.625 310.081 103.229C309.176 101.57 308.569 99.4315 307.915 97.1267C307.675 96.2841 307.43 95.4192 307.161 94.5472C307.679 96.0861 307.319 94.7433 307.06 93.7748C306.961 93.4066 306.877 93.0924 306.861 93.0114C306.479 91.4965 306.144 89.9442 305.83 88.4907C305.765 88.1883 305.701 87.8903 305.637 87.5977C305.317 86.0605 304.984 84.6729 304.679 83.4039C304.346 82.0201 304.048 80.7772 303.837 79.6352C302.81 74.2106 301.667 68.7643 300.721 64.2547C300.686 64.0096 300.675 63.8272 300.663 63.6447C300.652 63.4623 300.64 63.2798 300.605 63.0347C300.579 63.0347 300.593 63.1641 300.606 63.2833C300.61 63.3188 300.614 63.3533 300.617 63.3833C300.386 62.68 300.077 61.8766 299.813 61.4919ZM372.064 93.735C372.069 93.7265 372.074 93.7177 372.08 93.7085L372.069 93.7303C372.067 93.7319 372.065 93.7335 372.064 93.735ZM371.662 98.7188C371.685 98.697 371.706 98.6849 371.722 98.6865C371.71 98.6881 371.689 98.7002 371.662 98.7188ZM328.009 135.474C327.734 135.439 327.469 135.389 327.519 135.362C327.663 135.397 327.828 135.435 328.009 135.474ZM298.498 88.0409C298.663 89.3932 299.29 90.9069 299.624 91.3448C299.398 90.4158 299.182 89.6665 298.973 88.9415C298.873 88.5953 298.775 88.2547 298.678 87.9027C298.647 87.9171 298.633 87.9612 298.622 87.9958C298.6 88.0658 298.59 88.0966 298.482 87.7611H298.475C298.53 87.9841 298.586 88.209 298.642 88.4361C298.599 88.3312 298.551 88.1987 298.498 88.0409ZM294.076 67.4594C293.751 65.9119 293.44 64.433 293.174 63.1651C292.979 62.0919 293.232 63.0892 293.404 63.9132C292.406 59.05 291.344 53.8723 290.256 48.5682C289.178 43.3133 288.075 37.9343 286.983 32.6144C287.483 34.7187 288.032 37.3931 288.564 39.9813C289.119 42.6869 289.656 45.2983 290.096 47.0658C289.996 46.3769 289.602 44.5014 289.162 42.4019C288.847 40.9002 288.508 39.2838 288.235 37.905C289.046 41.3303 289.542 43.7914 290.28 47.4535C290.399 48.0451 290.525 48.6682 290.659 49.3317C290.172 47.3328 290.442 48.6431 290.866 50.6962C291.182 52.2287 291.583 54.175 291.819 55.4678C291.483 53.5709 291.124 51.6071 290.794 49.798C289.779 44.2456 289.031 40.1496 290.027 43.911C291.422 50.7066 292.045 53.9086 292.667 57.1031C293.049 59.0661 293.43 61.0262 293.99 63.8156C293.857 63.3107 293.744 62.7892 293.659 62.402C293.517 61.75 293.458 61.4789 293.53 62.3087C293.446 61.8802 293.361 61.453 293.277 61.0258C293.128 60.2742 292.979 59.5225 292.83 58.7642C293.173 60.5253 293.421 62.0112 293.685 63.6002C293.789 64.2234 293.896 64.8625 294.012 65.5403C293.983 66.072 294.008 66.7234 294.076 67.4594ZM294.884 62.8904C293.921 58.2631 292.622 52.0173 291.865 47.5645C292.015 48.3061 292.237 49.4476 292.463 50.6091C293.033 53.5401 293.629 56.5984 293.151 53.679C293.68 56.0398 294.381 59.7785 294.957 62.877C294.932 62.8792 294.908 62.8835 294.884 62.8904ZM292.83 58.7642C292.811 58.6665 292.792 58.5688 292.772 58.4709C292.792 58.5695 292.811 58.6673 292.83 58.7642ZM218.94 107.648C218.767 106.709 218.631 105.877 218.698 106.032C218.767 106.517 218.847 107.058 218.94 107.648ZM126.787 77.5841L126.791 77.5841C127.593 77.5949 128.395 77.6058 129.186 77.6166L129.33 77.632L129.197 77.6166L127.75 77.584C127.427 77.5804 127.105 77.5801 126.787 77.5841ZM126.787 77.5841L126.785 77.584C126.784 77.5841 126.783 77.5841 126.782 77.5841C126.783 77.5841 126.785 77.5841 126.787 77.5841ZM125.142 77.6477C125.679 77.6108 126.227 77.5911 126.782 77.5841C126.23 77.5992 125.681 77.6183 125.142 77.6477ZM224.261 94.3478C224.474 96.0325 224.67 97.5824 224.705 98.1499L224.728 98.1608C224.705 98.5727 225.268 103.148 226.313 108.33C226.841 110.921 227.485 113.664 228.254 116.081C229.012 118.51 229.862 120.602 230.586 122.012C230.584 121.986 230.562 121.927 230.527 121.843C230.27 121.314 230.035 120.781 229.822 120.256C229.796 120.194 229.771 120.132 229.747 120.071C229.772 120.133 229.797 120.194 229.822 120.256C229.969 120.612 230.144 120.995 230.289 121.313C230.388 121.529 230.474 121.715 230.527 121.843C230.948 122.71 231.429 123.569 231.976 124.375C232.424 125.08 232.952 125.665 233.492 126.229C234.032 126.76 234.618 127.183 235.215 127.508C235.812 127.822 236.444 127.996 237.133 128.083C237.197 128.087 237.269 128.095 237.341 128.103C237.448 128.114 237.556 128.126 237.638 128.126C237.765 128.104 237.88 128.104 237.995 128.104C238.059 128.104 238.121 128.084 238.181 128.065C238.238 128.047 238.295 128.028 238.351 128.028C238.448 128.028 238.553 127.982 238.66 127.935C238.68 127.926 238.699 127.918 238.718 127.909C239.74 127.595 241.073 126.283 242.153 124.765C243.255 123.215 244.197 121.394 245.013 119.572C245.817 117.751 246.529 115.908 247.126 114.141C248.332 110.607 249.217 107.398 249.848 104.991C249.74 105.305 249.619 105.717 249.484 106.178C249.391 106.498 249.29 106.841 249.182 107.192C249.316 106.605 249.549 105.667 249.823 104.564C250.369 102.368 251.078 99.5171 251.491 97.4886C250.078 103.549 248.447 110.151 246 116.58C245.38 118.185 244.714 119.767 243.944 121.264C243.186 122.76 242.336 124.212 241.394 125.394C240.453 126.597 239.384 127.443 238.603 127.725C238.485 127.793 238.374 127.812 238.268 127.829C238.19 127.842 238.114 127.855 238.04 127.888C237.995 127.893 237.949 127.89 237.903 127.888C237.857 127.885 237.811 127.882 237.765 127.888C237.736 127.888 237.71 127.891 237.681 127.894C237.62 127.902 237.55 127.91 237.432 127.888C236.834 127.866 236.306 127.714 235.778 127.541C233.699 126.782 231.654 124.104 230.253 120.971C228.817 117.827 227.818 114.26 226.991 110.682C225.383 103.473 224.487 96.0576 223.66 88.9348C223.673 89.6975 223.982 92.1386 224.261 94.3478ZM152.823 109.539C152.703 109.3 152.44 108.766 152.147 108.07C151.745 107.105 151.239 105.836 150.745 104.557C150.582 104.125 150.42 103.693 150.263 103.275C149.956 102.456 149.668 101.687 149.424 101.055C149.08 100.101 148.861 99.4617 148.907 99.44C149.752 101.469 150.295 102.917 150.913 104.567C151.425 105.936 151.99 107.444 152.823 109.539ZM215.47 75.6651C215.516 75.4483 215.608 76.4349 215.608 76.4349C215.776 77.8608 215.75 77.3493 215.725 76.8766C215.703 76.4436 215.683 76.0432 215.815 77.1937C215.838 77.042 215.746 76.424 215.723 76.424C215.642 75.6651 215.011 70.0602 214.195 65.5285C213.403 60.986 212.369 57.5927 213.115 60.5415C213.381 61.6703 213.52 62.3733 213.628 62.9234C213.726 63.4195 213.8 63.7912 213.919 64.2384C213.913 64.4921 214.086 65.4699 214.174 65.9661C214.24 66.3393 214.258 66.4403 214.115 65.7562C214.238 66.5904 214.37 67.4504 214.503 68.3119C214.916 70.9884 215.331 73.6804 215.47 75.6651ZM221.776 117.361C222.683 120.309 223.947 123.464 222.419 119.225C220.156 112.168 219.157 105.414 218.204 98.6486C217.556 93.8844 217.039 89.104 216.508 84.1971C216.287 82.1476 216.063 80.076 215.826 77.9743C216 79.5331 216.185 81.3536 216.389 83.3568C217.376 93.0604 218.799 107.05 221.478 116.323C221.216 115.386 221.01 114.581 220.912 114.199C220.899 114.151 220.889 114.11 220.88 114.076C220.866 114.004 220.858 113.965 220.858 113.965C220.861 113.964 221.047 114.771 221.65 116.905C221.592 116.713 221.535 116.519 221.478 116.323C221.571 116.656 221.671 117.007 221.776 117.361ZM217.845 98.609C217.994 99.7318 218.141 100.844 218.479 102.866L218.502 102.855C217.625 97.0159 216.988 91.0383 216.346 85.0245C216.055 82.2956 215.763 79.5593 215.447 76.8251C214.93 72.4561 214.379 68.0654 213.552 63.8048C213.138 61.669 212.656 59.5658 212.036 57.571C211.726 56.5736 211.381 55.5979 210.979 54.6981C210.588 53.7874 210.129 52.931 209.624 52.2371C209.118 51.5433 208.567 51.0121 208.073 50.7519C207.613 50.4917 207.108 50.4158 206.568 50.4917C206.086 50.5676 205.649 50.7952 205.132 51.2831C204.616 51.7601 204.133 52.4865 203.72 53.2996C202.87 54.9258 202.284 56.888 201.801 58.8503C201.33 60.8234 200.986 62.8616 200.687 64.8889C199.773 71.5201 199.351 78.0941 198.948 84.3785C198.855 85.8306 198.763 87.2672 198.666 88.6855C198.814 86.84 198.952 85.0155 199.088 83.2114C199.553 77.0461 200 71.1184 200.791 65.3984C201.319 61.7232 201.974 58.0697 203.18 54.9149C203.766 53.3538 204.593 51.9227 205.431 51.2181C205.845 50.8603 206.189 50.7085 206.58 50.6326C207.005 50.5567 207.441 50.6109 207.797 50.7736C208.567 51.0771 209.578 52.1938 210.324 53.6573C211.082 55.1209 211.703 56.8121 212.208 58.5684C213.219 62.1027 213.885 65.9188 214.459 69.8434C215.195 74.9333 215.747 80.2273 216.326 85.7663C216.642 88.7925 216.966 91.8918 217.331 95.071C217.587 96.6562 217.716 97.6364 217.845 98.609ZM213.403 64.3252C213.322 63.2627 212.357 59.1539 211.645 57.094V57.1049C211.705 57.3207 211.801 57.6727 211.922 58.1142C212.08 58.6926 212.28 59.4246 212.495 60.2055C212.863 61.604 213.196 63.1977 213.403 64.3252ZM253.362 118.284C253.029 119.241 252.757 120.024 252.616 120.461C253.93 117.231 254.443 115.473 255.071 113.322C255.196 112.896 255.325 112.455 255.465 111.983C254.888 113.896 254.01 116.42 253.362 118.284ZM203.938 44.4206C205.041 44.0953 206.155 43.9327 207.246 43.9978L207.234 44.0086C206.798 43.9761 206.35 44.0086 205.879 44.0628C205.408 44.0953 204.914 44.1929 204.42 44.3338C203.421 44.5832 202.445 45.0711 201.595 45.6456C199.883 46.8165 198.804 48.3018 198.034 49.6244C196.704 51.9911 196.065 54.0952 195.681 55.3605C195.63 55.5269 195.584 55.6787 195.541 55.8148C195.798 54.8881 195.956 54.3973 196.014 54.216C196.044 54.1216 196.048 54.1112 196.024 54.1669C195.955 54.3295 195.725 55.0342 195.507 55.8148C195.294 56.5531 195.096 57.3456 194.986 57.7869C194.865 58.2722 194.85 58.3329 195.036 57.4301C195.622 55.0992 196.277 52.6057 197.724 49.9388C198.482 48.6161 199.447 47.1959 201.055 45.9384C201.355 45.6808 201.734 45.4573 202.102 45.2409C202.198 45.1839 202.294 45.1275 202.387 45.0711C202.881 44.8325 203.41 44.6049 203.938 44.4206ZM341.945 126.392C341.349 126.654 340.62 126.974 340.053 127.182C340.384 127.112 340.701 126.987 341.032 126.857C341.116 126.824 341.201 126.79 341.288 126.757C341.715 126.583 342.177 126.387 342.662 126.082C342.471 126.161 342.222 126.27 341.945 126.392ZM309.075 100.277C308.843 99.5993 308.588 98.8521 308.638 98.6538C308.712 98.9197 308.826 99.2539 308.939 99.5867C309.146 100.195 309.352 100.798 309.307 100.974C309.245 100.773 309.162 100.53 309.075 100.277ZM327.169 128.013C327.183 128.019 327.196 128.025 327.208 128.031V128.02C327.195 128.018 327.182 128.016 327.169 128.013ZM327.169 128.013C327.05 127.992 326.905 127.97 326.75 127.947C326.607 127.926 326.455 127.904 326.308 127.879C326.1 127.824 325.892 127.77 325.788 127.683C325.927 127.705 326.123 127.748 326.377 127.813C326.696 127.874 327.005 127.943 327.169 128.013ZM356.615 114.078C356.649 113.936 357.434 112.934 357.573 112.869C357.431 113.086 357.307 113.229 357.157 113.404C357.014 113.57 356.846 113.764 356.615 114.078ZM349.579 121.557C349.573 121.559 349.568 121.56 349.563 121.561H349.575C349.576 121.56 349.577 121.559 349.579 121.557ZM349.579 121.557C349.957 121.215 350.452 120.737 350.953 120.253C351.506 119.718 352.066 119.176 352.483 118.805C352.235 119.091 351.89 119.417 351.564 119.724C351.208 120.061 350.874 120.375 350.717 120.592L350.717 120.592C350.867 120.472 351.017 120.352 351.133 120.298C351.033 120.38 350.906 120.506 350.779 120.633C350.553 120.858 350.325 121.085 350.244 121.071C350.394 120.951 350.602 120.766 350.59 120.711C350.495 120.792 350.375 120.901 350.251 121.014C349.983 121.258 349.695 121.521 349.579 121.557ZM328.296 128.61C328.615 128.666 328.902 128.716 329.008 128.761C328.524 128.718 327.623 128.554 327.427 128.434C327.663 128.498 327.994 128.556 328.296 128.61ZM368.711 96.7934C368.784 96.6263 368.855 96.4604 368.987 96.2356C369.195 96.2574 368.583 97.3576 368.306 97.5645C368.526 97.2223 368.619 97.007 368.711 96.7934ZM323.149 134.489C323.396 134.583 323.603 134.662 323.734 134.719C322.822 134.458 321.437 133.87 321.068 133.565C321.594 133.896 322.505 134.243 323.149 134.489ZM367.089 113.214C366.947 113.457 366.832 113.651 366.737 113.707C366.767 113.653 366.798 113.595 366.831 113.535C367.049 113.138 367.317 112.648 367.567 112.487C367.379 112.723 367.222 112.99 367.089 113.214ZM349.319 132.002C348.762 132.35 348.2 132.702 347.878 132.791C347.993 132.725 348.186 132.604 348.413 132.462C349.079 132.046 350.043 131.443 350.233 131.452C349.962 131.599 349.641 131.8 349.319 132.002ZM342.582 135.195C341.822 135.449 341.052 135.706 340.757 135.667C341.11 135.619 341.674 135.431 342.207 135.253C342.756 135.07 343.27 134.899 343.481 134.905C343.205 134.987 342.895 135.091 342.582 135.195ZM326.331 128.195C326.735 128.271 327.139 128.347 327.266 128.434H327.277C327.346 128.511 328.281 128.805 329.401 128.87C330.233 128.993 331.157 128.999 331.873 129.003C332.11 129.005 332.324 129.006 332.505 129.012C332.501 129.001 332.488 128.994 332.469 128.987C332.319 128.98 332.173 128.97 332.032 128.957C332.078 128.96 332.129 128.961 332.181 128.963C332.296 128.966 332.411 128.969 332.469 128.987C333.8 129.049 335.489 128.866 337.076 128.543C337.183 128.517 337.29 128.49 337.396 128.464C338.16 128.276 338.897 128.095 339.545 127.846C340.213 127.655 340.783 127.422 341.24 127.236C341.304 127.21 341.367 127.184 341.427 127.16C341.322 127.169 341.193 127.208 341.048 127.252C341.017 127.261 340.986 127.27 340.953 127.28C341.102 127.161 341.427 127.026 341.785 126.877C342.148 126.727 342.544 126.562 342.823 126.387C340.446 127.432 337.618 128.423 334.571 128.728C333.059 128.859 331.49 128.914 329.943 128.739C329.879 128.733 329.815 128.727 329.752 128.721C329.042 128.651 328.334 128.582 327.635 128.413C327.254 128.336 326.873 128.26 326.504 128.184L326.227 128.129L326.042 128.075L325.673 127.966C325.765 128.042 325.985 128.108 326.331 128.195L326.331 128.195ZM371.526 97.5209L371.318 97.4011V97.412C370.98 97.9968 370.728 98.3558 370.472 98.7196C370.203 99.1012 369.931 99.488 369.553 100.146C369.817 99.7989 369.815 99.8279 369.811 99.8721C369.809 99.8972 369.807 99.9271 369.853 99.8955C368.941 101.497 367.891 103.24 366.448 105.56C367.615 103.93 368.797 101.981 369.91 100.148C370.47 99.2246 371.012 98.3306 371.526 97.5209ZM370.772 102.334C370.629 102.575 370.465 102.869 370.286 103.188C369.783 104.087 369.162 105.195 368.572 105.941C368.642 105.828 368.742 105.67 368.851 105.499C369.245 104.881 369.743 104.1 369.264 104.688C369.578 104.022 370.328 102.954 370.772 102.334ZM300.94 96.7149C300.767 96.7693 301.471 99.1548 301.656 99.1222C301.523 98.6875 301.436 98.3566 301.358 98.0615C301.239 97.6097 301.143 97.242 300.94 96.7149ZM319.729 131.985C319.729 131.887 319.925 132.072 319.925 132.072C320.276 132.287 320.164 132.174 320.069 132.078C319.986 131.993 319.915 131.921 320.179 132.094C320.168 132.029 320.006 131.953 319.995 131.974C319.964 131.95 319.894 131.897 319.795 131.821C319.375 131.502 318.427 130.782 317.698 130.112C317.353 129.795 317.046 129.501 316.828 129.291C316.475 128.954 316.355 128.838 316.682 129.208C316.826 129.351 316.93 129.462 317.014 129.551C317.172 129.72 317.258 129.812 317.409 129.905C317.416 129.992 317.612 130.173 317.711 130.264C317.785 130.331 317.804 130.349 317.652 130.243C318.013 130.633 318.467 130.977 318.887 131.296C319.206 131.537 319.505 131.764 319.729 131.985ZM330.589 135.231C331.363 135.242 332.205 135.253 331.086 135.199H331.097C330.365 135.19 329.667 135.097 328.976 135.005C328.775 134.978 328.574 134.951 328.374 134.926C327.576 134.848 326.807 134.682 326.033 134.515C325.944 134.496 325.854 134.477 325.765 134.458L324.461 134.175C324.296 134.119 324.127 134.069 323.957 134.018C323.629 133.92 323.3 133.821 322.995 133.685C322.037 133.303 321.149 132.835 320.318 132.279C320.837 132.661 321.553 133.086 322.407 133.489C322.475 133.518 322.542 133.548 322.61 133.578C322.991 133.746 323.374 133.915 323.815 134.044C323.899 134.069 323.987 134.097 324.074 134.125C324.248 134.181 324.423 134.237 324.576 134.273L325.257 134.425C326.884 134.836 328.613 135.071 330.01 135.186C330.126 135.194 330.279 135.205 330.474 135.22C330.324 135.21 330.169 135.199 330.01 135.186C329.302 135.138 329.916 135.213 330.589 135.231ZM325.776 134.801C326.027 134.858 326.301 134.921 326.758 134.981V134.97C326.48 134.91 326.205 134.85 325.93 134.79C325.657 134.73 325.384 134.67 325.107 134.61C325.038 134.595 324.971 134.58 324.904 134.566C324.697 134.521 324.498 134.478 324.253 134.404L323.284 134.099C322.037 133.63 320.895 133.009 319.868 132.312C317.825 130.907 316.209 129.23 314.778 127.519C312.1 124.259 310.126 120.873 308.385 117.886C308.288 117.719 308.192 117.554 308.096 117.389C309.827 120.853 311.685 123.903 314.062 126.866C315.274 128.336 316.601 129.796 318.275 131.179C319.106 131.876 320.041 132.541 321.103 133.151C322.13 133.761 323.48 134.305 324.727 134.632C325.219 134.673 325.482 134.734 325.776 134.801ZM316.425 129.607C316.142 129.335 315.832 129.036 315.644 128.805C315.737 129.015 316.302 129.552 316.753 129.98C316.862 130.083 316.964 130.18 317.052 130.264C316.976 130.138 316.714 129.886 316.425 129.607ZM343.123 134.055C342.35 134.273 341.23 134.621 340.953 134.861C341.646 134.655 342.061 134.484 342.48 134.311C342.683 134.228 342.887 134.144 343.123 134.055ZM318.403 120.992C318.778 121.507 319.161 122.033 319.475 122.563C319.002 121.997 318.148 120.897 317.929 120.483C318.248 120.935 318.119 120.727 317.959 120.469C317.795 120.204 317.597 119.886 317.813 120.167C318 120.438 318.2 120.714 318.403 120.992ZM367.439 98.5031C367.513 98.2853 367.511 98.2451 367.507 98.1615C367.505 98.1168 367.502 98.0598 367.51 97.9566C367.42 98.1449 367.29 98.3758 367.158 98.61C367.068 98.7687 366.977 98.929 366.898 99.0786C366.92 99.054 366.943 99.0288 366.966 99.0033C367.145 98.8024 367.339 98.5847 367.452 98.5557C367.543 98.403 367.492 98.4343 367.439 98.5031Z" fill="#9E80F7"/>
</svg>
