<svg width="343" height="10" viewBox="0 0 343 10" fill="none" xmlns="http://www.w3.org/2000/svg">
<path d="M110.528 0.952674C108.065 0.974353 104.45 0.898474 102.712 0.985192C105.843 1.03939 108.203 1.02855 110.528 0.952674ZM244.803 0.952674C244.193 1.10443 240.682 0.996033 238.714 1.02855C239.324 0.876795 242.835 0.985193 244.803 0.952674ZM147.033 1.02855C147.931 0.941834 150.785 1.00687 151.81 1.02855C150.751 1.12611 148.345 1.02855 147.033 1.02855ZM50.1252 1.14779C50.4591 1.08275 53.7054 1.08275 54.0393 1.14779C52.0247 1.12611 51.4146 1.20199 50.1252 1.14779ZM80.5512 1.14779C80.2289 1.23451 78.1107 1.15863 77.0746 1.18031C77.1437 1.22367 77.8689 1.21283 78.3755 1.22367C78.1913 1.31039 76.2343 1.23451 75.3363 1.26703C75.6587 1.23451 76.1307 1.21283 76.6372 1.19115C75.3248 1.10443 72.159 1.18031 70.1214 1.15863C72.8382 1.07191 77.7193 1.12611 80.5512 1.15863V1.14779ZM141.829 1.41878C142.428 1.33207 144.857 1.40794 146.169 1.37542C145.571 1.46214 143.142 1.38626 141.829 1.41878ZM0.600942 1.49466C1.98237 1.52718 2.36227 1.64642 4.07754 1.64642C3.31776 1.76565 0.405239 1.67894 0.600942 1.49466ZM150.521 8.30202C151.407 8.21531 154.124 8.29119 155.736 8.26951C154.849 8.35623 152.132 8.28035 150.521 8.30202ZM39.7069 8.72477C39.258 8.81149 37.7154 8.67058 36.2303 8.72477C36.9556 8.60554 38.5903 8.68142 39.7069 8.72477ZM100.11 9.2234C99.0854 9.31012 96.2074 9.23424 94.4576 9.26676C94.8721 9.13669 99.0394 9.18004 100.11 9.2234ZM115.755 9.19088C114.995 9.3318 112.071 9.2776 110.102 9.29928C110.862 9.15836 114.35 9.26676 115.755 9.19088ZM-7.67613 2.43772C-6.5825 2.42688 -5.36223 2.49192 -4.19953 2.36185C-2.27704 2.4594 0.359192 2.49192 3.19112 2.5136C3.53648 2.5136 3.62858 2.47024 4.05452 2.48108C3.78974 2.4052 4.75675 2.22092 3.19112 2.25344C4.56104 2.04749 7.63473 2.2426 7.53112 2.37268C8.85499 2.4052 9.11976 2.32932 10.1443 2.32932C8.31393 2.17756 7.53112 2.03665 4.92942 2.10169C4.95245 1.92825 5.12513 1.90657 4.49197 1.67894C6.89796 1.65726 6.85192 1.59222 7.96857 1.40794C8.99313 1.44046 10.1098 1.47298 11.4452 1.48382C12.0208 1.47298 12.1244 1.41878 12.746 1.40794C13.0684 1.2887 11.5603 1.33206 11.8826 1.21283C33.3524 1.40794 55.2365 1.26702 77.5006 1.36458C83.1875 1.07191 86.0654 1.3429 92.7078 1.2887C91.948 1.14779 88.4599 1.25618 87.0555 1.16947C103.161 1.09359 120.279 1.23451 133.115 1.06107C139.458 1.21283 148.437 1.25618 155.713 1.21283C157.221 1.20199 155.678 1.11527 156.576 1.10443C161.71 1.12611 161.837 1.16947 166.568 1.14779C165.958 1.3971 162.159 1.37542 158.752 1.37542C162.228 1.40794 169.435 1.49466 169.619 1.37542C177.516 1.37542 183.514 1.33206 192.217 1.33206C193.184 1.26703 195.06 1.27786 195.256 1.13695C198.445 1.13695 201.818 1.15863 203.948 1.06107C203.349 0.974352 200.92 1.05023 199.596 1.02855C202.14 0.876795 208.99 0.920155 210.026 1.14779C217.969 1.14779 226.361 1.18031 232.624 1.02855C239.013 1.41878 247.106 1.11527 255.659 1.18031C250.03 1.09359 258.825 1.07191 259.573 1.07191C264.316 1.02855 269.116 0.941835 273.48 0.876796C281.688 0.768399 288.33 0.887637 293.902 0.844278C307.681 0.714201 321.576 0.855118 333.008 1.03939C334.239 1.03939 334.815 0.974356 336.047 0.963516C336.035 0.996035 335.517 0.996034 335.172 0.996034C338.718 1.21283 343.276 1.64642 339.086 2.02581C339.466 2.22092 341.354 2.34016 343 2.52443C340.341 3.04474 341.653 3.71681 337.785 4.16124C340.064 4.54063 337.774 5.01758 337.785 5.45117C337.797 5.93896 340.122 6.50262 335.609 6.78446C334.101 8.3237 308.395 7.72752 295.191 7.61912C287.42 7.8576 279.27 7.49989 270.417 7.57576C269.128 7.57576 268.944 7.67332 267.816 7.695C255.406 7.5866 244.343 7.78172 233.487 7.77088C240.256 7.8576 243.491 7.82508 251.308 7.84676C254.531 7.86844 249.892 7.90096 248.706 7.89012C224.278 7.99852 193.103 8.06355 161.791 8.11775C158.51 8.11775 154.366 7.99851 152.662 8.15027C147.804 8.09607 144.788 8.10691 140.494 8.15027C140.298 8.21531 142.865 8.21531 142.67 8.15027C139.043 8.39958 129.822 8.18279 123.548 8.30202C130.674 8.56218 147.689 8.33455 155.713 8.42126C141.403 8.52966 128.982 8.44294 115.732 8.61638C115.904 8.52966 113.752 8.63806 114.431 8.50798C107.121 8.55134 100.881 8.50798 94.8721 8.50798C90.6242 8.50798 86.2957 8.7031 82.2665 8.50798C56.2841 8.4321 34.2618 8.41043 12.7345 8.12859C13.9087 8.00936 14.703 8.24783 16.2111 8.12859C14.8412 8.07439 12.9763 8.05272 11.8596 7.97684C9.76443 8.12859 -0.170357 8.00936 -1.60935 7.62997C1.61399 7.695 4.07754 7.81424 7.94555 7.82508C7.18576 7.72752 4.7107 7.78172 4.46895 7.62997C6.51807 7.57577 10.294 7.67332 12.723 7.70584C13.3331 7.695 12.7575 7.64081 12.2855 7.62997C17.7998 7.62997 24.0277 7.92263 30.106 7.7492C27.6309 7.68416 23.832 7.8034 21.8519 7.62997C22.5196 7.57577 25.1789 7.66249 27.0668 7.62997C24.7875 7.52157 23.2564 7.54325 20.5511 7.51073C22.5542 7.66248 18.7783 7.51073 17.0745 7.55409C21.4375 7.43485 26.4682 7.40232 23.5902 7.09881C17.3508 7.03377 16.4529 7.07713 12.2971 7.05545C13.0684 7.13133 13.8972 7.06629 13.1604 7.20721H15.3362C12.9993 7.20721 11.5603 7.41317 8.383 7.43485C8.52114 7.38065 9.46512 7.40233 10.1213 7.39149C9.84501 7.26141 8.64778 7.21805 7.08215 7.19637C7.16274 7.08798 9.1543 7.15301 8.82045 7.00126C8.53266 6.89286 7.88799 7.03378 7.08215 7.00126C6.87494 6.88202 9.07372 6.96874 9.25791 6.88202C7.416 6.86034 5.28629 6.78446 1.86725 6.80614C2.05144 6.76278 2.41983 6.73026 3.1681 6.73026C2.109 6.63271 -0.296988 6.73026 -1.60935 6.73026C-1.3676 6.54599 -3.693 6.57851 -3.7851 6.42675C-1.12585 6.58935 -0.331524 6.34003 0.554894 6.54599C2.37378 6.28584 6.69075 6.44843 10.5472 6.35087C8.50963 6.28584 5.5856 6.30752 3.15659 6.275C3.44439 6.2208 4.08906 6.20996 4.89489 6.19912C4.72221 6.15576 3.20264 6.06904 3.59404 6.19912C2.27017 6.1124 4.87187 6.0582 5.33234 6.004C4.75675 5.98232 4.18115 5.98232 4.46895 5.80889C6.42597 5.76553 10.2249 6.01484 12.723 5.80889C13.2986 5.84141 14.0354 5.87392 14.4613 5.91728C15.9924 5.87392 16.7291 5.76553 19.2387 5.80889C16.614 5.88477 20.2403 5.8956 20.5511 6.03652C20.6202 5.8956 26.1114 5.98232 28.3677 5.91728C26.2035 5.8414 21.3109 5.88476 19.6762 5.87392C19.9985 5.8414 20.4705 5.81972 20.977 5.79804C16.9594 5.73301 12.3316 5.67881 8.37149 5.83056C8.23335 5.70049 6.37993 5.72217 5.33234 5.67881C3.73219 5.68965 4.07754 5.87392 2.29319 5.87392C2.01691 5.61377 2.92635 5.57041 5.7698 5.52705C2.54646 5.47285 -2.6224 5.61377 -3.7851 5.14766C-0.90712 5.41865 3.12205 5.47285 7.94555 5.41865C6.20725 5.3211 1.78667 5.45117 0.554894 5.31025C1.80969 5.32109 1.78667 5.23438 2.73065 5.19102C1.67155 5.06094 2.30471 5.13682 0.554894 5.03926C1.40678 4.9417 2.73065 5.12598 4.46895 5.08262C5.14815 4.96338 1.64853 5.00674 4.0315 4.97422C4.21569 4.90918 2.40831 4.84415 2.29319 4.9417C2.41983 4.8875 3.97394 4.74659 3.59404 4.59483C5.94247 4.56231 4.84884 4.61651 7.50809 4.55147C6.52958 4.34552 3.46741 4.62735 2.29319 4.51895C2.70762 4.61651 0.382216 4.76827 2.73065 4.78995C1.59097 4.96338 0.370704 4.78995 -0.745953 4.67071C-0.377571 4.56231 0.64699 4.69239 1.4298 4.67071C2.52343 4.3672 -3.75056 3.99865 -0.308499 3.83605C-0.00918961 3.73849 -1.20643 3.76017 -1.60935 3.71681C0.554894 3.55422 3.15659 3.67346 5.78131 3.56506C4.88338 3.50002 1.01537 3.50002 0.128953 3.56506C-1.2755 3.5217 0.543383 3.45666 1.4298 3.48918C0.589431 3.23987 -5.45433 3.45665 -6.82425 3.41329C-7.23868 3.31574 -3.54335 3.23986 -2.91019 3.10978C-2.38065 3.15314 -2.11587 3.21818 -0.734441 3.18566C-2.35762 3.27238 -0.227916 3.23986 -1.17189 3.33742C0.566406 3.15314 2.06296 3.18566 4.04301 3.0339C2.02842 2.87131 -0.653858 2.92551 -3.34765 2.73039C-5.63852 2.80627 -6.74366 2.82795 -9 2.73039C-9 2.61116 -6.2947 2.53528 -7.69915 2.42688L-7.67613 2.43772ZM146.595 1.40794C147.343 1.29954 151.062 1.44046 151.81 1.33206C135.739 1.31038 116.779 1.08275 102.712 1.33206C104.461 1.35374 107.328 1.27787 108.364 1.37542C107.846 1.3971 107.374 1.41878 107.063 1.4513C112.716 1.38626 125.954 1.5055 133.575 1.37542C133.057 1.37542 132.343 1.37542 132.274 1.41878C136.257 1.44046 146.146 1.58138 146.618 1.41878L146.595 1.40794ZM0.151977 3.95528V4.18292C7.00157 4.24796 15.8888 4.33468 23.1873 4.18292C16.5334 4.16124 11.5718 4.1504 7.10518 4.07452C7.43902 4.02032 6.34539 4.02032 7.96857 3.95528C4.36534 3.90108 3.4559 4.042 0.151977 3.95528ZM11.0192 6.04735C13.5864 6.05819 18.3178 6.22079 21.449 6.09071C19.964 6.07987 15.67 6.13407 17.9724 6.01484C16.1305 5.92812 12.8496 6.01484 11.0192 6.04735ZM276.968 7.45653C275.701 7.42401 276.473 7.40233 276.53 7.30477C273.767 7.27225 271.281 7.20721 267.839 7.22889C269.151 7.43485 273.537 7.67332 276.968 7.45653ZM248.28 7.38065C248.326 7.55408 254.347 7.55408 254.37 7.38065C252.102 7.30477 251.077 7.38065 248.28 7.38065ZM159.201 7.57576C159.201 7.57576 159.753 7.54325 159.638 7.61912C161.112 7.48905 163.31 7.6408 165.279 7.54325C164.358 7.48905 165.901 7.56493 166.154 7.46737C166.706 7.52157 167.052 7.46737 168.33 7.46737C171.852 7.40233 160.053 7.42401 159.201 7.46737C159.201 7.44569 158.844 7.42401 158.763 7.46737C160.122 7.45653 157.658 7.57577 159.201 7.58661V7.57576ZM135.302 7.61912C130.571 7.66248 142.393 7.68416 136.603 7.66248C142.796 7.695 153.099 7.65164 158.337 7.54325C150.302 7.59744 143.165 7.54325 135.302 7.61912ZM144.431 7.89012C146.538 7.95516 146.86 7.8576 148.782 7.966C168.848 7.68416 183.606 7.95516 201.795 7.93348C184.941 7.52157 163.322 7.81424 144.431 7.89012ZM170.505 7.93348C169.193 7.95516 166.764 7.89012 166.165 7.966C167.489 7.94432 169.907 8.0202 170.505 7.93348ZM114.891 8.46462C114.189 8.32371 111.749 8.34539 110.114 8.38874C111.726 8.41042 112.704 8.49714 114.891 8.46462ZM177.033 1.24534C179.634 1.12611 182.386 1.19115 184.861 1.20199C186.691 1.25619 181.016 1.23451 183.997 1.27787C182.754 1.32123 179.082 1.25619 177.044 1.23451L177.033 1.24534ZM7.11669 1.44046C6.17271 1.35374 6.49505 1.35374 5.81584 1.21283C6.63319 1.25618 7.86496 1.26702 8.85499 1.2887C8.17579 1.3429 7.33541 1.38626 7.11669 1.48382C6.62168 1.48382 6.87494 1.44046 7.11669 1.4513V1.44046Z" fill="#124A36"/>
</svg>
